<?xml version="1.0" encoding="UTF-8"?><svg id="Layer_1" xmlns="http://www.w3.org/2000/svg" viewBox="0 0 1454.67 685.56"><path d="M298.47,250.61c-5.48-7.17-10.62-15.57-15.43-25.2s-8.45-18.88-10.9-27.75c13.03-8.5,23.5-17.84,31.43-28.03,7.93-10.19,11.89-19.35,11.89-27.47,0-5.66-1.94-10.15-5.81-13.45-3.87-3.3-9.77-4.96-17.7-4.96H107.89c-.57-8.5-.14-17.23,1.27-26.19,1.42-8.96,3.44-16.57,6.09-22.8h191.99c7.36,26.05,11.04,53.9,11.04,83.54,0,16.42-1.27,32.9-3.82,49.41-2.55,16.52-6.19,30.82-10.9,42.9h-5.1ZM169.05,250.61c-8.12-8.87-13.69-19.49-16.71-31.86-3.02-12.36-3.5-25.2-1.42-38.51,2.08-13.31,6.32-25.81,12.74-37.52h3.12c0,13.41,2.83,24.88,8.5,34.41,5.66,9.54,13.88,16.28,24.64,20.25-2.46,10.01-6.23,19.87-11.33,29.59-5.1,9.73-10.67,17.61-16.71,23.65h-2.83Z" fill="#fff"/><path d="M335.56,285.72c-.38-2.65-.57-5.81-.57-9.49s.19-6.56.57-8.64h59.47c.38,2.08.57,4.96.57,8.64s-.19,6.84-.57,9.49h-59.47Z" fill="#fff"/><path d="M345.19,248.34c-3.21-6.42-5.71-14.02-7.5-22.8-1.8-8.78-2.69-18.17-2.69-28.18,13.21,0,24.96-2.45,35.26-7.36,10.29-4.91,18.26-11.37,23.93-19.4,5.66-8.02,8.5-16.57,8.5-25.63,0-7.74-2.55-14.82-7.65-21.24h-71.93c-.57-8.5-.14-17.23,1.27-26.19,1.42-8.96,3.44-16.57,6.09-22.8h64.28c7.74,22.09,11.61,43.99,11.61,65.7,0,30.21-4.67,54.75-14.02,73.63-9.34,18.88-25.06,30.3-47.15,34.26Z" fill="#fff"/><path d="M460.73,186.33c6.98-6.42,12.6-13.64,16.85-21.66,4.25-8.02,6.37-15.43,6.37-22.23,0-5.66-1.65-10.19-4.96-13.59-3.31-3.4-8.45-5.1-15.43-5.1h-52.39c-.57-8.5-.14-17.23,1.27-26.19,1.42-8.96,3.44-16.57,6.09-22.8h70.23c6.04,10.76,9.06,23.22,9.06,37.38s-3.21,28.74-9.63,42.62c-6.42,13.88-15.11,25.16-26.05,33.84l-1.42-2.27Z" fill="#fff"/><path d="M612.51,290.25c-3.78,0-6.99-1.27-9.63-3.82-2.65-2.55-3.96-5.71-3.96-9.49s1.32-6.99,3.96-9.63c2.64-2.65,5.85-3.96,9.63-3.96s6.94,1.32,9.49,3.96c2.55,2.64,3.82,5.85,3.82,9.63s-1.27,6.94-3.82,9.49-5.71,3.82-9.49,3.82Z" fill="#fff"/><path d="M592.69,168.2c-3.78,0-6.99-1.27-9.63-3.82-2.65-2.55-3.96-5.71-3.96-9.49s1.32-6.98,3.96-9.63,5.85-3.96,9.63-3.96,6.94,1.32,9.49,3.96c2.55,2.65,3.82,5.85,3.82,9.63s-1.27,6.7-3.82,9.34c-2.55,2.65-5.71,3.96-9.49,3.96Z" fill="#fff"/><path d="M525.57,247.78c-3.02-5.85-5.29-13.5-6.8-22.94-1.51-9.44-1.89-18.59-1.13-27.47h1.42c19.07,0,40.92-2.55,65.55-7.65s45.73-12.03,63.29-20.81c17.56-8.78,26.33-18.27,26.33-28.46,0-5.66-2.55-9.86-7.65-12.6-5.1-2.73-12.37-4.11-21.8-4.11h-140.17c-.76-8.31-.42-16.94.99-25.91,1.42-8.96,3.35-16.66,5.81-23.08h169.9c6.61,10.95,9.72,23.32,9.35,37.1-.38,13.78-5.29,26.72-14.73,38.79l21.8,4.81c.94,3.59,1.6,8.07,1.98,13.45.38,5.38.38,10.24,0,14.58-10.19,13.78-24.68,25.49-43.47,35.11-18.79,9.63-39.46,16.9-62.02,21.8-22.56,4.91-44.88,7.36-66.97,7.36h-1.7Z" fill="#fff"/><path d="M773.64,285.72c-.38-2.65-.57-5.81-.57-9.49s.19-6.56.57-8.64h59.47c.38,2.08.57,4.96.57,8.64s-.19,6.84-.57,9.49h-59.47Z" fill="#fff"/><path d="M777.03,249.19c-15.29-11.33-29.59-26.62-42.9-45.87s-23.18-40.73-29.59-64.42c-6.42-23.69-6.99-47.33-1.7-70.94,9.81.95,19.58,3.92,29.31,8.92,9.72,5,17.7,11.09,23.93,18.27-7.93,8.5-14.44,19.49-19.54,32.99-5.1,13.5-7.65,26.38-7.65,38.65,0,6.99.85,13.27,2.55,18.83,1.7,5.57,4.34,10.24,7.93,14.02,32.85,0,62.44-2.03,88.78-6.09,26.33-4.06,47.15-9.91,62.44-17.56,15.29-7.65,22.94-16.66,22.94-27.04,0-4.91-1.98-9.63-5.95-14.16-3.96-4.53-9.96-8.26-17.98-11.19-8.03-2.92-17.7-4.39-29.03-4.39-17.37,0-31.15,3.54-41.34,10.62-10.19,7.08-16.71,16.76-19.54,29.03-.95.19-1.98.28-3.11.28s-2.17-.09-3.12-.28c-1.7-7.74-2.55-14.91-2.55-21.52,0-13.03,2.59-24.54,7.79-34.55,5.19-10,12.5-17.79,21.95-23.36,9.44-5.57,20.39-8.35,32.85-8.35s23.83,2.69,33.56,8.07c9.72,5.38,17.22,12.93,22.51,22.65,5.28,9.73,7.93,21,7.93,33.84,0,22.65-5.76,42.52-17.27,59.61-11.52,17.09-27.85,30.35-48.99,39.79-21.14,9.44-45.87,14.16-74.19,14.16Z" fill="#fff"/><path d="M922.58,182.36c-1.51-9.25-2.26-17.32-2.26-24.21s.85-14.58,2.55-23.08h110.16c1.51,9.06,2.27,17.04,2.27,23.93s-.85,14.68-2.55,23.36h-110.16Z" fill="#fff"/><path d="M1181.97,247.78c-33.41-6.61-59.94-19.96-79.57-40.07-19.64-20.11-29.45-45.54-29.45-76.32,0-3.4.09-5.95.28-7.65h-32.56c-.57-8.5-.14-17.23,1.27-26.19,1.42-8.96,3.44-16.57,6.09-22.8h320.27c3.21-13.78,8.68-25.86,16.42-36.25,7.74-10.38,17.46-18.31,29.17-23.79,4.34,3.78,8.78,11.09,13.31,21.95,4.53,10.86,6.98,19.3,7.36,25.34-10.95-1.7-21.43-1.37-31.43.99-10.01,2.36-17.94,6.47-23.79,12.32,10,.57,19.11,1.84,27.33,3.82,8.21,1.98,15.24,4.58,21.1,7.79,8.68,4.72,15.1,10.67,19.26,17.84,4.15,7.18,6.23,15.2,6.23,24.07l-2.83,3.68c-4.53-2.64-13.36-4.77-26.48-6.37-13.12-1.6-28.27-2.41-45.45-2.41h-274.11c-8.88,0-15.67,1.89-20.39,5.66-4.72,3.78-7.08,8.69-7.08,14.73,0,9.63,6.18,18.17,18.55,25.63,12.36,7.46,27.37,13.5,45.03,18.12,17.65,4.63,34.69,7.79,51.11,9.49.57,8.31,0,17.04-1.7,26.19-1.7,9.16-4.35,17.23-7.93,24.21Z" fill="#fff"/><path d="M165.37,526.14c6.98-6.42,12.6-13.64,16.85-21.66,4.25-8.02,6.37-15.43,6.37-22.23,0-5.66-1.65-10.19-4.96-13.59-3.31-3.4-8.45-5.1-15.43-5.1h-52.39c-.57-8.5-.14-17.22,1.27-26.19,1.42-8.96,3.44-16.57,6.09-22.8h70.23c6.04,10.76,9.06,23.22,9.06,37.38s-3.21,28.74-9.63,42.62c-6.42,13.88-15.11,25.16-26.05,33.84l-1.42-2.27Z" fill="#fff"/><path d="M430.14,630.06c-3.78,0-6.99-1.27-9.63-3.82-2.65-2.55-3.96-5.71-3.96-9.49s1.32-6.99,3.96-9.63c2.64-2.65,5.85-3.96,9.63-3.96s6.94,1.32,9.49,3.96c2.55,2.64,3.82,5.85,3.82,9.63s-1.27,6.94-3.82,9.49c-2.55,2.55-5.71,3.82-9.49,3.82Z" fill="#fff"/><path d="M608.54,590.42c-5.48-7.17-10.62-15.58-15.43-25.2s-8.45-18.97-10.9-28.03c11.33-6.8,21.24-15.24,29.73-25.34,8.5-10.1,12.74-19.96,12.74-29.59,0-5.66-2.12-10.19-6.37-13.59s-9.87-5.1-16.85-5.1h-323.39c4.72,15.48,7.08,30.49,7.08,45.03,0,22.47-5.48,41.02-16.42,55.64-10.95,14.63-25.87,22.89-44.74,24.78-3.21-6.61-5.43-14.54-6.65-23.79-1.23-9.25-1.37-18.59-.42-28.03,11.89,0,22.23-2.92,31.01-8.78,8.78-5.85,15.48-13.07,20.11-21.66,4.62-8.59,6.94-16.94,6.94-25.06s-.85-13.78-2.55-18.12h-63.15c-.57-8.5-.14-17.22,1.27-26.19,1.42-8.96,3.44-16.57,6.09-22.8h400.69c7.36,26.05,11.04,53.9,11.04,83.54,0,16.42-1.27,32.9-3.82,49.41-2.55,16.52-6.19,30.82-10.9,42.9h-5.1Z" fill="#fff"/><path d="M683.3,526.14c6.98-6.42,12.6-13.64,16.85-21.66,4.25-8.02,6.37-15.43,6.37-22.23,0-5.66-1.65-10.19-4.96-13.59-3.31-3.4-8.45-5.1-15.43-5.1h-52.39c-.57-8.5-.14-17.22,1.27-26.19,1.42-8.96,3.44-16.57,6.09-22.8h70.23c6.04,10.76,9.06,23.22,9.06,37.38s-3.21,28.74-9.63,42.62c-6.42,13.88-15.11,25.16-26.05,33.84l-1.42-2.27Z" fill="#fff"/><path d="M769.39,630.06c-3.78,0-6.99-1.27-9.63-3.82-2.65-2.55-3.96-5.71-3.96-9.49s1.32-6.99,3.96-9.63c2.64-2.65,5.85-3.96,9.63-3.96s6.94,1.32,9.49,3.96c2.55,2.64,3.82,5.85,3.82,9.63s-1.27,6.94-3.82,9.49c-2.55,2.55-5.71,3.82-9.49,3.82Z" fill="#fff"/><path d="M749.28,588.15c-3.21-6.42-5.71-14.02-7.5-22.8-1.8-8.78-2.69-18.17-2.69-28.18,13.21,0,24.96-2.45,35.25-7.36,10.29-4.91,18.26-11.37,23.93-19.4,5.66-8.02,8.5-16.57,8.5-25.63,0-7.74-2.55-14.82-7.65-21.24h-71.93c-.57-8.5-.14-17.22,1.27-26.19,1.42-8.96,3.44-16.57,6.09-22.8h64.28c7.74,22.09,11.61,43.99,11.61,65.7,0,30.21-4.67,54.75-14.02,73.62-9.34,18.88-25.06,30.3-47.15,34.26Z" fill="#fff"/><path d="M923.15,630.06c-3.78,0-6.99-1.27-9.63-3.82-2.65-2.55-3.96-5.71-3.96-9.49s1.32-6.99,3.96-9.63c2.64-2.65,5.85-3.96,9.63-3.96s6.94,1.32,9.49,3.96c2.55,2.64,3.82,5.85,3.82,9.63s-1.27,6.94-3.82,9.49c-2.55,2.55-5.71,3.82-9.49,3.82ZM923.15,668.86c-3.78,0-6.99-1.27-9.63-3.82-2.65-2.55-3.96-5.71-3.96-9.49s1.32-6.99,3.96-9.63c2.64-2.65,5.85-3.96,9.63-3.96s6.94,1.32,9.49,3.96c2.55,2.64,3.82,5.85,3.82,9.63s-1.27,6.94-3.82,9.49c-2.55,2.55-5.71,3.82-9.49,3.82Z" fill="#fff"/><path d="M903.33,508.02c-3.78,0-6.99-1.27-9.63-3.82-2.65-2.55-3.96-5.71-3.96-9.49s1.32-6.98,3.96-9.63c2.64-2.64,5.85-3.96,9.63-3.96s6.94,1.32,9.49,3.96c2.55,2.65,3.82,5.85,3.82,9.63s-1.27,6.7-3.82,9.34c-2.55,2.65-5.71,3.96-9.49,3.96Z" fill="#fff"/><path d="M836.22,587.59c-3.02-5.85-5.29-13.5-6.8-22.94-1.51-9.44-1.89-18.59-1.13-27.47h1.42c19.07,0,40.92-2.55,65.56-7.65,24.64-5.1,45.73-12.04,63.29-20.81s26.34-18.26,26.34-28.46c0-5.66-2.55-9.86-7.65-12.6-5.1-2.73-12.37-4.11-21.8-4.11h-140.17c-.76-8.3-.42-16.94.99-25.91,1.42-8.96,3.35-16.66,5.8-23.08h169.91c6.61,10.95,9.72,23.32,9.34,37.1-.38,13.78-5.29,26.72-14.73,38.79l21.8,4.81c.94,3.59,1.6,8.07,1.98,13.45.38,5.38.38,10.24,0,14.58-10.19,13.78-24.68,25.49-43.47,35.11-18.79,9.63-39.46,16.9-62.01,21.8-22.56,4.91-44.88,7.36-66.97,7.36h-1.7Z" fill="#fff"/><path d="M1084.28,625.53c-.38-2.65-.57-5.8-.57-9.49s.19-6.56.57-8.64h59.47c.38,2.08.57,4.96.57,8.64s-.19,6.84-.57,9.49h-59.47Z" fill="#fff"/><path d="M1087.68,589c-15.29-11.33-29.59-26.62-42.9-45.88s-23.18-40.73-29.59-64.42c-6.42-23.69-6.99-47.33-1.7-70.94,9.81.95,19.58,3.92,29.31,8.92,9.72,5,17.7,11.09,23.93,18.26-7.93,8.5-14.44,19.5-19.54,32.99-5.1,13.5-7.65,26.38-7.65,38.65,0,6.99.85,13.26,2.55,18.83,1.7,5.57,4.34,10.24,7.93,14.02,32.85,0,62.44-2.03,88.78-6.09,26.33-4.06,47.15-9.91,62.44-17.56,15.29-7.65,22.94-16.66,22.94-27.04,0-4.91-1.98-9.63-5.95-14.16-3.96-4.53-9.96-8.26-17.98-11.19-8.03-2.92-17.7-4.39-29.03-4.39-17.37,0-31.15,3.54-41.34,10.62-10.19,7.08-16.71,16.76-19.54,29.03-.95.19-1.98.28-3.11.28s-2.17-.09-3.12-.28c-1.7-7.74-2.55-14.91-2.55-21.52,0-13.03,2.59-24.54,7.79-34.55,5.19-10,12.5-17.79,21.95-23.36,9.44-5.57,20.39-8.35,32.85-8.35s23.83,2.69,33.56,8.07c9.72,5.38,17.22,12.93,22.51,22.65,5.28,9.72,7.93,21,7.93,33.84,0,22.65-5.76,42.53-17.27,59.61-11.52,17.09-27.85,30.35-48.99,39.79-21.14,9.44-45.87,14.16-74.19,14.16Z" fill="#fff"/></svg>