<?xml version="1.0" encoding="UTF-8"?><svg id="Layer_1" xmlns="http://www.w3.org/2000/svg" viewBox="0 0 1810.5 831.43"><path d="M1143.47,203.21c-4.44-5.82-8.61-12.63-12.51-20.44-3.9-7.81-6.85-15.31-8.84-22.5,10.56-6.89,19.06-14.47,25.49-22.73s9.64-15.69,9.64-22.27c0-4.59-1.57-8.23-4.71-10.91-3.14-2.68-7.92-4.02-14.35-4.02h-215.38c-.46-6.89-.11-13.97,1.03-21.24,1.15-7.27,2.79-13.43,4.94-18.48h221.81c5.97,21.12,8.96,43.71,8.96,67.74,0,13.32-1.03,26.67-3.1,40.07-2.07,13.4-5.02,24.99-8.84,34.79h-4.13ZM972.41,203.21c-6.58-7.19-11.1-15.8-13.55-25.83-2.45-10.02-2.83-20.44-1.15-31.23,1.68-10.79,5.13-20.93,10.33-30.42h2.53c0,10.87,2.3,20.17,6.89,27.9,4.59,7.73,11.25,13.2,19.98,16.42-1.99,8.12-5.05,16.11-9.18,23.99-4.13,7.89-8.65,14.28-13.55,19.17h-2.3Z" fill="#fff"/><path d="M1341.86,250.05l1.15-18.14h-18.6c-.31-2.15-.46-4.71-.46-7.69s.15-5.32.46-7h48.22c.3,1.68.46,4.02.46,7s-.15,5.55-.46,7.69h-17.68l.92,18.14c-1.84.76-4.1,1.15-6.77,1.15s-5.09-.38-7.23-1.15Z" fill="#fff"/><path d="M1347.37,200.91c-2.6-5.05-4.86-11.75-6.77-20.09-1.92-8.34-2.87-15.27-2.87-20.78,11.79-1.99,24.72-5.2,38.8-9.64,14.08-4.44,25.95-9.56,35.59-15.38,6.12-3.67,10.91-7.5,14.35-11.48,3.44-3.98,5.17-8.04,5.17-12.17,0-3.21-1-5.86-2.99-7.92-1.99-2.07-4.9-3.1-8.73-3.1h-255.1c-.77-9.49-1.15-17.53-1.15-24.11,0-16.99,3.06-31.76,9.18-44.32,6.12-12.55,15.15-22.04,27.09-28.47,3.52,3.06,7.12,8.99,10.79,17.79,3.67,8.8,5.66,15.65,5.97,20.55-11.02-1.38-21.24-.42-30.65,2.87-9.41,3.29-15.88,8.61-19.4,15.96h258.31c6.43,15.92,9.64,31.84,9.64,47.76,0,13.01-3.64,25.83-10.91,38.46-7.27,12.63-17.53,23.77-30.77,33.41-13.24,9.64-28.44,16.53-45.58,20.67Z" fill="#fff"/><path d="M1478.71,151.08c5.66-5.2,10.22-11.06,13.66-17.56,3.44-6.5,5.17-12.51,5.17-18.02,0-4.59-1.34-8.27-4.02-11.02-2.68-2.76-6.85-4.13-12.51-4.13h-42.48c-.46-6.89-.11-13.97,1.03-21.24,1.15-7.27,2.79-13.43,4.94-18.48h56.94c4.9,8.73,7.35,18.83,7.35,30.31s-2.6,23.31-7.81,34.56c-5.21,11.25-12.25,20.4-21.12,27.44l-1.15-1.84Z" fill="#fff"/><path d="M1601.78,235.35c-3.06,0-5.67-1.03-7.81-3.1-2.15-2.07-3.21-4.63-3.21-7.69s1.07-5.67,3.21-7.81c2.14-2.15,4.74-3.21,7.81-3.21s5.62,1.07,7.69,3.21c2.07,2.14,3.1,4.74,3.1,7.81s-1.03,5.63-3.1,7.69-4.63,3.1-7.69,3.1Z" fill="#fff"/><path d="M1585.71,136.39c-3.06,0-5.67-1.03-7.81-3.1-2.14-2.07-3.21-4.63-3.21-7.69s1.07-5.66,3.21-7.81c2.14-2.14,4.74-3.21,7.81-3.21s5.62,1.07,7.69,3.21c2.07,2.15,3.1,4.75,3.1,7.81s-1.03,5.44-3.1,7.58c-2.07,2.15-4.63,3.21-7.69,3.21Z" fill="#fff"/><path d="M1531.29,200.91c-2.45-4.74-4.29-10.94-5.51-18.6-1.23-7.65-1.53-15.08-.92-22.27h1.15c15.46,0,33.18-2.07,53.16-6.2,19.98-4.13,37.08-9.76,51.32-16.88s21.35-14.81,21.35-23.08c0-4.59-2.07-8-6.2-10.22-4.13-2.22-10.03-3.33-17.68-3.33h-113.66c-.61-6.73-.34-13.74.8-21.01,1.15-7.27,2.72-13.51,4.71-18.71h137.77c5.36,8.88,7.88,18.91,7.58,30.08-.31,11.18-4.29,21.66-11.94,31.46l17.68,3.9c.76,2.91,1.3,6.54,1.61,10.91.31,4.36.31,8.31,0,11.83-8.27,11.18-20.02,20.67-35.25,28.47-15.23,7.81-32,13.7-50.29,17.68-18.29,3.98-36.39,5.97-54.3,5.97h-1.38Z" fill="#fff"/><path d="M148.56,414.45c-3.06,0-5.67-1.03-7.81-3.1-2.15-2.07-3.21-4.63-3.21-7.69s1.07-5.66,3.21-7.81,4.74-3.21,7.81-3.21,5.63,1.07,7.69,3.21c2.07,2.15,3.1,4.75,3.1,7.81s-1.03,5.44-3.1,7.58c-2.07,2.15-4.63,3.21-7.69,3.21Z" fill="#fff"/><path d="M202.52,478.74c-4.44-5.82-8.61-12.63-12.51-20.44-3.9-7.81-6.85-15.31-8.84-22.5,10.56-6.89,19.06-14.47,25.49-22.73,6.43-8.27,9.64-15.69,9.64-22.27,0-4.59-1.57-8.23-4.71-10.91-3.14-2.68-7.92-4.02-14.35-4.02H47.99c-.46-6.89-.11-13.97,1.03-21.24,1.15-7.27,2.79-13.43,4.94-18.48h155.68c5.97,21.12,8.95,43.71,8.95,67.74,0,13.32-1.03,26.68-3.1,40.07-2.07,13.4-5.02,24.99-8.84,34.79h-4.13ZM97.59,478.74c-6.58-7.19-11.1-15.8-13.55-25.83-2.45-10.02-2.83-20.44-1.15-31.23,1.68-10.79,5.13-20.93,10.33-30.42h2.53c0,10.87,2.3,20.17,6.89,27.9,4.59,7.73,11.25,13.2,19.98,16.42-1.99,8.12-5.05,16.11-9.18,23.99-4.13,7.89-8.65,14.28-13.55,19.17h-2.3Z" fill="#fff"/><path d="M442.92,510.89c-3.06,0-5.67-1.03-7.81-3.1-2.15-2.07-3.21-4.63-3.21-7.69s1.07-5.67,3.21-7.81c2.14-2.15,4.74-3.21,7.81-3.21s5.63,1.07,7.69,3.21c2.07,2.14,3.1,4.74,3.1,7.81s-1.03,5.63-3.1,7.69-4.63,3.1-7.69,3.1ZM457.85,537.75c-3.06,0-5.67-1.03-7.81-3.1-2.15-2.07-3.21-4.63-3.21-7.69s1.07-5.67,3.21-7.81c2.14-2.15,4.74-3.21,7.81-3.21s5.63,1.07,7.69,3.21c2.07,2.14,3.1,4.74,3.1,7.81s-1.03,5.62-3.1,7.69c-2.07,2.07-4.63,3.1-7.69,3.1ZM472.54,510.89c-3.06,0-5.67-1.03-7.81-3.1-2.15-2.07-3.21-4.63-3.21-7.69s1.07-5.67,3.21-7.81c2.14-2.15,4.74-3.21,7.81-3.21s5.63,1.07,7.69,3.21c2.07,2.14,3.1,4.74,3.1,7.81s-1.03,5.63-3.1,7.69-4.63,3.1-7.69,3.1Z" fill="#fff"/><path d="M466.8,415.6c-3.06,0-5.67-1.03-7.81-3.1-2.15-2.07-3.21-4.63-3.21-7.69s1.07-5.66,3.21-7.81,4.74-3.21,7.81-3.21,5.63,1.07,7.69,3.21c2.07,2.15,3.1,4.75,3.1,7.81s-1.03,5.43-3.1,7.58c-2.07,2.15-4.63,3.21-7.69,3.21Z" fill="#fff"/><path d="M654.4,478.74c-4.44-5.82-8.61-12.63-12.51-20.44-3.9-7.81-6.85-15.38-8.84-22.73,9.18-5.51,17.22-12.36,24.11-20.55,6.89-8.19,10.33-16.19,10.33-23.99,0-4.59-1.72-8.27-5.17-11.02-3.44-2.76-8-4.13-13.66-4.13h-370.37c3.82,12.55,5.74,24.72,5.74,36.51,0,18.22-4.44,33.26-13.32,45.12-8.88,11.86-20.97,18.56-36.28,20.09-2.6-5.36-4.4-11.79-5.4-19.29-1-7.5-1.11-15.08-.34-22.73,9.64,0,18.02-2.37,25.14-7.12,7.12-4.74,12.55-10.6,16.3-17.57,3.75-6.96,5.63-13.74,5.63-20.32s-.69-11.17-2.07-14.7h-51.2c-.46-6.89-.11-13.97,1.03-21.24,1.15-7.27,2.79-13.43,4.94-18.48h433.05c5.97,21.12,8.95,43.71,8.95,67.74,0,13.32-1.03,26.68-3.1,40.07-2.07,13.4-5.02,24.99-8.84,34.79h-4.13Z" fill="#fff"/><path d="M709.05,510.89c-3.06,0-5.67-1.03-7.81-3.1-2.15-2.07-3.21-4.63-3.21-7.69s1.07-5.67,3.21-7.81c2.14-2.15,4.74-3.21,7.81-3.21s5.63,1.07,7.69,3.21c2.07,2.14,3.1,4.74,3.1,7.81s-1.03,5.63-3.1,7.69c-2.07,2.07-4.63,3.1-7.69,3.1ZM709.05,542.35c-3.06,0-5.67-1.03-7.81-3.1-2.15-2.07-3.21-4.63-3.21-7.69s1.07-5.67,3.21-7.81c2.14-2.15,4.74-3.21,7.81-3.21s5.63,1.07,7.69,3.21c2.07,2.14,3.1,4.74,3.1,7.81s-1.03,5.63-3.1,7.69c-2.07,2.07-4.63,3.1-7.69,3.1Z" fill="#fff"/><path d="M692.74,476.91c-2.6-5.2-4.63-11.37-6.08-18.48-1.46-7.12-2.18-14.73-2.18-22.85,10.71,0,20.24-1.99,28.59-5.97,8.34-3.98,14.81-9.22,19.4-15.73,4.59-6.5,6.89-13.43,6.89-20.78,0-6.28-2.07-12.02-6.2-17.22h-58.32c-.46-6.89-.11-13.97,1.03-21.24,1.15-7.27,2.79-13.43,4.94-18.48h52.12c6.27,17.91,9.41,35.67,9.41,53.27,0,24.49-3.79,44.39-11.37,59.7-7.58,15.31-20.32,24.57-38.23,27.78Z" fill="#fff"/><path d="M833.72,510.89c-3.06,0-5.67-1.03-7.81-3.1-2.15-2.07-3.21-4.63-3.21-7.69s1.07-5.67,3.21-7.81c2.14-2.15,4.74-3.21,7.81-3.21s5.63,1.07,7.69,3.21c2.07,2.14,3.1,4.74,3.1,7.81s-1.03,5.63-3.1,7.69c-2.07,2.07-4.63,3.1-7.69,3.1Z" fill="#fff"/><path d="M817.65,411.92c-3.06,0-5.67-1.03-7.81-3.1-2.15-2.07-3.21-4.63-3.21-7.69s1.07-5.66,3.21-7.81,4.74-3.21,7.81-3.21,5.63,1.07,7.69,3.21c2.07,2.15,3.1,4.75,3.1,7.81s-1.03,5.44-3.1,7.58c-2.07,2.15-4.63,3.21-7.69,3.21Z" fill="#fff"/><path d="M763.23,476.45c-2.45-4.74-4.29-10.94-5.51-18.6-1.23-7.65-1.53-15.08-.92-22.27h1.15c15.46,0,33.18-2.07,53.16-6.2,19.98-4.13,37.08-9.76,51.32-16.88,14.24-7.12,21.35-14.81,21.35-23.08,0-4.59-2.07-8-6.2-10.22-4.13-2.22-10.03-3.33-17.68-3.33h-113.66c-.61-6.73-.34-13.74.8-21.01,1.15-7.27,2.72-13.51,4.71-18.71h137.77c5.36,8.88,7.88,18.91,7.58,30.08-.31,11.18-4.29,21.66-11.94,31.46l17.68,3.9c.76,2.91,1.3,6.54,1.61,10.91.3,4.36.3,8.3,0,11.83-8.27,11.17-20.02,20.67-35.25,28.47-15.23,7.81-32,13.7-50.29,17.68-18.29,3.98-36.39,5.97-54.3,5.97h-1.38Z" fill="#fff"/><path d="M1064.72,476.45c-27.09-5.36-48.6-16.19-64.52-32.49-15.92-16.3-23.88-36.93-23.88-61.88,0-2.76.08-4.82.23-6.2h-27.32c-.46-6.89-.11-13.97,1.03-21.24,1.15-7.27,2.79-13.43,4.94-18.48h292.53c2.45-11.17,6.85-21.05,13.2-29.62,6.35-8.57,14.27-15.08,23.76-19.52,3.52,3.06,7.12,8.99,10.79,17.8,3.67,8.8,5.66,15.65,5.97,20.55-9.03-1.22-17.68-.84-25.95,1.15-8.27,1.99-14.78,5.36-19.52,10.1,8.57.31,16.15,1.23,22.73,2.76,6.58,1.53,12.24,3.67,16.99,6.43,7.04,3.83,12.32,8.69,15.84,14.58,3.52,5.89,5.28,12.44,5.28,19.63l-2.3,2.98c-3.67-2.14-10.83-3.86-21.47-5.17-10.64-1.3-22.93-1.95-36.85-1.95h-254.41c-7.2,0-12.71,1.53-16.53,4.59-3.83,3.06-5.74,7.04-5.74,11.94,0,7.81,5.01,14.74,15.04,20.78,10.02,6.05,22.19,10.95,36.51,14.7,14.31,3.75,28.13,6.31,41.45,7.69.46,6.74,0,13.82-1.38,21.24-1.38,7.43-3.52,13.97-6.43,19.63Z" fill="#fff"/><path d="M1351.27,525.58l1.15-18.14h-18.6c-.31-2.15-.46-4.71-.46-7.69s.15-5.32.46-7h48.22c.3,1.68.46,4.02.46,7s-.15,5.55-.46,7.69h-17.68l.92,18.14c-1.84.76-4.1,1.15-6.77,1.15s-5.09-.38-7.23-1.15Z" fill="#fff"/><path d="M1360.23,426.62c5.66-5.05,10.22-10.87,13.66-17.45,3.44-6.58,5.17-12.63,5.17-18.14,0-4.59-1.34-8.27-4.02-11.02-2.68-2.76-6.85-4.13-12.51-4.13h-42.48c-.46-6.89-.11-13.97,1.03-21.24,1.15-7.27,2.79-13.43,4.94-18.48h56.94c4.9,8.73,7.35,18.83,7.35,30.31s-2.6,23.31-7.81,34.56c-5.21,11.25-12.25,20.4-21.12,27.44l-1.15-1.84Z" fill="#fff"/><path d="M888.37,751.98c-27.09-5.36-48.6-16.19-64.52-32.49-15.92-16.3-23.88-36.93-23.88-61.88,0-2.76.08-4.82.23-6.2h-21.12c-.46-6.89-.11-13.97,1.03-21.24,1.15-7.27,2.79-13.43,4.94-18.48h96.67c2.6-10.71,7.04-20.17,13.32-28.36,6.27-8.19,14.01-14.5,23.19-18.94,3.52,3.06,7.12,9,10.79,17.8,3.67,8.8,5.66,15.65,5.97,20.55-8.57-1.22-16.76-.99-24.57.69-7.81,1.69-14.16,4.59-19.06,8.73,7.96.61,15.15,1.8,21.58,3.56,6.43,1.76,11.94,4.1,16.53,7,6.12,3.98,10.68,8.76,13.66,14.35,2.98,5.59,4.48,11.75,4.48,18.48l-2.3,2.98c-3.67-2.14-10.83-3.86-21.47-5.17-10.64-1.3-22.93-1.95-36.85-1.95h-61.54c-7.2,0-12.71,1.53-16.53,4.59-3.83,3.06-5.74,7.04-5.74,11.94,0,7.81,5.01,14.74,15.04,20.78,10.02,6.05,22.19,10.95,36.51,14.7,14.31,3.75,28.13,6.31,41.45,7.69.46,6.74,0,13.82-1.38,21.24-1.38,7.43-3.52,13.97-6.43,19.63Z" fill="#fff"/><path d="M982.06,801.12l1.15-18.14h-18.6c-.31-2.15-.46-4.71-.46-7.69s.15-5.32.46-7h48.22c.3,1.68.46,4.02.46,7s-.15,5.55-.46,7.69h-17.68l.92,18.14c-1.84.76-4.1,1.15-6.77,1.15s-5.09-.38-7.23-1.15Z" fill="#fff"/><path d="M991.01,702.16c5.66-5.2,10.22-11.06,13.66-17.57,3.44-6.5,5.17-12.51,5.17-18.02,0-4.59-1.34-8.27-4.02-11.02-2.68-2.76-6.85-4.13-12.51-4.13h-42.48c-.46-6.89-.11-13.97,1.03-21.24,1.15-7.27,2.79-13.43,4.94-18.48h56.94c4.9,8.73,7.35,18.83,7.35,30.31s-2.6,23.31-7.81,34.56c-5.21,11.25-12.25,20.4-21.12,27.44l-1.15-1.84Z" fill="#fff"/><path d="M1261.27,786.42c-3.06,0-5.67-1.03-7.81-3.1-2.15-2.07-3.21-4.63-3.21-7.69s1.07-5.67,3.21-7.81c2.14-2.15,4.74-3.21,7.81-3.21s5.62,1.07,7.69,3.21c2.07,2.14,3.1,4.74,3.1,7.81s-1.03,5.63-3.1,7.69-4.63,3.1-7.69,3.1ZM1261.27,817.88c-3.06,0-5.67-1.03-7.81-3.1-2.15-2.07-3.21-4.63-3.21-7.69s1.07-5.67,3.21-7.81c2.14-2.15,4.74-3.21,7.81-3.21s5.62,1.07,7.69,3.21c2.07,2.14,3.1,4.74,3.1,7.81s-1.03,5.63-3.1,7.69-4.63,3.1-7.69,3.1Z" fill="#fff"/><path d="M1064.03,754.28c-3.83-9.79-6.77-21.39-8.84-34.79-2.07-13.39-3.1-26.75-3.1-40.07,0-9.49.46-18.83,1.38-28.01h-27.32c-.46-6.89-.11-13.97,1.03-21.24,1.15-7.27,2.79-13.43,4.94-18.48h420.42c5.97,21.12,8.96,43.71,8.96,67.74,0,13.32-1.03,26.67-3.1,40.07-2.07,13.4-5.02,24.99-8.84,34.79h-4.13c-4.44-5.82-8.61-12.63-12.51-20.44-3.9-7.81-6.85-15.38-8.84-22.73,10.25-5.05,18.67-11.67,25.26-19.86,6.58-8.19,9.87-16.03,9.87-23.54,0-4.9-1.57-8.84-4.71-11.83-3.14-2.98-7.92-4.48-14.35-4.48h-366.69c-6.43,0-11.18,1.46-14.24,4.36-3.06,2.91-4.59,6.89-4.59,11.94,0,7.66,3.33,15.61,9.99,23.88,6.66,8.27,14.96,14.77,24.91,19.52-1.99,7.35-4.94,14.92-8.84,22.73-3.9,7.81-8.08,14.62-12.51,20.44h-4.13Z" fill="#fff"/><path d="M1479.86,782.75c-.31-2.15-.46-4.71-.46-7.69s.15-5.32.46-7h48.22c.3,1.68.46,4.02.46,7s-.15,5.55-.46,7.69h-48.22Z" fill="#fff"/><path d="M1505.8,702.16c5.66-5.2,10.22-11.06,13.66-17.57,3.44-6.5,5.17-12.51,5.17-18.02,0-4.59-1.34-8.27-4.02-11.02-2.68-2.76-6.85-4.13-12.51-4.13h-42.48c-.46-6.89-.11-13.97,1.03-21.24,1.15-7.27,2.79-13.43,4.94-18.48h56.94c4.9,8.73,7.35,18.83,7.35,30.31s-2.6,23.31-7.81,34.56c-5.21,11.25-12.25,20.4-21.12,27.44l-1.15-1.84Z" fill="#fff"/><path d="M1616.94,596.08c-3.06,0-5.66-1.03-7.81-3.1-2.14-2.07-3.21-4.63-3.21-7.69s1.07-5.66,3.21-7.81c2.15-2.14,4.75-3.21,7.81-3.21s5.63,1.07,7.69,3.21c2.07,2.14,3.1,4.75,3.1,7.81s-1.03,5.44-3.1,7.58c-2.07,2.15-4.63,3.21-7.69,3.21Z" fill="#fff"/><path d="M1632.09,754.28c-4.44-5.82-8.61-12.63-12.51-20.44s-6.85-15.38-8.84-22.73c10.1-5.36,18.4-12.09,24.91-20.21,6.5-8.11,9.76-15.92,9.76-23.42,0-4.9-1.57-8.8-4.71-11.71-3.14-2.91-7.92-4.36-14.35-4.36h-39.03c-.46-6.89-.11-13.97,1.03-21.24,1.15-7.27,2.79-13.43,4.94-18.48h45.92c5.97,21.12,8.96,43.71,8.96,67.74,0,13.32-1.03,26.67-3.1,40.07-2.07,13.4-5.02,24.99-8.84,34.79h-4.13Z" fill="#fff"/><path d="M1723.48,687.46c-3.06,0-5.67-1.03-7.81-3.1-2.14-2.07-3.21-4.63-3.21-7.69s1.07-5.66,3.21-7.81c2.14-2.14,4.74-3.21,7.81-3.21s5.62,1.07,7.69,3.21c2.07,2.15,3.1,4.75,3.1,7.81s-1.03,5.43-3.1,7.58c-2.07,2.15-4.63,3.21-7.69,3.21Z" fill="#fff"/><path d="M1669.06,751.98c-2.45-4.74-4.29-10.94-5.51-18.6-1.23-7.65-1.53-15.08-.92-22.27h1.15c15.46,0,33.18-2.07,53.16-6.2,19.98-4.13,37.08-9.76,51.32-16.88,14.24-7.12,21.35-14.81,21.35-23.08,0-4.59-2.07-8-6.2-10.22-4.13-2.22-10.03-3.33-17.68-3.33h-113.66c-.61-6.73-.34-13.74.8-21.01,1.15-7.27,2.72-13.51,4.71-18.71h137.77c5.36,8.88,7.88,18.91,7.58,30.08-.31,11.18-4.29,21.66-11.94,31.46l17.68,3.9c.76,2.91,1.3,6.54,1.61,10.91.31,4.36.31,8.3,0,11.83-8.27,11.17-20.02,20.67-35.25,28.47-15.23,7.81-32,13.7-50.29,17.68-18.29,3.98-36.39,5.97-54.3,5.97h-1.38Z" fill="#fff"/></svg>