<svg width="351" height="397" viewBox="0 0 351 397" fill="none" xmlns="http://www.w3.org/2000/svg">
<path d="M54.4501 86V78.992H49.9381V77.648H55.0421C55.4901 77.648 55.8421 78 55.8421 78.448V86H54.4501ZM50.0341 86V81.264H51.4101V86H50.0341ZM62.3868 86V78.992H58.3548V77.648H64.7388V78.992H63.7628V86H62.3868ZM69.0594 86V84.848C71.1714 82.912 71.7954 81.872 71.7954 80.24V78.992H67.1874V75.648H68.5794V77.648H72.3874C72.8354 77.648 73.1874 78 73.1874 78.448V80.112C73.1874 82.4 72.0994 84.16 69.8754 86H69.0594ZM78.596 82.864V81.92C78.996 81.36 79.508 80.704 79.508 79.504V78.976H76.564V77.648H80.788C80.868 78.016 80.884 78.352 80.884 78.832C80.884 80.864 80.292 82 79.396 82.864H78.596ZM94.9813 86V84.848C97.0933 82.912 97.7173 81.872 97.7173 80.24V78.992H93.1093V75.648H94.5013V77.648H98.3093C98.7573 77.648 99.1093 78 99.1093 78.448V80.112C99.1093 82.4 98.0213 84.16 95.7973 86H94.9813ZM106.95 77.648H108.246V80.128C108.246 84.064 106.55 86 102.118 86C101.83 86 101.622 85.744 101.622 85.408V77.648H102.902V81.232C103.91 81.04 104.278 80.544 104.278 79.184V77.648H105.574V78.896C105.574 80.928 104.87 82.016 102.902 82.288V84.688C105.622 84.656 106.95 83.232 106.95 80.48V77.648ZM120.903 86V84.848C123.015 82.912 123.639 81.872 123.639 80.24V78.992H119.031V75.648H120.423V77.648H124.231C124.679 77.648 125.031 78 125.031 78.448V80.112C125.031 82.4 123.943 84.16 121.719 86H120.903ZM130.712 86V78.992H128.344V77.648H132.088V86H130.712ZM139.384 85.872V84.784C140.696 83.2 141.208 82 141.208 80.32V78.992H136.184V77.648H141.8C142.248 77.648 142.6 77.984 142.6 78.432V80C142.6 82.128 142.04 83.952 140.344 85.872H139.384ZM136.328 87.664V81.072H137.704V87.664H136.328ZM144.745 86V84.656H149.081V78.992H145.081V77.648H149.657C150.121 77.648 150.457 78 150.457 78.448V84.656H151.385V86H144.745ZM166.57 86V79.872C166.57 79.36 166.202 78.992 165.69 78.992H162.266V77.648H166.202C167.21 77.648 167.962 78.4 167.962 79.424V86H166.57ZM176.075 77.648H177.371V80.128C177.371 84.064 175.675 86 171.243 86C170.955 86 170.747 85.744 170.747 85.408V77.648H172.027V81.232C173.035 81.04 173.403 80.544 173.403 79.184V77.648H174.699V78.896C174.699 80.928 173.995 82.016 172.027 82.288V84.688C174.747 84.656 176.075 83.232 176.075 80.48V77.648ZM182.556 86V78.992H180.188V77.648H183.932V86H182.556ZM192.3 77.584C193.5 77.584 194.332 78.416 194.332 79.648V86H191.1V84.672H192.956V79.984C192.956 79.376 192.524 78.928 191.964 78.928C191.868 78.928 191.788 78.928 191.532 78.976L189.932 79.264L189.132 86H187.82V85.344L188.556 79.168L187.788 78.88V77.6H188.412L189.628 78L191.788 77.632C191.964 77.6 192.14 77.584 192.3 77.584ZM206.141 79.504V74.752H207.597V79.504H206.141ZM209.261 79.504V74.752H210.717V79.504H209.261ZM220.174 78.672C220.174 80.64 219.726 81.44 218.126 82.192L219.95 85.056L219.934 86H218.894L216.142 81.696C215.598 82.272 215.358 83.04 215.358 84.192V86H213.982V84.512C213.982 82.656 214.462 81.488 215.518 80.72L214.174 78.608L214.19 77.648H215.214L217.534 81.28C218.526 80.784 218.798 80.32 218.798 79.2V77.648H220.174V78.672ZM222.511 86V84.656H226.847V78.992H222.847V77.648H227.423C227.887 77.648 228.223 78 228.223 78.448V84.656H229.151V86H222.511ZM237.455 78.672C237.455 80.64 237.007 81.44 235.407 82.192L237.231 85.056L237.215 86H236.175L233.423 81.696C232.879 82.272 232.639 83.04 232.639 84.192V86H231.263V84.512C231.263 82.656 231.743 81.488 232.799 80.72L231.455 78.608L231.471 77.648H232.495L234.815 81.28C235.807 80.784 236.079 80.32 236.079 79.2V77.648H237.455V78.672ZM242.768 82.864V81.92C243.168 81.36 243.68 80.704 243.68 79.504V78.976H240.736V77.648H244.96C245.04 78.016 245.056 78.352 245.056 78.832C245.056 80.864 244.464 82 243.568 82.864H242.768ZM251.681 86V78.992H249.312V77.648H253.057V86H251.681ZM270.466 86V78.992H265.954V77.648H271.058C271.506 77.648 271.858 78 271.858 78.448V86H270.466ZM266.05 86V81.264H267.426V86H266.05ZM278.706 77.584C279.906 77.584 280.738 78.416 280.738 79.648V86H277.506V84.672H279.362V79.984C279.362 79.376 278.93 78.928 278.37 78.928C278.274 78.928 278.194 78.928 277.938 78.976L276.338 79.264L275.538 86H274.226V85.344L274.962 79.168L274.194 78.88V77.6H274.818L276.034 78L278.194 77.632C278.37 77.6 278.546 77.584 278.706 77.584ZM286.243 86V78.992H283.875V77.648H287.619V86H286.243ZM294.612 82.864V81.92C295.012 81.36 295.524 80.704 295.524 79.504V78.976H292.58V77.648H296.804C296.884 78.016 296.9 78.352 296.9 78.832C296.9 80.864 296.308 82 295.412 82.864H294.612ZM301.188 79.504V74.752H302.644V79.504H301.188ZM304.308 79.504V74.752H305.764V79.504H304.308ZM322.102 86V79.872C322.102 79.36 321.734 78.992 321.222 78.992H317.798V77.648H321.734C322.742 77.648 323.494 78.4 323.494 79.424V86H322.102ZM329.174 82.864V81.92C329.574 81.36 330.086 80.704 330.086 79.504V78.976H327.142V77.648H331.366C331.446 78.016 331.462 78.352 331.462 78.832C331.462 80.864 330.87 82 329.974 82.864H329.174ZM340.247 77.648H341.543V80.128C341.543 84.064 339.847 86 335.415 86C335.127 86 334.919 85.744 334.919 85.408V77.648H336.199V81.232C337.207 81.04 337.575 80.544 337.575 79.184V77.648H338.871V78.896C338.871 80.928 338.167 82.016 336.199 82.288V84.688C338.919 84.656 340.247 83.232 340.247 80.48V77.648ZM348.231 86V78.992H343.719V77.648H348.823C349.271 77.648 349.623 78 349.623 78.448V86H348.231ZM343.815 86V81.264H345.191V86H343.815ZM58.3388 105V103.656H62.6748V97.992H58.6748V96.648H63.2508C63.7148 96.648 64.0508 97 64.0508 97.448V103.656H64.9788V105H58.3388ZM73.2834 97.672C73.2834 99.64 72.8354 100.44 71.2354 101.192L73.0594 104.056L73.0434 105H72.0034L69.2514 100.696C68.7074 101.272 68.4674 102.04 68.4674 103.192V105H67.0914V103.512C67.0914 101.656 67.5714 100.488 68.6274 99.72L67.2834 97.608L67.2994 96.648H68.3234L70.6434 100.28C71.6354 99.784 71.9074 99.32 71.9074 98.2V96.648H73.2834V97.672ZM75.7 105V103.672H78.9C79.764 103.672 80.42 103.016 80.42 102.152V97.992H75.94V96.648H81.156C81.524 96.648 81.796 96.936 81.796 97.288V102.2C81.796 103.672 80.468 105 78.996 105H75.7ZM84.2606 105V103.656H88.5966V97.992H84.5966V96.648H89.1726C89.6366 96.648 89.9726 97 89.9726 97.448V103.656H90.9006V105H84.2606ZM106.294 105V97.992H101.782V96.648H106.886C107.334 96.648 107.686 97 107.686 97.448V105H106.294ZM101.878 105V100.264H103.254V105H101.878ZM113.159 101.864V100.92C113.559 100.36 114.071 99.704 114.071 98.504V97.976H111.127V96.648H115.351C115.431 97.016 115.447 97.352 115.447 97.832C115.447 99.864 114.855 101 113.959 101.864H113.159ZM123.367 105V98.872C123.367 98.36 122.999 97.992 122.487 97.992H119.063V96.648H122.999C124.007 96.648 124.759 97.4 124.759 98.424V105H123.367ZM130.712 105V97.992H128.344V96.648H132.088V105H130.712ZM140.856 105V97.992H136.344V96.648H141.448C141.896 96.648 142.248 97 142.248 97.448V105H140.856ZM136.44 105V100.264H137.816V105H136.44ZM155.466 105V103.848C157.578 101.912 158.202 100.872 158.202 99.24V97.992H153.594V94.648H154.986V96.648H158.794C159.242 96.648 159.594 97 159.594 97.448V99.112C159.594 101.4 158.506 103.16 156.282 105H155.466ZM168.33 97.672C168.33 99.64 167.882 100.44 166.282 101.192L168.106 104.056L168.09 105H167.05L164.298 100.696C163.754 101.272 163.514 102.04 163.514 103.192V105H162.138V103.512C162.138 101.656 162.618 100.488 163.674 99.72L162.33 97.608L162.346 96.648H163.37L165.69 100.28C166.682 99.784 166.954 99.32 166.954 98.2V96.648H168.33V97.672ZM184.06 105V97.992H179.548V96.648H184.652C185.1 96.648 185.452 97 185.452 97.448V105H184.06ZM179.644 105V100.264H181.02V105H179.644ZM188.652 105V103.672H191.82V97.992H189.82V96.648H193.196V104.2C193.196 104.648 192.876 105 192.412 105H188.652ZM199.837 105V97.992H197.469V96.648H201.213V105H199.837ZM205.069 105V103.672H210.125L209.949 98.872C209.933 98.36 209.565 97.992 209.069 97.992H207.277L207.005 99.864C206.989 99.944 207.037 100.024 207.117 100.072L207.965 100.504V101.592H207.085L205.981 101.032C205.661 100.872 205.549 100.552 205.597 100.2L206.125 96.648H209.533C210.557 96.648 211.261 97.4 211.293 98.424L211.549 105H205.069ZM219.278 96.648H220.574V99.128C220.574 103.064 218.878 105 214.446 105C214.158 105 213.95 104.744 213.95 104.408V96.648H215.23V100.232C216.238 100.04 216.606 99.544 216.606 98.184V96.648H217.902V97.896C217.902 99.928 217.198 101.016 215.23 101.288V103.688C217.95 103.656 219.278 102.232 219.278 99.48V96.648ZM232.991 106.968V106.328C233.775 106.008 234.031 105.448 234.031 105.08C233.615 104.888 233.343 104.488 233.343 103.976C233.343 103.32 233.839 102.792 234.527 102.792C235.055 102.792 235.711 103.096 235.711 104.136C235.711 105.48 234.511 106.824 232.991 106.968ZM244.544 105V97.992H240.032V96.648H245.136C245.584 96.648 245.936 97 245.936 97.448V105H244.544ZM240.128 105V100.264H241.504V105H240.128ZM252.977 105V98.872C252.977 98.36 252.609 97.992 252.097 97.992H248.673V96.648H252.609C253.617 96.648 254.369 97.4 254.369 98.424V105H252.977ZM260.049 101.864V100.92C260.449 100.36 260.961 99.704 260.961 98.504V97.976H258.017V96.648H262.241C262.321 97.016 262.337 97.352 262.337 97.832C262.337 99.864 261.745 101 260.849 101.864H260.049ZM270.658 96.648H272.018V97.288C272.002 98.008 271.986 98.824 271.938 99.544C271.682 103.384 270.258 104.776 266.37 105.272L265.746 105.352H265.538V104.024C265.922 103.992 266.274 103.96 266.626 103.896C266.914 103.848 267.186 103.8 267.442 103.736L266.226 97.304V96.648H267.538L268.77 103.304C269.906 102.76 270.402 101.832 270.546 99.912C270.626 98.856 270.642 97.528 270.658 96.648ZM280.45 97.784C280.45 99.608 280.034 100.296 278.53 100.936L280.37 103.704V105H274.53V103.672H278.802L274.61 97.608V96.648H275.682L277.954 100.056C278.834 99.688 279.074 99.304 279.074 98.296V96.648H280.45V97.784ZM296.388 105V97.992H291.876V96.648H296.98C297.428 96.648 297.78 97 297.78 97.448V105H296.388ZM291.972 105V100.264H293.348V105H291.972ZM304.82 105V98.872C304.82 98.36 304.452 97.992 303.94 97.992H300.516V96.648H304.452C305.46 96.648 306.212 97.4 306.212 98.424V105H304.82ZM313.861 96.648H315.221V97.288C315.205 98.008 315.189 98.824 315.141 99.544C314.885 103.384 313.461 104.776 309.573 105.272L308.949 105.352H308.741V104.024C309.125 103.992 309.477 103.96 309.829 103.896C310.117 103.848 310.389 103.8 310.645 103.736L309.429 97.304V96.648H310.741L311.973 103.304C313.109 102.76 313.605 101.832 313.749 99.912C313.829 98.856 313.845 97.528 313.861 96.648ZM318.262 105V103.672H321.43V97.992H319.43V96.648H322.806V104.2C322.806 104.648 322.486 105 322.022 105H318.262ZM338.087 105V97.992H335.719V96.648H339.463V105H338.087ZM349.783 97.672C349.783 99.64 349.335 100.44 347.735 101.192L349.559 104.056L349.543 105H348.503L345.751 100.696C345.207 101.272 344.967 102.04 344.967 103.192V105H343.591V103.512C343.591 101.656 344.071 100.488 345.127 99.72L343.783 97.608L343.799 96.648H344.823L347.143 100.28C348.135 99.784 348.407 99.32 348.407 98.2V96.648H349.783V97.672ZM54.4501 124V116.992H49.9381V115.648H55.0421C55.4901 115.648 55.8421 116 55.8421 116.448V124H54.4501ZM50.0341 124V119.264H51.4101V124H50.0341ZM58.3388 124V122.656H62.6748V116.992H58.6748V115.648H63.2508C63.7148 115.648 64.0508 116 64.0508 116.448V122.656H64.9788V124H58.3388ZM72.3874 115.648H73.6834V118.128C73.6834 122.064 71.9874 124 67.5554 124C67.2674 124 67.0594 123.744 67.0594 123.408V115.648H68.3394V119.232C69.3474 119.04 69.7154 118.544 69.7154 117.184V115.648H71.0114V116.896C71.0114 118.928 70.3074 120.016 68.3394 120.288V122.688C71.0594 122.656 72.3874 121.232 72.3874 118.48V115.648ZM83.9406 124V122.672H85.0286C84.8526 121.92 84.7566 121.12 84.7566 120.304C84.7566 119.12 84.9326 117.936 85.2206 116.992H84.1166V115.648H89.8446C90.2926 115.648 90.6446 116 90.6446 116.448V124H89.2526V116.992H86.6446C86.3566 117.904 86.1486 118.896 86.1486 120.112C86.1486 120.896 86.2446 121.776 86.4686 122.672V124H83.9406ZM96.1493 124V116.992H93.7812V115.648H97.5253V124H96.1493ZM107.846 116.672C107.846 118.64 107.398 119.44 105.798 120.192L107.622 123.056L107.606 124H106.566L103.814 119.696C103.27 120.272 103.03 121.04 103.03 122.192V124H101.654V122.512C101.654 120.656 102.134 119.488 103.19 118.72L101.846 116.608L101.862 115.648H102.886L105.206 119.28C106.198 118.784 106.47 118.32 106.47 117.2V115.648H107.846V116.672ZM113.159 120.864V119.92C113.559 119.36 114.071 118.704 114.071 117.504V116.976H111.127V115.648H115.351C115.431 116.016 115.447 116.352 115.447 116.832C115.447 118.864 114.855 120 113.959 120.864H113.159ZM124.919 116.784C124.919 118.608 124.503 119.296 122.999 119.936L124.839 122.704V124H118.999V122.672H123.271L119.079 116.608V115.648H120.151L122.423 119.056C123.303 118.688 123.543 118.304 123.543 117.296V115.648H124.919V116.784ZM131.816 115.584C133.016 115.584 133.848 116.416 133.848 117.648V124H130.616V122.672H132.472V117.984C132.472 117.376 132.04 116.928 131.48 116.928C131.384 116.928 131.304 116.928 131.048 116.976L129.448 117.264L128.648 124H127.336V123.344L128.072 117.168L127.304 116.88V115.6H127.928L129.144 116L131.304 115.632C131.48 115.6 131.656 115.584 131.816 115.584ZM149.289 124V117.872C149.289 117.36 148.921 116.992 148.409 116.992H144.985V115.648H148.921C149.929 115.648 150.681 116.4 150.681 117.424V124H149.289ZM159.69 116.672C159.69 118.64 159.242 119.44 157.642 120.192L159.466 123.056L159.45 124H158.41L155.658 119.696C155.114 120.272 154.874 121.04 154.874 122.192V124H153.498V122.512C153.498 120.656 153.978 119.488 155.034 118.72L153.69 116.608L153.706 115.648H154.73L157.05 119.28C158.042 118.784 158.314 118.32 158.314 117.2V115.648H159.69V116.672ZM161.706 124V122.672H162.794C162.618 121.92 162.522 121.12 162.522 120.304C162.522 119.12 162.698 117.936 162.986 116.992H161.882V115.648H167.61C168.058 115.648 168.41 116 168.41 116.448V124H167.018V116.992H164.41C164.122 117.904 163.914 118.896 163.914 120.112C163.914 120.896 164.01 121.776 164.234 122.672V124H161.706ZM175.019 115.584C176.219 115.584 177.051 116.416 177.051 117.648V124H173.819V122.672H175.675V117.984C175.675 117.376 175.243 116.928 174.683 116.928C174.587 116.928 174.507 116.928 174.251 116.976L172.651 117.264L171.851 124H170.539V123.344L171.275 117.168L170.507 116.88V115.6H171.131L172.347 116L174.507 115.632C174.683 115.6 174.859 115.584 175.019 115.584ZM194.252 116.672C194.252 118.64 193.804 119.44 192.204 120.192L194.028 123.056L194.012 124H192.972L190.22 119.696C189.676 120.272 189.436 121.04 189.436 122.192V124H188.06V122.512C188.06 120.656 188.54 119.488 189.596 118.72L188.252 116.608L188.268 115.648H189.292L191.612 119.28C192.604 118.784 192.876 118.32 192.876 117.2V115.648H194.252V116.672ZM199.837 124V116.992H197.469V115.648H201.213V124H199.837ZM209.981 124V116.992H205.469V115.648H210.573C211.021 115.648 211.373 116 211.373 116.448V124H209.981ZM205.565 124V119.264H206.941V124H205.565ZM225.711 124.144C225.039 124.144 224.543 123.632 224.543 122.96C224.543 122.32 225.039 121.792 225.711 121.792C226.367 121.792 226.879 122.32 226.879 122.96C226.879 123.632 226.367 124.144 225.711 124.144ZM235.903 124V116.992H231.391V115.648H236.495C236.943 115.648 237.295 116 237.295 116.448V124H235.903ZM231.487 124V119.264H232.863V124H231.487ZM240.496 124V122.672H243.664V116.992H241.664V115.648H245.04V123.2C245.04 123.648 244.72 124 244.256 124H240.496ZM251.681 124V116.992H249.312V115.648H253.057V124H251.681ZM259.153 124V122.848C261.265 120.912 261.889 119.872 261.889 118.24V116.992H257.281V113.648H258.673V115.648H262.481C262.929 115.648 263.281 116 263.281 116.448V118.112C263.281 120.4 262.193 122.16 259.969 124H259.153ZM265.394 124V122.672H266.482C266.306 121.92 266.21 121.12 266.21 120.304C266.21 119.12 266.386 117.936 266.674 116.992H265.57V115.648H271.298C271.746 115.648 272.098 116 272.098 116.448V124H270.706V116.992H268.098C267.81 117.904 267.602 118.896 267.602 120.112C267.602 120.896 267.698 121.776 267.922 122.672V124H265.394ZM285.075 124V122.848C287.187 120.912 287.811 119.872 287.811 118.24V116.992H283.203V113.648H284.595V115.648H288.403C288.851 115.648 289.203 116 289.203 116.448V118.112C289.203 120.4 288.115 122.16 285.891 124H285.075ZM297.044 115.648H298.34V118.128C298.34 122.064 296.644 124 292.212 124C291.924 124 291.716 123.744 291.716 123.408V115.648H292.996V119.232C294.004 119.04 294.372 118.544 294.372 117.184V115.648H295.668V116.896C295.668 118.928 294.964 120.016 292.996 120.288V122.688C295.716 122.656 297.044 121.232 297.044 118.48V115.648ZM312.581 125.664V116.976H310.293V115.648H313.957V125.664H312.581ZM320.806 124V116.992H318.438V115.648H322.182V124H320.806ZM327.238 124C326.79 124 326.438 123.648 326.438 123.2V115.648H327.798V122.64H328.278C330.31 122.64 331.366 121.392 331.366 119.008V117.984C331.366 117.376 330.934 116.928 330.374 116.928C330.182 116.928 329.958 116.96 329.302 117.104L329.094 115.824C329.814 115.68 330.342 115.6 330.646 115.6C331.942 115.6 332.79 116.448 332.774 117.728L332.758 118.64C332.694 122.304 331.126 124 327.606 124H327.238ZM334.839 124V122.656H339.175V116.992H335.175V115.648H339.751C340.215 115.648 340.551 116 340.551 116.448V122.656H341.479V124H334.839ZM346.727 124V116.992H344.359V115.648H348.103V124H346.727ZM51.5381 144.968V144.328C52.3221 144.008 52.5781 143.448 52.5781 143.08C52.1621 142.888 51.8901 142.488 51.8901 141.976C51.8901 141.32 52.3861 140.792 53.0741 140.792C53.6021 140.792 54.2581 141.096 54.2581 142.136C54.2581 143.48 53.0581 144.824 51.5381 144.968ZM63.0908 143V135.992H58.5788V134.648H63.6828C64.1308 134.648 64.4828 135 64.4828 135.448V143H63.0908ZM58.6748 143V138.264H60.0508V143H58.6748ZM71.5234 143V136.872C71.5234 136.36 71.1554 135.992 70.6434 135.992H67.2194V134.648H71.1554C72.1634 134.648 72.9154 135.4 72.9154 136.424V143H71.5234ZM78.596 139.864V138.92C78.996 138.36 79.508 137.704 79.508 136.504V135.976H76.564V134.648H80.788C80.868 135.016 80.884 135.352 80.884 135.832C80.884 137.864 80.292 139 79.396 139.864H78.596ZM84.5166 143V134.648H89.7166C90.1646 134.648 90.5166 135 90.5166 135.448V143H89.1406V135.992H85.8926V143H84.5166ZM92.9013 143V141.656H97.2373V135.992H93.2373V134.648H97.8133C98.2773 134.648 98.6133 135 98.6133 135.448V141.656H99.5413V143H92.9013ZM109.863 143V141.672H110.951C110.775 140.92 110.679 140.12 110.679 139.304C110.679 138.12 110.855 136.936 111.143 135.992H110.039V134.648H115.767C116.215 134.648 116.567 135 116.567 135.448V143H115.175V135.992H112.567C112.279 136.904 112.071 137.896 112.071 139.112C112.071 139.896 112.167 140.776 112.391 141.672V143H109.863ZM120.903 143V141.848C123.015 139.912 123.639 138.872 123.639 137.24V135.992H119.031V132.648H120.423V134.648H124.231C124.679 134.648 125.031 135 125.031 135.448V137.112C125.031 139.4 123.943 141.16 121.719 143H120.903ZM130.712 143V135.992H128.344V134.648H132.088V143H130.712ZM136.184 143V141.672H139.384C140.248 141.672 140.904 141.016 140.904 140.152V135.992H136.424V134.648H141.64C142.008 134.648 142.28 134.936 142.28 135.288V140.2C142.28 141.672 140.952 143 139.48 143H136.184ZM147.721 139.864V138.92C148.121 138.36 148.633 137.704 148.633 136.504V135.976H145.689V134.648H149.913C149.993 135.016 150.009 135.352 150.009 135.832C150.009 137.864 149.417 139 148.521 139.864H147.721ZM168.33 135.672C168.33 137.64 167.882 138.44 166.282 139.192L168.106 142.056L168.09 143H167.05L164.298 138.696C163.754 139.272 163.514 140.04 163.514 141.192V143H162.138V141.512C162.138 139.656 162.618 138.488 163.674 137.72L162.33 135.608L162.346 134.648H163.37L165.69 138.28C166.682 137.784 166.954 137.32 166.954 136.2V134.648H168.33V135.672ZM172.747 143V141.848C174.859 139.912 175.483 138.872 175.483 137.24V135.992H170.875V132.648H172.267V134.648H176.075C176.523 134.648 176.875 135 176.875 135.448V137.112C176.875 139.4 175.787 141.16 173.563 143H172.747ZM181.388 143V141.848C183.5 139.912 184.124 138.872 184.124 137.24V135.992H179.516V132.648H180.908V134.648H184.716C185.164 134.648 185.516 135 185.516 135.448V137.112C185.516 139.4 184.428 141.16 182.204 143H181.388ZM196.269 143V141.672H197.357C197.181 140.92 197.085 140.12 197.085 139.304C197.085 138.12 197.261 136.936 197.549 135.992H196.445V134.648H202.173C202.621 134.648 202.973 135 202.973 135.448V143H201.581V135.992H198.973C198.685 136.904 198.477 137.896 198.477 139.112C198.477 139.896 198.573 140.776 198.797 141.672V143H196.269ZM208.477 143V135.992H206.109V134.648H209.853V143H208.477ZM220.174 135.672C220.174 137.64 219.726 138.44 218.126 139.192L219.95 142.056L219.934 143H218.894L216.142 138.696C215.598 139.272 215.358 140.04 215.358 141.192V143H213.982V141.512C213.982 139.656 214.462 138.488 215.518 137.72L214.174 135.608L214.19 134.648H215.214L217.534 138.28C218.526 137.784 218.798 137.32 218.798 136.2V134.648H220.174V135.672ZM227.919 134.648H229.215V137.128C229.215 141.064 227.519 143 223.087 143C222.799 143 222.591 142.744 222.591 142.408V134.648H223.871V138.232C224.879 138.04 225.247 137.544 225.247 136.184V134.648H226.543V135.896C226.543 137.928 225.839 139.016 223.871 139.288V141.688C226.591 141.656 227.919 140.232 227.919 137.48V134.648ZM234.127 139.864V138.92C234.527 138.36 235.039 137.704 235.039 136.504V135.976H232.095V134.648H236.319C236.399 135.016 236.415 135.352 236.415 135.832C236.415 137.864 235.823 139 234.927 139.864H234.127ZM240.496 143V141.672H243.664V135.992H241.664V134.648H245.04V142.2C245.04 142.648 244.72 143 244.256 143H240.496ZM256.753 143V141.672H257.841C257.665 140.92 257.569 140.12 257.569 139.304C257.569 138.12 257.745 136.936 258.033 135.992H256.929V134.648H262.657C263.105 134.648 263.457 135 263.457 135.448V143H262.065V135.992H259.457C259.169 136.904 258.961 137.896 258.961 139.112C258.961 139.896 259.057 140.776 259.281 141.672V143H256.753ZM268.962 143V135.992H266.594V134.648H270.338V143H268.962ZM278.898 143V136.872C278.898 136.36 278.53 135.992 278.018 135.992H274.594V134.648H278.53C279.538 134.648 280.29 135.4 280.29 136.424V143H278.898ZM285.971 139.864V138.92C286.371 138.36 286.883 137.704 286.883 136.504V135.976H283.939V134.648H288.163C288.243 135.016 288.259 135.352 288.259 135.832C288.259 137.864 287.667 139 286.771 139.864H285.971ZM296.58 134.648H297.94V135.288C297.924 136.008 297.908 136.824 297.86 137.544C297.604 141.384 296.18 142.776 292.292 143.272L291.668 143.352H291.46V142.024C291.844 141.992 292.196 141.96 292.548 141.896C292.836 141.848 293.108 141.8 293.364 141.736L292.148 135.304V134.648H293.46L294.692 141.304C295.828 140.76 296.324 139.832 296.468 137.912C296.548 136.856 296.564 135.528 296.58 134.648ZM306.372 135.784C306.372 137.608 305.956 138.296 304.452 138.936L306.292 141.704V143H300.452V141.672H304.724L300.532 135.608V134.648H301.604L303.876 138.056C304.756 137.688 304.996 137.304 304.996 136.296V134.648H306.372V135.784ZM317.238 143V141.672H318.326C318.15 140.92 318.054 140.12 318.054 139.304C318.054 138.12 318.23 136.936 318.518 135.992H317.414V134.648H323.142C323.59 134.648 323.942 135 323.942 135.448V143H322.55V135.992H319.942C319.654 136.904 319.446 137.896 319.446 139.112C319.446 139.896 319.542 140.776 319.766 141.672V143H317.238ZM329.446 143V135.992H327.078V134.648H330.822V143H329.446ZM335.543 143V141.672H338.711V135.992H336.711V134.648H340.087V142.2C340.087 142.648 339.767 143 339.303 143H335.543ZM343.479 143V141.656H347.815V135.992H343.815V134.648H348.391C348.855 134.648 349.191 135 349.191 135.448V141.656H350.119V143H343.479ZM66.6594 162V160.672H67.7474C67.5714 159.92 67.4754 159.12 67.4754 158.304C67.4754 157.12 67.6514 155.936 67.9394 154.992H66.8354V153.648H72.5634C73.0114 153.648 73.3634 154 73.3634 154.448V162H71.9714V154.992H69.3634C69.0754 155.904 68.8674 156.896 68.8674 158.112C68.8674 158.896 68.9634 159.776 69.1874 160.672V162H66.6594ZM81.924 154.672C81.924 156.64 81.476 157.44 79.876 158.192L81.7 161.056L81.684 162H80.644L77.892 157.696C77.348 158.272 77.108 159.04 77.108 160.192V162H75.732V160.512C75.732 158.656 76.212 157.488 77.268 156.72L75.924 154.608L75.94 153.648H76.964L79.284 157.28C80.276 156.784 80.548 156.32 80.548 155.2V153.648H81.924V154.672ZM96.1493 162V154.992H93.7812V153.648H97.5253V162H96.1493ZM102.246 162V160.672H105.414V154.992H103.414V153.648H106.79V161.2C106.79 161.648 106.47 162 106.006 162H102.246ZM113.159 158.864V157.92C113.559 157.36 114.071 156.704 114.071 155.504V154.976H111.127V153.648H115.351C115.431 154.016 115.447 154.352 115.447 154.832C115.447 156.864 114.855 158 113.959 158.864H113.159ZM118.823 162V160.656H123.159V154.992H119.159V153.648H123.735C124.199 153.648 124.535 154 124.535 154.448V160.656H125.463V162H118.823ZM132.216 162V154.992H127.704V153.648H132.808C133.256 153.648 133.608 154 133.608 154.448V162H132.216ZM127.8 162V157.264H129.176V162H127.8ZM151.049 154.672C151.049 156.64 150.601 157.44 149.001 158.192L150.825 161.056L150.809 162H149.769L147.017 157.696C146.473 158.272 146.233 159.04 146.233 160.192V162H144.857V160.512C144.857 158.656 145.337 157.488 146.393 156.72L145.049 154.608L145.065 153.648H146.089L148.409 157.28C149.401 156.784 149.673 156.32 149.673 155.2V153.648H151.049V154.672ZM155.466 162V160.848C157.578 158.912 158.202 157.872 158.202 156.24V154.992H153.594V151.648H154.986V153.648H158.794C159.242 153.648 159.594 154 159.594 154.448V156.112C159.594 158.4 158.506 160.16 156.282 162H155.466ZM174.331 163.664V154.976H172.043V153.648H175.707V163.664H174.331ZM182.284 158.864V157.92C182.684 157.36 183.196 156.704 183.196 155.504V154.976H180.252V153.648H184.476C184.556 154.016 184.572 154.352 184.572 154.832C184.572 156.864 183.98 158 183.084 158.864H182.284ZM190.924 158.864V157.92C191.324 157.36 191.836 156.704 191.836 155.504V154.976H188.892V153.648H193.116C193.196 154.016 193.212 154.352 193.212 154.832C193.212 156.864 192.62 158 191.724 158.864H190.924ZM200.637 162V154.992H196.605V153.648H202.989V154.992H202.013V162H200.637ZM210.173 153.648H211.533V154.288C211.517 155.008 211.501 155.824 211.453 156.544C211.197 160.384 209.773 161.776 205.885 162.272L205.261 162.352H205.053V161.024C205.437 160.992 205.789 160.96 206.141 160.896C206.429 160.848 206.701 160.8 206.957 160.736L205.741 154.304V153.648H207.053L208.285 160.304C209.421 159.76 209.917 158.832 210.061 156.912C210.141 155.856 210.157 154.528 210.173 153.648ZM225.759 162V154.992H223.391V153.648H227.135V162H225.759ZM231.151 162V160.656H235.487V154.992H231.487V153.648H236.063C236.527 153.648 236.863 154 236.863 154.448V160.656H237.791V162H231.151ZM245.2 153.648H246.496V156.128C246.496 160.064 244.8 162 240.368 162C240.08 162 239.872 161.744 239.872 161.408V153.648H241.152V157.232C242.16 157.04 242.528 156.544 242.528 155.184V153.648H243.824V154.896C243.824 156.928 243.12 158.016 241.152 158.288V160.688C243.872 160.656 245.2 159.232 245.2 156.48V153.648ZM259.153 162V160.848C261.265 158.912 261.889 157.872 261.889 156.24V154.992H257.281V151.648H258.673V153.648H262.481C262.929 153.648 263.281 154 263.281 154.448V156.112C263.281 158.4 262.193 160.16 259.969 162H259.153ZM268.69 158.864V157.92C269.09 157.36 269.602 156.704 269.602 155.504V154.976H266.658V153.648H270.882C270.962 154.016 270.978 154.352 270.978 154.832C270.978 156.864 270.386 158 269.49 158.864H268.69ZM278.306 153.648L280.546 161.472V162H279.266L278.562 159.552L275.65 162H274.674V161.104L278.162 158.144L277.266 154.992H275.81V153.648H278.306ZM282.995 162V160.656H287.331V154.992H283.331V153.648H287.907C288.371 153.648 288.707 154 288.707 154.448V160.656H289.635V162H282.995ZM300.452 162V153.648H304.74C305.764 153.648 306.5 154.4 306.5 155.424V162H300.452ZM301.828 160.672H305.124V155.872C305.124 155.36 304.74 154.992 304.244 154.992H301.828V160.672ZM311.893 158.864V157.92C312.293 157.36 312.805 156.704 312.805 155.504V154.976H309.861V153.648H314.085C314.165 154.016 314.181 154.352 314.181 154.832C314.181 156.864 313.589 158 312.693 158.864H311.893ZM317.238 162V160.672H318.326C318.15 159.92 318.054 159.12 318.054 158.304C318.054 157.12 318.23 155.936 318.518 154.992H317.414V153.648H323.142C323.59 153.648 323.942 154 323.942 154.448V162H322.55V154.992H319.942C319.654 155.904 319.446 156.896 319.446 158.112C319.446 158.896 319.542 159.776 319.766 160.672V162H317.238ZM329.174 158.864V157.92C329.574 157.36 330.086 156.704 330.086 155.504V154.976H327.142V153.648H331.366C331.446 154.016 331.462 154.352 331.462 154.832C331.462 156.864 330.87 158 329.974 158.864H329.174ZM339.783 153.648H341.143V154.288C341.127 155.008 341.111 155.824 341.063 156.544C340.807 160.384 339.383 161.776 335.495 162.272L334.871 162.352H334.663V161.024C335.047 160.992 335.399 160.96 335.751 160.896C336.039 160.848 336.311 160.8 336.567 160.736L335.351 154.304V153.648H336.663L337.895 160.304C339.031 159.76 339.527 158.832 339.671 156.912C339.751 155.856 339.767 154.528 339.783 153.648ZM345.559 162V160.848C347.671 158.912 348.295 157.872 348.295 156.24V154.992H343.687V151.648H345.079V153.648H348.887C349.335 153.648 349.687 154 349.687 154.448V156.112C349.687 158.4 348.599 160.16 346.375 162H345.559ZM60.8508 181V173.992H59.0588V172.648H64.0188V173.992H62.2268V181H60.8508ZM73.2834 173.672C73.2834 175.64 72.8354 176.44 71.2354 177.192L73.0594 180.056L73.0434 181H72.0034L69.2514 176.696C68.7074 177.272 68.4674 178.04 68.4674 179.192V181H67.0914V179.512C67.0914 177.656 67.5714 176.488 68.6274 175.72L67.2834 173.608L67.2994 172.648H68.3234L70.6434 176.28C71.6354 175.784 71.9074 175.32 71.9074 174.2V172.648H73.2834V173.672ZM86.3406 181V179.848C88.4526 177.912 89.0766 176.872 89.0766 175.24V173.992H84.4686V170.648H85.8606V172.648H89.6686C90.1166 172.648 90.4686 173 90.4686 173.448V175.112C90.4686 177.4 89.3806 179.16 87.1566 181H86.3406ZM92.9013 181V179.656H97.2373V173.992H93.2373V172.648H97.8133C98.2773 172.648 98.6133 173 98.6133 173.448V179.656H99.5413V181H92.9013ZM104.79 181V173.992H102.422V172.648H106.166V181H104.79ZM113.463 180.872V179.784C114.775 178.2 115.287 177 115.287 175.32V173.992H110.263V172.648H115.879C116.327 172.648 116.679 172.984 116.679 173.432V175C116.679 177.128 116.119 178.952 114.423 180.872H113.463ZM110.407 182.664V176.072H111.783V182.664H110.407ZM123.175 172.584C124.375 172.584 125.207 173.416 125.207 174.648V181H121.975V179.672H123.831V174.984C123.831 174.376 123.399 173.928 122.839 173.928C122.743 173.928 122.663 173.928 122.407 173.976L120.807 174.264L120.007 181H118.695V180.344L119.431 174.168L118.663 173.88V172.6H119.287L120.503 173L122.663 172.632C122.839 172.6 123.015 172.584 123.175 172.584ZM140.856 181V173.992H136.344V172.648H141.448C141.896 172.648 142.248 173 142.248 173.448V181H140.856ZM136.44 181V176.264H137.816V181H136.44ZM147.721 177.864V176.92C148.121 176.36 148.633 175.704 148.633 174.504V173.976H145.689V172.648H149.913C149.993 173.016 150.009 173.352 150.009 173.832C150.009 175.864 149.417 177 148.521 177.864H147.721ZM158.138 181V173.992H153.626V172.648H158.73C159.178 172.648 159.53 173 159.53 173.448V181H158.138ZM153.722 181V176.264H155.098V181H153.722ZM175.419 181V173.992H170.907V172.648H176.011C176.459 172.648 176.811 173 176.811 173.448V181H175.419ZM171.003 181V176.264H172.379V181H171.003ZM181.82 181V173.992H180.028V172.648H184.988V173.992H183.196V181H181.82ZM201.133 181V174.872C201.133 174.36 200.765 173.992 200.253 173.992H196.829V172.648H200.765C201.773 172.648 202.525 173.4 202.525 174.424V181H201.133ZM205.229 181V179.656H209.565V173.992H205.565V172.648H210.141C210.605 172.648 210.941 173 210.941 173.448V179.656H211.869V181H205.229ZM217.918 181V173.992H213.886V172.648H220.27V173.992H219.294V181H217.918ZM232.991 182.968V182.328C233.775 182.008 234.031 181.448 234.031 181.08C233.615 180.888 233.343 180.488 233.343 179.976C233.343 179.32 233.839 178.792 234.527 178.792C235.055 178.792 235.711 179.096 235.711 180.136C235.711 181.48 234.511 182.824 232.991 182.968ZM239.968 181V172.648H244.256C245.28 172.648 246.016 173.4 246.016 174.424V181H239.968ZM241.344 179.672H244.64V174.872C244.64 174.36 244.256 173.992 243.76 173.992H241.344V179.672ZM251.409 177.864V176.92C251.809 176.36 252.321 175.704 252.321 174.504V173.976H249.377V172.648H253.601C253.681 173.016 253.697 173.352 253.697 173.832C253.697 175.864 253.105 177 252.209 177.864H251.409ZM261.617 181V174.872C261.617 174.36 261.249 173.992 260.737 173.992H257.313V172.648H261.249C262.257 172.648 263.009 173.4 263.009 174.424V181H261.617ZM265.714 181V179.656H270.05V173.992H266.05V172.648H270.626C271.09 172.648 271.426 173 271.426 173.448V179.656H272.354V181H265.714ZM278.402 181V173.992H274.37V172.648H280.754V173.992H279.778V181H278.402ZM287.747 181V173.992H283.235V172.648H288.339C288.787 172.648 289.139 173 289.139 173.448V181H287.747ZM283.331 181V176.264H284.707V181H283.331ZM299.956 181V179.672H301.044C300.868 178.92 300.772 178.12 300.772 177.304C300.772 176.12 300.948 174.936 301.236 173.992H300.132V172.648H305.86C306.308 172.648 306.66 173 306.66 173.448V181H305.268V173.992H302.66C302.372 174.904 302.164 175.896 302.164 177.112C302.164 177.896 302.26 178.776 302.484 179.672V181H299.956ZM312.165 181V173.992H309.797V172.648H313.541V181H312.165ZM322.502 172.648H323.862V173.288C323.846 174.008 323.83 174.824 323.782 175.544C323.526 179.384 322.102 180.776 318.214 181.272L317.59 181.352H317.382V180.024C317.766 179.992 318.118 179.96 318.47 179.896C318.758 179.848 319.03 179.8 319.286 179.736L318.07 173.304V172.648H319.382L320.614 179.304C321.75 178.76 322.246 177.832 322.39 175.912C322.47 174.856 322.486 173.528 322.502 172.648ZM330.55 172.584C331.75 172.584 332.582 173.416 332.582 174.648V181H329.35V179.672H331.206V174.984C331.206 174.376 330.774 173.928 330.214 173.928C330.118 173.928 330.038 173.928 329.782 173.976L328.182 174.264L327.382 181H326.07V180.344L326.806 174.168L326.038 173.88V172.6H326.662L327.878 173L330.038 172.632C330.214 172.6 330.39 172.584 330.55 172.584ZM340.247 172.648H341.543V175.128C341.543 179.064 339.847 181 335.415 181C335.127 181 334.919 180.744 334.919 180.408V172.648H336.199V176.232C337.207 176.04 337.575 175.544 337.575 174.184V172.648H338.871V173.896C338.871 175.928 338.167 177.016 336.199 177.288V179.688C338.919 179.656 340.247 178.232 340.247 175.48V172.648ZM347.831 172.584C349.031 172.584 349.863 173.416 349.863 174.648V181H346.631V179.672H348.487V174.984C348.487 174.376 348.055 173.928 347.495 173.928C347.399 173.928 347.319 173.928 347.063 173.976L345.463 174.264L344.663 181H343.351V180.344L344.087 174.168L343.319 173.88V172.6H343.943L345.159 173L347.319 172.632C347.495 172.6 347.671 172.584 347.831 172.584ZM52.9461 200V192.992H50.5781V191.648H54.3221V200H52.9461ZM58.1788 200V198.672H63.2348L63.0588 193.872C63.0428 193.36 62.6748 192.992 62.1788 192.992H60.3868L60.1148 194.864C60.0988 194.944 60.1468 195.024 60.2268 195.072L61.0748 195.504V196.592H60.1948L59.0908 196.032C58.7708 195.872 58.6588 195.552 58.7068 195.2L59.2348 191.648H62.6428C63.6668 191.648 64.3708 192.4 64.4028 193.424L64.6588 200H58.1788ZM68.0194 200C67.5714 200 67.2194 199.648 67.2194 199.2V191.648H68.5794V198.64H69.0594C71.0914 198.64 72.1474 197.392 72.1474 195.008V193.984C72.1474 193.376 71.7154 192.928 71.1554 192.928C70.9634 192.928 70.7394 192.96 70.0834 193.104L69.8754 191.824C70.5954 191.68 71.1234 191.6 71.4274 191.6C72.7234 191.6 73.5714 192.448 73.5554 193.728L73.5394 194.64C73.4754 198.304 71.9074 200 68.3874 200H68.0194ZM75.876 200V191.648H81.076C81.524 191.648 81.876 192 81.876 192.448V200H80.5V192.992H77.252V200H75.876ZM87.2366 196.864V195.92C87.6366 195.36 88.1486 194.704 88.1486 193.504V192.976H85.2046V191.648H89.4286C89.5086 192.016 89.5246 192.352 89.5246 192.832C89.5246 194.864 88.9326 196 88.0366 196.864H87.2366ZM101.718 200V191.648H106.006C107.03 191.648 107.766 192.4 107.766 193.424V200H101.718ZM103.094 198.672H106.39V193.872C106.39 193.36 106.006 192.992 105.51 192.992H103.094V198.672ZM113.159 196.864V195.92C113.559 195.36 114.071 194.704 114.071 193.504V192.976H111.127V191.648H115.351C115.431 192.016 115.447 192.352 115.447 192.832C115.447 194.864 114.855 196 113.959 196.864H113.159ZM118.823 200V198.656H123.159V192.992H119.159V191.648H123.735C124.199 191.648 124.535 192 124.535 192.448V198.656H125.463V200H118.823ZM132.008 200V193.872C132.008 193.36 131.64 192.992 131.128 192.992H127.704V191.648H131.64C132.648 191.648 133.4 192.4 133.4 193.424V200H132.008ZM141.048 191.648H142.408V192.288C142.392 193.008 142.376 193.824 142.328 194.544C142.072 198.384 140.648 199.776 136.76 200.272L136.136 200.352H135.928V199.024C136.312 198.992 136.664 198.96 137.016 198.896C137.304 198.848 137.576 198.8 137.832 198.736L136.616 192.304V191.648H137.928L139.16 198.304C140.296 197.76 140.792 196.832 140.936 194.912C141.016 193.856 141.032 192.528 141.048 191.648ZM149.497 200V192.992H144.985V191.648H150.089C150.537 191.648 150.889 192 150.889 192.448V200H149.497ZM145.081 200V195.264H146.457V200H145.081ZM158.794 191.648H160.09V194.128C160.09 198.064 158.394 200 153.962 200C153.674 200 153.466 199.744 153.466 199.408V191.648H154.746V195.232C155.754 195.04 156.122 194.544 156.122 193.184V191.648H157.418V192.896C157.418 194.928 156.714 196.016 154.746 196.288V198.688C157.466 198.656 158.794 197.232 158.794 194.48V191.648ZM173.915 200V192.992H171.547V191.648H175.291V200H173.915ZM184.716 191.648H186.012V194.128C186.012 198.064 184.316 200 179.884 200C179.596 200 179.388 199.744 179.388 199.408V191.648H180.668V195.232C181.676 195.04 182.044 194.544 182.044 193.184V191.648H183.34V192.896C183.34 194.928 182.636 196.016 180.668 196.288V198.688C183.388 198.656 184.716 197.232 184.716 194.48V191.648ZM193.356 191.648H194.652V194.128C194.652 198.064 192.956 200 188.524 200C188.236 200 188.028 199.744 188.028 199.408V191.648H189.308V195.232C190.316 195.04 190.684 194.544 190.684 193.184V191.648H191.98V192.896C191.98 194.928 191.276 196.016 189.308 196.288V198.688C192.028 198.656 193.356 197.232 193.356 194.48V191.648ZM196.845 200V191.648H202.045C202.493 191.648 202.845 192 202.845 192.448V200H201.469V192.992H198.221V200H196.845ZM214.046 200V191.648H218.334C219.358 191.648 220.094 192.4 220.094 193.424V200H214.046ZM215.422 198.672H218.718V193.872C218.718 193.36 218.334 192.992 217.838 192.992H215.422V198.672ZM225.487 196.864V195.92C225.887 195.36 226.399 194.704 226.399 193.504V192.976H223.455V191.648H227.679C227.759 192.016 227.775 192.352 227.775 192.832C227.775 194.864 227.183 196 226.287 196.864H225.487ZM235.199 200V192.992H231.167V191.648H237.551V192.992H236.575V200H235.199ZM243.04 200V192.992H240.672V191.648H244.416V200H243.04ZM253.185 200V192.992H248.673V191.648H253.777C254.225 191.648 254.577 192 254.577 192.448V200H253.185ZM248.769 200V195.264H250.145V200H248.769ZM260.049 196.864V195.92C260.449 195.36 260.961 194.704 260.961 193.504V192.976H258.017V191.648H262.241C262.321 192.016 262.337 192.352 262.337 192.832C262.337 194.864 261.745 196 260.849 196.864H260.049ZM270.466 200V192.992H265.954V191.648H271.058C271.506 191.648 271.858 192 271.858 192.448V200H270.466ZM266.05 200V195.264H267.426V200H266.05ZM285.971 196.864V195.92C286.371 195.36 286.883 194.704 286.883 193.504V192.976H283.939V191.648H288.163C288.243 192.016 288.259 192.352 288.259 192.832C288.259 194.864 287.667 196 286.771 196.864H285.971ZM291.716 200V198.672H294.916C295.78 198.672 296.436 198.016 296.436 197.152V192.992H291.956V191.648H297.172C297.54 191.648 297.812 191.936 297.812 192.288V197.2C297.812 198.672 296.484 200 295.012 200H291.716ZM312.581 201.664V192.976H310.293V191.648H313.957V201.664H312.581ZM321.91 191.584C323.11 191.584 323.942 192.416 323.942 193.648V200H320.71V198.672H322.566V193.984C322.566 193.376 322.134 192.928 321.574 192.928C321.478 192.928 321.398 192.928 321.141 192.976L319.542 193.264L318.742 200H317.43V199.344L318.166 193.168L317.398 192.88V191.6H318.022L319.238 192L321.398 191.632C321.574 191.6 321.75 191.584 321.91 191.584ZM329.174 196.864V195.92C329.574 195.36 330.086 194.704 330.086 193.504V192.976H327.142V191.648H331.366C331.446 192.016 331.462 192.352 331.462 192.832C331.462 194.864 330.87 196 329.974 196.864H329.174ZM334.519 200V198.672H335.607C335.431 197.92 335.335 197.12 335.335 196.304C335.335 195.12 335.511 193.936 335.799 192.992H334.695V191.648H340.423C340.871 191.648 341.223 192 341.223 192.448V200H339.831V192.992H337.223C336.935 193.904 336.727 194.896 336.727 196.112C336.727 196.896 336.823 197.776 337.047 198.672V200H334.519ZM343.479 200V198.656H347.815V192.992H343.815V191.648H348.391C348.855 191.648 349.191 192 349.191 192.448V198.656H350.119V200H343.479ZM234.351 219.144C233.679 219.144 233.183 218.632 233.183 217.96C233.183 217.32 233.679 216.792 234.351 216.792C235.007 216.792 235.519 217.32 235.519 217.96C235.519 218.632 235.007 219.144 234.351 219.144ZM239.968 219V210.648H244.256C245.28 210.648 246.016 211.4 246.016 212.424V219H239.968ZM241.344 217.672H244.64V212.872C244.64 212.36 244.256 211.992 243.76 211.992H241.344V217.672ZM253.185 219V211.992H248.673V210.648H253.777C254.225 210.648 254.577 211 254.577 211.448V219H253.185ZM248.769 219V214.264H250.145V219H248.769ZM259.153 219V217.848C261.265 215.912 261.889 214.872 261.889 213.24V211.992H257.281V208.648H258.673V210.648H262.481C262.929 210.648 263.281 211 263.281 211.448V213.112C263.281 215.4 262.193 217.16 259.969 219H259.153ZM271.122 210.648H272.418V213.128C272.418 217.064 270.722 219 266.29 219C266.002 219 265.794 218.744 265.794 218.408V210.648H267.074V214.232C268.082 214.04 268.45 213.544 268.45 212.184V210.648H269.746V211.896C269.746 213.928 269.042 215.016 267.074 215.288V217.688C269.794 217.656 271.122 216.232 271.122 213.48V210.648ZM282.675 219V217.672H283.763C283.587 216.92 283.491 216.12 283.491 215.304C283.491 214.12 283.667 212.936 283.955 211.992H282.851V210.648H288.579C289.027 210.648 289.379 211 289.379 211.448V219H287.987V211.992H285.379C285.091 212.904 284.883 213.896 284.883 215.112C284.883 215.896 284.979 216.776 285.203 217.672V219H282.675ZM294.884 219V211.992H292.516V210.648H296.26V219H294.884ZM300.98 219V217.672H304.148V211.992H302.148V210.648H305.524V218.2C305.524 218.648 305.204 219 304.74 219H300.98ZM308.917 219V217.656H313.253V211.992H309.253V210.648H313.829C314.293 210.648 314.629 211 314.629 211.448V217.656H315.557V219H308.917ZM322.31 219V211.992H317.798V210.648H322.902C323.35 210.648 323.702 211 323.702 211.448V219H322.31ZM317.894 219V214.264H319.27V219H317.894ZM334.519 219V217.672H335.607C335.431 216.92 335.335 216.12 335.335 215.304C335.335 214.12 335.511 212.936 335.799 211.992H334.695V210.648H340.423C340.871 210.648 341.223 211 341.223 211.448V219H339.831V211.992H337.223C336.935 212.904 336.727 213.896 336.727 215.112C336.727 215.896 336.823 216.776 337.047 217.672V219H334.519ZM349.783 211.672C349.783 213.64 349.335 214.44 347.735 215.192L349.559 218.056L349.543 219H348.503L345.751 214.696C345.207 215.272 344.967 216.04 344.967 217.192V219H343.591V217.512C343.591 215.656 344.071 214.488 345.127 213.72L343.783 211.608L343.799 210.648H344.823L347.143 214.28C348.135 213.784 348.407 213.32 348.407 212.2V210.648H349.783V211.672ZM88.8046 276V269.872C88.8046 269.36 88.4366 268.992 87.9246 268.992H84.5006V267.648H88.4366C89.4446 267.648 90.1966 268.4 90.1966 269.424V276H88.8046ZM95.8773 272.864V271.92C96.2773 271.36 96.7893 270.704 96.7893 269.504V268.976H93.8453V267.648H98.0693C98.1493 268.016 98.1653 268.352 98.1653 268.832C98.1653 270.864 97.5733 272 96.6773 272.864H95.8773ZM106.95 267.648H108.246V270.128C108.246 274.064 106.55 276 102.118 276C101.83 276 101.622 275.744 101.622 275.408V267.648H102.902V271.232C103.91 271.04 104.278 270.544 104.278 269.184V267.648H105.574V268.896C105.574 270.928 104.87 272.016 102.902 272.288V274.688C105.622 274.656 106.95 273.232 106.95 270.48V267.648ZM114.935 276V268.992H110.423V267.648H115.527C115.975 267.648 116.327 268 116.327 268.448V276H114.935ZM110.519 276V271.264H111.895V276H110.519ZM129.304 277.968V277.328C130.088 277.008 130.344 276.448 130.344 276.08C129.928 275.888 129.656 275.488 129.656 274.976C129.656 274.32 130.152 273.792 130.84 273.792C131.368 273.792 132.024 274.096 132.024 275.136C132.024 276.48 130.824 277.824 129.304 277.968ZM135.784 276V274.672H136.872C136.696 273.92 136.6 273.12 136.6 272.304C136.6 271.12 136.776 269.936 137.064 268.992H135.96V267.648H141.688C142.136 267.648 142.488 268 142.488 268.448V276H141.096V268.992H138.488C138.2 269.904 137.992 270.896 137.992 272.112C137.992 272.896 138.088 273.776 138.312 274.672V276H135.784ZM147.993 276V268.992H145.625V267.648H149.369V276H147.993ZM156.666 275.872V274.784C157.978 273.2 158.49 272 158.49 270.32V268.992H153.466V267.648H159.082C159.53 267.648 159.882 267.984 159.882 268.432V270C159.882 272.128 159.322 273.952 157.626 275.872H156.666ZM153.61 277.664V271.072H154.986V277.664H153.61ZM164.538 276V268.992H162.746V267.648H167.706V268.992H165.914V276H164.538ZM170.923 276V267.648H176.123C176.571 267.648 176.923 268 176.923 268.448V276H175.547V268.992H172.299V276H170.923ZM191.884 277.664V268.976H188.092V267.648H194.204V268.976H193.26V277.664H191.884ZM202.893 268.672C202.893 270.64 202.445 271.44 200.845 272.192L202.669 275.056L202.653 276H201.613L198.861 271.696C198.317 272.272 198.077 273.04 198.077 274.192V276H196.701V274.512C196.701 272.656 197.181 271.488 198.237 270.72L196.893 268.608L196.909 267.648H197.933L200.253 271.28C201.245 270.784 201.517 270.32 201.517 269.2V267.648H202.893V268.672ZM213.55 276V274.672H214.638C214.462 273.92 214.366 273.12 214.366 272.304C214.366 271.12 214.542 269.936 214.83 268.992H213.726V267.648H219.454C219.902 267.648 220.254 268 220.254 268.448V276H218.862V268.992H216.254C215.966 269.904 215.758 270.896 215.758 272.112C215.758 272.896 215.854 273.776 216.078 274.672V276H213.55ZM225.759 276V268.992H223.391V267.648H227.135V276H225.759ZM232.191 276C231.743 276 231.391 275.648 231.391 275.2V267.648H232.751V274.64H233.231C235.263 274.64 236.319 273.392 236.319 271.008V269.984C236.319 269.376 235.887 268.928 235.327 268.928C235.135 268.928 234.911 268.96 234.255 269.104L234.047 267.824C234.767 267.68 235.295 267.6 235.599 267.6C236.895 267.6 237.743 268.448 237.727 269.728L237.711 270.64C237.647 274.304 236.079 276 232.559 276H232.191ZM243.04 276V268.992H240.672V267.648H244.416V276H243.04ZM253.841 267.648H255.137V270.128C255.137 274.064 253.441 276 249.009 276C248.721 276 248.513 275.744 248.513 275.408V267.648H249.793V271.232C250.801 271.04 251.169 270.544 251.169 269.184V267.648H252.465V268.896C252.465 270.928 251.761 272.016 249.793 272.288V274.688C252.513 274.656 253.841 273.232 253.841 270.48V267.648ZM256.913 276V274.672H261.969L261.793 269.872C261.777 269.36 261.409 268.992 260.913 268.992H259.121L258.849 270.864C258.833 270.944 258.881 271.024 258.961 271.072L259.809 271.504V272.592H258.929L257.825 272.032C257.505 271.872 257.393 271.552 257.441 271.2L257.969 267.648H261.377C262.401 267.648 263.105 268.4 263.137 269.424L263.393 276H256.913ZM274.53 276V267.648H278.818C279.842 267.648 280.578 268.4 280.578 269.424V276H274.53ZM275.906 274.672H279.202V269.872C279.202 269.36 278.818 268.992 278.322 268.992H275.906V274.672ZM285.971 272.864V271.92C286.371 271.36 286.883 270.704 286.883 269.504V268.976H283.939V267.648H288.163C288.243 268.016 288.259 268.352 288.259 268.832C288.259 270.864 287.667 272 286.771 272.864H285.971ZM293.716 276V274.848C295.828 272.912 296.452 271.872 296.452 270.24V268.992H291.844V265.648H293.236V267.648H297.044C297.492 267.648 297.844 268 297.844 268.448V270.112C297.844 272.4 296.756 274.16 294.532 276H293.716ZM303.252 272.864V271.92C303.652 271.36 304.164 270.704 304.164 269.504V268.976H301.22V267.648H305.444C305.524 268.016 305.54 268.352 305.54 268.832C305.54 270.864 304.948 272 304.052 272.864H303.252ZM313.269 267.584C314.469 267.584 315.301 268.416 315.301 269.648V276H312.069V274.672H313.925V269.984C313.925 269.376 313.493 268.928 312.933 268.928C312.837 268.928 312.757 268.928 312.501 268.976L310.901 269.264L310.101 276H308.789V275.344L309.525 269.168L308.757 268.88V267.6H309.381L310.597 268L312.757 267.632C312.933 267.6 313.109 267.584 313.269 267.584ZM330.134 277.664V268.976H326.342V267.648H332.454V268.976H331.51V277.664H330.134ZM339.383 276V269.872C339.383 269.36 339.015 268.992 338.503 268.992H335.079V267.648H339.015C340.023 267.648 340.775 268.4 340.775 269.424V276H339.383ZM347.527 276V268.992H343.495V267.648H349.879V268.992H348.903V276H347.527ZM51.7781 295V293.848C53.8901 291.912 54.5141 290.872 54.5141 289.24V287.992H49.9061V284.648H51.2981V286.648H55.1061C55.5541 286.648 55.9061 287 55.9061 287.448V289.112C55.9061 291.4 54.8181 293.16 52.5941 295H51.7781ZM63.7468 286.648H65.0428V289.128C65.0428 293.064 63.3468 295 58.9148 295C58.6268 295 58.4188 294.744 58.4188 294.408V286.648H59.6988V290.232C60.7068 290.04 61.0748 289.544 61.0748 288.184V286.648H62.3708V287.896C62.3708 289.928 61.6668 291.016 59.6988 291.288V293.688C62.4188 293.656 63.7468 292.232 63.7468 289.48V286.648ZM79.284 296.664V287.976H76.996V286.648H80.66V296.664H79.284ZM88.3086 295V287.992H84.2766V286.648H90.6606V287.992H89.6846V295H88.3086ZM92.9013 295V293.656H97.2373V287.992H93.2373V286.648H97.8133C98.2773 286.648 98.6133 287 98.6133 287.448V293.656H99.5413V295H92.9013ZM104.79 295V287.992H102.422V286.648H106.166V295H104.79ZM116.487 287.672C116.487 289.64 116.039 290.44 114.439 291.192L116.263 294.056L116.247 295H115.207L112.455 290.696C111.911 291.272 111.671 292.04 111.671 293.192V295H110.295V293.512C110.295 291.656 110.775 290.488 111.831 289.72L110.487 287.608L110.503 286.648H111.527L113.847 290.28C114.839 289.784 115.111 289.32 115.111 288.2V286.648H116.487V287.672ZM122.071 295V287.992H119.703V286.648H123.447V295H122.071ZM136.104 295V293.656H140.44V287.992H136.44V286.648H141.016C141.48 286.648 141.816 287 141.816 287.448V293.656H142.744V295H136.104ZM151.049 287.672C151.049 289.64 150.601 290.44 149.001 291.192L150.825 294.056L150.809 295H149.769L147.017 290.696C146.473 291.272 146.233 292.04 146.233 293.192V295H144.857V293.512C144.857 291.656 145.337 290.488 146.393 289.72L145.049 287.608L145.065 286.648H146.089L148.409 290.28C149.401 289.784 149.673 289.32 149.673 288.2V286.648H151.049V287.672ZM153.466 295V293.672H156.666C157.53 293.672 158.186 293.016 158.186 292.152V287.992H153.706V286.648H158.922C159.29 286.648 159.562 286.936 159.562 287.288V292.2C159.562 293.672 158.234 295 156.762 295H153.466ZM172.507 296.968V296.328C173.291 296.008 173.547 295.448 173.547 295.08C173.131 294.888 172.859 294.488 172.859 293.976C172.859 293.32 173.355 292.792 174.043 292.792C174.571 292.792 175.227 293.096 175.227 294.136C175.227 295.48 174.027 296.824 172.507 296.968ZM181.388 295V293.848C183.5 291.912 184.124 290.872 184.124 289.24V287.992H179.516V284.648H180.908V286.648H184.716C185.164 286.648 185.516 287 185.516 287.448V289.112C185.516 291.4 184.428 293.16 182.204 295H181.388ZM191.196 295V287.992H188.828V286.648H192.572V295H191.196ZM196.589 295V293.656H200.925V287.992H196.925V286.648H201.501C201.965 286.648 202.301 287 202.301 287.448V293.656H203.229V295H196.589ZM207.309 295V293.848C209.421 291.912 210.045 290.872 210.045 289.24V287.992H205.437V284.648H206.829V286.648H210.637C211.085 286.648 211.437 287 211.437 287.448V289.112C211.437 291.4 210.349 293.16 208.125 295H207.309ZM213.87 295V293.656H218.206V287.992H214.206V286.648H218.782C219.246 286.648 219.582 287 219.582 287.448V293.656H220.51V295H213.87ZM233.231 295V293.848C235.343 291.912 235.967 290.872 235.967 289.24V287.992H231.359V284.648H232.751V286.648H236.559C237.007 286.648 237.359 287 237.359 287.448V289.112C237.359 291.4 236.271 293.16 234.047 295H233.231ZM245.2 286.648H246.496V289.128C246.496 293.064 244.8 295 240.368 295C240.08 295 239.872 294.744 239.872 294.408V286.648H241.152V290.232C242.16 290.04 242.528 289.544 242.528 288.184V286.648H243.824V287.896C243.824 289.928 243.12 291.016 241.152 291.288V293.688C243.872 293.656 245.2 292.232 245.2 289.48V286.648ZM256.753 295V293.672H257.841C257.665 292.92 257.569 292.12 257.569 291.304C257.569 290.12 257.745 288.936 258.033 287.992H256.929V286.648H262.657C263.105 286.648 263.457 287 263.457 287.448V295H262.065V287.992H259.457C259.169 288.904 258.961 289.896 258.961 291.112C258.961 291.896 259.057 292.776 259.281 293.672V295H256.753ZM268.962 295V287.992H266.594V286.648H270.338V295H268.962ZM279.762 286.648H281.058V289.128C281.058 293.064 279.362 295 274.93 295C274.642 295 274.434 294.744 274.434 294.408V286.648H275.714V290.232C276.722 290.04 277.09 289.544 277.09 288.184V286.648H278.386V287.896C278.386 289.928 277.682 291.016 275.714 291.288V293.688C278.434 293.656 279.762 292.232 279.762 289.48V286.648ZM286.243 295V287.992H283.875V286.648H287.619V295H286.243ZM291.892 295V286.648H297.092C297.54 286.648 297.892 287 297.892 287.448V295H296.516V287.992H293.268V295H291.892ZM299.956 295V293.672H301.044C300.868 292.92 300.772 292.12 300.772 291.304C300.772 290.12 300.948 288.936 301.236 287.992H300.132V286.648H305.86C306.308 286.648 306.66 287 306.66 287.448V295H305.268V287.992H302.66C302.372 288.904 302.164 289.896 302.164 291.112C302.164 291.896 302.26 292.776 302.484 293.672V295H299.956ZM323.862 287.672C323.862 289.64 323.414 290.44 321.814 291.192L323.638 294.056L323.622 295H322.582L319.83 290.696C319.286 291.272 319.046 292.04 319.046 293.192V295H317.67V293.512C317.67 291.656 318.15 290.488 319.206 289.72L317.862 287.608L317.878 286.648H318.902L321.222 290.28C322.214 289.784 322.486 289.32 322.486 288.2V286.648H323.862V287.672ZM327.238 295C326.79 295 326.438 294.648 326.438 294.2V286.648H327.798V293.64H328.278C330.31 293.64 331.366 292.392 331.366 290.008V288.984C331.366 288.376 330.934 287.928 330.374 287.928C330.182 287.928 329.958 287.96 329.302 288.104L329.094 286.824C329.814 286.68 330.342 286.6 330.646 286.6C331.942 286.6 332.79 287.448 332.774 288.728L332.758 289.64C332.694 293.304 331.126 295 327.606 295H327.238ZM334.839 295V293.656H339.175V287.992H335.175V286.648H339.751C340.215 286.648 340.551 287 340.551 287.448V293.656H341.479V295H334.839ZM347.831 286.584C349.031 286.584 349.863 287.416 349.863 288.648V295H346.631V293.672H348.487V288.984C348.487 288.376 348.055 287.928 347.495 287.928C347.399 287.928 347.319 287.928 347.063 287.976L345.463 288.264L344.663 295H343.351V294.344L344.087 288.168L343.319 287.88V286.6H343.943L345.159 287L347.319 286.632C347.495 286.6 347.671 286.584 347.831 286.584ZM73.2834 306.672C73.2834 308.64 72.8354 309.44 71.2354 310.192L73.0594 313.056L73.0434 314H72.0034L69.2514 309.696C68.7074 310.272 68.4674 311.04 68.4674 312.192V314H67.0914V312.512C67.0914 310.656 67.5714 309.488 68.6274 308.72L67.2834 306.608L67.2994 305.648H68.3234L70.6434 309.28C71.6354 308.784 71.9074 308.32 71.9074 307.2V305.648H73.2834V306.672ZM77.7 314V312.848C79.812 310.912 80.436 309.872 80.436 308.24V306.992H75.828V303.648H77.22V305.648H81.028C81.476 305.648 81.828 306 81.828 306.448V308.112C81.828 310.4 80.74 312.16 78.516 314H77.7ZM92.5813 314V312.672H93.6693C93.4933 311.92 93.3973 311.12 93.3973 310.304C93.3973 309.12 93.5733 307.936 93.8613 306.992H92.7573V305.648H98.4853C98.9333 305.648 99.2853 306 99.2853 306.448V314H97.8933V306.992H95.2853C94.9973 307.904 94.7893 308.896 94.7893 310.112C94.7893 310.896 94.8853 311.776 95.1093 312.672V314H92.5813ZM104.79 314V306.992H102.422V305.648H106.166V314H104.79ZM114.727 314V307.872C114.727 307.36 114.359 306.992 113.847 306.992H110.423V305.648H114.359C115.367 305.648 116.119 306.4 116.119 307.424V314H114.727ZM121.799 310.864V309.92C122.199 309.36 122.711 308.704 122.711 307.504V306.976H119.767V305.648H123.991C124.071 306.016 124.087 306.352 124.087 306.832C124.087 308.864 123.495 310 122.599 310.864H121.799ZM127.72 314V305.648H132.92C133.368 305.648 133.72 306 133.72 306.448V314H132.344V306.992H129.096V314H127.72ZM136.104 314V312.656H140.44V306.992H136.44V305.648H141.016C141.48 305.648 141.816 306 141.816 306.448V312.656H142.744V314H136.104ZM149.497 314V306.992H144.985V305.648H150.089C150.537 305.648 150.889 306 150.889 306.448V314H149.497ZM145.081 314V309.264H146.457V314H145.081ZM166.778 314V306.992H162.266V305.648H167.37C167.818 305.648 168.17 306 168.17 306.448V314H166.778ZM162.362 314V309.264H163.738V314H162.362ZM170.667 314V312.656H175.003V306.992H171.003V305.648H175.579C176.043 305.648 176.379 306 176.379 306.448V312.656H177.307V314H170.667ZM184.716 305.648H186.012V308.128C186.012 312.064 184.316 314 179.884 314C179.596 314 179.388 313.744 179.388 313.408V305.648H180.668V309.232C181.676 309.04 182.044 308.544 182.044 307.184V305.648H183.34V306.896C183.34 308.928 182.636 310.016 180.668 310.288V312.688C183.388 312.656 184.716 311.232 184.716 308.48V305.648ZM196.269 314V312.672H197.357C197.181 311.92 197.085 311.12 197.085 310.304C197.085 309.12 197.261 307.936 197.549 306.992H196.445V305.648H202.173C202.621 305.648 202.973 306 202.973 306.448V314H201.581V306.992H198.973C198.685 307.904 198.477 308.896 198.477 310.112C198.477 310.896 198.573 311.776 198.797 312.672V314H196.269ZM208.477 314V306.992H206.109V305.648H209.853V314H208.477ZM220.174 306.672C220.174 308.64 219.726 309.44 218.126 310.192L219.95 313.056L219.934 314H218.894L216.142 309.696C215.598 310.272 215.358 311.04 215.358 312.192V314H213.982V312.512C213.982 310.656 214.462 309.488 215.518 308.72L214.174 306.608L214.19 305.648H215.214L217.534 309.28C218.526 308.784 218.798 308.32 218.798 307.2V305.648H220.174V306.672ZM225.487 310.864V309.92C225.887 309.36 226.399 308.704 226.399 307.504V306.976H223.455V305.648H227.679C227.759 306.016 227.775 306.352 227.775 306.832C227.775 308.864 227.183 310 226.287 310.864H225.487ZM237.247 306.784C237.247 308.608 236.831 309.296 235.327 309.936L237.167 312.704V314H231.327V312.672H235.599L231.407 306.608V305.648H232.479L234.751 309.056C235.631 308.688 235.871 308.304 235.871 307.296V305.648H237.247V306.784ZM244.144 305.584C245.344 305.584 246.176 306.416 246.176 307.648V314H242.944V312.672H244.8V307.984C244.8 307.376 244.368 306.928 243.808 306.928C243.712 306.928 243.632 306.928 243.376 306.976L241.776 307.264L240.976 314H239.664V313.344L240.4 307.168L239.632 306.88V305.6H240.256L241.472 306L243.632 305.632C243.808 305.6 243.984 305.584 244.144 305.584ZM261.009 315.664V306.976H257.217V305.648H263.329V306.976H262.385V315.664H261.009ZM268.962 314V306.992H266.594V305.648H270.338V314H268.962ZM274.034 314V312.672H275.122C274.946 311.92 274.85 311.12 274.85 310.304C274.85 309.12 275.026 307.936 275.314 306.992H274.21V305.648H279.938C280.386 305.648 280.738 306 280.738 306.448V314H279.346V306.992H276.738C276.45 307.904 276.242 308.896 276.242 310.112C276.242 310.896 276.338 311.776 276.562 312.672V314H274.034ZM282.995 314V312.656H287.331V306.992H283.331V305.648H287.907C288.371 305.648 288.707 306 288.707 306.448V312.656H289.635V314H282.995ZM302.116 315.968V315.328C302.9 315.008 303.156 314.448 303.156 314.08C302.74 313.888 302.468 313.488 302.468 312.976C302.468 312.32 302.964 311.792 303.652 311.792C304.18 311.792 304.836 312.096 304.836 313.136C304.836 314.48 303.636 315.824 302.116 315.968ZM313.669 314V306.992H309.157V305.648H314.261C314.709 305.648 315.061 306 315.061 306.448V314H313.669ZM309.253 314V309.264H310.629V314H309.253ZM318.598 314C318.15 314 317.798 313.648 317.798 313.2V305.648H319.158V312.64H319.638C321.67 312.64 322.726 311.392 322.726 309.008V307.984C322.726 307.376 322.294 306.928 321.734 306.928C321.542 306.928 321.318 306.96 320.661 307.104L320.454 305.824C321.174 305.68 321.702 305.6 322.006 305.6C323.302 305.6 324.15 306.448 324.134 307.728L324.118 308.64C324.054 312.304 322.486 314 318.966 314H318.598ZM329.174 310.864V309.92C329.574 309.36 330.086 308.704 330.086 307.504V306.976H327.142V305.648H331.366C331.446 306.016 331.462 306.352 331.462 306.832C331.462 308.864 330.87 310 329.974 310.864H329.174ZM336.919 314V312.848C339.031 310.912 339.655 309.872 339.655 308.24V306.992H335.047V303.648H336.439V305.648H340.247C340.695 305.648 341.047 306 341.047 306.448V308.112C341.047 310.4 339.959 312.16 337.735 314H336.919ZM348.887 305.648H350.183V308.128C350.183 312.064 348.487 314 344.055 314C343.767 314 343.559 313.744 343.559 313.408V305.648H344.839V309.232C345.847 309.04 346.215 308.544 346.215 307.184V305.648H347.511V306.896C347.511 308.928 346.807 310.016 344.839 310.288V312.688C347.559 312.656 348.887 311.232 348.887 308.48V305.648ZM234.351 333.144C233.679 333.144 233.183 332.632 233.183 331.96C233.183 331.32 233.679 330.792 234.351 330.792C235.007 330.792 235.519 331.32 235.519 331.96C235.519 332.632 235.007 333.144 234.351 333.144ZM243.456 334.664V325.976H241.168V324.648H244.832V334.664H243.456ZM252.481 333V325.992H248.449V324.648H254.833V325.992H253.857V333H252.481ZM260.049 329.864V328.92C260.449 328.36 260.961 327.704 260.961 326.504V325.976H258.017V324.648H262.241C262.321 325.016 262.337 325.352 262.337 325.832C262.337 327.864 261.745 329 260.849 329.864H260.049ZM265.714 333V331.656H270.05V325.992H266.05V324.648H270.626C271.09 324.648 271.426 325 271.426 325.448V331.656H272.354V333H265.714ZM286.243 333V325.992H283.875V324.648H287.619V333H286.243ZM294.612 329.864V328.92C295.012 328.36 295.524 327.704 295.524 326.504V325.976H292.58V324.648H296.804C296.884 325.016 296.9 325.352 296.9 325.832C296.9 327.864 296.308 329 295.412 329.864H294.612ZM305.028 333V325.992H300.516V324.648H305.62C306.068 324.648 306.42 325 306.42 325.448V333H305.028ZM300.612 333V328.264H301.988V333H300.612ZM321.606 333V325.992H317.574V324.648H323.958V325.992H322.982V333H321.606ZM329.174 329.864V328.92C329.574 328.36 330.086 327.704 330.086 326.504V325.976H327.142V324.648H331.366C331.446 325.016 331.462 325.352 331.462 325.832C331.462 327.864 330.87 329 329.974 329.864H329.174ZM339.191 324.584C340.391 324.584 341.223 325.416 341.223 326.648V333H337.991V331.672H339.847V326.984C339.847 326.376 339.415 325.928 338.855 325.928C338.759 325.928 338.679 325.928 338.423 325.976L336.823 326.264L336.023 333H334.711V332.344L335.447 326.168L334.679 325.88V324.6H335.303L336.519 325L338.679 324.632C338.855 324.6 339.031 324.584 339.191 324.584ZM343.159 333V331.672H344.247C344.071 330.92 343.975 330.12 343.975 329.304C343.975 328.12 344.151 326.936 344.439 325.992H343.335V324.648H349.063C349.511 324.648 349.863 325 349.863 325.448V333H348.471V325.992H345.863C345.575 326.904 345.367 327.896 345.367 329.112C345.367 329.896 345.463 330.776 345.687 331.672V333H343.159Z" fill="#181818"/>
<path d="M183.996 19.296L183.972 17.976L192.54 1.584H193.98L194.004 2.904L185.436 19.296H183.996ZM196.957 19.296L196.933 17.976L205.501 1.584H206.941L206.965 2.904L198.397 19.296H196.957ZM232.527 7.008C232.527 9.96 231.855 11.16 229.455 12.288L232.191 16.584L232.167 18H230.607L226.479 11.544C225.663 12.408 225.303 13.56 225.303 15.288V18H223.239V15.768C223.239 12.984 223.959 11.232 225.543 10.08L223.527 6.912L223.551 5.472H225.087L228.567 10.92C230.055 10.176 230.463 9.48 230.463 7.8V5.472H232.527V7.008ZM236.032 18V15.984H242.536V7.488H236.536V5.472H243.4C244.096 5.472 244.6 6 244.6 6.672V15.984H245.992V18H236.032ZM258.449 7.008C258.449 9.96 257.777 11.16 255.377 12.288L258.113 16.584L258.089 18H256.529L252.401 11.544C251.585 12.408 251.225 13.56 251.225 15.288V18H249.161V15.768C249.161 12.984 249.881 11.232 251.465 10.08L249.449 6.912L249.473 5.472H251.009L254.489 10.92C255.977 10.176 256.385 9.48 256.385 7.8V5.472H258.449V7.008ZM266.417 13.296V11.88C267.017 11.04 267.785 10.056 267.785 8.256V7.464H263.369V5.472H269.705C269.825 6.024 269.849 6.528 269.849 7.248C269.849 10.296 268.961 12 267.617 13.296H266.417ZM279.786 18V7.488H276.234V5.472H281.85V18H279.786ZM310.292 7.008C310.292 9.96 309.62 11.16 307.22 12.288L309.956 16.584L309.932 18H308.372L304.244 11.544C303.428 12.408 303.068 13.56 303.068 15.288V18H301.004V15.768C301.004 12.984 301.724 11.232 303.308 10.08L301.292 6.912L301.316 5.472H302.852L306.332 10.92C307.82 10.176 308.228 9.48 308.228 7.8V5.472H310.292V7.008ZM320.325 5.376C322.125 5.376 323.373 6.624 323.373 8.472V18H318.525V16.008H321.309V8.976C321.309 8.064 320.661 7.392 319.821 7.392C319.677 7.392 319.557 7.392 319.173 7.464L316.773 7.896L315.573 18H313.605V17.016L314.709 7.752L313.557 7.32V5.4H314.493L316.317 6L319.557 5.448C319.821 5.4 320.085 5.376 320.325 5.376ZM331.63 18V7.488H328.078V5.472H333.694V18H331.63ZM344.183 13.296V11.88C344.783 11.04 345.551 10.056 345.551 8.256V7.464H341.135V5.472H347.471C347.591 6.024 347.615 6.528 347.615 7.248C347.615 10.296 346.727 12 345.383 13.296H344.183Z" fill="#181818"/>
<path d="M170.747 42V40.848C172.859 38.912 173.483 37.872 173.483 36.24V34.992H168.875V31.648H170.267V33.648H174.075C174.523 33.648 174.875 34 174.875 34.448V36.112C174.875 38.4 173.787 40.16 171.563 42H170.747ZM183.612 34.672C183.612 36.64 183.164 37.44 181.564 38.192L183.388 41.056L183.372 42H182.332L179.58 37.696C179.036 38.272 178.796 39.04 178.796 40.192V42H177.42V40.512C177.42 38.656 177.9 37.488 178.956 36.72L177.612 34.608L177.628 33.648H178.652L180.972 37.28C181.964 36.784 182.236 36.32 182.236 35.2V33.648H183.612V34.672ZM190.492 42V35.872C190.492 35.36 190.124 34.992 189.612 34.992H186.188V33.648H190.124C191.132 33.648 191.884 34.4 191.884 35.424V42H190.492ZM199.341 42V34.992H194.829V33.648H199.933C200.381 33.648 200.733 34 200.733 34.448V42H199.341ZM194.925 42V37.264H196.301V42H194.925ZM216.622 42V34.992H212.11V33.648H217.214C217.662 33.648 218.014 34 218.014 34.448V42H216.622ZM212.206 42V37.264H213.582V42H212.206ZM220.511 42V40.656H224.847V34.992H220.847V33.648H225.423C225.887 33.648 226.223 34 226.223 34.448V40.656H227.151V42H220.511ZM232.127 38.864V37.92C232.527 37.36 233.039 36.704 233.039 35.504V34.976H230.095V33.648H234.319C234.399 34.016 234.415 34.352 234.415 34.832C234.415 36.864 233.823 38 232.927 38.864H232.127ZM238.496 42V40.672H241.664V34.992H239.664V33.648H243.04V41.2C243.04 41.648 242.72 42 242.256 42H238.496ZM258.273 36.624C257.601 36.624 257.105 36.112 257.105 35.44C257.105 34.8 257.601 34.272 258.273 34.272C258.929 34.272 259.441 34.8 259.441 35.44C259.441 36.112 258.929 36.624 258.273 36.624ZM258.273 42.144C257.601 42.144 257.105 41.632 257.105 40.96C257.105 40.32 257.601 39.792 258.273 39.792C258.929 39.792 259.441 40.32 259.441 40.96C259.441 41.632 258.929 42.144 258.273 42.144ZM266.69 38.864V37.92C267.09 37.36 267.602 36.704 267.602 35.504V34.976H264.658V33.648H268.882C268.962 34.016 268.978 34.352 268.978 34.832C268.978 36.864 268.386 38 267.49 38.864H266.69ZM274.434 42V40.848C276.546 38.912 277.17 37.872 277.17 36.24V34.992H272.562V31.648H273.954V33.648H277.762C278.21 33.648 278.562 34 278.562 34.448V36.112C278.562 38.4 277.474 40.16 275.25 42H274.434ZM284.243 42V34.992H281.875V33.648H285.619V42H284.243ZM292.916 41.872V40.784C294.228 39.2 294.74 38 294.74 36.32V34.992H289.716V33.648H295.332C295.78 33.648 296.132 33.984 296.132 34.432V36C296.132 38.128 295.572 39.952 293.876 41.872H292.916ZM289.86 43.664V37.072H291.236V43.664H289.86ZM311.861 33.648H313.221V34.288C313.205 35.008 313.189 35.824 313.141 36.544C312.885 40.384 311.461 41.776 307.573 42.272L306.949 42.352H306.741V41.024C307.125 40.992 307.477 40.96 307.829 40.896C308.117 40.848 308.389 40.8 308.645 40.736L307.429 34.304V33.648H308.741L309.973 40.304C311.109 39.76 311.605 38.832 311.749 36.912C311.829 35.856 311.845 34.528 311.861 33.648ZM318.806 42V34.992H316.438V33.648H320.182V42H318.806ZM330.294 34.784C330.294 36.608 329.878 37.296 328.374 37.936L330.214 40.704V42H324.374V40.672H328.646L324.454 34.608V33.648H325.526L327.798 37.056C328.678 36.688 328.918 36.304 328.918 35.296V33.648H330.294V34.784ZM335.815 38.864V37.92C336.215 37.36 336.727 36.704 336.727 35.504V34.976H333.783V33.648H338.007C338.087 34.016 338.103 34.352 338.103 34.832C338.103 36.864 337.511 38 336.615 38.864H335.815ZM341.479 42V40.656H345.815V34.992H341.815V33.648H346.391C346.855 33.648 347.191 34 347.191 34.448V40.656H348.119V42H341.479Z" fill="#181818"/>
</svg>
