<?xml version="1.0" encoding="UTF-8"?><svg id="Layer_1" xmlns="http://www.w3.org/2000/svg" viewBox="0 0 1825.04 630.03"><path d="M99.93,171.23c6.42-5.9,11.58-12.53,15.48-19.91,3.9-7.37,5.86-14.18,5.86-20.43,0-5.21-1.52-9.37-4.55-12.49-3.04-3.12-7.77-4.68-14.18-4.68h-48.14c-.52-7.81-.13-15.83,1.17-24.07,1.3-8.24,3.16-15.22,5.6-20.95h64.54c5.55,9.89,8.33,21.34,8.33,34.35s-2.95,26.41-8.85,39.17c-5.9,12.75-13.88,23.12-23.94,31.1l-1.3-2.08Z" fill="#fff"/><path d="M239.42,266.74c-3.47,0-6.42-1.17-8.85-3.51-2.43-2.34-3.64-5.25-3.64-8.72s1.21-6.42,3.64-8.85c2.43-2.43,5.38-3.64,8.85-3.64s6.38,1.21,8.72,3.64c2.34,2.43,3.51,5.38,3.51,8.85s-1.17,6.38-3.51,8.72c-2.34,2.34-5.25,3.51-8.72,3.51Z" fill="#fff"/><path d="M221.2,154.58c-3.47,0-6.42-1.17-8.85-3.51-2.43-2.34-3.64-5.25-3.64-8.72s1.21-6.42,3.64-8.85c2.43-2.43,5.38-3.64,8.85-3.64s6.38,1.22,8.72,3.64c2.34,2.43,3.51,5.38,3.51,8.85s-1.17,6.16-3.51,8.59c-2.34,2.43-5.25,3.64-8.72,3.64Z" fill="#fff"/><path d="M159.52,227.71c-2.78-5.38-4.86-12.4-6.25-21.08-1.39-8.67-1.74-17.09-1.04-25.24h1.3c17.52,0,37.6-2.34,60.24-7.03s42.03-11.06,58.16-19.13,24.2-16.79,24.2-26.15c0-5.2-2.34-9.06-7.03-11.58-4.68-2.51-11.37-3.77-20.04-3.77h-128.82c-.7-7.63-.39-15.57.91-23.81,1.3-8.24,3.08-15.31,5.33-21.21h156.14c6.07,10.06,8.93,21.43,8.59,34.09-.35,12.67-4.86,24.55-13.53,35.65l20.04,4.42c.87,3.3,1.47,7.42,1.82,12.36.35,4.94.35,9.41,0,13.4-9.37,12.67-22.69,23.42-39.95,32.27-17.27,8.85-36.26,15.53-56.99,20.04-20.73,4.51-41.25,6.77-61.55,6.77h-1.56Z" fill="#fff"/><path d="M394.52,266.74c-3.47,0-6.42-1.17-8.85-3.51-2.43-2.34-3.64-5.25-3.64-8.72s1.21-6.42,3.64-8.85c2.43-2.43,5.38-3.64,8.85-3.64s6.38,1.21,8.72,3.64c2.34,2.43,3.51,5.38,3.51,8.85s-1.17,6.38-3.51,8.72c-2.34,2.34-5.25,3.51-8.72,3.51ZM394.52,302.39c-3.47,0-6.42-1.17-8.85-3.51-2.43-2.34-3.64-5.25-3.64-8.72s1.21-6.42,3.64-8.85c2.43-2.43,5.38-3.64,8.85-3.64s6.38,1.21,8.72,3.64c2.34,2.43,3.51,5.38,3.51,8.85s-1.17,6.38-3.51,8.72c-2.34,2.34-5.25,3.51-8.72,3.51Z" fill="#fff"/><path d="M392.7,227.71c-2.95-5.73-5.51-13.31-7.68-22.77-2.17-9.45-3.25-17.31-3.25-23.55,13.36-2.25,28.02-5.9,43.98-10.93,15.96-5.03,29.41-10.84,40.34-17.44,6.94-4.16,12.36-8.5,16.26-13.01,3.9-4.51,5.86-9.11,5.86-13.79,0-3.64-1.13-6.64-3.38-8.98-2.26-2.34-5.55-3.51-9.89-3.51h-155.1c-.87-10.75-1.3-19.86-1.3-27.32,0-18.91,3.51-35.52,10.54-49.84s17.39-24.85,31.1-31.62c3.99,3.47,8.07,10.19,12.23,20.17,4.16,9.98,6.42,17.74,6.77,23.29-12.67-1.73-24.38-.82-35.13,2.73-10.76,3.56-18.13,9.41-22.12,17.57h158.74c7.29,18.05,10.93,36.09,10.93,54.13,0,14.75-4.12,29.28-12.36,43.59-8.24,14.31-19.87,26.93-34.87,37.86-15.01,10.93-32.23,18.74-51.66,23.42Z" fill="#fff"/><path d="M730.22,262.58c-.35-2.43-.52-5.33-.52-8.72s.17-6.03.52-7.94h54.65c.35,1.91.52,4.55.52,7.94s-.17,6.29-.52,8.72h-54.65Z" fill="#fff"/><path d="M891.31,220.94c-3.3-5.9-5.82-13.23-7.55-21.99-1.74-8.76-2.34-17.31-1.82-25.63,18.56-4.33,35.52-10.54,50.88-18.61,15.35-8.07,23.03-17.22,23.03-27.46,0-3.99-1.13-7.24-3.38-9.76-2.26-2.51-5.81-3.77-10.67-3.77h-445.79c-.52-7.81-.13-15.83,1.17-24.07,1.3-8.24,3.16-15.22,5.6-20.95h444.48c7.29,18.05,10.93,36.09,10.93,54.13,0,22.21-5.81,41.9-17.44,59.07-11.62,17.18-28.11,30.19-49.44,39.04ZM538.95,282.62c-3.12-11.28-5.46-24.42-7.03-39.43-1.56-15.01-2.34-30.75-2.34-47.23,0-19.43,1.21-39.04,3.64-58.81.52-.17,1.08-.26,1.69-.26s1.17.09,1.69.26c-.17,18.39,3.16,37.65,10.02,57.77,6.85,20.13,15.4,37.56,25.63,52.31-1.39,4.85-3.95,10.5-7.68,16.92-3.73,6.42-7.94,12.49-12.62,18.22l-13.01.26Z" fill="#fff"/><path d="M1062.03,277.15c-3.99-8.5-6.9-16.61-8.72-24.33-1.82-7.72-2.73-15.22-2.73-22.51,0-10.41,1.52-19.95,4.55-28.63,3.03-8.67,7.59-19.17,13.66-31.49,2.43-5.21,4.9-10.54,7.42-16,2.51-5.46,4.38-10.54,5.6-15.22,2.6-9.19,1.91-15.7-2.08-19.52-3.99-3.81-10.24-5.73-18.74-5.73h-46.58c-.35-7.81.17-15.83,1.56-24.07,1.39-8.24,3.38-15.22,5.99-20.95h54.39c2.6,5.38,4.68,12.19,6.25,20.43,1.56,8.24,2.34,16.44,2.34,24.59v9.5c0,3.21-.09,6.55-.26,10.02-.17,26.37.13,47.67.91,63.89.78,16.22,3.08,27.89,6.9,35-2.43,7.46-5.99,15.31-10.67,23.55-4.68,8.24-9.63,15.39-14.83,21.47h-4.94Z" fill="#fff"/><path d="M1233.52,262.58c-.35-2.43-.52-5.33-.52-8.72s.17-6.03.52-7.94h54.65c.35,1.91.52,4.55.52,7.94s-.17,6.29-.52,8.72h-54.65Z" fill="#fff"/><path d="M1134.63,230.31c-4.34-11.1-7.68-24.24-10.02-39.43-2.34-15.18-3.51-30.32-3.51-45.41,0-10.76.52-21.34,1.56-31.75h-30.97c-.52-7.81-.13-15.83,1.17-24.07,1.3-8.24,3.16-15.22,5.59-20.95h289.12c6.77,23.94,10.15,49.53,10.15,76.77,0,15.09-1.17,30.23-3.51,45.41-2.34,15.18-5.68,28.33-10.02,39.43h-4.68c-5.03-6.59-9.76-14.31-14.18-23.16-4.42-8.85-7.77-17.44-10.02-25.76,11.62-5.73,21.17-13.23,28.63-22.51,7.46-9.28,11.19-18.17,11.19-26.67,0-5.55-1.78-10.02-5.33-13.4-3.56-3.38-8.98-5.07-16.26-5.07h-228.23c-7.29,0-12.67,1.65-16.13,4.94-3.47,3.3-5.21,7.81-5.21,13.53,0,8.68,3.77,17.7,11.32,27.06s16.96,16.74,28.24,22.12c-2.26,8.33-5.6,16.92-10.02,25.76-4.42,8.85-9.15,16.57-14.18,23.16h-4.68Z" fill="#fff"/><path d="M1354.27,469.73c-3.47,0-6.42-1.17-8.85-3.51-2.43-2.34-3.64-5.25-3.64-8.72s1.21-6.42,3.64-8.85,5.38-3.64,8.85-3.64,6.38,1.22,8.72,3.64c2.34,2.43,3.51,5.38,3.51,8.85s-1.17,6.16-3.51,8.59c-2.34,2.43-5.25,3.64-8.72,3.64Z" fill="#fff"/><path d="M1413.61,542.59c-4.34-11.1-7.68-24.24-10.02-39.43-2.34-15.18-3.51-30.32-3.51-45.41,0-10.75.52-21.34,1.56-31.75h-627.69c-.52-7.81-.13-15.83,1.17-24.07,1.3-8.24,3.16-15.22,5.6-20.95h665.95c1.91,7.29,3.55,14.75,4.94,22.38,1.39,7.64,2.51,15.18,3.38,22.64h-26.54c-8.68,0-15.18,1.74-19.52,5.21-4.34,3.47-6.51,8.16-6.51,14.05,0,7.81,3.55,16,10.67,24.59,7.11,8.59,16.83,16.53,29.15,23.81-2.43,8.5-5.86,17.22-10.28,26.15-4.42,8.94-8.98,16.53-13.66,22.77h-4.68Z" fill="#fff"/><path d="M1534.88,574.86c-.35-2.43-.52-5.33-.52-8.72s.17-6.03.52-7.94h54.65c.35,1.91.52,4.55.52,7.94s-.17,6.29-.52,8.72h-54.65Z" fill="#fff"/><path d="M1477.11,542.07c-2.95-5.2-5.29-12.84-7.03-22.9-1.74-10.06-2.17-18.56-1.3-25.5,19.08,0,38.25-.61,57.51-1.82,6.94-4.33,12.23-9.97,15.87-16.92,3.64-6.94,5.46-13.88,5.46-20.82,0-7.98-2.43-14.66-7.29-20.04-4.86-5.38-11.71-8.07-20.56-8.07h-60.12c-.52-7.81-.13-15.83,1.17-24.07,1.3-8.24,3.16-15.22,5.59-20.95h66.88c6.42,16.65,11.36,34.35,14.83,53.09,3.47,18.74,5.12,37.3,4.95,55.69,31.4-3.29,54.13-7.98,68.18-14.05,10.06-4.16,17.7-9.11,22.9-14.83,5.21-5.73,7.81-11.28,7.81-16.66s-2.47-9.54-7.42-13.01c-4.94-3.47-11.67-5.21-20.17-5.21h-72.09c-.52-7.81-.13-15.83,1.17-24.07,1.3-8.24,3.16-15.22,5.6-20.95h87.18c7.29,18.39,10.93,35.74,10.93,52.05,0,23.25-8.16,43.07-24.46,59.46-16.31,16.4-38.17,28.76-65.58,37.08-27.42,8.33-57.43,12.49-90.04,12.49Z" fill="#fff"/><path d="M1769.87,574.86c-.35-2.43-.52-5.33-.52-8.72s.17-6.03.52-7.94h54.65c.35,1.91.52,4.55.52,7.94s-.17,6.29-.52,8.72h-54.65Z" fill="#fff"/><path d="M1796.42,542.59c-5.03-6.59-9.76-14.31-14.18-23.16-4.42-8.85-7.77-17.44-10.02-25.76,11.1-6.77,20.3-14.79,27.59-24.07,7.29-9.28,10.93-18,10.93-26.15,0-5.38-1.78-9.63-5.33-12.75-3.56-3.12-8.98-4.68-16.26-4.68h-127c-.52-7.81-.13-15.83,1.17-24.07,1.3-8.24,3.16-15.22,5.59-20.95h135.58c6.77,23.94,10.15,49.53,10.15,76.77,0,15.09-1.17,30.23-3.51,45.41-2.34,15.18-5.68,28.33-10.02,39.43h-4.68Z" fill="#fff"/></svg>