<?xml version="1.0" encoding="UTF-8"?><svg id="Layer_1" xmlns="http://www.w3.org/2000/svg" viewBox="0 0 1331.9 735.18"><path d="M560.88,199.81c7.49-6.88,13.51-14.62,18.07-23.23,4.55-8.6,6.83-16.55,6.83-23.84,0-6.07-1.77-10.93-5.31-14.58-3.54-3.64-9.06-5.47-16.55-5.47h-56.18c-.61-9.11-.15-18.47,1.37-28.09,1.52-9.61,3.69-17.76,6.53-24.45h75.31c6.48,11.54,9.72,24.9,9.72,40.08s-3.44,30.82-10.33,45.7c-6.88,14.88-16.2,26.98-27.94,36.29l-1.52-2.43Z" fill="#fff"/><path d="M725.47,311.26c-4.05,0-7.49-1.37-10.32-4.1-2.84-2.73-4.25-6.13-4.25-10.17s1.41-7.49,4.25-10.32c2.83-2.84,6.27-4.25,10.32-4.25s7.44,1.41,10.17,4.25c2.73,2.83,4.1,6.27,4.1,10.32s-1.37,7.44-4.1,10.17c-2.73,2.73-6.12,4.1-10.17,4.1Z" fill="#fff"/><path d="M805.03,268.75c-5.87-7.69-11.39-16.7-16.55-27.03s-9.06-20.35-11.69-30.06c12.15-7.29,22.78-16.35,31.88-27.18,9.11-10.83,13.67-21.41,13.67-31.73,0-6.07-2.28-10.93-6.83-14.58-4.55-3.64-10.58-5.47-18.07-5.47h-115.7c5.06,16.6,7.59,32.7,7.59,48.28,0,24.09-5.88,43.98-17.61,59.67-11.74,15.69-27.74,24.55-47.98,26.57-3.44-7.08-5.82-15.59-7.14-25.51-1.32-9.92-1.47-19.94-.46-30.06,12.75,0,23.84-3.14,33.25-9.41,9.41-6.27,16.6-14.02,21.56-23.23,4.96-9.21,7.44-18.17,7.44-26.87s-.91-14.78-2.73-19.44h-67.72c-.61-9.11-.15-18.47,1.37-28.09,1.52-9.61,3.69-17.76,6.53-24.45h198.6c7.9,27.94,11.84,57.8,11.84,89.58,0,17.61-1.37,35.28-4.1,52.99-2.73,17.72-6.63,33.05-11.69,46.01h-5.47Z" fill="#fff"/><path d="M921.03,311.26c-4.05,0-7.49-1.37-10.32-4.1-2.84-2.73-4.25-6.13-4.25-10.17s1.41-7.49,4.25-10.32c2.83-2.84,6.27-4.25,10.32-4.25s7.44,1.41,10.17,4.25c2.73,2.83,4.1,6.27,4.1,10.32s-1.37,7.44-4.1,10.17c-2.73,2.73-6.12,4.1-10.17,4.1ZM921.03,352.86c-4.05,0-7.49-1.37-10.32-4.1-2.84-2.73-4.25-6.13-4.25-10.17s1.41-7.49,4.25-10.33c2.83-2.84,6.27-4.25,10.32-4.25s7.44,1.41,10.17,4.25c2.73,2.83,4.1,6.27,4.1,10.33s-1.37,7.44-4.1,10.17c-2.73,2.73-6.12,4.1-10.17,4.1Z" fill="#fff"/><path d="M918.91,265.71c-3.45-6.68-6.43-15.53-8.96-26.57-2.53-11.03-3.8-20.19-3.8-27.48,15.59-2.63,32.69-6.88,51.32-12.75,18.62-5.87,34.32-12.65,47.07-20.35,8.09-4.86,14.42-9.92,18.98-15.18,4.55-5.26,6.83-10.63,6.83-16.09,0-4.25-1.32-7.74-3.95-10.48-2.63-2.73-6.48-4.1-11.54-4.1h-180.99c-1.01-12.55-1.52-23.18-1.52-31.89,0-22.06,4.1-41.45,12.3-58.15,8.2-16.7,20.29-29,36.29-36.9,4.65,4.05,9.41,11.9,14.27,23.53,4.86,11.64,7.49,20.7,7.9,27.18-14.78-2.02-28.45-.96-41,3.19-12.55,4.15-21.16,10.98-25.81,20.5h185.24c8.5,21.06,12.75,42.11,12.75,63.16,0,17.21-4.81,34.16-14.42,50.86-9.62,16.7-23.18,31.43-40.69,44.18-17.51,12.75-37.61,21.86-60.28,27.33Z" fill="#fff"/><path d="M1074.99,183.72c-4.05,0-7.49-1.37-10.33-4.1-2.84-2.73-4.25-6.12-4.25-10.17s1.41-7.49,4.25-10.32c2.83-2.83,6.27-4.25,10.33-4.25s7.44,1.42,10.17,4.25c2.73,2.84,4.1,6.28,4.1,10.32s-1.37,7.19-4.1,10.02c-2.73,2.84-6.13,4.25-10.17,4.25Z" fill="#fff"/><path d="M1098.68,268.75c-5.87-7.69-11.39-16.7-16.55-27.03-5.16-10.32-9.06-20.35-11.69-30.06,13.36-7.08,24.34-15.99,32.95-26.72,8.6-10.73,12.91-21.05,12.91-30.97,0-6.48-2.08-11.64-6.23-15.49-4.15-3.84-10.48-5.77-18.98-5.77h-51.62c-.61-9.11-.15-18.47,1.37-28.09,1.52-9.61,3.69-17.76,6.53-24.45h60.73c7.9,27.94,11.84,57.8,11.84,89.58,0,17.61-1.37,35.28-4.1,52.99-2.73,17.72-6.63,33.05-11.69,46.01h-5.47Z" fill="#fff"/><path d="M1251.42,257.81c-3.85-6.88-6.79-15.44-8.81-25.66-2.03-10.22-2.73-20.19-2.12-29.91,21.66-5.06,41.45-12.3,59.37-21.71s26.88-20.09,26.88-32.04c0-4.65-1.32-8.45-3.95-11.39-2.63-2.93-6.79-4.4-12.45-4.4h-185.24c-.61-9.11-.15-18.47,1.37-28.09,1.52-9.61,3.69-17.76,6.53-24.45h183.72c8.5,21.06,12.75,42.11,12.75,63.16,0,25.92-6.79,48.89-20.35,68.93-13.57,20.04-32.8,35.23-57.7,45.55ZM1175.2,329.78c-3.64-13.16-6.38-28.5-8.2-46.01-1.82-17.51-2.73-35.88-2.73-55.12,0-22.67,1.41-45.55,4.25-68.63.61-.2,1.26-.3,1.97-.3s1.37.1,1.97.3c-.2,21.46,3.69,43.93,11.69,67.41,8,23.49,17.96,43.83,29.91,61.04-1.62,5.67-4.61,12.25-8.96,19.74-4.36,7.49-9.26,14.58-14.73,21.26l-15.18.3Z" fill="#fff"/><path d="M207.1,633.15c-5.87-7.69-11.39-16.7-16.55-27.03s-9.06-20.24-11.69-29.76c13.97-9.11,25.2-19.13,33.71-30.06,8.5-10.93,12.75-20.75,12.75-29.46,0-6.07-2.08-10.88-6.23-14.42-4.15-3.54-10.48-5.31-18.98-5.31H2.73c-.61-9.11-.15-18.47,1.37-28.09,1.52-9.61,3.69-17.77,6.53-24.45h205.89c7.9,27.94,11.84,57.8,11.84,89.58,0,17.61-1.37,35.28-4.1,52.99-2.73,17.72-6.63,33.05-11.69,46.01h-5.47ZM68.33,633.15c-8.71-9.51-14.68-20.9-17.92-34.16-3.24-13.26-3.75-27.03-1.52-41.3,2.23-14.27,6.78-27.68,13.67-40.24h3.34c0,14.38,3.04,26.68,9.11,36.9,6.07,10.22,14.88,17.46,26.42,21.71-2.63,10.73-6.68,21.31-12.15,31.73-5.47,10.43-11.44,18.88-17.92,25.36h-3.04Z" fill="#fff"/><path d="M484.35,670.81c-.41-2.84-.61-6.22-.61-10.17s.2-7.04.61-9.26h63.77c.4,2.23.61,5.31.61,9.26s-.2,7.34-.61,10.17h-63.77Z" fill="#fff"/><path d="M512.9,633.15c-5.06-12.95-8.96-28.29-11.69-46.01-2.73-17.71-4.1-35.38-4.1-52.99,0-12.55.61-24.9,1.82-37.05H233.52c-.61-9.11-.15-18.47,1.37-28.09,1.52-9.61,3.69-17.77,6.53-24.45h310.05c2.43,8.5,4.45,17.21,6.07,26.12,1.62,8.91,2.83,17.72,3.64,26.42h-30.97c-10.13,0-17.72,2.03-22.77,6.07-5.06,4.05-7.59,9.52-7.59,16.4,0,9.11,4.15,18.68,12.45,28.7,8.3,10.02,19.63,19.28,34.01,27.79-2.84,9.92-6.83,20.09-12,30.52-5.16,10.43-10.48,19.28-15.94,26.57h-5.47Z" fill="#fff"/><path d="M711.5,630.11c-35.83-7.08-64.28-21.41-85.33-42.97-21.06-21.56-31.58-48.84-31.58-81.84,0-3.64.1-6.38.3-8.2h-27.94c-.61-9.11-.15-18.47,1.37-28.09,1.52-9.61,3.69-17.77,6.53-24.45h127.85c3.44-14.17,9.31-26.67,17.61-37.5,8.3-10.83,18.52-19.18,30.67-25.05,4.66,4.05,9.41,11.9,14.27,23.53,4.86,11.64,7.49,20.7,7.9,27.18-11.34-1.62-22.17-1.31-32.49.91-10.33,2.23-18.73,6.07-25.21,11.54,10.52.81,20.04,2.38,28.54,4.71,8.5,2.33,15.79,5.42,21.86,9.26,8.09,5.27,14.12,11.59,18.07,18.98,3.95,7.39,5.92,15.54,5.92,24.45l-3.04,3.95c-4.86-2.83-14.32-5.11-28.39-6.83-14.07-1.72-30.32-2.58-48.74-2.58h-81.38c-9.52,0-16.81,2.03-21.86,6.07-5.06,4.05-7.59,9.31-7.59,15.79,0,10.33,6.63,19.49,19.89,27.48,13.26,8,29.35,14.48,48.28,19.43,18.93,4.96,37.2,8.35,54.81,10.17.61,8.91,0,18.27-1.82,28.09-1.82,9.82-4.66,18.48-8.5,25.96Z" fill="#fff"/><path d="M822.95,670.81c-.41-2.84-.61-6.22-.61-10.17s.2-7.04.61-9.26h63.77c.4,2.23.61,5.31.61,9.26s-.2,7.34-.61,10.17h-63.77Z" fill="#fff"/><path d="M809.28,632.85c-3.64-7.29-6.18-16.14-7.59-26.57-1.42-10.42-1.42-20.5,0-30.22,12.95-1.01,26.52-4.65,40.69-10.93,14.17-6.27,25.96-13.67,35.38-22.17,9.41-8.5,14.12-16.6,14.12-24.29,0-6.68-1.97-11.94-5.92-15.79-3.95-3.84-10.38-5.77-19.28-5.77h-72.58c-.61-9.11-.15-18.47,1.37-28.09,1.52-9.61,3.69-17.77,6.53-24.45h92.01c5.67,7.9,8.5,19.34,8.5,34.32,0,15.99-3.45,34.31-10.33,54.96.2,7.29,1.92,14.48,5.16,21.56,3.24,7.09,7.9,13.97,13.97,20.65,0,10.93-.56,21.41-1.67,31.43-1.12,10.02-2.48,17.76-4.1,23.23h-8.5c-7.09-5.67-13.57-12.6-19.43-20.8-5.87-8.2-10.02-16.14-12.45-23.84h-1.52c-6.28,11.54-13.92,21.61-22.93,30.21-9.01,8.61-17.67,14.12-25.96,16.55h-5.47Z" fill="#fff"/></svg>