<?xml version="1.0" encoding="UTF-8"?><svg id="Layer_1" xmlns="http://www.w3.org/2000/svg" xmlns:xlink="http://www.w3.org/1999/xlink" viewBox="0 0 1139.16 456.58"><defs><symbol id="_לוגו_עדכני" viewBox="0 0 142.04 41.89"><path d="M81.62,28.75c6.05-6.05,7.83-9.3,7.83-14.4v-2.4h-12.51V0h5.36v6.25h10.21c1.28,0,2.29,1.1,2.29,2.5v5.2c0,7.15-3.11,12.65-9.48,18.4h-3.71v-3.6h0Z" fill="#686868"/><path d="M117.82,6.25v2c-.05,2.25-.09,4.8-.23,7.05-.73,11.9-4.67,16.3-15.94,17.9l-1.79.25h-1.97v-5.6c1.05-.05,2.11-.15,3.53-.4l1.69-.3-3.25-18.85v-2.05h5.13l3.25,19.15c2.75-1.6,3.71-4.2,3.99-9.1.18-3.1.27-7,.32-10.05h5.27Z" fill="#686868"/><path d="M142.03,26.65v5.7h-20.16v-5.7h11.96v-14.7h-10.99v-5.7h13.47c1.65,0,2.84,1.35,2.84,3.1v17.3h2.89,0Z" fill="#686868"/><path d="M12.92,11.92H0v-5.7h15.44c1.6,0,2.84,1.35,2.84,3.1v23h-5.36s0-20.4,0-20.4ZM.27,18.52h5.31v13.8H.27v-13.8Z" fill="#686868"/><path d="M42.52,32.32h-19.47v-5.65h13.97l-.46-12c-.05-1.6-1.1-2.75-2.52-2.75h-4.03l-.6,4.2c-.05.25.09.5.32.65l2.43,1.35v4.1h-3.89l-3.16-1.75c-.92-.5-1.24-1.5-1.1-2.6l1.6-11.65h10.21c3.48,0,5.82,2.75,5.96,6.55l.73,19.55h.01Z" fill="#686868"/><circle cx="32.99" cy="15.43" r="1.18" fill="#686868"/><circle cx="31.89" cy="37.95" r="1.18" fill="#686868"/><circle cx="35.21" cy="37.95" r="1.18" fill="#686868"/><circle cx="33.47" cy="40.71" r="1.18" fill="#686868"/><circle cx="128.21" cy="19.45" r="1.18" fill="#686868"/><circle cx="132.56" cy="37.24" r="1.18" fill="#686868"/><circle cx="132.56" cy="40.71" r="1.18" fill="#686868"/><path d="M72.46,11.92v-5.7h-25.15v5.7h3.05c-.65,2.65-1.05,5.75-1.05,8.85,0,2,.2,4,.5,5.9h-3.05v5.65h9.4v-4.15c-.7-2.8-1-5.55-1-8,0-3.15.45-5.8,1.1-8.25,0,0,16.2,0,16.2,0Z" fill="#686868"/><path d="M85.88,1.38h7.29" fill="#686868" stroke="#fff" stroke-miterlimit="10" stroke-width="2.4"/><path d="M126.75,1.38h7.29" fill="#686868" stroke="#fff" stroke-miterlimit="10" stroke-width="2.4"/><path d="M104.35,36.05h7.29" fill="#686868" stroke="#fff" stroke-miterlimit="10" stroke-width="2.4"/></symbol><clipPath id="clippath"><rect width="1139.08" height="456.58" fill="none"/></clipPath></defs><g clip-path="url(#clippath)"><use width="142.04" height="41.89" transform="translate(0 0) scale(8.02)" xlink:href="#_לוגו_עדכני"/></g></svg>