<?xml version="1.0" encoding="UTF-8"?>
<svg id="Layer_1" xmlns="http://www.w3.org/2000/svg" version="1.1" xmlns:xlink="http://www.w3.org/1999/xlink" viewBox="0 0 1139.2 456.6">
  <!-- Generator: Adobe Illustrator 29.1.0, SVG Export Plug-In . SVG Version: 2.1.0 Build 142)  -->
  <defs>
    <style>
      .st0 {
        stroke: #686868;
        stroke-miterlimit: 10;
        stroke-width: 2px;
      }

      .st0, .st1 {
        fill: #686868;
      }

      .st2 {
        fill: none;
      }

      .st3 {
        clip-path: url(#clippath);
      }
    </style>
    <symbol id="_לוגו_עדכני" viewBox="0 0 142 41.9">
      <g>
        <path class="st1" d="M81.6,28.7c6.1-6.1,7.8-9.3,7.8-14.4v-2.4h-12.5V0h5.4v6.2h10.2c1.3,0,2.3,1.1,2.3,2.5v5.2c0,7.1-3.1,12.6-9.5,18.4h-3.7v-3.6h0Z"/>
        <path class="st1" d="M117.8,6.2v2c0,2.2,0,4.8-.2,7-.7,11.9-4.7,16.3-15.9,17.9l-1.8.2h-2v-5.6c1.1,0,2.1-.1,3.5-.4l1.7-.3-3.2-18.8v-2h5.1l3.2,19.1c2.8-1.6,3.7-4.2,4-9.1.2-3.1.3-7,.3-10h5.3Z"/>
        <path class="st1" d="M142,26.6v5.7h-20.2v-5.7h12v-14.7h-11v-5.7h13.5c1.6,0,2.8,1.3,2.8,3.1v17.3h2.9,0Z"/>
        <path class="st1" d="M12.9,11.9H0v-5.7h15.4c1.6,0,2.8,1.3,2.8,3.1v23h-5.4s0-20.4,0-20.4ZM.3,18.5h5.3v13.8H.3v-13.8Z"/>
        <path class="st1" d="M42.5,32.3h-19.5v-5.6h14l-.5-12c0-1.6-1.1-2.8-2.5-2.8h-4l-.6,4.2c0,.2,0,.5.3.6l2.4,1.4v4.1h-3.9l-3.2-1.8c-.9-.5-1.2-1.5-1.1-2.6l1.6-11.6h10.2c3.5,0,5.8,2.8,6,6.5l.7,19.5h0Z"/>
        <circle class="st1" cx="33" cy="15.4" r="1.2"/>
        <circle class="st1" cx="31.9" cy="37.9" r="1.2"/>
        <circle class="st1" cx="35.2" cy="37.9" r="1.2"/>
        <circle class="st1" cx="33.5" cy="40.7" r="1.2"/>
        <circle class="st1" cx="128.2" cy="19.4" r="1.2"/>
        <circle class="st1" cx="132.6" cy="37.2" r="1.2"/>
        <circle class="st1" cx="132.6" cy="40.7" r="1.2"/>
        <path class="st1" d="M72.5,11.9v-5.7h-25.2v5.7h3c-.7,2.6-1,5.8-1,8.9s.2,4,.5,5.9h-3v5.6h9.4v-4.1c-.7-2.8-1-5.5-1-8s.5-5.8,1.1-8.2c0,0,16.2,0,16.2,0Z"/>
        <path class="st0" d="M85.9,1.4h7.3"/>
        <path class="st0" d="M126.8,1.4h7.3"/>
        <path class="st0" d="M104.3,36h7.3"/>
      </g>
    </symbol>
    <clipPath id="clippath">
      <rect class="st2" width="1139.1" height="456.6"/>
    </clipPath>
  </defs>
  <g class="st3">
    <use width="142" height="41.9" transform="translate(0 0) scale(8)" xlink:href="#_לוגו_עדכני"/>
  </g>
</svg>