<?xml version="1.0" encoding="UTF-8"?><svg id="Layer_1" xmlns="http://www.w3.org/2000/svg" xmlns:xlink="http://www.w3.org/1999/xlink" viewBox="0 0 1138.66 456.4"><defs><symbol id="_לוגו_עדכני" viewBox="0 0 142.03 56.93"><path d="M41.94,52.44c.19-.29.44-.64.44-1.26v-.28h-1.41v-.69h2.02c.04.19.05.37.05.62,0,1.06-.28,1.66-.71,2.11h-.38v-.49Z"/><path d="M46.83,51.37c0-.27-.18-.46-.42-.46h-1.64v-.7h1.88c.48,0,.84.39.84.93v3.44h-.67v-3.2Z"/><path d="M50.35,50.91h-1.13v-.7h1.79v4.36h-.66v-3.66Z"/><path d="M54.87,50.91h-1.93v-.7h3.06v.7h-.47v3.66h-.66v-3.66Z"/><path d="M62.96,50.9h-1.1v-.69h1.75v5.23h-.66v-4.54Z"/><path d="M65.34,53.87h2.08v-2.96h-1.91v-.7h2.19c.22,0,.38.18.38.42v3.24h.44v.7h-3.18v-.7Z"/><path d="M76.58,54.29v.28h-.61l-.34-1.28-1.39,1.28h-.47v-.47l1.67-1.55-.43-1.65h-.7v-.7h1.19l1.07,4.09Z"/><path d="M79.31,50.91h-1.13v-.7h1.79v4.36h-.66v-3.66Z"/><path d="M82.88,53.97c1.01-1.01,1.31-1.56,1.31-2.41v-.65h-2.21v-1.75h.67v1.05h1.82c.21,0,.38.18.38.42v.87c0,1.2-.52,2.12-1.59,3.08h-.39v-.6Z"/><path d="M88.06,52.58l.87,1.5v.49h-.51l-1.32-2.25c-.26.3-.38.7-.38,1.3v.94h-.66v-.78c0-.97.23-1.58.74-1.98l-.64-1.1v-.5h.5l1.11,1.9c.47-.26.6-.5.6-1.09v-.81h.66v.54c0,1.03-.21,1.45-.98,1.84Z"/><path d="M91.59,52.44c.19-.29.44-.64.44-1.26v-.28h-1.41v-.69h2.02c.04.19.05.37.05.62,0,1.06-.28,1.66-.71,2.11h-.38v-.49Z"/><path d="M96.24,50.91h-1.93v-.7h3.06v.7h-.47v3.66h-.66v-3.66Z"/><path d="M81.62,28.75c6.05-6.05,7.83-9.3,7.83-14.4v-2.4h-12.51V0h5.36v6.25h10.21c1.28,0,2.29,1.1,2.29,2.5v5.2c0,7.15-3.11,12.65-9.48,18.4h-3.71v-3.6Z"/><path d="M117.82,6.25v2c-.05,2.25-.09,4.8-.23,7.05-.73,11.9-4.67,16.3-15.94,17.9l-1.79.25h-1.97v-5.6c1.05-.05,2.11-.15,3.53-.4l1.69-.3-3.25-18.85v-2.05h5.13l3.25,19.15c2.75-1.6,3.71-4.2,3.99-9.1.18-3.1.27-7,.32-10.05h5.27Z"/><path d="M142.03,26.65v5.7h-20.16v-5.7h11.96v-14.7h-10.99v-5.7h13.47c1.65,0,2.84,1.35,2.84,3.1v17.3h2.89Z"/><path d="M12.92,11.92H0v-5.7h15.44c1.6,0,2.84,1.35,2.84,3.1v23h-5.36V11.92ZM.27,18.52h5.31v13.8H.27v-13.8Z"/><path d="M42.52,32.32h-19.47v-5.65h13.97l-.46-12c-.05-1.6-1.1-2.75-2.52-2.75h-4.03l-.6,4.2c-.05.25.09.5.32.65l2.43,1.35v4.1h-3.89l-3.16-1.75c-.92-.5-1.24-1.5-1.1-2.6l1.6-11.65h10.21c3.48,0,5.82,2.75,5.96,6.55l.73,19.55Z"/><circle cx="32.99" cy="15.43" r="1.18"/><circle cx="31.89" cy="37.95" r="1.18"/><circle cx="35.21" cy="37.95" r="1.18"/><circle cx="33.47" cy="40.71" r="1.18"/><circle cx="128.21" cy="19.45" r="1.18"/><circle cx="132.56" cy="37.24" r="1.18"/><circle cx="132.56" cy="40.71" r="1.18"/><path d="M72.46,11.92v-5.7h-25.15v5.7h3.05c-.65,2.65-1.05,5.75-1.05,8.85,0,2,.2,4,.5,5.9h-3.05v5.65h9.4v-4.15c-.7-2.8-1-5.55-1-8,0-3.15.45-5.8,1.1-8.25h16.2Z"/><path d="M85.88,1.38h7.29" fill="none" stroke="#000" stroke-miterlimit="10" stroke-width="2.4"/><path d="M126.75,1.38h7.29" fill="none" stroke="#000" stroke-miterlimit="10" stroke-width="2.4"/><path d="M104.35,36.05h7.29" fill="none" stroke="#000" stroke-miterlimit="10" stroke-width="2.4"/></symbol></defs><use width="142.03" height="56.93" transform="scale(8.02)" xlink:href="#_לוגו_עדכני"/></svg>