<?xml version="1.0" encoding="UTF-8"?><svg id="Layer_1" xmlns="http://www.w3.org/2000/svg" viewBox="0 0 1511.52 4719.34"><rect x="43.78" y="0" width="1459.8" height="4719.34" fill="none"/><path d="M174.53,198.59c-26.78-5.29-48.04-16-63.77-32.11-15.74-16.11-23.6-36.5-23.6-61.16,0-2.72.07-4.77.23-6.13h-34.5c-.45-6.81-.11-13.81,1.02-20.99,1.13-7.19,2.76-13.28,4.88-18.27h523.13c2.12-11.5,6.39-21.67,12.82-30.53,6.43-8.85,14.41-15.55,23.94-20.09,3.48,3.03,7.04,8.89,10.67,17.59,3.63,8.7,5.6,15.47,5.9,20.31-9.68-1.36-18.72-.91-27.12,1.36s-14.87,6.05-19.4,11.35c8.77.45,16.57,1.29,23.38,2.5,6.81,1.21,12.63,2.95,17.48,5.22,8.17,3.78,14.26,8.74,18.27,14.87,4.01,6.13,6.01,13.05,6.01,20.77l-2.27,2.95c-3.63-2.12-10.71-3.82-21.22-5.11-10.52-1.28-22.66-1.93-36.43-1.93H112.34c-7.11,0-12.56,1.51-16.34,4.54-3.78,3.03-5.67,6.96-5.67,11.8,0,7.72,4.95,14.56,14.87,20.54,9.91,5.98,21.94,10.82,36.09,14.53,14.15,3.71,27.8,6.24,40.97,7.6.45,6.66,0,13.66-1.36,20.99-1.36,7.34-3.48,13.81-6.35,19.4Z" fill="#fff"/><path d="M671.11,229c-.31-2.12-.45-4.65-.45-7.6s.15-5.26.45-6.92h47.66c.3,1.66.45,3.97.45,6.92s-.15,5.48-.45,7.6h-47.66Z" fill="#fff"/><path d="M696.75,149.34c5.6-5.14,10.1-10.93,13.5-17.36,3.4-6.43,5.11-12.37,5.11-17.82,0-4.54-1.33-8.17-3.97-10.89-2.65-2.72-6.77-4.09-12.37-4.09h-41.99c-.45-6.81-.11-13.81,1.02-20.99,1.13-7.19,2.76-13.28,4.88-18.27h56.29c4.84,8.62,7.26,18.61,7.26,29.96s-2.57,23.04-7.72,34.16c-5.15,11.12-12.11,20.16-20.88,27.12l-1.13-1.82Z" fill="#fff"/><path d="M889.21,198.59c-26.78-5.29-48.04-16-63.77-32.11-15.74-16.11-23.6-36.5-23.6-61.16,0-2.72.08-4.77.23-6.13h-24.74c-.45-6.81-.11-13.81,1.02-20.99,1.13-7.19,2.76-13.28,4.88-18.27h216.52c2.57-10.89,6.96-20.5,13.16-28.82,6.2-8.32,13.92-14.67,23.15-19.06,3.48,3.03,7.04,8.89,10.67,17.59,3.63,8.7,5.6,15.47,5.9,20.31-8.78-1.36-17.1-1.1-24.96.79-7.87,1.89-14.22,5.11-19.06,9.65,8.02.45,15.28,1.48,21.79,3.06,6.5,1.59,12.1,3.74,16.79,6.47,6.66,3.94,11.61,8.74,14.87,14.41,3.25,5.67,4.88,11.99,4.88,18.95l-2.27,2.95c-3.63-2.12-10.71-3.82-21.22-5.11-10.52-1.28-22.66-1.93-36.43-1.93h-179.98c-7.11,0-12.56,1.51-16.34,4.54-3.78,3.03-5.67,6.96-5.67,11.8,0,7.72,4.95,14.56,14.87,20.54,9.91,5.98,21.94,10.82,36.09,14.53,14.15,3.71,27.8,6.24,40.97,7.6.45,6.66,0,13.66-1.36,20.99-1.36,7.34-3.48,13.81-6.36,19.4Z" fill="#fff"/><path d="M1238.05,229c-.3-2.12-.45-4.65-.45-7.6s.15-5.26.45-6.92h47.66c.3,1.66.45,3.97.45,6.92s-.15,5.48-.45,7.6h-47.66Z" fill="#fff"/><path d="M1264.15,136.63c-3.03,0-5.6-1.02-7.72-3.06-2.12-2.04-3.18-4.57-3.18-7.6s1.06-5.6,3.18-7.72c2.12-2.12,4.69-3.18,7.72-3.18s5.56,1.06,7.6,3.18c2.04,2.12,3.06,4.69,3.06,7.72s-1.02,5.37-3.06,7.49c-2.04,2.12-4.58,3.18-7.6,3.18Z" fill="#fff"/><path d="M1260.29,198.59c-2.57-4.99-4.8-11.61-6.7-19.86-1.89-8.25-2.84-15.09-2.84-20.54,11.65-1.96,24.43-5.14,38.36-9.53,13.92-4.39,25.65-9.45,35.18-15.21,6.05-3.63,10.78-7.41,14.18-11.35,3.4-3.93,5.11-7.94,5.11-12.03,0-3.18-.99-5.79-2.95-7.83-1.97-2.04-4.84-3.06-8.62-3.06h-260.55c-.76-9.38-1.13-17.32-1.13-23.83,0-16.79,2.99-31.39,8.96-43.8,5.98-12.4,15.01-21.86,27.12-28.37,3.48,3.03,7.04,8.89,10.67,17.59,3.63,8.7,5.6,15.47,5.9,20.31-11.2-1.36-21.41-.38-30.64,2.95-9.23,3.33-15.58,8.62-19.06,15.89h263.72c6.36,15.74,9.53,31.47,9.53,47.21,0,12.86-3.6,25.53-10.78,38.02-7.19,12.48-17.33,23.49-30.41,33.02-13.09,9.53-28.11,16.34-45.05,20.43Z" fill="#fff"/><path d="M1436.86,232.63c-3.03,0-5.6-1.02-7.72-3.06-2.12-2.04-3.18-4.58-3.18-7.6s1.06-5.6,3.18-7.72c2.12-2.12,4.69-3.18,7.72-3.18s5.56,1.06,7.6,3.18c2.04,2.12,3.06,4.69,3.06,7.72s-1.02,5.56-3.06,7.6c-2.04,2.04-4.58,3.06-7.6,3.06Z" fill="#fff"/><path d="M1420.97,134.81c-3.03,0-5.6-1.02-7.72-3.06-2.12-2.04-3.18-4.57-3.18-7.6s1.06-5.6,3.18-7.72c2.12-2.12,4.69-3.18,7.72-3.18s5.56,1.06,7.6,3.18c2.04,2.12,3.06,4.69,3.06,7.72s-1.02,5.37-3.06,7.49c-2.04,2.12-4.58,3.18-7.6,3.18Z" fill="#fff"/><path d="M1367.18,198.59c-2.42-4.69-4.24-10.82-5.45-18.38-1.21-7.56-1.51-14.9-.91-22.01h1.13c15.28,0,32.79-2.04,52.54-6.13,19.75-4.09,36.65-9.65,50.73-16.68,14.07-7.04,21.11-14.64,21.11-22.81,0-4.54-2.04-7.9-6.13-10.1-4.08-2.19-9.91-3.29-17.48-3.29h-112.34c-.61-6.66-.34-13.58.79-20.77,1.13-7.18,2.68-13.35,4.65-18.5h136.17c5.29,8.78,7.79,18.69,7.49,29.73-.3,11.05-4.24,21.41-11.8,31.09l17.48,3.86c.76,2.88,1.28,6.47,1.59,10.78.3,4.31.3,8.21,0,11.69-8.17,11.05-19.78,20.43-34.84,28.14-15.06,7.72-31.62,13.54-49.7,17.48-18.08,3.94-35.97,5.9-53.67,5.9h-1.36Z" fill="#fff"/><path d="M79.89,409.65c-3.03,0-5.6-1.02-7.72-3.06-2.12-2.04-3.18-4.57-3.18-7.6s1.06-5.6,3.18-7.72c2.12-2.12,4.69-3.18,7.72-3.18s5.56,1.06,7.6,3.18c2.04,2.12,3.06,4.69,3.06,7.72s-1.02,5.37-3.06,7.49c-2.04,2.12-4.58,3.18-7.6,3.18Z" fill="#fff"/><path d="M97.59,473.2c-4.39-5.75-8.51-12.48-12.37-20.2-3.86-7.72-6.77-15.21-8.74-22.47,9.99-5.29,18.19-11.95,24.62-19.97,6.43-8.02,9.65-15.73,9.65-23.15,0-4.84-1.55-8.7-4.65-11.57-3.1-2.87-7.83-4.31-14.19-4.31h-38.58c-.45-6.81-.11-13.81,1.02-20.99,1.13-7.19,2.76-13.28,4.88-18.27h45.39c5.9,20.88,8.85,43.2,8.85,66.95,0,13.16-1.02,26.37-3.06,39.6-2.04,13.24-4.96,24.7-8.74,34.38h-4.09Z" fill="#fff"/><path d="M187.92,407.16c-3.03,0-5.6-1.02-7.72-3.06-2.12-2.04-3.18-4.57-3.18-7.6s1.06-5.6,3.18-7.72c2.12-2.12,4.69-3.18,7.72-3.18s5.56,1.06,7.6,3.18c2.04,2.12,3.06,4.69,3.06,7.72s-1.02,5.37-3.06,7.49c-2.04,2.12-4.58,3.18-7.6,3.18Z" fill="#fff"/><path d="M134.13,470.93c-2.42-4.69-4.24-10.82-5.45-18.38-1.21-7.56-1.51-14.9-.91-22.01h1.13c15.28,0,32.8-2.04,52.54-6.13,19.75-4.09,36.65-9.65,50.72-16.68s21.11-14.64,21.11-22.81c0-4.54-2.04-7.9-6.13-10.1-4.08-2.19-9.91-3.29-17.48-3.29h-112.34c-.61-6.66-.34-13.58.79-20.77,1.13-7.18,2.68-13.35,4.65-18.5h136.17c5.29,8.78,7.79,18.69,7.49,29.73-.31,11.05-4.24,21.41-11.8,31.09l17.48,3.86c.76,2.88,1.28,6.47,1.59,10.78.3,4.31.3,8.21,0,11.69-8.17,11.05-19.78,20.43-34.84,28.14-15.06,7.72-31.62,13.54-49.7,17.48-18.08,3.94-35.97,5.9-53.67,5.9h-1.36Z" fill="#fff"/><path d="M408.75,501.34c-.31-2.12-.45-4.65-.45-7.6s.15-5.26.45-6.92h47.66c.3,1.66.45,3.97.45,6.92s-.15,5.48-.45,7.6h-47.66Z" fill="#fff"/><path d="M384.46,470.93c-26.78-5.29-48.04-16-63.77-32.11-15.74-16.11-23.6-36.5-23.6-61.16,0-2.72.07-4.77.23-6.13h-24.74c-.45-6.81-.11-13.81,1.02-20.99,1.13-7.19,2.76-13.28,4.88-18.27h216.52c2.57-10.89,6.96-20.5,13.16-28.82,6.2-8.32,13.92-14.67,23.15-19.06,3.48,3.03,7.04,8.89,10.67,17.59,3.63,8.7,5.6,15.47,5.9,20.31-8.78-1.36-17.1-1.1-24.97.79-7.87,1.89-14.22,5.11-19.06,9.65,8.02.45,15.28,1.48,21.79,3.06,6.5,1.59,12.1,3.74,16.79,6.47,6.66,3.94,11.61,8.74,14.87,14.41,3.25,5.67,4.88,11.99,4.88,18.95l-2.27,2.95c-3.63-2.12-10.71-3.82-21.22-5.11-10.52-1.28-22.66-1.93-36.43-1.93h-179.98c-7.11,0-12.56,1.51-16.34,4.54-3.78,3.03-5.67,6.96-5.67,11.8,0,7.72,4.95,14.56,14.87,20.54,9.91,5.98,21.94,10.82,36.09,14.53,14.15,3.71,27.8,6.24,40.97,7.6.45,6.66,0,13.66-1.36,20.99-1.36,7.34-3.48,13.81-6.35,19.4Z" fill="#fff"/><path d="M933.7,501.34c-.3-2.12-.45-4.65-.45-7.6s.15-5.26.45-6.92h47.66c.3,1.66.45,3.97.45,6.92s-.15,5.48-.45,7.6h-47.66Z" fill="#fff"/><path d="M962.52,410.79c-3.03,0-5.6-1.02-7.72-3.06-2.12-2.04-3.18-4.57-3.18-7.6s1.06-5.6,3.18-7.72c2.12-2.12,4.69-3.18,7.72-3.18s5.56,1.06,7.6,3.18c2.04,2.12,3.06,4.69,3.06,7.72s-1.02,5.37-3.06,7.49c-2.04,2.12-4.58,3.18-7.6,3.18Z" fill="#fff"/><path d="M1259.61,473.2c-4.39-5.75-8.51-12.48-12.37-20.2-3.86-7.72-6.77-15.21-8.74-22.47,9.08-5.45,17.02-12.22,23.83-20.31,6.81-8.09,10.21-16,10.21-23.72,0-4.54-1.7-8.17-5.11-10.89-3.4-2.72-7.91-4.09-13.5-4.09h-588.04c3.78,12.41,5.67,24.44,5.67,36.09,0,18.01-4.39,32.87-13.16,44.6-8.78,11.73-20.73,18.34-35.86,19.86-2.57-5.29-4.35-11.65-5.33-19.06-.99-7.41-1.1-14.9-.34-22.47,9.53,0,17.82-2.34,24.85-7.04,7.04-4.69,12.4-10.48,16.11-17.36,3.71-6.88,5.56-13.58,5.56-20.09s-.68-11.04-2.04-14.53h-50.61c-.45-6.81-.11-13.81,1.02-20.99,1.13-7.19,2.76-13.28,4.88-18.27h650c5.9,20.88,8.85,43.2,8.85,66.95,0,13.16-1.02,26.37-3.06,39.6-2.04,13.24-4.96,24.7-8.74,34.38h-4.08Z" fill="#fff"/><path d="M1313.62,504.98c-3.03,0-5.6-1.02-7.72-3.06-2.12-2.04-3.18-4.58-3.18-7.6s1.06-5.6,3.18-7.72c2.12-2.12,4.69-3.18,7.72-3.18s5.56,1.06,7.6,3.18c2.04,2.12,3.06,4.69,3.06,7.72s-1.02,5.56-3.06,7.6c-2.04,2.04-4.58,3.06-7.6,3.06ZM1313.62,536.07c-3.03,0-5.6-1.02-7.72-3.06-2.12-2.04-3.18-4.58-3.18-7.6s1.06-5.6,3.18-7.72c2.12-2.12,4.69-3.18,7.72-3.18s5.56,1.06,7.6,3.18c2.04,2.12,3.06,4.69,3.06,7.72s-1.02,5.56-3.06,7.6-4.58,3.06-7.6,3.06Z" fill="#fff"/><path d="M1297.51,471.39c-2.57-5.14-4.58-11.23-6.01-18.27-1.44-7.04-2.16-14.56-2.16-22.58,10.59,0,20.01-1.96,28.26-5.9,8.24-3.93,14.64-9.11,19.18-15.55,4.54-6.43,6.81-13.28,6.81-20.54,0-6.2-2.04-11.88-6.13-17.02h-57.65c-.45-6.81-.11-13.81,1.02-20.99,1.13-7.19,2.76-13.28,4.88-18.27h51.52c6.2,17.7,9.3,35.26,9.3,52.65,0,24.21-3.75,43.88-11.23,59.01-7.49,15.13-20.09,24.28-37.79,27.46Z" fill="#fff"/><path d="M1436.86,504.98c-3.03,0-5.6-1.02-7.72-3.06-2.12-2.04-3.18-4.58-3.18-7.6s1.06-5.6,3.18-7.72c2.12-2.12,4.69-3.18,7.72-3.18s5.56,1.06,7.6,3.18c2.04,2.12,3.06,4.69,3.06,7.72s-1.02,5.56-3.06,7.6c-2.04,2.04-4.58,3.06-7.6,3.06Z" fill="#fff"/><path d="M1420.97,407.16c-3.03,0-5.6-1.02-7.72-3.06-2.12-2.04-3.18-4.57-3.18-7.6s1.06-5.6,3.18-7.72c2.12-2.12,4.69-3.18,7.72-3.18s5.56,1.06,7.6,3.18c2.04,2.12,3.06,4.69,3.06,7.72s-1.02,5.37-3.06,7.49c-2.04,2.12-4.58,3.18-7.6,3.18Z" fill="#fff"/><path d="M1367.18,470.93c-2.42-4.69-4.24-10.82-5.45-18.38-1.21-7.56-1.51-14.9-.91-22.01h1.13c15.28,0,32.79-2.04,52.54-6.13,19.75-4.09,36.65-9.65,50.73-16.68,14.07-7.04,21.11-14.64,21.11-22.81,0-4.54-2.04-7.9-6.13-10.1-4.08-2.19-9.91-3.29-17.48-3.29h-112.34c-.61-6.66-.34-13.58.79-20.77,1.13-7.18,2.68-13.35,4.65-18.5h136.17c5.29,8.78,7.79,18.69,7.49,29.73-.3,11.05-4.24,21.41-11.8,31.09l17.48,3.86c.76,2.88,1.28,6.47,1.59,10.78.3,4.31.3,8.21,0,11.69-8.17,11.05-19.78,20.43-34.84,28.14-15.06,7.72-31.62,13.54-49.7,17.48-18.08,3.94-35.97,5.9-53.67,5.9h-1.36Z" fill="#fff"/><path d="M164.32,743.28c-26.78-5.29-48.04-16-63.77-32.11-15.74-16.11-23.6-36.5-23.6-61.17,0-2.72.07-4.77.23-6.13h-28.14c-.45-6.81-.11-13.81,1.02-20.99,1.13-7.18,2.76-13.28,4.88-18.27h321.37c2.42-11.04,6.77-20.8,13.05-29.28,6.28-8.47,14.11-14.98,23.49-19.52,3.48,3.03,7.04,8.89,10.67,17.59,3.63,8.7,5.6,15.47,5.9,20.31-9.08-1.36-17.67-1.02-25.76,1.02-8.1,2.04-14.49,5.49-19.18,10.33,8.47.3,15.96,1.21,22.47,2.72,6.5,1.51,12.1,3.56,16.79,6.13,7.26,3.78,12.63,8.59,16.11,14.41,3.48,5.83,5.22,12.37,5.22,19.63l-2.27,2.95c-3.63-2.12-10.71-3.82-21.22-5.11-10.52-1.28-22.66-1.93-36.43-1.93H102.13c-7.11,0-12.56,1.51-16.34,4.54-3.78,3.03-5.67,6.96-5.67,11.8,0,7.72,4.95,14.56,14.87,20.54,9.91,5.98,21.94,10.82,36.09,14.53,14.15,3.71,27.8,6.24,40.97,7.6.45,6.66,0,13.66-1.36,20.99-1.36,7.34-3.48,13.81-6.35,19.4Z" fill="#fff"/><path d="M479.1,791.85l1.13-17.93h-18.38c-.31-2.12-.45-4.65-.45-7.6s.15-5.26.45-6.92h47.66c.3,1.66.45,3.97.45,6.92s-.15,5.48-.45,7.6h-17.48l.91,17.93c-1.82.76-4.05,1.13-6.7,1.13s-5.03-.38-7.15-1.13Z" fill="#fff"/><path d="M487.96,694.03c5.6-5.14,10.1-10.93,13.5-17.36,3.4-6.43,5.11-12.37,5.11-17.82,0-4.54-1.33-8.17-3.97-10.89-2.65-2.72-6.77-4.08-12.37-4.08h-41.99c-.45-6.81-.11-13.81,1.02-20.99,1.13-7.18,2.76-13.28,4.88-18.27h56.29c4.84,8.62,7.26,18.61,7.26,29.96s-2.57,23.04-7.72,34.16c-5.15,11.12-12.11,20.16-20.88,27.12l-1.13-1.82Z" fill="#fff"/><path d="M1001.33,777.32c-3.03,0-5.6-1.02-7.72-3.06-2.12-2.04-3.18-4.58-3.18-7.6s1.06-5.6,3.18-7.72c2.12-2.12,4.69-3.18,7.72-3.18s5.56,1.06,7.6,3.18c2.04,2.12,3.06,4.69,3.06,7.72s-1.02,5.56-3.06,7.6c-2.04,2.04-4.58,3.06-7.6,3.06ZM1001.33,808.42c-3.03,0-5.6-1.02-7.72-3.06-2.12-2.04-3.18-4.58-3.18-7.6s1.06-5.6,3.18-7.72c2.12-2.12,4.69-3.18,7.72-3.18s5.56,1.06,7.6,3.18c2.04,2.12,3.06,4.69,3.06,7.72s-1.02,5.56-3.06,7.6-4.58,3.06-7.6,3.06Z" fill="#fff"/><path d="M560.13,745.55c-3.78-9.68-6.7-21.14-8.74-34.38-2.04-13.24-3.06-26.44-3.06-39.6,0-9.38.45-18.61,1.36-27.69h-27.01c-.45-6.81-.11-13.81,1.02-20.99,1.13-7.18,2.76-13.28,4.88-18.27h888.99c5.9,20.88,8.85,43.2,8.85,66.95,0,13.16-1.02,26.37-3.06,39.6-2.04,13.24-4.96,24.7-8.74,34.38h-4.08c-4.39-5.75-8.51-12.48-12.37-20.2-3.86-7.72-6.77-15.21-8.74-22.47,10.13-4.99,18.46-11.54,24.96-19.63,6.5-8.09,9.76-15.85,9.76-23.26,0-4.84-1.55-8.74-4.65-11.69-3.1-2.95-7.83-4.42-14.19-4.42h-835.88c-6.35,0-11.05,1.44-14.07,4.31-3.03,2.88-4.54,6.81-4.54,11.8,0,7.57,3.29,15.43,9.87,23.6,6.58,8.17,14.79,14.6,24.62,19.29-1.97,7.26-4.88,14.75-8.74,22.47s-7.98,14.45-12.37,20.2h-4.08Z" fill="#fff"/><path d="M1444.8,773.69c-.3-2.12-.45-4.65-.45-7.6s.15-5.26.45-6.92h47.66c.3,1.66.45,3.97.45,6.92s-.15,5.48-.45,7.6h-47.66Z" fill="#fff"/><path d="M1470.45,694.03c5.6-5.14,10.1-10.93,13.5-17.36,3.4-6.43,5.11-12.37,5.11-17.82,0-4.54-1.33-8.17-3.97-10.89-2.65-2.72-6.77-4.08-12.37-4.08h-41.99c-.45-6.81-.11-13.81,1.02-20.99,1.13-7.18,2.76-13.28,4.88-18.27h56.29c4.84,8.62,7.26,18.61,7.26,29.96s-2.57,23.04-7.72,34.16c-5.15,11.12-12.11,20.16-20.88,27.12l-1.13-1.82Z" fill="#fff"/><path d="M278.7,1015.63c-2.57-4.99-4.81-11.61-6.7-19.86-1.89-8.25-2.84-15.09-2.84-20.54,11.65-1.96,24.43-5.14,38.36-9.53,13.92-4.39,25.65-9.45,35.18-15.21,6.05-3.63,10.78-7.41,14.19-11.35,3.4-3.93,5.11-7.94,5.11-12.03,0-3.18-.99-5.79-2.95-7.83-1.97-2.04-4.84-3.06-8.62-3.06H56.29c-.76-9.38-1.13-17.32-1.13-23.83,0-16.79,2.99-31.43,8.96-43.92,5.98-12.48,14.94-21.98,26.89-28.48,3.48,3.03,7.04,8.89,10.67,17.59,3.63,8.7,5.6,15.47,5.9,20.31-11.05-1.21-21.19-.15-30.41,3.18-9.23,3.33-15.59,8.62-19.06,15.89h297.31c6.35,15.74,9.53,31.47,9.53,47.21,0,12.86-3.63,25.53-10.89,38.01-7.26,12.48-17.44,23.49-30.53,33.02-13.09,9.53-28.03,16.34-44.82,20.43Z" fill="#fff"/><path d="M504.98,1046.04c-.31-2.12-.45-4.65-.45-7.6s.15-5.26.45-6.92h47.66c.3,1.66.45,3.97.45,6.92s-.15,5.48-.45,7.6h-47.66Z" fill="#fff"/><path d="M480.69,1015.63c-26.78-5.29-48.04-16-63.77-32.11-15.74-16.11-23.6-36.5-23.6-61.17,0-2.72.07-4.77.23-6.13h-24.74c-.45-6.81-.11-13.81,1.02-20.99,1.13-7.18,2.76-13.28,4.88-18.27h216.52c2.57-10.89,6.96-20.5,13.16-28.82,6.2-8.32,13.92-14.67,23.15-19.06,3.48,3.03,7.04,8.89,10.67,17.59,3.63,8.7,5.6,15.47,5.9,20.31-8.78-1.36-17.1-1.1-24.97.79-7.87,1.89-14.22,5.11-19.06,9.65,8.02.45,15.28,1.47,21.79,3.06,6.5,1.59,12.1,3.75,16.79,6.47,6.66,3.94,11.61,8.74,14.87,14.41,3.25,5.67,4.88,11.99,4.88,18.95l-2.27,2.95c-3.63-2.12-10.71-3.82-21.22-5.11-10.52-1.28-22.66-1.93-36.43-1.93h-179.98c-7.11,0-12.56,1.51-16.34,4.54-3.78,3.03-5.67,6.96-5.67,11.8,0,7.72,4.95,14.56,14.87,20.54,9.91,5.98,21.94,10.82,36.09,14.53,14.15,3.71,27.8,6.24,40.97,7.6.45,6.66,0,13.66-1.36,20.99-1.36,7.34-3.48,13.81-6.35,19.4Z" fill="#fff"/><path d="M755.99,1046.04c-.31-2.12-.45-4.65-.45-7.6s.15-5.26.45-6.92h47.66c.3,1.66.45,3.97.45,6.92s-.15,5.48-.45,7.6h-47.66Z" fill="#fff"/><path d="M783.68,953.89c-3.03,0-5.6-1.02-7.72-3.06-2.12-2.04-3.18-4.58-3.18-7.6s1.06-5.6,3.18-7.72c2.12-2.12,4.69-3.18,7.72-3.18s5.56,1.06,7.6,3.18c2.04,2.12,3.06,4.69,3.06,7.72s-1.02,5.37-3.06,7.49c-2.04,2.12-4.58,3.18-7.6,3.18Z" fill="#fff"/><path d="M822.72,861.52c-3.03,0-5.6-1.02-7.72-3.06-2.12-2.04-3.18-4.57-3.18-7.6s1.06-5.6,3.18-7.72c2.12-2.12,4.69-3.18,7.72-3.18s5.56,1.06,7.6,3.18c2.04,2.12,3.06,4.69,3.06,7.72s-1.02,5.37-3.06,7.49c-2.04,2.12-4.58,3.18-7.6,3.18Z" fill="#fff"/><path d="M736.25,1017.9c-3.63-21.94-7.15-39-10.55-51.18-3.4-12.18-8.06-22.2-13.96-30.07-5.15-6.81-11.84-11.92-20.09-15.32-8.25-3.4-18.27-5.11-30.07-5.11-.45-7.41-.11-14.79,1.02-22.13,1.13-7.34,2.84-13.35,5.11-18.04,11.5,0,21.94,2.54,31.32,7.6,9.38,5.07,16.11,11.77,20.2,20.08h.68c4.09-8.32,10.89-15.01,20.43-20.08,9.53-5.07,20.2-7.6,32-7.6,2.57,4.69,4.65,10.78,6.24,18.27,1.59,7.49,2.38,14.72,2.38,21.67-17.4,0-31.43,2.57-42.1,7.72-10.67,5.15-16,12.48-16,22.01,0,8.93,3.86,19.22,11.57,30.87,22.09,0,42.25-1.93,60.48-5.79,18.23-3.86,32.68-9.49,43.35-16.91,10.67-7.41,16-16.19,16-26.33,0-3.48-1.1-6.24-3.29-8.28-2.2-2.04-5.11-3.06-8.74-3.06h-56.06c-.61-6.66-.34-13.58.79-20.77,1.14-7.18,2.84-13.35,5.11-18.5h55.6c6.5,15.28,9.76,30.18,9.76,44.71s-3.1,28.18-9.3,41.87c-6.21,13.7-15.43,26.89-27.69,39.6-9.84,4.39-22.47,7.94-37.9,10.67-15.43,2.72-30.87,4.08-46.3,4.08Z" fill="#fff"/><path d="M945.73,1017.9c-3.78-9.68-6.7-21.14-8.74-34.38-2.04-13.24-3.06-26.44-3.06-39.6,0-9.08.45-18,1.36-26.78l-2.04-.23c-6.36-.76-11.77-1.51-16.23-2.27-4.46-.76-8.59-1.96-12.37-3.63,0-6.96.87-14.15,2.61-21.56,1.74-7.41,3.97-13.39,6.7-17.93,3.63,1.82,8.92,3.18,15.89,4.08,6.96.91,13.54,1.36,19.75,1.36h34.5c4.39,11.95,6.81,25.04,7.26,39.26h-29.5c-8.17,0-14.3,1.59-18.38,4.77s-6.13,7.49-6.13,12.94c0,6.81,3.06,14.11,9.19,21.9,6.13,7.79,14.26,14.26,24.4,19.4-1.97,7.26-4.88,14.75-8.74,22.47s-7.98,14.45-12.37,20.2h-4.08Z" fill="#fff"/><path d="M1024.93,954.35c-3.03,0-5.6-1.02-7.72-3.06-2.12-2.04-3.18-4.58-3.18-7.6s1.06-5.6,3.18-7.72,4.69-3.18,7.72-3.18,5.56,1.06,7.6,3.18c2.04,2.12,3.06,4.69,3.06,7.72s-1.02,5.37-3.06,7.49c-2.04,2.12-4.58,3.18-7.6,3.18Z" fill="#fff"/><path d="M1042.64,1017.9c-4.39-5.75-8.51-12.48-12.37-20.2s-6.77-15.21-8.74-22.47c9.99-5.29,18.19-11.95,24.62-19.97,6.43-8.02,9.65-15.73,9.65-23.15,0-4.84-1.55-8.7-4.65-11.58-3.1-2.87-7.83-4.31-14.18-4.31h-38.58c-.45-6.81-.11-13.81,1.02-20.99,1.13-7.18,2.76-13.28,4.88-18.27h45.39c5.9,20.88,8.85,43.2,8.85,66.95,0,13.16-1.02,26.37-3.06,39.6-2.04,13.24-4.96,24.7-8.74,34.38h-4.08Z" fill="#fff"/><path d="M1133.42,954.12c-3.03,0-5.6-1.02-7.72-3.06-2.12-2.04-3.18-4.58-3.18-7.6s1.06-5.6,3.18-7.72,4.69-3.18,7.72-3.18,5.56,1.06,7.6,3.18c2.04,2.12,3.06,4.69,3.06,7.72s-1.02,5.37-3.06,7.49c-2.04,2.12-4.58,3.18-7.6,3.18Z" fill="#fff"/><path d="M1078.72,1015.63c-2.27-4.54-4.05-10.89-5.33-19.06-1.29-8.17-1.63-15.28-1.02-21.33,22.39,0,43.95-1.44,64.68-4.31,20.73-2.87,36.01-6.66,45.85-11.35,7.26-3.33,12.82-7.45,16.68-12.37,3.86-4.92,5.79-9.79,5.79-14.64s-1.93-8.77-5.79-11.8c-3.86-3.03-9.42-4.54-16.68-4.54h-120.51c-.31-6.81.04-13.81,1.02-20.99.98-7.18,2.46-13.28,4.43-18.27h133c2.87,8.17,4.99,16.08,6.36,23.72,1.36,7.64,2.04,14.87,2.04,21.67,0,20.43-5.64,37.64-16.91,51.63-11.27,14-26.71,24.44-46.3,31.32-19.6,6.89-42.03,10.33-67.29,10.33Z" fill="#fff"/><path d="M1300.23,1058.75c-3.48-7.42-6.01-14.49-7.6-21.22-1.59-6.73-2.38-13.28-2.38-19.63,0-9.08,1.32-17.4,3.97-24.96,2.65-7.56,6.62-16.72,11.92-27.46,2.12-4.54,4.27-9.19,6.47-13.96,2.19-4.77,3.82-9.19,4.88-13.28,2.27-8.02,1.66-13.69-1.82-17.02-3.48-3.33-8.93-4.99-16.34-4.99h-40.62c-.3-6.81.15-13.81,1.36-20.99,1.21-7.18,2.95-13.28,5.22-18.27h47.43c2.27,4.69,4.08,10.63,5.45,17.82,1.36,7.19,2.04,14.34,2.04,21.45v8.28c0,2.8-.08,5.71-.23,8.74-.15,23,.11,41.57.79,55.72.68,14.15,2.68,24.32,6.01,30.53-2.12,6.5-5.22,13.35-9.3,20.54-4.09,7.18-8.4,13.43-12.94,18.72h-4.31Z" fill="#fff"/><path d="M1429.6,1049.67c-3.03,0-5.6-1.02-7.72-3.06-2.12-2.04-3.18-4.58-3.18-7.6s1.06-5.6,3.18-7.72c2.12-2.12,4.69-3.18,7.72-3.18s5.56,1.06,7.6,3.18c2.04,2.12,3.06,4.69,3.06,7.72s-1.02,5.56-3.06,7.6c-2.04,2.04-4.58,3.06-7.6,3.06Z" fill="#fff"/><path d="M1346.76,1015.63c-3.63-5.29-6.58-11.61-8.85-18.95-2.27-7.34-3.4-14.49-3.4-21.45,9.83,0,17.17-.07,22.01-.23-.91-22.24,3.55-41.83,13.39-58.78h-43.35c-.45-6.81-.11-13.81,1.02-20.99,1.13-7.18,2.76-13.28,4.88-18.27h47.89c2.27,3.03,4.46,9.08,6.58,18.16,7.41-6.66,15.58-11.76,24.51-15.32,8.93-3.55,18-5.33,27.24-5.33,12.25,0,23.98,3.18,35.18,9.53,11.2,6.36,20.27,15.93,27.23,28.71,6.96,12.79,10.44,28.48,10.44,47.09-3.18,8.78-13.16,17.51-29.96,26.21-16.79,8.7-37.37,15.81-61.73,21.33-24.36,5.53-48.72,8.28-73.08,8.28ZM1358.56,974.55c36.16-1.21,67.97-3.97,95.44-8.28,27.46-4.31,45.58-9.11,54.36-14.41,0-8.17-2.95-15.09-8.85-20.77-5.9-5.67-13.58-9.91-23.04-12.71-9.46-2.8-19.48-4.2-30.07-4.2-12.86,0-25.53,2.23-38.01,6.7-12.48,4.46-23.23,11.23-32.23,20.31-9,9.08-14.87,20.2-17.59,33.36Z" fill="#fff"/><path d="M751.91,1290.24c-3.78-9.68-6.69-21.14-8.74-34.38-2.04-13.24-3.06-26.44-3.06-39.6,0-9.38.45-18.61,1.36-27.69H52.88c-.45-6.81-.11-13.81,1.02-20.99,1.13-7.18,2.76-13.28,4.88-18.27h721.95c1.82,6.35,3.29,12.86,4.43,19.52,1.13,6.66,2.08,13.24,2.84,19.75h-23.15c-7.57,0-13.24,1.51-17.02,4.54-3.78,3.03-5.67,7.11-5.67,12.25,0,6.81,3.1,13.96,9.31,21.45,6.2,7.49,14.67,14.41,25.42,20.77-2.12,7.42-5.11,15.02-8.96,22.81-3.86,7.79-7.83,14.41-11.92,19.86h-4.09Z" fill="#fff"/><path d="M1024.25,1322.02c-3.03,0-5.6-1.02-7.72-3.06-2.12-2.04-3.18-4.58-3.18-7.6s1.06-5.6,3.18-7.72c2.12-2.12,4.69-3.18,7.72-3.18s5.56,1.06,7.6,3.18c2.04,2.12,3.06,4.69,3.06,7.72s-1.02,5.56-3.06,7.6c-2.04,2.04-4.58,3.06-7.6,3.06ZM1039,1348.57c-3.03,0-5.6-1.02-7.72-3.06-2.12-2.04-3.18-4.58-3.18-7.6s1.06-5.6,3.18-7.72c2.12-2.12,4.69-3.18,7.72-3.18s5.56,1.06,7.6,3.18c2.04,2.12,3.06,4.69,3.06,7.72s-1.02,5.56-3.06,7.6-4.58,3.06-7.6,3.06ZM1053.53,1322.02c-3.03,0-5.6-1.02-7.72-3.06-2.12-2.04-3.18-4.58-3.18-7.6s1.06-5.6,3.18-7.72c2.12-2.12,4.69-3.18,7.72-3.18s5.56,1.06,7.6,3.18c2.04,2.12,3.06,4.69,3.06,7.72s-1.02,5.56-3.06,7.6c-2.04,2.04-4.58,3.06-7.6,3.06Z" fill="#fff"/><path d="M1037.87,1290.24c-4.39-5.75-8.51-12.48-12.37-20.2s-6.77-15.21-8.74-22.47c9.68-5.9,17.7-12.9,24.06-20.99,6.35-8.09,9.53-15.7,9.53-22.81,0-4.69-1.55-8.4-4.65-11.12-3.1-2.72-7.83-4.08-14.19-4.08h-239.21c-.45-6.81-.11-13.81,1.02-20.99,1.13-7.18,2.76-13.28,4.88-18.27h246.7c5.9,20.88,8.85,43.2,8.85,66.95,0,13.16-1.02,26.37-3.06,39.6-2.04,13.24-4.96,24.7-8.74,34.38h-4.09Z" fill="#fff"/><path d="M1169.5,1287.97c-26.78-5.29-48.04-16-63.77-32.11-15.74-16.11-23.6-36.5-23.6-61.17,0-2.72.07-4.77.23-6.13h-24.74c-.45-6.81-.11-13.81,1.02-20.99,1.13-7.18,2.76-13.28,4.88-18.27h216.52c2.57-10.89,6.96-20.5,13.16-28.82,6.2-8.32,13.92-14.67,23.15-19.06,3.48,3.03,7.04,8.89,10.67,17.59,3.63,8.7,5.6,15.47,5.9,20.31-8.78-1.36-17.1-1.1-24.96.79-7.87,1.89-14.22,5.11-19.06,9.65,8.02.45,15.28,1.47,21.79,3.06,6.5,1.59,12.1,3.75,16.79,6.47,6.66,3.94,11.61,8.74,14.87,14.41,3.25,5.67,4.88,11.99,4.88,18.95l-2.27,2.95c-3.63-2.12-10.71-3.82-21.22-5.11-10.52-1.28-22.66-1.93-36.43-1.93h-179.98c-7.11,0-12.56,1.51-16.34,4.54-3.78,3.03-5.67,6.96-5.67,11.8,0,7.72,4.95,14.56,14.87,20.54,9.91,5.98,21.94,10.82,36.09,14.53,14.15,3.71,27.8,6.24,40.97,7.6.45,6.66,0,13.66-1.36,20.99-1.36,7.34-3.48,13.81-6.36,19.4Z" fill="#fff"/><path d="M1413.03,1318.39c-.3-2.12-.45-4.65-.45-7.6s.15-5.26.45-6.92h47.66c.3,1.66.45,3.97.45,6.92s-.15,5.48-.45,7.6h-47.66Z" fill="#fff"/><path d="M1420.97,1224.2c-3.03,0-5.6-1.02-7.72-3.06-2.12-2.04-3.18-4.58-3.18-7.6s1.06-5.6,3.18-7.72,4.69-3.18,7.72-3.18,5.56,1.06,7.6,3.18c2.04,2.12,3.06,4.69,3.06,7.72s-1.02,5.37-3.06,7.49c-2.04,2.12-4.58,3.18-7.6,3.18Z" fill="#fff"/><path d="M1367.18,1287.97c-2.42-4.69-4.24-10.82-5.45-18.38-1.21-7.56-1.51-14.9-.91-22.01h1.13c15.28,0,32.79-2.04,52.54-6.13,19.75-4.08,36.65-9.65,50.73-16.68,14.07-7.04,21.11-14.64,21.11-22.81,0-4.54-2.04-7.9-6.13-10.1-4.08-2.19-9.91-3.29-17.48-3.29h-112.34c-.61-6.66-.34-13.58.79-20.77,1.13-7.18,2.68-13.35,4.65-18.5h136.17c5.29,8.78,7.79,18.69,7.49,29.73-.3,11.05-4.24,21.41-11.8,31.09l17.48,3.86c.76,2.88,1.28,6.47,1.59,10.78.3,4.31.3,8.21,0,11.69-8.17,11.05-19.78,20.43-34.84,28.14-15.06,7.72-31.62,13.54-49.7,17.48-18.08,3.94-35.97,5.9-53.67,5.9h-1.36Z" fill="#fff"/><path d="M195.41,1500.18c-3.03,0-5.6-1.02-7.72-3.06-2.12-2.04-3.18-4.58-3.18-7.6s1.06-5.6,3.18-7.72c2.12-2.12,4.69-3.18,7.72-3.18s5.56,1.06,7.6,3.18c2.04,2.12,3.06,4.69,3.06,7.72s-1.02,5.37-3.06,7.49c-2.04,2.12-4.58,3.18-7.6,3.18Z" fill="#fff"/><path d="M281.2,1562.59c-4.39-5.75-8.51-12.48-12.37-20.2s-6.77-15.21-8.74-22.47c9.08-5.45,17.02-12.22,23.83-20.31,6.81-8.09,10.21-16,10.21-23.72,0-4.54-1.7-8.17-5.11-10.89s-7.91-4.08-13.5-4.08H106.9c3.78,12.41,5.67,24.44,5.67,36.09,0,18.01-4.39,32.87-13.16,44.6-8.78,11.73-20.73,18.34-35.86,19.86-2.57-5.29-4.35-11.65-5.33-19.06-.99-7.41-1.1-14.9-.34-22.47,9.53,0,17.82-2.34,24.85-7.04,7.04-4.69,12.4-10.48,16.11-17.36,3.71-6.88,5.56-13.58,5.56-20.09s-.68-11.04-2.04-14.52h-50.61c-.45-6.81-.11-13.81,1.02-20.99,1.13-7.18,2.76-13.28,4.88-18.27h230.59c5.9,20.88,8.85,43.2,8.85,66.95,0,13.16-1.02,26.37-3.06,39.6-2.04,13.24-4.96,24.7-8.74,34.38h-4.08Z" fill="#fff"/><path d="M393.54,1594.36c-3.03,0-5.6-1.02-7.72-3.06-2.12-2.04-3.18-4.58-3.18-7.6s1.06-5.6,3.18-7.72c2.12-2.12,4.69-3.18,7.72-3.18s5.56,1.06,7.6,3.18c2.04,2.12,3.06,4.69,3.06,7.72s-1.02,5.56-3.06,7.6c-2.04,2.04-4.58,3.06-7.6,3.06ZM393.54,1625.46c-3.03,0-5.6-1.02-7.72-3.06-2.12-2.04-3.18-4.58-3.18-7.6s1.06-5.6,3.18-7.72c2.12-2.12,4.69-3.18,7.72-3.18s5.56,1.06,7.6,3.18c2.04,2.12,3.06,4.69,3.06,7.72s-1.02,5.56-3.06,7.6c-2.04,2.04-4.58,3.06-7.6,3.06Z" fill="#fff"/><path d="M319.78,1560.32c-2.57-4.54-4.62-10.89-6.13-19.06-1.51-8.17-1.89-15.28-1.13-21.33,15.73,0,32.42-.79,50.04-2.38,17.62-1.59,33.78-4.05,48.46-7.38,16.34-3.63,29.35-8.21,39.04-13.73,9.68-5.52,14.53-12.06,14.53-19.63,0-4.54-2.16-8.32-6.47-11.35-4.31-3.03-10.18-4.54-17.59-4.54h-99.86c3.18,4.39,8.02,8.25,14.52,11.57,6.5,3.33,13.99,5.67,22.47,7.04-1.36,5.3-4.24,11.08-8.62,17.36-4.39,6.28-9.46,11.99-15.21,17.14-13.62-12.71-20.43-28.29-20.43-46.75,0-2.72.07-4.84.23-6.35h-32.23c-.45-6.81-.11-13.81,1.02-20.99,1.13-7.18,2.76-13.28,4.88-18.27h150.02c6.35,16.04,9.53,31.17,9.53,45.39,0,20.43-6.35,37.64-19.06,51.63-12.71,14-30.11,24.44-52.2,31.32-22.09,6.89-47.36,10.33-75.8,10.33Z" fill="#fff"/><path d="M513.37,1590.73c-.31-2.12-.45-4.65-.45-7.6s.15-5.26.45-6.92h47.66c.3,1.66.45,3.97.45,6.92s-.15,5.48-.45,7.6h-47.66Z" fill="#fff"/><path d="M535.62,1560.32c-2.57-4.99-4.81-11.61-6.7-19.86-1.89-8.25-2.84-15.09-2.84-20.54,11.65-1.96,24.43-5.14,38.36-9.53,13.92-4.39,25.65-9.45,35.18-15.21,6.05-3.63,10.78-7.41,14.18-11.35,3.4-3.93,5.11-7.94,5.11-12.03,0-3.18-.99-5.79-2.95-7.83-1.97-2.04-4.84-3.06-8.62-3.06h-135.27c-.76-9.38-1.13-17.32-1.13-23.83,0-16.49,3.06-30.98,9.19-43.46,6.13-12.48,15.17-21.67,27.12-27.58,3.48,3.03,7.04,8.89,10.67,17.59,3.63,8.7,5.6,15.47,5.9,20.31-11.05-1.51-21.26-.72-30.64,2.38-9.38,3.1-15.81,8.21-19.29,15.32h138.44c6.35,15.74,9.53,31.47,9.53,47.21,0,12.86-3.6,25.53-10.78,38.01-7.19,12.48-17.33,23.49-30.41,33.02-13.09,9.53-28.11,16.34-45.05,20.43Z" fill="#fff"/><path d="M740.33,1590.96c-.3-2.12-.45-4.65-.45-7.6s.15-5.26.45-6.92h40.85c.3,1.66.46,3.97.46,6.92s-.15,5.48-.46,7.6h-40.85ZM800.02,1594.36c-3.03,0-5.6-1.02-7.72-3.06-2.12-2.04-3.18-4.58-3.18-7.6s1.06-5.6,3.18-7.72c2.12-2.12,4.69-3.18,7.72-3.18s5.56,1.06,7.6,3.18c2.04,2.12,3.06,4.69,3.06,7.72s-1.02,5.56-3.06,7.6c-2.04,2.04-4.58,3.06-7.6,3.06ZM800.02,1625.46c-3.03,0-5.6-1.02-7.72-3.06-2.12-2.04-3.18-4.58-3.18-7.6s1.06-5.6,3.18-7.72c2.12-2.12,4.69-3.18,7.72-3.18s5.56,1.06,7.6,3.18c2.04,2.12,3.06,4.69,3.06,7.72s-1.02,5.56-3.06,7.6-4.58,3.06-7.6,3.06Z" fill="#fff"/><path d="M662.71,1562.59c-3.78-9.68-6.7-21.14-8.74-34.38-2.04-13.24-3.06-26.44-3.06-39.6,0-9.38.45-18.61,1.36-27.69h-27.01c-.45-6.81-.11-13.81,1.02-20.99,1.13-7.18,2.76-13.28,4.88-18.27h252.15c5.9,20.88,8.85,43.2,8.85,66.95,0,13.16-1.02,26.37-3.06,39.6-2.04,13.24-4.96,24.7-8.74,34.38h-4.09c-4.39-5.75-8.51-12.48-12.37-20.2-3.86-7.72-6.77-15.21-8.74-22.47,10.13-4.99,18.46-11.54,24.96-19.63,6.5-8.09,9.76-15.85,9.76-23.26,0-4.84-1.55-8.74-4.65-11.69-3.1-2.95-7.83-4.42-14.18-4.42h-199.04c-6.35,0-11.05,1.44-14.07,4.31-3.03,2.88-4.54,6.81-4.54,11.8,0,7.57,3.29,15.43,9.87,23.6,6.58,8.17,14.79,14.6,24.62,19.29-1.97,7.26-4.88,14.75-8.74,22.47s-7.98,14.45-12.37,20.2h-4.08Z" fill="#fff"/><path d="M981.59,1511.07c5.6-5.14,10.1-10.93,13.5-17.36,3.4-6.43,5.11-12.37,5.11-17.82,0-4.54-1.33-8.17-3.97-10.89-2.65-2.72-6.77-4.08-12.37-4.08h-41.99c-.45-6.81-.11-13.81,1.02-20.99,1.13-7.18,2.76-13.28,4.88-18.27h56.29c4.84,8.62,7.26,18.61,7.26,29.96s-2.57,23.04-7.72,34.16c-5.15,11.12-12.11,20.16-20.88,27.12l-1.13-1.82Z" fill="#fff"/><path d="M1050.58,1594.36c-3.03,0-5.6-1.02-7.72-3.06-2.12-2.04-3.18-4.58-3.18-7.6s1.06-5.6,3.18-7.72c2.12-2.12,4.69-3.18,7.72-3.18s5.56,1.06,7.6,3.18c2.04,2.12,3.06,4.69,3.06,7.72s-1.02,5.56-3.06,7.6c-2.04,2.04-4.58,3.06-7.6,3.06Z" fill="#fff"/><path d="M1034.47,1560.78c-2.57-5.14-4.58-11.23-6.01-18.27-1.44-7.04-2.16-14.56-2.16-22.58,10.59,0,20.01-1.96,28.26-5.9,8.24-3.93,14.64-9.11,19.18-15.55,4.54-6.43,6.81-13.28,6.81-20.54,0-6.2-2.04-11.88-6.13-17.02h-57.65c-.45-6.81-.11-13.81,1.02-20.99,1.13-7.18,2.76-13.28,4.88-18.27h51.52c6.2,17.7,9.3,35.26,9.3,52.65,0,24.21-3.75,43.88-11.23,59.01-7.49,15.13-20.09,24.28-37.79,27.46Z" fill="#fff"/><path d="M1127.06,1511.07c5.6-5.14,10.1-10.93,13.5-17.36,3.4-6.43,5.11-12.37,5.11-17.82,0-4.54-1.33-8.17-3.97-10.89-2.65-2.72-6.77-4.08-12.37-4.08h-41.99c-.45-6.81-.11-13.81,1.02-20.99,1.13-7.18,2.76-13.28,4.88-18.27h56.29c4.84,8.62,7.26,18.61,7.26,29.96s-2.57,23.04-7.72,34.16c-5.15,11.12-12.11,20.16-20.88,27.12l-1.13-1.82Z" fill="#fff"/><path d="M1208.77,1594.36c-3.03,0-5.6-1.02-7.72-3.06-2.12-2.04-3.18-4.58-3.18-7.6s1.06-5.6,3.18-7.72c2.12-2.12,4.69-3.18,7.72-3.18s5.56,1.06,7.6,3.18c2.04,2.12,3.06,4.69,3.06,7.72s-1.02,5.56-3.06,7.6c-2.04,2.04-4.58,3.06-7.6,3.06Z" fill="#fff"/><path d="M1198.78,1496.55c-3.03,0-5.6-1.02-7.72-3.06-2.12-2.04-3.18-4.58-3.18-7.6s1.06-5.6,3.18-7.72,4.69-3.18,7.72-3.18,5.56,1.06,7.6,3.18c2.04,2.12,3.06,4.69,3.06,7.72s-1.02,5.37-3.06,7.49c-2.04,2.12-4.58,3.18-7.6,3.18Z" fill="#fff"/><path d="M1174.73,1562.36c-2.72-5.45-4.62-12.06-5.67-19.86-1.06-7.79-1.06-15.32,0-22.58,9.68-.75,19.82-3.48,30.41-8.17,10.59-4.69,19.4-10.21,26.44-16.57,7.04-6.35,10.55-12.4,10.55-18.16,0-4.99-1.47-8.93-4.42-11.8-2.95-2.87-7.76-4.31-14.41-4.31h-54.24c-.45-6.81-.11-13.81,1.02-20.99,1.13-7.18,2.76-13.28,4.88-18.27h68.77c4.23,5.9,6.35,14.45,6.35,25.65,0,11.95-2.57,25.65-7.72,41.08.15,5.45,1.44,10.82,3.86,16.11,2.42,5.3,5.9,10.44,10.44,15.43,0,8.17-.42,16-1.25,23.49-.83,7.49-1.85,13.28-3.06,17.36h-6.36c-5.3-4.23-10.14-9.42-14.53-15.55-4.39-6.13-7.49-12.06-9.3-17.82h-1.13c-4.69,8.62-10.4,16.15-17.14,22.58-6.73,6.43-13.2,10.55-19.4,12.37h-4.08Z" fill="#fff"/><path d="M1338.59,1594.36c-3.03,0-5.6-1.02-7.72-3.06-2.12-2.04-3.18-4.58-3.18-7.6s1.06-5.6,3.18-7.72c2.12-2.12,4.69-3.18,7.72-3.18s5.56,1.06,7.6,3.18c2.04,2.12,3.06,4.69,3.06,7.72s-1.02,5.56-3.06,7.6c-2.04,2.04-4.58,3.06-7.6,3.06ZM1338.59,1625.46c-3.03,0-5.6-1.02-7.72-3.06-2.12-2.04-3.18-4.58-3.18-7.6s1.06-5.6,3.18-7.72c2.12-2.12,4.69-3.18,7.72-3.18s5.56,1.06,7.6,3.18c2.04,2.12,3.06,4.69,3.06,7.72s-1.02,5.56-3.06,7.6-4.58,3.06-7.6,3.06Z" fill="#fff"/><path d="M1310.9,1561.46c-12.86-17.1-22.55-34.12-29.05-51.07-6.51-16.94-9.61-33.44-9.31-49.48h-22.92c-.45-6.96-.15-14.03.91-21.22,1.06-7.18,2.65-13.2,4.77-18.04h162.27c2.27,5.15,4.39,12.37,6.35,21.67,1.96,9.31,2.95,18.35,2.95,27.12,0,18.01-4.8,33.89-14.41,47.66-9.61,13.77-23.19,24.44-40.74,32-17.55,7.57-37.83,11.35-60.82,11.35ZM1300.91,1521.74c21.79,0,42.1-2,60.94-6.01,18.84-4.01,33.93-9.65,45.28-16.91s17.02-15.58,17.02-24.97c0-3.93-1.1-7.07-3.29-9.42-2.2-2.34-5.18-3.52-8.96-3.52h-136.4c0,6.35,1.28,13.58,3.86,21.67,2.57,8.1,5.82,15.74,9.76,22.92,3.93,7.19,7.87,12.6,11.8,16.23Z" fill="#fff"/><path d="M1468.63,1594.36c-3.03,0-5.6-1.02-7.72-3.06-2.12-2.04-3.18-4.58-3.18-7.6s1.06-5.6,3.18-7.72c2.12-2.12,4.69-3.18,7.72-3.18s5.56,1.06,7.6,3.18c2.04,2.12,3.06,4.69,3.06,7.72s-1.02,5.56-3.06,7.6c-2.04,2.04-4.58,3.06-7.6,3.06Z" fill="#fff"/><path d="M1470.45,1511.07c5.6-5.14,10.1-10.93,13.5-17.36,3.4-6.43,5.11-12.37,5.11-17.82,0-4.54-1.33-8.17-3.97-10.89-2.65-2.72-6.77-4.08-12.37-4.08h-41.99c-.45-6.81-.11-13.81,1.02-20.99,1.13-7.18,2.76-13.28,4.88-18.27h56.29c4.84,8.62,7.26,18.61,7.26,29.96s-2.57,23.04-7.72,34.16c-5.15,11.12-12.11,20.16-20.88,27.12l-1.13-1.82Z" fill="#fff"/><path d="M162.95,1832.67c-26.78-5.29-48.04-16-63.77-32.11-15.74-16.11-23.6-36.5-23.6-61.17,0-2.72.07-4.77.23-6.13h-24.74c-.45-6.81-.11-13.81,1.02-20.99,1.13-7.18,2.76-13.28,4.88-18.27h216.52c2.57-10.89,6.96-20.5,13.16-28.82,6.2-8.32,13.92-14.67,23.15-19.06,3.48,3.03,7.04,8.89,10.67,17.59,3.63,8.7,5.6,15.47,5.9,20.31-8.78-1.36-17.1-1.1-24.97.79-7.87,1.89-14.22,5.11-19.06,9.65,8.02.45,15.28,1.47,21.79,3.06,6.5,1.59,12.1,3.75,16.79,6.47,6.66,3.94,11.61,8.74,14.87,14.41,3.25,5.67,4.88,11.99,4.88,18.95l-2.27,2.95c-3.63-2.12-10.71-3.82-21.22-5.11-10.52-1.28-22.66-1.93-36.43-1.93H100.77c-7.11,0-12.56,1.51-16.34,4.54-3.78,3.03-5.67,6.96-5.67,11.8,0,7.72,4.95,14.56,14.87,20.54,9.91,5.98,21.94,10.82,36.09,14.53,14.15,3.71,27.8,6.24,40.97,7.6.45,6.66,0,13.66-1.36,20.99-1.36,7.34-3.48,13.81-6.35,19.4Z" fill="#fff"/><path d="M364.26,1863.08c-.31-2.12-.45-4.65-.45-7.6s.15-5.26.45-6.92h47.66c.3,1.66.45,3.97.45,6.92s-.15,5.48-.45,7.6h-47.66Z" fill="#fff"/><path d="M388.09,1834.94c-4.39-5.75-8.51-12.48-12.37-20.2-3.86-7.72-6.77-15.21-8.74-22.47,9.99-5.29,18.19-11.95,24.62-19.97,6.43-8.02,9.65-15.73,9.65-23.15,0-4.84-1.55-8.7-4.65-11.58-3.1-2.87-7.83-4.31-14.19-4.31h-38.58c-.45-6.81-.11-13.81,1.02-20.99,1.13-7.18,2.76-13.28,4.88-18.27h45.39c5.9,20.88,8.85,43.2,8.85,66.95,0,13.16-1.02,26.37-3.06,39.6-2.04,13.24-4.96,24.7-8.74,34.38h-4.09Z" fill="#fff"/><path d="M599.62,1866.71c-3.03,0-5.6-1.02-7.72-3.06-2.12-2.04-3.18-4.58-3.18-7.6s1.06-5.6,3.18-7.72c2.12-2.12,4.69-3.18,7.72-3.18s5.56,1.06,7.6,3.18c2.04,2.12,3.06,4.69,3.06,7.72s-1.02,5.56-3.06,7.6c-2.04,2.04-4.58,3.06-7.6,3.06ZM599.62,1897.81c-3.03,0-5.6-1.02-7.72-3.06-2.12-2.04-3.18-4.58-3.18-7.6s1.06-5.6,3.18-7.72c2.12-2.12,4.69-3.18,7.72-3.18s5.56,1.06,7.6,3.18c2.04,2.12,3.06,4.69,3.06,7.72s-1.02,5.56-3.06,7.6c-2.04,2.04-4.58,3.06-7.6,3.06Z" fill="#fff"/><path d="M598.03,1832.67c-2.57-4.99-4.81-11.61-6.7-19.86-1.89-8.25-2.84-15.09-2.84-20.54,11.65-1.96,24.43-5.14,38.36-9.53,13.92-4.39,25.65-9.45,35.18-15.21,6.05-3.63,10.78-7.41,14.18-11.35,3.4-3.93,5.11-7.94,5.11-12.03,0-3.18-.99-5.79-2.95-7.83-1.97-2.04-4.84-3.06-8.62-3.06h-260.55c-.76-9.38-1.13-17.32-1.13-23.83,0-16.79,2.99-31.39,8.96-43.8,5.98-12.4,15.01-21.86,27.12-28.37,3.48,3.03,7.04,8.89,10.67,17.59,3.63,8.7,5.6,15.47,5.9,20.31-11.2-1.36-21.41-.38-30.64,2.95-9.23,3.33-15.59,8.62-19.06,15.89h263.72c6.35,15.74,9.53,31.47,9.53,47.21,0,12.86-3.6,25.53-10.78,38.01-7.19,12.48-17.33,23.49-30.41,33.02-13.09,9.53-28.11,16.34-45.05,20.43Z" fill="#fff"/><path d="M1118.44,1866.71c-3.03,0-5.6-1.02-7.72-3.06-2.12-2.04-3.18-4.58-3.18-7.6s1.06-5.6,3.18-7.72c2.12-2.12,4.69-3.18,7.72-3.18s5.56,1.06,7.6,3.18c2.04,2.12,3.06,4.69,3.06,7.72s-1.02,5.56-3.06,7.6c-2.04,2.04-4.58,3.06-7.6,3.06ZM1133.19,1893.27c-3.03,0-5.6-1.02-7.72-3.06-2.12-2.04-3.18-4.58-3.18-7.6s1.06-5.6,3.18-7.72c2.12-2.12,4.69-3.18,7.72-3.18s5.56,1.06,7.6,3.18c2.04,2.12,3.06,4.69,3.06,7.72s-1.02,5.56-3.06,7.6-4.58,3.06-7.6,3.06ZM1147.72,1866.71c-3.03,0-5.6-1.02-7.72-3.06-2.12-2.04-3.18-4.58-3.18-7.6s1.06-5.6,3.18-7.72c2.12-2.12,4.69-3.18,7.72-3.18s5.56,1.06,7.6,3.18c2.04,2.12,3.06,4.69,3.06,7.72s-1.02,5.56-3.06,7.6c-2.04,2.04-4.58,3.06-7.6,3.06Z" fill="#fff"/><path d="M816.59,1832.67c-26.78-5.29-48.04-16-63.78-32.11-15.74-16.11-23.6-36.5-23.6-61.17,0-2.72.07-4.77.23-6.13h-41.31c-.45-6.81-.11-13.81,1.02-20.99,1.13-7.18,2.76-13.28,4.88-18.27h732.84c1.82-11.95,5.98-22.54,12.48-31.77,6.5-9.23,14.68-16.19,24.51-20.88,3.48,3.03,7.04,8.89,10.67,17.59,3.63,8.7,5.6,15.47,5.9,20.31-10.14-1.36-19.63-.76-28.48,1.82-8.85,2.57-15.32,6.89-19.41,12.94,9.23,0,17.29.53,24.17,1.59,6.88,1.06,12.97,2.65,18.27,4.77,9.38,3.63,16.3,8.62,20.77,14.98,4.46,6.35,6.69,13.7,6.69,22.01l-2.27,2.95c-3.63-2.12-10.71-3.82-21.22-5.11-10.52-1.28-22.66-1.93-36.43-1.93h-688.13c-7.11,0-12.56,1.51-16.34,4.54-3.78,3.03-5.67,6.96-5.67,11.8,0,7.72,4.95,14.56,14.87,20.54,9.91,5.98,21.94,10.82,36.09,14.53,14.15,3.71,27.8,6.24,40.96,7.6.46,6.66,0,13.66-1.36,20.99-1.36,7.34-3.48,13.81-6.35,19.4Z" fill="#fff"/><path d="M87.83,2055.77c5.6-5.14,10.1-10.93,13.5-17.36,3.4-6.43,5.11-12.37,5.11-17.82,0-4.54-1.33-8.17-3.97-10.89-2.65-2.72-6.77-4.08-12.37-4.08h-41.99c-.45-6.81-.11-13.81,1.02-20.99,1.13-7.18,2.76-13.28,4.88-18.27h56.29c4.84,8.62,7.26,18.61,7.26,29.96s-2.57,23.04-7.72,34.16c-5.15,11.12-12.11,20.16-20.88,27.12l-1.13-1.82Z" fill="#fff"/><path d="M274.62,2139.06c-3.03,0-5.6-1.02-7.72-3.06-2.12-2.04-3.18-4.58-3.18-7.6s1.06-5.6,3.18-7.72c2.12-2.12,4.69-3.18,7.72-3.18s5.56,1.06,7.6,3.18c2.04,2.12,3.06,4.69,3.06,7.72s-1.02,5.56-3.06,7.6c-2.04,2.04-4.58,3.06-7.6,3.06Z" fill="#fff"/><path d="M393.77,2107.28c-4.39-5.75-8.51-12.48-12.37-20.2-3.86-7.72-6.77-15.21-8.74-22.47,9.08-5.45,17.02-12.22,23.83-20.31,6.81-8.09,10.21-16,10.21-23.72,0-4.54-1.7-8.17-5.11-10.89-3.4-2.72-7.91-4.08-13.5-4.08h-209.93c3.78,12.41,5.67,24.44,5.67,36.09,0,18.01-4.39,32.87-13.16,44.6-8.78,11.73-20.73,18.34-35.86,19.86-2.57-5.29-4.35-11.65-5.33-19.06-.99-7.41-1.1-14.9-.34-22.47,9.53,0,17.82-2.34,24.85-7.04,7.04-4.69,12.4-10.48,16.11-17.36,3.71-6.88,5.56-13.58,5.56-20.09s-.68-11.04-2.04-14.52h-50.61c-.45-6.81-.11-13.81,1.02-20.99,1.13-7.18,2.76-13.28,4.88-18.27h271.89c5.9,20.88,8.85,43.2,8.85,66.95,0,13.16-1.02,26.37-3.06,39.6-2.04,13.24-4.96,24.7-8.74,34.38h-4.08Z" fill="#fff"/><path d="M525.86,2105.02c-26.78-5.29-48.04-16-63.77-32.11-15.74-16.11-23.6-36.5-23.6-61.17,0-2.72.07-4.77.23-6.13h-24.74c-.45-6.81-.11-13.81,1.02-20.99,1.13-7.18,2.76-13.28,4.88-18.27h216.52c2.57-10.89,6.96-20.5,13.16-28.82,6.2-8.32,13.92-14.67,23.15-19.06,3.48,3.03,7.04,8.89,10.67,17.59,3.63,8.7,5.6,15.47,5.9,20.31-8.78-1.36-17.1-1.1-24.97.79-7.87,1.89-14.22,5.11-19.06,9.65,8.02.45,15.28,1.47,21.79,3.06,6.5,1.59,12.1,3.75,16.79,6.47,6.66,3.94,11.61,8.74,14.87,14.41,3.25,5.67,4.88,11.99,4.88,18.95l-2.27,2.95c-3.63-2.12-10.71-3.82-21.22-5.11-10.52-1.28-22.66-1.93-36.43-1.93h-179.98c-7.11,0-12.56,1.51-16.34,4.54-3.78,3.03-5.67,6.96-5.67,11.8,0,7.72,4.95,14.56,14.87,20.54,9.91,5.98,21.94,10.82,36.09,14.53,14.15,3.71,27.8,6.24,40.97,7.6.45,6.66,0,13.66-1.36,20.99-1.36,7.34-3.48,13.81-6.35,19.4Z" fill="#fff"/><path d="M727.17,2135.43c-.31-2.12-.45-4.65-.45-7.6s.15-5.26.45-6.92h47.66c.3,1.66.45,3.97.45,6.92s-.15,5.48-.45,7.6h-47.66Z" fill="#fff"/><path d="M751,2107.28c-4.39-5.75-8.51-12.48-12.37-20.2-3.86-7.72-6.77-15.21-8.74-22.47,9.99-5.29,18.19-11.95,24.62-19.97,6.43-8.02,9.65-15.73,9.65-23.15,0-4.84-1.55-8.7-4.65-11.58-3.1-2.87-7.83-4.31-14.19-4.31h-38.58c-.45-6.81-.11-13.81,1.02-20.99,1.13-7.18,2.76-13.28,4.88-18.27h45.39c5.9,20.88,8.85,43.2,8.85,66.95,0,13.16-1.02,26.37-3.06,39.6-2.04,13.24-4.96,24.7-8.74,34.38h-4.09Z" fill="#fff"/><path d="M1007,2139.06c-3.03,0-5.6-1.02-7.72-3.06-2.12-2.04-3.18-4.58-3.18-7.6s1.06-5.6,3.18-7.72c2.12-2.12,4.69-3.18,7.72-3.18s5.56,1.06,7.6,3.18c2.04,2.12,3.06,4.69,3.06,7.72s-1.02,5.56-3.06,7.6c-2.04,2.04-4.58,3.06-7.6,3.06ZM1007,2170.15c-3.03,0-5.6-1.02-7.72-3.06-2.12-2.04-3.18-4.58-3.18-7.6s1.06-5.6,3.18-7.72c2.12-2.12,4.69-3.18,7.72-3.18s5.56,1.06,7.6,3.18c2.04,2.12,3.06,4.69,3.06,7.72s-1.02,5.56-3.06,7.6-4.58,3.06-7.6,3.06Z" fill="#fff"/><path d="M807.74,2107.28c-3.79-9.68-6.7-21.14-8.74-34.38-2.04-13.24-3.06-26.44-3.06-39.6,0-9.38.45-18.61,1.36-27.69h-27.01c-.45-6.81-.11-13.81,1.02-20.99,1.13-7.18,2.76-13.28,4.88-18.27h423.73c5.9,20.88,8.85,43.2,8.85,66.95,0,13.16-1.02,26.37-3.06,39.6-2.04,13.24-4.96,24.7-8.74,34.38h-4.08c-4.39-5.75-8.51-12.48-12.37-20.2s-6.77-15.21-8.74-22.47c10.13-4.99,18.46-11.54,24.96-19.63,6.5-8.09,9.76-15.85,9.76-23.26,0-4.84-1.55-8.74-4.65-11.69-3.1-2.95-7.83-4.42-14.18-4.42h-370.62c-6.36,0-11.05,1.44-14.07,4.31-3.03,2.88-4.54,6.81-4.54,11.8,0,7.57,3.29,15.43,9.87,23.6,6.58,8.17,14.79,14.6,24.62,19.29-1.97,7.26-4.88,14.75-8.74,22.47-3.86,7.72-7.98,14.45-12.37,20.2h-4.08Z" fill="#fff"/><path d="M1349.03,2135.43c-.3-2.12-.45-4.65-.45-7.6s.15-5.26.45-6.92h47.66c.3,1.66.45,3.97.45,6.92s-.15,5.48-.45,7.6h-47.66Z" fill="#fff"/><path d="M1324.74,2105.02c-26.78-5.29-48.04-16-63.77-32.11-15.74-16.11-23.6-36.5-23.6-61.17,0-2.72.07-4.77.23-6.13h-24.74c-.45-6.81-.11-13.81,1.02-20.99,1.13-7.18,2.76-13.28,4.88-18.27h216.52c2.57-10.89,6.96-20.5,13.16-28.82,6.2-8.32,13.92-14.67,23.15-19.06,3.48,3.03,7.04,8.89,10.67,17.59,3.63,8.7,5.6,15.47,5.9,20.31-8.78-1.36-17.1-1.1-24.96.79-7.87,1.89-14.22,5.11-19.06,9.65,8.02.45,15.28,1.47,21.79,3.06,6.5,1.59,12.1,3.75,16.79,6.47,6.66,3.94,11.61,8.74,14.87,14.41,3.25,5.67,4.88,11.99,4.88,18.95l-2.27,2.95c-3.63-2.12-10.71-3.82-21.22-5.11-10.52-1.28-22.66-1.93-36.43-1.93h-179.98c-7.11,0-12.56,1.51-16.34,4.54-3.78,3.03-5.67,6.96-5.67,11.8,0,7.72,4.95,14.56,14.87,20.54,9.91,5.98,21.94,10.82,36.09,14.53,14.15,3.71,27.8,6.24,40.97,7.6.45,6.66,0,13.66-1.36,20.99-1.36,7.34-3.48,13.81-6.36,19.4Z" fill="#fff"/><path d="M954.35,2379.63c-4.39-5.75-8.51-12.48-12.37-20.2s-6.77-15.13-8.74-22.24c10.44-6.81,18.84-14.3,25.19-22.47,6.35-8.17,9.53-15.51,9.53-22.01,0-4.54-1.55-8.13-4.65-10.78-3.1-2.65-7.83-3.97-14.18-3.97H66.5c-.45-6.81-.11-13.81,1.02-20.99,1.13-7.18,2.76-13.28,4.88-18.27h888.99c5.9,20.88,8.85,43.2,8.85,66.95,0,13.16-1.02,26.37-3.06,39.6-2.04,13.24-4.96,24.7-8.74,34.38h-4.08ZM115.52,2379.63c-6.51-7.11-10.97-15.62-13.39-25.53-2.42-9.91-2.8-20.2-1.13-30.87,1.66-10.67,5.07-20.69,10.21-30.07h2.5c0,10.74,2.27,19.94,6.81,27.57,4.54,7.64,11.12,13.05,19.75,16.23-1.97,8.02-4.99,15.93-9.08,23.72-4.09,7.79-8.55,14.11-13.39,18.95h-2.27Z" fill="#fff"/><path d="M1056.48,2425.93l1.13-17.93h-18.38c-.3-2.12-.45-4.65-.45-7.6s.15-5.26.45-6.92h47.66c.3,1.66.45,3.97.45,6.92s-.15,5.48-.45,7.6h-17.48l.91,17.93c-1.82.76-4.05,1.13-6.69,1.13s-5.03-.38-7.15-1.13Z" fill="#fff"/><path d="M989.3,2379.18c-2.58-4.54-4.62-11.2-6.13-19.97-1.51-8.77-1.89-16.19-1.13-22.24,16.64,0,33.36-.53,50.16-1.59,6.05-3.78,10.67-8.7,13.84-14.75,3.18-6.05,4.77-12.1,4.77-18.16,0-6.96-2.12-12.78-6.35-17.48-4.24-4.69-10.21-7.04-17.93-7.04h-52.43c-.45-6.81-.11-13.81,1.02-20.99,1.13-7.18,2.76-13.28,4.88-18.27h58.33c5.6,14.53,9.91,29.96,12.94,46.3,3.02,16.34,4.46,32.53,4.31,48.57,27.38-2.87,47.21-6.96,59.46-12.26,8.77-3.63,15.43-7.94,19.97-12.94,4.54-4.99,6.81-9.83,6.81-14.53s-2.16-8.32-6.47-11.35c-4.31-3.03-10.18-4.54-17.59-4.54h-62.87c-.45-6.81-.11-13.81,1.02-20.99,1.13-7.18,2.76-13.28,4.88-18.27h76.03c6.35,16.04,9.53,31.17,9.53,45.39,0,20.28-7.11,37.56-21.33,51.86-14.22,14.3-33.29,25.08-57.19,32.34-23.91,7.26-50.08,10.89-78.53,10.89Z" fill="#fff"/><path d="M1237.14,2411.41c-3.03,0-5.6-1.02-7.72-3.06-2.12-2.04-3.18-4.58-3.18-7.6s1.06-5.6,3.18-7.72c2.12-2.12,4.69-3.18,7.72-3.18s5.56,1.06,7.6,3.18c2.04,2.12,3.06,4.69,3.06,7.72s-1.02,5.56-3.06,7.6c-2.04,2.04-4.58,3.06-7.6,3.06ZM1237.14,2442.5c-3.03,0-5.6-1.02-7.72-3.06-2.12-2.04-3.18-4.58-3.18-7.6s1.06-5.6,3.18-7.72c2.12-2.12,4.69-3.18,7.72-3.18s5.56,1.06,7.6,3.18c2.04,2.12,3.06,4.69,3.06,7.72s-1.02,5.56-3.06,7.6-4.58,3.06-7.6,3.06Z" fill="#fff"/><path d="M1167.46,2377.36c-2.42-4.69-4.24-10.82-5.45-18.38-1.21-7.56-1.51-14.9-.91-22.01h1.13c15.28,0,32.79-2.04,52.54-6.13,19.75-4.08,36.65-9.65,50.73-16.68,14.07-7.04,21.11-14.64,21.11-22.81,0-4.54-2.04-7.9-6.13-10.1-4.08-2.19-9.91-3.29-17.48-3.29h-112.34c-.61-6.66-.34-13.58.79-20.77,1.13-7.18,2.68-13.35,4.65-18.5h136.17c5.29,8.78,7.79,18.69,7.49,29.73-.3,11.05-4.24,21.41-11.8,31.09l17.48,3.86c.76,2.88,1.28,6.47,1.59,10.78.3,4.31.3,8.21,0,11.69-8.17,11.05-19.78,20.43-34.84,28.14-15.06,7.72-31.62,13.54-49.7,17.48-18.08,3.94-35.97,5.9-53.67,5.9h-1.36Z" fill="#fff"/><path d="M1424.15,2411.41c-3.03,0-5.6-1.02-7.72-3.06-2.12-2.04-3.18-4.58-3.18-7.6s1.06-5.6,3.18-7.72c2.12-2.12,4.69-3.18,7.72-3.18s5.56,1.06,7.6,3.18c2.04,2.12,3.06,4.69,3.06,7.72s-1.02,5.56-3.06,7.6c-2.04,2.04-4.58,3.06-7.6,3.06Z" fill="#fff"/><path d="M1467.04,2223.26c-3.03,0-5.6-1.02-7.72-3.06-2.12-2.04-3.18-4.57-3.18-7.6s1.06-5.6,3.18-7.72c2.12-2.12,4.69-3.18,7.72-3.18s5.56,1.06,7.6,3.18c2.04,2.12,3.06,4.69,3.06,7.72s-1.02,5.37-3.06,7.49c-2.04,2.12-4.58,3.18-7.6,3.18Z" fill="#fff"/><path d="M1380.57,2379.63c-3.63-21.94-7.15-39-10.55-51.18-3.4-12.18-8.06-22.2-13.96-30.07-5.15-6.81-11.84-11.92-20.09-15.32-8.25-3.4-18.27-5.11-30.07-5.11-.45-7.41-.11-14.79,1.02-22.13,1.13-7.34,2.84-13.35,5.11-18.04,11.5,0,21.94,2.54,31.32,7.6,9.38,5.07,16.11,11.77,20.2,20.08h.68c4.08-8.32,10.89-15.01,20.43-20.08,9.53-5.07,20.2-7.6,32-7.6,2.57,4.69,4.65,10.78,6.24,18.27,1.59,7.49,2.38,14.72,2.38,21.67-17.4,0-31.43,2.57-42.1,7.72-10.67,5.15-16,12.48-16,22.01,0,8.93,3.86,19.22,11.58,30.87,22.09,0,42.25-1.93,60.48-5.79,18.23-3.86,32.68-9.49,43.35-16.91,10.67-7.41,16-16.19,16-26.33,0-3.48-1.1-6.24-3.29-8.28-2.2-2.04-5.11-3.06-8.74-3.06h-56.06c-.61-6.66-.34-13.58.79-20.77,1.13-7.18,2.84-13.35,5.11-18.5h55.6c6.5,15.28,9.76,30.18,9.76,44.71s-3.1,28.18-9.3,41.87c-6.21,13.7-15.43,26.89-27.69,39.6-9.84,4.39-22.47,7.94-37.9,10.67-15.43,2.72-30.87,4.08-46.3,4.08Z" fill="#fff"/><path d="M468.44,2651.98c-4.39-5.75-8.51-12.48-12.37-20.2s-6.77-15.21-8.74-22.47c9.08-5.45,17.02-12.22,23.83-20.31,6.81-8.09,10.21-16,10.21-23.72,0-4.54-1.7-8.17-5.11-10.89s-7.91-4.08-13.5-4.08H104.85c3.78,12.41,5.67,24.44,5.67,36.09,0,18.01-4.39,32.87-13.16,44.6-8.78,11.73-20.73,18.34-35.86,19.86-2.57-5.29-4.35-11.65-5.33-19.06-.99-7.41-1.1-14.9-.34-22.47,9.53,0,17.82-2.34,24.85-7.04,7.04-4.69,12.4-10.48,16.11-17.36,3.71-6.88,5.56-13.58,5.56-20.09s-.68-11.04-2.04-14.52h-50.61c-.45-6.81-.11-13.81,1.02-20.99,1.13-7.18,2.76-13.28,4.88-18.27h419.87c5.9,20.88,8.85,43.2,8.85,66.95,0,13.16-1.02,26.37-3.06,39.6-2.04,13.24-4.96,24.7-8.74,34.38h-4.09Z" fill="#fff"/><path d="M600.53,2649.71c-26.78-5.29-48.04-16-63.77-32.11-15.74-16.11-23.6-36.5-23.6-61.17,0-2.72.07-4.77.23-6.13h-24.74c-.45-6.81-.11-13.81,1.02-20.99,1.13-7.18,2.76-13.28,4.88-18.27h216.52c2.57-10.89,6.96-20.5,13.16-28.82,6.2-8.32,13.92-14.67,23.15-19.06,3.48,3.03,7.04,8.89,10.67,17.59,3.63,8.7,5.6,15.47,5.9,20.31-8.78-1.36-17.1-1.1-24.97.79-7.87,1.89-14.22,5.11-19.06,9.65,8.02.45,15.28,1.47,21.79,3.06,6.5,1.59,12.1,3.75,16.79,6.47,6.66,3.94,11.61,8.74,14.87,14.41,3.25,5.67,4.88,11.99,4.88,18.95l-2.27,2.95c-3.63-2.12-10.71-3.82-21.22-5.11-10.52-1.28-22.66-1.93-36.43-1.93h-179.98c-7.11,0-12.56,1.51-16.34,4.54-3.78,3.03-5.67,6.96-5.67,11.8,0,7.72,4.95,14.56,14.87,20.54,9.91,5.98,21.94,10.82,36.09,14.53,14.15,3.71,27.8,6.24,40.97,7.6.45,6.66,0,13.66-1.36,20.99-1.36,7.34-3.48,13.81-6.35,19.4Z" fill="#fff"/><path d="M834.52,2680.12c-.3-2.12-.45-4.65-.45-7.6s.15-5.26.45-6.92h47.66c.3,1.66.45,3.97.45,6.92s-.15,5.48-.45,7.6h-47.66Z" fill="#fff"/><path d="M852.45,2588.21c-3.03,0-5.6-1.02-7.72-3.06-2.12-2.04-3.18-4.58-3.18-7.6s1.06-5.6,3.18-7.72,4.69-3.18,7.72-3.18,5.56,1.06,7.6,3.18c2.04,2.12,3.06,4.69,3.06,7.72s-1.02,5.37-3.06,7.49c-2.04,2.12-4.58,3.18-7.6,3.18Z" fill="#fff"/><path d="M797.75,2649.71c-2.27-4.54-4.05-10.89-5.33-19.06-1.29-8.17-1.63-15.28-1.02-21.33,22.39,0,43.95-1.44,64.68-4.31,20.73-2.87,36.01-6.66,45.85-11.35,7.26-3.33,12.82-7.45,16.68-12.37,3.86-4.92,5.79-9.79,5.79-14.64s-1.93-8.77-5.79-11.8c-3.86-3.03-9.42-4.54-16.68-4.54h-120.51c-.3-6.81.04-13.81,1.02-20.99.98-7.18,2.46-13.28,4.43-18.27h133c2.87,8.17,4.99,16.08,6.36,23.72,1.36,7.64,2.04,14.87,2.04,21.67,0,20.43-5.64,37.64-16.91,51.63-11.27,14-26.71,24.44-46.3,31.32-19.6,6.89-42.03,10.33-67.29,10.33Z" fill="#fff"/><path d="M1044.45,2649.71c-26.78-5.29-48.04-16-63.77-32.11-15.74-16.11-23.6-36.5-23.6-61.17,0-2.72.07-4.77.23-6.13h-24.74c-.45-6.81-.11-13.81,1.02-20.99,1.13-7.18,2.76-13.28,4.88-18.27h216.52c2.57-10.89,6.96-20.5,13.16-28.82,6.2-8.32,13.92-14.67,23.15-19.06,3.48,3.03,7.04,8.89,10.67,17.59,3.63,8.7,5.6,15.47,5.9,20.31-8.78-1.36-17.1-1.1-24.96.79-7.87,1.89-14.22,5.11-19.06,9.65,8.02.45,15.28,1.47,21.79,3.06,6.5,1.59,12.1,3.75,16.79,6.47,6.66,3.94,11.61,8.74,14.87,14.41,3.25,5.67,4.88,11.99,4.88,18.95l-2.27,2.95c-3.63-2.12-10.71-3.82-21.22-5.11-10.52-1.28-22.66-1.93-36.43-1.93h-179.98c-7.11,0-12.56,1.51-16.34,4.54-3.78,3.03-5.67,6.96-5.67,11.8,0,7.72,4.95,14.56,14.87,20.54,9.91,5.98,21.94,10.82,36.09,14.53,14.15,3.71,27.8,6.24,40.97,7.6.45,6.66,0,13.66-1.36,20.99-1.36,7.34-3.48,13.81-6.36,19.4Z" fill="#fff"/><path d="M1393.28,2680.12c-.3-2.12-.45-4.65-.45-7.6s.15-5.26.45-6.92h47.66c.3,1.66.45,3.97.45,6.92s-.15,5.48-.45,7.6h-47.66Z" fill="#fff"/><path d="M1415.52,2649.71c-2.57-4.99-4.8-11.61-6.7-19.86-1.89-8.25-2.84-15.09-2.84-20.54,11.65-1.96,24.43-5.14,38.36-9.53,13.92-4.39,25.65-9.45,35.18-15.21,6.05-3.63,10.78-7.41,14.18-11.35,3.4-3.93,5.11-7.94,5.11-12.03,0-3.18-.99-5.79-2.95-7.83-1.97-2.04-4.84-3.06-8.62-3.06h-260.55c-.76-9.38-1.13-17.32-1.13-23.83,0-16.79,2.99-31.39,8.96-43.8,5.98-12.4,15.01-21.86,27.12-28.37,3.48,3.03,7.04,8.89,10.67,17.59,3.63,8.7,5.6,15.47,5.9,20.31-11.2-1.36-21.41-.38-30.64,2.95-9.23,3.33-15.58,8.62-19.06,15.89h263.72c6.36,15.74,9.53,31.47,9.53,47.21,0,12.86-3.6,25.53-10.78,38.01-7.19,12.48-17.33,23.49-30.41,33.02-13.09,9.53-28.11,16.34-45.05,20.43Z" fill="#fff"/><path d="M92.14,2965.18c-3.48-7.42-6.01-14.49-7.6-21.22-1.59-6.73-2.38-13.28-2.38-19.63,0-9.08,1.32-17.4,3.97-24.96,2.65-7.56,6.62-16.72,11.92-27.46,2.12-4.54,4.27-9.19,6.47-13.96,2.19-4.77,3.82-9.19,4.88-13.28,2.27-8.02,1.66-13.69-1.82-17.02-3.48-3.33-8.93-4.99-16.34-4.99h-40.63c-.3-6.81.15-13.81,1.36-20.99,1.21-7.18,2.95-13.28,5.22-18.27h47.43c2.27,4.69,4.09,10.63,5.45,17.82,1.36,7.19,2.04,14.34,2.04,21.45v8.28c0,2.8-.08,5.71-.23,8.74-.15,23,.11,41.57.79,55.72.68,14.15,2.68,24.32,6.01,30.53-2.12,6.5-5.22,13.35-9.31,20.54-4.08,7.18-8.4,13.43-12.94,18.72h-4.31Z" fill="#fff"/><path d="M221.51,2956.1c-3.03,0-5.6-1.02-7.72-3.06-2.12-2.04-3.18-4.58-3.18-7.6s1.06-5.6,3.18-7.72c2.12-2.12,4.69-3.18,7.72-3.18s5.56,1.06,7.6,3.18c2.04,2.12,3.06,4.69,3.06,7.72s-1.02,5.56-3.06,7.6c-2.04,2.04-4.58,3.06-7.6,3.06Z" fill="#fff"/><path d="M138.67,2922.06c-3.63-5.29-6.58-11.61-8.85-18.95-2.27-7.34-3.4-14.49-3.4-21.45,9.83,0,17.17-.07,22.02-.23-.91-22.24,3.55-41.83,13.39-58.78h-43.35c-.45-6.81-.11-13.81,1.02-20.99,1.13-7.18,2.76-13.28,4.88-18.27h47.89c2.27,3.03,4.46,9.08,6.58,18.16,7.41-6.66,15.58-11.76,24.51-15.32,8.93-3.55,18-5.33,27.23-5.33,12.26,0,23.98,3.18,35.18,9.53,11.2,6.36,20.27,15.93,27.23,28.71,6.96,12.79,10.44,28.48,10.44,47.09-3.18,8.78-13.16,17.51-29.96,26.21-16.79,8.7-37.37,15.81-61.73,21.33-24.36,5.53-48.72,8.28-73.08,8.28ZM150.47,2880.98c36.16-1.21,67.97-3.97,95.44-8.28,27.46-4.31,45.58-9.11,54.36-14.41,0-8.17-2.95-15.09-8.85-20.77s-13.58-9.91-23.04-12.71c-9.46-2.8-19.48-4.2-30.07-4.2-12.86,0-25.53,2.23-38.02,6.7-12.48,4.46-23.23,11.23-32.23,20.31-9,9.08-14.87,20.2-17.59,33.36Z" fill="#fff"/><path d="M413.97,2860.55c-3.03,0-5.6-1.02-7.72-3.06-2.12-2.04-3.18-4.58-3.18-7.6s1.06-5.6,3.18-7.72c2.12-2.12,4.69-3.18,7.72-3.18s5.56,1.06,7.6,3.18c2.04,2.12,3.06,4.69,3.06,7.72s-1.02,5.37-3.06,7.49c-2.04,2.12-4.58,3.18-7.6,3.18Z" fill="#fff"/><path d="M359.27,2922.06c-2.27-4.54-4.05-10.89-5.33-19.06-1.29-8.17-1.63-15.28-1.02-21.33,22.39,0,43.95-1.44,64.68-4.31,20.73-2.87,36.01-6.66,45.85-11.35,7.26-3.33,12.82-7.45,16.68-12.37,3.86-4.92,5.79-9.79,5.79-14.64s-1.93-8.77-5.79-11.8c-3.86-3.03-9.42-4.54-16.68-4.54h-120.51c-.3-6.81.04-13.81,1.02-20.99.98-7.18,2.46-13.28,4.43-18.27h133c2.87,8.17,4.99,16.08,6.35,23.72,1.36,7.64,2.04,14.87,2.04,21.67,0,20.43-5.64,37.64-16.91,51.63-11.27,14-26.71,24.44-46.3,31.32-19.6,6.89-42.03,10.33-67.29,10.33Z" fill="#fff"/><path d="M533.8,2872.81c5.6-5.14,10.1-10.93,13.5-17.36,3.4-6.43,5.11-12.37,5.11-17.82,0-4.54-1.33-8.17-3.97-10.89-2.65-2.72-6.77-4.08-12.37-4.08h-41.99c-.45-6.81-.11-13.81,1.02-20.99,1.13-7.18,2.76-13.28,4.88-18.27h56.29c4.84,8.62,7.26,18.61,7.26,29.96s-2.57,23.04-7.72,34.16c-5.15,11.12-12.11,20.16-20.88,27.12l-1.13-1.82Z" fill="#fff"/><path d="M615.5,2956.1c-3.03,0-5.6-1.02-7.72-3.06-2.12-2.04-3.18-4.58-3.18-7.6s1.06-5.6,3.18-7.72c2.12-2.12,4.69-3.18,7.72-3.18s5.56,1.06,7.6,3.18c2.04,2.12,3.06,4.69,3.06,7.72s-1.02,5.56-3.06,7.6c-2.04,2.04-4.58,3.06-7.6,3.06Z" fill="#fff"/><path d="M605.52,2858.28c-3.03,0-5.6-1.02-7.72-3.06-2.12-2.04-3.18-4.58-3.18-7.6s1.06-5.6,3.18-7.72c2.12-2.12,4.69-3.18,7.72-3.18s5.56,1.06,7.6,3.18c2.04,2.12,3.06,4.69,3.06,7.72s-1.02,5.37-3.06,7.49c-2.04,2.12-4.58,3.18-7.6,3.18Z" fill="#fff"/><path d="M581.46,2924.1c-2.72-5.45-4.62-12.06-5.67-19.86-1.06-7.79-1.06-15.32,0-22.58,9.68-.75,19.82-3.48,30.41-8.17,10.59-4.69,19.4-10.21,26.44-16.57,7.04-6.35,10.55-12.4,10.55-18.16,0-4.99-1.48-8.93-4.43-11.8-2.95-2.87-7.76-4.31-14.41-4.31h-54.24c-.45-6.81-.11-13.81,1.02-20.99,1.13-7.18,2.76-13.28,4.88-18.27h68.77c4.23,5.9,6.35,14.45,6.35,25.65,0,11.95-2.57,25.65-7.72,41.08.15,5.45,1.44,10.82,3.86,16.11,2.42,5.3,5.9,10.44,10.44,15.43,0,8.17-.42,16-1.25,23.49-.83,7.49-1.85,13.28-3.06,17.36h-6.35c-5.3-4.23-10.14-9.42-14.52-15.55-4.39-6.13-7.49-12.06-9.31-17.82h-1.13c-4.69,8.62-10.4,16.15-17.14,22.58-6.73,6.43-13.2,10.55-19.4,12.37h-4.08Z" fill="#fff"/><path d="M745.32,2956.1c-3.03,0-5.6-1.02-7.72-3.06-2.12-2.04-3.18-4.58-3.18-7.6s1.06-5.6,3.18-7.72c2.12-2.12,4.69-3.18,7.72-3.18s5.56,1.06,7.6,3.18c2.04,2.12,3.06,4.69,3.06,7.72s-1.02,5.56-3.06,7.6c-2.04,2.04-4.58,3.06-7.6,3.06ZM745.32,2987.19c-3.03,0-5.6-1.02-7.72-3.06-2.12-2.04-3.18-4.58-3.18-7.6s1.06-5.6,3.18-7.72c2.12-2.12,4.69-3.18,7.72-3.18s5.56,1.06,7.6,3.18c2.04,2.12,3.06,4.69,3.06,7.72s-1.02,5.56-3.06,7.6c-2.04,2.04-4.58,3.06-7.6,3.06Z" fill="#fff"/><path d="M717.63,2923.19c-12.86-17.1-22.55-34.12-29.05-51.07-6.51-16.94-9.61-33.44-9.31-49.48h-22.92c-.45-6.96-.15-14.03.91-21.22,1.06-7.18,2.65-13.2,4.77-18.04h162.27c2.27,5.15,4.39,12.37,6.35,21.67,1.96,9.31,2.95,18.35,2.95,27.12,0,18.01-4.8,33.89-14.41,47.66-9.61,13.77-23.19,24.44-40.74,32-17.55,7.57-37.83,11.35-60.82,11.35ZM707.65,2883.48c21.79,0,42.1-2,60.94-6.01,18.84-4.01,33.93-9.65,45.28-16.91s17.02-15.58,17.02-24.97c0-3.93-1.1-7.07-3.29-9.42-2.2-2.34-5.18-3.52-8.96-3.52h-136.4c0,6.35,1.28,13.58,3.86,21.67,2.57,8.1,5.82,15.74,9.76,22.92,3.93,7.19,7.87,12.6,11.8,16.23Z" fill="#fff"/><path d="M1142.72,2952.47c-.3-2.12-.45-4.65-.45-7.6s.15-5.26.45-6.92h47.66c.3,1.66.45,3.97.45,6.92s-.15,5.48-.45,7.6h-47.66Z" fill="#fff"/><path d="M959.12,2922.06c-26.78-5.29-48.04-16-63.78-32.11-15.74-16.11-23.6-36.5-23.6-61.17,0-2.72.08-4.77.23-6.13h-34.5c-.45-6.81-.11-13.81,1.02-20.99,1.13-7.18,2.76-13.28,4.88-18.27h523.13c2.12-11.5,6.39-21.67,12.82-30.53,6.43-8.85,14.41-15.55,23.94-20.09,3.48,3.03,7.04,8.89,10.67,17.59,3.63,8.7,5.6,15.47,5.9,20.31-9.69-1.36-18.72-.91-27.12,1.36s-14.87,6.05-19.4,11.35c8.77.45,16.57,1.29,23.38,2.5,6.81,1.21,12.63,2.95,17.48,5.22,8.17,3.78,14.26,8.74,18.27,14.87,4.01,6.13,6.01,13.05,6.01,20.77l-2.27,2.95c-3.63-2.12-10.71-3.82-21.22-5.11-10.52-1.28-22.66-1.93-36.43-1.93h-481.6c-7.11,0-12.56,1.51-16.34,4.54-3.78,3.03-5.67,6.96-5.67,11.8,0,7.72,4.95,14.56,14.87,20.54,9.91,5.98,21.94,10.82,36.09,14.53,14.15,3.71,27.8,6.24,40.96,7.6.45,6.66,0,13.66-1.36,20.99-1.36,7.34-3.48,13.81-6.35,19.4Z" fill="#fff"/><path d="M1462.05,2952.47c-.3-2.12-.45-4.65-.45-7.6s.15-5.26.45-6.92h47.66c.3,1.66.45,3.97.45,6.92s-.15,5.48-.45,7.6h-47.66Z" fill="#fff"/><path d="M1485.88,2924.33c-4.39-5.75-8.51-12.48-12.37-20.2s-6.77-15.21-8.74-22.47c9.99-5.29,18.19-11.95,24.62-19.97,6.43-8.02,9.65-15.73,9.65-23.15,0-4.84-1.55-8.7-4.65-11.58-3.1-2.87-7.83-4.31-14.18-4.31h-38.58c-.45-6.81-.11-13.81,1.02-20.99,1.13-7.18,2.76-13.28,4.88-18.27h45.39c5.9,20.88,8.85,43.2,8.85,66.95,0,13.16-1.02,26.37-3.06,39.6-2.04,13.24-4.96,24.7-8.74,34.38h-4.08Z" fill="#fff"/><path d="M93.73,3237.53c-3.48-7.42-6.01-14.49-7.6-21.22-1.59-6.73-2.38-13.28-2.38-19.63,0-9.08,1.32-17.4,3.97-24.96,2.65-7.56,6.62-16.72,11.92-27.46,2.12-4.54,4.27-9.19,6.47-13.96,2.19-4.77,3.82-9.19,4.88-13.28,2.27-8.02,1.66-13.69-1.82-17.02-3.48-3.33-8.93-4.99-16.34-4.99h-40.63c-.3-6.81.15-13.81,1.36-20.99,1.21-7.18,2.95-13.28,5.22-18.27h47.43c2.27,4.69,4.09,10.63,5.45,17.82,1.36,7.19,2.04,14.34,2.04,21.45v8.28c0,2.8-.08,5.71-.23,8.74-.15,23,.11,41.57.79,55.72.68,14.15,2.68,24.32,6.01,30.53-2.12,6.5-5.22,13.35-9.31,20.54-4.08,7.18-8.4,13.43-12.94,18.72h-4.31Z" fill="#fff"/><path d="M159.78,3145.15c5.6-5.14,10.1-10.93,13.5-17.36,3.4-6.43,5.11-12.37,5.11-17.82,0-4.54-1.33-8.17-3.97-10.89-2.65-2.72-6.77-4.08-12.37-4.08h-41.99c-.45-6.81-.11-13.81,1.02-20.99,1.13-7.18,2.76-13.28,4.88-18.27h56.29c4.84,8.62,7.26,18.61,7.26,29.96s-2.57,23.04-7.72,34.16c-5.15,11.12-12.11,20.16-20.88,27.12l-1.13-1.82Z" fill="#fff"/><path d="M283.92,3228.45c-3.03,0-5.6-1.02-7.72-3.06-2.12-2.04-3.18-4.58-3.18-7.6s1.06-5.6,3.18-7.72c2.12-2.12,4.69-3.18,7.72-3.18s5.56,1.06,7.6,3.18c2.04,2.12,3.06,4.69,3.06,7.72s-1.02,5.56-3.06,7.6c-2.04,2.04-4.58,3.06-7.6,3.06Z" fill="#fff"/><path d="M256.23,3195.54c-12.86-17.1-22.55-34.12-29.05-51.07-6.51-16.94-9.61-33.44-9.31-49.48h-22.92c-.45-6.96-.15-14.03.91-21.22,1.06-7.18,2.65-13.2,4.77-18.04h162.27c2.27,5.15,4.39,12.37,6.35,21.67,1.96,9.31,2.95,18.35,2.95,27.12,0,18.01-4.81,33.89-14.41,47.66-9.61,13.77-23.19,24.44-40.74,32-17.55,7.57-37.83,11.35-60.82,11.35ZM246.25,3155.82c21.79,0,42.1-2,60.94-6.01,18.84-4.01,33.93-9.65,45.28-16.91,11.35-7.26,17.02-15.58,17.02-24.97,0-3.93-1.1-7.07-3.29-9.42-2.19-2.34-5.18-3.52-8.96-3.52h-136.4c0,6.35,1.28,13.58,3.86,21.67,2.57,8.1,5.82,15.74,9.76,22.92,3.93,7.19,7.87,12.6,11.8,16.23Z" fill="#fff"/><path d="M498.17,3194.4c-26.78-5.29-48.04-16-63.77-32.11-15.74-16.11-23.6-36.5-23.6-61.17,0-2.72.07-4.77.23-6.13h-34.95c-.45-6.81-.11-13.81,1.02-20.99,1.13-7.18,2.76-13.28,4.88-18.27h531.08c2.27-11.5,6.54-21.67,12.82-30.53,6.28-8.85,14.33-15.55,24.17-20.09,3.48,3.03,7.04,8.89,10.67,17.59,3.63,8.7,5.6,15.47,5.9,20.31-9.69-1.36-18.8-.91-27.35,1.36-8.55,2.27-14.95,6.05-19.18,11.35,8.77.45,16.53,1.25,23.26,2.38,6.73,1.13,12.52,2.92,17.36,5.33,8.32,3.78,14.48,8.74,18.5,14.87,4.01,6.13,6.01,13.05,6.01,20.77l-2.27,2.95c-3.63-2.12-10.71-3.82-21.22-5.11-10.52-1.28-22.66-1.93-36.43-1.93h-489.32c-7.11,0-12.56,1.51-16.34,4.54-3.78,3.03-5.67,6.96-5.67,11.8,0,7.72,4.95,14.56,14.87,20.54,9.91,5.98,21.94,10.82,36.09,14.53,14.15,3.71,27.8,6.24,40.97,7.6.45,6.66,0,13.66-1.36,20.99-1.36,7.34-3.48,13.81-6.35,19.4Z" fill="#fff"/><path d="M1002.46,3224.82c-.3-2.12-.45-4.65-.45-7.6s.15-5.26.45-6.92h47.66c.3,1.66.45,3.97.45,6.92s-.15,5.48-.45,7.6h-47.66Z" fill="#fff"/><path d="M1028.11,3145.15c5.6-5.14,10.1-10.93,13.5-17.36,3.4-6.43,5.11-12.37,5.11-17.82,0-4.54-1.33-8.17-3.97-10.89-2.65-2.72-6.77-4.08-12.37-4.08h-41.99c-.45-6.81-.11-13.81,1.02-20.99,1.13-7.18,2.76-13.28,4.88-18.27h56.29c4.84,8.62,7.26,18.61,7.26,29.96s-2.57,23.04-7.72,34.16c-5.15,11.12-12.11,20.16-20.88,27.12l-1.13-1.82Z" fill="#fff"/><path d="M1148.4,3145.15c5.6-5.14,10.1-10.93,13.5-17.36,3.4-6.43,5.11-12.37,5.11-17.82,0-4.54-1.33-8.17-3.97-10.89-2.65-2.72-6.77-4.08-12.37-4.08h-41.99c-.45-6.81-.11-13.81,1.02-20.99,1.13-7.18,2.76-13.28,4.88-18.27h56.29c4.84,8.62,7.26,18.61,7.26,29.96s-2.57,23.04-7.72,34.16c-5.15,11.12-12.11,20.16-20.88,27.12l-1.13-1.82Z" fill="#fff"/><path d="M1217.39,3228.45c-3.03,0-5.6-1.02-7.72-3.06-2.12-2.04-3.18-4.58-3.18-7.6s1.06-5.6,3.18-7.72c2.12-2.12,4.69-3.18,7.72-3.18s5.56,1.06,7.6,3.18c2.04,2.12,3.06,4.69,3.06,7.72s-1.02,5.56-3.06,7.6c-2.04,2.04-4.58,3.06-7.6,3.06Z" fill="#fff"/><path d="M1201.28,3194.86c-2.57-5.14-4.58-11.23-6.01-18.27-1.44-7.04-2.16-14.56-2.16-22.58,10.59,0,20.01-1.96,28.26-5.9,8.24-3.93,14.64-9.11,19.18-15.55,4.54-6.43,6.81-13.28,6.81-20.54,0-6.2-2.04-11.88-6.13-17.02h-57.65c-.45-6.81-.11-13.81,1.02-20.99,1.13-7.18,2.76-13.28,4.88-18.27h51.52c6.2,17.7,9.3,35.26,9.3,52.65,0,24.21-3.75,43.88-11.23,59.01-7.49,15.13-20.09,24.28-37.79,27.46Z" fill="#fff"/><path d="M1293.88,3145.15c5.6-5.14,10.1-10.93,13.5-17.36,3.4-6.43,5.11-12.37,5.11-17.82,0-4.54-1.33-8.17-3.97-10.89-2.65-2.72-6.77-4.08-12.37-4.08h-41.99c-.45-6.81-.11-13.81,1.02-20.99,1.13-7.18,2.76-13.28,4.88-18.27h56.29c4.84,8.62,7.26,18.61,7.26,29.96s-2.57,23.04-7.72,34.16c-5.15,11.12-12.11,20.16-20.88,27.12l-1.13-1.82Z" fill="#fff"/><path d="M1404.18,3228.45c-3.03,0-5.6-1.02-7.72-3.06-2.12-2.04-3.18-4.58-3.18-7.6s1.06-5.6,3.18-7.72c2.12-2.12,4.69-3.18,7.72-3.18s5.56,1.06,7.6,3.18c2.04,2.12,3.06,4.69,3.06,7.72s-1.02,5.56-3.06,7.6c-2.04,2.04-4.58,3.06-7.6,3.06ZM1418.93,3255c-3.03,0-5.6-1.02-7.72-3.06-2.12-2.04-3.18-4.58-3.18-7.6s1.06-5.6,3.18-7.72c2.12-2.12,4.69-3.18,7.72-3.18s5.56,1.06,7.6,3.18c2.04,2.12,3.06,4.69,3.06,7.72s-1.02,5.56-3.06,7.6-4.58,3.06-7.6,3.06ZM1433.45,3228.45c-3.03,0-5.6-1.02-7.72-3.06-2.12-2.04-3.18-4.58-3.18-7.6s1.06-5.6,3.18-7.72c2.12-2.12,4.69-3.18,7.72-3.18s5.56,1.06,7.6,3.18c2.04,2.12,3.06,4.69,3.06,7.72s-1.02,5.56-3.06,7.6c-2.04,2.04-4.58,3.06-7.6,3.06Z" fill="#fff"/><path d="M1344.26,3196.22c-2.58-4.54-4.62-11.2-6.13-19.97-1.51-8.77-1.89-16.19-1.13-22.24,16.64,0,33.36-.53,50.16-1.59,6.05-3.78,10.67-8.7,13.84-14.75,3.18-6.05,4.77-12.1,4.77-18.16,0-6.96-2.12-12.78-6.35-17.48-4.24-4.69-10.21-7.04-17.93-7.04h-52.43c-.45-6.81-.11-13.81,1.02-20.99,1.13-7.18,2.76-13.28,4.88-18.27h58.33c5.6,14.53,9.91,29.96,12.94,46.3,3.02,16.34,4.46,32.53,4.31,48.57,27.38-2.87,47.21-6.96,59.46-12.26,8.77-3.63,15.43-7.94,19.97-12.94,4.54-4.99,6.81-9.83,6.81-14.53s-2.16-8.32-6.47-11.35c-4.31-3.03-10.18-4.54-17.59-4.54h-62.87c-.45-6.81-.11-13.81,1.02-20.99,1.13-7.18,2.76-13.28,4.88-18.27h76.03c6.35,16.04,9.53,31.17,9.53,45.39,0,20.28-7.11,37.56-21.33,51.86-14.22,14.3-33.29,25.08-57.19,32.34-23.91,7.26-50.08,10.89-78.53,10.89Z" fill="#fff"/><path d="M89.65,3417.5c5.6-5.14,10.1-10.93,13.5-17.36,3.4-6.43,5.11-12.37,5.11-17.82,0-4.54-1.33-8.17-3.97-10.89-2.65-2.72-6.77-4.08-12.37-4.08h-41.99c-.45-6.81-.11-13.81,1.02-20.99,1.13-7.18,2.76-13.28,4.88-18.27h56.29c4.84,8.62,7.26,18.61,7.26,29.96s-2.57,23.04-7.72,34.16c-5.15,11.12-12.11,20.16-20.88,27.12l-1.13-1.82Z" fill="#fff"/><path d="M158.64,3500.79c-3.03,0-5.6-1.02-7.72-3.06-2.12-2.04-3.18-4.58-3.18-7.6s1.06-5.6,3.18-7.72c2.12-2.12,4.69-3.18,7.72-3.18s5.56,1.06,7.6,3.18c2.04,2.12,3.06,4.69,3.06,7.72s-1.02,5.56-3.06,7.6c-2.04,2.04-4.58,3.06-7.6,3.06Z" fill="#fff"/><path d="M142.53,3467.21c-2.57-5.14-4.58-11.23-6.01-18.27-1.44-7.04-2.16-14.56-2.16-22.58,10.59,0,20.01-1.96,28.26-5.9,8.25-3.93,14.64-9.11,19.18-15.55,4.54-6.43,6.81-13.28,6.81-20.54,0-6.2-2.04-11.88-6.13-17.02h-57.65c-.45-6.81-.11-13.81,1.02-20.99,1.13-7.18,2.76-13.28,4.88-18.27h51.52c6.2,17.7,9.31,35.26,9.31,52.65,0,24.21-3.74,43.88-11.23,59.01-7.49,15.13-20.09,24.28-37.79,27.46Z" fill="#fff"/><path d="M235.13,3417.5c5.6-5.14,10.1-10.93,13.5-17.36,3.4-6.43,5.11-12.37,5.11-17.82,0-4.54-1.33-8.17-3.97-10.89-2.65-2.72-6.77-4.08-12.37-4.08h-41.99c-.45-6.81-.11-13.81,1.02-20.99,1.13-7.18,2.76-13.28,4.88-18.27h56.29c4.84,8.62,7.26,18.61,7.26,29.96s-2.57,23.04-7.72,34.16c-5.15,11.12-12.11,20.16-20.88,27.12l-1.13-1.82Z" fill="#fff"/><path d="M345.43,3500.79c-3.03,0-5.6-1.02-7.72-3.06-2.12-2.04-3.18-4.58-3.18-7.6s1.06-5.6,3.18-7.72c2.12-2.12,4.69-3.18,7.72-3.18s5.56,1.06,7.6,3.18c2.04,2.12,3.06,4.69,3.06,7.72s-1.02,5.56-3.06,7.6c-2.04,2.04-4.58,3.06-7.6,3.06ZM360.18,3527.35c-3.03,0-5.6-1.02-7.72-3.06-2.12-2.04-3.18-4.58-3.18-7.6s1.06-5.6,3.18-7.72c2.12-2.12,4.69-3.18,7.72-3.18s5.56,1.06,7.6,3.18c2.04,2.12,3.06,4.69,3.06,7.72s-1.02,5.56-3.06,7.6c-2.04,2.04-4.58,3.06-7.6,3.06ZM374.7,3500.79c-3.03,0-5.6-1.02-7.72-3.06-2.12-2.04-3.18-4.58-3.18-7.6s1.06-5.6,3.18-7.72c2.12-2.12,4.69-3.18,7.72-3.18s5.56,1.06,7.6,3.18c2.04,2.12,3.06,4.69,3.06,7.72s-1.02,5.56-3.06,7.6c-2.04,2.04-4.58,3.06-7.6,3.06Z" fill="#fff"/><path d="M285.51,3468.57c-2.57-4.54-4.62-11.2-6.13-19.97-1.51-8.77-1.89-16.19-1.13-22.24,16.64,0,33.36-.53,50.16-1.59,6.05-3.78,10.67-8.7,13.84-14.75,3.18-6.05,4.77-12.1,4.77-18.16,0-6.96-2.12-12.78-6.35-17.48-4.24-4.69-10.21-7.04-17.93-7.04h-52.43c-.45-6.81-.11-13.81,1.02-20.99,1.13-7.18,2.76-13.28,4.88-18.27h58.33c5.6,14.53,9.91,29.96,12.94,46.3,3.02,16.34,4.46,32.53,4.31,48.57,27.38-2.87,47.21-6.96,59.46-12.26,8.77-3.63,15.43-7.94,19.97-12.94,4.54-4.99,6.81-9.83,6.81-14.53s-2.16-8.32-6.47-11.35c-4.31-3.03-10.18-4.54-17.59-4.54h-62.87c-.45-6.81-.11-13.81,1.02-20.99,1.13-7.18,2.76-13.28,4.88-18.27h76.03c6.35,16.04,9.53,31.17,9.53,45.39,0,20.28-7.11,37.56-21.33,51.86-14.22,14.3-33.29,25.08-57.19,32.34-23.91,7.26-50.08,10.89-78.53,10.89Z" fill="#fff"/><path d="M604.16,3466.75c-26.78-5.29-48.04-16-63.77-32.11-15.74-16.11-23.6-36.5-23.6-61.17,0-2.72.07-4.77.23-6.13h-24.74c-.45-6.81-.11-13.81,1.02-20.99,1.13-7.18,2.76-13.28,4.88-18.27h216.52c2.57-10.89,6.96-20.5,13.16-28.82,6.2-8.32,13.92-14.67,23.15-19.06,3.48,3.03,7.04,8.89,10.67,17.59,3.63,8.7,5.6,15.47,5.9,20.31-8.78-1.36-17.1-1.1-24.97.79-7.87,1.89-14.22,5.11-19.06,9.65,8.02.45,15.28,1.47,21.79,3.06,6.5,1.59,12.1,3.75,16.79,6.47,6.66,3.94,11.61,8.74,14.87,14.41,3.25,5.67,4.88,11.99,4.88,18.95l-2.27,2.95c-3.63-2.12-10.71-3.82-21.22-5.11-10.52-1.28-22.66-1.93-36.43-1.93h-179.98c-7.11,0-12.56,1.51-16.34,4.54-3.78,3.03-5.67,6.96-5.67,11.8,0,7.72,4.95,14.56,14.87,20.54,9.91,5.98,21.94,10.82,36.09,14.53,14.15,3.71,27.8,6.24,40.97,7.6.45,6.66,0,13.66-1.36,20.99-1.36,7.34-3.48,13.81-6.35,19.4Z" fill="#fff"/><path d="M952.99,3497.16c-.3-2.12-.45-4.65-.45-7.6s.15-5.26.45-6.92h47.66c.3,1.66.45,3.97.45,6.92s-.15,5.48-.45,7.6h-47.66Z" fill="#fff"/><path d="M975.23,3466.75c-2.57-4.99-4.8-11.61-6.7-19.86-1.89-8.25-2.84-15.09-2.84-20.54,11.65-1.96,24.43-5.14,38.36-9.53,13.92-4.39,25.65-9.45,35.18-15.21,6.05-3.63,10.78-7.41,14.19-11.35,3.4-3.93,5.11-7.94,5.11-12.03,0-3.18-.98-5.79-2.95-7.83-1.97-2.04-4.84-3.06-8.62-3.06h-260.54c-.76-9.38-1.13-17.32-1.13-23.83,0-16.79,2.99-31.39,8.96-43.8,5.97-12.4,15.01-21.86,27.12-28.37,3.48,3.03,7.04,8.89,10.67,17.59,3.63,8.7,5.6,15.47,5.9,20.31-11.2-1.36-21.41-.38-30.64,2.95-9.23,3.33-15.58,8.62-19.06,15.89h263.72c6.36,15.74,9.53,31.47,9.53,47.21,0,12.86-3.6,25.53-10.78,38.01-7.19,12.48-17.33,23.49-30.41,33.02-13.09,9.53-28.11,16.34-45.05,20.43Z" fill="#fff"/><path d="M1276.17,3500.79c-3.03,0-5.6-1.02-7.72-3.06-2.12-2.04-3.18-4.58-3.18-7.6s1.06-5.6,3.18-7.72c2.12-2.12,4.69-3.18,7.72-3.18s5.56,1.06,7.6,3.18c2.04,2.12,3.06,4.69,3.06,7.72s-1.02,5.56-3.06,7.6-4.58,3.06-7.6,3.06ZM1290.93,3527.35c-3.03,0-5.6-1.02-7.72-3.06-2.12-2.04-3.18-4.58-3.18-7.6s1.06-5.6,3.18-7.72c2.12-2.12,4.69-3.18,7.72-3.18s5.56,1.06,7.6,3.18c2.04,2.12,3.06,4.69,3.06,7.72s-1.02,5.56-3.06,7.6c-2.04,2.04-4.58,3.06-7.6,3.06ZM1305.45,3500.79c-3.03,0-5.6-1.02-7.72-3.06-2.12-2.04-3.18-4.58-3.18-7.6s1.06-5.6,3.18-7.72c2.12-2.12,4.69-3.18,7.72-3.18s5.56,1.06,7.6,3.18c2.04,2.12,3.06,4.69,3.06,7.72s-1.02,5.56-3.06,7.6-4.58,3.06-7.6,3.06ZM1334.95,3500.79c-3.03,0-5.6-1.02-7.72-3.06-2.12-2.04-3.18-4.58-3.18-7.6s1.06-5.6,3.18-7.72c2.12-2.12,4.69-3.18,7.72-3.18s5.56,1.06,7.6,3.18c2.04,2.12,3.06,4.69,3.06,7.72s-1.02,5.56-3.06,7.6c-2.04,2.04-4.58,3.06-7.6,3.06ZM1334.95,3531.89c-3.03,0-5.6-1.02-7.72-3.06-2.12-2.04-3.18-4.58-3.18-7.6s1.06-5.6,3.18-7.72c2.12-2.12,4.69-3.18,7.72-3.18s5.56,1.06,7.6,3.18c2.04,2.12,3.06,4.69,3.06,7.72s-1.02,5.56-3.06,7.6c-2.04,2.04-4.58,3.06-7.6,3.06Z" fill="#fff"/><path d="M1181.76,3466.75c-26.78-5.29-48.04-16-63.77-32.11-15.74-16.11-23.6-36.5-23.6-61.17,0-2.72.07-4.77.23-6.13h-29.28c-.45-6.81-.11-13.81,1.02-20.99,1.13-7.18,2.76-13.28,4.88-18.27h361.77c2.27-11.2,6.54-21.07,12.82-29.62,6.28-8.55,14.18-15.09,23.72-19.63,3.48,3.03,7.04,8.89,10.67,17.59,3.63,8.7,5.6,15.47,5.9,20.31-9.08-1.21-17.74-.79-25.99,1.25-8.25,2.04-14.72,5.56-19.41,10.55,8.62.3,16.23,1.17,22.81,2.61,6.58,1.44,12.29,3.44,17.13,6.01,7.41,3.78,12.9,8.62,16.45,14.53,3.55,5.9,5.33,12.48,5.33,19.75l-2.27,2.95c-3.63-2.12-10.71-3.82-21.22-5.11-10.52-1.28-22.66-1.93-36.43-1.93h-322.96c-7.11,0-12.56,1.51-16.34,4.54-3.78,3.03-5.67,6.96-5.67,11.8,0,7.72,4.95,14.56,14.87,20.54,9.91,5.98,21.94,10.82,36.09,14.53,14.15,3.71,27.8,6.24,40.97,7.6.45,6.66,0,13.66-1.36,20.99-1.36,7.34-3.48,13.81-6.36,19.4Z" fill="#fff"/><path d="M332.72,3773.14c-3.03,0-5.6-1.02-7.72-3.06-2.12-2.04-3.18-4.58-3.18-7.6s1.06-5.6,3.18-7.72c2.12-2.12,4.69-3.18,7.72-3.18s5.56,1.06,7.6,3.18c2.04,2.12,3.06,4.69,3.06,7.72s-1.02,5.56-3.06,7.6c-2.04,2.04-4.58,3.06-7.6,3.06ZM332.72,3804.24c-3.03,0-5.6-1.02-7.72-3.06-2.12-2.04-3.18-4.58-3.18-7.6s1.06-5.6,3.18-7.72c2.12-2.12,4.69-3.18,7.72-3.18s5.56,1.06,7.6,3.18c2.04,2.12,3.06,4.69,3.06,7.72s-1.02,5.56-3.06,7.6c-2.04,2.04-4.58,3.06-7.6,3.06Z" fill="#fff"/><path d="M86.7,3741.37c-3.78-9.68-6.7-21.14-8.74-34.38-2.04-13.24-3.06-26.44-3.06-39.6,0-9.38.45-18.61,1.36-27.69h-27.01c-.45-6.81-.11-13.81,1.02-20.99,1.13-7.18,2.76-13.28,4.88-18.27h513.6c5.9,20.88,8.85,43.2,8.85,66.95,0,13.16-1.02,26.37-3.06,39.6-2.04,13.24-4.96,24.7-8.74,34.38h-4.09c-4.39-5.75-8.51-12.48-12.37-20.2-3.86-7.72-6.77-15.21-8.74-22.47,10.14-4.99,18.46-11.54,24.97-19.63,6.5-8.09,9.76-15.85,9.76-23.26,0-4.84-1.55-8.74-4.65-11.69-3.1-2.95-7.83-4.42-14.18-4.42H96c-6.35,0-11.05,1.44-14.07,4.31-3.03,2.88-4.54,6.81-4.54,11.8,0,7.57,3.29,15.43,9.87,23.6,6.58,8.17,14.79,14.6,24.62,19.29-1.97,7.26-4.88,14.75-8.74,22.47s-7.98,14.45-12.37,20.2h-4.08Z" fill="#fff"/><path d="M634.8,3769.51c-.31-2.12-.45-4.65-.45-7.6s.15-5.26.45-6.92h47.66c.3,1.66.45,3.97.45,6.92s-.15,5.48-.45,7.6h-47.66Z" fill="#fff"/><path d="M652.73,3677.59c-3.03,0-5.6-1.02-7.72-3.06-2.12-2.04-3.18-4.58-3.18-7.6s1.06-5.6,3.18-7.72c2.12-2.12,4.69-3.18,7.72-3.18s5.56,1.06,7.6,3.18c2.04,2.12,3.06,4.69,3.06,7.72s-1.02,5.37-3.06,7.49c-2.04,2.12-4.58,3.18-7.6,3.18Z" fill="#fff"/><path d="M598.03,3739.1c-2.27-4.54-4.05-10.89-5.33-19.06-1.29-8.17-1.63-15.28-1.02-21.33,22.39,0,43.95-1.44,64.68-4.31,20.73-2.87,36.01-6.66,45.85-11.35,7.26-3.33,12.82-7.45,16.68-12.37,3.86-4.92,5.79-9.79,5.79-14.64s-1.93-8.77-5.79-11.8c-3.86-3.03-9.42-4.54-16.68-4.54h-120.51c-.3-6.81.04-13.81,1.02-20.99.98-7.18,2.46-13.28,4.43-18.27h133c2.87,8.17,4.99,16.08,6.35,23.72,1.36,7.64,2.04,14.87,2.04,21.67,0,20.43-5.64,37.64-16.91,51.63-11.27,14-26.71,24.44-46.3,31.32-19.6,6.89-42.03,10.33-67.29,10.33Z" fill="#fff"/><path d="M924.62,3773.14c-3.03,0-5.6-1.02-7.72-3.06-2.12-2.04-3.18-4.58-3.18-7.6s1.06-5.6,3.18-7.72c2.12-2.12,4.69-3.18,7.72-3.18s5.56,1.06,7.6,3.18c2.04,2.12,3.06,4.69,3.06,7.72s-1.02,5.56-3.06,7.6c-2.04,2.04-4.58,3.06-7.6,3.06ZM924.62,3804.24c-3.03,0-5.6-1.02-7.72-3.06-2.12-2.04-3.18-4.58-3.18-7.6s1.06-5.6,3.18-7.72c2.12-2.12,4.69-3.18,7.72-3.18s5.56,1.06,7.6,3.18c2.04,2.12,3.06,4.69,3.06,7.72s-1.02,5.56-3.06,7.6-4.58,3.06-7.6,3.06Z" fill="#fff"/><path d="M923.03,3739.1c-2.57-4.99-4.8-11.61-6.7-19.86-1.89-8.25-2.84-15.09-2.84-20.54,11.65-1.96,24.43-5.14,38.36-9.53,13.92-4.39,25.65-9.45,35.18-15.21,6.05-3.63,10.78-7.41,14.18-11.35,3.4-3.93,5.11-7.94,5.11-12.03,0-3.18-.99-5.79-2.95-7.83-1.97-2.04-4.84-3.06-8.62-3.06h-260.55c-.76-9.38-1.13-17.32-1.13-23.83,0-16.79,2.99-31.39,8.96-43.8,5.98-12.4,15.01-21.86,27.12-28.37,3.48,3.03,7.04,8.89,10.67,17.59,3.63,8.7,5.6,15.47,5.9,20.31-11.2-1.36-21.41-.38-30.64,2.95-9.23,3.33-15.59,8.62-19.06,15.89h263.72c6.36,15.74,9.53,31.47,9.53,47.21,0,12.86-3.6,25.53-10.78,38.01-7.19,12.48-17.33,23.49-30.41,33.02-13.09,9.53-28.11,16.34-45.05,20.43Z" fill="#fff"/><path d="M1125.02,3739.1c-26.78-5.29-48.04-16-63.77-32.11-15.74-16.11-23.6-36.5-23.6-61.17,0-2.72.07-4.77.23-6.13h-24.74c-.45-6.81-.11-13.81,1.02-20.99,1.13-7.18,2.76-13.28,4.88-18.27h216.52c2.57-10.89,6.96-20.5,13.16-28.82,6.2-8.32,13.92-14.67,23.15-19.06,3.48,3.03,7.04,8.89,10.67,17.59,3.63,8.7,5.6,15.47,5.9,20.31-8.78-1.36-17.1-1.1-24.96.79-7.87,1.89-14.22,5.11-19.06,9.65,8.02.45,15.28,1.47,21.79,3.06,6.5,1.59,12.1,3.75,16.79,6.47,6.66,3.94,11.61,8.74,14.87,14.41,3.25,5.67,4.88,11.99,4.88,18.95l-2.27,2.95c-3.63-2.12-10.71-3.82-21.22-5.11-10.52-1.28-22.66-1.93-36.43-1.93h-179.98c-7.11,0-12.56,1.51-16.34,4.54-3.78,3.03-5.67,6.96-5.67,11.8,0,7.72,4.95,14.56,14.87,20.54,9.91,5.98,21.94,10.82,36.09,14.53,14.15,3.71,27.8,6.24,40.97,7.6.45,6.66,0,13.66-1.36,20.99-1.36,7.34-3.48,13.81-6.36,19.4Z" fill="#fff"/><path d="M1400.32,3769.51c-.3-2.12-.45-4.65-.45-7.6s.15-5.26.45-6.92h47.66c.3,1.66.45,3.97.45,6.92s-.15,5.48-.45,7.6h-47.66Z" fill="#fff"/><path d="M1467.04,3585c-3.03,0-5.6-1.02-7.72-3.06-2.12-2.04-3.18-4.57-3.18-7.6s1.06-5.6,3.18-7.72c2.12-2.12,4.69-3.18,7.72-3.18s5.56,1.06,7.6,3.18c2.04,2.12,3.06,4.69,3.06,7.72s-1.02,5.37-3.06,7.49c-2.04,2.12-4.58,3.18-7.6,3.18Z" fill="#fff"/><path d="M1380.57,3741.37c-3.63-21.94-7.15-39-10.55-51.18-3.4-12.18-8.06-22.2-13.96-30.07-5.15-6.81-11.84-11.92-20.09-15.32-8.25-3.4-18.27-5.11-30.07-5.11-.45-7.41-.11-14.79,1.02-22.13,1.13-7.34,2.84-13.35,5.11-18.04,11.5,0,21.94,2.54,31.32,7.6,9.38,5.07,16.11,11.77,20.2,20.08h.68c4.08-8.32,10.89-15.01,20.43-20.08,9.53-5.07,20.2-7.6,32-7.6,2.57,4.69,4.65,10.78,6.24,18.27,1.59,7.49,2.38,14.72,2.38,21.67-17.4,0-31.43,2.57-42.1,7.72-10.67,5.15-16,12.48-16,22.01,0,8.93,3.86,19.22,11.58,30.87,22.09,0,42.25-1.93,60.48-5.79,18.23-3.86,32.68-9.49,43.35-16.91,10.67-7.41,16-16.19,16-26.33,0-3.48-1.1-6.24-3.29-8.28-2.2-2.04-5.11-3.06-8.74-3.06h-56.06c-.61-6.66-.34-13.58.79-20.77,1.13-7.18,2.84-13.35,5.11-18.5h55.6c6.5,15.28,9.76,30.18,9.76,44.71s-3.1,28.18-9.3,41.87c-6.21,13.7-15.43,26.89-27.69,39.6-9.84,4.39-22.47,7.94-37.9,10.67-15.43,2.72-30.87,4.08-46.3,4.08Z" fill="#fff"/><path d="M578.28,4013.72c-4.39-5.75-8.51-12.48-12.37-20.2-3.86-7.72-6.77-15.13-8.74-22.24,10.44-6.81,18.84-14.3,25.19-22.47,6.35-8.17,9.53-15.51,9.53-22.01,0-4.54-1.55-8.13-4.65-10.78-3.1-2.65-7.83-3.97-14.18-3.97H49.93c-.45-6.81-.11-13.81,1.02-20.99,1.13-7.18,2.76-13.28,4.88-18.27h529.49c5.9,20.88,8.85,43.2,8.85,66.95,0,13.16-1.02,26.37-3.06,39.6-2.04,13.24-4.96,24.7-8.74,34.38h-4.09ZM98.95,4013.72c-6.51-7.11-10.97-15.62-13.39-25.53-2.42-9.91-2.8-20.2-1.13-30.87,1.66-10.67,5.07-20.69,10.21-30.07h2.5c0,10.74,2.27,19.94,6.81,27.57,4.54,7.64,11.12,13.05,19.75,16.23-1.97,8.02-4.99,15.93-9.08,23.72-4.09,7.79-8.55,14.11-13.39,18.95h-2.27Z" fill="#fff"/><path d="M1401.45,4045.49c-3.03,0-5.6-1.02-7.72-3.06-2.12-2.04-3.18-4.58-3.18-7.6s1.06-5.6,3.18-7.72c2.12-2.12,4.69-3.18,7.72-3.18s5.56,1.06,7.6,3.18c2.04,2.12,3.06,4.69,3.06,7.72s-1.02,5.56-3.06,7.6c-2.04,2.04-4.58,3.06-7.6,3.06ZM1416.2,4072.04c-3.03,0-5.6-1.02-7.72-3.06-2.12-2.04-3.18-4.58-3.18-7.6s1.06-5.6,3.18-7.72c2.12-2.12,4.69-3.18,7.72-3.18s5.56,1.06,7.6,3.18c2.04,2.12,3.06,4.69,3.06,7.72s-1.02,5.56-3.06,7.6-4.58,3.06-7.6,3.06ZM1430.73,4045.49c-3.03,0-5.6-1.02-7.72-3.06-2.12-2.04-3.18-4.58-3.18-7.6s1.06-5.6,3.18-7.72c2.12-2.12,4.69-3.18,7.72-3.18s5.56,1.06,7.6,3.18c2.04,2.12,3.06,4.69,3.06,7.72s-1.02,5.56-3.06,7.6c-2.04,2.04-4.58,3.06-7.6,3.06Z" fill="#fff"/><path d="M1415.52,4011.45c-2.57-4.99-4.8-11.61-6.7-19.86-1.89-8.25-2.84-15.09-2.84-20.54,11.65-1.96,24.43-5.14,38.36-9.53,13.92-4.39,25.65-9.45,35.18-15.21,6.05-3.63,10.78-7.41,14.19-11.35,3.4-3.93,5.11-7.94,5.11-12.03,0-3.18-.99-5.79-2.95-7.83-1.97-2.04-4.85-3.06-8.62-3.06h-887.85c-.76-9.38-1.13-17.32-1.13-23.83,0-17.7,2.65-32.83,7.94-45.39,5.29-12.56,14.07-23.38,26.33-32.46,3.48,3.03,7.04,8.89,10.67,17.59,3.63,8.7,5.6,15.47,5.9,20.31-10.75,0-20.5,2.23-29.28,6.7-8.78,4.46-14.98,10.4-18.61,17.82h891.03c6.36,15.74,9.53,31.47,9.53,47.21,0,12.71-3.74,25.31-11.23,37.79s-17.78,23.53-30.87,33.14c-13.09,9.61-27.8,16.45-44.14,20.54Z" fill="#fff"/><path d="M73.99,4222.51c-3.03,0-5.6-1.02-7.72-3.06-2.12-2.04-3.18-4.58-3.18-7.6s1.06-5.6,3.18-7.72c2.12-2.12,4.69-3.18,7.72-3.18s5.56,1.06,7.6,3.18c2.04,2.12,3.06,4.69,3.06,7.72s-1.02,5.37-3.06,7.49c-2.04,2.12-4.58,3.18-7.6,3.18Z" fill="#fff"/><path d="M91.69,4286.06c-4.39-5.75-8.51-12.48-12.37-20.2-3.86-7.72-6.77-15.21-8.74-22.47,9.99-5.29,18.19-11.95,24.62-19.97,6.43-8.02,9.65-15.73,9.65-23.15,0-4.84-1.55-8.7-4.65-11.58-3.1-2.87-7.83-4.31-14.19-4.31h-38.58c-.45-6.81-.11-13.81,1.02-20.99,1.13-7.18,2.76-13.28,4.88-18.27h45.39c5.9,20.88,8.85,43.2,8.85,66.95,0,13.16-1.02,26.37-3.06,39.6-2.04,13.24-4.96,24.7-8.74,34.38h-4.09Z" fill="#fff"/><path d="M301.62,4283.79c-2.57-4.99-4.81-11.61-6.7-19.86-1.89-8.25-2.84-15.09-2.84-20.54,11.65-1.96,24.43-5.14,38.36-9.53,13.92-4.39,25.65-9.45,35.18-15.21,6.05-3.63,10.78-7.41,14.18-11.35,3.4-3.93,5.11-7.94,5.11-12.03,0-3.18-.99-5.79-2.95-7.83-1.97-2.04-4.84-3.06-8.62-3.06H112.8c-.76-9.38-1.13-17.32-1.13-23.83,0-16.79,2.99-31.39,8.96-43.8,5.98-12.4,15.01-21.86,27.12-28.37,3.48,3.03,7.04,8.89,10.67,17.59,3.63,8.7,5.6,15.47,5.9,20.31-11.2-1.36-21.41-.38-30.64,2.95-9.23,3.33-15.59,8.62-19.06,15.89h263.72c6.35,15.74,9.53,31.47,9.53,47.21,0,12.86-3.6,25.53-10.78,38.01-7.19,12.48-17.33,23.49-30.41,33.02-13.09,9.53-28.11,16.34-45.05,20.43Z" fill="#fff"/><path d="M511.56,4283.79c-26.78-5.29-48.04-16-63.77-32.11-15.74-16.11-23.6-36.5-23.6-61.17,0-2.72.07-4.77.23-6.13h-32.68c-.45-6.81-.11-13.81,1.02-20.99,1.13-7.18,2.76-13.28,4.88-18.27h458.68c2.27-11.5,6.54-21.6,12.82-30.3,6.28-8.7,14.19-15.32,23.72-19.86,3.48,3.03,7.04,8.89,10.67,17.59,3.63,8.7,5.6,15.47,5.9,20.31-9.38-1.36-18.23-.94-26.55,1.25-8.32,2.2-14.75,5.87-19.29,11.01,8.62.45,16.26,1.33,22.92,2.61,6.66,1.29,12.4,3.14,17.25,5.56,8.02,3.78,13.96,8.7,17.82,14.75,3.86,6.05,5.79,12.86,5.79,20.43l-2.27,2.95c-3.63-2.12-10.71-3.82-21.22-5.11-10.52-1.28-22.66-1.93-36.43-1.93h-418.05c-7.11,0-12.56,1.51-16.34,4.54-3.78,3.03-5.67,6.96-5.67,11.8,0,7.72,4.95,14.56,14.87,20.54,9.91,5.98,21.94,10.82,36.09,14.53,14.15,3.71,27.8,6.24,40.97,7.6.45,6.66,0,13.66-1.36,20.99-1.36,7.34-3.48,13.81-6.35,19.4Z" fill="#fff"/><path d="M1151.35,4314.2c-.3-2.12-.45-4.65-.45-7.6s.15-5.26.45-6.92h47.66c.3,1.66.45,3.97.45,6.92s-.15,5.48-.45,7.6h-47.66Z" fill="#fff"/><path d="M1172.45,4286.06c-3.78-9.68-6.7-21.14-8.74-34.38-2.04-13.24-3.06-26.44-3.06-39.6,0-9.38.45-18.61,1.36-27.69h-231.5c-.45-6.81-.11-13.81,1.02-20.99,1.13-7.18,2.76-13.28,4.88-18.27h264.86c1.82,6.35,3.33,12.86,4.54,19.52,1.21,6.66,2.12,13.24,2.72,19.75h-23.15c-7.57,0-13.24,1.51-17.02,4.54-3.78,3.03-5.67,7.11-5.67,12.25,0,6.81,3.1,13.96,9.3,21.45,6.2,7.49,14.67,14.41,25.42,20.77-2.12,7.42-5.11,15.02-8.96,22.81-3.86,7.79-7.83,14.41-11.92,19.86h-4.08Z" fill="#fff"/><path d="M1349.03,4314.2c-.3-2.12-.45-4.65-.45-7.6s.15-5.26.45-6.92h47.66c.3,1.66.45,3.97.45,6.92s-.15,5.48-.45,7.6h-47.66Z" fill="#fff"/><path d="M1324.74,4283.79c-26.78-5.29-48.04-16-63.77-32.11-15.74-16.11-23.6-36.5-23.6-61.17,0-2.72.07-4.77.23-6.13h-24.74c-.45-6.81-.11-13.81,1.02-20.99,1.13-7.18,2.76-13.28,4.88-18.27h216.52c2.57-10.89,6.96-20.5,13.16-28.82,6.2-8.32,13.92-14.67,23.15-19.06,3.48,3.03,7.04,8.89,10.67,17.59,3.63,8.7,5.6,15.47,5.9,20.31-8.78-1.36-17.1-1.1-24.96.79-7.87,1.89-14.22,5.11-19.06,9.65,8.02.45,15.28,1.47,21.79,3.06,6.5,1.59,12.1,3.75,16.79,6.47,6.66,3.94,11.61,8.74,14.87,14.41,3.25,5.67,4.88,11.99,4.88,18.95l-2.27,2.95c-3.63-2.12-10.71-3.82-21.22-5.11-10.52-1.28-22.66-1.93-36.43-1.93h-179.98c-7.11,0-12.56,1.51-16.34,4.54-3.78,3.03-5.67,6.96-5.67,11.8,0,7.72,4.95,14.56,14.87,20.54,9.91,5.98,21.94,10.82,36.09,14.53,14.15,3.71,27.8,6.24,40.97,7.6.45,6.66,0,13.66-1.36,20.99-1.36,7.34-3.48,13.81-6.36,19.4Z" fill="#fff"/><path d="M85.79,4506.89c5.6-5.14,10.1-10.93,13.5-17.36,3.4-6.43,5.11-12.37,5.11-17.82,0-4.54-1.33-8.17-3.97-10.89-2.65-2.72-6.77-4.08-12.37-4.08h-41.99c-.45-6.81-.11-13.81,1.02-20.99,1.13-7.18,2.76-13.28,4.88-18.27h56.29c4.84,8.62,7.26,18.61,7.26,29.96s-2.57,23.04-7.72,34.16c-5.15,11.12-12.11,20.16-20.88,27.12l-1.13-1.82Z" fill="#fff"/><path d="M154.78,4590.18c-3.03,0-5.6-1.02-7.72-3.06-2.12-2.04-3.18-4.58-3.18-7.6s1.06-5.6,3.18-7.72c2.12-2.12,4.69-3.18,7.72-3.18s5.56,1.06,7.6,3.18c2.04,2.12,3.06,4.69,3.06,7.72s-1.02,5.56-3.06,7.6c-2.04,2.04-4.58,3.06-7.6,3.06Z" fill="#fff"/><path d="M138.67,4556.59c-2.57-5.14-4.58-11.23-6.01-18.27-1.44-7.04-2.16-14.56-2.16-22.58,10.59,0,20.01-1.96,28.26-5.9,8.25-3.93,14.64-9.11,19.18-15.55,4.54-6.43,6.81-13.28,6.81-20.54,0-6.2-2.04-11.88-6.13-17.02h-57.65c-.45-6.81-.11-13.81,1.02-20.99,1.13-7.18,2.76-13.28,4.88-18.27h51.52c6.2,17.7,9.31,35.26,9.31,52.65,0,24.21-3.74,43.88-11.23,59.01-7.49,15.13-20.09,24.28-37.79,27.46Z" fill="#fff"/><path d="M231.27,4506.89c5.6-5.14,10.1-10.93,13.5-17.36,3.4-6.43,5.11-12.37,5.11-17.82,0-4.54-1.33-8.17-3.97-10.89-2.65-2.72-6.77-4.08-12.37-4.08h-41.99c-.45-6.81-.11-13.81,1.02-20.99,1.13-7.18,2.76-13.28,4.88-18.27h56.29c4.84,8.62,7.26,18.61,7.26,29.96s-2.57,23.04-7.72,34.16c-5.15,11.12-12.11,20.16-20.88,27.12l-1.13-1.82Z" fill="#fff"/><path d="M312.97,4590.18c-3.03,0-5.6-1.02-7.72-3.06-2.12-2.04-3.18-4.58-3.18-7.6s1.06-5.6,3.18-7.72c2.12-2.12,4.69-3.18,7.72-3.18s5.56,1.06,7.6,3.18c2.04,2.12,3.06,4.69,3.06,7.72s-1.02,5.56-3.06,7.6c-2.04,2.04-4.58,3.06-7.6,3.06Z" fill="#fff"/><path d="M302.99,4492.37c-3.03,0-5.6-1.02-7.72-3.06-2.12-2.04-3.18-4.58-3.18-7.6s1.06-5.6,3.18-7.72c2.12-2.12,4.69-3.18,7.72-3.18s5.56,1.06,7.6,3.18c2.04,2.12,3.06,4.69,3.06,7.72s-1.02,5.37-3.06,7.49c-2.04,2.12-4.58,3.18-7.6,3.18Z" fill="#fff"/><path d="M278.93,4558.18c-2.72-5.45-4.62-12.06-5.67-19.86-1.06-7.79-1.06-15.32,0-22.58,9.68-.75,19.82-3.48,30.41-8.17,10.59-4.69,19.4-10.21,26.44-16.57,7.04-6.35,10.55-12.4,10.55-18.16,0-4.99-1.48-8.93-4.43-11.8-2.95-2.87-7.76-4.31-14.41-4.31h-54.24c-.45-6.81-.11-13.81,1.02-20.99,1.13-7.18,2.76-13.28,4.88-18.27h68.77c4.23,5.9,6.35,14.45,6.35,25.65,0,11.95-2.57,25.65-7.72,41.08.15,5.45,1.44,10.82,3.86,16.11,2.42,5.3,5.9,10.44,10.44,15.43,0,8.17-.42,16-1.25,23.49-.83,7.49-1.85,13.28-3.06,17.36h-6.35c-5.3-4.23-10.14-9.42-14.52-15.55-4.39-6.13-7.49-12.06-9.31-17.82h-1.13c-4.69,8.62-10.4,16.15-17.14,22.58-6.73,6.43-13.2,10.55-19.4,12.37h-4.08Z" fill="#fff"/><path d="M442.79,4590.18c-3.03,0-5.6-1.02-7.72-3.06-2.12-2.04-3.18-4.58-3.18-7.6s1.06-5.6,3.18-7.72c2.12-2.12,4.69-3.18,7.72-3.18s5.56,1.06,7.6,3.18c2.04,2.12,3.06,4.69,3.06,7.72s-1.02,5.56-3.06,7.6c-2.04,2.04-4.58,3.06-7.6,3.06ZM442.79,4621.28c-3.03,0-5.6-1.02-7.72-3.06-2.12-2.04-3.18-4.58-3.18-7.6s1.06-5.6,3.18-7.72c2.12-2.12,4.69-3.18,7.72-3.18s5.56,1.06,7.6,3.18c2.04,2.12,3.06,4.69,3.06,7.72s-1.02,5.56-3.06,7.6c-2.04,2.04-4.58,3.06-7.6,3.06Z" fill="#fff"/><path d="M415.1,4557.27c-12.86-17.1-22.55-34.12-29.05-51.07-6.51-16.94-9.61-33.44-9.31-49.48h-22.92c-.45-6.96-.15-14.03.91-21.22,1.06-7.18,2.65-13.2,4.77-18.04h162.27c2.27,5.15,4.39,12.37,6.35,21.67,1.96,9.31,2.95,18.35,2.95,27.12,0,18.01-4.81,33.89-14.41,47.66-9.61,13.77-23.19,24.44-40.74,32-17.55,7.57-37.83,11.35-60.82,11.35ZM405.12,4517.56c21.79,0,42.1-2,60.94-6.01,18.84-4.01,33.93-9.65,45.28-16.91,11.35-7.26,17.02-15.58,17.02-24.97,0-3.93-1.1-7.07-3.29-9.42-2.19-2.34-5.18-3.52-8.96-3.52h-136.4c0,6.35,1.28,13.58,3.86,21.67,2.57,8.1,5.82,15.74,9.76,22.92,3.93,7.19,7.87,12.6,11.8,16.23Z" fill="#fff"/><path d="M572.84,4590.18c-3.03,0-5.6-1.02-7.72-3.06-2.12-2.04-3.18-4.58-3.18-7.6s1.06-5.6,3.18-7.72c2.12-2.12,4.69-3.18,7.72-3.18s5.56,1.06,7.6,3.18c2.04,2.12,3.06,4.69,3.06,7.72s-1.02,5.56-3.06,7.6c-2.04,2.04-4.58,3.06-7.6,3.06Z" fill="#fff"/><path d="M574.65,4506.89c5.6-5.14,10.1-10.93,13.5-17.36,3.4-6.43,5.11-12.37,5.11-17.82,0-4.54-1.33-8.17-3.97-10.89-2.65-2.72-6.77-4.08-12.37-4.08h-41.99c-.45-6.81-.11-13.81,1.02-20.99,1.13-7.18,2.76-13.28,4.88-18.27h56.29c4.84,8.62,7.26,18.61,7.26,29.96s-2.57,23.04-7.72,34.16c-5.15,11.12-12.11,20.16-20.88,27.12l-1.13-1.82Z" fill="#fff"/><path d="M694.94,4506.89c5.6-5.14,10.1-10.93,13.5-17.36,3.4-6.43,5.11-12.37,5.11-17.82,0-4.54-1.33-8.17-3.97-10.89-2.65-2.72-6.77-4.08-12.37-4.08h-41.99c-.45-6.81-.11-13.81,1.02-20.99,1.13-7.18,2.76-13.28,4.88-18.27h56.29c4.84,8.62,7.26,18.61,7.26,29.96s-2.57,23.04-7.72,34.16c-5.15,11.12-12.11,20.16-20.88,27.12l-1.13-1.82Z" fill="#fff"/><path d="M796.62,4590.18c-3.03,0-5.6-1.02-7.72-3.06-2.12-2.04-3.18-4.58-3.18-7.6s1.06-5.6,3.18-7.72c2.12-2.12,4.69-3.18,7.72-3.18s5.56,1.06,7.6,3.18c2.04,2.12,3.06,4.69,3.06,7.72s-1.02,5.56-3.06,7.6c-2.04,2.04-4.58,3.06-7.6,3.06Z" fill="#fff"/><path d="M795.03,4556.14c-2.58-4.99-4.81-11.61-6.7-19.86-1.89-8.25-2.84-15.09-2.84-20.54,11.65-1.96,24.43-5.14,38.36-9.53,13.92-4.39,25.65-9.45,35.18-15.21,6.05-3.63,10.78-7.41,14.19-11.35,3.4-3.93,5.11-7.94,5.11-12.03,0-3.18-.99-5.79-2.95-7.83-1.97-2.04-4.84-3.06-8.62-3.06h-135.27c-.76-9.38-1.13-17.32-1.13-23.83,0-16.49,3.06-30.98,9.19-43.46,6.13-12.48,15.17-21.67,27.12-27.58,3.48,3.03,7.04,8.89,10.67,17.59,3.63,8.7,5.6,15.47,5.9,20.31-11.05-1.51-21.26-.72-30.64,2.38-9.38,3.1-15.81,8.21-19.29,15.32h138.44c6.35,15.74,9.53,31.47,9.53,47.21,0,12.86-3.6,25.53-10.78,38.01-7.19,12.48-17.33,23.49-30.41,33.02-13.09,9.53-28.11,16.34-45.05,20.43Z" fill="#fff"/><path d="M971.6,4590.18c-3.03,0-5.6-1.02-7.72-3.06-2.12-2.04-3.18-4.58-3.18-7.6s1.06-5.6,3.18-7.72c2.12-2.12,4.69-3.18,7.72-3.18s5.56,1.06,7.6,3.18c2.04,2.12,3.06,4.69,3.06,7.72s-1.02,5.56-3.06,7.6c-2.04,2.04-4.58,3.06-7.6,3.06ZM971.6,4621.28c-3.03,0-5.6-1.02-7.72-3.06-2.12-2.04-3.18-4.58-3.18-7.6s1.06-5.6,3.18-7.72c2.12-2.12,4.69-3.18,7.72-3.18s5.56,1.06,7.6,3.18c2.04,2.12,3.06,4.69,3.06,7.72s-1.02,5.56-3.06,7.6-4.58,3.06-7.6,3.06Z" fill="#fff"/><path d="M955.71,4492.37c-3.03,0-5.6-1.02-7.72-3.06-2.12-2.04-3.18-4.58-3.18-7.6s1.06-5.6,3.18-7.72,4.69-3.18,7.72-3.18,5.56,1.06,7.6,3.18c2.04,2.12,3.06,4.69,3.06,7.72s-1.02,5.37-3.06,7.49c-2.04,2.12-4.58,3.18-7.6,3.18Z" fill="#fff"/><path d="M901.92,4556.14c-2.42-4.69-4.24-10.82-5.45-18.38-1.21-7.56-1.51-14.9-.91-22.01h1.13c15.28,0,32.79-2.04,52.54-6.13,19.75-4.08,36.65-9.65,50.73-16.68,14.07-7.04,21.11-14.64,21.11-22.81,0-4.54-2.04-7.9-6.13-10.1-4.08-2.19-9.91-3.29-17.48-3.29h-112.34c-.61-6.66-.34-13.58.79-20.77,1.13-7.18,2.68-13.35,4.65-18.5h136.17c5.29,8.78,7.79,18.69,7.49,29.73-.3,11.05-4.24,21.41-11.8,31.09l17.48,3.86c.76,2.88,1.28,6.47,1.59,10.78.3,4.31.3,8.21,0,11.69-8.17,11.05-19.78,20.43-34.84,28.14-15.06,7.72-31.62,13.54-49.7,17.48-18.08,3.94-35.97,5.9-53.67,5.9h-1.36Z" fill="#fff"/><path d="M1150.89,4586.55c-.3-2.12-.45-4.65-.45-7.6s.15-5.26.45-6.92h47.66c.3,1.66.45,3.97.45,6.92s-.15,5.48-.45,7.6h-47.66Z" fill="#fff"/><path d="M1077.36,4558.41c-3.78-9.68-6.7-21.14-8.74-34.38-2.04-13.24-3.06-26.44-3.06-39.6,0-9.38.45-18.61,1.36-27.69h-27.01c-.45-6.81-.11-13.81,1.02-20.99,1.13-7.18,2.76-13.28,4.88-18.27h227.64c5.9,20.88,8.85,43.2,8.85,66.95,0,13.16-1.02,26.37-3.06,39.6-2.04,13.24-4.96,24.7-8.74,34.38h-4.08c-4.39-5.75-8.51-12.48-12.37-20.2s-6.77-15.21-8.74-22.47c10.14-4.99,18.46-11.54,24.97-19.63,6.5-8.09,9.76-15.85,9.76-23.26,0-4.84-1.55-8.74-4.65-11.69-3.1-2.95-7.83-4.42-14.18-4.42h-174.53c-6.35,0-11.05,1.44-14.07,4.31-3.03,2.88-4.54,6.81-4.54,11.8,0,7.57,3.29,15.43,9.87,23.6,6.58,8.17,14.79,14.6,24.62,19.29-1.97,7.26-4.88,14.75-8.74,22.47-3.86,7.72-7.98,14.45-12.37,20.2h-4.09Z" fill="#fff"/><path d="M1353.11,4590.18c-3.03,0-5.6-1.02-7.72-3.06-2.12-2.04-3.18-4.58-3.18-7.6s1.06-5.6,3.18-7.72c2.12-2.12,4.69-3.18,7.72-3.18s5.56,1.06,7.6,3.18c2.04,2.12,3.06,4.69,3.06,7.72s-1.02,5.56-3.06,7.6c-2.04,2.04-4.58,3.06-7.6,3.06ZM1353.11,4621.28c-3.03,0-5.6-1.02-7.72-3.06-2.12-2.04-3.18-4.58-3.18-7.6s1.06-5.6,3.18-7.72c2.12-2.12,4.69-3.18,7.72-3.18s5.56,1.06,7.6,3.18c2.04,2.12,3.06,4.69,3.06,7.72s-1.02,5.56-3.06,7.6-4.58,3.06-7.6,3.06Z" fill="#fff"/><path d="M1351.52,4556.14c-2.57-4.99-4.81-11.61-6.7-19.86-1.89-8.25-2.84-15.09-2.84-20.54,11.65-1.96,24.43-5.14,38.36-9.53,13.92-4.39,25.65-9.45,35.18-15.21,6.05-3.63,10.78-7.41,14.19-11.35,3.4-3.93,5.11-7.94,5.11-12.03,0-3.18-.99-5.79-2.95-7.83-1.97-2.04-4.84-3.06-8.62-3.06h-135.27c-.76-9.38-1.13-17.32-1.13-23.83,0-16.49,3.06-30.98,9.19-43.46s15.17-21.67,27.12-27.58c3.48,3.03,7.04,8.89,10.67,17.59,3.63,8.7,5.6,15.47,5.9,20.31-11.05-1.51-21.26-.72-30.64,2.38-9.38,3.1-15.81,8.21-19.29,15.32h138.44c6.35,15.74,9.53,31.47,9.53,47.21,0,12.86-3.6,25.53-10.78,38.01-7.19,12.48-17.33,23.49-30.41,33.02-13.09,9.53-28.11,16.34-45.05,20.43Z" fill="#fff"/><path d="M1462.05,4586.55c-.3-2.12-.45-4.65-.45-7.6s.15-5.26.45-6.92h47.66c.3,1.66.45,3.97.45,6.92s-.15,5.48-.45,7.6h-47.66Z" fill="#fff"/><path d="M1485.88,4558.41c-4.39-5.75-8.51-12.48-12.37-20.2s-6.77-15.21-8.74-22.47c9.99-5.29,18.19-11.95,24.62-19.97,6.43-8.02,9.65-15.73,9.65-23.15,0-4.84-1.55-8.7-4.65-11.58-3.1-2.87-7.83-4.31-14.18-4.31h-38.58c-.45-6.81-.11-13.81,1.02-20.99,1.13-7.18,2.76-13.28,4.88-18.27h45.39c5.9,20.88,8.85,43.2,8.85,66.95,0,13.16-1.02,26.37-3.06,39.6-2.04,13.24-4.96,24.7-8.74,34.38h-4.08Z" fill="#fff"/></svg>