<?xml version="1.0" encoding="UTF-8"?><svg id="Layer_1" xmlns="http://www.w3.org/2000/svg" viewBox="0 0 1507.67 5246.34"><rect x="41.28" width="1459.8" height="5246.34" fill="none"/><path d="M322.73,200.85c-4.39-5.75-8.51-12.48-12.37-20.2-3.86-7.72-6.77-15.13-8.74-22.24,10.44-6.81,18.84-14.3,25.19-22.47,6.35-8.17,9.53-15.51,9.53-22.02,0-4.54-1.55-8.13-4.65-10.78-3.1-2.65-7.83-3.97-14.19-3.97H47.43c-.45-6.81-.11-13.81,1.02-20.99,1.13-7.19,2.76-13.28,4.88-18.27h276.43c5.9,20.88,8.85,43.2,8.85,66.95,0,13.16-1.02,26.37-3.06,39.6-2.04,13.24-4.96,24.7-8.74,34.38h-4.08ZM96.46,200.85c-6.51-7.11-10.97-15.62-13.39-25.53-2.42-9.91-2.8-20.2-1.13-30.87,1.66-10.67,5.07-20.69,10.21-30.07h2.5c0,10.75,2.27,19.94,6.81,27.58,4.54,7.64,11.12,13.05,19.75,16.23-1.97,8.02-4.99,15.93-9.08,23.72-4.09,7.79-8.55,14.11-13.39,18.95h-2.27Z" fill="#fff"/><path d="M595.53,137.31c-3.03,0-5.6-1.02-7.72-3.06-2.12-2.04-3.18-4.57-3.18-7.6s1.06-5.6,3.18-7.72c2.12-2.12,4.69-3.18,7.72-3.18s5.56,1.06,7.6,3.18c2.04,2.12,3.06,4.69,3.06,7.72s-1.02,5.37-3.06,7.49c-2.04,2.12-4.58,3.18-7.6,3.18Z" fill="#fff"/><path d="M651.14,200.85c-3.78-9.68-6.69-21.14-8.74-34.38-2.04-13.24-3.06-26.44-3.06-39.6,0-9.38.45-18.61,1.36-27.69h-298.22c-.45-6.81-.11-13.81,1.02-20.99,1.13-7.19,2.76-13.28,4.88-18.27h331.58c1.66,6.35,3.1,12.86,4.31,19.52,1.21,6.66,2.19,13.24,2.95,19.75h-23.15c-7.57,0-13.24,1.51-17.02,4.54-3.78,3.03-5.67,7.11-5.67,12.26,0,6.81,3.1,13.96,9.31,21.45,6.2,7.49,14.67,14.41,25.42,20.77-2.12,7.42-5.11,15.02-8.96,22.81-3.86,7.79-7.83,14.41-11.92,19.86h-4.09Z" fill="#fff"/><path d="M783.45,232.63c-3.03,0-5.6-1.02-7.72-3.06-2.12-2.04-3.18-4.58-3.18-7.6s1.06-5.6,3.18-7.72c2.12-2.12,4.69-3.18,7.72-3.18s5.56,1.06,7.6,3.18c2.04,2.12,3.06,4.69,3.06,7.72s-1.02,5.56-3.06,7.6-4.58,3.06-7.6,3.06Z" fill="#fff"/><path d="M709.69,198.59c-2.57-4.54-4.62-10.89-6.13-19.06-1.51-8.17-1.89-15.28-1.13-21.33,15.73,0,32.42-.79,50.04-2.38,17.63-1.59,33.78-4.05,48.46-7.38,16.34-3.63,29.35-8.21,39.04-13.73,9.68-5.52,14.52-12.06,14.52-19.63,0-4.54-2.15-8.32-6.47-11.35-4.31-3.02-10.18-4.54-17.59-4.54h-99.86c3.18,4.39,8.02,8.25,14.52,11.57,6.5,3.33,13.99,5.67,22.47,7.04-1.36,5.3-4.24,11.09-8.62,17.36-4.39,6.28-9.46,11.99-15.21,17.14-13.62-12.71-20.43-28.29-20.43-46.75,0-2.72.07-4.84.23-6.35h-32.23c-.45-6.81-.11-13.81,1.02-20.99,1.13-7.19,2.76-13.28,4.88-18.27h150.02c6.36,16.04,9.53,31.17,9.53,45.39,0,20.43-6.35,37.64-19.06,51.63-12.71,14-30.11,24.44-52.2,31.32-22.09,6.89-47.36,10.33-75.8,10.33Z" fill="#fff"/><path d="M1014.04,198.59c-26.78-5.29-48.04-16-63.77-32.11-15.74-16.11-23.6-36.5-23.6-61.16,0-2.72.08-4.77.23-6.13h-20.88c-.45-6.81-.11-13.81,1.02-20.99,1.13-7.19,2.76-13.28,4.88-18.27h95.55c2.57-10.59,6.96-19.93,13.16-28.03,6.2-8.09,13.84-14.33,22.92-18.72,3.48,3.03,7.04,8.89,10.67,17.59,3.63,8.7,5.6,15.47,5.9,20.31-8.48-1.21-16.57-.98-24.28.68-7.72,1.67-14,4.54-18.84,8.62,7.87.61,14.98,1.78,21.33,3.52,6.35,1.74,11.8,4.05,16.34,6.92,6.05,3.94,10.55,8.66,13.5,14.19,2.95,5.52,4.42,11.61,4.42,18.27l-2.27,2.95c-3.63-2.12-10.71-3.82-21.22-5.11-10.52-1.28-22.66-1.93-36.43-1.93h-60.82c-7.11,0-12.56,1.51-16.34,4.54-3.78,3.03-5.67,6.96-5.67,11.8,0,7.72,4.95,14.56,14.87,20.54,9.91,5.98,21.94,10.82,36.09,14.53,14.15,3.71,27.8,6.24,40.97,7.6.45,6.66,0,13.66-1.36,20.99-1.36,7.34-3.48,13.81-6.36,19.4Z" fill="#fff"/><path d="M1085.76,229c-.3-2.12-.45-4.65-.45-7.6s.15-5.26.45-6.92h47.66c.3,1.66.45,3.97.45,6.92s-.15,5.48-.45,7.6h-47.66Z" fill="#fff"/><path d="M1093.47,199.04c-2.57-5.14-4.58-11.23-6.01-18.27-1.44-7.04-2.16-14.56-2.16-22.58,10.59,0,20.01-1.96,28.26-5.9,8.24-3.93,14.64-9.11,19.18-15.55,4.54-6.43,6.81-13.28,6.81-20.54,0-6.2-2.04-11.88-6.13-17.02h-57.65c-.45-6.81-.11-13.81,1.02-20.99,1.13-7.19,2.76-13.28,4.88-18.27h51.52c6.2,17.7,9.3,35.26,9.3,52.65,0,24.21-3.75,43.88-11.23,59.01-7.49,15.13-20.09,24.28-37.79,27.46Z" fill="#fff"/><path d="M1258.24,198.59c-26.78-5.29-48.04-16-63.77-32.11-15.74-16.11-23.6-36.5-23.6-61.16,0-2.72.07-4.77.23-6.13h-24.74c-.45-6.81-.11-13.81,1.02-20.99,1.13-7.19,2.76-13.28,4.88-18.27h216.52c2.57-10.89,6.96-20.5,13.16-28.82,6.2-8.32,13.92-14.67,23.15-19.06,3.48,3.03,7.04,8.89,10.67,17.59,3.63,8.7,5.6,15.47,5.9,20.31-8.78-1.36-17.1-1.1-24.96.79-7.87,1.89-14.22,5.11-19.06,9.65,8.02.45,15.28,1.48,21.79,3.06,6.5,1.59,12.1,3.74,16.79,6.47,6.66,3.94,11.61,8.74,14.87,14.41,3.25,5.67,4.88,11.99,4.88,18.95l-2.27,2.95c-3.63-2.12-10.71-3.82-21.22-5.11-10.52-1.28-22.66-1.93-36.43-1.93h-179.98c-7.11,0-12.56,1.51-16.34,4.54-3.78,3.03-5.67,6.96-5.67,11.8,0,7.72,4.95,14.56,14.87,20.54,9.91,5.98,21.94,10.82,36.09,14.53,14.15,3.71,27.8,6.24,40.97,7.6.45,6.66,0,13.66-1.36,20.99-1.36,7.34-3.48,13.81-6.36,19.4Z" fill="#fff"/><path d="M1459.55,229c-.3-2.12-.45-4.65-.45-7.6s.15-5.26.45-6.92h47.66c.3,1.66.45,3.97.45,6.92s-.15,5.48-.45,7.6h-47.66Z" fill="#fff"/><path d="M1483.38,200.85c-4.39-5.75-8.51-12.48-12.37-20.2-3.86-7.72-6.77-15.21-8.74-22.47,9.99-5.29,18.19-11.95,24.62-19.97,6.43-8.02,9.65-15.73,9.65-23.15,0-4.84-1.55-8.7-4.65-11.57-3.1-2.87-7.83-4.31-14.18-4.31h-38.58c-.45-6.81-.11-13.81,1.02-20.99,1.13-7.19,2.76-13.28,4.88-18.27h45.39c5.9,20.88,8.85,43.2,8.85,66.95,0,13.16-1.02,26.37-3.06,39.6-2.04,13.24-4.96,24.7-8.74,34.38h-4.08Z" fill="#fff"/><path d="M88.51,421.68c5.6-5.14,10.1-10.93,13.5-17.36,3.4-6.43,5.11-12.37,5.11-17.82,0-4.54-1.33-8.17-3.97-10.89-2.65-2.72-6.77-4.09-12.37-4.09h-41.99c-.45-6.81-.11-13.81,1.02-20.99,1.13-7.19,2.76-13.28,4.88-18.27h56.29c4.84,8.62,7.26,18.61,7.26,29.96s-2.57,23.04-7.72,34.16c-5.15,11.12-12.11,20.16-20.88,27.12l-1.13-1.82Z" fill="#fff"/><path d="M226.73,504.98c-3.03,0-5.6-1.02-7.72-3.06-2.12-2.04-3.18-4.58-3.18-7.6s1.06-5.6,3.18-7.72c2.12-2.12,4.69-3.18,7.72-3.18s5.56,1.06,7.6,3.18c2.04,2.12,3.06,4.69,3.06,7.72s-1.02,5.56-3.06,7.6c-2.04,2.04-4.58,3.06-7.6,3.06Z" fill="#fff"/><path d="M229.45,409.65c-3.03,0-5.6-1.02-7.72-3.06-2.12-2.04-3.18-4.57-3.18-7.6s1.06-5.6,3.18-7.72c2.12-2.12,4.69-3.18,7.72-3.18s5.56,1.06,7.6,3.18c2.04,2.12,3.06,4.69,3.06,7.72s-1.02,5.37-3.06,7.49c-2.04,2.12-4.58,3.18-7.6,3.18Z" fill="#fff"/><path d="M143.89,470.93c-3.63-5.29-6.58-11.61-8.85-18.95-2.27-7.34-3.4-14.49-3.4-21.45,9.83,0,17.17-.07,22.02-.23-.91-22.24,3.55-41.83,13.39-58.78h-43.35c-.45-6.81-.11-13.81,1.02-20.99,1.13-7.19,2.76-13.28,4.88-18.27h47.89c2.27,3.03,4.46,9.08,6.58,18.16,7.41-6.66,15.58-11.76,24.51-15.32,8.93-3.55,18-5.33,27.23-5.33,12.26,0,23.98,3.18,35.18,9.53,11.2,6.35,20.27,15.93,27.23,28.71,6.96,12.79,10.44,28.48,10.44,47.09-3.18,8.78-13.16,17.51-29.96,26.21-16.79,8.7-37.37,15.81-61.73,21.33-24.36,5.53-48.72,8.28-73.08,8.28ZM155.69,429.85c36.16-1.21,67.97-3.97,95.44-8.28,27.46-4.31,45.58-9.11,54.36-14.41,0-8.17-2.95-15.09-8.85-20.77s-13.58-9.91-23.04-12.71c-9.46-2.8-19.48-4.2-30.07-4.2-12.86,0-25.53,2.23-38.02,6.7-12.48,4.46-23.23,11.23-32.23,20.31-9,9.08-14.87,20.2-17.59,33.36Z" fill="#fff"/><path d="M414.65,470.93c-26.78-5.29-48.04-16-63.77-32.11-15.74-16.11-23.6-36.5-23.6-61.16,0-2.72.07-4.77.23-6.13h-24.74c-.45-6.81-.11-13.81,1.02-20.99,1.13-7.19,2.76-13.28,4.88-18.27h216.52c2.57-10.89,6.96-20.5,13.16-28.82,6.2-8.32,13.92-14.67,23.15-19.06,3.48,3.03,7.04,8.89,10.67,17.59,3.63,8.7,5.6,15.47,5.9,20.31-8.78-1.36-17.1-1.1-24.97.79-7.87,1.89-14.22,5.11-19.06,9.65,8.02.45,15.28,1.48,21.79,3.06,6.5,1.59,12.1,3.74,16.79,6.47,6.66,3.94,11.61,8.74,14.87,14.41,3.25,5.67,4.88,11.99,4.88,18.95l-2.27,2.95c-3.63-2.12-10.71-3.82-21.22-5.11-10.52-1.28-22.66-1.93-36.43-1.93h-179.98c-7.11,0-12.56,1.51-16.34,4.54-3.78,3.03-5.67,6.96-5.67,11.8,0,7.72,4.95,14.56,14.87,20.54,9.91,5.98,21.94,10.82,36.09,14.53,14.15,3.71,27.8,6.24,40.97,7.6.45,6.66,0,13.66-1.36,20.99-1.36,7.34-3.48,13.81-6.35,19.4Z" fill="#fff"/><path d="M1413.71,504.98c-3.03,0-5.6-1.02-7.72-3.06-2.12-2.04-3.18-4.58-3.18-7.6s1.06-5.6,3.18-7.72c2.12-2.12,4.69-3.18,7.72-3.18s5.56,1.06,7.6,3.18c2.04,2.12,3.06,4.69,3.06,7.72s-1.02,5.56-3.06,7.6c-2.04,2.04-4.58,3.06-7.6,3.06ZM1431.64,527.22c-3.03,0-5.6-1.02-7.72-3.06-2.12-2.04-3.18-4.58-3.18-7.6s1.06-5.6,3.18-7.72c2.12-2.12,4.69-3.18,7.72-3.18s5.56,1.06,7.6,3.18c2.04,2.12,3.06,4.69,3.06,7.72s-1.02,5.56-3.06,7.6-4.58,3.06-7.6,3.06ZM1449.57,549.46c-3.03,0-5.6-1.02-7.72-3.06-2.12-2.04-3.18-4.58-3.18-7.6s1.06-5.6,3.18-7.72c2.12-2.12,4.69-3.18,7.72-3.18s5.56,1.06,7.6,3.18c2.04,2.12,3.06,4.69,3.06,7.72s-1.02,5.56-3.06,7.6c-2.04,2.04-4.58,3.06-7.6,3.06Z" fill="#fff"/><path d="M1413.03,470.93c-2.57-4.99-4.8-11.61-6.7-19.86-1.89-8.25-2.84-15.09-2.84-20.54,11.65-1.96,24.43-5.14,38.36-9.53,13.92-4.39,25.65-9.45,35.18-15.21,6.05-3.63,10.78-7.41,14.19-11.35,3.4-3.93,5.11-7.94,5.11-12.03,0-3.18-.99-5.79-2.95-7.83-1.97-2.04-4.85-3.06-8.62-3.06h-887.85c-.76-9.38-1.13-17.32-1.13-23.83,0-17.7,2.65-32.83,7.94-45.39,5.29-12.56,14.07-23.38,26.33-32.45,3.48,3.03,7.04,8.89,10.67,17.59,3.63,8.7,5.6,15.47,5.9,20.31-10.75,0-20.5,2.23-29.28,6.69-8.78,4.46-14.98,10.4-18.61,17.82h891.03c6.36,15.74,9.53,31.47,9.53,47.21,0,12.71-3.74,25.31-11.23,37.79-7.49,12.48-17.78,23.53-30.87,33.14-13.09,9.61-27.8,16.45-44.14,20.54Z" fill="#fff"/><path d="M91.92,694.03c5.6-5.14,10.1-10.93,13.5-17.36,3.4-6.43,5.11-12.37,5.11-17.82,0-4.54-1.33-8.17-3.97-10.89-2.65-2.72-6.77-4.08-12.37-4.08h-41.99c-.45-6.81-.11-13.81,1.02-20.99,1.13-7.18,2.76-13.28,4.88-18.27h56.29c4.84,8.62,7.26,18.61,7.26,29.96s-2.57,23.04-7.72,34.16c-5.15,11.12-12.11,20.16-20.88,27.12l-1.13-1.82Z" fill="#fff"/><path d="M232.86,682c-3.03,0-5.6-1.02-7.72-3.06-2.12-2.04-3.18-4.58-3.18-7.6s1.06-5.6,3.18-7.72c2.12-2.12,4.69-3.18,7.72-3.18s5.56,1.06,7.6,3.18c2.04,2.12,3.06,4.69,3.06,7.72s-1.02,5.37-3.06,7.49c-2.04,2.12-4.58,3.18-7.6,3.18Z" fill="#fff"/><path d="M147.29,743.28c-3.63-5.29-6.58-11.61-8.85-18.95-2.27-7.34-3.4-14.49-3.4-21.45,9.83,0,17.17-.07,22.02-.23-.91-22.24,3.55-41.83,13.39-58.78h-43.35c-.45-6.81-.11-13.81,1.02-20.99,1.13-7.18,2.76-13.28,4.88-18.27h47.89c2.27,3.03,4.46,9.08,6.58,18.16,7.41-6.66,15.58-11.76,24.51-15.32,8.93-3.55,18-5.33,27.23-5.33,12.26,0,23.98,3.18,35.18,9.53,11.2,6.36,20.27,15.93,27.23,28.71,6.96,12.79,10.44,28.48,10.44,47.09-3.18,8.78-13.16,17.51-29.96,26.21-16.79,8.7-37.37,15.81-61.73,21.33-24.36,5.53-48.72,8.28-73.08,8.28ZM159.1,702.2c36.16-1.21,67.97-3.97,95.44-8.28,27.46-4.31,45.58-9.11,54.36-14.41,0-8.17-2.95-15.09-8.85-20.77s-13.58-9.91-23.04-12.71c-9.46-2.8-19.48-4.2-30.07-4.2-12.86,0-25.53,2.23-38.02,6.7-12.48,4.46-23.23,11.23-32.23,20.31-9,9.08-14.87,20.2-17.59,33.36Z" fill="#fff"/><path d="M414.19,743.28c-26.78-5.29-48.04-16-63.77-32.11-15.74-16.11-23.6-36.5-23.6-61.17,0-2.72.07-4.77.23-6.13h-20.88c-.45-6.81-.11-13.81,1.02-20.99,1.13-7.18,2.76-13.28,4.88-18.27h95.55c2.57-10.59,6.96-19.93,13.16-28.03,6.2-8.09,13.84-14.33,22.92-18.72,3.48,3.03,7.04,8.89,10.67,17.59,3.63,8.7,5.6,15.47,5.9,20.31-8.48-1.21-16.57-.98-24.28.68-7.72,1.67-14,4.54-18.84,8.62,7.87.61,14.98,1.78,21.33,3.52,6.35,1.74,11.8,4.05,16.34,6.92,6.05,3.94,10.55,8.66,13.5,14.18,2.95,5.53,4.43,11.61,4.43,18.27l-2.27,2.95c-3.63-2.12-10.71-3.82-21.22-5.11-10.52-1.28-22.66-1.93-36.43-1.93h-60.82c-7.11,0-12.56,1.51-16.34,4.54-3.78,3.03-5.67,6.96-5.67,11.8,0,7.72,4.95,14.56,14.87,20.54,9.91,5.98,21.94,10.82,36.09,14.53,14.15,3.71,27.8,6.24,40.97,7.6.45,6.66,0,13.66-1.36,20.99-1.36,7.34-3.48,13.81-6.35,19.4Z" fill="#fff"/><path d="M751.45,777.32c-3.03,0-5.6-1.02-7.72-3.06-2.12-2.04-3.18-4.58-3.18-7.6s1.06-5.6,3.18-7.72c2.12-2.12,4.69-3.18,7.72-3.18s5.56,1.06,7.6,3.18c2.04,2.12,3.06,4.69,3.06,7.72s-1.02,5.56-3.06,7.6c-2.04,2.04-4.58,3.06-7.6,3.06ZM769.38,799.56c-3.03,0-5.6-1.02-7.72-3.06-2.12-2.04-3.18-4.58-3.18-7.6s1.06-5.6,3.18-7.72c2.12-2.12,4.69-3.18,7.72-3.18s5.56,1.06,7.6,3.18c2.04,2.12,3.06,4.69,3.06,7.72s-1.02,5.56-3.06,7.6c-2.04,2.04-4.58,3.06-7.6,3.06ZM787.31,821.81c-3.03,0-5.6-1.02-7.72-3.06-2.12-2.04-3.18-4.58-3.18-7.6s1.06-5.6,3.18-7.72c2.12-2.12,4.69-3.18,7.72-3.18s5.56,1.06,7.6,3.18c2.04,2.12,3.06,4.69,3.06,7.72s-1.02,5.56-3.06,7.6c-2.04,2.04-4.58,3.06-7.6,3.06Z" fill="#fff"/><path d="M750.09,743.28c-2.57-4.99-4.81-11.61-6.7-19.86-1.89-8.25-2.84-15.09-2.84-20.54,11.65-1.96,24.43-5.14,38.36-9.53,13.92-4.39,25.65-9.45,35.18-15.21,6.05-3.63,10.78-7.41,14.18-11.35,3.4-3.93,5.11-7.94,5.11-12.03,0-3.18-.99-5.79-2.95-7.83-1.97-2.04-4.84-3.06-8.62-3.06h-344.52c-.76-9.38-1.13-17.32-1.13-23.83,0-16.79,2.95-31.47,8.85-44.03,5.9-12.56,14.9-22.16,27.01-28.82,3.48,3.03,7.04,8.89,10.67,17.59,3.63,8.7,5.6,15.47,5.9,20.31-11.05-1.06-21.15.15-30.3,3.63-9.16,3.48-15.55,8.78-19.18,15.89h347.7c6.36,15.74,9.53,31.47,9.53,47.21,0,12.86-3.67,25.5-11.01,37.9-7.34,12.41-17.55,23.42-30.64,33.02-13.09,9.61-27.95,16.45-44.6,20.54Z" fill="#fff"/><path d="M997.47,743.28c-26.78-5.29-48.04-16-63.77-32.11-15.74-16.11-23.6-36.5-23.6-61.17,0-2.72.07-4.77.23-6.13h-24.74c-.45-6.81-.11-13.81,1.02-20.99,1.13-7.18,2.76-13.28,4.88-18.27h216.52c2.57-10.89,6.96-20.5,13.16-28.82,6.2-8.32,13.92-14.67,23.15-19.06,3.48,3.03,7.04,8.89,10.67,17.59,3.63,8.7,5.6,15.47,5.9,20.31-8.78-1.36-17.1-1.1-24.96.79-7.87,1.89-14.22,5.11-19.06,9.65,8.02.45,15.28,1.47,21.79,3.06,6.5,1.59,12.1,3.75,16.79,6.47,6.66,3.94,11.61,8.74,14.87,14.41,3.25,5.67,4.88,11.99,4.88,18.95l-2.27,2.95c-3.63-2.12-10.71-3.82-21.22-5.11-10.52-1.28-22.66-1.93-36.43-1.93h-179.98c-7.11,0-12.56,1.51-16.34,4.54-3.78,3.03-5.67,6.96-5.67,11.8,0,7.72,4.95,14.56,14.87,20.54,9.91,5.98,21.94,10.82,36.09,14.53,14.15,3.71,27.8,6.24,40.97,7.6.45,6.66,0,13.66-1.36,20.99-1.36,7.34-3.48,13.81-6.36,19.4Z" fill="#fff"/><path d="M1221.02,773.69c-.3-2.12-.45-4.65-.45-7.6s.15-5.26.45-6.92h47.66c.3,1.66.45,3.97.45,6.92s-.15,5.48-.45,7.6h-47.66Z" fill="#fff"/><path d="M1243.26,743.28c-2.57-4.99-4.81-11.61-6.7-19.86-1.89-8.25-2.84-15.09-2.84-20.54,11.65-1.96,24.43-5.14,38.36-9.53,13.92-4.39,25.65-9.45,35.18-15.21,6.05-3.63,10.78-7.41,14.19-11.35,3.4-3.93,5.11-7.94,5.11-12.03,0-3.18-.99-5.79-2.95-7.83-1.97-2.04-4.84-3.06-8.62-3.06h-135.27c-.76-9.38-1.13-17.32-1.13-23.83,0-16.49,3.06-30.98,9.19-43.46s15.17-21.67,27.12-27.58c3.48,3.03,7.04,8.89,10.67,17.59,3.63,8.7,5.6,15.47,5.9,20.31-11.05-1.51-21.26-.72-30.64,2.38-9.38,3.1-15.81,8.21-19.29,15.32h138.44c6.35,15.74,9.53,31.47,9.53,47.21,0,12.86-3.6,25.53-10.78,38.01-7.19,12.48-17.33,23.49-30.41,33.02-13.09,9.53-28.11,16.34-45.05,20.43Z" fill="#fff"/><path d="M1402.81,773.69c-.3-2.12-.45-4.65-.45-7.6s.15-5.26.45-6.92h47.66c.3,1.66.45,3.97.45,6.92s-.15,5.48-.45,7.6h-47.66Z" fill="#fff"/><path d="M1441.4,743.28c-26.78-5.29-48.04-16-63.77-32.11-15.74-16.11-23.6-36.5-23.6-61.17,0-2.72.08-4.77.23-6.13h-20.88c-.45-6.81-.11-13.81,1.02-20.99,1.13-7.18,2.76-13.28,4.88-18.27h95.55c2.57-10.59,6.96-19.93,13.16-28.03,6.2-8.09,13.84-14.33,22.92-18.72,3.48,3.03,7.04,8.89,10.67,17.59,3.63,8.7,5.6,15.47,5.9,20.31-8.48-1.21-16.57-.98-24.28.68-7.72,1.67-14,4.54-18.84,8.62,7.87.61,14.98,1.78,21.33,3.52,6.35,1.74,11.8,4.05,16.34,6.92,6.05,3.94,10.55,8.66,13.5,14.18,2.95,5.53,4.42,11.61,4.42,18.27l-2.27,2.95c-3.63-2.12-10.71-3.82-21.22-5.11-10.52-1.28-22.66-1.93-36.43-1.93h-60.82c-7.11,0-12.56,1.51-16.34,4.54-3.78,3.03-5.67,6.96-5.67,11.8,0,7.72,4.95,14.56,14.87,20.54,9.91,5.98,21.94,10.82,36.09,14.53,14.15,3.71,27.8,6.24,40.97,7.6.45,6.66,0,13.66-1.36,20.99-1.36,7.34-3.48,13.81-6.36,19.4Z" fill="#fff"/><path d="M93.51,966.38c5.6-5.14,10.1-10.93,13.5-17.36,3.4-6.43,5.11-12.37,5.11-17.82,0-4.54-1.33-8.17-3.97-10.89-2.65-2.72-6.77-4.08-12.37-4.08h-41.99c-.45-6.81-.11-13.81,1.02-20.99,1.13-7.18,2.76-13.28,4.88-18.27h56.29c4.84,8.62,7.26,18.61,7.26,29.96s-2.57,23.04-7.72,34.16c-5.15,11.12-12.11,20.16-20.88,27.12l-1.13-1.82Z" fill="#fff"/><path d="M162.5,1049.67c-3.03,0-5.6-1.02-7.72-3.06-2.12-2.04-3.18-4.58-3.18-7.6s1.06-5.6,3.18-7.72c2.12-2.12,4.69-3.18,7.72-3.18s5.56,1.06,7.6,3.18c2.04,2.12,3.06,4.69,3.06,7.72s-1.02,5.56-3.06,7.6c-2.04,2.04-4.58,3.06-7.6,3.06Z" fill="#fff"/><path d="M146.39,1016.08c-2.57-5.14-4.58-11.23-6.01-18.27-1.44-7.04-2.16-14.56-2.16-22.58,10.59,0,20.01-1.96,28.26-5.9,8.25-3.93,14.64-9.11,19.18-15.55,4.54-6.43,6.81-13.28,6.81-20.54,0-6.2-2.04-11.88-6.13-17.02h-57.65c-.45-6.81-.11-13.81,1.02-20.99,1.13-7.18,2.76-13.28,4.88-18.27h51.52c6.2,17.7,9.31,35.26,9.31,52.65,0,24.21-3.74,43.88-11.23,59.01-7.49,15.13-20.09,24.28-37.79,27.46Z" fill="#fff"/><path d="M490.91,1049.67c-3.03,0-5.6-1.02-7.72-3.06-2.12-2.04-3.18-4.58-3.18-7.6s1.06-5.6,3.18-7.72c2.12-2.12,4.69-3.18,7.72-3.18s5.56,1.06,7.6,3.18c2.04,2.12,3.06,4.69,3.06,7.72s-1.02,5.56-3.06,7.6c-2.04,2.04-4.58,3.06-7.6,3.06ZM490.91,1080.76c-3.03,0-5.6-1.02-7.72-3.06-2.12-2.04-3.18-4.58-3.18-7.6s1.06-5.6,3.18-7.72c2.12-2.12,4.69-3.18,7.72-3.18s5.56,1.06,7.6,3.18c2.04,2.12,3.06,4.69,3.06,7.72s-1.02,5.56-3.06,7.6c-2.04,2.04-4.58,3.06-7.6,3.06Z" fill="#fff"/><path d="M497.94,955.48c-3.03,0-5.6-1.02-7.72-3.06-2.12-2.04-3.18-4.58-3.18-7.6s1.06-5.6,3.18-7.72c2.12-2.12,4.69-3.18,7.72-3.18s5.56,1.06,7.6,3.18c2.04,2.12,3.06,4.69,3.06,7.72s-1.02,5.37-3.06,7.49c-2.04,2.12-4.58,3.18-7.6,3.18Z" fill="#fff"/><path d="M741.24,1017.9c-4.39-5.75-8.51-12.48-12.37-20.2s-6.77-15.21-8.74-22.47c9.08-5.45,17.02-12.22,23.83-20.31,6.81-8.09,10.21-16,10.21-23.72,0-4.54-1.7-8.17-5.11-10.89-3.4-2.72-7.91-4.08-13.5-4.08H254.42c3.78,12.41,5.67,24.44,5.67,36.09,0,18.01-4.39,32.87-13.16,44.6-8.78,11.73-20.73,18.34-35.86,19.86-2.57-5.29-4.35-11.65-5.33-19.06-.99-7.41-1.1-14.9-.34-22.47,9.53,0,17.82-2.34,24.85-7.04,7.04-4.69,12.4-10.48,16.11-17.36,3.71-6.88,5.56-13.58,5.56-20.09s-.68-11.04-2.04-14.52h-50.61c-.45-6.81-.11-13.81,1.02-20.99,1.13-7.18,2.76-13.28,4.88-18.27h543.11c5.9,20.88,8.85,43.2,8.85,66.95,0,13.16-1.02,26.37-3.06,39.6-2.04,13.24-4.96,24.7-8.74,34.38h-4.08Z" fill="#fff"/><path d="M771.42,1046.04c-.31-2.12-.46-4.65-.46-7.6s.15-5.26.46-6.92h47.66c.3,1.66.45,3.97.45,6.92s-.15,5.48-.45,7.6h-47.66Z" fill="#fff"/><path d="M779.14,1016.08c-2.58-5.14-4.58-11.23-6.01-18.27-1.44-7.04-2.16-14.56-2.16-22.58,10.59,0,20.01-1.96,28.26-5.9,8.25-3.93,14.64-9.11,19.18-15.55,4.54-6.43,6.81-13.28,6.81-20.54,0-6.2-2.04-11.88-6.13-17.02h-57.65c-.45-6.81-.11-13.81,1.02-20.99,1.13-7.18,2.76-13.28,4.88-18.27h51.52c6.2,17.7,9.3,35.26,9.3,52.65,0,24.21-3.75,43.88-11.23,59.01-7.49,15.13-20.09,24.28-37.79,27.46Z" fill="#fff"/><path d="M842.01,1046.04c-.3-2.12-.45-4.65-.45-7.6s.15-5.26.45-6.92h47.66c.3,1.66.45,3.97.45,6.92s-.15,5.48-.45,7.6h-47.66Z" fill="#fff"/><path d="M860.62,952.31c-3.03,0-5.6-1.02-7.72-3.06-2.12-2.04-3.18-4.58-3.18-7.6s1.06-5.6,3.18-7.72,4.69-3.18,7.72-3.18,5.56,1.06,7.6,3.18c2.04,2.12,3.06,4.69,3.06,7.72s-1.02,5.37-3.06,7.49c-2.04,2.12-4.58,3.18-7.6,3.18Z" fill="#fff"/><path d="M849.72,1016.08c-2.57-5.14-4.58-11.23-6.01-18.27-1.44-7.04-2.16-14.56-2.16-22.58,10.59,0,20.01-1.96,28.26-5.9,8.24-3.93,14.64-9.11,19.18-15.55,4.54-6.43,6.81-13.28,6.81-20.54,0-6.2-2.04-11.88-6.13-17.02h-57.65c-.45-6.81-.11-13.81,1.02-20.99,1.13-7.18,2.76-13.28,4.88-18.27h51.52c6.2,17.7,9.3,35.26,9.3,52.65,0,24.21-3.75,43.88-11.23,59.01-7.49,15.13-20.09,24.28-37.79,27.46Z" fill="#fff"/><path d="M965.24,1046.04c-.3-2.12-.45-4.65-.45-7.6s.15-5.26.45-6.92h47.66c.3,1.66.45,3.97.45,6.92s-.15,5.48-.45,7.6h-47.66Z" fill="#fff"/><path d="M973.19,951.85c-3.03,0-5.6-1.02-7.72-3.06-2.12-2.04-3.18-4.58-3.18-7.6s1.06-5.6,3.18-7.72,4.69-3.18,7.72-3.18,5.56,1.06,7.6,3.18c2.04,2.12,3.06,4.69,3.06,7.72s-1.02,5.37-3.06,7.49c-2.04,2.12-4.58,3.18-7.6,3.18Z" fill="#fff"/><path d="M919.4,1015.63c-2.42-4.69-4.24-10.82-5.45-18.38-1.21-7.56-1.51-14.9-.91-22.01h1.13c15.28,0,32.79-2.04,52.54-6.13,19.75-4.08,36.65-9.65,50.73-16.68,14.07-7.04,21.11-14.64,21.11-22.81,0-4.54-2.04-7.9-6.13-10.1-4.08-2.19-9.91-3.29-17.48-3.29h-112.34c-.61-6.66-.34-13.58.79-20.77,1.13-7.18,2.68-13.35,4.65-18.5h136.17c5.29,8.78,7.79,18.69,7.49,29.73-.3,11.05-4.24,21.41-11.8,31.09l17.48,3.86c.76,2.88,1.28,6.47,1.59,10.78.3,4.31.3,8.21,0,11.69-8.17,11.05-19.78,20.43-34.84,28.14-15.06,7.72-31.62,13.54-49.7,17.48-18.08,3.94-35.97,5.9-53.67,5.9h-1.36Z" fill="#fff"/><path d="M1142.95,966.38c5.6-5.14,10.1-10.93,13.5-17.36,3.4-6.43,5.11-12.37,5.11-17.82,0-4.54-1.33-8.17-3.97-10.89-2.65-2.72-6.77-4.08-12.37-4.08h-41.99c-.45-6.81-.11-13.81,1.02-20.99,1.13-7.18,2.76-13.28,4.88-18.27h56.29c4.84,8.62,7.26,18.61,7.26,29.96s-2.57,23.04-7.72,34.16c-5.15,11.12-12.11,20.16-20.88,27.12l-1.13-1.82Z" fill="#fff"/><path d="M1177.22,916.22c4.54-9.53,7.9-18.99,10.1-28.37,2.19-9.38,3.29-20.27,3.29-32.68h34.72c1.51,3.03,2.34,5.45,2.5,7.26-3.63,8.32-9.46,17.4-17.48,27.23-8.02,9.84-16.57,18.69-25.65,26.55h-7.49Z" fill="#fff"/><path d="M1465.46,1049.67c-3.03,0-5.6-1.02-7.72-3.06-2.12-2.04-3.18-4.58-3.18-7.6s1.06-5.6,3.18-7.72c2.12-2.12,4.69-3.18,7.72-3.18s5.56,1.06,7.6,3.18c2.04,2.12,3.06,4.69,3.06,7.72s-1.02,5.56-3.06,7.6c-2.04,2.04-4.58,3.06-7.6,3.06Z" fill="#fff"/><path d="M1462.73,1017.9c-3.78-9.68-6.7-21.14-8.74-34.38-2.04-13.24-3.06-26.44-3.06-39.6,0-9.38.45-18.61,1.36-27.69h-231.5c-.45-6.81-.11-13.81,1.02-20.99,1.13-7.18,2.76-13.28,4.88-18.27h264.86c1.82,6.35,3.33,12.86,4.54,19.52,1.21,6.66,2.12,13.24,2.72,19.75h-23.15c-7.57,0-13.24,1.51-17.02,4.54-3.78,3.03-5.67,7.11-5.67,12.25,0,6.81,3.1,13.96,9.3,21.45,6.2,7.49,14.67,14.41,25.42,20.77-2.12,7.42-5.11,15.02-8.96,22.81-3.86,7.79-7.83,14.41-11.92,19.86h-4.08Z" fill="#fff"/><path d="M90.56,1238.73c5.6-5.14,10.1-10.93,13.5-17.36,3.4-6.43,5.11-12.37,5.11-17.82,0-4.54-1.33-8.17-3.97-10.89-2.65-2.72-6.77-4.08-12.37-4.08h-41.99c-.45-6.81-.11-13.81,1.02-20.99,1.13-7.18,2.76-13.28,4.88-18.27h56.29c4.84,8.62,7.26,18.61,7.26,29.96s-2.57,23.04-7.72,34.16c-5.15,11.12-12.11,20.16-20.88,27.12l-1.13-1.82Z" fill="#fff"/><path d="M245.57,1322.02c-3.03,0-5.6-1.02-7.72-3.06-2.12-2.04-3.18-4.58-3.18-7.6s1.06-5.6,3.18-7.72c2.12-2.12,4.69-3.18,7.72-3.18s5.56,1.06,7.6,3.18c2.04,2.12,3.06,4.69,3.06,7.72s-1.02,5.56-3.06,7.6c-2.04,2.04-4.58,3.06-7.6,3.06Z" fill="#fff"/><path d="M184.97,1226.7c-3.03,0-5.6-1.02-7.72-3.06-2.12-2.04-3.18-4.58-3.18-7.6s1.06-5.6,3.18-7.72c2.12-2.12,4.69-3.18,7.72-3.18s5.56,1.06,7.6,3.18c2.04,2.12,3.06,4.69,3.06,7.72s-1.02,5.37-3.06,7.49c-2.04,2.12-4.58,3.18-7.6,3.18Z" fill="#fff"/><path d="M243.07,1290.24c-3.78-9.68-6.7-21.14-8.74-34.38-2.04-13.24-3.06-26.44-3.06-39.6,0-9.38.45-18.61,1.36-27.69h-106.9c-.45-6.81-.11-13.81,1.02-20.99,1.13-7.18,2.76-13.28,4.88-18.27h140.26c1.82,6.35,3.33,12.86,4.54,19.52,1.21,6.66,2.12,13.24,2.72,19.75h-23.15c-7.57,0-13.24,1.51-17.02,4.54-3.78,3.03-5.67,7.11-5.67,12.25,0,6.81,3.1,13.96,9.31,21.45,6.2,7.49,14.67,14.41,25.42,20.77-2.12,7.42-5.11,15.02-8.96,22.81-3.86,7.79-7.83,14.41-11.92,19.86h-4.08Z" fill="#fff"/><path d="M372.89,1322.02c-3.03,0-5.6-1.02-7.72-3.06-2.12-2.04-3.18-4.58-3.18-7.6s1.06-5.6,3.18-7.72c2.12-2.12,4.69-3.18,7.72-3.18s5.56,1.06,7.6,3.18c2.04,2.12,3.06,4.69,3.06,7.72s-1.02,5.56-3.06,7.6c-2.04,2.04-4.58,3.06-7.6,3.06ZM372.89,1353.11c-3.03,0-5.6-1.02-7.72-3.06-2.12-2.04-3.18-4.58-3.18-7.6s1.06-5.6,3.18-7.72c2.12-2.12,4.69-3.18,7.72-3.18s5.56,1.06,7.6,3.18c2.04,2.12,3.06,4.69,3.06,7.72s-1.02,5.56-3.06,7.6c-2.04,2.04-4.58,3.06-7.6,3.06Z" fill="#fff"/><path d="M298.67,1289.79c-2.57-4.54-4.62-11.2-6.13-19.97-1.51-8.77-1.89-16.19-1.13-22.24,16.64,0,33.36-.53,50.16-1.59,6.05-3.78,10.67-8.7,13.84-14.75,3.18-6.05,4.77-12.1,4.77-18.16,0-6.96-2.12-12.78-6.35-17.48-4.24-4.69-10.21-7.04-17.93-7.04h-52.43c-.45-6.81-.11-13.81,1.02-20.99,1.13-7.18,2.76-13.28,4.88-18.27h58.33c5.6,14.53,9.91,29.96,12.94,46.3,3.02,16.34,4.46,32.53,4.31,48.57,27.38-2.87,47.21-6.96,59.46-12.26,8.77-3.63,15.43-7.94,19.97-12.94,4.54-4.99,6.81-9.83,6.81-14.53s-2.16-8.32-6.47-11.35c-4.31-3.03-10.18-4.54-17.59-4.54h-62.87c-.45-6.81-.11-13.81,1.02-20.99,1.13-7.18,2.76-13.28,4.88-18.27h76.03c6.35,16.04,9.53,31.17,9.53,45.39,0,20.28-7.11,37.56-21.33,51.86-14.22,14.3-33.29,25.08-57.19,32.34-23.91,7.26-50.08,10.89-78.53,10.89Z" fill="#fff"/><path d="M481.6,1318.39c-.31-2.12-.45-4.65-.45-7.6s.15-5.26.45-6.92h47.66c.3,1.66.45,3.97.45,6.92s-.15,5.48-.45,7.6h-47.66Z" fill="#fff"/><path d="M495.44,1224.2c-3.03,0-5.6-1.02-7.72-3.06-2.12-2.04-3.18-4.58-3.18-7.6s1.06-5.6,3.18-7.72c2.12-2.12,4.69-3.18,7.72-3.18s5.56,1.06,7.6,3.18c2.04,2.12,3.06,4.69,3.06,7.72s-1.02,5.37-3.06,7.49c-2.04,2.12-4.58,3.18-7.6,3.18Z" fill="#fff"/><path d="M471.39,1290.02c-2.72-5.45-4.62-12.06-5.67-19.86-1.06-7.79-1.06-15.32,0-22.58,9.68-.75,19.82-3.48,30.41-8.17,10.59-4.69,19.4-10.21,26.44-16.57,7.04-6.35,10.55-12.4,10.55-18.16,0-4.99-1.48-8.93-4.43-11.8-2.95-2.87-7.76-4.31-14.41-4.31h-54.24c-.45-6.81-.11-13.81,1.02-20.99,1.13-7.18,2.76-13.28,4.88-18.27h68.77c4.23,5.9,6.35,14.45,6.35,25.65,0,11.95-2.57,25.65-7.72,41.08.15,5.45,1.44,10.82,3.86,16.11,2.42,5.3,5.9,10.44,10.44,15.43,0,8.17-.42,16-1.25,23.49-.83,7.49-1.85,13.28-3.06,17.36h-6.35c-5.3-4.23-10.14-9.42-14.52-15.55-4.39-6.13-7.49-12.06-9.31-17.82h-1.13c-4.69,8.62-10.4,16.15-17.14,22.58-6.73,6.43-13.2,10.55-19.4,12.37h-4.08Z" fill="#fff"/><path d="M755.76,1227.83c-3.03,0-5.6-1.02-7.72-3.06-2.12-2.04-3.18-4.58-3.18-7.6s1.06-5.6,3.18-7.72c2.12-2.12,4.69-3.18,7.72-3.18s5.56,1.06,7.6,3.18c2.04,2.12,3.06,4.69,3.06,7.72s-1.02,5.37-3.06,7.49c-2.04,2.12-4.58,3.18-7.6,3.18Z" fill="#fff"/><path d="M862.43,1290.24c-4.39-5.75-8.51-12.48-12.37-20.2-3.86-7.72-6.77-15.21-8.74-22.47,9.08-5.45,17.02-12.22,23.83-20.31,6.81-8.09,10.21-16,10.21-23.72,0-4.54-1.7-8.17-5.11-10.89s-7.91-4.08-13.5-4.08h-209.93c3.78,12.41,5.67,24.44,5.67,36.09,0,18.01-4.39,32.87-13.16,44.6-8.78,11.73-20.73,18.34-35.86,19.86-2.57-5.29-4.35-11.65-5.33-19.06-.99-7.41-1.1-14.9-.34-22.47,9.53,0,17.82-2.34,24.85-7.04,7.04-4.69,12.4-10.48,16.11-17.36,3.71-6.88,5.56-13.58,5.56-20.09s-.68-11.04-2.04-14.52h-50.61c-.45-6.81-.11-13.81,1.02-20.99,1.13-7.18,2.76-13.28,4.88-18.27h271.89c5.9,20.88,8.85,43.2,8.85,66.95,0,13.16-1.02,26.37-3.06,39.6-2.04,13.24-4.96,24.7-8.74,34.38h-4.09Z" fill="#fff"/><path d="M943,1318.39c-.3-2.12-.45-4.65-.45-7.6s.15-5.26.45-6.92h47.66c.3,1.66.45,3.97.45,6.92s-.15,5.48-.45,7.6h-47.66Z" fill="#fff"/><path d="M945.73,1289.11c-12.26-9.08-23.72-21.33-34.38-36.77-10.67-15.43-18.58-32.64-23.72-51.63-5.15-18.99-5.6-37.94-1.36-56.85,7.87.76,15.7,3.14,23.49,7.15,7.79,4.01,14.18,8.89,19.18,14.64-6.35,6.81-11.58,15.62-15.66,26.44-4.08,10.82-6.13,21.15-6.13,30.98,0,5.6.68,10.63,2.04,15.09,1.36,4.46,3.48,8.21,6.35,11.23,26.33,0,50.04-1.62,71.15-4.88,21.11-3.25,37.79-7.94,50.04-14.07s18.38-13.35,18.38-21.67c0-3.93-1.59-7.72-4.77-11.35-3.18-3.63-7.98-6.62-14.41-8.96-6.43-2.34-14.18-3.52-23.26-3.52-13.92,0-24.97,2.84-33.14,8.51-8.17,5.67-13.39,13.43-15.66,23.26-.76.15-1.59.23-2.5.23s-1.74-.07-2.5-.23c-1.36-6.2-2.04-11.95-2.04-17.25,0-10.44,2.08-19.67,6.24-27.69,4.16-8.02,10.02-14.26,17.59-18.72,7.56-4.46,16.34-6.69,26.33-6.69s19.1,2.16,26.89,6.47c7.79,4.31,13.81,10.37,18.04,18.16,4.23,7.79,6.36,16.83,6.36,27.12,0,18.16-4.62,34.08-13.84,47.77-9.23,13.7-22.32,24.32-39.26,31.89-16.95,7.57-36.77,11.35-59.46,11.35Z" fill="#fff"/><path d="M1154.75,1318.39c-.3-2.12-.45-4.65-.45-7.6s.15-5.26.45-6.92h47.66c.3,1.66.45,3.97.45,6.92s-.15,5.48-.45,7.6h-47.66Z" fill="#fff"/><path d="M1135.01,1290.24c-3.63-21.94-7.15-39-10.55-51.18-3.4-12.18-8.06-22.2-13.96-30.07-5.15-6.81-11.84-11.92-20.09-15.32-8.25-3.4-18.27-5.11-30.07-5.11-.45-7.41-.11-14.79,1.02-22.13,1.13-7.34,2.84-13.35,5.11-18.04,11.5,0,21.94,2.54,31.32,7.6,9.38,5.07,16.11,11.77,20.2,20.08h.68c4.08-8.32,10.89-15.01,20.43-20.08,9.53-5.07,20.2-7.6,32-7.6,2.57,4.69,4.65,10.78,6.24,18.27,1.59,7.49,2.38,14.72,2.38,21.67-17.4,0-31.43,2.57-42.1,7.72-10.67,5.15-16,12.48-16,22.01,0,8.93,3.86,19.22,11.58,30.87,22.09,0,42.25-1.93,60.48-5.79,18.23-3.86,32.68-9.49,43.35-16.91,10.67-7.41,16-16.19,16-26.33,0-3.48-1.1-6.24-3.29-8.28-2.2-2.04-5.11-3.06-8.74-3.06h-56.06c-.61-6.66-.34-13.58.79-20.77,1.13-7.18,2.84-13.35,5.11-18.5h55.6c6.5,15.28,9.76,30.18,9.76,44.71s-3.1,28.18-9.3,41.87c-6.21,13.7-15.43,26.89-27.69,39.6-9.84,4.39-22.47,7.94-37.9,10.67-15.43,2.72-30.87,4.08-46.3,4.08Z" fill="#fff"/><path d="M1339.27,1318.39c-.3-2.12-.45-4.65-.45-7.6s.15-5.26.45-6.92h47.66c.3,1.66.45,3.97.45,6.92s-.15,5.48-.45,7.6h-47.66Z" fill="#fff"/><path d="M1280.26,1287.97c-3.63-5.29-6.58-11.61-8.85-18.95-2.27-7.34-3.4-14.49-3.4-21.45,9.83,0,17.17-.07,22.01-.23-.91-22.24,3.55-41.83,13.39-58.78h-43.35c-.45-6.81-.11-13.81,1.02-20.99,1.13-7.18,2.76-13.28,4.88-18.27h47.89c2.27,3.03,4.46,9.08,6.58,18.16,7.41-6.66,15.58-11.76,24.51-15.32,8.93-3.55,18-5.33,27.24-5.33,12.25,0,23.98,3.18,35.18,9.53,11.2,6.36,20.27,15.93,27.23,28.71,6.96,12.79,10.44,28.48,10.44,47.09-3.18,8.78-13.16,17.51-29.96,26.21-16.79,8.7-37.37,15.81-61.73,21.33-24.36,5.53-48.72,8.28-73.08,8.28ZM1292.06,1246.9c36.16-1.21,67.97-3.97,95.44-8.28,27.46-4.31,45.58-9.11,54.36-14.41,0-8.17-2.95-15.09-8.85-20.77-5.9-5.67-13.58-9.91-23.04-12.71-9.46-2.8-19.48-4.2-30.07-4.2-12.86,0-25.53,2.23-38.01,6.7-12.48,4.46-23.23,11.23-32.23,20.31-9,9.08-14.87,20.2-17.59,33.36Z" fill="#fff"/><path d="M1465.68,1226.7c-3.03,0-5.6-1.02-7.72-3.06-2.12-2.04-3.18-4.58-3.18-7.6s1.06-5.6,3.18-7.72,4.69-3.18,7.72-3.18,5.56,1.06,7.6,3.18c2.04,2.12,3.06,4.69,3.06,7.72s-1.02,5.37-3.06,7.49c-2.04,2.12-4.58,3.18-7.6,3.18Z" fill="#fff"/><path d="M1483.38,1290.24c-4.39-5.75-8.51-12.48-12.37-20.2s-6.77-15.21-8.74-22.47c9.99-5.29,18.19-11.95,24.62-19.97,6.43-8.02,9.65-15.73,9.65-23.15,0-4.84-1.55-8.7-4.65-11.58-3.1-2.87-7.83-4.31-14.18-4.31h-38.58c-.45-6.81-.11-13.81,1.02-20.99,1.13-7.18,2.76-13.28,4.88-18.27h45.39c5.9,20.88,8.85,43.2,8.85,66.95,0,13.16-1.02,26.37-3.06,39.6-2.04,13.24-4.96,24.7-8.74,34.38h-4.08Z" fill="#fff"/><path d="M93.73,1511.07c5.6-5.14,10.1-10.93,13.5-17.36,3.4-6.43,5.11-12.37,5.11-17.82,0-4.54-1.33-8.17-3.97-10.89-2.65-2.72-6.77-4.08-12.37-4.08h-41.99c-.45-6.81-.11-13.81,1.02-20.99,1.13-7.18,2.76-13.28,4.88-18.27h56.29c4.84,8.62,7.26,18.61,7.26,29.96s-2.57,23.04-7.72,34.16c-5.15,11.12-12.11,20.16-20.88,27.12l-1.13-1.82Z" fill="#fff"/><path d="M539.7,1594.36c-3.03,0-5.6-1.02-7.72-3.06-2.12-2.04-3.18-4.58-3.18-7.6s1.06-5.6,3.18-7.72c2.12-2.12,4.69-3.18,7.72-3.18s5.56,1.06,7.6,3.18c2.04,2.12,3.06,4.69,3.06,7.72s-1.02,5.56-3.06,7.6c-2.04,2.04-4.58,3.06-7.6,3.06Z" fill="#fff"/><path d="M483.19,1499.04c-3.03,0-5.6-1.02-7.72-3.06-2.12-2.04-3.18-4.58-3.18-7.6s1.06-5.6,3.18-7.72c2.12-2.12,4.69-3.18,7.72-3.18s5.56,1.06,7.6,3.18c2.04,2.12,3.06,4.69,3.06,7.72s-1.02,5.37-3.06,7.49c-2.04,2.12-4.58,3.18-7.6,3.18Z" fill="#fff"/><path d="M536.98,1562.59c-3.78-9.68-6.7-21.14-8.74-34.38-2.04-13.24-3.06-26.44-3.06-39.6,0-9.38.45-18.61,1.36-27.69H128.91c-.45-6.81-.11-13.81,1.02-20.99,1.13-7.18,2.76-13.28,4.88-18.27h430.99c1.82,6.35,3.37,12.86,4.65,19.52,1.28,6.66,2.16,13.24,2.61,19.75h-23.15c-7.57,0-13.24,1.51-17.02,4.54-3.78,3.03-5.67,7.11-5.67,12.25,0,6.81,3.1,13.96,9.31,21.45,6.2,7.49,14.67,14.41,25.42,20.77-2.12,7.42-5.11,15.02-8.96,22.81-3.86,7.79-7.83,14.41-11.92,19.86h-4.09Z" fill="#fff"/><path d="M666.8,1594.36c-3.03,0-5.6-1.02-7.72-3.06-2.12-2.04-3.18-4.58-3.18-7.6s1.06-5.6,3.18-7.72c2.12-2.12,4.69-3.18,7.72-3.18s5.56,1.06,7.6,3.18c2.04,2.12,3.06,4.69,3.06,7.72s-1.02,5.56-3.06,7.6c-2.04,2.04-4.58,3.06-7.6,3.06ZM666.8,1625.46c-3.03,0-5.6-1.02-7.72-3.06-2.12-2.04-3.18-4.58-3.18-7.6s1.06-5.6,3.18-7.72c2.12-2.12,4.69-3.18,7.72-3.18s5.56,1.06,7.6,3.18c2.04,2.12,3.06,4.69,3.06,7.72s-1.02,5.56-3.06,7.6c-2.04,2.04-4.58,3.06-7.6,3.06Z" fill="#fff"/><path d="M592.58,1562.14c-2.57-4.54-4.62-11.2-6.13-19.97-1.51-8.77-1.89-16.19-1.13-22.24,16.64,0,33.36-.53,50.16-1.59,6.05-3.78,10.67-8.7,13.84-14.75,3.18-6.05,4.77-12.1,4.77-18.16,0-6.96-2.12-12.78-6.35-17.48-4.24-4.69-10.21-7.04-17.93-7.04h-52.43c-.45-6.81-.11-13.81,1.02-20.99,1.13-7.18,2.76-13.28,4.88-18.27h58.33c5.6,14.53,9.91,29.96,12.94,46.3,3.02,16.34,4.46,32.53,4.31,48.57,27.38-2.87,47.21-6.96,59.46-12.26,8.77-3.63,15.43-7.94,19.97-12.94,4.54-4.99,6.81-9.83,6.81-14.53s-2.16-8.32-6.47-11.35c-4.31-3.03-10.18-4.54-17.59-4.54h-62.87c-.45-6.81-.11-13.81,1.02-20.99,1.13-7.18,2.76-13.28,4.88-18.27h76.03c6.35,16.04,9.53,31.17,9.53,45.39,0,20.28-7.11,37.56-21.33,51.86-14.22,14.3-33.29,25.08-57.19,32.34-23.91,7.26-50.08,10.89-78.53,10.89Z" fill="#fff"/><path d="M775.51,1590.73c-.31-2.12-.45-4.65-.45-7.6s.15-5.26.45-6.92h47.66c.3,1.66.45,3.97.45,6.92s-.15,5.48-.45,7.6h-47.66Z" fill="#fff"/><path d="M789.35,1496.55c-3.03,0-5.6-1.02-7.72-3.06-2.12-2.04-3.18-4.58-3.18-7.6s1.06-5.6,3.18-7.72c2.12-2.12,4.69-3.18,7.72-3.18s5.56,1.06,7.6,3.18c2.04,2.12,3.06,4.69,3.06,7.72s-1.02,5.37-3.06,7.49c-2.04,2.12-4.58,3.18-7.6,3.18Z" fill="#fff"/><path d="M765.3,1562.36c-2.72-5.45-4.62-12.06-5.67-19.86-1.06-7.79-1.06-15.32,0-22.58,9.68-.75,19.82-3.48,30.41-8.17,10.59-4.69,19.41-10.21,26.44-16.57,7.04-6.35,10.55-12.4,10.55-18.16,0-4.99-1.47-8.93-4.42-11.8-2.95-2.87-7.76-4.31-14.41-4.31h-54.24c-.45-6.81-.11-13.81,1.02-20.99,1.13-7.18,2.76-13.28,4.88-18.27h68.77c4.23,5.9,6.35,14.45,6.35,25.65,0,11.95-2.57,25.65-7.72,41.08.15,5.45,1.44,10.82,3.86,16.11,2.42,5.3,5.9,10.44,10.44,15.43,0,8.17-.42,16-1.25,23.49-.83,7.49-1.85,13.28-3.06,17.36h-6.36c-5.3-4.23-10.14-9.42-14.53-15.55-4.39-6.13-7.49-12.06-9.3-17.82h-1.13c-4.69,8.62-10.41,16.15-17.14,22.58-6.73,6.43-13.2,10.55-19.4,12.37h-4.08Z" fill="#fff"/><path d="M993.61,1560.32c-26.78-5.29-48.04-16-63.77-32.11-15.74-16.11-23.6-36.5-23.6-61.17,0-2.72.08-4.77.23-6.13h-20.88c-.45-6.81-.11-13.81,1.02-20.99,1.13-7.18,2.76-13.28,4.88-18.27h95.55c2.57-10.59,6.96-19.93,13.16-28.03,6.2-8.09,13.84-14.33,22.92-18.72,3.48,3.03,7.04,8.89,10.67,17.59,3.63,8.7,5.6,15.47,5.9,20.31-8.48-1.21-16.57-.98-24.28.68-7.72,1.67-14,4.54-18.84,8.62,7.87.61,14.98,1.78,21.33,3.52,6.35,1.74,11.8,4.05,16.34,6.92,6.05,3.94,10.55,8.66,13.5,14.18,2.95,5.53,4.42,11.61,4.42,18.27l-2.27,2.95c-3.63-2.12-10.71-3.82-21.22-5.11-10.52-1.28-22.66-1.93-36.43-1.93h-60.82c-7.11,0-12.56,1.51-16.34,4.54-3.78,3.03-5.67,6.96-5.67,11.8,0,7.72,4.95,14.56,14.87,20.54,9.91,5.98,21.94,10.82,36.09,14.53,14.15,3.71,27.8,6.24,40.97,7.6.45,6.66,0,13.66-1.36,20.99-1.36,7.34-3.48,13.81-6.36,19.4Z" fill="#fff"/><path d="M1098.01,1590.73c-.3-2.12-.45-4.65-.45-7.6s.15-5.26.45-6.92h47.66c.3,1.66.45,3.97.45,6.92s-.15,5.48-.45,7.6h-47.66Z" fill="#fff"/><path d="M1120.25,1560.32c-2.57-4.99-4.81-11.61-6.7-19.86-1.89-8.25-2.84-15.09-2.84-20.54,11.65-1.96,24.43-5.14,38.36-9.53,13.92-4.39,25.65-9.45,35.18-15.21,6.05-3.63,10.78-7.41,14.19-11.35,3.4-3.93,5.11-7.94,5.11-12.03,0-3.18-.99-5.79-2.95-7.83-1.97-2.04-4.84-3.06-8.62-3.06h-135.27c-.76-9.38-1.13-17.32-1.13-23.83,0-16.49,3.06-30.98,9.19-43.46s15.17-21.67,27.12-27.58c3.48,3.03,7.04,8.89,10.67,17.59,3.63,8.7,5.6,15.47,5.9,20.31-11.05-1.51-21.26-.72-30.64,2.38-9.38,3.1-15.81,8.21-19.29,15.32h138.44c6.35,15.74,9.53,31.47,9.53,47.21,0,12.86-3.6,25.53-10.78,38.01-7.19,12.48-17.33,23.49-30.41,33.02-13.09,9.53-28.11,16.34-45.05,20.43Z" fill="#fff"/><path d="M1346.53,1590.73c-.3-2.12-.45-4.65-.45-7.6s.15-5.26.45-6.92h47.66c.3,1.66.45,3.97.45,6.92s-.15,5.48-.45,7.6h-47.66Z" fill="#fff"/><path d="M1322.25,1560.32c-26.78-5.29-48.04-16-63.77-32.11-15.74-16.11-23.6-36.5-23.6-61.17,0-2.72.07-4.77.23-6.13h-24.74c-.45-6.81-.11-13.81,1.02-20.99,1.13-7.18,2.76-13.28,4.88-18.27h216.52c2.57-10.89,6.96-20.5,13.16-28.82,6.2-8.32,13.92-14.67,23.15-19.06,3.48,3.03,7.04,8.89,10.67,17.59,3.63,8.7,5.6,15.47,5.9,20.31-8.78-1.36-17.1-1.1-24.96.79-7.87,1.89-14.22,5.11-19.06,9.65,8.02.45,15.28,1.47,21.79,3.06,6.5,1.59,12.1,3.75,16.79,6.47,6.66,3.94,11.61,8.74,14.87,14.41,3.25,5.67,4.88,11.99,4.88,18.95l-2.27,2.95c-3.63-2.12-10.71-3.82-21.22-5.11-10.52-1.28-22.66-1.93-36.43-1.93h-179.98c-7.11,0-12.56,1.51-16.34,4.54-3.78,3.03-5.67,6.96-5.67,11.8,0,7.72,4.95,14.56,14.87,20.54,9.91,5.98,21.94,10.82,36.09,14.53,14.15,3.71,27.8,6.24,40.97,7.6.45,6.66,0,13.66-1.36,20.99-1.36,7.34-3.48,13.81-6.36,19.4Z" fill="#fff"/><path d="M88.06,1783.42c5.6-5.14,10.1-10.93,13.5-17.36,3.4-6.43,5.11-12.37,5.11-17.82,0-4.54-1.33-8.17-3.97-10.89-2.65-2.72-6.77-4.08-12.37-4.08h-41.99c-.45-6.81-.11-13.81,1.02-20.99,1.13-7.18,2.76-13.28,4.88-18.27h56.29c4.84,8.62,7.26,18.61,7.26,29.96s-2.57,23.04-7.72,34.16c-5.15,11.12-12.11,20.16-20.88,27.12l-1.13-1.82Z" fill="#fff"/><path d="M157.05,1866.71c-3.03,0-5.6-1.02-7.72-3.06-2.12-2.04-3.18-4.58-3.18-7.6s1.06-5.6,3.18-7.72c2.12-2.12,4.69-3.18,7.72-3.18s5.56,1.06,7.6,3.18c2.04,2.12,3.06,4.69,3.06,7.72s-1.02,5.56-3.06,7.6c-2.04,2.04-4.58,3.06-7.6,3.06Z" fill="#fff"/><path d="M140.94,1833.12c-2.57-5.14-4.58-11.23-6.01-18.27-1.44-7.04-2.16-14.56-2.16-22.58,10.59,0,20.01-1.96,28.26-5.9,8.25-3.93,14.64-9.11,19.18-15.55,4.54-6.43,6.81-13.28,6.81-20.54,0-6.2-2.04-11.88-6.13-17.02h-57.65c-.45-6.81-.11-13.81,1.02-20.99,1.13-7.18,2.76-13.28,4.88-18.27h51.52c6.2,17.7,9.31,35.26,9.31,52.65,0,24.21-3.74,43.88-11.23,59.01-7.49,15.13-20.09,24.28-37.79,27.46Z" fill="#fff"/><path d="M502.48,1866.71c-3.03,0-5.6-1.02-7.72-3.06-2.12-2.04-3.18-4.58-3.18-7.6s1.06-5.6,3.18-7.72c2.12-2.12,4.69-3.18,7.72-3.18s5.56,1.06,7.6,3.18c2.04,2.12,3.06,4.69,3.06,7.72s-1.02,5.56-3.06,7.6c-2.04,2.04-4.58,3.06-7.6,3.06ZM502.48,1897.81c-3.03,0-5.6-1.02-7.72-3.06-2.12-2.04-3.18-4.58-3.18-7.6s1.06-5.6,3.18-7.72c2.12-2.12,4.69-3.18,7.72-3.18s5.56,1.06,7.6,3.18c2.04,2.12,3.06,4.69,3.06,7.72s-1.02,5.56-3.06,7.6c-2.04,2.04-4.58,3.06-7.6,3.06Z" fill="#fff"/><path d="M768.7,1834.94c-4.39-5.75-8.51-12.48-12.37-20.2-3.86-7.72-6.77-15.21-8.74-22.47,9.08-5.45,17.02-12.22,23.83-20.31,6.81-8.09,10.21-16,10.21-23.72,0-4.54-1.7-8.17-5.11-10.89s-7.91-4.08-13.5-4.08H248.97c3.78,12.41,5.67,24.44,5.67,36.09,0,18.01-4.39,32.87-13.16,44.6-8.78,11.73-20.73,18.34-35.86,19.86-2.57-5.29-4.35-11.65-5.33-19.06-.99-7.41-1.1-14.9-.34-22.47,9.53,0,17.82-2.34,24.85-7.04,7.04-4.69,12.4-10.48,16.11-17.36,3.71-6.88,5.56-13.58,5.56-20.09s-.68-11.04-2.04-14.52h-50.61c-.45-6.81-.11-13.81,1.02-20.99,1.13-7.18,2.76-13.28,4.88-18.27h576.02c5.9,20.88,8.85,43.2,8.85,66.95,0,13.16-1.02,26.37-3.06,39.6-2.04,13.24-4.96,24.7-8.74,34.38h-4.09Z" fill="#fff"/><path d="M798.88,1863.08c-.3-2.12-.45-4.65-.45-7.6s.15-5.26.45-6.92h47.66c.3,1.66.45,3.97.45,6.92s-.15,5.48-.45,7.6h-47.66Z" fill="#fff"/><path d="M806.6,1833.12c-2.57-5.14-4.58-11.23-6.01-18.27-1.44-7.04-2.16-14.56-2.16-22.58,10.59,0,20.01-1.96,28.26-5.9,8.24-3.93,14.64-9.11,19.18-15.55,4.54-6.43,6.81-13.28,6.81-20.54,0-6.2-2.04-11.88-6.13-17.02h-57.65c-.45-6.81-.11-13.81,1.02-20.99,1.13-7.18,2.76-13.28,4.88-18.27h51.52c6.2,17.7,9.3,35.26,9.3,52.65,0,24.21-3.75,43.88-11.23,59.01-7.49,15.13-20.09,24.28-37.79,27.46Z" fill="#fff"/><path d="M995.66,1863.08c-.3-2.12-.45-4.65-.45-7.6s.15-5.26.45-6.92h47.66c.3,1.66.45,3.97.45,6.92s-.15,5.48-.45,7.6h-47.66Z" fill="#fff"/><path d="M1134.78,1834.94c-4.39-5.75-8.51-12.48-12.37-20.2-3.86-7.72-6.77-15.13-8.74-22.24,10.44-6.81,18.84-14.3,25.19-22.47,6.35-8.17,9.53-15.51,9.53-22.01,0-4.54-1.55-8.13-4.65-10.78-3.1-2.65-7.83-3.97-14.18-3.97h-270.08c-.45-6.81-.11-13.81,1.02-20.99,1.13-7.18,2.76-13.28,4.88-18.27h276.43c5.9,20.88,8.85,43.2,8.85,66.95,0,13.16-1.02,26.37-3.06,39.6-2.04,13.24-4.96,24.7-8.74,34.38h-4.09ZM908.5,1834.94c-6.51-7.11-10.97-15.62-13.39-25.53-2.42-9.91-2.8-20.2-1.13-30.87,1.66-10.67,5.07-20.69,10.21-30.07h2.5c0,10.74,2.27,19.94,6.81,27.57,4.54,7.64,11.12,13.05,19.75,16.23-1.97,8.02-4.99,15.93-9.08,23.72-4.08,7.79-8.55,14.11-13.39,18.95h-2.27Z" fill="#fff"/><path d="M1375.35,1863.08c-.3-2.12-.45-4.65-.45-7.6s.15-5.26.45-6.92h47.66c.3,1.66.45,3.97.45,6.92s-.15,5.48-.45,7.6h-47.66Z" fill="#fff"/><path d="M1340.17,1771.39c-3.03,0-5.6-1.02-7.72-3.06-2.12-2.04-3.18-4.58-3.18-7.6s1.06-5.6,3.18-7.72,4.69-3.18,7.72-3.18,5.56,1.06,7.6,3.18c2.04,2.12,3.06,4.69,3.06,7.72s-1.02,5.37-3.06,7.49c-2.04,2.12-4.58,3.18-7.6,3.18Z" fill="#fff"/><path d="M1396.46,1834.94c-3.78-9.68-6.7-21.14-8.74-34.38-2.04-13.24-3.06-26.44-3.06-39.6,0-9.38.45-18.61,1.36-27.69h-231.5c-.45-6.81-.11-13.81,1.02-20.99,1.13-7.18,2.76-13.28,4.88-18.27h264.86c1.82,6.35,3.33,12.86,4.54,19.52,1.21,6.66,2.12,13.24,2.72,19.75h-23.15c-7.57,0-13.24,1.51-17.02,4.54-3.78,3.03-5.67,7.11-5.67,12.25,0,6.81,3.1,13.96,9.3,21.45,6.2,7.49,14.67,14.41,25.42,20.77-2.12,7.42-5.11,15.02-8.96,22.81-3.86,7.79-7.83,14.41-11.92,19.86h-4.08Z" fill="#fff"/><path d="M1483.38,1866.71c-3.03,0-5.6-1.02-7.72-3.06-2.12-2.04-3.18-4.58-3.18-7.6s1.06-5.6,3.18-7.72c2.12-2.12,4.69-3.18,7.72-3.18s5.56,1.06,7.6,3.18c2.04,2.12,3.06,4.69,3.06,7.72s-1.02,5.56-3.06,7.6c-2.04,2.04-4.58,3.06-7.6,3.06ZM1483.38,1897.81c-3.03,0-5.6-1.02-7.72-3.06-2.12-2.04-3.18-4.58-3.18-7.6s1.06-5.6,3.18-7.72c2.12-2.12,4.69-3.18,7.72-3.18s5.56,1.06,7.6,3.18c2.04,2.12,3.06,4.69,3.06,7.72s-1.02,5.56-3.06,7.6-4.58,3.06-7.6,3.06Z" fill="#fff"/><path d="M1483.38,1834.94c-4.39-5.75-8.51-12.48-12.37-20.2s-6.77-15.21-8.74-22.47c9.99-5.29,18.19-11.95,24.62-19.97,6.43-8.02,9.65-15.73,9.65-23.15,0-4.84-1.55-8.7-4.65-11.58-3.1-2.87-7.83-4.31-14.18-4.31h-38.58c-.45-6.81-.11-13.81,1.02-20.99,1.13-7.18,2.76-13.28,4.88-18.27h45.39c5.9,20.88,8.85,43.2,8.85,66.95,0,13.16-1.02,26.37-3.06,39.6-2.04,13.24-4.96,24.7-8.74,34.38h-4.08Z" fill="#fff"/><path d="M185.42,2105.02c-26.78-5.29-48.04-16-63.77-32.11-15.74-16.11-23.6-36.5-23.6-61.17,0-2.72.07-4.77.23-6.13h-36.54c-.45-6.81-.11-13.81,1.02-20.99,1.13-7.18,2.76-13.28,4.88-18.27h579.42c2.12-11.65,6.39-21.94,12.82-30.87,6.43-8.93,14.49-15.73,24.17-20.43,3.48,3.03,7.04,8.89,10.67,17.59,3.63,8.7,5.6,15.47,5.9,20.31-9.68-1.36-18.84-.87-27.46,1.48-8.62,2.35-15.06,6.32-19.29,11.92,8.77.3,16.57,1.06,23.38,2.27,6.81,1.21,12.71,2.95,17.7,5.22,8.62,3.63,14.98,8.55,19.06,14.75,4.09,6.21,6.13,13.24,6.13,21.11l-2.27,2.95c-3.63-2.12-10.71-3.82-21.22-5.11-10.52-1.28-22.66-1.93-36.43-1.93H123.24c-7.11,0-12.56,1.51-16.34,4.54-3.78,3.03-5.67,6.96-5.67,11.8,0,7.72,4.95,14.56,14.87,20.54,9.91,5.98,21.94,10.82,36.09,14.53,14.15,3.71,27.8,6.24,40.97,7.6.45,6.66,0,13.66-1.36,20.99-1.36,7.34-3.48,13.81-6.35,19.4Z" fill="#fff"/><path d="M733.29,2135.43c-.31-2.12-.45-4.65-.45-7.6s.15-5.26.45-6.92h47.66c.3,1.66.45,3.97.45,6.92s-.15,5.48-.45,7.6h-47.66Z" fill="#fff"/><path d="M741.01,2105.47c-2.57-5.14-4.58-11.23-6.01-18.27-1.44-7.04-2.16-14.56-2.16-22.58,10.59,0,20.01-1.96,28.26-5.9,8.25-3.93,14.64-9.11,19.18-15.55,4.54-6.43,6.81-13.28,6.81-20.54,0-6.2-2.04-11.88-6.13-17.02h-57.65c-.45-6.81-.11-13.81,1.02-20.99,1.13-7.18,2.76-13.28,4.88-18.27h51.52c6.2,17.7,9.3,35.26,9.3,52.65,0,24.21-3.74,43.88-11.23,59.01-7.49,15.13-20.08,24.28-37.79,27.46Z" fill="#fff"/><path d="M916.9,2105.02c-26.78-5.29-48.04-16-63.77-32.11-15.74-16.11-23.6-36.5-23.6-61.17,0-2.72.07-4.77.23-6.13h-35.86c-.45-6.81-.11-13.81,1.02-20.99,1.13-7.18,2.76-13.28,4.88-18.27h563.53c2.12-11.65,6.35-21.9,12.71-30.75,6.35-8.85,14.37-15.55,24.06-20.08,3.48,3.03,7.04,8.89,10.67,17.59,3.63,8.7,5.6,15.47,5.9,20.31-9.68-1.51-18.8-1.1-27.35,1.25-8.55,2.35-15.09,6.24-19.63,11.69,8.93.3,16.79,1.06,23.6,2.27,6.81,1.21,12.71,2.95,17.7,5.22,8.47,3.78,14.75,8.74,18.84,14.87,4.08,6.13,6.13,13.13,6.13,20.99l-2.27,2.95c-3.63-2.12-10.71-3.82-21.22-5.11-10.52-1.28-22.66-1.93-36.43-1.93h-521.32c-7.11,0-12.56,1.51-16.34,4.54-3.78,3.03-5.67,6.96-5.67,11.8,0,7.72,4.95,14.56,14.87,20.54,9.91,5.98,21.94,10.82,36.09,14.53,14.15,3.71,27.8,6.24,40.97,7.6.45,6.66,0,13.66-1.36,20.99-1.36,7.34-3.48,13.81-6.35,19.4Z" fill="#fff"/><path d="M1459.55,2135.43c-.3-2.12-.45-4.65-.45-7.6s.15-5.26.45-6.92h47.66c.3,1.66.45,3.97.45,6.92s-.15,5.48-.45,7.6h-47.66Z" fill="#fff"/><path d="M1483.38,2107.28c-4.39-5.75-8.51-12.48-12.37-20.2s-6.77-15.21-8.74-22.47c9.99-5.29,18.19-11.95,24.62-19.97,6.43-8.02,9.65-15.73,9.65-23.15,0-4.84-1.55-8.7-4.65-11.58-3.1-2.87-7.83-4.31-14.18-4.31h-38.58c-.45-6.81-.11-13.81,1.02-20.99,1.13-7.18,2.76-13.28,4.88-18.27h45.39c5.9,20.88,8.85,43.2,8.85,66.95,0,13.16-1.02,26.37-3.06,39.6-2.04,13.24-4.96,24.7-8.74,34.38h-4.08Z" fill="#fff"/><path d="M408.52,2379.63c-4.39-5.75-8.51-12.48-12.37-20.2s-6.77-15.13-8.74-22.24c10.44-6.81,18.84-14.3,25.19-22.47,6.35-8.17,9.53-15.51,9.53-22.01,0-4.54-1.55-8.13-4.65-10.78-3.1-2.65-7.83-3.97-14.19-3.97H51.52c-.45-6.81-.11-13.81,1.02-20.99,1.13-7.18,2.76-13.28,4.88-18.27h358.14c5.9,20.88,8.85,43.2,8.85,66.95,0,13.16-1.02,26.37-3.06,39.6-2.04,13.24-4.96,24.7-8.74,34.38h-4.08ZM100.54,2379.63c-6.51-7.11-10.97-15.62-13.39-25.53-2.42-9.91-2.8-20.2-1.13-30.87,1.66-10.67,5.07-20.69,10.21-30.07h2.5c0,10.74,2.27,19.94,6.81,27.57,4.54,7.64,11.12,13.05,19.75,16.23-1.97,8.02-4.99,15.93-9.08,23.72-4.09,7.79-8.55,14.11-13.39,18.95h-2.27Z" fill="#fff"/><path d="M1246.21,2316.08c-3.03,0-5.6-1.02-7.72-3.06-2.12-2.04-3.18-4.58-3.18-7.6s1.06-5.6,3.18-7.72,4.69-3.18,7.72-3.18,5.56,1.06,7.6,3.18c2.04,2.12,3.06,4.69,3.06,7.72s-1.02,5.37-3.06,7.49c-2.04,2.12-4.58,3.18-7.6,3.18Z" fill="#fff"/><path d="M1293.42,2379.63c-3.78-9.68-6.7-21.14-8.74-34.38-2.04-13.24-3.06-26.44-3.06-39.6,0-9.38.45-18.61,1.36-27.69H428.27c-.45-6.81-.11-13.81,1.02-20.99,1.13-7.18,2.76-13.28,4.88-18.27h888.08c1.81,6.35,3.33,12.86,4.54,19.52,1.21,6.66,2.12,13.24,2.72,19.75h-23.15c-7.57,0-13.24,1.51-17.02,4.54-3.78,3.03-5.67,7.11-5.67,12.25,0,6.81,3.1,13.96,9.31,21.45,6.2,7.49,14.67,14.41,25.42,20.77-2.12,7.42-5.11,15.02-8.96,22.81-3.86,7.79-7.83,14.41-11.91,19.86h-4.09Z" fill="#fff"/><path d="M1425.96,2411.41c-3.03,0-5.6-1.02-7.72-3.06-2.12-2.04-3.18-4.58-3.18-7.6s1.06-5.6,3.18-7.72c2.12-2.12,4.69-3.18,7.72-3.18s5.56,1.06,7.6,3.18c2.04,2.12,3.06,4.69,3.06,7.72s-1.02,5.56-3.06,7.6c-2.04,2.04-4.58,3.06-7.6,3.06Z" fill="#fff"/><path d="M1352.2,2377.36c-2.57-4.54-4.62-10.89-6.13-19.06-1.51-8.17-1.89-15.28-1.13-21.33,15.73,0,32.42-.79,50.04-2.38,17.62-1.59,33.78-4.05,48.46-7.38,16.34-3.63,29.35-8.21,39.04-13.73,9.68-5.52,14.52-12.06,14.52-19.63,0-4.54-2.16-8.32-6.47-11.35-4.31-3.03-10.18-4.54-17.59-4.54h-99.86c3.18,4.39,8.02,8.25,14.53,11.57,6.5,3.33,13.99,5.67,22.47,7.04-1.36,5.3-4.24,11.08-8.62,17.36-4.39,6.28-9.46,11.99-15.21,17.14-13.62-12.71-20.43-28.29-20.43-46.75,0-2.72.08-4.84.23-6.35h-32.23c-.45-6.81-.11-13.81,1.02-20.99,1.13-7.18,2.76-13.28,4.88-18.27h150.02c6.36,16.04,9.53,31.17,9.53,45.39,0,20.43-6.35,37.64-19.06,51.63-12.71,14-30.11,24.44-52.2,31.32-22.09,6.89-47.36,10.33-75.8,10.33Z" fill="#fff"/><path d="M88.51,2600.46c5.6-5.14,10.1-10.93,13.5-17.36,3.4-6.43,5.11-12.37,5.11-17.82,0-4.54-1.33-8.17-3.97-10.89-2.65-2.72-6.77-4.08-12.37-4.08h-41.99c-.45-6.81-.11-13.81,1.02-20.99,1.13-7.18,2.76-13.28,4.88-18.27h56.29c4.84,8.62,7.26,18.61,7.26,29.96s-2.57,23.04-7.72,34.16c-5.15,11.12-12.11,20.16-20.88,27.12l-1.13-1.82Z" fill="#fff"/><path d="M226.73,2683.75c-3.03,0-5.6-1.02-7.72-3.06-2.12-2.04-3.18-4.58-3.18-7.6s1.06-5.6,3.18-7.72c2.12-2.12,4.69-3.18,7.72-3.18s5.56,1.06,7.6,3.18c2.04,2.12,3.06,4.69,3.06,7.72s-1.02,5.56-3.06,7.6c-2.04,2.04-4.58,3.06-7.6,3.06Z" fill="#fff"/><path d="M229.45,2588.43c-3.03,0-5.6-1.02-7.72-3.06-2.12-2.04-3.18-4.58-3.18-7.6s1.06-5.6,3.18-7.72c2.12-2.12,4.69-3.18,7.72-3.18s5.56,1.06,7.6,3.18c2.04,2.12,3.06,4.69,3.06,7.72s-1.02,5.37-3.06,7.49c-2.04,2.12-4.58,3.18-7.6,3.18Z" fill="#fff"/><path d="M143.89,2649.71c-3.63-5.29-6.58-11.61-8.85-18.95-2.27-7.34-3.4-14.49-3.4-21.45,9.83,0,17.17-.07,22.02-.23-.91-22.24,3.55-41.83,13.39-58.78h-43.35c-.45-6.81-.11-13.81,1.02-20.99,1.13-7.18,2.76-13.28,4.88-18.27h47.89c2.27,3.03,4.46,9.08,6.58,18.16,7.41-6.66,15.58-11.76,24.51-15.32,8.93-3.55,18-5.33,27.23-5.33,12.26,0,23.98,3.18,35.18,9.53,11.2,6.36,20.27,15.93,27.23,28.71,6.96,12.79,10.44,28.48,10.44,47.09-3.18,8.78-13.16,17.51-29.96,26.21-16.79,8.7-37.37,15.81-61.73,21.33-24.36,5.53-48.72,8.28-73.08,8.28ZM155.69,2608.63c36.16-1.21,67.97-3.97,95.44-8.28,27.46-4.31,45.58-9.11,54.36-14.41,0-8.17-2.95-15.09-8.85-20.77s-13.58-9.91-23.04-12.71c-9.46-2.8-19.48-4.2-30.07-4.2-12.86,0-25.53,2.23-38.02,6.7-12.48,4.46-23.23,11.23-32.23,20.31-9,9.08-14.87,20.2-17.59,33.36Z" fill="#fff"/><path d="M414.65,2649.71c-26.78-5.29-48.04-16-63.77-32.11-15.74-16.11-23.6-36.5-23.6-61.17,0-2.72.07-4.77.23-6.13h-24.74c-.45-6.81-.11-13.81,1.02-20.99,1.13-7.18,2.76-13.28,4.88-18.27h216.52c2.57-10.89,6.96-20.5,13.16-28.82,6.2-8.32,13.92-14.67,23.15-19.06,3.48,3.03,7.04,8.89,10.67,17.59,3.63,8.7,5.6,15.47,5.9,20.31-8.78-1.36-17.1-1.1-24.97.79-7.87,1.89-14.22,5.11-19.06,9.65,8.02.45,15.28,1.47,21.79,3.06,6.5,1.59,12.1,3.75,16.79,6.47,6.66,3.94,11.61,8.74,14.87,14.41,3.25,5.67,4.88,11.99,4.88,18.95l-2.27,2.95c-3.63-2.12-10.71-3.82-21.22-5.11-10.52-1.28-22.66-1.93-36.43-1.93h-179.98c-7.11,0-12.56,1.51-16.34,4.54-3.78,3.03-5.67,6.96-5.67,11.8,0,7.72,4.95,14.56,14.87,20.54,9.91,5.98,21.94,10.82,36.09,14.53,14.15,3.71,27.8,6.24,40.97,7.6.45,6.66,0,13.66-1.36,20.99-1.36,7.34-3.48,13.81-6.35,19.4Z" fill="#fff"/><path d="M1413.71,2683.75c-3.03,0-5.6-1.02-7.72-3.06-2.12-2.04-3.18-4.58-3.18-7.6s1.06-5.6,3.18-7.72c2.12-2.12,4.69-3.18,7.72-3.18s5.56,1.06,7.6,3.18c2.04,2.12,3.06,4.69,3.06,7.72s-1.02,5.56-3.06,7.6c-2.04,2.04-4.58,3.06-7.6,3.06ZM1431.64,2706c-3.03,0-5.6-1.02-7.72-3.06-2.12-2.04-3.18-4.58-3.18-7.6s1.06-5.6,3.18-7.72c2.12-2.12,4.69-3.18,7.72-3.18s5.56,1.06,7.6,3.18c2.04,2.12,3.06,4.69,3.06,7.72s-1.02,5.56-3.06,7.6-4.58,3.06-7.6,3.06ZM1449.57,2728.24c-3.03,0-5.6-1.02-7.72-3.06-2.12-2.04-3.18-4.58-3.18-7.6s1.06-5.6,3.18-7.72c2.12-2.12,4.69-3.18,7.72-3.18s5.56,1.06,7.6,3.18c2.04,2.12,3.06,4.69,3.06,7.72s-1.02,5.56-3.06,7.6c-2.04,2.04-4.58,3.06-7.6,3.06Z" fill="#fff"/><path d="M1413.03,2649.71c-2.57-4.99-4.8-11.61-6.7-19.86-1.89-8.25-2.84-15.09-2.84-20.54,11.65-1.96,24.43-5.14,38.36-9.53,13.92-4.39,25.65-9.45,35.18-15.21,6.05-3.63,10.78-7.41,14.19-11.35,3.4-3.93,5.11-7.94,5.11-12.03,0-3.18-.99-5.79-2.95-7.83-1.97-2.04-4.85-3.06-8.62-3.06h-887.85c-.76-9.38-1.13-17.32-1.13-23.83,0-17.7,2.65-32.83,7.94-45.39,5.29-12.56,14.07-23.38,26.33-32.46,3.48,3.03,7.04,8.89,10.67,17.59,3.63,8.7,5.6,15.47,5.9,20.31-10.75,0-20.5,2.23-29.28,6.7-8.78,4.46-14.98,10.4-18.61,17.82h891.03c6.36,15.74,9.53,31.47,9.53,47.21,0,12.71-3.74,25.31-11.23,37.79s-17.78,23.53-30.87,33.14c-13.09,9.61-27.8,16.45-44.14,20.54Z" fill="#fff"/><path d="M185.88,2922.06c-26.78-5.29-48.04-16-63.77-32.11-15.74-16.11-23.6-36.5-23.6-61.17,0-2.72.07-4.77.23-6.13h-43.35c-.45-6.81-.11-13.81,1.02-20.99,1.13-7.18,2.76-13.28,4.88-18.27h789.35c1.82-12.1,5.97-22.81,12.48-32.11,6.5-9.31,14.75-16.3,24.74-20.99,3.48,3.03,7.04,8.89,10.67,17.59,3.63,8.7,5.6,15.47,5.9,20.31-10.29-1.51-19.97-.91-29.05,1.82s-15.66,7.19-19.75,13.39c9.53,0,17.78.45,24.74,1.36,6.96.91,13.01,2.42,18.16,4.54,9.68,3.63,16.83,8.7,21.45,15.21,4.61,6.51,6.92,13.92,6.92,22.24l-2.27,2.95c-3.63-2.12-10.71-3.82-21.22-5.11-10.52-1.28-22.66-1.93-36.43-1.93H123.69c-7.11,0-12.56,1.51-16.34,4.54-3.78,3.03-5.67,6.96-5.67,11.8,0,7.72,4.95,14.56,14.87,20.54,9.91,5.98,21.94,10.82,36.09,14.53,14.15,3.71,27.8,6.24,40.97,7.6.45,6.66,0,13.66-1.36,20.99-1.36,7.34-3.48,13.81-6.35,19.4Z" fill="#fff"/><path d="M1098.01,2952.47c-.3-2.12-.45-4.65-.45-7.6s.15-5.26.45-6.92h47.66c.3,1.66.45,3.97.45,6.92s-.15,5.48-.45,7.6h-47.66Z" fill="#fff"/><path d="M1120.25,2922.06c-2.57-4.99-4.8-11.61-6.7-19.86-1.89-8.25-2.84-15.09-2.84-20.54,11.65-1.96,24.43-5.14,38.36-9.53,13.92-4.39,25.65-9.45,35.18-15.21,6.05-3.63,10.78-7.41,14.18-11.35,3.4-3.93,5.11-7.94,5.11-12.03,0-3.18-.99-5.79-2.95-7.83-1.97-2.04-4.84-3.06-8.62-3.06h-260.55c-.76-9.38-1.13-17.32-1.13-23.83,0-16.79,2.99-31.39,8.96-43.8,5.98-12.4,15.01-21.86,27.12-28.37,3.48,3.03,7.04,8.89,10.67,17.59,3.63,8.7,5.6,15.47,5.9,20.31-11.2-1.36-21.41-.38-30.64,2.95-9.23,3.33-15.58,8.62-19.06,15.89h263.72c6.36,15.74,9.53,31.47,9.53,47.21,0,12.86-3.6,25.53-10.78,38.01-7.19,12.48-17.33,23.49-30.41,33.02-13.09,9.53-28.11,16.34-45.05,20.43Z" fill="#fff"/><path d="M1346.53,2952.47c-.3-2.12-.45-4.65-.45-7.6s.15-5.26.45-6.92h47.66c.3,1.66.45,3.97.45,6.92s-.15,5.48-.45,7.6h-47.66Z" fill="#fff"/><path d="M1322.25,2922.06c-26.78-5.29-48.04-16-63.77-32.11-15.74-16.11-23.6-36.5-23.6-61.17,0-2.72.07-4.77.23-6.13h-24.74c-.45-6.81-.11-13.81,1.02-20.99,1.13-7.18,2.76-13.28,4.88-18.27h216.52c2.57-10.89,6.96-20.5,13.16-28.82,6.2-8.32,13.92-14.67,23.15-19.06,3.48,3.03,7.04,8.89,10.67,17.59,3.63,8.7,5.6,15.47,5.9,20.31-8.78-1.36-17.1-1.1-24.96.79-7.87,1.89-14.22,5.11-19.06,9.65,8.02.45,15.28,1.47,21.79,3.06,6.5,1.59,12.1,3.75,16.79,6.47,6.66,3.94,11.61,8.74,14.87,14.41,3.25,5.67,4.88,11.99,4.88,18.95l-2.27,2.95c-3.63-2.12-10.71-3.82-21.22-5.11-10.52-1.28-22.66-1.93-36.43-1.93h-179.98c-7.11,0-12.56,1.51-16.34,4.54-3.78,3.03-5.67,6.96-5.67,11.8,0,7.72,4.95,14.56,14.87,20.54,9.91,5.98,21.94,10.82,36.09,14.53,14.15,3.71,27.8,6.24,40.97,7.6.45,6.66,0,13.66-1.36,20.99-1.36,7.34-3.48,13.81-6.36,19.4Z" fill="#fff"/><path d="M101,3145.15c5.6-5.14,10.1-10.93,13.5-17.36,3.4-6.43,5.11-12.37,5.11-17.82,0-4.54-1.33-8.17-3.97-10.89-2.65-2.72-6.77-4.08-12.37-4.08h-41.99c-.45-6.81-.11-13.81,1.02-20.99,1.13-7.18,2.76-13.28,4.88-18.27h56.29c4.84,8.62,7.26,18.61,7.26,29.96s-2.57,23.04-7.72,34.16c-5.15,11.12-12.11,20.16-20.88,27.12l-1.13-1.82Z" fill="#fff"/><path d="M239.21,3228.45c-3.03,0-5.6-1.02-7.72-3.06-2.12-2.04-3.18-4.58-3.18-7.6s1.06-5.6,3.18-7.72c2.12-2.12,4.69-3.18,7.72-3.18s5.56,1.06,7.6,3.18c2.04,2.12,3.06,4.69,3.06,7.72s-1.02,5.56-3.06,7.6c-2.04,2.04-4.58,3.06-7.6,3.06Z" fill="#fff"/><path d="M241.94,3133.13c-3.03,0-5.6-1.02-7.72-3.06-2.12-2.04-3.18-4.58-3.18-7.6s1.06-5.6,3.18-7.72c2.12-2.12,4.69-3.18,7.72-3.18s5.56,1.06,7.6,3.18c2.04,2.12,3.06,4.69,3.06,7.72s-1.02,5.37-3.06,7.49c-2.04,2.12-4.58,3.18-7.6,3.18Z" fill="#fff"/><path d="M156.37,3194.4c-3.63-5.29-6.58-11.61-8.85-18.95-2.27-7.34-3.4-14.49-3.4-21.45,9.83,0,17.17-.07,22.02-.23-.91-22.24,3.55-41.83,13.39-58.78h-43.35c-.45-6.81-.11-13.81,1.02-20.99,1.13-7.18,2.76-13.28,4.88-18.27h47.89c2.27,3.03,4.46,9.08,6.58,18.16,7.41-6.66,15.58-11.76,24.51-15.32,8.93-3.55,18-5.33,27.23-5.33,12.26,0,23.98,3.18,35.18,9.53,11.2,6.36,20.27,15.93,27.23,28.71,6.96,12.79,10.44,28.48,10.44,47.09-3.18,8.78-13.16,17.51-29.96,26.21-16.79,8.7-37.37,15.81-61.73,21.33-24.36,5.53-48.72,8.28-73.08,8.28ZM168.17,3153.32c36.16-1.21,67.97-3.97,95.44-8.28,27.46-4.31,45.58-9.11,54.36-14.41,0-8.17-2.95-15.09-8.85-20.77s-13.58-9.91-23.04-12.71c-9.46-2.8-19.48-4.2-30.07-4.2-12.86,0-25.53,2.23-38.02,6.7-12.48,4.46-23.23,11.23-32.23,20.31-9,9.08-14.87,20.2-17.59,33.36Z" fill="#fff"/><path d="M446.65,3194.4c-26.78-5.29-48.04-16-63.77-32.11-15.74-16.11-23.6-36.5-23.6-61.17,0-2.72.07-4.77.23-6.13h-44.26c-.45-6.81-.11-13.81,1.02-20.99,1.13-7.18,2.76-13.28,4.88-18.27h821.58c1.82-12.1,5.98-22.84,12.48-32.23,6.5-9.38,14.75-16.42,24.74-21.11,3.48,3.03,7.04,8.89,10.67,17.59,3.63,8.7,5.6,15.47,5.9,20.31-10.29-1.51-19.97-.91-29.05,1.82-9.08,2.72-15.66,7.26-19.75,13.62,9.53,0,17.78.45,24.74,1.36,6.96.91,13.08,2.35,18.38,4.31,9.83,3.63,17.1,8.7,21.79,15.21,4.69,6.51,7.04,14,7.04,22.47l-2.27,2.95c-3.63-2.12-10.71-3.82-21.22-5.11-10.52-1.28-22.66-1.93-36.43-1.93H384.46c-7.11,0-12.56,1.51-16.34,4.54-3.78,3.03-5.67,6.96-5.67,11.8,0,7.72,4.95,14.56,14.87,20.54,9.91,5.98,21.94,10.82,36.09,14.53,14.15,3.71,27.8,6.24,40.97,7.6.45,6.66,0,13.66-1.36,20.99-1.36,7.34-3.48,13.81-6.35,19.4Z" fill="#fff"/><path d="M1415.07,3228.45c-3.03,0-5.6-1.02-7.72-3.06-2.12-2.04-3.18-4.58-3.18-7.6s1.06-5.6,3.18-7.72c2.12-2.12,4.69-3.18,7.72-3.18s5.56,1.06,7.6,3.18c2.04,2.12,3.06,4.69,3.06,7.72s-1.02,5.56-3.06,7.6c-2.04,2.04-4.58,3.06-7.6,3.06ZM1433,3250.69c-3.03,0-5.6-1.02-7.72-3.06-2.12-2.04-3.18-4.58-3.18-7.6s1.06-5.6,3.18-7.72c2.12-2.12,4.69-3.18,7.72-3.18s5.56,1.06,7.6,3.18c2.04,2.12,3.06,4.69,3.06,7.72s-1.02,5.56-3.06,7.6-4.58,3.06-7.6,3.06ZM1450.93,3272.93c-3.03,0-5.6-1.02-7.72-3.06-2.12-2.04-3.18-4.58-3.18-7.6s1.06-5.6,3.18-7.72c2.12-2.12,4.69-3.18,7.72-3.18s5.56,1.06,7.6,3.18c2.04,2.12,3.06,4.69,3.06,7.72s-1.02,5.56-3.06,7.6c-2.04,2.04-4.58,3.06-7.6,3.06Z" fill="#fff"/><path d="M1413.03,3194.4c-2.57-4.99-4.8-11.61-6.7-19.86-1.89-8.25-2.84-15.09-2.84-20.54,11.65-1.96,24.43-5.14,38.36-9.53,13.92-4.39,25.65-9.45,35.18-15.21,6.05-3.63,10.78-7.41,14.18-11.35,3.4-3.93,5.11-7.94,5.11-12.03,0-3.18-.99-5.79-2.95-7.83-1.97-2.04-4.84-3.06-8.62-3.06h-260.55c-.76-9.38-1.13-17.32-1.13-23.83,0-16.79,2.99-31.39,8.96-43.8,5.98-12.4,15.01-21.86,27.12-28.37,3.48,3.03,7.04,8.89,10.67,17.59,3.63,8.7,5.6,15.47,5.9,20.31-11.2-1.36-21.41-.38-30.64,2.95-9.23,3.33-15.58,8.62-19.06,15.89h263.72c6.36,15.74,9.53,31.47,9.53,47.21,0,12.86-3.6,25.53-10.78,38.01-7.19,12.48-17.33,23.49-30.41,33.02-13.09,9.53-28.11,16.34-45.05,20.43Z" fill="#fff"/><path d="M143.21,3497.16c-.31-2.12-.45-4.65-.45-7.6s.15-5.26.45-6.92h47.66c.3,1.66.45,3.97.45,6.92s-.15,5.48-.45,7.6h-47.66Z" fill="#fff"/><path d="M87.38,3465.62c-4.24-15.58-6.35-33.89-6.35-54.92,0-15.28,1.28-29.96,3.86-44.03-.15,0-.34-.04-.57-.11-.23-.07-.42-.11-.57-.11-3.78-.76-7.79-1.78-12.03-3.06-4.24-1.28-8.32-2.76-12.26-4.42,1.06-6.96,2.84-13.84,5.33-20.65s5.33-12.33,8.51-16.57c3.93,1.97,8.74,3.52,14.41,4.65s11.23,1.7,16.68,1.7h138.22c5.9,20.88,8.85,43.2,8.85,66.95,0,12.41-.91,24.89-2.72,37.45-1.82,12.56-4.39,23.6-7.72,33.14H87.38ZM240.57,3426.35c4.99-12.56,7.49-23.9,7.49-34.04,0-7.56-1.51-13.62-4.54-18.16-3.03-4.54-7.79-6.81-14.3-6.81H93.96c-3.03,4.54-5.37,10.63-7.04,18.27-1.67,7.64-2.5,15.85-2.5,24.62,0,5.9.3,11.27.91,16.11h155.24Z" fill="#fff"/><path d="M415.78,3500.79c-3.03,0-5.6-1.02-7.72-3.06-2.12-2.04-3.18-4.58-3.18-7.6s1.06-5.6,3.18-7.72c2.12-2.12,4.69-3.18,7.72-3.18s5.56,1.06,7.6,3.18c2.04,2.12,3.06,4.69,3.06,7.72s-1.02,5.56-3.06,7.6c-2.04,2.04-4.58,3.06-7.6,3.06ZM433.71,3523.04c-3.03,0-5.6-1.02-7.72-3.06-2.12-2.04-3.18-4.58-3.18-7.6s1.06-5.6,3.18-7.72c2.12-2.12,4.69-3.18,7.72-3.18s5.56,1.06,7.6,3.18c2.04,2.12,3.06,4.69,3.06,7.72s-1.02,5.56-3.06,7.6c-2.04,2.04-4.58,3.06-7.6,3.06ZM451.64,3545.28c-3.03,0-5.6-1.02-7.72-3.06-2.12-2.04-3.18-4.58-3.18-7.6s1.06-5.6,3.18-7.72c2.12-2.12,4.69-3.18,7.72-3.18s5.56,1.06,7.6,3.18c2.04,2.12,3.06,4.69,3.06,7.72s-1.02,5.56-3.06,7.6c-2.04,2.04-4.58,3.06-7.6,3.06Z" fill="#fff"/><path d="M367.22,3466.75c-26.78-5.29-48.04-16-63.77-32.11-15.74-16.11-23.6-36.5-23.6-61.17,0-2.72.07-4.77.23-6.13h-24.74c-.45-6.81-.11-13.81,1.02-20.99,1.13-7.18,2.76-13.28,4.88-18.27h216.52c2.57-10.89,6.96-20.5,13.16-28.82,6.2-8.32,13.92-14.67,23.15-19.06,3.48,3.03,7.04,8.89,10.67,17.59,3.63,8.7,5.6,15.47,5.9,20.31-8.78-1.36-17.1-1.1-24.97.79-7.87,1.89-14.22,5.11-19.06,9.65,8.02.45,15.28,1.47,21.79,3.06,6.5,1.59,12.1,3.75,16.79,6.47,6.66,3.94,11.61,8.74,14.87,14.41,3.25,5.67,4.88,11.99,4.88,18.95l-2.27,2.95c-3.63-2.12-10.71-3.82-21.22-5.11-10.52-1.28-22.66-1.93-36.43-1.93h-179.98c-7.11,0-12.56,1.51-16.34,4.54-3.78,3.03-5.67,6.96-5.67,11.8,0,7.72,4.95,14.56,14.87,20.54,9.91,5.98,21.94,10.82,36.09,14.53,14.15,3.71,27.8,6.24,40.97,7.6.45,6.66,0,13.66-1.36,20.99-1.36,7.34-3.48,13.81-6.35,19.4Z" fill="#fff"/><path d="M1056.93,3500.79c-3.03,0-5.6-1.02-7.72-3.06-2.12-2.04-3.18-4.58-3.18-7.6s1.06-5.6,3.18-7.72c2.12-2.12,4.69-3.18,7.72-3.18s5.56,1.06,7.6,3.18c2.04,2.12,3.06,4.69,3.06,7.72s-1.02,5.56-3.06,7.6c-2.04,2.04-4.58,3.06-7.6,3.06ZM1056.93,3531.89c-3.03,0-5.6-1.02-7.72-3.06-2.12-2.04-3.18-4.58-3.18-7.6s1.06-5.6,3.18-7.72c2.12-2.12,4.69-3.18,7.72-3.18s5.56,1.06,7.6,3.18c2.04,2.12,3.06,4.69,3.06,7.72s-1.02,5.56-3.06,7.6-4.58,3.06-7.6,3.06Z" fill="#fff"/><path d="M1056.25,3466.75c-2.57-4.99-4.81-11.61-6.7-19.86-1.89-8.25-2.84-15.09-2.84-20.54,11.65-1.96,24.43-5.14,38.36-9.53,13.92-4.39,25.65-9.45,35.18-15.21,6.05-3.63,10.78-7.41,14.19-11.35,3.4-3.93,5.11-7.94,5.11-12.03,0-3.18-.99-5.79-2.95-7.83-1.97-2.04-4.84-3.06-8.62-3.06h-578.51c-.76-9.38-1.13-17.32-1.13-23.83,0-17.1,2.84-31.92,8.51-44.48,5.67-12.56,14.56-22.7,26.67-30.41,3.48,3.03,7.04,8.89,10.67,17.59,3.63,8.7,5.6,15.47,5.9,20.31-10.89-.76-20.84.83-29.84,4.77-9,3.94-15.32,9.53-18.95,16.79h581.69c6.35,15.74,9.53,31.47,9.53,47.21,0,12.71-3.71,25.31-11.12,37.79-7.41,12.48-17.67,23.53-30.75,33.14-13.09,9.61-27.88,16.45-44.37,20.54Z" fill="#fff"/><path d="M1258.24,3466.75c-26.78-5.29-48.04-16-63.77-32.11-15.74-16.11-23.6-36.5-23.6-61.17,0-2.72.07-4.77.23-6.13h-24.74c-.45-6.81-.11-13.81,1.02-20.99,1.13-7.18,2.76-13.28,4.88-18.27h216.52c2.57-10.89,6.96-20.5,13.16-28.82,6.2-8.32,13.92-14.67,23.15-19.06,3.48,3.03,7.04,8.89,10.67,17.59,3.63,8.7,5.6,15.47,5.9,20.31-8.78-1.36-17.1-1.1-24.96.79-7.87,1.89-14.22,5.11-19.06,9.65,8.02.45,15.28,1.47,21.79,3.06,6.5,1.59,12.1,3.75,16.79,6.47,6.66,3.94,11.61,8.74,14.87,14.41,3.25,5.67,4.88,11.99,4.88,18.95l-2.27,2.95c-3.63-2.12-10.71-3.82-21.22-5.11-10.52-1.28-22.66-1.93-36.43-1.93h-179.98c-7.11,0-12.56,1.51-16.34,4.54-3.78,3.03-5.67,6.96-5.67,11.8,0,7.72,4.95,14.56,14.87,20.54,9.91,5.98,21.94,10.82,36.09,14.53,14.15,3.71,27.8,6.24,40.97,7.6.45,6.66,0,13.66-1.36,20.99-1.36,7.34-3.48,13.81-6.36,19.4Z" fill="#fff"/><path d="M1459.55,3497.16c-.3-2.12-.45-4.65-.45-7.6s.15-5.26.45-6.92h47.66c.3,1.66.45,3.97.45,6.92s-.15,5.48-.45,7.6h-47.66Z" fill="#fff"/><path d="M1483.38,3469.02c-4.39-5.75-8.51-12.48-12.37-20.2s-6.77-15.21-8.74-22.47c9.99-5.29,18.19-11.95,24.62-19.97,6.43-8.02,9.65-15.73,9.65-23.15,0-4.84-1.55-8.7-4.65-11.58-3.1-2.87-7.83-4.31-14.18-4.31h-38.58c-.45-6.81-.11-13.81,1.02-20.99,1.13-7.18,2.76-13.28,4.88-18.27h45.39c5.9,20.88,8.85,43.2,8.85,66.95,0,13.16-1.02,26.37-3.06,39.6-2.04,13.24-4.96,24.7-8.74,34.38h-4.08Z" fill="#fff"/><path d="M162.05,3739.1c-26.78-5.29-48.04-16-63.77-32.11-15.74-16.11-23.6-36.5-23.6-61.17,0-2.72.07-4.77.23-6.13h-24.74c-.45-6.81-.11-13.81,1.02-20.99,1.13-7.18,2.76-13.28,4.88-18.27h216.52c2.57-10.89,6.96-20.5,13.16-28.82,6.2-8.32,13.92-14.67,23.15-19.06,3.48,3.03,7.04,8.89,10.67,17.59,3.63,8.7,5.6,15.47,5.9,20.31-8.78-1.36-17.1-1.1-24.97.79-7.87,1.89-14.22,5.11-19.06,9.65,8.02.45,15.28,1.47,21.79,3.06,6.5,1.59,12.1,3.75,16.79,6.47,6.66,3.94,11.61,8.74,14.87,14.41,3.25,5.67,4.88,11.99,4.88,18.95l-2.27,2.95c-3.63-2.12-10.71-3.82-21.22-5.11-10.52-1.28-22.66-1.93-36.43-1.93H99.86c-7.11,0-12.56,1.51-16.34,4.54-3.78,3.03-5.67,6.96-5.67,11.8,0,7.72,4.95,14.56,14.87,20.54,9.91,5.98,21.94,10.82,36.09,14.53,14.15,3.71,27.8,6.24,40.97,7.6.45,6.66,0,13.66-1.36,20.99-1.36,7.34-3.48,13.81-6.35,19.4Z" fill="#fff"/><path d="M357,3769.51c-.31-2.12-.45-4.65-.45-7.6s.15-5.26.45-6.92h47.66c.3,1.66.45,3.97.45,6.92s-.15,5.48-.45,7.6h-47.66Z" fill="#fff"/><path d="M382.65,3689.85c5.6-5.14,10.1-10.93,13.5-17.36,3.4-6.43,5.11-12.37,5.11-17.82,0-4.54-1.33-8.17-3.97-10.89-2.65-2.72-6.77-4.08-12.37-4.08h-41.99c-.45-6.81-.11-13.81,1.02-20.99,1.13-7.18,2.76-13.28,4.88-18.27h56.29c4.84,8.62,7.26,18.61,7.26,29.96s-2.57,23.04-7.72,34.16c-5.15,11.12-12.11,20.16-20.88,27.12l-1.13-1.82Z" fill="#fff"/><path d="M1326.56,3741.37c-4.39-5.75-8.51-12.48-12.37-20.2-3.86-7.72-6.77-15.13-8.74-22.24,10.44-6.81,18.84-14.3,25.19-22.47,6.35-8.17,9.53-15.51,9.53-22.01,0-4.54-1.55-8.13-4.65-10.78-3.1-2.65-7.83-3.97-14.18-3.97H463.22c-.45-6.81-.11-13.81,1.02-20.99,1.13-7.18,2.76-13.28,4.88-18.27h864.48c5.9,20.88,8.85,43.2,8.85,66.95,0,13.16-1.02,26.37-3.06,39.6-2.04,13.24-4.96,24.7-8.74,34.38h-4.09ZM512.24,3741.37c-6.51-7.11-10.97-15.62-13.39-25.53-2.42-9.91-2.8-20.2-1.13-30.87,1.66-10.67,5.07-20.69,10.21-30.07h2.5c0,10.74,2.27,19.94,6.81,27.57,4.54,7.64,11.12,13.05,19.75,16.23-1.97,8.02-4.99,15.93-9.08,23.72-4.09,7.79-8.55,14.11-13.39,18.95h-2.27Z" fill="#fff"/><path d="M1365.82,3773.14c-3.03,0-5.6-1.02-7.72-3.06-2.12-2.04-3.18-4.58-3.18-7.6s1.06-5.6,3.18-7.72c2.12-2.12,4.69-3.18,7.72-3.18s5.56,1.06,7.6,3.18c2.04,2.12,3.06,4.69,3.06,7.72s-1.02,5.56-3.06,7.6c-2.04,2.04-4.58,3.06-7.6,3.06ZM1380.57,3799.7c-3.03,0-5.6-1.02-7.72-3.06-2.12-2.04-3.18-4.58-3.18-7.6s1.06-5.6,3.18-7.72c2.12-2.12,4.69-3.18,7.72-3.18s5.56,1.06,7.6,3.18c2.04,2.12,3.06,4.69,3.06,7.72s-1.02,5.56-3.06,7.6-4.58,3.06-7.6,3.06ZM1395.1,3773.14c-3.03,0-5.6-1.02-7.72-3.06-2.12-2.04-3.18-4.58-3.18-7.6s1.06-5.6,3.18-7.72c2.12-2.12,4.69-3.18,7.72-3.18s5.56,1.06,7.6,3.18c2.04,2.12,3.06,4.69,3.06,7.72s-1.02,5.56-3.06,7.6c-2.04,2.04-4.58,3.06-7.6,3.06Z" fill="#fff"/><path d="M1374.9,3675.78c-3.03,0-5.6-1.02-7.72-3.06-2.12-2.04-3.18-4.58-3.18-7.6s1.06-5.6,3.18-7.72,4.69-3.18,7.72-3.18,5.56,1.06,7.6,3.18c2.04,2.12,3.06,4.69,3.06,7.72s-1.02,5.37-3.06,7.49c-2.04,2.12-4.58,3.18-7.6,3.18Z" fill="#fff"/><path d="M1364,3739.55c-2.57-5.14-4.58-11.23-6.01-18.27-1.44-7.04-2.16-14.56-2.16-22.58,10.59,0,20.01-1.96,28.26-5.9,8.24-3.93,14.64-9.11,19.18-15.55,4.54-6.43,6.81-13.28,6.81-20.54,0-6.2-2.04-11.88-6.13-17.02h-57.65c-.45-6.81-.11-13.81,1.02-20.99,1.13-7.18,2.76-13.28,4.88-18.27h51.52c6.2,17.7,9.3,35.26,9.3,52.65,0,24.21-3.75,43.88-11.23,59.01-7.49,15.13-20.09,24.28-37.79,27.46Z" fill="#fff"/><path d="M1438.45,3769.51c-.3-2.12-.45-4.65-.45-7.6s.15-5.26.45-6.92h47.66c.3,1.66.45,3.97.45,6.92s-.15,5.48-.45,7.6h-47.66Z" fill="#fff"/><path d="M1452.29,3675.32c-3.03,0-5.6-1.02-7.72-3.06-2.12-2.04-3.18-4.58-3.18-7.6s1.06-5.6,3.18-7.72,4.69-3.18,7.72-3.18,5.56,1.06,7.6,3.18c2.04,2.12,3.06,4.69,3.06,7.72s-1.02,5.37-3.06,7.49c-2.04,2.12-4.58,3.18-7.6,3.18Z" fill="#fff"/><path d="M1428.23,3741.14c-2.72-5.45-4.62-12.06-5.67-19.86-1.06-7.79-1.06-15.32,0-22.58,9.68-.75,19.82-3.48,30.41-8.17,10.59-4.69,19.4-10.21,26.44-16.57,7.04-6.35,10.55-12.4,10.55-18.16,0-4.99-1.47-8.93-4.42-11.8-2.95-2.87-7.76-4.31-14.41-4.31h-54.24c-.45-6.81-.11-13.81,1.02-20.99,1.13-7.18,2.76-13.28,4.88-18.27h68.77c4.23,5.9,6.35,14.45,6.35,25.65,0,11.95-2.57,25.65-7.72,41.08.15,5.45,1.44,10.82,3.86,16.11,2.42,5.3,5.9,10.44,10.44,15.43,0,8.17-.42,16-1.25,23.49-.83,7.49-1.85,13.28-3.06,17.36h-6.36c-5.3-4.23-10.14-9.42-14.53-15.55-4.39-6.13-7.49-12.06-9.3-17.82h-1.13c-4.69,8.62-10.4,16.15-17.14,22.58-6.73,6.43-13.2,10.55-19.4,12.37h-4.08Z" fill="#fff"/><path d="M162.73,4011.45c-26.78-5.29-48.04-16-63.77-32.11-15.74-16.11-23.6-36.5-23.6-61.17,0-2.72.07-4.77.23-6.13h-24.74c-.45-6.81-.11-13.81,1.02-20.99,1.13-7.18,2.76-13.28,4.88-18.27h216.52c2.57-10.89,6.96-20.5,13.16-28.82,6.2-8.32,13.92-14.67,23.15-19.06,3.48,3.03,7.04,8.89,10.67,17.59,3.63,8.7,5.6,15.47,5.9,20.31-8.78-1.36-17.1-1.1-24.97.79-7.87,1.89-14.22,5.11-19.06,9.65,8.02.45,15.28,1.47,21.79,3.06,6.5,1.59,12.1,3.75,16.79,6.47,6.66,3.94,11.61,8.74,14.87,14.41,3.25,5.67,4.88,11.99,4.88,18.95l-2.27,2.95c-3.63-2.12-10.71-3.82-21.22-5.11-10.52-1.28-22.66-1.93-36.43-1.93H100.54c-7.11,0-12.56,1.51-16.34,4.54-3.78,3.03-5.67,6.96-5.67,11.8,0,7.72,4.95,14.56,14.87,20.54,9.91,5.98,21.94,10.82,36.09,14.53,14.15,3.71,27.8,6.24,40.97,7.6.45,6.66,0,13.66-1.36,20.99-1.36,7.34-3.48,13.81-6.35,19.4Z" fill="#fff"/><path d="M357.68,4041.86c-.31-2.12-.45-4.65-.45-7.6s.15-5.26.45-6.92h47.66c.3,1.66.45,3.97.45,6.92s-.15,5.48-.45,7.6h-47.66Z" fill="#fff"/><path d="M383.33,3962.2c5.6-5.14,10.1-10.93,13.5-17.36,3.4-6.43,5.11-12.37,5.11-17.82,0-4.54-1.33-8.17-3.97-10.89-2.65-2.72-6.77-4.08-12.37-4.08h-41.99c-.45-6.81-.11-13.81,1.02-20.99,1.13-7.18,2.76-13.28,4.88-18.27h56.29c4.84,8.62,7.26,18.61,7.26,29.96s-2.57,23.04-7.72,34.16c-5.15,11.12-12.11,20.16-20.88,27.12l-1.13-1.82Z" fill="#fff"/><path d="M503.62,3962.2c5.6-5.14,10.1-10.93,13.5-17.36,3.4-6.43,5.11-12.37,5.11-17.82,0-4.54-1.33-8.17-3.97-10.89-2.65-2.72-6.77-4.08-12.37-4.08h-41.99c-.45-6.81-.11-13.81,1.02-20.99,1.13-7.18,2.76-13.28,4.88-18.27h56.29c4.84,8.62,7.26,18.61,7.26,29.96s-2.57,23.04-7.72,34.16c-5.15,11.12-12.11,20.16-20.88,27.12l-1.13-1.82Z" fill="#fff"/><path d="M805.69,4045.49c-3.03,0-5.6-1.02-7.72-3.06-2.12-2.04-3.18-4.58-3.18-7.6s1.06-5.6,3.18-7.72c2.12-2.12,4.69-3.18,7.72-3.18s5.56,1.06,7.6,3.18c2.04,2.12,3.06,4.69,3.06,7.72s-1.02,5.56-3.06,7.6-4.58,3.06-7.6,3.06Z" fill="#fff"/><path d="M967.06,4005.55c-2.88-5.14-5.07-11.54-6.58-19.18-1.51-7.64-2.04-15.09-1.59-22.35,16.19-3.78,30.98-9.19,44.37-16.23,13.39-7.04,20.09-15.01,20.09-23.94,0-3.48-.99-6.32-2.95-8.51-1.97-2.19-5.07-3.29-9.31-3.29h-472.3c-.45-6.81-.11-13.81,1.02-20.99,1.13-7.18,2.76-13.28,4.88-18.27h471.16c6.35,15.74,9.53,31.47,9.53,47.21,0,19.37-5.07,36.54-15.21,51.52-10.14,14.98-24.51,26.33-43.12,34.04ZM576.24,4059.33c-2.72-9.84-4.77-21.3-6.13-34.38-1.36-13.09-2.04-26.82-2.04-41.19,0-16.94,1.06-34.04,3.18-51.29.45-.15.94-.23,1.48-.23s1.02.08,1.48.23c-.15,16.04,2.76,32.83,8.74,50.38,5.98,17.55,13.43,32.76,22.35,45.62-1.21,4.23-3.44,9.15-6.69,14.75-3.26,5.6-6.92,10.89-11.01,15.89l-11.35.23Z" fill="#fff"/><path d="M1141.13,4011.45c-26.78-5.29-48.04-16-63.77-32.11-15.74-16.11-23.6-36.5-23.6-61.17,0-2.72.07-4.77.23-6.13h-24.74c-.45-6.81-.11-13.81,1.02-20.99,1.13-7.18,2.76-13.28,4.88-18.27h216.52c2.57-10.89,6.96-20.5,13.16-28.82,6.2-8.32,13.92-14.67,23.15-19.06,3.48,3.03,7.04,8.89,10.67,17.59,3.63,8.7,5.6,15.47,5.9,20.31-8.78-1.36-17.1-1.1-24.96.79-7.87,1.89-14.22,5.11-19.06,9.65,8.02.45,15.28,1.47,21.79,3.06,6.5,1.59,12.1,3.75,16.79,6.47,6.66,3.94,11.61,8.74,14.87,14.41,3.25,5.67,4.88,11.99,4.88,18.95l-2.27,2.95c-3.63-2.12-10.71-3.82-21.22-5.11-10.52-1.28-22.66-1.93-36.43-1.93h-179.98c-7.11,0-12.56,1.51-16.34,4.54-3.78,3.03-5.67,6.96-5.67,11.8,0,7.72,4.95,14.56,14.87,20.54,9.91,5.98,21.94,10.82,36.09,14.53,14.15,3.71,27.8,6.24,40.97,7.6.45,6.66,0,13.66-1.36,20.99-1.36,7.34-3.48,13.81-6.36,19.4Z" fill="#fff"/><path d="M1387.16,4041.86c-.3-2.12-.45-4.65-.45-7.6s.15-5.26.45-6.92h47.66c.3,1.66.45,3.97.45,6.92s-.15,5.48-.45,7.6h-47.66Z" fill="#fff"/><path d="M1383.3,4012.58c-12.86-17.1-22.55-34.12-29.05-51.07-6.51-16.94-9.61-33.44-9.31-49.48h-22.92c-.45-6.96-.15-14.03.91-21.22,1.06-7.18,2.65-13.2,4.77-18.04h162.27c2.27,5.15,4.39,12.37,6.35,21.67,1.96,9.31,2.95,18.35,2.95,27.12,0,18.01-4.8,33.89-14.41,47.66-9.61,13.77-23.19,24.44-40.74,32-17.55,7.57-37.83,11.35-60.82,11.35ZM1373.31,3972.86c21.79,0,42.1-2,60.94-6.01,18.84-4.01,33.93-9.65,45.28-16.91s17.02-15.58,17.02-24.97c0-3.93-1.1-7.07-3.29-9.42-2.2-2.34-5.18-3.52-8.96-3.52h-136.4c0,6.35,1.28,13.58,3.86,21.67,2.57,8.1,5.82,15.74,9.76,22.92,3.93,7.19,7.87,12.6,11.8,16.23Z" fill="#fff"/><path d="M160.46,4283.79c-26.78-5.29-48.04-16-63.77-32.11-15.74-16.11-23.6-36.5-23.6-61.17,0-2.72.07-4.77.23-6.13h-24.74c-.45-6.81-.11-13.81,1.02-20.99,1.13-7.18,2.76-13.28,4.88-18.27h216.52c2.57-10.89,6.96-20.5,13.16-28.82,6.2-8.32,13.92-14.67,23.15-19.06,3.48,3.03,7.04,8.89,10.67,17.59,3.63,8.7,5.6,15.47,5.9,20.31-8.78-1.36-17.1-1.1-24.97.79-7.87,1.89-14.22,5.11-19.06,9.65,8.02.45,15.28,1.47,21.79,3.06,6.5,1.59,12.1,3.75,16.79,6.47,6.66,3.94,11.61,8.74,14.87,14.41,3.25,5.67,4.88,11.99,4.88,18.95l-2.27,2.95c-3.63-2.12-10.71-3.82-21.22-5.11-10.52-1.28-22.66-1.93-36.43-1.93H98.27c-7.11,0-12.56,1.51-16.34,4.54-3.78,3.03-5.67,6.96-5.67,11.8,0,7.72,4.95,14.56,14.87,20.54,9.91,5.98,21.94,10.82,36.09,14.53,14.15,3.71,27.8,6.24,40.97,7.6.45,6.66,0,13.66-1.36,20.99-1.36,7.34-3.48,13.81-6.35,19.4Z" fill="#fff"/><path d="M1060.11,4314.2c-.3-2.12-.45-4.65-.45-7.6s.15-5.26.45-6.92h47.66c.3,1.66.45,3.97.45,6.92s-.15,5.48-.45,7.6h-47.66Z" fill="#fff"/><path d="M1083.71,4286.06c-4.39-5.75-8.51-12.48-12.37-20.2s-6.77-15.21-8.74-22.47c9.68-5.9,17.7-12.9,24.06-20.99,6.35-8.09,9.53-15.7,9.53-22.81,0-4.69-1.55-8.4-4.65-11.12-3.1-2.72-7.83-4.08-14.19-4.08H341.34c-.45-6.81-.11-13.81,1.02-20.99,1.13-7.18,2.76-13.28,4.88-18.27h743.51c5.9,20.88,8.85,43.2,8.85,66.95,0,13.16-1.02,26.37-3.06,39.6-2.04,13.24-4.96,24.7-8.74,34.38h-4.09Z" fill="#fff"/><path d="M1102.55,4184.39c4.54-9.53,7.9-18.99,10.1-28.37,2.19-9.38,3.29-20.27,3.29-32.68h34.72c1.51,3.03,2.34,5.45,2.5,7.26-3.63,8.32-9.46,17.4-17.48,27.23-8.02,9.84-16.57,18.69-25.65,26.55h-7.49Z" fill="#fff"/><path d="M1221.93,4317.84c-3.03,0-5.6-1.02-7.72-3.06-2.12-2.04-3.18-4.58-3.18-7.6s1.06-5.6,3.18-7.72c2.12-2.12,4.69-3.18,7.72-3.18s5.56,1.06,7.6,3.18c2.04,2.12,3.06,4.69,3.06,7.72s-1.02,5.56-3.06,7.6c-2.04,2.04-4.58,3.06-7.6,3.06ZM1221.93,4348.93c-3.03,0-5.6-1.02-7.72-3.06-2.12-2.04-3.18-4.58-3.18-7.6s1.06-5.6,3.18-7.72c2.12-2.12,4.69-3.18,7.72-3.18s5.56,1.06,7.6,3.18c2.04,2.12,3.06,4.69,3.06,7.72s-1.02,5.56-3.06,7.6-4.58,3.06-7.6,3.06Z" fill="#fff"/><path d="M1162.01,4284.25c-2.72-4.99-4.84-11.69-6.35-20.09-1.51-8.4-1.82-15.32-.91-20.77,25.72,0,50.08-1.7,73.08-5.11,23-3.4,41.38-7.98,55.15-13.73-4.39-10.29-12.41-18.34-24.06-24.17-11.65-5.82-26.71-9.95-45.16-12.37-18.46-2.42-41-3.63-67.63-3.63-.61-6.96-.27-14.03,1.02-21.22,1.28-7.18,3.21-13.2,5.79-18.04h40.85c11.65,6.21,23.15,13.32,34.5,21.33,1.82-7.72,4.54-14.83,8.17-21.33h58.33c2.72,5.15,4.92,11.35,6.58,18.61,1.66,7.26,2.5,14.15,2.5,20.65h-36.99c-6.21,0-10.89.45-14.07,1.36,16.79,14.68,28.29,28.45,34.5,41.31.3,3.03.26,6.39-.11,10.1-.38,3.71-1.1,7.15-2.16,10.33-11.35,11.8-28.52,20.99-51.52,27.58-23,6.58-46.83,9.65-71.49,9.19Z" fill="#fff"/><path d="M1308.4,4184.39c4.54-9.53,7.9-18.99,10.1-28.37,2.19-9.38,3.29-20.27,3.29-32.68h34.72c1.51,3.03,2.34,5.45,2.5,7.26-3.63,8.32-9.46,17.4-17.48,27.23-8.02,9.84-16.57,18.69-25.65,26.55h-7.49Z" fill="#fff"/><path d="M1405.08,4314.2c-.3-2.12-.45-4.65-.45-7.6s.15-5.26.45-6.92h47.66c.3,1.66.45,3.97.45,6.92s-.15,5.48-.45,7.6h-47.66Z" fill="#fff"/><path d="M1368.32,4283.79c-2.27-4.54-4.05-10.89-5.33-19.06-1.29-8.17-1.63-15.28-1.02-21.33,22.39,0,43.95-1.44,64.68-4.31,20.73-2.87,36.01-6.66,45.85-11.35,7.26-3.33,12.82-7.45,16.68-12.37,3.86-4.92,5.79-9.79,5.79-14.64s-1.93-8.77-5.79-11.8c-3.86-3.03-9.42-4.54-16.68-4.54h-120.51c-.31-6.81.04-13.81,1.02-20.99.98-7.18,2.46-13.28,4.43-18.27h133c2.87,8.17,4.99,16.08,6.36,23.72,1.36,7.64,2.04,14.87,2.04,21.67,0,20.43-5.64,37.64-16.91,51.63-11.27,14-26.71,24.44-46.3,31.32-19.6,6.89-42.03,10.33-67.29,10.33Z" fill="#fff"/><path d="M169.54,4556.14c-26.78-5.29-48.04-16-63.77-32.11-15.74-16.11-23.6-36.5-23.6-61.17,0-2.72.07-4.77.23-6.13h-24.74c-.45-6.81-.11-13.81,1.02-20.99,1.13-7.18,2.76-13.28,4.88-18.27h216.52c2.57-10.89,6.96-20.5,13.16-28.82,6.2-8.32,13.92-14.67,23.15-19.06,3.48,3.03,7.04,8.89,10.67,17.59,3.63,8.7,5.6,15.47,5.9,20.31-8.78-1.36-17.1-1.1-24.97.79-7.87,1.89-14.22,5.11-19.06,9.65,8.02.45,15.28,1.47,21.79,3.06,6.5,1.59,12.1,3.75,16.79,6.47,6.66,3.94,11.61,8.74,14.87,14.41,3.25,5.67,4.88,11.99,4.88,18.95l-2.27,2.95c-3.63-2.12-10.71-3.82-21.22-5.11-10.52-1.28-22.66-1.93-36.43-1.93H107.35c-7.11,0-12.56,1.51-16.34,4.54-3.78,3.03-5.67,6.96-5.67,11.8,0,7.72,4.95,14.56,14.87,20.54,9.91,5.98,21.94,10.82,36.09,14.53,14.15,3.71,27.8,6.24,40.97,7.6.45,6.66,0,13.66-1.36,20.99-1.36,7.34-3.48,13.81-6.35,19.4Z" fill="#fff"/><path d="M810.46,4586.55c-.31-2.12-.45-4.65-.45-7.6s.15-5.26.45-6.92h47.66c.3,1.66.45,3.97.45,6.92s-.15,5.48-.45,7.6h-47.66Z" fill="#fff"/><path d="M833.38,4556.14c-2.57-4.99-4.8-11.61-6.7-19.86-1.89-8.25-2.84-15.09-2.84-20.54,11.65-1.96,24.43-5.14,38.36-9.53,13.92-4.39,25.65-9.45,35.18-15.21,6.05-3.63,10.78-7.41,14.18-11.35,3.4-3.93,5.11-7.94,5.11-12.03,0-3.18-.99-5.79-2.95-7.83-1.97-2.04-4.84-3.06-8.62-3.06H351.78c-.76-9.38-1.13-17.32-1.13-23.83,0-17.1,2.84-31.92,8.51-44.48,5.67-12.56,14.56-22.7,26.67-30.41,3.48,3.03,7.04,8.89,10.67,17.59,3.63,8.7,5.6,15.47,5.9,20.31-10.89-.6-20.88,1.02-29.96,4.88-9.08,3.86-15.36,9.42-18.84,16.68h556.5c6.36,15.74,9.53,31.47,9.53,47.21,0,12.71-3.67,25.34-11.01,37.9-7.34,12.56-17.55,23.6-30.64,33.14-13.09,9.53-27.95,16.34-44.6,20.43Z" fill="#fff"/><path d="M1215.35,4586.55c-.3-2.12-.45-4.65-.45-7.6s.15-5.26.45-6.92h47.66c.3,1.66.45,3.97.45,6.92s-.15,5.48-.45,7.6h-47.66Z" fill="#fff"/><path d="M1044.45,4556.14c-26.78-5.29-48.04-16-63.77-32.11-15.74-16.11-23.6-36.5-23.6-61.17,0-2.72.08-4.77.23-6.13h-33.82c-.45-6.81-.11-13.81,1.02-20.99,1.13-7.18,2.76-13.28,4.88-18.27h498.85c2.12-11.5,6.39-21.64,12.82-30.41,6.43-8.77,14.41-15.51,23.94-20.2,3.48,3.03,7.04,8.89,10.67,17.59,3.63,8.7,5.6,15.47,5.9,20.31-9.53-1.21-18.5-.68-26.89,1.59s-14.87,5.98-19.41,11.12c8.77.45,16.49,1.33,23.15,2.61,6.66,1.29,12.56,3.06,17.7,5.33,8.17,3.78,14.18,8.7,18.04,14.75,3.86,6.05,5.79,12.94,5.79,20.65l-2.27,2.95c-3.63-2.12-10.71-3.82-21.22-5.11-10.52-1.28-22.66-1.93-36.43-1.93h-457.77c-7.11,0-12.56,1.51-16.34,4.54-3.78,3.03-5.67,6.96-5.67,11.8,0,7.72,4.95,14.56,14.87,20.54,9.91,5.98,21.94,10.82,36.09,14.53,14.15,3.71,27.8,6.24,40.97,7.6.45,6.66,0,13.66-1.36,20.99-1.36,7.34-3.48,13.81-6.36,19.4Z" fill="#fff"/><path d="M181.11,4828.49c-26.78-5.29-48.04-16-63.77-32.11-15.74-16.11-23.6-36.5-23.6-61.17,0-2.72.07-4.77.23-6.13h-40.4c-.45-6.81-.11-13.81,1.02-20.99,1.13-7.18,2.76-13.28,4.88-18.27h700.61c1.82-11.8,5.98-22.28,12.48-31.43,6.5-9.15,14.67-16.08,24.51-20.77,3.48,3.03,7.04,8.89,10.67,17.59,3.63,8.7,5.6,15.47,5.9,20.31-9.99-1.36-19.44-.79-28.37,1.7-8.93,2.5-15.43,6.7-19.52,12.6,9.38.15,17.47.76,24.28,1.82,6.81,1.06,12.79,2.65,17.93,4.77,9.23,3.63,16.04,8.62,20.43,14.98,4.39,6.35,6.58,13.62,6.58,21.79l-2.27,2.95c-3.63-2.12-10.71-3.82-21.22-5.11-10.52-1.28-22.66-1.93-36.43-1.93H118.92c-7.11,0-12.56,1.51-16.34,4.54-3.78,3.03-5.67,6.96-5.67,11.8,0,7.72,4.95,14.56,14.87,20.54,9.91,5.98,21.94,10.82,36.09,14.53,14.15,3.71,27.8,6.24,40.97,7.6.45,6.66,0,13.66-1.36,20.99-1.36,7.34-3.48,13.81-6.35,19.4Z" fill="#fff"/><path d="M1060.56,4858.9c-.3-2.12-.45-4.65-.45-7.6s.15-5.26.45-6.92h47.66c.3,1.66.45,3.97.45,6.92s-.15,5.48-.45,7.6h-47.66Z" fill="#fff"/><path d="M1083.71,4830.76c-4.39-5.75-8.51-12.48-12.37-20.2-3.86-7.72-6.77-15.21-8.74-22.47,9.68-5.9,17.7-12.9,24.06-20.99,6.35-8.09,9.53-15.7,9.53-22.81,0-4.69-1.55-8.4-4.65-11.12-3.1-2.72-7.83-4.08-14.19-4.08h-239.21c-.45-6.81-.11-13.81,1.02-20.99,1.13-7.18,2.76-13.28,4.88-18.27h246.7c5.9,20.88,8.85,43.2,8.85,66.95,0,13.16-1.02,26.37-3.06,39.6-2.04,13.24-4.96,24.7-8.74,34.38h-4.08Z" fill="#fff"/><path d="M1102.55,4729.08c4.54-9.53,7.9-18.99,10.1-28.37,2.19-9.38,3.29-20.27,3.29-32.68h34.72c1.51,3.03,2.34,5.45,2.5,7.26-3.63,8.32-9.46,17.4-17.48,27.23-8.02,9.84-16.57,18.69-25.65,26.55h-7.49Z" fill="#fff"/><path d="M1221.93,4862.53c-3.03,0-5.6-1.02-7.72-3.06-2.12-2.04-3.18-4.58-3.18-7.6s1.06-5.6,3.18-7.72c2.12-2.12,4.69-3.18,7.72-3.18s5.56,1.06,7.6,3.18c2.04,2.12,3.06,4.69,3.06,7.72s-1.02,5.56-3.06,7.6c-2.04,2.04-4.58,3.06-7.6,3.06ZM1221.93,4893.62c-3.03,0-5.6-1.02-7.72-3.06-2.12-2.04-3.18-4.58-3.18-7.6s1.06-5.6,3.18-7.72c2.12-2.12,4.69-3.18,7.72-3.18s5.56,1.06,7.6,3.18c2.04,2.12,3.06,4.69,3.06,7.72s-1.02,5.56-3.06,7.6-4.58,3.06-7.6,3.06Z" fill="#fff"/><path d="M1162.01,4828.94c-2.72-4.99-4.84-11.69-6.35-20.09-1.51-8.4-1.82-15.32-.91-20.77,25.72,0,50.08-1.7,73.08-5.11,23-3.4,41.38-7.98,55.15-13.73-4.39-10.29-12.41-18.34-24.06-24.17-11.65-5.82-26.71-9.95-45.16-12.37-18.46-2.42-41-3.63-67.63-3.63-.61-6.96-.27-14.03,1.02-21.22,1.28-7.18,3.21-13.2,5.79-18.04h40.85c11.65,6.21,23.15,13.32,34.5,21.33,1.82-7.72,4.54-14.83,8.17-21.33h58.33c2.72,5.15,4.92,11.35,6.58,18.61,1.66,7.26,2.5,14.15,2.5,20.65h-36.99c-6.21,0-10.89.45-14.07,1.36,16.79,14.68,28.29,28.45,34.5,41.31.3,3.03.26,6.39-.11,10.1-.38,3.71-1.1,7.15-2.16,10.33-11.35,11.8-28.52,20.99-51.52,27.58-23,6.58-46.83,9.65-71.49,9.19Z" fill="#fff"/><path d="M1308.4,4729.08c4.54-9.53,7.9-18.99,10.1-28.37,2.19-9.38,3.29-20.27,3.29-32.68h34.72c1.51,3.03,2.34,5.45,2.5,7.26-3.63,8.32-9.46,17.4-17.48,27.23-8.02,9.84-16.57,18.69-25.65,26.55h-7.49Z" fill="#fff"/><path d="M1405.08,4858.9c-.3-2.12-.45-4.65-.45-7.6s.15-5.26.45-6.92h47.66c.3,1.66.45,3.97.45,6.92s-.15,5.48-.45,7.6h-47.66Z" fill="#fff"/><path d="M1368.32,4828.49c-2.27-4.54-4.05-10.89-5.33-19.06-1.29-8.17-1.63-15.28-1.02-21.33,22.39,0,43.95-1.44,64.68-4.31,20.73-2.87,36.01-6.66,45.85-11.35,7.26-3.33,12.82-7.45,16.68-12.37,3.86-4.92,5.79-9.79,5.79-14.64s-1.93-8.77-5.79-11.8c-3.86-3.03-9.42-4.54-16.68-4.54h-120.51c-.31-6.81.04-13.81,1.02-20.99.98-7.18,2.46-13.28,4.43-18.27h133c2.87,8.17,4.99,16.08,6.36,23.72,1.36,7.64,2.04,14.87,2.04,21.67,0,20.43-5.64,37.64-16.91,51.63-11.27,14-26.71,24.44-46.3,31.32-19.6,6.89-42.03,10.33-67.29,10.33Z" fill="#fff"/><path d="M176.57,5100.83c-26.78-5.29-48.04-16-63.77-32.11-15.74-16.11-23.6-36.5-23.6-61.17,0-2.72.07-4.77.23-6.13h-33.82c-.45-6.81-.11-13.81,1.02-20.99,1.13-7.18,2.76-13.28,4.88-18.27h498.85c2.12-11.5,6.39-21.64,12.82-30.41,6.43-8.77,14.41-15.51,23.94-20.2,3.48,3.03,7.04,8.89,10.67,17.59,3.63,8.7,5.6,15.47,5.9,20.31-9.53-1.21-18.5-.68-26.89,1.59-8.4,2.27-14.87,5.98-19.4,11.12,8.77.45,16.49,1.33,23.15,2.61,6.66,1.29,12.56,3.06,17.7,5.33,8.17,3.78,14.18,8.7,18.04,14.75,3.86,6.05,5.79,12.94,5.79,20.65l-2.27,2.95c-3.63-2.12-10.71-3.82-21.22-5.11-10.52-1.28-22.66-1.93-36.43-1.93H114.39c-7.11,0-12.56,1.51-16.34,4.54-3.78,3.03-5.67,6.96-5.67,11.8,0,7.72,4.95,14.56,14.87,20.54,9.91,5.98,21.94,10.82,36.09,14.53,14.15,3.71,27.8,6.24,40.97,7.6.45,6.66,0,13.66-1.36,20.99-1.36,7.34-3.48,13.81-6.35,19.4Z" fill="#fff"/><path d="M654.77,5134.88c-3.03,0-5.6-1.02-7.72-3.06-2.12-2.04-3.18-4.58-3.18-7.6s1.06-5.6,3.18-7.72c2.12-2.12,4.69-3.18,7.72-3.18s5.56,1.06,7.6,3.18c2.04,2.12,3.06,4.69,3.06,7.72s-1.02,5.56-3.06,7.6c-2.04,2.04-4.58,3.06-7.6,3.06ZM669.52,5161.43c-3.03,0-5.6-1.02-7.72-3.06-2.12-2.04-3.18-4.58-3.18-7.6s1.06-5.6,3.18-7.72c2.12-2.12,4.69-3.18,7.72-3.18s5.56,1.06,7.6,3.18c2.04,2.12,3.06,4.69,3.06,7.72s-1.02,5.56-3.06,7.6c-2.04,2.04-4.58,3.06-7.6,3.06ZM684.04,5134.88c-3.03,0-5.6-1.02-7.72-3.06-2.12-2.04-3.18-4.58-3.18-7.6s1.06-5.6,3.18-7.72c2.12-2.12,4.69-3.18,7.72-3.18s5.56,1.06,7.6,3.18c2.04,2.12,3.06,4.69,3.06,7.72s-1.02,5.56-3.06,7.6c-2.04,2.04-4.58,3.06-7.6,3.06Z" fill="#fff"/><path d="M663.85,5037.51c-3.03,0-5.6-1.02-7.72-3.06-2.12-2.04-3.18-4.58-3.18-7.6s1.06-5.6,3.18-7.72c2.12-2.12,4.69-3.18,7.72-3.18s5.56,1.06,7.6,3.18c2.04,2.12,3.06,4.69,3.06,7.72s-1.02,5.37-3.06,7.49c-2.04,2.12-4.58,3.18-7.6,3.18Z" fill="#fff"/><path d="M652.95,5101.29c-2.57-5.14-4.58-11.23-6.01-18.27-1.44-7.04-2.16-14.56-2.16-22.58,10.59,0,20.01-1.96,28.26-5.9,8.25-3.93,14.64-9.11,19.18-15.55,4.54-6.43,6.81-13.28,6.81-20.54,0-6.2-2.04-11.88-6.13-17.02h-57.65c-.45-6.81-.11-13.81,1.02-20.99,1.13-7.18,2.76-13.28,4.88-18.27h51.52c6.2,17.7,9.31,35.26,9.31,52.65,0,24.21-3.74,43.88-11.23,59.01-7.49,15.13-20.09,24.28-37.79,27.46Z" fill="#fff"/><path d="M771.42,5131.25c-.3-2.12-.45-4.65-.45-7.6s.15-5.26.45-6.92h47.66c.3,1.66.46,3.97.46,6.92s-.15,5.48-.46,7.6h-47.66Z" fill="#fff"/><path d="M721.04,5102.65c-2.57-4.54-4.62-11.2-6.13-19.97-1.51-8.77-1.89-16.19-1.13-22.24,16.64,0,33.36-.53,50.16-1.59,6.05-3.78,10.67-8.7,13.84-14.75,3.18-6.05,4.77-12.1,4.77-18.16,0-6.96-2.12-12.78-6.36-17.48-4.24-4.69-10.21-7.04-17.93-7.04h-52.43c-.45-6.81-.11-13.81,1.02-20.99,1.13-7.18,2.76-13.28,4.88-18.27h58.33c5.6,14.53,9.91,29.96,12.94,46.3,3.03,16.34,4.46,32.53,4.31,48.57,27.38-2.87,47.21-6.96,59.46-12.26,8.77-3.63,15.43-7.94,19.97-12.94,4.54-4.99,6.81-9.83,6.81-14.53s-2.15-8.32-6.47-11.35c-4.31-3.03-10.18-4.54-17.59-4.54h-62.87c-.45-6.81-.11-13.81,1.02-20.99,1.13-7.18,2.76-13.28,4.88-18.27h76.03c6.36,16.04,9.53,31.17,9.53,45.39,0,20.28-7.11,37.56-21.33,51.86-14.22,14.3-33.29,25.08-57.19,32.34-23.91,7.26-50.08,10.89-78.53,10.89Z" fill="#fff"/><path d="M943,5102.65c-2.58-4.54-4.62-11.2-6.13-19.97-1.51-8.77-1.89-16.19-1.13-22.24,16.64,0,33.36-.53,50.16-1.59,6.05-3.78,10.67-8.7,13.84-14.75,3.18-6.05,4.77-12.1,4.77-18.16,0-6.96-2.12-12.78-6.35-17.48-4.24-4.69-10.21-7.04-17.93-7.04h-52.43c-.45-6.81-.11-13.81,1.02-20.99,1.13-7.18,2.76-13.28,4.88-18.27h58.33c5.6,14.53,9.91,29.96,12.94,46.3,3.02,16.34,4.46,32.53,4.31,48.57,27.38-2.87,47.21-6.96,59.46-12.26,8.77-3.63,15.43-7.94,19.97-12.94,4.54-4.99,6.81-9.83,6.81-14.53s-2.16-8.32-6.47-11.35c-4.31-3.03-10.18-4.54-17.59-4.54h-62.87c-.45-6.81-.11-13.81,1.02-20.99,1.13-7.18,2.76-13.28,4.88-18.27h76.03c6.35,16.04,9.53,31.17,9.53,45.39,0,20.28-7.11,37.56-21.33,51.86-14.22,14.3-33.29,25.08-57.19,32.34-23.91,7.26-50.08,10.89-78.53,10.89Z" fill="#fff"/><path d="M1144.77,5134.88c-3.03,0-5.6-1.02-7.72-3.06-2.12-2.04-3.18-4.58-3.18-7.6s1.06-5.6,3.18-7.72c2.12-2.12,4.69-3.18,7.72-3.18s5.56,1.06,7.6,3.18c2.04,2.12,3.06,4.69,3.06,7.72s-1.02,5.56-3.06,7.6c-2.04,2.04-4.58,3.06-7.6,3.06Z" fill="#fff"/><path d="M1143.4,5103.1c-3.78-9.68-6.7-21.14-8.74-34.38-2.04-13.24-3.06-26.44-3.06-39.6,0-9.08.45-18,1.36-26.78l-2.04-.23c-6.36-.76-11.77-1.51-16.23-2.27-4.46-.76-8.59-1.96-12.37-3.63,0-6.96.87-14.15,2.61-21.56,1.74-7.41,3.97-13.39,6.7-17.93,3.63,1.82,8.92,3.18,15.89,4.08,6.96.91,13.54,1.36,19.75,1.36h34.5c4.39,11.95,6.81,25.04,7.26,39.26h-29.5c-8.17,0-14.3,1.59-18.38,4.77s-6.13,7.49-6.13,12.94c0,6.81,3.06,14.11,9.19,21.9,6.13,7.79,14.26,14.26,24.4,19.4-1.97,7.26-4.88,14.75-8.74,22.47s-7.98,14.45-12.37,20.2h-4.08Z" fill="#fff"/><path d="M1240.31,5134.88c-3.03,0-5.6-1.02-7.72-3.06-2.12-2.04-3.18-4.58-3.18-7.6s1.06-5.6,3.18-7.72c2.12-2.12,4.69-3.18,7.72-3.18s5.56,1.06,7.6,3.18c2.04,2.12,3.06,4.69,3.06,7.72s-1.02,5.56-3.06,7.6c-2.04,2.04-4.58,3.06-7.6,3.06ZM1240.31,5165.97c-3.03,0-5.6-1.02-7.72-3.06-2.12-2.04-3.18-4.58-3.18-7.6s1.06-5.6,3.18-7.72c2.12-2.12,4.69-3.18,7.72-3.18s5.56,1.06,7.6,3.18c2.04,2.12,3.06,4.69,3.06,7.72s-1.02,5.56-3.06,7.6-4.58,3.06-7.6,3.06Z" fill="#fff"/><path d="M1240.31,5103.1c-4.39-5.75-8.51-12.48-12.37-20.2s-6.77-15.21-8.74-22.47c9.99-5.29,18.19-11.95,24.62-19.97,6.43-8.02,9.65-15.73,9.65-23.15,0-4.84-1.55-8.7-4.65-11.58-3.1-2.87-7.83-4.31-14.18-4.31h-38.58c-.45-6.81-.11-13.81,1.02-20.99,1.13-7.18,2.76-13.28,4.88-18.27h45.39c5.9,20.88,8.85,43.2,8.85,66.95,0,13.16-1.02,26.37-3.06,39.6-2.04,13.24-4.96,24.7-8.74,34.38h-4.08Z" fill="#fff"/><path d="M1339.27,5131.25c-.3-2.12-.45-4.65-.45-7.6s.15-5.26.45-6.92h47.66c.3,1.66.45,3.97.45,6.92s-.15,5.48-.45,7.6h-47.66Z" fill="#fff"/><path d="M1280.26,5100.83c-3.63-5.29-6.58-11.61-8.85-18.95-2.27-7.34-3.4-14.49-3.4-21.45,9.83,0,17.17-.07,22.01-.23-.91-22.24,3.55-41.83,13.39-58.78h-43.35c-.45-6.81-.11-13.81,1.02-20.99,1.13-7.18,2.76-13.28,4.88-18.27h47.89c2.27,3.03,4.46,9.08,6.58,18.16,7.41-6.66,15.58-11.76,24.51-15.32,8.93-3.55,18-5.33,27.24-5.33,12.25,0,23.98,3.18,35.18,9.53,11.2,6.36,20.27,15.93,27.23,28.71,6.96,12.79,10.44,28.48,10.44,47.09-3.18,8.78-13.16,17.51-29.96,26.21-16.79,8.7-37.37,15.81-61.73,21.33-24.36,5.53-48.72,8.28-73.08,8.28ZM1292.06,5059.76c36.16-1.21,67.97-3.97,95.44-8.28,27.46-4.31,45.58-9.11,54.36-14.41,0-8.17-2.95-15.09-8.85-20.77-5.9-5.67-13.58-9.91-23.04-12.71-9.46-2.8-19.48-4.2-30.07-4.2-12.86,0-25.53,2.23-38.01,6.7-12.48,4.46-23.23,11.23-32.23,20.31-9,9.08-14.87,20.2-17.59,33.36Z" fill="#fff"/><path d="M1465.68,5039.56c-3.03,0-5.6-1.02-7.72-3.06-2.12-2.04-3.18-4.58-3.18-7.6s1.06-5.6,3.18-7.72,4.69-3.18,7.72-3.18,5.56,1.06,7.6,3.18c2.04,2.12,3.06,4.69,3.06,7.72s-1.02,5.37-3.06,7.49c-2.04,2.12-4.58,3.18-7.6,3.18Z" fill="#fff"/><path d="M1483.38,5103.1c-4.39-5.75-8.51-12.48-12.37-20.2s-6.77-15.21-8.74-22.47c9.99-5.29,18.19-11.95,24.62-19.97,6.43-8.02,9.65-15.73,9.65-23.15,0-4.84-1.55-8.7-4.65-11.58-3.1-2.87-7.83-4.31-14.18-4.31h-38.58c-.45-6.81-.11-13.81,1.02-20.99,1.13-7.18,2.76-13.28,4.88-18.27h45.39c5.9,20.88,8.85,43.2,8.85,66.95,0,13.16-1.02,26.37-3.06,39.6-2.04,13.24-4.96,24.7-8.74,34.38h-4.08Z" fill="#fff"/></svg>