<?xml version="1.0" encoding="UTF-8"?><svg id="Layer_1" xmlns="http://www.w3.org/2000/svg" viewBox="0 0 1673.58 630.03"><path d="M172.28,158.74c-3.47,0-6.42-1.17-8.85-3.51-2.43-2.34-3.64-5.25-3.64-8.72s1.21-6.42,3.64-8.85c2.43-2.43,5.38-3.64,8.85-3.64s6.38,1.22,8.72,3.64c2.34,2.43,3.51,5.38,3.51,8.85s-1.17,6.16-3.51,8.59c-2.34,2.43-5.25,3.64-8.72,3.64Z" fill="#fff"/><path d="M223.28,230.31c-5.03-6.59-9.76-14.31-14.18-23.16-4.42-8.85-7.77-17.44-10.02-25.76,10.41-6.25,19.52-14.01,27.33-23.29,7.81-9.28,11.71-18.35,11.71-27.19,0-5.21-1.95-9.37-5.86-12.49-3.9-3.12-9.07-4.68-15.48-4.68h-99.15c4.33,14.23,6.51,28.02,6.51,41.38,0,20.65-5.03,37.69-15.09,51.14-10.06,13.45-23.77,21.03-41.12,22.77-2.95-6.07-4.99-13.36-6.12-21.86-1.13-8.5-1.26-17.09-.39-25.76,10.93,0,20.43-2.69,28.5-8.07,8.07-5.38,14.22-12.01,18.48-19.91,4.25-7.89,6.38-15.57,6.38-23.03s-.78-12.66-2.34-16.66h-58.03c-.52-7.81-.13-15.83,1.17-24.07,1.3-8.24,3.16-15.22,5.6-20.95h170.19c6.77,23.94,10.15,49.53,10.15,76.77,0,15.09-1.17,30.23-3.51,45.41-2.34,15.18-5.68,28.33-10.02,39.43h-4.68Z" fill="#fff"/><path d="M763.01,266.74c-3.47,0-6.42-1.17-8.85-3.51-2.43-2.34-3.64-5.25-3.64-8.72s1.21-6.42,3.64-8.85c2.43-2.43,5.38-3.64,8.85-3.64s6.38,1.21,8.72,3.64c2.34,2.43,3.51,5.38,3.51,8.85s-1.17,6.38-3.51,8.72c-2.34,2.34-5.25,3.51-8.72,3.51ZM763.01,302.39c-3.47,0-6.42-1.17-8.85-3.51-2.43-2.34-3.64-5.25-3.64-8.72s1.21-6.42,3.64-8.85c2.43-2.43,5.38-3.64,8.85-3.64s6.38,1.21,8.72,3.64c2.34,2.43,3.51,5.38,3.51,8.85s-1.17,6.38-3.51,8.72c-2.34,2.34-5.25,3.51-8.72,3.51Z" fill="#fff"/><path d="M761.97,227.71c-2.95-5.73-5.51-13.31-7.68-22.77-2.17-9.45-3.25-17.31-3.25-23.55,13.36-2.25,28.02-5.9,43.98-10.93,15.96-5.03,29.41-10.84,40.34-17.44,6.94-4.16,12.36-8.5,16.27-13.01,3.9-4.51,5.85-9.11,5.85-13.79,0-3.64-1.13-6.64-3.38-8.98-2.26-2.34-5.55-3.51-9.89-3.51H248.01c-.87-10.75-1.3-19.86-1.3-27.32,0-19.6,3.25-36.56,9.76-50.88s16.79-25.8,30.84-34.48c3.99,3.47,8.07,10.19,12.23,20.17,4.16,9.98,6.42,17.74,6.77,23.29-12.67-1.04-24.16.65-34.48,5.07-10.32,4.42-17.57,10.8-21.73,19.13h599.85c7.29,18.05,10.93,36.09,10.93,54.13,0,14.57-4.25,29.06-12.75,43.46-8.5,14.4-20.21,27.06-35.13,37.99-14.92,10.93-31.92,18.74-51.01,23.42Z" fill="#fff"/><path d="M884.28,262.58c-.35-2.43-.52-5.33-.52-8.72s.17-6.03.52-7.94h54.65c.35,1.91.52,4.55.52,7.94s-.17,6.29-.52,8.72h-54.65Z" fill="#fff"/><path d="M910.05,230.31c-4.34-11.1-7.68-24.24-10.02-39.43-2.34-15.18-3.51-30.32-3.51-45.41,0-10.41.52-20.64,1.56-30.71l-2.34-.26c-7.29-.87-13.49-1.73-18.61-2.6-5.12-.87-9.85-2.25-14.18-4.16,0-7.98,1-16.22,2.99-24.72,1.99-8.5,4.55-15.35,7.68-20.56,4.16,2.08,10.23,3.64,18.22,4.68,7.98,1.04,15.52,1.56,22.64,1.56h39.56c5.03,13.71,7.81,28.72,8.33,45.02h-33.83c-9.37,0-16.4,1.82-21.08,5.46-4.68,3.64-7.03,8.59-7.03,14.83,0,7.81,3.51,16.18,10.54,25.11,7.03,8.94,16.35,16.35,27.98,22.25-2.26,8.33-5.59,16.92-10.02,25.76-4.42,8.85-9.15,16.57-14.18,23.16h-4.68Z" fill="#fff"/><path d="M981.87,262.58c-.35-2.43-.52-5.33-.52-8.72s.17-6.03.52-7.94h54.65c.35,1.91.52,4.55.52,7.94s-.17,6.29-.52,8.72h-54.65Z" fill="#fff"/><path d="M990.72,228.23c-2.95-5.9-5.25-12.88-6.9-20.95-1.65-8.07-2.47-16.7-2.47-25.89,12.14,0,22.94-2.25,32.4-6.77,9.45-4.51,16.79-10.45,21.99-17.83,5.21-7.37,7.81-15.22,7.81-23.55,0-7.11-2.34-13.62-7.03-19.52h-66.1c-.52-7.81-.13-15.83,1.17-24.07,1.3-8.24,3.16-15.22,5.59-20.95h59.07c7.11,20.3,10.67,40.43,10.67,60.38,0,27.76-4.29,50.32-12.88,67.66-8.59,17.35-23.03,27.85-43.33,31.49Z" fill="#fff"/><path d="M168.37,469.73c-3.47,0-6.42-1.17-8.85-3.51-2.43-2.34-3.64-5.25-3.64-8.72s1.21-6.42,3.64-8.85c2.43-2.43,5.38-3.64,8.85-3.64s6.38,1.22,8.72,3.64c2.34,2.43,3.51,5.38,3.51,8.85s-1.17,6.16-3.51,8.59c-2.34,2.43-5.25,3.64-8.72,3.64Z" fill="#fff"/><path d="M229.53,542.59c-5.03-6.59-9.76-14.31-14.18-23.16-4.42-8.85-7.77-17.35-10.02-25.5,11.97-7.81,21.6-16.39,28.89-25.76,7.29-9.37,10.93-17.78,10.93-25.24,0-5.2-1.78-9.32-5.33-12.36-3.56-3.03-8.98-4.55-16.26-4.55H54.39c-.52-7.81-.13-15.83,1.17-24.07,1.3-8.24,3.16-15.22,5.6-20.95h176.44c6.77,23.94,10.15,49.54,10.15,76.77,0,15.09-1.17,30.23-3.51,45.41-2.34,15.18-5.68,28.33-10.02,39.43h-4.68ZM110.6,542.59c-7.46-8.15-12.58-17.91-15.35-29.28-2.78-11.36-3.21-23.16-1.3-35.39,1.91-12.23,5.81-23.72,11.71-34.48h2.86c0,12.32,2.6,22.86,7.81,31.62,5.21,8.76,12.75,14.96,22.64,18.61-2.26,9.2-5.73,18.26-10.41,27.19-4.68,8.94-9.8,16.18-15.35,21.73h-2.6Z" fill="#fff"/><path d="M312.02,579.03c-3.47,0-6.42-1.17-8.85-3.51-2.43-2.34-3.64-5.25-3.64-8.72s1.21-6.42,3.64-8.85c2.43-2.43,5.38-3.64,8.85-3.64s6.38,1.21,8.72,3.64c2.34,2.43,3.51,5.38,3.51,8.85s-1.17,6.38-3.51,8.72c-2.34,2.34-5.25,3.51-8.72,3.51ZM328.94,609.47c-3.47,0-6.42-1.17-8.85-3.51-2.43-2.34-3.64-5.25-3.64-8.72s1.21-6.42,3.64-8.85c2.43-2.43,5.38-3.64,8.85-3.64s6.38,1.21,8.72,3.64c2.34,2.43,3.51,5.38,3.51,8.85s-1.17,6.38-3.51,8.72c-2.34,2.34-5.25,3.51-8.72,3.51ZM345.59,579.03c-3.47,0-6.42-1.17-8.85-3.51-2.43-2.34-3.64-5.25-3.64-8.72s1.21-6.42,3.64-8.85c2.43-2.43,5.38-3.64,8.85-3.64s6.38,1.21,8.72,3.64c2.34,2.43,3.51,5.38,3.51,8.85s-1.17,6.38-3.51,8.72c-2.34,2.34-5.25,3.51-8.72,3.51Z" fill="#fff"/><path d="M326.6,539.99c-2.95-5.72-5.51-13.31-7.68-22.77-2.17-9.45-3.25-17.31-3.25-23.55,13.36-2.25,28.02-5.9,43.98-10.93,15.96-5.03,29.41-10.84,40.34-17.44,6.94-4.16,12.36-8.5,16.26-13.01,3.9-4.51,5.86-9.11,5.86-13.79,0-3.64-1.13-6.64-3.38-8.98-2.26-2.34-5.55-3.51-9.89-3.51h-155.1c-.87-10.75-1.3-19.86-1.3-27.33,0-18.91,3.51-35.52,10.54-49.83,7.03-14.31,17.39-24.85,31.1-31.62,3.99,3.47,8.07,10.19,12.23,20.17,4.16,9.98,6.42,17.74,6.77,23.29-12.67-1.73-24.38-.82-35.13,2.73-10.76,3.56-18.13,9.41-22.12,17.57h158.74c7.29,18.05,10.93,36.09,10.93,54.13,0,14.75-4.12,29.28-12.36,43.59-8.24,14.31-19.87,26.93-34.87,37.86-15.01,10.93-32.23,18.74-51.66,23.42Z" fill="#fff"/><path d="M473.37,579.03c-3.47,0-6.42-1.17-8.85-3.51-2.43-2.34-3.64-5.25-3.64-8.72s1.21-6.42,3.64-8.85c2.43-2.43,5.38-3.64,8.85-3.64s6.38,1.21,8.72,3.64c2.34,2.43,3.51,5.38,3.51,8.85s-1.17,6.38-3.51,8.72c-2.34,2.34-5.25,3.51-8.72,3.51Z" fill="#fff"/><path d="M475.45,483.52c6.42-5.9,11.58-12.53,15.48-19.91,3.9-7.37,5.86-14.18,5.86-20.43,0-5.21-1.52-9.37-4.55-12.49-3.04-3.12-7.77-4.68-14.18-4.68h-48.14c-.52-7.81-.13-15.83,1.17-24.07,1.3-8.24,3.16-15.22,5.6-20.95h64.54c5.55,9.89,8.33,21.34,8.33,34.35s-2.95,26.41-8.85,39.17c-5.9,12.75-13.88,23.12-23.94,31.1l-1.3-2.08Z" fill="#fff"/><path d="M639.66,539.99c-30.71-6.07-55.08-18.35-73.13-36.82-18.05-18.48-27.06-41.85-27.06-70.13,0-3.12.08-5.46.26-7.03h-23.94c-.52-7.81-.13-15.83,1.17-24.07,1.3-8.24,3.16-15.22,5.6-20.95h109.56c2.95-12.14,7.98-22.86,15.09-32.14,7.11-9.28,15.87-16.44,26.28-21.47,3.99,3.47,8.07,10.19,12.23,20.17,4.16,9.98,6.42,17.74,6.77,23.29-9.72-1.39-19-1.13-27.85.78-8.85,1.91-16.05,5.21-21.6,9.89,9.02.7,17.18,2.04,24.46,4.03,7.29,2,13.53,4.64,18.74,7.94,6.94,4.51,12.1,9.93,15.48,16.27,3.38,6.33,5.07,13.32,5.07,20.95l-2.6,3.38c-4.16-2.43-12.28-4.38-24.33-5.86-12.06-1.47-25.98-2.21-41.77-2.21h-69.74c-8.16,0-14.4,1.74-18.74,5.21-4.34,3.47-6.51,7.98-6.51,13.53,0,8.85,5.68,16.7,17.05,23.55,11.36,6.86,25.15,12.41,41.38,16.66,16.22,4.25,31.88,7.16,46.97,8.72.52,7.64,0,15.66-1.56,24.07-1.56,8.42-3.99,15.83-7.29,22.25Z" fill="#fff"/><path d="M785.13,574.86c-.35-2.43-.52-5.33-.52-8.72s.17-6.03.52-7.94h54.65c.35,1.91.52,4.55.52,7.94s-.17,6.29-.52,8.72h-54.65Z" fill="#fff"/><path d="M821.83,469.73c-3.47,0-6.42-1.17-8.85-3.51-2.43-2.34-3.64-5.25-3.64-8.72s1.21-6.42,3.64-8.85,5.38-3.64,8.85-3.64,6.38,1.22,8.72,3.64c2.34,2.43,3.51,5.38,3.51,8.85s-1.17,6.16-3.51,8.59c-2.34,2.43-5.25,3.64-8.72,3.64Z" fill="#fff"/><path d="M780.71,541.29c-14.75-19.6-25.85-39.12-33.31-58.55-7.46-19.43-11.02-38.34-10.67-56.73h-26.28c-.52-7.98-.17-16.09,1.04-24.33,1.21-8.24,3.03-15.13,5.46-20.69h186.07c2.6,5.9,5.03,14.18,7.29,24.85,2.25,10.67,3.38,21.04,3.38,31.1,0,20.65-5.51,38.87-16.53,54.65-11.02,15.79-26.59,28.02-46.71,36.69-20.13,8.68-43.37,13.01-69.74,13.01ZM769.26,495.75c24.98,0,48.27-2.3,69.87-6.9,21.6-4.59,38.91-11.06,51.92-19.39,13.01-8.33,19.52-17.87,19.52-28.63,0-4.51-1.26-8.11-3.77-10.8-2.52-2.69-5.95-4.03-10.28-4.03h-156.4c0,7.29,1.47,15.57,4.42,24.85,2.95,9.28,6.68,18.05,11.19,26.28,4.51,8.24,9.02,14.44,13.53,18.61Z" fill="#fff"/><path d="M992.54,539.99c-2.95-5.72-5.51-13.31-7.68-22.77-2.17-9.45-3.25-17.31-3.25-23.55,13.36-2.25,28.02-5.9,43.98-10.93,15.96-5.03,29.41-10.84,40.34-17.44,6.94-4.16,12.36-8.5,16.27-13.01,3.9-4.51,5.85-9.11,5.85-13.79,0-3.64-1.13-6.64-3.38-8.98-2.26-2.34-5.55-3.51-9.89-3.51h-155.1c-.87-10.75-1.3-19.86-1.3-27.33,0-18.91,3.51-35.52,10.54-49.83,7.03-14.31,17.39-24.85,31.1-31.62,3.99,3.47,8.07,10.19,12.23,20.17,4.16,9.98,6.42,17.74,6.77,23.29-12.67-1.73-24.38-.82-35.13,2.73-10.76,3.56-18.13,9.41-22.12,17.57h158.74c7.29,18.05,10.93,36.09,10.93,54.13,0,14.75-4.12,29.28-12.36,43.59-8.24,14.31-19.87,26.93-34.87,37.86-15.01,10.93-32.23,18.74-51.66,23.42Z" fill="#fff"/><path d="M1384.72,574.86c-.35-2.43-.52-5.33-.52-8.72s.17-6.03.52-7.94h54.65c.35,1.91.52,4.55.52,7.94s-.17,6.29-.52,8.72h-54.65Z" fill="#fff"/><path d="M1231.96,539.99c-30.71-6.07-55.08-18.35-73.13-36.82-18.05-18.48-27.06-41.85-27.06-70.13,0-3.12.08-5.46.26-7.03h-36.17c-.52-7.81-.13-15.83,1.17-24.07,1.3-8.24,3.16-15.22,5.59-20.95h488.99c2.43-12.84,7.29-24.29,14.57-34.35,7.29-10.06,16.39-17.7,27.32-22.9,3.99,3.47,8.07,10.19,12.23,20.17,4.16,9.98,6.42,17.74,6.77,23.29-10.76-1.39-20.91-.87-30.45,1.56-9.54,2.43-16.92,6.68-22.12,12.75,9.89.17,18.65,1.04,26.28,2.6,7.63,1.56,14.22,3.82,19.78,6.77,8.85,4.34,15.44,9.93,19.78,16.79,4.33,6.86,6.51,14.53,6.51,23.03l-2.6,3.38c-4.16-2.43-12.28-4.38-24.33-5.86-12.06-1.47-25.98-2.21-41.77-2.21h-442.92c-8.16,0-14.4,1.74-18.74,5.21-4.34,3.47-6.51,7.98-6.51,13.53,0,8.85,5.68,16.7,17.04,23.55,11.36,6.86,25.15,12.41,41.38,16.66,16.22,4.25,31.88,7.16,46.97,8.72.52,7.64,0,15.66-1.56,24.07-1.56,8.42-3.99,15.83-7.29,22.25Z" fill="#fff"/></svg>