<?xml version="1.0" encoding="UTF-8"?><svg id="Layer_1" xmlns="http://www.w3.org/2000/svg" viewBox="0 0 826.27 83"><path d="M689.1,21.47v49.9c4.69-17.9,14.45-29.7,23.79-29.51,1.79.04,4.1.52,6.8,2.27" fill="none" stroke="#24ff24" stroke-miterlimit="10" stroke-width="3"/><path d="M681.17,21.47c0,16.63,0,33.27,0,49.9-4.69-17.9-14.45-29.7-23.79-29.51-1.79.04-4.1.52-6.8,2.27" fill="none" stroke="#24ff24" stroke-miterlimit="10" stroke-width="3"/><path d="M689.1,3.67v49.9c4.69-17.9,14.45-29.7,23.79-29.51,1.79.04,4.1.52,6.8,2.27" fill="none" stroke="#24ff24" stroke-miterlimit="10" stroke-width="3"/><path d="M681.17,3.67c0,16.63,0,33.27,0,49.9-4.69-17.9-14.45-29.7-23.79-29.51-1.79.04-4.1.52-6.8,2.27" fill="none" stroke="#24ff24" stroke-miterlimit="10" stroke-width="3"/></svg>