<?xml version="1.0" encoding="UTF-8"?><svg id="Layer_1" xmlns="http://www.w3.org/2000/svg" viewBox="0 0 1243.92 905.55"><path d="M19.01,220.82c-2.84-5-5.09-12.34-6.75-22.01-1.67-9.67-2.09-17.84-1.25-24.51,18.34,0,36.76-.58,55.27-1.75,6.67-4.17,11.75-9.59,15.25-16.26,3.5-6.67,5.25-13.34,5.25-20.01,0-7.67-2.34-14.09-7-19.26-4.67-5.17-11.25-7.75-19.76-7.75H2.25c-.5-7.5-.13-15.21,1.12-23.13,1.25-7.92,3.04-14.63,5.38-20.13h64.27c6.17,16.01,10.92,33.01,14.25,51.02,3.33,18.01,4.92,35.85,4.75,53.52,30.17-3.17,52.02-7.67,65.52-13.5,9.67-4,17.01-8.75,22.01-14.25,5-5.5,7.5-10.84,7.5-16.01s-2.38-9.17-7.13-12.5c-4.75-3.33-11.21-5-19.38-5h-69.27c-.5-7.5-.12-15.21,1.13-23.13,1.25-7.92,3.04-14.63,5.38-20.13h83.78c7,17.67,10.5,34.35,10.5,50.02,0,22.34-7.84,41.39-23.51,57.14-15.67,15.76-36.68,27.63-63.02,35.64-26.34,8-55.19,12-86.53,12Z" fill="#fff"/><path d="M302.6,252.33c-.34-2.34-.5-5.13-.5-8.38s.16-5.79.5-7.63h52.52c.33,1.83.5,4.38.5,7.63s-.17,6.04-.5,8.38h-52.52Z" fill="#fff"/><path d="M262.09,151.3c-3.34,0-6.17-1.13-8.5-3.38-2.34-2.25-3.5-5.04-3.5-8.38s1.16-6.17,3.5-8.5,5.17-3.5,8.5-3.5,6.13,1.17,8.38,3.5c2.25,2.34,3.38,5.17,3.38,8.5s-1.13,5.92-3.38,8.25c-2.25,2.34-5.04,3.5-8.38,3.5Z" fill="#fff"/><path d="M326.11,221.32c-4.17-10.67-7.38-23.3-9.63-37.89-2.25-14.59-3.38-29.13-3.38-43.64,0-10.34.5-20.51,1.5-30.51h-117.79c-.5-7.5-.13-15.21,1.12-23.13,1.25-7.92,3.04-14.63,5.38-20.13h154.55c2,7,3.67,14.17,5,21.51,1.33,7.34,2.33,14.59,3,21.76h-25.51c-8.34,0-14.59,1.67-18.76,5-4.17,3.34-6.25,7.84-6.25,13.5,0,7.5,3.42,15.38,10.25,23.63,6.83,8.25,16.17,15.88,28.01,22.88-2.34,8.17-5.63,16.55-9.88,25.13-4.25,8.59-8.63,15.88-13.13,21.88h-4.5Z" fill="#fff"/><path d="M465.91,256.33c-3.34,0-6.17-1.13-8.5-3.38-2.34-2.25-3.5-5.04-3.5-8.38s1.16-6.17,3.5-8.5c2.33-2.34,5.17-3.5,8.5-3.5s6.13,1.16,8.38,3.5c2.25,2.33,3.38,5.17,3.38,8.5s-1.13,6.13-3.38,8.38c-2.25,2.25-5.04,3.38-8.38,3.38ZM465.91,290.6c-3.34,0-6.17-1.12-8.5-3.38-2.34-2.25-3.5-5.04-3.5-8.38s1.16-6.17,3.5-8.5c2.33-2.34,5.17-3.5,8.5-3.5s6.13,1.16,8.38,3.5c2.25,2.33,3.38,5.17,3.38,8.5s-1.13,6.13-3.38,8.38c-2.25,2.25-5.04,3.38-8.38,3.38Z" fill="#fff"/><path d="M389.13,218.82c-2.67-5.17-4.67-11.92-6-20.26-1.34-8.33-1.67-16.42-1-24.26h1.25c16.84,0,36.14-2.25,57.89-6.75,21.76-4.5,40.39-10.63,55.89-18.38,15.5-7.75,23.26-16.13,23.26-25.13,0-5-2.25-8.71-6.75-11.13-4.5-2.42-10.92-3.63-19.26-3.63h-123.79c-.67-7.33-.38-14.96.88-22.88,1.25-7.92,2.96-14.71,5.13-20.38h150.05c5.83,9.67,8.58,20.59,8.25,32.76-.34,12.17-4.67,23.59-13,34.26l19.26,4.25c.83,3.17,1.41,7.13,1.75,11.88.33,4.75.33,9.05,0,12.88-9,12.17-21.8,22.51-38.39,31.01-16.59,8.5-34.85,14.92-54.77,19.26-19.92,4.34-39.64,6.5-59.15,6.5h-1.5Z" fill="#fff"/><path d="M618.21,252.33c-.34-2.34-.5-5.13-.5-8.38s.16-5.79.5-7.63h52.52c.33,1.83.5,4.38.5,7.63s-.17,6.04-.5,8.38h-52.52Z" fill="#fff"/><path d="M660.72,218.82c-29.51-5.83-52.94-17.63-70.27-35.39-17.34-17.76-26.01-40.22-26.01-67.4,0-3,.08-5.25.25-6.75h-23.01c-.5-7.5-.13-15.21,1.12-23.13,1.25-7.92,3.04-14.63,5.38-20.13h105.29c2.83-11.67,7.67-21.96,14.51-30.89,6.83-8.92,15.26-15.79,25.26-20.63,3.83,3.34,7.75,9.8,11.75,19.38,4,9.59,6.17,17.05,6.5,22.38-9.34-1.33-18.26-1.08-26.76.75-8.5,1.84-15.42,5-20.76,9.5,8.67.67,16.51,1.96,23.51,3.88,7,1.92,13,4.46,18.01,7.63,6.67,4.34,11.63,9.55,14.88,15.63,3.25,6.09,4.88,12.8,4.88,20.13l-2.5,3.25c-4-2.33-11.8-4.21-23.38-5.63-11.59-1.41-24.97-2.13-40.14-2.13h-67.02c-7.84,0-13.84,1.67-18.01,5-4.17,3.34-6.25,7.67-6.25,13,0,8.5,5.46,16.05,16.38,22.63,10.92,6.59,24.17,11.92,39.76,16.01,15.59,4.09,30.64,6.88,45.14,8.38.5,7.34,0,15.05-1.5,23.13-1.5,8.09-3.84,15.22-7,21.38Z" fill="#fff"/><path d="M731,161.05c-1.34-8.17-2-15.29-2-21.38s.75-12.88,2.25-20.38h97.28c1.33,8,2,15.05,2,21.13s-.75,12.97-2.25,20.63h-97.28Z" fill="#fff"/><path d="M954.32,218.82c-29.51-5.83-52.94-17.63-70.27-35.39-17.34-17.76-26.01-40.22-26.01-67.4,0-3,.08-5.25.25-6.75h-23.01c-.5-7.5-.12-15.21,1.12-23.13,1.25-7.92,3.04-14.63,5.38-20.13h105.29c2.83-11.67,7.67-21.96,14.5-30.89,6.83-8.92,15.26-15.79,25.26-20.63,3.83,3.34,7.75,9.8,11.75,19.38,4,9.59,6.17,17.05,6.5,22.38-9.34-1.33-18.26-1.08-26.76.75-8.5,1.84-15.42,5-20.76,9.5,8.67.67,16.51,1.96,23.51,3.88,7,1.92,13,4.46,18.01,7.63,6.67,4.34,11.63,9.55,14.88,15.63,3.25,6.09,4.88,12.8,4.88,20.13l-2.5,3.25c-4-2.33-11.8-4.21-23.38-5.63-11.59-1.41-24.97-2.13-40.14-2.13h-67.02c-7.84,0-13.84,1.67-18.01,5-4.17,3.34-6.25,7.67-6.25,13,0,8.5,5.46,16.05,16.38,22.63,10.92,6.59,24.17,11.92,39.76,16.01,15.59,4.09,30.64,6.88,45.14,8.38.5,7.34,0,15.05-1.5,23.13-1.5,8.09-3.84,15.22-7,21.38Z" fill="#fff"/><path d="M1144.89,272.34l1.25-19.76h-20.26c-.34-2.34-.5-5.13-.5-8.38s.16-5.79.5-7.63h52.52c.33,1.83.5,4.38.5,7.63s-.17,6.04-.5,8.38h-19.26l1,19.76c-2,.83-4.46,1.25-7.38,1.25s-5.54-.42-7.88-1.25Z" fill="#fff"/><path d="M1199.9,49.02c-3.34,0-6.17-1.13-8.5-3.38-2.34-2.25-3.5-5.04-3.5-8.38s1.17-6.17,3.5-8.5c2.33-2.33,5.17-3.5,8.5-3.5s6.13,1.17,8.38,3.5c2.25,2.34,3.38,5.17,3.38,8.5s-1.12,5.92-3.38,8.25c-2.25,2.34-5.04,3.5-8.38,3.5Z" fill="#fff"/><path d="M1104.62,221.32c-4-24.17-7.88-42.97-11.63-56.39-3.75-13.42-8.88-24.47-15.38-33.14-5.67-7.5-13.05-13.13-22.13-16.88-9.09-3.75-20.13-5.63-33.14-5.63-.5-8.17-.12-16.29,1.12-24.38,1.25-8.08,3.13-14.71,5.63-19.88,12.67,0,24.17,2.79,34.51,8.38,10.34,5.59,17.76,12.97,22.26,22.13h.75c4.5-9.17,12-16.54,22.51-22.13,10.5-5.58,22.26-8.38,35.26-8.38,2.83,5.17,5.13,11.88,6.88,20.13,1.75,8.25,2.63,16.22,2.63,23.88-19.17,0-34.64,2.84-46.39,8.5-11.75,5.67-17.63,13.75-17.63,24.26,0,9.84,4.25,21.17,12.75,34.01,24.34,0,46.55-2.13,66.65-6.38,20.09-4.25,36.01-10.46,47.77-18.63,11.75-8.17,17.63-17.84,17.63-29.01,0-3.83-1.21-6.88-3.63-9.13-2.42-2.25-5.63-3.38-9.63-3.38h-61.77c-.67-7.33-.38-14.96.88-22.88,1.25-7.92,3.13-14.71,5.63-20.38h61.27c7.17,16.84,10.75,33.26,10.75,49.27s-3.42,31.05-10.25,46.14c-6.84,15.09-17.01,29.64-30.51,43.64-10.84,4.84-24.76,8.75-41.76,11.75-17.01,3-34.01,4.5-51.02,4.5Z" fill="#fff"/><path d="M44.77,501.42c-3.34,0-6.17-1.12-8.5-3.38-2.34-2.25-3.5-5.04-3.5-8.38s1.16-6.17,3.5-8.5c2.33-2.34,5.17-3.5,8.5-3.5s6.13,1.17,8.38,3.5c2.25,2.33,3.38,5.17,3.38,8.5s-1.13,6.13-3.38,8.38c-2.25,2.25-5.04,3.38-8.38,3.38ZM44.77,535.68c-3.34,0-6.17-1.12-8.5-3.38-2.34-2.25-3.5-5.04-3.5-8.38s1.16-6.17,3.5-8.5c2.33-2.34,5.17-3.5,8.5-3.5s6.13,1.16,8.38,3.5c2.25,2.33,3.38,5.17,3.38,8.5s-1.13,6.13-3.38,8.38c-2.25,2.25-5.04,3.38-8.38,3.38Z" fill="#fff"/><path d="M106.79,566.44c-3.84-8.17-6.63-15.97-8.38-23.38-1.75-7.42-2.63-14.63-2.63-21.63,0-10,1.46-19.17,4.38-27.51,2.92-8.33,7.29-18.42,13.13-30.26,2.33-5,4.71-10.13,7.13-15.38,2.41-5.25,4.21-10.13,5.38-14.63,2.5-8.83,1.83-15.09-2-18.76-3.84-3.67-9.84-5.5-18.01-5.5H7c-.34-7.5.16-15.21,1.5-23.13,1.33-7.92,3.25-14.63,5.75-20.13h106.29c2.5,5.17,4.5,11.71,6,19.63,1.5,7.92,2.25,15.8,2.25,23.63s-.09,14.25-.25,18.76c-.17,25.34.12,45.81.88,61.4.75,15.59,2.96,26.8,6.63,33.64-2.34,7.17-5.75,14.71-10.25,22.63-4.5,7.92-9.25,14.79-14.25,20.63h-4.75Z" fill="#fff"/><path d="M179.56,464.66c6.17-5.67,11.13-12.04,14.88-19.13,3.75-7.08,5.63-13.63,5.63-19.63,0-5-1.46-9-4.38-12-2.92-3-7.46-4.5-13.63-4.5h-46.27c-.5-7.5-.13-15.21,1.12-23.13,1.25-7.92,3.04-14.63,5.38-20.13h62.02c5.33,9.5,8,20.51,8,33.01s-2.84,25.38-8.5,37.64c-5.67,12.25-13.34,22.22-23.01,29.88l-1.25-2Z" fill="#fff"/><path d="M301.1,556.44c-3.34,0-6.17-1.12-8.5-3.38-2.34-2.25-3.5-5.04-3.5-8.38s1.16-6.17,3.5-8.5c2.33-2.34,5.17-3.5,8.5-3.5s6.13,1.17,8.38,3.5c2.25,2.33,3.38,5.17,3.38,8.5s-1.13,6.13-3.38,8.38c-2.25,2.25-5.04,3.38-8.38,3.38ZM317.36,585.7c-3.34,0-6.17-1.12-8.5-3.38-2.34-2.25-3.5-5.04-3.5-8.38s1.16-6.17,3.5-8.5c2.33-2.34,5.17-3.5,8.5-3.5s6.13,1.17,8.38,3.5c2.25,2.33,3.38,5.17,3.38,8.5s-1.13,6.13-3.38,8.38c-2.25,2.25-5.04,3.38-8.38,3.38ZM333.36,556.44c-3.34,0-6.17-1.12-8.5-3.38-2.34-2.25-3.5-5.04-3.5-8.38s1.16-6.17,3.5-8.5c2.33-2.34,5.17-3.5,8.5-3.5s6.13,1.17,8.38,3.5c2.25,2.33,3.38,5.17,3.38,8.5s-1.13,6.13-3.38,8.38c-2.25,2.25-5.04,3.38-8.38,3.38Z" fill="#fff"/><path d="M235.08,520.92c-2.84-5-5.09-12.34-6.75-22.01-1.67-9.67-2.09-17.84-1.25-24.51,18.34,0,36.76-.58,55.27-1.75,6.67-4.17,11.75-9.58,15.25-16.25,3.5-6.67,5.25-13.34,5.25-20.01,0-7.67-2.34-14.09-7-19.26-4.67-5.17-11.25-7.75-19.76-7.75h-57.77c-.5-7.5-.13-15.21,1.12-23.13,1.25-7.92,3.04-14.63,5.38-20.13h64.27c6.17,16.01,10.92,33.01,14.25,51.02,3.33,18.01,4.92,35.85,4.75,53.52,30.17-3.17,52.02-7.67,65.52-13.5,9.67-4,17.01-8.75,22.01-14.25,5-5.5,7.5-10.84,7.5-16.01s-2.38-9.17-7.13-12.5c-4.75-3.33-11.21-5-19.38-5h-69.27c-.5-7.5-.12-15.21,1.13-23.13,1.25-7.92,3.04-14.63,5.38-20.13h83.78c7,17.67,10.5,34.35,10.5,50.02,0,22.34-7.84,41.39-23.51,57.14-15.67,15.75-36.68,27.63-63.02,35.64-26.34,8-55.19,12-86.53,12Z" fill="#fff"/><path d="M637.71,552.43c-.34-2.34-.5-5.13-.5-8.38s.16-5.79.5-7.63h52.52c.33,1.83.5,4.38.5,7.63s-.17,6.04-.5,8.38h-52.52Z" fill="#fff"/><path d="M661.22,521.42c-4.17-10.67-7.38-23.3-9.63-37.89-2.25-14.59-3.38-29.13-3.38-43.64,0-10.34.5-20.51,1.5-30.51h-236.83c-.5-7.5-.13-15.21,1.12-23.13,1.25-7.92,3.04-14.63,5.38-20.13h273.59c2,7,3.67,14.17,5,21.51,1.33,7.34,2.33,14.59,3,21.76h-25.51c-8.34,0-14.59,1.67-18.76,5-4.17,3.34-6.25,7.84-6.25,13.5,0,7.5,3.41,15.38,10.25,23.63,6.84,8.25,16.17,15.88,28.01,22.88-2.34,8.17-5.63,16.55-9.88,25.13-4.25,8.59-8.63,15.88-13.13,21.88h-4.5Z" fill="#fff"/><path d="M772.76,552.68c-.34-2.34-.5-5.13-.5-8.38s.16-5.79.5-7.63h45.01c.33,1.83.5,4.38.5,7.63s-.17,6.04-.5,8.38h-45.01ZM838.53,556.44c-3.34,0-6.17-1.12-8.5-3.38-2.34-2.25-3.5-5.04-3.5-8.38s1.17-6.17,3.5-8.5c2.33-2.34,5.17-3.5,8.5-3.5s6.13,1.17,8.38,3.5c2.25,2.33,3.38,5.17,3.38,8.5s-1.13,6.13-3.38,8.38c-2.25,2.25-5.04,3.38-8.38,3.38ZM838.53,590.7c-3.34,0-6.17-1.12-8.5-3.38-2.34-2.25-3.5-5.04-3.5-8.38s1.17-6.17,3.5-8.5c2.33-2.34,5.17-3.5,8.5-3.5s6.13,1.16,8.38,3.5c2.25,2.33,3.38,5.17,3.38,8.5s-1.13,6.13-3.38,8.38c-2.25,2.25-5.04,3.38-8.38,3.38Z" fill="#fff"/><path d="M824.78,518.92c-29.51-5.83-52.94-17.63-70.27-35.39-17.34-17.76-26.01-40.22-26.01-67.4,0-3,.08-5.25.25-6.75h-23.01c-.5-7.5-.12-15.21,1.12-23.13,1.25-7.92,3.04-14.63,5.38-20.13h105.29c2.83-11.67,7.67-21.96,14.5-30.89,6.83-8.92,15.26-15.79,25.26-20.63,3.83,3.34,7.75,9.8,11.75,19.38,4,9.59,6.17,17.05,6.5,22.38-9.34-1.33-18.26-1.08-26.76.75-8.5,1.84-15.42,5-20.76,9.5,8.67.67,16.51,1.96,23.51,3.88,7,1.92,13,4.46,18.01,7.63,6.67,4.34,11.63,9.55,14.88,15.63,3.25,6.09,4.88,12.8,4.88,20.13l-2.5,3.25c-4-2.33-11.8-4.21-23.38-5.63-11.59-1.41-24.97-2.13-40.14-2.13h-67.02c-7.84,0-13.84,1.67-18.01,5-4.17,3.34-6.25,7.67-6.25,13,0,8.5,5.46,16.05,16.38,22.63,10.92,6.59,24.17,11.92,39.76,16.01,15.59,4.09,30.64,6.88,45.14,8.38.5,7.34,0,15.05-1.5,23.13-1.5,8.09-3.84,15.22-7,21.38Z" fill="#fff"/><path d="M980.33,501.42c-3.34,0-6.17-1.12-8.5-3.38-2.34-2.25-3.5-5.04-3.5-8.38s1.17-6.17,3.5-8.5c2.33-2.34,5.17-3.5,8.5-3.5s6.13,1.17,8.38,3.5c2.25,2.33,3.38,5.17,3.38,8.5s-1.12,6.13-3.38,8.38-5.04,3.38-8.38,3.38ZM980.33,535.68c-3.34,0-6.17-1.12-8.5-3.38-2.34-2.25-3.5-5.04-3.5-8.38s1.17-6.17,3.5-8.5c2.33-2.34,5.17-3.5,8.5-3.5s6.13,1.16,8.38,3.5c2.25,2.33,3.38,5.17,3.38,8.5s-1.12,6.13-3.38,8.38-5.04,3.38-8.38,3.38Z" fill="#fff"/><path d="M1042.35,566.44c-3.84-8.17-6.63-15.97-8.38-23.38-1.75-7.42-2.63-14.63-2.63-21.63,0-10,1.46-19.17,4.38-27.51,2.92-8.33,7.29-18.42,13.13-30.26,2.33-5,4.71-10.13,7.13-15.38,2.42-5.25,4.21-10.13,5.38-14.63,2.5-8.83,1.83-15.09-2-18.76-3.84-3.67-9.84-5.5-18.01-5.5h-98.78c-.34-7.5.16-15.21,1.5-23.13,1.33-7.92,3.25-14.63,5.75-20.13h106.29c2.5,5.17,4.5,11.71,6,19.63,1.5,7.92,2.25,15.8,2.25,23.63s-.09,14.25-.25,18.76c-.17,25.34.12,45.81.88,61.4.75,15.59,2.96,26.8,6.63,33.64-2.34,7.17-5.75,14.71-10.25,22.63-4.5,7.92-9.25,14.79-14.25,20.63h-4.75Z" fill="#fff"/><path d="M1140.38,552.43c-.34-2.34-.5-5.13-.5-8.38s.16-5.79.5-7.63h52.52c.33,1.83.5,4.38.5,7.63s-.17,6.04-.5,8.38h-52.52Z" fill="#fff"/><path d="M1149.14,448.65c-3.34,0-6.17-1.13-8.5-3.38-2.34-2.25-3.5-5.04-3.5-8.38s1.17-6.17,3.5-8.5c2.33-2.33,5.17-3.5,8.5-3.5s6.13,1.17,8.38,3.5c2.25,2.34,3.38,5.17,3.38,8.5s-1.13,5.92-3.38,8.25c-2.25,2.34-5.04,3.5-8.38,3.5Z" fill="#fff"/><path d="M1089.87,518.92c-2.67-5.17-4.67-11.92-6-20.26-1.34-8.33-1.67-16.42-1-24.26h1.25c16.84,0,36.14-2.25,57.89-6.75,21.76-4.5,40.39-10.63,55.89-18.38,15.51-7.75,23.26-16.13,23.26-25.13,0-5-2.25-8.71-6.75-11.13-4.5-2.42-10.92-3.63-19.26-3.63h-123.79c-.67-7.33-.38-14.96.88-22.88,1.25-7.92,2.96-14.71,5.13-20.38h150.05c5.83,9.67,8.58,20.59,8.25,32.76-.34,12.17-4.67,23.59-13,34.26l19.26,4.25c.83,3.17,1.41,7.13,1.75,11.88.33,4.75.33,9.05,0,12.88-9,12.17-21.8,22.51-38.39,31.01-16.59,8.5-34.85,14.92-54.77,19.26-19.92,4.34-39.64,6.5-59.14,6.5h-1.5Z" fill="#fff"/><path d="M85.53,866.54c-3.84-8.17-6.63-15.97-8.38-23.38-1.75-7.42-2.63-14.63-2.63-21.63,0-10,1.46-19.17,4.38-27.51,2.92-8.33,7.29-18.42,13.13-30.26,2.33-5,4.71-10.13,7.13-15.38,2.42-5.25,4.21-10.13,5.38-14.63,2.5-8.83,1.83-15.09-2-18.76-3.84-3.67-9.84-5.5-18.01-5.5h-44.77c-.34-7.5.16-15.21,1.5-23.13,1.33-7.92,3.25-14.63,5.75-20.13h52.27c2.5,5.17,4.5,11.71,6,19.63,1.5,7.92,2.25,15.8,2.25,23.63v9.13c0,3.09-.09,6.29-.25,9.63-.17,25.34.12,45.81.88,61.4.75,15.59,2.96,26.8,6.63,33.64-2.34,7.17-5.75,14.71-10.25,22.63-4.5,7.92-9.25,14.79-14.25,20.63h-4.75Z" fill="#fff"/><path d="M220.32,872.54l1.25-19.76h-20.26c-.34-2.34-.5-5.13-.5-8.38s.16-5.79.5-7.63h52.52c.33,1.83.5,4.38.5,7.63s-.17,6.04-.5,8.38h-19.26l1,19.76c-2,.83-4.46,1.25-7.38,1.25s-5.54-.42-7.88-1.25Z" fill="#fff"/><path d="M136.8,819.02c-4-5.83-7.25-12.84-9.75-21.01-2.5-8.17-3.75-16-3.75-23.51,10.84,0,18.92-.08,24.26-.25-1-24.51,3.92-46.1,14.75-64.77h-47.77c-.5-7.5-.13-15.21,1.12-23.13,1.25-7.92,3.04-14.63,5.38-20.13h52.77c2.5,3.34,4.92,10,7.25,20.01,8.17-7.33,17.17-12.96,27.01-16.88,9.84-3.92,19.84-5.88,30.01-5.88,13.5,0,26.42,3.5,38.76,10.5,12.34,7,22.34,17.55,30.01,31.64,7.67,14.09,11.5,31.39,11.5,51.89-3.5,9.67-14.5,19.3-33.01,28.88-18.51,9.59-41.18,17.42-68.02,23.51-26.84,6.09-53.69,9.13-80.53,9.13ZM149.8,773.76c39.85-1.33,74.9-4.38,105.16-9.13,30.26-4.75,50.22-10.04,59.9-15.88,0-9-3.25-16.63-9.75-22.88-6.5-6.25-14.97-10.92-25.38-14-10.42-3.08-21.47-4.63-33.14-4.63-14.17,0-28.13,2.46-41.89,7.38-13.75,4.92-25.59,12.38-35.51,22.38-9.92,10-16.38,22.26-19.38,36.76Z" fill="#fff"/><path d="M558.19,856.54c-3.34,0-6.17-1.12-8.5-3.38-2.34-2.25-3.5-5.04-3.5-8.38s1.16-6.17,3.5-8.5c2.33-2.34,5.17-3.5,8.5-3.5s6.13,1.17,8.38,3.5c2.25,2.33,3.38,5.17,3.38,8.5s-1.13,6.13-3.38,8.38c-2.25,2.25-5.04,3.38-8.38,3.38ZM558.19,890.8c-3.34,0-6.17-1.12-8.5-3.38-2.34-2.25-3.5-5.04-3.5-8.38s1.16-6.17,3.5-8.5c2.33-2.34,5.17-3.5,8.5-3.5s6.13,1.16,8.38,3.5c2.25,2.33,3.38,5.17,3.38,8.5s-1.13,6.13-3.38,8.38c-2.25,2.25-5.04,3.38-8.38,3.38Z" fill="#fff"/><path d="M352.62,821.52c-4.17-10.67-7.38-23.3-9.63-37.89-2.25-14.59-3.38-29.13-3.38-43.64,0-10.33.5-20.51,1.5-30.51h-29.76c-.5-7.5-.12-15.21,1.13-23.13,1.25-7.92,3.04-14.63,5.38-20.13h439.9c6.5,23.01,9.75,47.6,9.75,73.77,0,14.5-1.13,29.05-3.38,43.64-2.25,14.59-5.46,27.22-9.63,37.89h-4.5c-4.84-6.33-9.38-13.75-13.63-22.26-4.25-8.5-7.46-16.76-9.63-24.76,11.17-5.5,20.34-12.71,27.51-21.63,7.17-8.92,10.75-17.46,10.75-25.63,0-5.33-1.71-9.63-5.13-12.88-3.42-3.25-8.63-4.88-15.63-4.88h-381.38c-7,0-12.17,1.59-15.51,4.75-3.34,3.17-5,7.5-5,13,0,8.34,3.63,17.01,10.88,26.01s16.29,16.09,27.13,21.26c-2.17,8-5.38,16.26-9.63,24.76s-8.8,15.92-13.63,22.26h-4.5Z" fill="#fff"/><path d="M875.54,852.54c-.34-2.34-.5-5.13-.5-8.38s.16-5.79.5-7.63h52.52c.33,1.83.5,4.38.5,7.63s-.17,6.04-.5,8.38h-52.52Z" fill="#fff"/><path d="M901.05,821.52c-4.84-6.33-9.38-13.75-13.63-22.26-4.25-8.5-7.46-16.76-9.63-24.76,10.67-6.5,19.51-14.21,26.51-23.13,7-8.92,10.5-17.29,10.5-25.13,0-5.17-1.71-9.25-5.13-12.25-3.42-3-8.63-4.5-15.63-4.5h-122.04c-.5-7.5-.12-15.21,1.12-23.13,1.25-7.92,3.04-14.63,5.38-20.13h130.29c6.5,23.01,9.75,47.6,9.75,73.77,0,14.5-1.12,29.05-3.38,43.64-2.25,14.59-5.46,27.22-9.63,37.89h-4.5Z" fill="#fff"/><path d="M1091.87,819.02c-29.51-5.83-52.94-17.63-70.27-35.39-17.34-17.76-26.01-40.22-26.01-67.4,0-3,.08-5.25.25-6.75h-23.01c-.5-7.5-.12-15.21,1.12-23.13,1.25-7.92,3.04-14.63,5.38-20.13h105.29c2.83-11.67,7.67-21.96,14.5-30.89,6.83-8.92,15.26-15.79,25.26-20.63,3.83,3.34,7.75,9.8,11.75,19.38,4,9.59,6.17,17.05,6.5,22.38-9.34-1.33-18.26-1.08-26.76.75-8.5,1.84-15.42,5-20.76,9.5,8.67.67,16.51,1.96,23.51,3.88,7,1.92,13,4.46,18.01,7.63,6.67,4.34,11.63,9.55,14.88,15.63,3.25,6.09,4.88,12.8,4.88,20.13l-2.5,3.25c-4-2.33-11.8-4.21-23.38-5.63-11.59-1.41-24.97-2.12-40.14-2.12h-67.02c-7.84,0-13.84,1.67-18.01,5-4.17,3.34-6.25,7.67-6.25,13,0,8.5,5.46,16.05,16.38,22.63,10.92,6.59,24.17,11.92,39.76,16,15.59,4.09,30.64,6.88,45.14,8.38.5,7.34,0,15.05-1.5,23.13-1.5,8.09-3.84,15.22-7,21.38Z" fill="#fff"/><path d="M1175.39,852.54c-.34-2.34-.5-5.13-.5-8.38s.16-5.79.5-7.63h52.52c.33,1.83.5,4.38.5,7.63s-.17,6.04-.5,8.38h-52.52Z" fill="#fff"/><path d="M1203.65,764.76c6.17-5.67,11.13-12.04,14.88-19.13,3.75-7.08,5.63-13.63,5.63-19.63,0-5-1.46-9-4.38-12-2.92-3-7.46-4.5-13.63-4.5h-46.27c-.5-7.5-.12-15.21,1.12-23.13,1.25-7.92,3.04-14.63,5.38-20.13h62.02c5.33,9.5,8,20.51,8,33.01s-2.84,25.38-8.5,37.64c-5.67,12.25-13.34,22.22-23.01,29.88l-1.25-2Z" fill="#fff"/></svg>