<?xml version="1.0" encoding="UTF-8"?><svg id="Layer_1" xmlns="http://www.w3.org/2000/svg" viewBox="0 0 1334.67 739.08"><path d="M338,180.23c-2.32-4.08-4.15-10.07-5.51-17.96-1.36-7.89-1.7-14.56-1.02-20,14.97,0,30-.48,45.11-1.43,5.44-3.4,9.59-7.82,12.45-13.27,2.86-5.44,4.29-10.88,4.29-16.33,0-6.26-1.91-11.5-5.71-15.72-3.81-4.22-9.19-6.33-16.12-6.33h-47.15c-.41-6.12-.1-12.42.92-18.88,1.02-6.46,2.48-11.94,4.39-16.43h52.46c5.03,13.06,8.91,26.94,11.63,41.64,2.72,14.7,4.01,29.26,3.88,43.68,24.63-2.58,42.45-6.26,53.48-11.02,7.89-3.27,13.88-7.14,17.96-11.63,4.08-4.49,6.12-8.84,6.12-13.06s-1.94-7.48-5.82-10.21c-3.88-2.72-9.15-4.08-15.82-4.08h-56.54c-.41-6.12-.1-12.42.92-18.88,1.02-6.46,2.48-11.94,4.39-16.43h68.38c5.71,14.42,8.57,28.03,8.57,40.82,0,18.24-6.4,33.78-19.19,46.64-12.79,12.86-29.94,22.55-51.44,29.09-21.5,6.53-45.04,9.8-70.62,9.8Z" fill="#fff"/><path d="M569.46,205.94c-.27-1.91-.41-4.18-.41-6.84s.13-4.73.41-6.23h42.86c.27,1.5.41,3.57.41,6.23s-.14,4.93-.41,6.84h-42.86Z" fill="#fff"/><path d="M536.4,123.48c-2.72,0-5.04-.92-6.94-2.76-1.91-1.84-2.86-4.11-2.86-6.84s.95-5.03,2.86-6.94c1.9-1.9,4.22-2.86,6.94-2.86s5,.95,6.84,2.86c1.84,1.91,2.76,4.22,2.76,6.94s-.92,4.83-2.76,6.74c-1.84,1.91-4.12,2.86-6.84,2.86Z" fill="#fff"/><path d="M588.65,180.64c-3.4-8.71-6.02-19.01-7.86-30.92-1.84-11.91-2.76-23.78-2.76-35.62,0-8.44.41-16.74,1.22-24.9h-96.14c-.41-6.12-.1-12.42.92-18.88,1.02-6.46,2.48-11.94,4.39-16.43h126.14c1.63,5.71,2.99,11.57,4.08,17.55,1.09,5.99,1.9,11.91,2.45,17.76h-20.82c-6.81,0-11.91,1.36-15.31,4.08-3.4,2.72-5.1,6.4-5.1,11.02,0,6.12,2.79,12.55,8.37,19.29,5.58,6.74,13.2,12.96,22.86,18.68-1.91,6.67-4.59,13.51-8.06,20.51-3.47,7.01-7.04,12.96-10.72,17.86h-3.67Z" fill="#fff"/><path d="M702.75,209.21c-2.72,0-5.03-.92-6.94-2.76-1.91-1.84-2.86-4.12-2.86-6.84s.95-5.04,2.86-6.94c1.9-1.91,4.22-2.86,6.94-2.86s5,.95,6.84,2.86c1.84,1.9,2.76,4.22,2.76,6.94s-.92,5-2.76,6.84-4.12,2.76-6.84,2.76ZM702.75,237.17c-2.72,0-5.03-.92-6.94-2.76-1.91-1.84-2.86-4.12-2.86-6.84s.95-5.04,2.86-6.94c1.9-1.91,4.22-2.86,6.94-2.86s5,.95,6.84,2.86c1.84,1.9,2.76,4.22,2.76,6.94s-.92,5-2.76,6.84-4.12,2.76-6.84,2.76Z" fill="#fff"/><path d="M640.09,178.59c-2.18-4.22-3.81-9.73-4.9-16.53-1.09-6.8-1.36-13.4-.82-19.8h1.02c13.74,0,29.49-1.84,47.25-5.51,17.76-3.67,32.96-8.67,45.62-15,12.65-6.33,18.98-13.17,18.98-20.51,0-4.08-1.84-7.11-5.51-9.08-3.67-1.97-8.91-2.96-15.72-2.96h-101.03c-.54-5.99-.31-12.21.71-18.68,1.02-6.46,2.41-12.01,4.18-16.63h122.47c4.76,7.89,7.01,16.81,6.74,26.74-.27,9.93-3.81,19.26-10.61,27.96l15.72,3.47c.68,2.59,1.15,5.82,1.43,9.7.27,3.88.27,7.38,0,10.51-7.35,9.93-17.79,18.37-31.33,25.31-13.54,6.94-28.44,12.18-44.7,15.72-16.26,3.54-32.35,5.31-48.27,5.31h-1.22Z" fill="#fff"/><path d="M827.05,205.94c-.27-1.91-.41-4.18-.41-6.84s.13-4.73.41-6.23h42.86c.27,1.5.41,3.57.41,6.23s-.14,4.93-.41,6.84h-42.86Z" fill="#fff"/><path d="M861.75,178.59c-24.08-4.76-43.2-14.39-57.35-28.88-14.15-14.49-21.23-32.83-21.23-55.01,0-2.45.07-4.29.2-5.51h-18.78c-.41-6.12-.1-12.42.92-18.88,1.02-6.46,2.48-11.94,4.39-16.43h85.93c2.31-9.52,6.26-17.93,11.84-25.21,5.58-7.28,12.45-12.89,20.62-16.84,3.13,2.72,6.33,8,9.59,15.82,3.27,7.83,5.03,13.91,5.31,18.27-7.62-1.09-14.9-.88-21.84.61-6.94,1.5-12.59,4.08-16.94,7.76,7.07.55,13.47,1.6,19.19,3.16,5.72,1.57,10.61,3.64,14.7,6.23,5.44,3.54,9.49,7.79,12.14,12.76,2.65,4.97,3.98,10.44,3.98,16.43l-2.04,2.65c-3.27-1.9-9.63-3.43-19.08-4.59-9.46-1.15-20.38-1.73-32.76-1.73h-54.7c-6.4,0-11.3,1.36-14.7,4.08-3.4,2.72-5.1,6.26-5.1,10.61,0,6.94,4.46,13.1,13.37,18.47,8.91,5.38,19.73,9.73,32.45,13.06,12.72,3.34,25,5.61,36.84,6.84.41,5.99,0,12.28-1.22,18.88-1.22,6.6-3.13,12.42-5.71,17.45Z" fill="#fff"/><path d="M919.1,131.45c-1.09-6.67-1.63-12.48-1.63-17.45s.61-10.51,1.84-16.63h79.4c1.09,6.53,1.63,12.28,1.63,17.25s-.61,10.58-1.84,16.84h-79.4Z" fill="#fff"/><path d="M1101.37,178.59c-24.08-4.76-43.2-14.39-57.35-28.88-14.15-14.49-21.23-32.83-21.23-55.01,0-2.45.07-4.29.2-5.51h-18.78c-.41-6.12-.1-12.42.92-18.88,1.02-6.46,2.48-11.94,4.39-16.43h85.93c2.31-9.52,6.26-17.93,11.84-25.21,5.58-7.28,12.45-12.89,20.62-16.84,3.13,2.72,6.33,8,9.59,15.82,3.27,7.83,5.03,13.91,5.31,18.27-7.62-1.09-14.9-.88-21.84.61-6.94,1.5-12.59,4.08-16.94,7.76,7.07.55,13.47,1.6,19.19,3.16,5.72,1.57,10.61,3.64,14.7,6.23,5.44,3.54,9.49,7.79,12.14,12.76,2.65,4.97,3.98,10.44,3.98,16.43l-2.04,2.65c-3.27-1.9-9.63-3.43-19.08-4.59-9.46-1.15-20.38-1.73-32.76-1.73h-54.7c-6.4,0-11.3,1.36-14.7,4.08-3.4,2.72-5.1,6.26-5.1,10.61,0,6.94,4.46,13.1,13.37,18.47,8.91,5.38,19.73,9.73,32.45,13.06,12.72,3.34,25,5.61,36.84,6.84.41,5.99,0,12.28-1.22,18.88-1.22,6.6-3.13,12.42-5.71,17.45Z" fill="#fff"/><path d="M1256.9,222.27l1.02-16.12h-16.53c-.27-1.91-.41-4.18-.41-6.84s.13-4.73.41-6.23h42.86c.27,1.5.41,3.57.41,6.23s-.14,4.93-.41,6.84h-15.72l.82,16.12c-1.63.68-3.64,1.02-6.02,1.02s-4.53-.34-6.43-1.02Z" fill="#fff"/><path d="M1301.8,40c-2.72,0-5.04-.92-6.94-2.76-1.91-1.84-2.86-4.11-2.86-6.84s.95-5.03,2.86-6.94c1.9-1.9,4.22-2.86,6.94-2.86s5,.95,6.84,2.86c1.84,1.91,2.76,4.22,2.76,6.94s-.92,4.83-2.76,6.74c-1.84,1.91-4.12,2.86-6.84,2.86Z" fill="#fff"/><path d="M1224.04,180.64c-3.27-19.73-6.43-35.07-9.49-46.03-3.06-10.95-7.25-19.97-12.55-27.04-4.63-6.12-10.65-10.72-18.06-13.78-7.42-3.06-16.43-4.59-27.04-4.59-.41-6.67-.1-13.3.92-19.9,1.02-6.6,2.55-12.01,4.59-16.23,10.34,0,19.73,2.28,28.17,6.84,8.44,4.56,14.49,10.58,18.17,18.06h.61c3.67-7.48,9.8-13.5,18.37-18.06,8.57-4.56,18.17-6.84,28.78-6.84,2.31,4.22,4.18,9.7,5.61,16.43,1.43,6.74,2.14,13.24,2.14,19.49-15.65,0-28.27,2.31-37.86,6.94-9.59,4.63-14.39,11.23-14.39,19.8,0,8.03,3.47,17.28,10.41,27.76,19.87,0,38-1.74,54.4-5.21,16.4-3.47,29.39-8.54,38.98-15.21,9.59-6.67,14.39-14.56,14.39-23.68,0-3.13-.99-5.61-2.96-7.45-1.97-1.84-4.59-2.76-7.86-2.76h-50.42c-.54-5.99-.31-12.21.71-18.68,1.02-6.46,2.55-12.01,4.59-16.63h50.01c5.85,13.75,8.78,27.15,8.78,40.21s-2.79,25.34-8.37,37.66c-5.58,12.32-13.88,24.19-24.9,35.62-8.85,3.95-20.21,7.14-34.09,9.59-13.88,2.45-27.76,3.67-41.64,3.67Z" fill="#fff"/><path d="M48.17,368.42c-2.72,0-5.04-.92-6.94-2.75-1.91-1.84-2.86-4.12-2.86-6.84s.95-5.03,2.86-6.94c1.9-1.9,4.22-2.86,6.94-2.86s5,.95,6.84,2.86c1.84,1.91,2.76,4.22,2.76,6.94s-.92,4.83-2.76,6.74c-1.84,1.91-4.12,2.86-6.84,2.86Z" fill="#fff"/><path d="M83.07,462.31c-3.13-6.67-5.41-13.03-6.84-19.08-1.43-6.06-2.14-11.94-2.14-17.66,0-8.16,1.19-15.65,3.57-22.45,2.38-6.8,5.95-15.03,10.72-24.7,1.9-4.08,3.84-8.27,5.82-12.55,1.97-4.29,3.43-8.27,4.39-11.94,2.04-7.21,1.5-12.31-1.63-15.31-3.13-2.99-8.03-4.49-14.7-4.49H1.63c-.27-6.12.13-12.42,1.22-18.88,1.09-6.46,2.65-11.94,4.69-16.43h86.75c2.04,4.22,3.67,9.56,4.9,16.02,1.22,6.46,1.84,12.89,1.84,19.29s-.07,11.63-.2,15.31c-.14,20.68.1,37.39.71,50.11.61,12.73,2.41,21.88,5.41,27.45-1.91,5.85-4.69,12.01-8.37,18.47-3.67,6.46-7.55,12.07-11.63,16.84h-3.88Z" fill="#fff"/><path d="M142.47,379.23c5.03-4.62,9.08-9.83,12.14-15.61,3.06-5.78,4.59-11.12,4.59-16.02,0-4.08-1.19-7.35-3.57-9.8-2.38-2.45-6.09-3.67-11.12-3.67h-37.76c-.41-6.12-.1-12.42.92-18.88,1.02-6.46,2.48-11.94,4.39-16.43h50.62c4.35,7.76,6.53,16.74,6.53,26.94s-2.32,20.72-6.94,30.72c-4.63,10-10.89,18.13-18.78,24.39l-1.02-1.63Z" fill="#fff"/><path d="M241.66,454.14c-2.72,0-5.04-.92-6.94-2.75-1.91-1.84-2.86-4.12-2.86-6.84s.95-5.04,2.86-6.94c1.9-1.91,4.22-2.86,6.94-2.86s5,.95,6.84,2.86c1.84,1.9,2.76,4.22,2.76,6.94s-.92,5-2.76,6.84c-1.84,1.84-4.12,2.75-6.84,2.75ZM254.93,478.02c-2.72,0-5.04-.92-6.94-2.76-1.91-1.84-2.86-4.12-2.86-6.84s.95-5.04,2.86-6.94c1.9-1.91,4.22-2.86,6.94-2.86s5,.95,6.84,2.86c1.84,1.9,2.76,4.22,2.76,6.94s-.92,5-2.76,6.84-4.12,2.76-6.84,2.76ZM267.99,454.14c-2.72,0-5.04-.92-6.94-2.75-1.91-1.84-2.86-4.12-2.86-6.84s.95-5.04,2.86-6.94c1.9-1.91,4.22-2.86,6.94-2.86s5,.95,6.84,2.86c1.84,1.9,2.76,4.22,2.76,6.94s-.92,5-2.76,6.84c-1.84,1.84-4.12,2.75-6.84,2.75Z" fill="#fff"/><path d="M187.78,425.16c-2.32-4.08-4.15-10.07-5.51-17.96-1.36-7.89-1.7-14.56-1.02-20,14.97,0,30-.48,45.11-1.43,5.44-3.4,9.59-7.82,12.45-13.27,2.86-5.44,4.29-10.88,4.29-16.33,0-6.26-1.91-11.5-5.71-15.72-3.81-4.22-9.19-6.33-16.12-6.33h-47.15c-.41-6.12-.1-12.42.92-18.88,1.02-6.46,2.48-11.94,4.39-16.43h52.46c5.03,13.06,8.91,26.94,11.63,41.64,2.72,14.7,4.01,29.26,3.88,43.68,24.63-2.58,42.45-6.26,53.48-11.02,7.89-3.27,13.88-7.14,17.96-11.63,4.08-4.49,6.12-8.84,6.12-13.06s-1.94-7.48-5.82-10.21c-3.88-2.72-9.15-4.08-15.82-4.08h-56.54c-.41-6.12-.1-12.42.92-18.88,1.02-6.46,2.48-11.94,4.39-16.43h68.38c5.71,14.42,8.57,28.03,8.57,40.82,0,18.24-6.4,33.78-19.19,46.64-12.79,12.86-29.94,22.55-51.44,29.09-21.5,6.53-45.04,9.8-70.62,9.8Z" fill="#fff"/><path d="M516.4,450.88c-.27-1.91-.41-4.18-.41-6.84s.13-4.73.41-6.22h42.86c.27,1.5.41,3.57.41,6.22s-.14,4.93-.41,6.84h-42.86Z" fill="#fff"/><path d="M535.58,425.57c-3.4-8.71-6.02-19.01-7.86-30.92-1.84-11.9-2.76-23.78-2.76-35.62,0-8.43.41-16.74,1.22-24.9h-193.29c-.41-6.12-.1-12.42.92-18.88,1.02-6.46,2.48-11.94,4.39-16.43h223.29c1.63,5.71,2.99,11.57,4.08,17.55,1.09,5.99,1.9,11.91,2.45,17.76h-20.82c-6.81,0-11.91,1.36-15.31,4.08-3.4,2.72-5.1,6.4-5.1,11.02,0,6.12,2.79,12.55,8.37,19.29,5.58,6.74,13.2,12.96,22.86,18.68-1.91,6.67-4.59,13.51-8.06,20.51-3.47,7.01-7.04,12.96-10.72,17.86h-3.67Z" fill="#fff"/><path d="M626.61,451.08c-.27-1.91-.41-4.18-.41-6.84s.13-4.73.41-6.22h36.74c.27,1.5.41,3.57.41,6.22s-.14,4.93-.41,6.84h-36.74ZM680.29,454.14c-2.72,0-5.04-.92-6.94-2.75-1.91-1.84-2.86-4.12-2.86-6.84s.95-5.04,2.86-6.94c1.9-1.91,4.22-2.86,6.94-2.86s5,.95,6.84,2.86c1.84,1.9,2.76,4.22,2.76,6.94s-.92,5-2.76,6.84c-1.84,1.84-4.12,2.75-6.84,2.75ZM680.29,482.1c-2.72,0-5.04-.92-6.94-2.75-1.91-1.84-2.86-4.12-2.86-6.84s.95-5.04,2.86-6.94c1.9-1.91,4.22-2.86,6.94-2.86s5,.95,6.84,2.86c1.84,1.9,2.76,4.22,2.76,6.94s-.92,5-2.76,6.84c-1.84,1.84-4.12,2.75-6.84,2.75Z" fill="#fff"/><path d="M669.07,423.52c-24.08-4.76-43.2-14.39-57.35-28.88-14.15-14.49-21.23-32.83-21.23-55.01,0-2.45.07-4.29.2-5.51h-18.78c-.41-6.12-.1-12.42.92-18.88,1.02-6.46,2.48-11.94,4.39-16.43h85.93c2.31-9.52,6.26-17.93,11.84-25.21,5.58-7.28,12.45-12.89,20.62-16.84,3.13,2.72,6.33,8,9.59,15.82,3.27,7.83,5.03,13.91,5.31,18.27-7.62-1.09-14.9-.88-21.84.61-6.94,1.5-12.59,4.08-16.94,7.76,7.07.54,13.47,1.6,19.19,3.16,5.72,1.57,10.61,3.64,14.7,6.23,5.44,3.54,9.49,7.79,12.14,12.76,2.65,4.97,3.98,10.44,3.98,16.43l-2.04,2.65c-3.27-1.9-9.63-3.43-19.08-4.59-9.46-1.15-20.38-1.73-32.76-1.73h-54.7c-6.4,0-11.3,1.36-14.7,4.08-3.4,2.72-5.1,6.26-5.1,10.61,0,6.94,4.46,13.1,13.37,18.47,8.91,5.38,19.73,9.73,32.45,13.06,12.72,3.34,25,5.61,36.84,6.84.41,5.99,0,12.28-1.22,18.88-1.22,6.6-3.13,12.42-5.71,17.45Z" fill="#fff"/><path d="M796.02,409.24c-2.72,0-5.04-.92-6.94-2.75-1.91-1.84-2.86-4.12-2.86-6.84s.95-5.04,2.86-6.94c1.9-1.91,4.22-2.86,6.94-2.86s5,.95,6.84,2.86c1.84,1.9,2.76,4.22,2.76,6.94s-.92,5-2.76,6.84-4.12,2.75-6.84,2.75ZM796.02,437.2c-2.72,0-5.04-.92-6.94-2.75-1.91-1.84-2.86-4.12-2.86-6.84s.95-5.04,2.86-6.94c1.9-1.91,4.22-2.86,6.94-2.86s5,.95,6.84,2.86c1.84,1.9,2.76,4.21,2.76,6.94s-.92,5-2.76,6.84c-1.84,1.84-4.12,2.75-6.84,2.75Z" fill="#fff"/><path d="M846.64,462.31c-3.13-6.67-5.41-13.03-6.84-19.08-1.43-6.06-2.14-11.94-2.14-17.66,0-8.16,1.19-15.65,3.57-22.45,2.38-6.8,5.95-15.03,10.72-24.7,1.9-4.08,3.84-8.27,5.82-12.55,1.97-4.29,3.43-8.27,4.39-11.94,2.04-7.21,1.5-12.31-1.63-15.31-3.13-2.99-8.03-4.49-14.7-4.49h-80.62c-.27-6.12.13-12.42,1.22-18.88,1.09-6.46,2.65-11.94,4.69-16.43h86.75c2.04,4.22,3.67,9.56,4.9,16.02,1.22,6.46,1.84,12.89,1.84,19.29s-.07,11.63-.2,15.31c-.14,20.68.1,37.39.71,50.11.61,12.73,2.41,21.88,5.41,27.45-1.91,5.85-4.69,12.01-8.37,18.47-3.67,6.46-7.55,12.07-11.63,16.84h-3.88Z" fill="#fff"/><path d="M926.65,450.88c-.27-1.91-.41-4.18-.41-6.84s.13-4.73.41-6.22h42.86c.27,1.5.41,3.57.41,6.22s-.14,4.93-.41,6.84h-42.86Z" fill="#fff"/><path d="M933.8,366.17c-2.72,0-5.04-.92-6.94-2.76-1.91-1.84-2.86-4.11-2.86-6.84s.95-5.03,2.86-6.94c1.9-1.9,4.22-2.86,6.94-2.86s5,.95,6.84,2.86c1.84,1.91,2.76,4.22,2.76,6.94s-.92,4.83-2.76,6.74c-1.84,1.91-4.12,2.86-6.84,2.86Z" fill="#fff"/><path d="M885.42,423.52c-2.18-4.22-3.81-9.73-4.9-16.53-1.09-6.8-1.36-13.4-.82-19.8h1.02c13.74,0,29.49-1.84,47.25-5.51,17.76-3.67,32.96-8.67,45.62-15,12.65-6.33,18.98-13.16,18.98-20.51,0-4.08-1.84-7.11-5.51-9.08-3.67-1.97-8.91-2.96-15.72-2.96h-101.03c-.54-5.99-.31-12.21.71-18.68,1.02-6.46,2.41-12.01,4.18-16.63h122.47c4.76,7.89,7.01,16.81,6.74,26.74-.27,9.93-3.81,19.26-10.61,27.96l15.72,3.47c.68,2.59,1.15,5.82,1.43,9.7.27,3.88.27,7.38,0,10.51-7.35,9.93-17.79,18.37-31.33,25.31-13.54,6.94-28.44,12.18-44.7,15.72-16.26,3.54-32.35,5.31-48.27,5.31h-1.22Z" fill="#fff"/></svg>