<?xml version="1.0" encoding="UTF-8"?><svg id="Layer_1" xmlns="http://www.w3.org/2000/svg" viewBox="0 0 1694.77 555.89"><path d="M391.49,203.21c-4.44-5.82-8.61-12.63-12.51-20.44-3.9-7.81-6.85-15.31-8.84-22.5,10.56-6.89,19.06-14.47,25.49-22.73s9.64-15.69,9.64-22.27c0-4.59-1.57-8.23-4.71-10.91-3.14-2.68-7.92-4.02-14.35-4.02h-149.25c-.46-6.89-.11-13.97,1.03-21.24,1.15-7.27,2.79-13.43,4.94-18.48h155.68c5.97,21.12,8.95,43.71,8.95,67.74,0,13.32-1.03,26.67-3.1,40.07-2.07,13.4-5.02,24.99-8.84,34.79h-4.13ZM286.56,203.21c-6.58-7.19-11.1-15.8-13.55-25.83-2.45-10.02-2.83-20.44-1.15-31.23,1.68-10.79,5.13-20.93,10.33-30.42h2.53c0,10.87,2.3,20.17,6.89,27.9,4.59,7.73,11.25,13.2,19.98,16.42-1.99,8.12-5.05,16.11-9.18,23.99-4.13,7.89-8.65,14.28-13.55,19.17h-2.3Z" fill="#fff"/><path d="M768.29,235.35c-3.06,0-5.67-1.03-7.81-3.1-2.15-2.07-3.21-4.63-3.21-7.69s1.07-5.67,3.21-7.81c2.14-2.15,4.74-3.21,7.81-3.21s5.63,1.07,7.69,3.21c2.07,2.14,3.1,4.74,3.1,7.81s-1.03,5.63-3.1,7.69c-2.07,2.07-4.63,3.1-7.69,3.1ZM768.29,266.81c-3.06,0-5.67-1.03-7.81-3.1-2.15-2.07-3.21-4.63-3.21-7.69s1.07-5.67,3.21-7.81c2.14-2.15,4.74-3.21,7.81-3.21s5.63,1.07,7.69,3.21c2.07,2.14,3.1,4.74,3.1,7.81s-1.03,5.62-3.1,7.69c-2.07,2.07-4.63,3.1-7.69,3.1Z" fill="#fff"/><path d="M710.19,138.92c-3.06,0-5.67-1.03-7.81-3.1-2.15-2.07-3.21-4.63-3.21-7.69s1.07-5.66,3.21-7.81c2.14-2.14,4.74-3.21,7.81-3.21s5.63,1.07,7.69,3.21c2.07,2.15,3.1,4.75,3.1,7.81s-1.03,5.44-3.1,7.58c-2.07,2.15-4.63,3.21-7.69,3.21Z" fill="#fff"/><path d="M765.53,203.21c-3.83-9.79-6.77-21.39-8.84-34.79-2.07-13.39-3.1-26.75-3.1-40.07,0-9.49.46-18.83,1.38-28.01h-343.5c-.46-6.89-.11-13.97,1.03-21.24,1.15-7.27,2.79-13.43,4.94-18.48h377.25c1.99,6.43,3.56,13.01,4.71,19.75,1.15,6.74,2.03,13.4,2.64,19.98h-23.42c-7.66,0-13.4,1.53-17.22,4.59-3.83,3.06-5.74,7.2-5.74,12.4,0,6.89,3.14,14.12,9.41,21.7,6.27,7.58,14.85,14.58,25.72,21.01-2.15,7.5-5.17,15.19-9.07,23.08-3.9,7.89-7.92,14.58-12.05,20.09h-4.13Z" fill="#fff"/><path d="M899.85,235.35c-3.06,0-5.67-1.03-7.81-3.1-2.15-2.07-3.21-4.63-3.21-7.69s1.07-5.67,3.21-7.81c2.14-2.15,4.74-3.21,7.81-3.21s5.62,1.07,7.69,3.21c2.07,2.14,3.1,4.74,3.1,7.81s-1.03,5.63-3.1,7.69c-2.07,2.07-4.63,3.1-7.69,3.1Z" fill="#fff"/><path d="M825.23,200.91c-2.6-4.59-4.67-11.02-6.2-19.29-1.53-8.27-1.92-15.46-1.15-21.58,15.92,0,32.8-.8,50.63-2.41,17.83-1.61,34.17-4.09,49.02-7.46,16.53-3.67,29.7-8.3,39.49-13.89,9.79-5.59,14.7-12.21,14.7-19.86,0-4.59-2.18-8.42-6.54-11.48-4.36-3.06-10.3-4.59-17.79-4.59h-101.03c3.21,4.44,8.11,8.34,14.7,11.71,6.58,3.37,14.16,5.74,22.73,7.12-1.38,5.36-4.29,11.22-8.73,17.57-4.44,6.35-9.57,12.13-15.38,17.34-13.78-12.86-20.67-28.62-20.67-47.3,0-2.76.08-4.9.23-6.43h-32.6c-.46-6.89-.11-13.97,1.03-21.24,1.15-7.27,2.79-13.43,4.94-18.48h151.77c6.43,16.23,9.64,31.54,9.64,45.92,0,20.67-6.43,38.08-19.29,52.24-12.86,14.16-30.46,24.72-52.81,31.69-22.35,6.97-47.91,10.45-76.69,10.45Z" fill="#fff"/><path d="M1178.37,203.21c-4.44-5.82-8.61-12.63-12.51-20.44-3.9-7.81-6.85-15.31-8.84-22.5,10.56-6.89,19.06-14.47,25.49-22.73,6.43-8.27,9.64-15.69,9.64-22.27,0-4.59-1.57-8.23-4.71-10.91-3.14-2.68-7.92-4.02-14.35-4.02h-149.25c-.46-6.89-.11-13.97,1.03-21.24,1.15-7.27,2.79-13.43,4.94-18.48h155.68c5.97,21.12,8.96,43.71,8.96,67.74,0,13.32-1.03,26.67-3.1,40.07-2.07,13.4-5.02,24.99-8.84,34.79h-4.13ZM1073.44,203.21c-6.58-7.19-11.1-15.8-13.55-25.83-2.45-10.02-2.83-20.44-1.15-31.23,1.68-10.79,5.13-20.93,10.33-30.42h2.53c0,10.87,2.3,20.17,6.89,27.9,4.59,7.73,11.25,13.2,19.98,16.42-1.99,8.12-5.05,16.11-9.18,23.99-4.13,7.89-8.65,14.28-13.55,19.17h-2.3Z" fill="#fff"/><path d="M1225.45,250.05l1.15-18.14h-18.6c-.31-2.15-.46-4.71-.46-7.69s.15-5.32.46-7h48.22c.3,1.68.46,4.02.46,7s-.15,5.55-.46,7.69h-17.68l.92,18.14c-1.84.76-4.1,1.15-6.77,1.15s-5.09-.38-7.23-1.15Z" fill="#fff"/><path d="M1216.26,201.37c-2.6-5.2-4.63-11.37-6.08-18.48-1.46-7.12-2.18-14.73-2.18-22.85,10.71,0,20.24-1.99,28.59-5.97,8.34-3.98,14.81-9.22,19.4-15.73,4.59-6.5,6.89-13.43,6.89-20.78,0-6.27-2.07-12.02-6.2-17.22h-58.32c-.46-6.89-.11-13.97,1.03-21.24,1.15-7.27,2.79-13.43,4.94-18.48h52.12c6.28,17.91,9.42,35.67,9.42,53.27,0,24.49-3.79,44.39-11.37,59.7-7.58,15.31-20.32,24.57-38.23,27.78Z" fill="#fff"/><path d="M1434.85,231.91c-.31-2.15-.46-4.71-.46-7.69s.15-5.32.46-7h41.33c.3,1.68.46,4.02.46,7s-.15,5.55-.46,7.69h-41.33ZM1495.24,235.35c-3.06,0-5.66-1.03-7.81-3.1-2.15-2.07-3.21-4.63-3.21-7.69s1.07-5.67,3.21-7.81c2.14-2.15,4.74-3.21,7.81-3.21s5.63,1.07,7.69,3.21c2.07,2.14,3.1,4.74,3.1,7.81s-1.03,5.63-3.1,7.69-4.63,3.1-7.69,3.1ZM1495.24,266.81c-3.06,0-5.66-1.03-7.81-3.1-2.15-2.07-3.21-4.63-3.21-7.69s1.07-5.67,3.21-7.81c2.14-2.15,4.74-3.21,7.81-3.21s5.63,1.07,7.69,3.21c2.07,2.14,3.1,4.74,3.1,7.81s-1.03,5.62-3.1,7.69-4.63,3.1-7.69,3.1Z" fill="#fff"/><path d="M1385.03,200.91c-27.09-5.36-48.6-16.19-64.52-32.49-15.92-16.3-23.88-36.93-23.88-61.88,0-2.76.08-4.82.23-6.2h-27.09c-.46-6.89-.11-13.97,1.03-21.24,1.15-7.27,2.79-13.43,4.94-18.48h284.49c2.3-11.17,6.62-21.01,12.97-29.51,6.35-8.5,14.27-15.04,23.77-19.63,3.52,3.06,7.12,8.99,10.79,17.79,3.67,8.8,5.66,15.65,5.97,20.55-9.03-1.22-17.61-.84-25.72,1.15-8.12,1.99-14.54,5.36-19.29,10.1,8.42.31,15.88,1.23,22.39,2.76,6.5,1.53,12.13,3.67,16.88,6.43,7.04,3.98,12.28,8.88,15.73,14.7,3.44,5.82,5.17,12.32,5.17,19.52l-2.3,2.98c-3.67-2.14-10.83-3.86-21.47-5.17-10.64-1.3-22.92-1.95-36.85-1.95h-246.15c-7.2,0-12.71,1.53-16.53,4.59-3.83,3.06-5.74,7.04-5.74,11.94,0,7.81,5.01,14.73,15.04,20.78,10.02,6.05,22.19,10.95,36.51,14.7,14.31,3.75,28.13,6.31,41.44,7.69.46,6.74,0,13.82-1.38,21.24-1.38,7.43-3.52,13.97-6.43,19.63Z" fill="#fff"/><path d="M1658.95,138.92c-3.06,0-5.67-1.03-7.81-3.1-2.14-2.07-3.21-4.63-3.21-7.69s1.07-5.66,3.21-7.81c2.14-2.14,4.74-3.21,7.81-3.21s5.62,1.07,7.69,3.21c2.07,2.15,3.1,4.75,3.1,7.81s-1.03,5.44-3.1,7.58c-2.07,2.15-4.63,3.21-7.69,3.21Z" fill="#fff"/><path d="M1676.86,203.21c-4.44-5.82-8.61-12.63-12.51-20.44-3.9-7.81-6.85-15.38-8.84-22.73,10.1-5.36,18.4-12.09,24.91-20.21,6.5-8.11,9.76-15.92,9.76-23.42,0-4.9-1.57-8.8-4.71-11.71-3.14-2.91-7.92-4.36-14.35-4.36h-39.03c-.46-6.89-.11-13.97,1.03-21.24,1.15-7.27,2.79-13.43,4.94-18.48h45.92c5.97,21.12,8.96,43.71,8.96,67.74,0,13.32-1.03,26.67-3.1,40.07-2.07,13.4-5.02,24.99-8.84,34.79h-4.13Z" fill="#fff"/><path d="M42.25,426.62c5.66-5.2,10.22-11.06,13.66-17.57,3.44-6.5,5.17-12.51,5.17-18.02,0-4.59-1.34-8.27-4.02-11.02-2.68-2.76-6.85-4.13-12.51-4.13H2.07c-.46-6.89-.11-13.97,1.03-21.24,1.15-7.27,2.79-13.43,4.94-18.48h56.94c4.9,8.73,7.35,18.83,7.35,30.31s-2.6,23.31-7.81,34.56c-5.21,11.25-12.25,20.4-21.12,27.44l-1.15-1.84Z" fill="#fff"/><path d="M182.08,510.89c-3.06,0-5.67-1.03-7.81-3.1-2.15-2.07-3.21-4.63-3.21-7.69s1.07-5.67,3.21-7.81c2.14-2.15,4.74-3.21,7.81-3.21s5.63,1.07,7.69,3.21c2.07,2.14,3.1,4.74,3.1,7.81s-1.03,5.63-3.1,7.69c-2.07,2.07-4.63,3.1-7.69,3.1Z" fill="#fff"/><path d="M98.27,476.45c-3.67-5.36-6.66-11.79-8.95-19.29-2.3-7.5-3.44-14.7-3.44-21.58,9.95,0,17.37-.08,22.27-.23-.92-22.5,3.59-42.32,13.55-59.47h-43.86c-.46-6.89-.11-13.97,1.03-21.24,1.15-7.27,2.79-13.43,4.94-18.48h48.45c2.3,3.06,4.51,9.18,6.66,18.37,7.5-6.73,15.76-11.9,24.8-15.5,9.03-3.59,18.21-5.4,27.55-5.4,12.4,0,24.26,3.21,35.59,9.64,11.33,6.43,20.51,16.11,27.55,29.05,7.04,12.94,10.56,28.82,10.56,47.64-3.21,8.88-13.32,17.72-30.31,26.52-16.99,8.8-37.81,16-62.45,21.58-24.65,5.59-49.29,8.38-73.94,8.38ZM110.21,434.89c36.58-1.22,68.77-4.02,96.55-8.38,27.78-4.36,46.11-9.22,54.99-14.58,0-8.27-2.99-15.27-8.96-21.01s-13.74-10.02-23.31-12.86c-9.57-2.83-19.71-4.25-30.42-4.25-13.01,0-25.83,2.26-38.46,6.77-12.63,4.52-23.5,11.37-32.61,20.55-9.11,9.18-15.04,20.44-17.79,33.75Z" fill="#fff"/><path d="M285.87,414.45c-3.06,0-5.67-1.03-7.81-3.1-2.15-2.07-3.21-4.63-3.21-7.69s1.07-5.66,3.21-7.81,4.74-3.21,7.81-3.21,5.63,1.07,7.69,3.21c2.07,2.15,3.1,4.75,3.1,7.81s-1.03,5.43-3.1,7.58c-2.07,2.15-4.63,3.21-7.69,3.21Z" fill="#fff"/><path d="M303.78,478.74c-4.44-5.82-8.61-12.63-12.51-20.44s-6.85-15.38-8.84-22.73c10.1-5.36,18.41-12.09,24.91-20.21,6.5-8.11,9.76-15.92,9.76-23.42,0-4.9-1.57-8.8-4.71-11.71-3.14-2.91-7.92-4.36-14.35-4.36h-39.03c-.46-6.89-.11-13.97,1.03-21.24,1.15-7.27,2.79-13.43,4.94-18.48h45.92c5.97,21.12,8.96,43.71,8.96,67.74,0,13.32-1.03,26.67-3.1,40.07-2.07,13.4-5.02,24.99-8.84,34.79h-4.13Z" fill="#fff"/><path d="M439.94,476.45c-27.09-5.36-48.6-16.19-64.52-32.49-15.92-16.3-23.88-36.93-23.88-61.88,0-2.76.08-4.82.23-6.2h-28.01c-.46-6.89-.11-13.97,1.03-21.24,1.15-7.27,2.79-13.43,4.94-18.48h308.83c2.45-11.17,6.85-21.05,13.2-29.62,6.35-8.57,14.27-15.08,23.77-19.52,3.52,3.06,7.12,8.99,10.79,17.79,3.67,8.8,5.66,15.65,5.97,20.55-9.18-1.38-17.91-1.07-26.18.92-8.27,1.99-14.62,5.43-19.06,10.33,8.42.31,15.92,1.23,22.5,2.76,6.58,1.53,12.25,3.6,16.99,6.2,7.19,3.98,12.55,8.92,16.07,14.81,3.52,5.89,5.28,12.44,5.28,19.63l-2.3,2.98c-3.67-2.14-10.83-3.86-21.47-5.17-10.64-1.3-22.93-1.95-36.85-1.95h-270.25c-7.2,0-12.71,1.53-16.53,4.59-3.83,3.06-5.74,7.04-5.74,11.94,0,7.81,5.01,14.74,15.04,20.78,10.02,6.05,22.19,10.95,36.51,14.7,14.31,3.75,28.13,6.31,41.45,7.69.46,6.74,0,13.82-1.38,21.24-1.38,7.43-3.52,13.97-6.43,19.63Z" fill="#fff"/><path d="M964.15,510.89c-3.06,0-5.67-1.03-7.81-3.1-2.15-2.07-3.21-4.63-3.21-7.69s1.07-5.67,3.21-7.81c2.14-2.15,4.74-3.21,7.81-3.21s5.62,1.07,7.69,3.21c2.07,2.14,3.1,4.74,3.1,7.81s-1.03,5.63-3.1,7.69-4.63,3.1-7.69,3.1ZM964.15,542.35c-3.06,0-5.67-1.03-7.81-3.1-2.15-2.07-3.21-4.63-3.21-7.69s1.07-5.67,3.21-7.81c2.14-2.15,4.74-3.21,7.81-3.21s5.62,1.07,7.69,3.21c2.07,2.14,3.1,4.74,3.1,7.81s-1.03,5.63-3.1,7.69-4.63,3.1-7.69,3.1Z" fill="#fff"/><path d="M962.77,476.45c-2.6-5.05-4.86-11.75-6.77-20.09-1.92-8.34-2.87-15.27-2.87-20.78,11.79-1.99,24.72-5.2,38.8-9.64,14.08-4.44,25.95-9.56,35.59-15.38,6.12-3.67,10.91-7.5,14.35-11.48,3.44-3.98,5.17-8.04,5.17-12.17,0-3.21-1-5.85-2.98-7.92-1.99-2.07-4.9-3.1-8.73-3.1h-322.84c-.77-9.49-1.15-17.53-1.15-24.11,0-16.99,3.02-31.8,9.07-44.43,6.05-12.63,15.12-22.31,27.21-29.05,3.52,3.06,7.12,8.99,10.79,17.79,3.67,8.8,5.66,15.65,5.97,20.55-11.18-1.22-21.43-.11-30.77,3.33-9.34,3.44-15.77,8.84-19.29,16.19h326.05c6.43,15.92,9.64,31.84,9.64,47.76,0,13.01-3.64,25.83-10.91,38.46-7.27,12.63-17.53,23.76-30.77,33.41-13.24,9.64-28.44,16.53-45.58,20.67Z" fill="#fff"/></svg>