<?xml version="1.0" encoding="UTF-8"?><svg id="Layer_1" xmlns="http://www.w3.org/2000/svg" viewBox="0 0 2006.43 630.03"><path d="M136.62,230.31c-5.03-6.59-9.76-14.31-14.18-23.16-4.42-8.85-7.77-17.44-10.02-25.76,11.1-6.77,20.3-14.79,27.58-24.07,7.29-9.28,10.93-18,10.93-26.15,0-5.38-1.78-9.63-5.33-12.75-3.56-3.12-8.98-4.68-16.26-4.68H2.34c-.52-7.81-.13-15.83,1.17-24.07,1.3-8.24,3.16-15.22,5.6-20.95h135.58c6.77,23.94,10.15,49.53,10.15,76.77,0,15.09-1.17,30.23-3.51,45.41-2.34,15.18-5.68,28.33-10.02,39.43h-4.68Z" fill="#fff"/><path d="M158.22,113.72c5.2-10.93,9.06-21.77,11.58-32.53,2.51-10.75,3.77-23.25,3.77-37.47h39.82c1.73,3.47,2.69,6.25,2.86,8.33-4.16,9.54-10.84,19.95-20.04,31.23-9.2,11.28-19,21.43-29.41,30.45h-8.59Z" fill="#fff"/><path d="M267.78,262.58c-.35-2.43-.52-5.33-.52-8.72s.17-6.03.52-7.94h54.65c.35,1.91.52,4.55.52,7.94s-.17,6.29-.52,8.72h-54.65Z" fill="#fff"/><path d="M226.41,228.23c-3.12-5.73-5.55-13.4-7.29-23.03-1.74-9.63-2.08-17.57-1.04-23.81,29.49,0,57.42-1.95,83.8-5.86,26.37-3.9,47.45-9.15,63.24-15.74-5.03-11.8-14.23-21.03-27.59-27.72-13.36-6.68-30.62-11.41-51.79-14.18-21.17-2.77-47.02-4.16-77.55-4.16-.7-7.98-.31-16.09,1.17-24.33,1.47-8.24,3.68-15.13,6.64-20.69h46.84c13.36,7.12,26.54,15.27,39.56,24.46,2.08-8.85,5.2-17,9.37-24.46h66.88c3.12,5.9,5.64,13.01,7.55,21.34,1.91,8.33,2.86,16.22,2.86,23.68h-42.42c-7.12,0-12.49.52-16.13,1.56,19.26,16.83,32.44,32.62,39.56,47.36.35,3.47.3,7.33-.13,11.58-.44,4.25-1.26,8.2-2.47,11.84-13.01,13.53-32.7,24.07-59.07,31.62-26.37,7.55-53.7,11.06-81.97,10.54Z" fill="#fff"/><path d="M394.26,113.72c5.2-10.93,9.06-21.77,11.58-32.53,2.51-10.75,3.77-23.25,3.77-37.47h39.82c1.73,3.47,2.69,6.25,2.86,8.33-4.16,9.54-10.84,19.95-20.04,31.23-9.2,11.28-19,21.43-29.41,30.45h-8.59Z" fill="#fff"/><path d="M532.44,266.74c-3.47,0-6.42-1.17-8.85-3.51-2.43-2.34-3.64-5.25-3.64-8.72s1.21-6.42,3.64-8.85c2.43-2.43,5.38-3.64,8.85-3.64s6.38,1.21,8.72,3.64c2.34,2.43,3.51,5.38,3.51,8.85s-1.17,6.38-3.51,8.72c-2.34,2.34-5.25,3.51-8.72,3.51ZM532.44,302.39c-3.47,0-6.42-1.17-8.85-3.51-2.43-2.34-3.64-5.25-3.64-8.72s1.21-6.42,3.64-8.85c2.43-2.43,5.38-3.64,8.85-3.64s6.38,1.21,8.72,3.64c2.34,2.43,3.51,5.38,3.51,8.85s-1.17,6.38-3.51,8.72-5.25,3.51-8.72,3.51Z" fill="#fff"/><path d="M462.96,227.71c-2.6-5.2-4.64-12.49-6.12-21.86-1.48-9.37-1.87-17.52-1.17-24.46,25.67,0,50.4-1.65,74.17-4.94,23.77-3.29,41.29-7.63,52.57-13.01,8.33-3.81,14.7-8.54,19.13-14.18,4.42-5.64,6.64-11.23,6.64-16.79s-2.21-10.06-6.64-13.53c-4.42-3.47-10.8-5.2-19.13-5.2h-138.19c-.35-7.81.04-15.83,1.17-24.07,1.13-8.24,2.82-15.22,5.07-20.95h152.5c3.29,9.37,5.73,18.44,7.29,27.19,1.56,8.76,2.34,17.05,2.34,24.85,0,23.42-6.47,43.16-19.39,59.2-12.93,16.05-30.62,28.02-53.09,35.91-22.47,7.9-48.19,11.84-77.16,11.84Z" fill="#fff"/><path d="M741.41,227.71c-30.71-6.07-55.08-18.35-73.13-36.82-18.05-18.48-27.06-41.85-27.06-70.13,0-3.12.08-5.46.26-7.03h-23.94c-.52-7.81-.13-15.83,1.17-24.07,1.3-8.24,3.16-15.22,5.6-20.95h109.56c2.95-12.14,7.98-22.86,15.09-32.14,7.11-9.28,15.87-16.44,26.28-21.47,3.99,3.47,8.07,10.19,12.23,20.17,4.16,9.98,6.42,17.74,6.77,23.29-9.72-1.39-19-1.13-27.85.78-8.85,1.91-16.05,5.21-21.6,9.89,9.02.7,17.18,2.04,24.46,4.03,7.29,2,13.53,4.64,18.74,7.94,6.94,4.51,12.1,9.93,15.48,16.27,3.38,6.33,5.07,13.32,5.07,20.95l-2.6,3.38c-4.16-2.43-12.28-4.38-24.33-5.86-12.06-1.47-25.98-2.21-41.77-2.21h-69.74c-8.16,0-14.4,1.74-18.74,5.2-4.34,3.47-6.51,7.98-6.51,13.53,0,8.85,5.68,16.7,17.05,23.55,11.36,6.86,25.15,12.41,41.38,16.66,16.22,4.25,31.88,7.16,46.97,8.72.52,7.64,0,15.66-1.56,24.07-1.56,8.42-3.99,15.83-7.29,22.25Z" fill="#fff"/><path d="M997.49,227.71c-30.71-6.07-55.08-18.35-73.13-36.82-18.05-18.48-27.06-41.85-27.06-70.13,0-3.12.09-5.46.26-7.03h-33.31c-.52-7.81-.13-15.83,1.17-24.07,1.3-8.24,3.16-15.22,5.6-20.95h396.08c2.77-12.66,7.76-23.9,14.96-33.7,7.2-9.8,16.26-17.31,27.2-22.51,3.99,3.47,8.07,10.19,12.23,20.17,4.16,9.98,6.42,17.74,6.77,23.29-10.58-1.56-20.52-1.13-29.8,1.3-9.28,2.43-16.62,6.42-21.99,11.97,9.71.35,18.3,1.35,25.76,2.99,7.46,1.65,13.96,3.95,19.52,6.9,8.5,4.34,14.79,9.89,18.87,16.66,4.07,6.77,6.12,14.31,6.12,22.64l-2.6,3.38c-4.16-2.43-12.28-4.38-24.33-5.86-12.06-1.47-25.98-2.21-41.77-2.21h-351.84c-8.16,0-14.4,1.74-18.74,5.2-4.34,3.47-6.51,7.98-6.51,13.53,0,8.85,5.68,16.7,17.05,23.55,11.36,6.86,25.15,12.41,41.38,16.66,16.22,4.25,31.88,7.16,46.97,8.72.52,7.64,0,15.66-1.56,24.07-1.56,8.42-3.99,15.83-7.29,22.25Z" fill="#fff"/><path d="M1366.5,262.58c-.35-2.43-.52-5.33-.52-8.72s.17-6.03.52-7.94h54.65c.35,1.91.52,4.55.52,7.94s-.17,6.29-.52,8.72h-54.65Z" fill="#fff"/><path d="M1395.91,171.23c6.42-5.9,11.58-12.53,15.48-19.91,3.9-7.37,5.85-14.18,5.85-20.43,0-5.21-1.52-9.37-4.55-12.49-3.04-3.12-7.77-4.68-14.18-4.68h-48.14c-.52-7.81-.13-15.83,1.17-24.07,1.3-8.24,3.16-15.22,5.59-20.95h64.54c5.55,9.89,8.33,21.34,8.33,34.35s-2.95,26.41-8.85,39.17c-5.9,12.75-13.88,23.12-23.94,31.1l-1.3-2.08Z" fill="#fff"/><path d="M665.69,483.52c6.42-5.9,11.58-12.53,15.48-19.91,3.9-7.37,5.86-14.18,5.86-20.43,0-5.21-1.52-9.37-4.55-12.49-3.04-3.12-7.77-4.68-14.18-4.68h-48.14c-.52-7.81-.13-15.83,1.17-24.07,1.3-8.24,3.16-15.22,5.6-20.95h64.54c5.55,9.89,8.33,21.34,8.33,34.35s-2.95,26.41-8.85,39.17c-5.9,12.75-13.88,23.12-23.94,31.1l-1.3-2.08Z" fill="#fff"/><path d="M1125.79,579.03c-3.47,0-6.42-1.17-8.85-3.51-2.43-2.34-3.64-5.25-3.64-8.72s1.21-6.42,3.64-8.85c2.43-2.43,5.38-3.64,8.85-3.64s6.38,1.21,8.72,3.64c2.34,2.43,3.51,5.38,3.51,8.85s-1.17,6.38-3.51,8.72c-2.34,2.34-5.25,3.51-8.72,3.51Z" fill="#fff"/><path d="M1125,542.59c-5.03-6.59-9.76-14.31-14.18-23.16-4.42-8.85-7.77-17.44-10.02-25.76,11.1-6.77,20.3-14.79,27.59-24.07,7.29-9.28,10.93-18,10.93-26.15,0-5.38-1.78-9.63-5.33-12.75-3.56-3.12-8.98-4.68-16.26-4.68h-411.69c-.52-7.81-.13-15.83,1.17-24.07,1.3-8.24,3.16-15.22,5.6-20.95h420.28c6.77,23.94,10.15,49.54,10.15,76.77,0,15.09-1.17,30.23-3.51,45.41-2.34,15.18-5.68,28.33-10.02,39.43h-4.68Z" fill="#fff"/><path d="M1271.52,539.99c-30.71-6.07-55.08-18.35-73.13-36.82-18.04-18.48-27.06-41.85-27.06-70.13,0-3.12.09-5.46.26-7.03h-23.94c-.52-7.81-.13-15.83,1.17-24.07,1.3-8.24,3.16-15.22,5.59-20.95h109.56c2.95-12.14,7.98-22.86,15.09-32.14,7.11-9.28,15.87-16.44,26.28-21.47,3.99,3.47,8.07,10.19,12.23,20.17,4.16,9.98,6.42,17.74,6.77,23.29-9.72-1.39-19-1.13-27.85.78-8.85,1.91-16.05,5.21-21.6,9.89,9.02.7,17.18,2.04,24.46,4.03,7.29,2,13.53,4.64,18.74,7.94,6.94,4.51,12.1,9.93,15.48,16.27,3.38,6.33,5.08,13.32,5.08,20.95l-2.6,3.38c-4.16-2.43-12.28-4.38-24.33-5.86-12.06-1.47-25.98-2.21-41.77-2.21h-69.74c-8.16,0-14.4,1.74-18.74,5.21-4.34,3.47-6.51,7.98-6.51,13.53,0,8.85,5.68,16.7,17.05,23.55,11.36,6.86,25.15,12.41,41.38,16.66,16.22,4.25,31.88,7.16,46.97,8.72.52,7.64,0,15.66-1.56,24.07-1.56,8.42-3.99,15.83-7.29,22.25Z" fill="#fff"/><path d="M1341.26,426.01c5.21-10.93,9.06-21.77,11.58-32.53,2.51-10.75,3.77-23.25,3.77-37.47h39.82c1.73,3.47,2.69,6.25,2.86,8.33-4.16,9.54-10.84,19.95-20.04,31.23-9.2,11.28-19,21.43-29.41,30.45h-8.59Z" fill="#fff"/><path d="M1450.82,574.86c-.35-2.43-.52-5.33-.52-8.72s.17-6.03.52-7.94h54.65c.35,1.91.52,4.55.52,7.94s-.17,6.29-.52,8.72h-54.65Z" fill="#fff"/><path d="M1409.44,540.51c-3.12-5.72-5.55-13.4-7.29-23.03-1.74-9.63-2.08-17.57-1.04-23.81,29.49,0,57.42-1.95,83.8-5.86,26.37-3.9,47.45-9.15,63.24-15.75-5.03-11.8-14.23-21.03-27.58-27.71-13.36-6.68-30.62-11.41-51.79-14.18-21.17-2.77-47.02-4.16-77.55-4.16-.7-7.98-.3-16.09,1.17-24.33,1.47-8.24,3.68-15.13,6.64-20.69h46.84c13.36,7.12,26.54,15.27,39.56,24.46,2.08-8.85,5.21-17,9.37-24.46h66.88c3.12,5.9,5.64,13.01,7.55,21.34,1.91,8.33,2.86,16.22,2.86,23.68h-42.42c-7.12,0-12.49.52-16.13,1.56,19.26,16.83,32.44,32.62,39.56,47.36.35,3.47.3,7.33-.13,11.58-.43,4.25-1.26,8.2-2.47,11.84-13.01,13.53-32.71,24.07-59.07,31.62-26.37,7.55-53.7,11.06-81.97,10.54Z" fill="#fff"/><path d="M1577.3,426.01c5.21-10.93,9.06-21.77,11.58-32.53,2.51-10.75,3.77-23.25,3.77-37.47h39.82c1.73,3.47,2.69,6.25,2.86,8.33-4.16,9.54-10.84,19.95-20.04,31.23-9.2,11.28-19,21.43-29.41,30.45h-8.59Z" fill="#fff"/><path d="M1716,579.03c-3.47,0-6.42-1.17-8.85-3.51-2.43-2.34-3.64-5.25-3.64-8.72s1.21-6.42,3.64-8.85c2.43-2.43,5.38-3.64,8.85-3.64s6.38,1.21,8.72,3.64c2.34,2.43,3.51,5.38,3.51,8.85s-1.17,6.38-3.51,8.72c-2.34,2.34-5.25,3.51-8.72,3.51ZM1736.56,604.53c-3.47,0-6.42-1.17-8.85-3.51-2.43-2.34-3.64-5.25-3.64-8.72s1.21-6.42,3.64-8.85c2.43-2.43,5.38-3.64,8.85-3.64s6.38,1.21,8.72,3.64c2.34,2.43,3.51,5.38,3.51,8.85s-1.17,6.38-3.51,8.72c-2.34,2.34-5.25,3.51-8.72,3.51ZM1757.12,630.03c-3.47,0-6.42-1.17-8.85-3.51-2.43-2.34-3.64-5.25-3.64-8.72s1.21-6.42,3.64-8.85c2.43-2.43,5.38-3.64,8.85-3.64s6.38,1.21,8.72,3.64c2.34,2.43,3.51,5.38,3.51,8.85s-1.17,6.38-3.51,8.72c-2.34,2.34-5.25,3.51-8.72,3.51Z" fill="#fff"/><path d="M1646,539.99c-2.6-5.2-4.64-12.49-6.12-21.86-1.48-9.37-1.87-17.52-1.17-24.46,25.67,0,50.4-1.65,74.17-4.95,23.77-3.29,41.29-7.63,52.57-13.01,8.33-3.81,14.7-8.54,19.13-14.18,4.42-5.64,6.64-11.23,6.64-16.79s-2.21-10.06-6.64-13.53c-4.42-3.47-10.8-5.21-19.13-5.21h-138.19c-.35-7.81.04-15.83,1.17-24.07,1.13-8.24,2.82-15.22,5.07-20.95h152.5c3.29,9.37,5.72,18.44,7.29,27.2,1.56,8.76,2.34,17.05,2.34,24.85,0,23.42-6.47,43.16-19.39,59.2-12.93,16.05-30.62,28.02-53.09,35.91-22.47,7.9-48.19,11.84-77.16,11.84Z" fill="#fff"/></svg>