<?xml version="1.0" encoding="UTF-8"?><svg id="Layer_1" xmlns="http://www.w3.org/2000/svg" viewBox="0 0 1131.68 521.57"><path d="M284.8,130.34c-2.87,0-5.31-.97-7.32-2.91-2.01-1.94-3.02-4.34-3.02-7.22s1-5.31,3.02-7.32c2.01-2.01,4.45-3.02,7.32-3.02s5.28,1.01,7.22,3.02c1.94,2.01,2.91,4.45,2.91,7.32s-.97,5.1-2.91,7.11c-1.94,2.01-4.35,3.02-7.22,3.02Z" fill="#fff"/><path d="M335.43,190.66c-4.17-5.46-8.08-11.85-11.74-19.17-3.66-7.32-6.43-14.36-8.29-21.11,9.91-6.46,17.88-13.57,23.91-21.33s9.05-14.72,9.05-20.9c0-4.31-1.47-7.72-4.42-10.23-2.95-2.51-7.43-3.77-13.46-3.77h-140.03c-.43-6.46-.11-13.1.97-19.93,1.08-6.82,2.62-12.6,4.63-17.34h146.06c5.6,19.82,8.4,41.01,8.4,63.55,0,12.5-.97,25.03-2.91,37.59-1.94,12.57-4.71,23.45-8.29,32.64h-3.88ZM236.98,190.66c-6.18-6.75-10.41-14.83-12.71-24.24-2.3-9.41-2.66-19.17-1.08-29.3,1.58-10.13,4.81-19.64,9.69-28.54h2.37c0,10.2,2.15,18.92,6.46,26.18,4.31,7.25,10.56,12.39,18.74,15.4-1.87,7.61-4.74,15.12-8.62,22.51-3.88,7.4-8.12,13.39-12.71,17.99h-2.15Z" fill="#fff"/><path d="M394.67,217.37c-.29-2.01-.43-4.42-.43-7.22s.14-4.99.43-6.57h45.24c.29,1.58.43,3.77.43,6.57s-.15,5.2-.43,7.22h-45.24Z" fill="#fff"/><path d="M416.43,129.91c-2.87,0-5.31-.97-7.32-2.91-2.01-1.94-3.02-4.34-3.02-7.22s1-5.31,3.02-7.32c2.01-2.01,4.45-3.02,7.32-3.02s5.28,1.01,7.22,3.02c1.94,2.01,2.91,4.45,2.91,7.32s-.97,5.1-2.91,7.11c-1.94,2.01-4.35,3.02-7.22,3.02Z" fill="#fff"/><path d="M415.79,188.5c-2.44-4.74-4.56-11.02-6.36-18.85-1.8-7.83-2.69-14.33-2.69-19.5,11.06-1.87,23.19-4.88,36.41-9.05,13.21-4.16,24.34-8.97,33.39-14.43,5.74-3.45,10.23-7.04,13.46-10.77,3.23-3.73,4.85-7.54,4.85-11.42,0-3.02-.94-5.49-2.8-7.43-1.87-1.94-4.6-2.91-8.19-2.91h-128.4c-.72-8.9-1.08-16.44-1.08-22.62,0-15.65,2.91-29.41,8.73-41.26s14.4-20.57,25.74-26.18c3.3,2.87,6.68,8.44,10.13,16.7,3.45,8.26,5.31,14.69,5.6,19.28-10.49-1.43-20.18-.68-29.08,2.26-8.91,2.95-15.01,7.79-18.31,14.54h131.42c6.03,14.94,9.05,29.88,9.05,44.81,0,12.21-3.41,24.24-10.23,36.09-6.82,11.85-16.45,22.3-28.87,31.35-12.42,9.05-26.68,15.51-42.76,19.39Z" fill="#fff"/><path d="M562.93,188.5c-2.44-4.74-4.56-11.02-6.36-18.85-1.8-7.83-2.69-14.33-2.69-19.5,11.06-1.87,23.19-4.88,36.41-9.05,13.21-4.16,24.34-8.97,33.39-14.43,5.74-3.45,10.23-7.04,13.46-10.77,3.23-3.73,4.85-7.54,4.85-11.42,0-3.02-.94-5.49-2.8-7.43-1.87-1.94-4.6-2.91-8.19-2.91h-128.4c-.72-8.9-1.08-16.44-1.08-22.62,0-15.65,2.91-29.41,8.73-41.26s14.4-20.57,25.74-26.18c3.3,2.87,6.68,8.44,10.13,16.7,3.45,8.26,5.31,14.69,5.6,19.28-10.49-1.43-20.18-.68-29.08,2.26-8.91,2.95-15.01,7.79-18.31,14.54h131.42c6.03,14.94,9.05,29.88,9.05,44.81,0,12.21-3.41,24.24-10.23,36.09-6.82,11.85-16.45,22.3-28.87,31.35-12.43,9.05-26.68,15.51-42.76,19.39Z" fill="#fff"/><path d="M714.38,217.37c-.29-2.01-.43-4.42-.43-7.22s.14-4.99.43-6.57h45.24c.29,1.58.43,3.77.43,6.57s-.14,5.2-.43,7.22h-45.24Z" fill="#fff"/><path d="M751,188.5c-25.42-5.03-45.6-15.19-60.54-30.48-14.94-15.3-22.4-34.65-22.4-58.06,0-2.59.07-4.52.21-5.82h-19.82c-.43-6.46-.11-13.1.97-19.93,1.08-6.82,2.62-12.6,4.63-17.34h90.7c2.44-10.05,6.6-18.92,12.5-26.61,5.89-7.68,13.14-13.61,21.76-17.77,3.3,2.87,6.68,8.44,10.13,16.7,3.45,8.26,5.31,14.69,5.6,19.28-8.04-1.15-15.73-.93-23.05.65-7.33,1.58-13.29,4.31-17.88,8.19,7.47.58,14.22,1.69,20.25,3.34,6.03,1.65,11.2,3.84,15.51,6.57,5.74,3.74,10.02,8.22,12.82,13.46,2.8,5.24,4.2,11.02,4.2,17.34l-2.15,2.8c-3.45-2.01-10.16-3.62-20.14-4.85-9.98-1.22-21.51-1.83-34.58-1.83h-57.74c-6.75,0-11.92,1.44-15.51,4.31-3.59,2.87-5.39,6.61-5.39,11.2,0,7.32,4.7,13.82,14.11,19.5,9.4,5.68,20.82,10.27,34.25,13.79,13.43,3.52,26.39,5.92,38.89,7.22.43,6.32,0,12.96-1.29,19.93-1.29,6.97-3.3,13.11-6.03,18.42Z" fill="#fff"/><path d="M811.54,138.74c-1.15-7.04-1.72-13.17-1.72-18.42s.65-11.09,1.94-17.56h83.8c1.15,6.89,1.72,12.96,1.72,18.2s-.65,11.17-1.94,17.77h-83.8Z" fill="#fff"/><path d="M1003.92,188.5c-25.42-5.03-45.6-15.19-60.54-30.48-14.94-15.3-22.4-34.65-22.4-58.06,0-2.59.07-4.52.21-5.82h-19.82c-.43-6.46-.11-13.1.97-19.93,1.08-6.82,2.62-12.6,4.63-17.34h90.7c2.44-10.05,6.6-18.92,12.5-26.61,5.89-7.68,13.14-13.61,21.76-17.77,3.3,2.87,6.68,8.44,10.13,16.7,3.45,8.26,5.31,14.69,5.6,19.28-8.04-1.15-15.73-.93-23.05.65-7.33,1.58-13.29,4.31-17.88,8.19,7.47.58,14.22,1.69,20.25,3.34,6.03,1.65,11.2,3.84,15.51,6.57,5.74,3.74,10.02,8.22,12.82,13.46,2.8,5.24,4.2,11.02,4.2,17.34l-2.15,2.8c-3.45-2.01-10.16-3.62-20.14-4.85-9.98-1.22-21.51-1.83-34.58-1.83h-57.74c-6.75,0-11.92,1.44-15.51,4.31-3.59,2.87-5.39,6.61-5.39,11.2,0,7.32,4.7,13.82,14.11,19.5,9.4,5.68,20.82,10.27,34.25,13.79,13.43,3.52,26.39,5.92,38.89,7.22.43,6.32,0,12.96-1.29,19.93-1.29,6.97-3.3,13.11-6.03,18.42Z" fill="#fff"/><path d="M1075.88,217.37c-.29-2.01-.43-4.42-.43-7.22s.14-4.99.43-6.57h45.24c.29,1.58.43,3.77.43,6.57s-.14,5.2-.43,7.22h-45.24Z" fill="#fff"/><path d="M1100.22,141.75c5.31-4.88,9.59-10.37,12.82-16.48,3.23-6.1,4.85-11.74,4.85-16.91,0-4.31-1.26-7.76-3.77-10.34-2.51-2.59-6.43-3.88-11.74-3.88h-39.86c-.43-6.46-.11-13.1.97-19.93,1.08-6.82,2.62-12.6,4.63-17.34h53.43c4.59,8.19,6.89,17.67,6.89,28.44s-2.44,21.87-7.33,32.42c-4.88,10.56-11.49,19.14-19.82,25.74l-1.08-1.72Z" fill="#fff"/><path d="M50.84,388.86c-2.87,0-5.31-.97-7.32-2.91-2.01-1.94-3.02-4.34-3.02-7.22s1-5.31,3.02-7.32c2.01-2.01,4.45-3.02,7.32-3.02s5.28,1.01,7.22,3.02c1.94,2.01,2.91,4.45,2.91,7.32s-.97,5.1-2.91,7.11c-1.94,2.01-4.35,3.02-7.22,3.02Z" fill="#fff"/><path d="M87.68,487.96c-3.31-7.04-5.71-13.75-7.22-20.14-1.51-6.39-2.26-12.6-2.26-18.63,0-8.62,1.26-16.51,3.77-23.7,2.51-7.18,6.28-15.87,11.31-26.07,2.01-4.31,4.06-8.72,6.14-13.25,2.08-4.52,3.62-8.72,4.63-12.6,2.15-7.61,1.58-13-1.72-16.16-3.31-3.16-8.48-4.74-15.51-4.74H1.72c-.29-6.46.14-13.1,1.29-19.93,1.15-6.82,2.8-12.6,4.96-17.34h91.56c2.15,4.45,3.88,10.09,5.17,16.91,1.29,6.82,1.94,13.61,1.94,20.36s-.07,12.28-.22,16.16c-.14,21.83.11,39.46.75,52.89.65,13.43,2.55,23.09,5.71,28.98-2.01,6.17-4.96,12.67-8.83,19.5-3.88,6.82-7.97,12.74-12.28,17.77h-4.09Z" fill="#fff"/><path d="M351.8,475.89c-.29-2.01-.43-4.42-.43-7.22s.14-4.99.43-6.57h45.24c.29,1.58.43,3.77.43,6.57s-.15,5.2-.43,7.22h-45.24Z" fill="#fff"/><path d="M225.34,447.03c-25.42-5.03-45.6-15.19-60.54-30.48-14.94-15.3-22.41-34.65-22.41-58.06,0-2.58.07-4.52.22-5.82h-29.95c-.43-6.46-.11-13.1.97-19.93,1.08-6.82,2.62-12.6,4.63-17.34h404.8c2.01-10.63,6.03-20.11,12.06-28.44,6.03-8.33,13.57-14.65,22.62-18.96,3.3,2.88,6.68,8.44,10.13,16.7,3.45,8.26,5.31,14.69,5.6,19.28-8.91-1.15-17.31-.72-25.21,1.29-7.9,2.01-14,5.53-18.31,10.56,8.19.15,15.44.86,21.76,2.15,6.32,1.29,11.77,3.16,16.37,5.6,7.32,3.59,12.78,8.22,16.37,13.9,3.59,5.68,5.39,12.03,5.39,19.07l-2.15,2.8c-3.45-2.01-10.16-3.63-20.14-4.85-9.98-1.22-21.51-1.83-34.58-1.83H166.32c-6.75,0-11.92,1.44-15.51,4.31-3.59,2.88-5.39,6.61-5.39,11.2,0,7.32,4.7,13.82,14.11,19.5,9.41,5.68,20.82,10.27,34.25,13.79,13.43,3.52,26.39,5.92,38.89,7.22.43,6.32,0,12.96-1.29,19.93-1.29,6.97-3.31,13.11-6.03,18.42Z" fill="#fff"/><path d="M592.01,352.67c4.31-9.05,7.5-18.02,9.59-26.93,2.08-8.9,3.12-19.24,3.12-31.02h32.96c1.43,2.88,2.23,5.17,2.37,6.89-3.45,7.9-8.98,16.52-16.59,25.85-7.61,9.34-15.73,17.74-24.34,25.21h-7.11Z" fill="#fff"/><path d="M682.71,475.89c-.29-2.01-.43-4.42-.43-7.22s.14-4.99.43-6.57h45.24c.29,1.58.43,3.77.43,6.57s-.14,5.2-.43,7.22h-45.24Z" fill="#fff"/><path d="M648.46,447.46c-2.58-4.74-4.6-11.09-6.03-19.07-1.44-7.97-1.72-14.54-.86-19.71,24.42,0,47.54-1.62,69.37-4.85,21.83-3.23,39.28-7.57,52.35-13.03-4.17-9.77-11.78-17.41-22.84-22.94-11.06-5.53-25.35-9.44-42.87-11.74-17.52-2.3-38.92-3.45-64.2-3.45-.58-6.6-.25-13.32.97-20.14,1.22-6.82,3.05-12.53,5.49-17.13h38.78c11.06,5.89,21.97,12.64,32.75,20.25,1.72-7.32,4.31-14.07,7.75-20.25h55.37c2.58,4.88,4.67,10.77,6.25,17.67,1.58,6.89,2.37,13.43,2.37,19.6h-35.12c-5.89,0-10.34.43-13.36,1.29,15.94,13.93,26.86,27,32.75,39.21.29,2.87.25,6.07-.11,9.59-.36,3.52-1.04,6.79-2.05,9.8-10.77,11.2-27.07,19.93-48.9,26.18-21.83,6.25-44.45,9.16-67.86,8.72Z" fill="#fff"/><path d="M877.47,475.89c-.29-2.01-.43-4.42-.43-7.22s.14-4.99.43-6.57h45.24c.29,1.58.43,3.77.43,6.57s-.14,5.2-.43,7.22h-45.24Z" fill="#fff"/><path d="M899.44,449.18c-4.17-5.46-8.08-11.85-11.74-19.17-3.66-7.32-6.43-14.43-8.29-21.33,9.19-5.6,16.8-12.24,22.84-19.93,6.03-7.68,9.05-14.9,9.05-21.65,0-4.45-1.47-7.97-4.42-10.56-2.95-2.58-7.43-3.88-13.46-3.88h-105.13c-.43-6.46-.11-13.1.97-19.93,1.08-6.82,2.62-12.6,4.63-17.34h112.24c5.6,19.82,8.4,41.01,8.4,63.55,0,12.5-.97,25.03-2.91,37.59-1.94,12.57-4.71,23.45-8.29,32.64h-3.88Z" fill="#fff"/></svg>