<?xml version="1.0" encoding="UTF-8"?><svg id="Layer_1" xmlns="http://www.w3.org/2000/svg" viewBox="0 0 873.02 578.39"><path d="M207.48,283.94c-2.18,0-4.03-.74-5.56-2.21-1.53-1.47-2.29-3.29-2.29-5.48s.76-4.03,2.29-5.56c1.53-1.52,3.38-2.29,5.56-2.29s4.01.76,5.48,2.29c1.47,1.53,2.21,3.38,2.21,5.56s-.74,3.87-2.21,5.4c-1.47,1.53-3.3,2.29-5.48,2.29Z" fill="#fff"/><path d="M235.43,359.15c-2.51-5.34-4.33-10.44-5.48-15.29-1.14-4.85-1.72-9.56-1.72-14.14,0-6.54.95-12.53,2.86-17.98,1.91-5.45,4.77-12.04,8.58-19.78,1.52-3.27,3.08-6.62,4.66-10.05,1.58-3.43,2.75-6.62,3.52-9.56,1.63-5.78,1.2-9.86-1.31-12.26-2.51-2.4-6.43-3.6-11.77-3.6h-64.58c-.22-4.9.11-9.94.98-15.12.87-5.18,2.13-9.56,3.76-13.16h69.48c1.63,3.38,2.94,7.66,3.92,12.83.98,5.18,1.47,10.33,1.47,15.45s-.06,9.32-.16,12.26c-.11,16.57.08,29.95.57,40.14.49,10.19,1.93,17.52,4.33,21.99-1.53,4.68-3.76,9.62-6.7,14.79-2.94,5.18-6.05,9.67-9.32,13.49h-3.11Z" fill="#fff"/><path d="M363.6,352.61c-2.18,0-4.03-.74-5.56-2.21-1.53-1.47-2.29-3.3-2.29-5.48s.76-4.03,2.29-5.56c1.53-1.53,3.38-2.29,5.56-2.29s4.01.76,5.48,2.29c1.47,1.53,2.21,3.38,2.21,5.56s-.74,4.01-2.21,5.48c-1.47,1.47-3.3,2.21-5.48,2.21Z" fill="#fff"/><path d="M372.59,284.76c-2.18,0-4.03-.74-5.56-2.21-1.53-1.47-2.29-3.29-2.29-5.48s.76-4.03,2.29-5.56c1.53-1.52,3.38-2.29,5.56-2.29s4.01.76,5.48,2.29c1.47,1.53,2.21,3.38,2.21,5.56s-.74,3.87-2.21,5.4c-1.47,1.53-3.3,2.29-5.48,2.29Z" fill="#fff"/><path d="M449.43,329.72c-3.16-4.14-6.13-8.99-8.91-14.55-2.78-5.56-4.88-10.95-6.29-16.19,6.54-3.92,12.26-8.8,17.17-14.63,4.91-5.83,7.36-11.53,7.36-17.08,0-3.27-1.23-5.89-3.68-7.85s-5.7-2.94-9.73-2.94h-151.22c2.72,8.94,4.09,17.6,4.09,25.99,0,12.97-3.16,23.68-9.48,32.12-6.32,8.45-14.93,13.21-25.83,14.3-1.85-3.81-3.13-8.39-3.84-13.73-.71-5.34-.79-10.73-.25-16.19,6.87,0,12.83-1.69,17.9-5.07,5.07-3.38,8.94-7.55,11.61-12.51,2.67-4.96,4.01-9.78,4.01-14.47s-.49-7.95-1.47-10.46h-36.46c-.33-4.9-.08-9.94.74-15.12.82-5.18,1.99-9.56,3.52-13.16h195.85c4.25,15.04,6.38,31.12,6.38,48.23,0,9.48-.74,18.99-2.21,28.53-1.47,9.54-3.57,17.79-6.29,24.77h-2.94Z" fill="#fff"/><path d="M510.74,328.09c-1.85-3.6-3.46-8.36-4.82-14.3-1.36-5.94-2.04-10.87-2.04-14.8,8.39-1.42,17.6-3.7,27.63-6.87,10.03-3.16,18.47-6.81,25.34-10.95,4.36-2.62,7.77-5.34,10.22-8.17,2.45-2.83,3.68-5.72,3.68-8.67,0-2.29-.71-4.17-2.13-5.64-1.42-1.47-3.49-2.21-6.21-2.21h-97.44c-.55-6.76-.82-12.48-.82-17.17,0-11.88,2.21-22.32,6.62-31.31s10.93-15.61,19.54-19.86c2.51,2.18,5.07,6.4,7.68,12.67,2.62,6.27,4.03,11.15,4.25,14.63-7.96-1.09-15.31-.52-22.07,1.72-6.76,2.24-11.39,5.91-13.9,11.04h99.73c4.58,11.34,6.87,22.67,6.87,34,0,9.26-2.59,18.39-7.77,27.38-5.18,8.99-12.48,16.92-21.91,23.79-9.43,6.87-20.25,11.77-32.45,14.71Z" fill="#fff"/><path d="M642.84,352.61c-2.18,0-4.03-.74-5.56-2.21-1.53-1.47-2.29-3.3-2.29-5.48s.76-4.03,2.29-5.56c1.53-1.53,3.38-2.29,5.56-2.29s4.01.76,5.48,2.29c1.47,1.53,2.21,3.38,2.21,5.56s-.74,4.01-2.21,5.48c-1.47,1.47-3.3,2.21-5.48,2.21Z" fill="#fff"/><path d="M653.46,328.09c-19.29-3.81-34.6-11.53-45.94-23.13-11.34-11.61-17-26.29-17-44.06,0-1.96.05-3.43.16-4.41h-15.04c-.33-4.9-.08-9.94.74-15.12.82-5.18,1.99-9.56,3.51-13.16h68.83c1.85-7.63,5.01-14.36,9.48-20.19,4.47-5.83,9.97-10.33,16.51-13.49,2.51,2.18,5.07,6.4,7.68,12.67,2.62,6.27,4.03,11.15,4.25,14.63-6.1-.87-11.93-.71-17.49.49-5.56,1.2-10.08,3.27-13.57,6.21,5.67.44,10.79,1.28,15.37,2.53,4.58,1.25,8.5,2.92,11.77,4.99,4.36,2.84,7.6,6.24,9.73,10.22,2.13,3.98,3.19,8.37,3.19,13.16l-1.63,2.12c-2.62-1.52-7.71-2.75-15.29-3.68-7.58-.92-16.32-1.39-26.24-1.39h-43.81c-5.12,0-9.05,1.09-11.77,3.27-2.73,2.18-4.09,5.01-4.09,8.5,0,5.56,3.57,10.49,10.71,14.8,7.14,4.31,15.8,7.79,25.99,10.46,10.19,2.67,20.03,4.5,29.51,5.48.33,4.8,0,9.84-.98,15.12-.98,5.29-2.51,9.95-4.58,13.98Z" fill="#fff"/><path d="M783.11,352.61c-2.18,0-4.03-.74-5.56-2.21-1.53-1.47-2.29-3.3-2.29-5.48s.76-4.03,2.29-5.56c1.53-1.53,3.38-2.29,5.56-2.29s4.01.76,5.48,2.29c1.47,1.53,2.21,3.38,2.21,5.56s-.74,4.01-2.21,5.48c-1.47,1.47-3.3,2.21-5.48,2.21Z" fill="#fff"/><path d="M720,217.08c-2.18,0-4.03-.74-5.56-2.21-1.53-1.47-2.29-3.3-2.29-5.48s.76-4.03,2.29-5.56c1.52-1.52,3.38-2.29,5.56-2.29s4.01.76,5.48,2.29c1.47,1.53,2.21,3.38,2.21,5.56s-.74,3.87-2.21,5.4c-1.47,1.53-3.3,2.29-5.48,2.29Z" fill="#fff"/><path d="M751.72,329.72c-2.62-15.8-5.15-28.09-7.6-36.87-2.45-8.77-5.8-15.99-10.05-21.66-3.71-4.9-8.53-8.58-14.47-11.04-5.94-2.45-13.16-3.68-21.66-3.68-.33-5.34-.08-10.65.74-15.94.82-5.29,2.04-9.62,3.68-13,8.28,0,15.8,1.83,22.56,5.48,6.76,3.65,11.61,8.48,14.55,14.47h.49c2.94-5.99,7.85-10.82,14.71-14.47,6.87-3.65,14.55-5.48,23.05-5.48,1.85,3.38,3.35,7.77,4.5,13.16s1.72,10.6,1.72,15.61c-12.54,0-22.64,1.85-30.33,5.56-7.68,3.71-11.53,8.99-11.53,15.86,0,6.43,2.78,13.84,8.34,22.23,15.91,0,30.43-1.39,43.57-4.17,13.13-2.78,23.54-6.84,31.23-12.18,7.68-5.34,11.53-11.66,11.53-18.96,0-2.51-.79-4.5-2.37-5.97-1.58-1.47-3.68-2.21-6.29-2.21h-40.38c-.44-4.79-.25-9.78.57-14.96.82-5.18,2.04-9.62,3.68-13.32h40.05c4.68,11.01,7.03,21.74,7.03,32.21s-2.23,20.3-6.7,30.16c-4.47,9.87-11.12,19.37-19.95,28.53-7.09,3.16-16.19,5.72-27.3,7.68-11.12,1.96-22.23,2.94-33.35,2.94Z" fill="#fff"/><path d="M126.43,98.91c-2.18,0-4.03-.74-5.56-2.21-1.53-1.47-2.29-3.29-2.29-5.48s.76-4.03,2.29-5.56c1.53-1.52,3.38-2.29,5.56-2.29s4.01.76,5.48,2.29c1.47,1.53,2.21,3.38,2.21,5.56s-.74,3.87-2.21,5.4c-1.47,1.53-3.3,2.29-5.48,2.29Z" fill="#fff"/><path d="M164.85,144.68c-3.16-4.14-6.13-8.99-8.91-14.55-2.78-5.56-4.88-10.9-6.29-16.02,7.52-4.9,13.57-10.3,18.15-16.19,4.58-5.89,6.87-11.17,6.87-15.86,0-3.27-1.12-5.86-3.35-7.77-2.24-1.91-5.64-2.86-10.22-2.86H54.83c-.33-4.9-.08-9.94.74-15.12.82-5.18,1.99-9.56,3.52-13.16h110.84c4.25,15.04,6.38,31.12,6.38,48.23,0,9.48-.74,18.99-2.21,28.53-1.47,9.54-3.57,17.79-6.29,24.77h-2.94ZM90.14,144.68c-4.69-5.12-7.9-11.25-9.65-18.39-1.74-7.14-2.02-14.55-.82-22.23,1.2-7.68,3.65-14.9,7.36-21.66h1.8c0,7.74,1.64,14.36,4.9,19.86,3.27,5.5,8.01,9.4,14.22,11.69-1.42,5.78-3.6,11.47-6.54,17.08-2.94,5.61-6.16,10.16-9.65,13.65h-1.63Z" fill="#fff"/><path d="M178.42,71.44c3.27-6.87,5.69-13.68,7.27-20.44,1.58-6.76,2.37-14.6,2.37-23.54h25.01c1.09,2.18,1.69,3.92,1.8,5.23-2.62,6-6.81,12.53-12.59,19.62-5.78,7.09-11.93,13.46-18.47,19.13h-5.4Z" fill="#fff"/><path d="M225.34,164.96c-.22-1.53-.33-3.35-.33-5.48s.11-3.79.33-4.99h34.33c.22,1.2.33,2.86.33,4.99s-.11,3.95-.33,5.48h-34.33Z" fill="#fff"/><path d="M235.31,97.11c-2.18,0-4.03-.74-5.56-2.21-1.53-1.47-2.29-3.29-2.29-5.48s.76-4.03,2.29-5.56c1.53-1.52,3.38-2.29,5.56-2.29s4.01.76,5.48,2.29c1.47,1.53,2.21,3.38,2.21,5.56s-.74,3.87-2.21,5.4c-1.47,1.53-3.3,2.29-5.48,2.29Z" fill="#fff"/><path d="M217.98,144.52c-1.96-3.92-3.33-8.69-4.09-14.3-.76-5.61-.76-11.04,0-16.27,6.97-.54,14.28-2.51,21.91-5.89,7.63-3.38,13.98-7.36,19.05-11.93,5.07-4.58,7.6-8.94,7.6-13.08,0-3.6-1.06-6.43-3.19-8.5-2.13-2.07-5.59-3.11-10.38-3.11h-39.07c-.33-4.9-.08-9.94.74-15.12.82-5.18,1.99-9.56,3.52-13.16h49.54c3.05,4.25,4.58,10.41,4.58,18.47,0,8.61-1.85,18.47-5.56,29.59.11,3.92,1.03,7.79,2.78,11.61,1.74,3.82,4.25,7.52,7.52,11.12,0,5.89-.3,11.53-.9,16.92-.6,5.4-1.34,9.56-2.21,12.51h-4.58c-3.82-3.05-7.3-6.78-10.46-11.2-3.16-4.41-5.4-8.69-6.7-12.83h-.82c-3.38,6.21-7.5,11.64-12.34,16.27-4.85,4.63-9.51,7.6-13.98,8.91h-2.94Z" fill="#fff"/><path d="M341.25,167.57c-2.18,0-4.03-.74-5.56-2.21-1.53-1.47-2.29-3.3-2.29-5.48s.76-4.03,2.29-5.56c1.53-1.53,3.38-2.29,5.56-2.29s4.01.76,5.48,2.29c1.47,1.53,2.21,3.38,2.21,5.56s-.74,4.01-2.21,5.48c-1.47,1.47-3.3,2.21-5.48,2.21Z" fill="#fff"/><path d="M298.58,144.68c-2.73-6.97-4.82-15.23-6.29-24.77-1.47-9.54-2.21-19.05-2.21-28.53,0-6.76.33-13.41.98-19.95h-19.45c-.33-4.9-.08-9.94.74-15.12.82-5.18,1.99-9.56,3.52-13.16h111.01c4.25,15.04,6.38,31.12,6.38,48.23,0,9.48-.74,18.99-2.21,28.53-1.47,9.54-3.57,17.79-6.29,24.77h-2.94c-3.16-4.14-6.13-8.99-8.91-14.55-2.78-5.56-4.88-10.95-6.29-16.19,7.3-3.6,13.3-8.31,17.98-14.14,4.68-5.83,7.03-11.42,7.03-16.76,0-3.49-1.12-6.29-3.35-8.42-2.24-2.13-5.64-3.19-10.22-3.19h-72.75c-4.58,0-7.96,1.04-10.14,3.11-2.18,2.07-3.27,4.9-3.27,8.5,0,5.45,2.37,11.12,7.11,17,4.74,5.89,10.65,10.52,17.74,13.9-1.42,5.23-3.51,10.63-6.29,16.19-2.78,5.56-5.75,10.41-8.91,14.55h-2.94Z" fill="#fff"/><path d="M470.57,167.57c-2.18,0-4.03-.74-5.56-2.21-1.53-1.47-2.29-3.3-2.29-5.48s.76-4.03,2.29-5.56c1.53-1.53,3.38-2.29,5.56-2.29s4.01.76,5.48,2.29c1.47,1.53,2.21,3.38,2.21,5.56s-.74,4.01-2.21,5.48c-1.47,1.47-3.3,2.21-5.48,2.21Z" fill="#fff"/><path d="M410.9,143.05c-2.62-3.81-4.74-8.39-6.38-13.73-1.63-5.34-2.45-10.46-2.45-15.37,7.08,0,12.37-.05,15.86-.16-.65-16.02,2.56-30.14,9.65-42.34h-31.23c-.33-4.9-.08-9.94.74-15.12.82-5.18,1.99-9.56,3.52-13.16h34.5c1.63,2.18,3.21,6.54,4.74,13.08,5.34-4.79,11.22-8.47,17.66-11.04,6.43-2.56,12.97-3.84,19.62-3.84,8.83,0,17.27,2.29,25.34,6.87,8.06,4.58,14.6,11.47,19.62,20.68,5.01,9.21,7.52,20.52,7.52,33.92-2.29,6.32-9.48,12.62-21.58,18.88-12.1,6.27-26.92,11.39-44.47,15.37-17.55,3.98-35.1,5.97-52.64,5.97ZM419.4,113.46c26.05-.87,48.96-2.86,68.75-5.97,19.78-3.11,32.83-6.56,39.15-10.38,0-5.89-2.12-10.87-6.38-14.96-4.25-4.09-9.78-7.14-16.59-9.16-6.81-2.02-14.03-3.02-21.66-3.02-9.27,0-18.39,1.61-27.38,4.82-8.99,3.22-16.73,8.09-23.21,14.63-6.49,6.54-10.71,14.55-12.67,24.03Z" fill="#fff"/><path d="M635.85,143.05c-19.29-3.81-34.6-11.53-45.94-23.13-11.34-11.61-17-26.29-17-44.06,0-1.96.05-3.43.16-4.41h-15.04c-.33-4.9-.08-9.94.74-15.12.82-5.18,1.99-9.56,3.51-13.16h68.83c1.85-7.63,5.01-14.36,9.48-20.19,4.47-5.83,9.97-10.33,16.51-13.49,2.51,2.18,5.07,6.4,7.68,12.67,2.62,6.27,4.03,11.15,4.25,14.63-6.1-.87-11.93-.71-17.49.49-5.56,1.2-10.08,3.27-13.57,6.21,5.67.44,10.79,1.28,15.37,2.53,4.58,1.25,8.5,2.92,11.77,4.99,4.36,2.84,7.6,6.24,9.73,10.22,2.13,3.98,3.19,8.37,3.19,13.16l-1.63,2.12c-2.62-1.52-7.71-2.75-15.29-3.68-7.58-.92-16.32-1.39-26.24-1.39h-43.81c-5.12,0-9.05,1.09-11.77,3.27-2.73,2.18-4.09,5.01-4.09,8.5,0,5.56,3.57,10.49,10.71,14.8,7.14,4.31,15.8,7.79,25.99,10.46,10.19,2.67,20.03,4.5,29.51,5.48.33,4.8,0,9.84-.98,15.12-.98,5.29-2.51,9.95-4.58,13.98Z" fill="#fff"/><path d="M690.46,164.96c-.22-1.53-.33-3.35-.33-5.48s.11-3.79.33-4.99h34.33c.22,1.2.33,2.86.33,4.99s-.11,3.95-.33,5.48h-34.33Z" fill="#fff"/><path d="M708.93,107.57c4.03-3.7,7.28-7.87,9.73-12.51,2.45-4.63,3.68-8.91,3.68-12.83,0-3.27-.96-5.89-2.86-7.85-1.91-1.96-4.88-2.94-8.91-2.94h-30.24c-.33-4.9-.08-9.94.74-15.12.82-5.18,1.99-9.56,3.51-13.16h40.54c3.49,6.21,5.23,13.41,5.23,21.58s-1.85,16.59-5.56,24.6c-3.71,8.01-8.72,14.52-15.04,19.54l-.82-1.31Z" fill="#fff"/><path d="M95.47,486.35c4.03-3.7,7.28-7.87,9.73-12.51,2.45-4.63,3.68-8.91,3.68-12.83,0-3.27-.96-5.89-2.86-7.85-1.91-1.96-4.88-2.94-8.91-2.94h-30.25c-.33-4.9-.08-9.94.74-15.12.82-5.18,1.99-9.56,3.52-13.16h40.54c3.49,6.21,5.23,13.41,5.23,21.58s-1.85,16.59-5.56,24.6c-3.71,8.01-8.72,14.52-15.04,19.54l-.82-1.31Z" fill="#fff"/><path d="M183.1,546.35c-2.18,0-4.03-.74-5.56-2.21-1.53-1.47-2.29-3.3-2.29-5.48s.76-4.03,2.29-5.56c1.53-1.53,3.38-2.29,5.56-2.29s4.01.76,5.48,2.29c1.47,1.53,2.21,3.38,2.21,5.56s-.74,4.01-2.21,5.48c-1.47,1.47-3.3,2.21-5.48,2.21Z" fill="#fff"/><path d="M171.66,475.88c-2.18,0-4.03-.74-5.56-2.21-1.53-1.47-2.29-3.3-2.29-5.48s.76-4.03,2.29-5.56,3.38-2.29,5.56-2.29,4.01.76,5.48,2.29c1.47,1.53,2.21,3.38,2.21,5.56s-.74,3.87-2.21,5.39c-1.47,1.53-3.3,2.29-5.48,2.29Z" fill="#fff"/><path d="M132.91,521.82c-1.74-3.38-3.05-7.79-3.92-13.24-.87-5.45-1.09-10.73-.65-15.86h.82c11.01,0,23.62-1.47,37.85-4.41,14.22-2.94,26.4-6.95,36.54-12.02,10.14-5.07,15.2-10.54,15.2-16.43,0-3.27-1.47-5.69-4.41-7.28-2.94-1.58-7.14-2.37-12.59-2.37h-80.93c-.44-4.79-.25-9.78.57-14.96.82-5.17,1.93-9.62,3.35-13.32h98.09c3.81,6.32,5.61,13.46,5.39,21.42-.22,7.96-3.05,15.42-8.5,22.4l12.59,2.78c.54,2.07.92,4.66,1.14,7.77.22,3.11.22,5.91,0,8.42-5.89,7.96-14.25,14.71-25.1,20.27-10.85,5.56-22.78,9.76-35.8,12.59-13.02,2.84-25.91,4.25-38.66,4.25h-.98Z" fill="#fff"/><path d="M257,546.35c-2.18,0-4.03-.74-5.56-2.21-1.53-1.47-2.29-3.3-2.29-5.48s.76-4.03,2.29-5.56c1.53-1.53,3.38-2.29,5.56-2.29s4.01.76,5.48,2.29c1.47,1.53,2.21,3.38,2.21,5.56s-.74,4.01-2.21,5.48c-1.47,1.47-3.3,2.21-5.48,2.21ZM257,568.74c-2.18,0-4.03-.74-5.56-2.21-1.53-1.47-2.29-3.3-2.29-5.48s.76-4.03,2.29-5.56c1.53-1.53,3.38-2.29,5.56-2.29s4.01.76,5.48,2.29c1.47,1.53,2.21,3.38,2.21,5.56s-.74,4.01-2.21,5.48c-1.47,1.47-3.3,2.21-5.48,2.21Z" fill="#fff"/><path d="M253.24,476.21c-2.18,0-4.03-.74-5.56-2.21-1.53-1.47-2.29-3.3-2.29-5.48s.76-4.03,2.29-5.56,3.38-2.29,5.56-2.29,4.01.76,5.48,2.29c1.47,1.53,2.21,3.38,2.21,5.56s-.74,3.87-2.21,5.39c-1.47,1.53-3.3,2.29-5.48,2.29Z" fill="#fff"/><path d="M245.39,522.15c-1.85-3.7-3.3-8.09-4.33-13.16-1.04-5.07-1.55-10.49-1.55-16.27,7.63,0,14.41-1.42,20.35-4.25,5.94-2.83,10.54-6.57,13.81-11.2,3.27-4.63,4.9-9.56,4.9-14.79,0-4.47-1.47-8.56-4.41-12.26h-41.53c-.33-4.9-.08-9.94.74-15.12.82-5.18,1.99-9.56,3.52-13.16h37.11c4.47,12.75,6.7,25.4,6.7,37.93,0,17.44-2.7,31.61-8.09,42.51-5.4,10.9-14.47,17.49-27.22,19.78Z" fill="#fff"/><path d="M330.24,521.82c-1.85-3.6-3.46-8.36-4.82-14.3-1.36-5.94-2.04-10.87-2.04-14.8,8.39-1.42,17.6-3.7,27.63-6.87,10.03-3.16,18.47-6.81,25.34-10.95,4.36-2.62,7.77-5.34,10.22-8.17,2.45-2.83,3.68-5.72,3.68-8.66,0-2.29-.71-4.17-2.12-5.64-1.42-1.47-3.49-2.21-6.21-2.21h-97.44c-.55-6.76-.82-12.48-.82-17.17,0-11.88,2.21-22.32,6.62-31.31,4.41-8.99,10.93-15.61,19.54-19.86,2.51,2.18,5.07,6.4,7.68,12.67,2.62,6.27,4.03,11.15,4.25,14.63-7.96-1.09-15.31-.52-22.07,1.72-6.76,2.24-11.39,5.91-13.9,11.04h99.73c4.58,11.34,6.87,22.67,6.87,34,0,9.27-2.59,18.39-7.77,27.38-5.18,8.99-12.48,16.92-21.91,23.79-9.43,6.87-20.25,11.77-32.45,14.71Z" fill="#fff"/><path d="M476.07,521.82c-19.29-3.81-34.61-11.53-45.94-23.13-11.34-11.61-17-26.29-17-44.06,0-1.96.05-3.43.16-4.41h-18.15c-.33-4.9-.08-9.94.74-15.12.82-5.18,1.99-9.56,3.52-13.16h161.85c1.74-7.85,4.85-14.77,9.32-20.76,4.47-5.99,10.08-10.57,16.84-13.73,2.51,2.18,5.07,6.4,7.68,12.67,2.62,6.27,4.03,11.15,4.25,14.63-6.43-.98-12.51-.79-18.23.57-5.72,1.36-10.27,3.68-13.65,6.95,5.88.33,11.17,1.06,15.86,2.21,4.69,1.14,8.67,2.7,11.93,4.66,4.9,2.84,8.53,6.29,10.87,10.38,2.34,4.09,3.51,8.64,3.51,13.65l-1.63,2.13c-2.62-1.53-7.71-2.75-15.29-3.68-7.58-.92-16.32-1.39-26.24-1.39h-135.2c-5.12,0-9.05,1.09-11.77,3.27-2.73,2.18-4.09,5.01-4.09,8.5,0,5.56,3.57,10.49,10.71,14.8,7.14,4.31,15.8,7.79,25.99,10.46,10.19,2.67,20.03,4.5,29.51,5.48.33,4.8,0,9.84-.98,15.12-.98,5.29-2.51,9.95-4.58,13.98Z" fill="#fff"/><path d="M674.21,546.35c-2.18,0-4.03-.74-5.56-2.21-1.53-1.47-2.29-3.3-2.29-5.48s.76-4.03,2.29-5.56c1.53-1.53,3.38-2.29,5.56-2.29s4.01.76,5.48,2.29c1.47,1.53,2.21,3.38,2.21,5.56s-.74,4.01-2.21,5.48c-1.47,1.47-3.3,2.21-5.48,2.21Z" fill="#fff"/><path d="M662.77,475.88c-2.18,0-4.03-.74-5.56-2.21-1.53-1.47-2.29-3.3-2.29-5.48s.76-4.03,2.29-5.56,3.38-2.29,5.56-2.29,4.01.76,5.48,2.29c1.47,1.53,2.21,3.38,2.21,5.56s-.74,3.87-2.21,5.39c-1.47,1.53-3.3,2.29-5.48,2.29Z" fill="#fff"/><path d="M624.02,521.82c-1.75-3.38-3.05-7.79-3.92-13.24-.87-5.45-1.09-10.73-.65-15.86h.82c11.01,0,23.62-1.47,37.85-4.41,14.22-2.94,26.4-6.95,36.54-12.02,10.14-5.07,15.2-10.54,15.2-16.43,0-3.27-1.47-5.69-4.42-7.28-2.94-1.58-7.14-2.37-12.59-2.37h-80.92c-.44-4.79-.25-9.78.57-14.96.82-5.17,1.93-9.62,3.35-13.32h98.09c3.81,6.32,5.61,13.46,5.39,21.42-.22,7.96-3.05,15.42-8.5,22.4l12.59,2.78c.54,2.07.92,4.66,1.14,7.77.22,3.11.22,5.91,0,8.42-5.88,7.96-14.25,14.71-25.09,20.27-10.85,5.56-22.78,9.76-35.8,12.59-13.03,2.84-25.91,4.25-38.67,4.25h-.98Z" fill="#fff"/></svg>