<?xml version="1.0" encoding="UTF-8"?><svg id="Layer_1" xmlns="http://www.w3.org/2000/svg" viewBox="0 0 1523.64 951.37"><path d="M175.59,467.04c-3.59,0-6.63-1.21-9.14-3.63-2.51-2.42-3.76-5.42-3.76-9.01s1.25-6.63,3.76-9.14c2.51-2.51,5.55-3.77,9.14-3.77s6.59,1.26,9.01,3.77c2.42,2.51,3.63,5.56,3.63,9.14s-1.21,6.37-3.63,8.87c-2.42,2.51-5.42,3.76-9.01,3.76Z" fill="#fff"/><path d="M221.58,590.74c-4.13-8.79-7.13-17.17-9.01-25.14-1.88-7.98-2.82-15.73-2.82-23.26,0-10.76,1.57-20.61,4.71-29.58,3.13-8.96,7.84-19.81,14.12-32.54,2.51-5.38,5.06-10.89,7.66-16.54,2.6-5.65,4.53-10.89,5.78-15.73,2.69-9.5,1.97-16.22-2.15-20.17-4.13-3.94-10.58-5.92-19.36-5.92h-106.22c-.36-8.07.18-16.36,1.61-24.87,1.43-8.51,3.5-15.73,6.18-21.65h114.29c2.69,5.56,4.84,12.6,6.45,21.11,1.61,8.52,2.42,16.99,2.42,25.41s-.09,15.33-.27,20.17c-.18,27.25.13,49.26.94,66.02.81,16.76,3.18,28.82,7.13,36.17-2.51,7.71-6.19,15.82-11.03,24.34-4.84,8.51-9.95,15.91-15.33,22.19h-5.11Z" fill="#fff"/><path d="M563.09,579.99c-3.59,0-6.63-1.21-9.14-3.63-2.51-2.42-3.76-5.42-3.76-9.01s1.25-6.63,3.76-9.14c2.51-2.51,5.55-3.76,9.14-3.76s6.59,1.25,9.01,3.76c2.42,2.51,3.63,5.55,3.63,9.14s-1.21,6.59-3.63,9.01-5.42,3.63-9.01,3.63Z" fill="#fff"/><path d="M572.78,468.39c-3.59,0-6.63-1.21-9.14-3.63-2.51-2.42-3.76-5.42-3.76-9.01s1.25-6.63,3.76-9.14,5.55-3.76,9.14-3.76,6.59,1.26,9.01,3.76c2.42,2.51,3.63,5.56,3.63,9.14s-1.21,6.37-3.63,8.87c-2.42,2.51-5.42,3.76-9.01,3.76Z" fill="#fff"/><path d="M826.9,542.34c-5.2-6.81-10.08-14.79-14.66-23.93-4.57-9.14-8.03-18.02-10.35-26.62,10.76-6.45,20.17-14.47,28.24-24.07,8.07-9.59,12.1-18.96,12.1-28.1,0-5.38-2.02-9.68-6.05-12.91-4.03-3.23-9.37-4.84-16-4.84h-502.05c4.48,14.7,6.72,28.95,6.72,42.76,0,21.34-5.2,38.95-15.6,52.84-10.4,13.89-24.56,21.74-42.49,23.53-3.05-6.27-5.16-13.8-6.32-22.59-1.17-8.78-1.3-17.66-.4-26.62,11.29,0,21.11-2.78,29.45-8.34,8.34-5.55,14.7-12.41,19.09-20.57,4.39-8.16,6.59-16.09,6.59-23.8s-.81-13.08-2.42-17.21h-59.97c-.54-8.07-.13-16.36,1.21-24.87,1.34-8.51,3.27-15.73,5.78-21.65h575.47c6.99,24.74,10.49,51.19,10.49,79.33,0,15.6-1.21,31.24-3.63,46.92-2.42,15.69-5.87,29.27-10.35,40.74h-4.84Z" fill="#fff"/><path d="M927.74,539.65c-3.05-5.92-5.69-13.76-7.93-23.53-2.24-9.77-3.36-17.88-3.36-24.34,13.8-2.33,28.95-6.09,45.45-11.29,16.49-5.2,30.39-11.2,41.68-18.02,7.17-4.3,12.77-8.78,16.81-13.45,4.03-4.66,6.05-9.41,6.05-14.25,0-3.76-1.17-6.86-3.5-9.28-2.33-2.42-5.74-3.63-10.22-3.63h-160.27c-.9-11.11-1.34-20.53-1.34-28.24,0-19.54,3.63-36.71,10.89-51.5s17.97-25.68,32.13-32.67c4.12,3.59,8.34,10.53,12.64,20.84,4.3,10.31,6.63,18.33,6.99,24.07-13.09-1.79-25.19-.85-36.3,2.82-11.12,3.68-18.74,9.73-22.86,18.15h164.04c7.53,18.65,11.29,37.29,11.29,55.93,0,15.24-4.26,30.25-12.77,45.04-8.52,14.79-20.53,27.83-36.03,39.13-15.51,11.29-33.3,19.36-53.38,24.2Z" fill="#fff"/><path d="M1145.01,579.99c-3.59,0-6.63-1.21-9.14-3.63-2.51-2.42-3.76-5.42-3.76-9.01s1.25-6.63,3.76-9.14c2.51-2.51,5.55-3.76,9.14-3.76s6.59,1.25,9.01,3.76c2.42,2.51,3.63,5.55,3.63,9.14s-1.21,6.59-3.63,9.01-5.42,3.63-9.01,3.63Z" fill="#fff"/><path d="M1162.49,539.65c-31.73-6.27-56.92-18.96-75.56-38.05-18.65-19.09-27.97-43.25-27.97-72.47,0-3.23.09-5.65.27-7.26h-24.74c-.54-8.07-.13-16.36,1.21-24.87,1.34-8.51,3.27-15.73,5.78-21.65h113.21c3.05-12.55,8.24-23.62,15.6-33.21,7.35-9.59,16.4-16.98,27.16-22.18,4.12,3.59,8.34,10.53,12.64,20.84,4.3,10.31,6.63,18.33,6.99,24.07-10.04-1.43-19.63-1.16-28.77.81-9.14,1.97-16.58,5.38-22.32,10.22,9.32.72,17.75,2.11,25.28,4.17,7.53,2.06,13.98,4.8,19.36,8.2,7.17,4.66,12.5,10.26,16,16.81,3.5,6.55,5.24,13.76,5.24,21.65l-2.69,3.5c-4.3-2.51-12.69-4.53-25.14-6.05-12.46-1.52-26.85-2.29-43.16-2.29h-72.07c-8.43,0-14.88,1.79-19.36,5.38-4.48,3.59-6.72,8.25-6.72,13.98,0,9.14,5.87,17.26,17.61,24.34,11.74,7.08,25.99,12.82,42.76,17.21,16.76,4.39,32.94,7.39,48.54,9.01.54,7.89,0,16.18-1.61,24.87-1.61,8.7-4.13,16.36-7.53,22.99Z" fill="#fff"/><path d="M1375.74,579.99c-3.59,0-6.63-1.21-9.14-3.63-2.51-2.42-3.76-5.42-3.76-9.01s1.25-6.63,3.76-9.14c2.51-2.51,5.55-3.76,9.14-3.76s6.59,1.25,9.01,3.76c2.42,2.51,3.63,5.55,3.63,9.14s-1.21,6.59-3.63,9.01-5.42,3.63-9.01,3.63Z" fill="#fff"/><path d="M1271.94,357.06c-3.59,0-6.63-1.21-9.14-3.63-2.51-2.42-3.76-5.42-3.76-9.01s1.25-6.63,3.76-9.14c2.51-2.51,5.55-3.76,9.14-3.76s6.59,1.26,9.01,3.76c2.42,2.51,3.63,5.56,3.63,9.14s-1.21,6.37-3.63,8.87c-2.42,2.51-5.42,3.76-9.01,3.76Z" fill="#fff"/><path d="M1324.11,542.34c-4.3-25.99-8.47-46.21-12.5-60.64-4.03-14.43-9.55-26.31-16.54-35.63-6.1-8.07-14.03-14.12-23.8-18.15-9.77-4.03-21.65-6.05-35.63-6.05-.54-8.78-.13-17.52,1.21-26.22,1.34-8.69,3.36-15.82,6.05-21.38,13.62,0,25.99,3,37.11,9.01,11.11,6.01,19.09,13.94,23.93,23.8h.81c4.84-9.86,12.91-17.79,24.2-23.8,11.29-6,23.93-9.01,37.92-9.01,3.05,5.56,5.51,12.77,7.39,21.65,1.88,8.87,2.82,17.44,2.82,25.68-20.62,0-37.24,3.05-49.88,9.14-12.64,6.1-18.96,14.79-18.96,26.08,0,10.58,4.57,22.77,13.71,36.57,26.17,0,50.06-2.29,71.66-6.86,21.6-4.57,38.72-11.25,51.36-20.03,12.64-8.78,18.96-19.18,18.96-31.19,0-4.12-1.3-7.4-3.9-9.82-2.6-2.42-6.05-3.63-10.35-3.63h-66.42c-.72-7.89-.4-16.09.94-24.61,1.34-8.51,3.36-15.82,6.05-21.92h65.88c7.71,18.11,11.56,35.76,11.56,52.97s-3.68,33.39-11.03,49.61c-7.35,16.23-18.29,31.87-32.81,46.92-11.66,5.2-26.62,9.41-44.91,12.64-18.29,3.23-36.57,4.84-54.86,4.84Z" fill="#fff"/><path d="M224.66,162.69c-3.59,0-6.63-1.21-9.14-3.63-2.51-2.42-3.76-5.42-3.76-9.01s1.25-6.63,3.76-9.14,5.55-3.76,9.14-3.76,6.59,1.26,9.01,3.76c2.42,2.51,3.63,5.56,3.63,9.14s-1.21,6.37-3.63,8.87c-2.42,2.51-5.42,3.76-9.01,3.76Z" fill="#fff"/><path d="M287.85,237.98c-5.2-6.81-10.08-14.79-14.66-23.93-4.57-9.14-8.03-17.92-10.35-26.35,12.37-8.07,22.32-16.94,29.85-26.62,7.53-9.68,11.29-18.37,11.29-26.08,0-5.38-1.84-9.63-5.51-12.77-3.68-3.13-9.28-4.71-16.81-4.71H106.88c-.54-8.07-.13-16.36,1.21-24.87,1.34-8.51,3.27-15.73,5.78-21.65h182.32c6.99,24.74,10.49,51.19,10.49,79.33,0,15.6-1.21,31.24-3.63,46.92-2.42,15.69-5.87,29.27-10.35,40.74h-4.84ZM164.96,237.98c-7.71-8.42-13-18.51-15.87-30.25-2.87-11.74-3.32-23.93-1.34-36.57,1.97-12.64,6-24.51,12.1-35.63h2.96c0,12.73,2.69,23.62,8.07,32.67,5.38,9.05,13.18,15.46,23.4,19.23-2.33,9.5-5.92,18.87-10.76,28.1-4.84,9.24-10.13,16.72-15.87,22.45h-2.69Z" fill="#fff"/><path d="M310.17,117.51c5.38-11.29,9.37-22.5,11.97-33.61,2.6-11.11,3.9-24.02,3.9-38.72h41.14c1.79,3.59,2.78,6.45,2.96,8.61-4.3,9.86-11.21,20.62-20.71,32.27-9.5,11.66-19.63,22.14-30.39,31.46h-8.87Z" fill="#fff"/><path d="M387.35,271.33c-.36-2.51-.54-5.51-.54-9.01s.18-6.23.54-8.2h56.47c.36,1.97.54,4.71.54,8.2s-.18,6.5-.54,9.01h-56.47Z" fill="#fff"/><path d="M403.75,159.73c-3.59,0-6.63-1.21-9.14-3.63-2.51-2.42-3.76-5.42-3.76-9.01s1.25-6.63,3.76-9.14,5.55-3.76,9.14-3.76,6.59,1.26,9.01,3.76c2.42,2.51,3.63,5.56,3.63,9.14s-1.21,6.37-3.63,8.87c-2.42,2.51-5.42,3.76-9.01,3.76Z" fill="#fff"/><path d="M375.25,237.71c-3.23-6.45-5.47-14.29-6.72-23.53-1.26-9.23-1.26-18.15,0-26.76,11.47-.9,23.48-4.12,36.03-9.68,12.55-5.55,22.99-12.1,31.33-19.63s12.5-14.7,12.5-21.51c0-5.92-1.75-10.58-5.24-13.98-3.5-3.4-9.19-5.11-17.08-5.11h-64.27c-.54-8.07-.13-16.36,1.21-24.87,1.34-8.51,3.27-15.73,5.78-21.65h81.48c5.02,6.99,7.53,17.12,7.53,30.39,0,14.16-3.05,30.39-9.14,48.67.18,6.45,1.7,12.82,4.57,19.09,2.87,6.28,6.99,12.37,12.37,18.29,0,9.68-.5,18.96-1.48,27.83-.99,8.87-2.2,15.73-3.63,20.57h-7.53c-6.28-5.02-12.01-11.16-17.21-18.42-5.2-7.26-8.87-14.29-11.03-21.11h-1.34c-5.56,10.22-12.33,19.14-20.3,26.76-7.98,7.62-15.64,12.5-22.99,14.66h-4.84Z" fill="#fff"/><path d="M578.01,275.63c-3.59,0-6.63-1.21-9.14-3.63-2.51-2.42-3.76-5.42-3.76-9.01s1.25-6.63,3.76-9.14c2.51-2.51,5.55-3.76,9.14-3.76s6.59,1.25,9.01,3.76c2.42,2.51,3.63,5.55,3.63,9.14s-1.21,6.59-3.63,9.01c-2.42,2.42-5.42,3.63-9.01,3.63Z" fill="#fff"/><path d="M507.82,237.98c-4.48-11.47-7.93-25.05-10.35-40.74-2.42-15.69-3.63-31.33-3.63-46.92,0-11.11.54-22.05,1.61-32.81h-32c-.54-8.07-.13-16.36,1.21-24.87,1.34-8.51,3.27-15.73,5.78-21.65h182.59c6.99,24.74,10.49,51.19,10.49,79.33,0,15.6-1.21,31.24-3.63,46.92-2.42,15.69-5.87,29.27-10.35,40.74h-4.84c-5.2-6.81-10.08-14.79-14.66-23.93-4.57-9.14-8.02-18.02-10.35-26.62,12.01-5.92,21.87-13.67,29.58-23.26,7.71-9.59,11.56-18.78,11.56-27.56,0-5.74-1.84-10.35-5.51-13.85-3.68-3.5-9.28-5.24-16.81-5.24h-119.67c-7.53,0-13.09,1.71-16.67,5.11-3.59,3.41-5.38,8.07-5.38,13.98,0,8.97,3.9,18.29,11.7,27.97s17.52,17.3,29.18,22.86c-2.33,8.6-5.78,17.48-10.35,26.62-4.57,9.14-9.46,17.12-14.66,23.93h-4.84Z" fill="#fff"/><path d="M790.71,275.63c-3.59,0-6.63-1.21-9.14-3.63-2.51-2.42-3.76-5.42-3.76-9.01s1.25-6.63,3.76-9.14c2.51-2.51,5.55-3.76,9.14-3.76s6.59,1.25,9.01,3.76c2.42,2.51,3.63,5.55,3.63,9.14s-1.21,6.59-3.63,9.01c-2.42,2.42-5.42,3.63-9.01,3.63Z" fill="#fff"/><path d="M692.56,235.29c-4.3-6.27-7.8-13.8-10.49-22.59-2.69-8.78-4.03-17.21-4.03-25.28,11.65,0,20.34-.09,26.08-.27-1.08-26.35,4.21-49.57,15.87-69.65h-51.36c-.54-8.07-.13-16.36,1.21-24.87,1.34-8.51,3.27-15.73,5.78-21.65h56.74c2.69,3.59,5.29,10.76,7.8,21.51,8.78-7.89,18.46-13.94,29.04-18.15,10.58-4.21,21.33-6.32,32.27-6.32,14.52,0,28.41,3.76,41.68,11.29,13.27,7.53,24.02,18.87,32.27,34.02,8.24,15.15,12.37,33.75,12.37,55.8-3.76,10.4-15.6,20.75-35.5,31.06-19.9,10.31-44.28,18.74-73.14,25.28-28.87,6.55-57.73,9.82-86.59,9.82ZM706.55,186.62c42.84-1.43,80.54-4.71,113.08-9.82s54-10.8,64.4-17.08c0-9.68-3.5-17.88-10.49-24.6-6.99-6.72-16.09-11.74-27.29-15.06-11.21-3.32-23.08-4.97-35.63-4.97-15.24,0-30.25,2.65-45.04,7.93-14.79,5.29-27.52,13.31-38.19,24.07-10.67,10.76-17.61,23.93-20.84,39.53Z" fill="#fff"/><path d="M1070.38,235.29c-31.73-6.27-56.92-18.96-75.56-38.05-18.65-19.09-27.97-43.25-27.97-72.47,0-3.23.09-5.65.27-7.26h-32.54c-.54-8.07-.13-16.36,1.21-24.87,1.34-8.51,3.27-15.73,5.78-21.65h352.27c2.69-13.08,7.8-24.65,15.33-34.69,7.53-10.04,16.76-17.66,27.7-22.86,4.12,3.59,8.34,10.53,12.64,20.84,4.3,10.31,6.63,18.33,6.99,24.07-10.76-1.43-20.89-1.03-30.39,1.21-9.5,2.24-17.03,6.23-22.59,11.97,10.04.36,18.87,1.44,26.49,3.23,7.62,1.79,14.21,4.3,19.76,7.53,8.42,4.48,14.7,10.18,18.82,17.08,4.12,6.9,6.19,14.57,6.19,22.99l-2.69,3.5c-4.3-2.51-12.68-4.53-25.14-6.05-12.46-1.52-26.85-2.29-43.16-2.29h-307.1c-8.43,0-14.88,1.79-19.36,5.38-4.48,3.59-6.72,8.25-6.72,13.98,0,9.14,5.87,17.26,17.61,24.34,11.74,7.08,25.99,12.82,42.76,17.21,16.76,4.4,32.94,7.4,48.54,9.01.54,7.89,0,16.18-1.61,24.87-1.61,8.7-4.13,16.36-7.53,22.99Z" fill="#fff"/><path d="M1395.22,271.33c-.36-2.51-.54-5.51-.54-9.01s.18-6.23.54-8.2h56.47c.36,1.97.54,4.71.54,8.2s-.18,6.5-.54,9.01h-56.47Z" fill="#fff"/><path d="M1425.61,176.94c6.63-6.09,11.97-12.95,16-20.57,4.03-7.62,6.05-14.66,6.05-21.11,0-5.38-1.57-9.68-4.71-12.91-3.14-3.23-8.03-4.84-14.66-4.84h-49.75c-.54-8.07-.13-16.36,1.21-24.87,1.34-8.51,3.27-15.73,5.78-21.65h66.69c5.74,10.22,8.61,22.05,8.61,35.5s-3.05,27.29-9.14,40.47c-6.1,13.18-14.34,23.89-24.74,32.13l-1.34-2.15Z" fill="#fff"/><path d="M157.04,799.97c6.63-6.09,11.97-12.95,16-20.57,4.03-7.62,6.05-14.66,6.05-21.11,0-5.38-1.57-9.68-4.71-12.91-3.14-3.23-8.03-4.84-14.66-4.84h-49.75c-.54-8.07-.13-16.36,1.21-24.87,1.34-8.51,3.27-15.73,5.78-21.65h66.69c5.74,10.22,8.61,22.05,8.61,35.5s-3.05,27.29-9.14,40.47c-6.1,13.18-14.34,23.89-24.74,32.13l-1.34-2.15Z" fill="#fff"/><path d="M301.18,898.66c-3.59,0-6.63-1.21-9.14-3.63-2.51-2.42-3.76-5.42-3.76-9.01s1.25-6.63,3.76-9.14c2.51-2.51,5.55-3.76,9.14-3.76s6.59,1.25,9.01,3.76c2.42,2.51,3.63,5.55,3.63,9.14s-1.21,6.59-3.63,9.01-5.42,3.63-9.01,3.63Z" fill="#fff"/><path d="M282.35,782.76c-3.59,0-6.63-1.21-9.14-3.63-2.51-2.42-3.76-5.42-3.76-9.01s1.25-6.63,3.76-9.14,5.55-3.76,9.14-3.76,6.59,1.26,9.01,3.76c2.42,2.51,3.63,5.56,3.63,9.14s-1.21,6.37-3.63,8.87c-2.42,2.51-5.42,3.76-9.01,3.76Z" fill="#fff"/><path d="M218.62,858.32c-2.87-5.55-5.02-12.82-6.45-21.78-1.44-8.96-1.79-17.66-1.08-26.08h1.34c18.11,0,38.86-2.42,62.25-7.26,23.39-4.84,43.43-11.43,60.1-19.76,16.67-8.34,25.01-17.34,25.01-27.03,0-5.38-2.42-9.37-7.26-11.97-4.84-2.6-11.74-3.9-20.71-3.9h-133.11c-.72-7.89-.4-16.09.94-24.6,1.34-8.51,3.18-15.82,5.51-21.92h161.35c6.27,10.4,9.23,22.14,8.87,35.23-.36,13.09-5.02,25.37-13.98,36.84l20.71,4.57c.9,3.41,1.52,7.66,1.88,12.77.36,5.11.36,9.73,0,13.85-9.68,13.09-23.44,24.2-41.28,33.34-17.84,9.14-37.47,16.05-58.89,20.71-21.42,4.66-42.62,6.99-63.6,6.99h-1.61Z" fill="#fff"/><path d="M422.73,898.66c-3.59,0-6.63-1.21-9.14-3.63-2.51-2.42-3.76-5.42-3.76-9.01s1.25-6.63,3.76-9.14c2.51-2.51,5.55-3.76,9.14-3.76s6.59,1.25,9.01,3.76c2.42,2.51,3.63,5.55,3.63,9.14s-1.21,6.59-3.63,9.01-5.42,3.63-9.01,3.63ZM422.73,935.5c-3.59,0-6.63-1.21-9.14-3.63-2.51-2.42-3.76-5.42-3.76-9.01s1.25-6.63,3.76-9.14c2.51-2.51,5.55-3.76,9.14-3.76s6.59,1.25,9.01,3.76c2.42,2.51,3.63,5.55,3.63,9.14s-1.21,6.59-3.63,9.01-5.42,3.63-9.01,3.63Z" fill="#fff"/><path d="M416.54,783.3c-3.59,0-6.63-1.21-9.14-3.63-2.51-2.42-3.76-5.42-3.76-9.01s1.25-6.63,3.76-9.14,5.55-3.76,9.14-3.76,6.59,1.26,9.01,3.76c2.42,2.51,3.63,5.56,3.63,9.14s-1.21,6.37-3.63,8.87c-2.42,2.51-5.42,3.76-9.01,3.76Z" fill="#fff"/><path d="M403.63,858.86c-3.05-6.09-5.42-13.31-7.13-21.65-1.71-8.34-2.55-17.25-2.55-26.76,12.55,0,23.71-2.33,33.48-6.99,9.77-4.66,17.34-10.8,22.72-18.42,5.38-7.62,8.07-15.73,8.07-24.34,0-7.35-2.42-14.07-7.26-20.17h-68.3c-.54-8.07-.13-16.36,1.21-24.87,1.34-8.51,3.27-15.73,5.78-21.65h61.04c7.35,20.97,11.03,41.77,11.03,62.39,0,28.69-4.44,51.99-13.31,69.92-8.87,17.93-23.8,28.77-44.77,32.54Z" fill="#fff"/><path d="M543.2,858.32c-3.05-5.92-5.69-13.76-7.93-23.53-2.24-9.77-3.36-17.88-3.36-24.34,13.8-2.33,28.95-6.09,45.45-11.29,16.49-5.2,30.39-11.2,41.68-18.02,7.17-4.3,12.77-8.78,16.81-13.45,4.03-4.66,6.05-9.41,6.05-14.25,0-3.76-1.17-6.86-3.5-9.28-2.33-2.42-5.74-3.63-10.22-3.63h-160.27c-.9-11.11-1.34-20.53-1.34-28.24,0-19.54,3.63-36.71,10.89-51.5s17.97-25.68,32.13-32.67c4.12,3.59,8.34,10.53,12.64,20.84,4.3,10.31,6.63,18.33,6.99,24.07-13.09-1.79-25.19-.85-36.3,2.82-11.12,3.68-18.74,9.73-22.86,18.15h164.04c7.53,18.65,11.29,37.29,11.29,55.93,0,15.24-4.26,30.25-12.77,45.04-8.52,14.79-20.53,27.83-36.03,39.13-15.51,11.29-33.3,19.36-53.38,24.2Z" fill="#fff"/><path d="M791.4,858.32c-31.73-6.27-56.92-18.96-75.56-38.05-18.65-19.09-27.97-43.25-27.97-72.47,0-3.23.09-5.65.27-7.26h-38.19c-.54-8.07-.13-16.36,1.21-24.87,1.34-8.51,3.27-15.73,5.78-21.65h533.79c2.69-13.27,7.75-25.1,15.19-35.5,7.44-10.4,16.81-18.29,28.1-23.66,4.12,3.59,8.34,10.53,12.64,20.84,4.3,10.31,6.63,18.33,6.99,24.07-11.12-1.61-21.61-1.12-31.46,1.48-9.86,2.6-17.48,7.04-22.86,13.31,10.4.18,19.5,1.08,27.29,2.69,7.8,1.61,14.66,3.86,20.57,6.72,9.32,4.48,16.22,10.26,20.71,17.34,4.48,7.08,6.72,15.11,6.72,24.07l-2.69,3.5c-4.3-2.51-12.69-4.53-25.14-6.05-12.46-1.52-26.85-2.29-43.16-2.29h-485.92c-8.43,0-14.88,1.79-19.36,5.38-4.48,3.59-6.72,8.25-6.72,13.98,0,9.14,5.87,17.26,17.61,24.34,11.74,7.08,25.99,12.82,42.76,17.21,16.76,4.4,32.94,7.4,48.54,9.01.54,7.89,0,16.18-1.61,24.87-1.61,8.7-4.13,16.36-7.53,22.99Z" fill="#fff"/><path d="M1380.85,898.66c-3.59,0-6.63-1.21-9.14-3.63-2.51-2.42-3.76-5.42-3.76-9.01s1.25-6.63,3.76-9.14c2.51-2.51,5.55-3.76,9.14-3.76s6.59,1.25,9.01,3.76c2.42,2.51,3.63,5.55,3.63,9.14s-1.21,6.59-3.63,9.01-5.42,3.63-9.01,3.63Z" fill="#fff"/><path d="M1362.03,782.76c-3.59,0-6.63-1.21-9.14-3.63-2.51-2.42-3.76-5.42-3.76-9.01s1.25-6.63,3.76-9.14,5.55-3.76,9.14-3.76,6.59,1.26,9.01,3.76c2.42,2.51,3.63,5.56,3.63,9.14s-1.21,6.37-3.63,8.87c-2.42,2.51-5.42,3.76-9.01,3.76Z" fill="#fff"/><path d="M1298.3,858.32c-2.87-5.55-5.02-12.82-6.45-21.78-1.44-8.96-1.79-17.66-1.08-26.08h1.34c18.11,0,38.86-2.42,62.25-7.26,23.39-4.84,43.43-11.43,60.1-19.76,16.67-8.34,25.01-17.34,25.01-27.03,0-5.38-2.42-9.37-7.26-11.97-4.84-2.6-11.74-3.9-20.71-3.9h-133.11c-.72-7.89-.4-16.09.94-24.6,1.34-8.51,3.18-15.82,5.51-21.92h161.35c6.27,10.4,9.23,22.14,8.87,35.23-.36,13.09-5.02,25.37-13.98,36.84l20.71,4.57c.9,3.41,1.52,7.66,1.88,12.77.36,5.11.36,9.73,0,13.85-9.68,13.09-23.44,24.2-41.28,33.34-17.84,9.14-37.47,16.05-58.89,20.71-21.42,4.66-42.62,6.99-63.6,6.99h-1.61Z" fill="#fff"/></svg>