<?xml version="1.0" encoding="UTF-8"?><svg id="Layer_1" xmlns="http://www.w3.org/2000/svg" viewBox="0 0 3205.58 2055.15"><path d="M1942.75,192.79c-4.25,0-7.86-1.43-10.83-4.3-2.98-2.87-4.46-6.42-4.46-10.68s1.48-7.86,4.46-10.83c2.97-2.97,6.58-4.46,10.83-4.46s7.81,1.49,10.67,4.46c2.87,2.98,4.3,6.59,4.3,10.83s-1.43,7.54-4.3,10.52c-2.87,2.98-6.43,4.46-10.67,4.46Z" fill="#fff"/><path d="M2017.63,282.01c-6.16-8.07-11.95-17.53-17.37-28.36-5.42-10.83-9.51-21.24-12.27-31.23,14.66-9.56,26.45-20.08,35.37-31.55,8.92-11.47,13.38-21.77,13.38-30.91,0-6.37-2.18-11.42-6.53-15.14-4.36-3.71-10.99-5.58-19.92-5.58h-207.13c-.64-9.56-.16-19.38,1.43-29.48,1.59-10.09,3.87-18.64,6.85-25.65h216.05c8.29,29.32,12.43,60.65,12.43,94,0,18.48-1.43,37.02-4.3,55.61-2.87,18.59-6.96,34.68-12.27,48.28h-5.74ZM1872,282.01c-9.14-9.98-15.41-21.93-18.8-35.85-3.4-13.91-3.93-28.36-1.59-43.34,2.34-14.98,7.12-29.05,14.34-42.22h3.51c0,15.09,3.19,27.99,9.56,38.72,6.37,10.73,15.61,18.32,27.72,22.78-2.76,11.26-7.01,22.36-12.75,33.3-5.74,10.94-12,19.81-18.8,26.61h-3.19Z" fill="#fff"/><path d="M2105.26,321.52c-.43-2.98-.64-6.53-.64-10.68s.21-7.38.64-9.72h66.92c.42,2.33.64,5.58.64,9.72s-.21,7.7-.64,10.68h-66.92Z" fill="#fff"/><path d="M2137.45,192.15c-4.25,0-7.86-1.43-10.83-4.3-2.98-2.87-4.46-6.42-4.46-10.68s1.48-7.86,4.46-10.83c2.97-2.97,6.58-4.46,10.83-4.46s7.81,1.49,10.67,4.46c2.87,2.98,4.3,6.59,4.3,10.83s-1.43,7.54-4.3,10.52c-2.87,2.98-6.43,4.46-10.67,4.46Z" fill="#fff"/><path d="M2136.49,278.82c-3.62-7.01-6.75-16.3-9.4-27.88-2.66-11.58-3.98-21.19-3.98-28.84,16.36-2.76,34.31-7.22,53.85-13.38,19.54-6.16,36.01-13.27,49.39-21.35,8.49-5.1,15.14-10.41,19.92-15.93,4.78-5.52,7.17-11.15,7.17-16.89,0-4.46-1.38-8.13-4.14-10.99-2.76-2.87-6.8-4.3-12.11-4.3h-189.92c-1.07-13.17-1.59-24.32-1.59-33.46,0-23.15,4.3-43.5,12.91-61.02,8.6-17.53,21.3-30.43,38.08-38.72,4.88,4.25,9.88,12.48,14.98,24.7,5.1,12.22,7.86,21.72,8.29,28.52-15.51-2.12-29.85-1.01-43.02,3.35-13.17,4.36-22.2,11.53-27.09,21.51h194.38c8.92,22.1,13.38,44.19,13.38,66.28,0,18.06-5.05,35.85-15.14,53.38-10.09,17.53-24.33,32.98-42.7,46.36-18.38,13.38-39.46,22.94-63.25,28.68Z" fill="#fff"/><path d="M2354.13,278.82c-3.61-7.01-6.75-16.3-9.4-27.88-2.66-11.58-3.98-21.19-3.98-28.84,16.36-2.76,34.31-7.22,53.85-13.38,19.54-6.16,36.01-13.27,49.39-21.35,8.49-5.1,15.14-10.41,19.92-15.93,4.78-5.52,7.17-11.15,7.17-16.89,0-4.46-1.38-8.13-4.14-10.99-2.76-2.87-6.8-4.3-12.11-4.3h-189.92c-1.07-13.17-1.59-24.32-1.59-33.46,0-23.15,4.3-43.5,12.91-61.02,8.6-17.53,21.29-30.43,38.08-38.72,4.88,4.25,9.88,12.48,14.98,24.7,5.1,12.22,7.86,21.72,8.29,28.52-15.51-2.12-29.85-1.01-43.02,3.35-13.17,4.36-22.2,11.53-27.09,21.51h194.38c8.92,22.1,13.38,44.19,13.38,66.28,0,18.06-5.05,35.85-15.14,53.38-10.09,17.53-24.33,32.98-42.7,46.36-18.38,13.38-39.46,22.94-63.25,28.68Z" fill="#fff"/><path d="M2578.15,321.52c-.43-2.98-.64-6.53-.64-10.68s.21-7.38.64-9.72h66.92c.42,2.33.64,5.58.64,9.72s-.21,7.7-.64,10.68h-66.92Z" fill="#fff"/><path d="M2632.32,278.82c-37.6-7.43-67.45-22.47-89.54-45.09-22.1-22.62-33.14-51.25-33.14-85.88,0-3.82.1-6.69.32-8.6h-29.32c-.64-9.56-.16-19.38,1.43-29.48,1.59-10.09,3.87-18.64,6.85-25.65h134.16c3.61-14.87,9.77-27.99,18.48-39.35,8.71-11.36,19.44-20.13,32.18-26.29,4.88,4.25,9.88,12.48,14.98,24.7,5.1,12.22,7.86,21.72,8.29,28.52-11.9-1.7-23.26-1.38-34.1.96-10.83,2.34-19.65,6.37-26.45,12.11,11.04.85,21.03,2.5,29.95,4.94,8.92,2.44,16.57,5.69,22.94,9.72,8.49,5.53,14.82,12.16,18.96,19.92,4.14,7.76,6.21,16.31,6.21,25.65l-3.19,4.14c-5.1-2.97-15.03-5.36-29.79-7.17-14.77-1.8-31.82-2.71-51.14-2.71h-85.4c-9.99,0-17.64,2.13-22.94,6.37-5.31,4.25-7.97,9.77-7.97,16.57,0,10.83,6.96,20.45,20.87,28.84,13.91,8.39,30.8,15.19,50.67,20.39,19.86,5.21,39.04,8.76,57.52,10.67.64,9.35,0,19.17-1.91,29.48-1.91,10.31-4.89,19.39-8.92,27.25Z" fill="#fff"/><path d="M2721.87,205.21c-1.7-10.41-2.55-19.49-2.55-27.25s.96-16.41,2.87-25.97h123.96c1.7,10.2,2.55,19.17,2.55,26.93s-.96,16.52-2.87,26.29h-123.96Z" fill="#fff"/><path d="M3006.43,278.82c-37.6-7.43-67.45-22.47-89.54-45.09-22.1-22.62-33.14-51.25-33.14-85.88,0-3.82.1-6.69.32-8.6h-29.32c-.64-9.56-.16-19.38,1.43-29.48,1.59-10.09,3.87-18.64,6.85-25.65h134.16c3.61-14.87,9.77-27.99,18.48-39.35,8.71-11.36,19.44-20.13,32.18-26.29,4.88,4.25,9.88,12.48,14.98,24.7,5.1,12.22,7.86,21.72,8.29,28.52-11.9-1.7-23.26-1.38-34.1.96-10.83,2.34-19.65,6.37-26.45,12.11,11.04.85,21.03,2.5,29.95,4.94,8.92,2.44,16.57,5.69,22.94,9.72,8.49,5.53,14.82,12.16,18.96,19.92,4.14,7.76,6.21,16.31,6.21,25.65l-3.19,4.14c-5.1-2.97-15.03-5.36-29.79-7.17-14.77-1.8-31.82-2.71-51.14-2.71h-85.4c-9.99,0-17.64,2.13-22.94,6.37-5.31,4.25-7.97,9.77-7.97,16.57,0,10.83,6.96,20.45,20.87,28.84,13.91,8.39,30.8,15.19,50.67,20.39,19.86,5.21,39.04,8.76,57.52,10.67.64,9.35,0,19.17-1.91,29.48-1.91,10.31-4.89,19.39-8.92,27.25Z" fill="#fff"/><path d="M3112.86,321.52c-.43-2.98-.64-6.53-.64-10.68s.21-7.38.64-9.72h66.92c.42,2.33.64,5.58.64,9.72s-.21,7.7-.64,10.68h-66.92Z" fill="#fff"/><path d="M3148.87,209.68c7.86-7.22,14.18-15.35,18.96-24.38,4.78-9.03,7.17-17.37,7.17-25.02,0-6.37-1.86-11.47-5.58-15.3-3.72-3.82-9.51-5.74-17.37-5.74h-58.95c-.64-9.56-.16-19.38,1.43-29.48,1.59-10.09,3.87-18.64,6.85-25.65h79.03c6.8,12.11,10.2,26.13,10.2,42.06s-3.62,32.34-10.83,47.96c-7.22,15.61-17,28.31-29.32,38.08l-1.59-2.55Z" fill="#fff"/><path d="M1915.34,575.18c-4.25,0-7.86-1.43-10.83-4.3-2.98-2.87-4.46-6.42-4.46-10.67s1.48-7.86,4.46-10.83,6.58-4.46,10.83-4.46,7.81,1.49,10.67,4.46c2.87,2.98,4.3,6.59,4.3,10.83s-1.43,7.54-4.3,10.52c-2.87,2.98-6.43,4.46-10.67,4.46Z" fill="#fff"/><path d="M1969.83,721.76c-4.89-10.41-8.44-20.34-10.68-29.79-2.23-9.46-3.35-18.64-3.35-27.56,0-12.75,1.86-24.43,5.58-35.05,3.71-10.62,9.29-23.47,16.73-38.56,2.97-6.37,6-12.91,9.08-19.6,3.08-6.69,5.36-12.91,6.85-18.64,3.19-11.26,2.33-19.22-2.55-23.9-4.89-4.67-12.54-7.01-22.94-7.01h-125.87c-.43-9.56.21-19.38,1.91-29.48,1.7-10.09,4.14-18.64,7.33-25.65h135.43c3.19,6.59,5.74,14.93,7.65,25.01,1.91,10.09,2.87,20.13,2.87,30.11s-.11,18.16-.32,23.9c-.21,32.29.16,58.37,1.12,78.23.96,19.87,3.77,34.15,8.45,42.86-2.98,9.13-7.33,18.75-13.07,28.84-5.74,10.09-11.79,18.85-18.16,26.29h-6.05Z" fill="#fff"/><path d="M2360.51,703.91c-.43-2.98-.64-6.53-.64-10.68s.21-7.38.64-9.72h66.92c.42,2.33.64,5.58.64,9.72s-.21,7.7-.64,10.68h-66.92Z" fill="#fff"/><path d="M2173.45,661.21c-37.6-7.43-67.45-22.47-89.54-45.09-22.1-22.62-33.14-51.25-33.14-85.88,0-3.82.1-6.69.32-8.6h-44.29c-.64-9.56-.16-19.38,1.43-29.48,1.59-10.09,3.87-18.64,6.85-25.65h598.76c2.97-15.72,8.92-29.74,17.84-42.06,8.92-12.32,20.08-21.67,33.46-28.04,4.88,4.25,9.88,12.48,14.98,24.7,5.1,12.22,7.86,21.72,8.29,28.52-13.17-1.7-25.6-1.06-37.28,1.91-11.69,2.98-20.71,8.18-27.09,15.61,12.11.21,22.83,1.27,32.18,3.19,9.35,1.91,17.42,4.68,24.22,8.29,10.83,5.31,18.91,12.16,24.22,20.55,5.31,8.39,7.97,17.79,7.97,28.2l-3.19,4.14c-5.1-2.97-15.03-5.36-29.79-7.17-14.77-1.8-31.82-2.71-51.14-2.71h-542.36c-9.99,0-17.64,2.13-22.94,6.37-5.31,4.25-7.97,9.77-7.97,16.57,0,10.83,6.96,20.45,20.87,28.84,13.91,8.39,30.8,15.19,50.67,20.39,19.86,5.21,39.04,8.76,57.52,10.67.64,9.35,0,19.17-1.91,29.48-1.91,10.31-4.89,19.39-8.92,27.25Z" fill="#fff"/><path d="M2715.81,521.64c6.37-13.38,11.1-26.66,14.18-39.83,3.08-13.17,4.62-28.46,4.62-45.89h48.75c2.12,4.25,3.29,7.65,3.5,10.2-5.1,11.69-13.28,24.43-24.54,38.24-11.26,13.81-23.26,26.24-36.01,37.28h-10.52Z" fill="#fff"/><path d="M2849.97,703.91c-.43-2.98-.64-6.53-.64-10.68s.21-7.38.64-9.72h66.92c.42,2.33.64,5.58.64,9.72s-.21,7.7-.64,10.68h-66.92Z" fill="#fff"/><path d="M2799.3,661.85c-3.82-7.01-6.8-16.41-8.92-28.2-2.13-11.79-2.55-21.51-1.27-29.16,36.11,0,70.31-2.39,102.61-7.17,32.29-4.78,58.1-11.2,77.43-19.28-6.16-14.44-17.42-25.76-33.78-33.94-16.36-8.18-37.5-13.97-63.41-17.37-25.92-3.4-57.57-5.1-94.96-5.1-.85-9.77-.37-19.7,1.43-29.79,1.8-10.09,4.51-18.53,8.13-25.33h57.36c16.36,8.71,32.5,18.7,48.44,29.95,2.55-10.83,6.37-20.82,11.47-29.95h81.89c3.82,7.22,6.9,15.93,9.24,26.13,2.33,10.2,3.51,19.87,3.51,29h-51.94c-8.71,0-15.3.64-19.76,1.91,23.58,20.61,39.72,39.94,48.44,58,.42,4.25.37,8.98-.16,14.18-.53,5.21-1.54,10.04-3.03,14.5-15.93,16.57-40.05,29.48-72.33,38.72-32.29,9.24-65.75,13.54-100.38,12.91Z" fill="#fff"/><path d="M3138.03,703.91c-.43-2.98-.64-6.53-.64-10.68s.21-7.38.64-9.72h66.92c.42,2.33.64,5.58.64,9.72s-.21,7.7-.64,10.68h-66.92Z" fill="#fff"/><path d="M3170.54,664.4c-6.16-8.07-11.95-17.53-17.37-28.36-5.42-10.83-9.51-21.35-12.27-31.55,13.59-8.29,24.86-18.11,33.78-29.48,8.92-11.36,13.38-22.04,13.38-32.03,0-6.58-2.18-11.79-6.53-15.61-4.36-3.82-10.99-5.74-19.92-5.74h-155.5c-.64-9.56-.16-19.38,1.43-29.48,1.59-10.09,3.87-18.64,6.85-25.65h166.02c8.29,29.32,12.43,60.65,12.43,94,0,18.48-1.43,37.02-4.3,55.61-2.87,18.59-6.96,34.68-12.27,48.28h-5.74Z" fill="#fff"/></svg>