<?xml version="1.0" encoding="UTF-8"?><svg id="Layer_1" xmlns="http://www.w3.org/2000/svg" viewBox="0 0 3379.15 2134"><path d="M1822.55,237.63c-5.24,0-9.69-1.77-13.35-5.3-3.67-3.54-5.5-7.92-5.5-13.16s1.83-9.68,5.5-13.35,8.11-5.5,13.35-5.5,9.62,1.83,13.16,5.5c3.54,3.67,5.3,8.12,5.3,13.35s-1.77,9.3-5.3,12.96c-3.54,3.67-7.92,5.5-13.16,5.5Z" fill="#fff"/><path d="M1914.86,347.61c-7.6-9.95-14.73-21.6-21.41-34.96-6.68-13.35-11.72-26.18-15.12-38.49,18.07-11.78,32.6-24.75,43.6-38.89,11-14.14,16.5-26.84,16.5-38.1,0-7.86-2.69-14.07-8.05-18.66-5.37-4.58-13.55-6.87-24.55-6.87h-255.31c-.79-11.78-.2-23.89,1.77-36.33,1.96-12.43,4.77-22.98,8.44-31.62h266.31c10.21,36.14,15.32,74.76,15.32,115.87,0,22.78-1.77,45.63-5.3,68.54-3.54,22.92-8.58,42.75-15.12,59.51h-7.07ZM1735.36,347.61c-11.26-12.31-18.99-27.03-23.17-44.19-4.19-17.15-4.85-34.96-1.96-53.42,2.88-18.46,8.77-35.8,17.68-52.04h4.32c0,18.6,3.93,34.5,11.78,47.72,7.86,13.23,19.25,22.58,34.17,28.08-3.41,13.88-8.64,27.56-15.71,41.05-7.07,13.49-14.8,24.42-23.17,32.8h-3.93Z" fill="#fff"/><path d="M2022.87,396.32c-.53-3.67-.79-8.05-.79-13.16s.26-9.1.79-11.98h82.48c.52,2.88.79,6.87.79,11.98s-.26,9.49-.79,13.16h-82.48Z" fill="#fff"/><path d="M2062.54,236.85c-5.24,0-9.69-1.77-13.35-5.3-3.67-3.54-5.5-7.92-5.5-13.16s1.83-9.68,5.5-13.35,8.11-5.5,13.35-5.5,9.62,1.83,13.16,5.5c3.54,3.67,5.3,8.12,5.3,13.35s-1.77,9.3-5.3,12.96c-3.54,3.67-7.92,5.5-13.16,5.5Z" fill="#fff"/><path d="M2061.36,343.68c-4.46-8.64-8.32-20.09-11.59-34.37-3.28-14.27-4.91-26.12-4.91-35.55,20.16-3.4,42.29-8.9,66.38-16.5,24.09-7.59,44.38-16.36,60.88-26.32,10.47-6.28,18.66-12.83,24.55-19.64,5.89-6.81,8.84-13.75,8.84-20.82,0-5.5-1.71-10.02-5.11-13.55-3.41-3.54-8.38-5.3-14.93-5.3h-234.1c-1.31-16.23-1.96-29.98-1.96-41.24,0-28.54,5.3-53.61,15.91-75.22s26.25-37.51,46.94-47.72c6.02,5.24,12.18,15.39,18.46,30.44,6.28,15.06,9.68,26.78,10.21,35.15-19.12-2.61-36.79-1.24-53.03,4.12-16.24,5.37-27.37,14.21-33.39,26.51h239.6c11,27.24,16.5,54.47,16.5,81.7,0,22.26-6.22,44.19-18.66,65.79-12.44,21.6-29.99,40.65-52.63,57.15-22.65,16.5-48.64,28.28-77.97,35.35Z" fill="#fff"/><path d="M2329.64,343.68c-4.46-8.64-8.32-20.09-11.59-34.37-3.28-14.27-4.91-26.12-4.91-35.55,20.16-3.4,42.29-8.9,66.38-16.5,24.09-7.59,44.38-16.36,60.88-26.32,10.47-6.28,18.66-12.83,24.55-19.64,5.89-6.81,8.84-13.75,8.84-20.82,0-5.5-1.71-10.02-5.11-13.55-3.41-3.54-8.38-5.3-14.93-5.3h-234.1c-1.31-16.23-1.96-29.98-1.96-41.24,0-28.54,5.3-53.61,15.91-75.22s26.25-37.51,46.94-47.72c6.02,5.24,12.18,15.39,18.46,30.44,6.28,15.06,9.68,26.78,10.21,35.15-19.12-2.61-36.79-1.24-53.03,4.12-16.24,5.37-27.37,14.21-33.39,26.51h239.6c11,27.24,16.5,54.47,16.5,81.7,0,22.26-6.22,44.19-18.66,65.79-12.44,21.6-29.99,40.65-52.63,57.15-22.65,16.5-48.64,28.28-77.97,35.35Z" fill="#fff"/><path d="M2605.76,396.32c-.53-3.67-.79-8.05-.79-13.16s.26-9.1.79-11.98h82.48c.52,2.88.79,6.87.79,11.98s-.26,9.49-.79,13.16h-82.48Z" fill="#fff"/><path d="M2672.53,343.68c-46.35-9.16-83.14-27.69-110.37-55.58-27.24-27.89-40.85-63.17-40.85-105.85,0-4.71.13-8.25.39-10.6h-36.14c-.79-11.78-.2-23.89,1.77-36.33,1.96-12.43,4.77-22.98,8.45-31.62h165.36c4.45-18.33,12.04-34.5,22.78-48.51,10.73-14.01,23.96-24.81,39.67-32.4,6.02,5.24,12.18,15.39,18.46,30.44,6.29,15.06,9.68,26.78,10.21,35.15-14.67-2.09-28.67-1.7-42.03,1.18-13.36,2.88-24.22,7.86-32.6,14.93,13.61,1.05,25.92,3.08,36.92,6.09,11,3.01,20.42,7.01,28.28,11.98,10.47,6.81,18.26,14.99,23.37,24.55,5.11,9.56,7.66,20.1,7.66,31.62l-3.93,5.11c-6.28-3.66-18.53-6.61-36.72-8.84-18.2-2.22-39.22-3.34-63.04-3.34h-105.27c-12.31,0-21.74,2.62-28.28,7.86-6.55,5.24-9.82,12.05-9.82,20.42,0,13.35,8.57,25.21,25.73,35.55,17.15,10.35,37.96,18.72,62.45,25.14,24.48,6.42,48.12,10.8,70.9,13.16.79,11.53,0,23.63-2.36,36.33-2.36,12.7-6.03,23.9-11,33.58Z" fill="#fff"/><path d="M2782.91,252.95c-2.1-12.83-3.14-24.02-3.14-33.58s1.18-20.23,3.54-32.01h152.79c2.09,12.57,3.14,23.63,3.14,33.19s-1.18,20.36-3.54,32.4h-152.79Z" fill="#fff"/><path d="M3133.66,343.68c-46.35-9.16-83.14-27.69-110.37-55.58-27.24-27.89-40.85-63.17-40.85-105.85,0-4.71.13-8.25.39-10.6h-36.14c-.79-11.78-.2-23.89,1.77-36.33,1.96-12.43,4.77-22.98,8.44-31.62h165.36c4.45-18.33,12.04-34.5,22.78-48.51,10.73-14.01,23.96-24.81,39.67-32.4,6.02,5.24,12.18,15.39,18.46,30.44,6.29,15.06,9.68,26.78,10.21,35.15-14.67-2.09-28.67-1.7-42.03,1.18-13.36,2.88-24.22,7.86-32.6,14.93,13.61,1.05,25.92,3.08,36.92,6.09,11,3.01,20.42,7.01,28.28,11.98,10.47,6.81,18.26,14.99,23.37,24.55,5.11,9.56,7.66,20.1,7.66,31.62l-3.93,5.11c-6.28-3.66-18.53-6.61-36.72-8.84-18.2-2.22-39.22-3.34-63.04-3.34h-105.27c-12.31,0-21.74,2.62-28.28,7.86-6.55,5.24-9.82,12.05-9.82,20.42,0,13.35,8.57,25.21,25.73,35.55,17.15,10.35,37.96,18.72,62.45,25.14,24.48,6.42,48.12,10.8,70.9,13.16.79,11.53,0,23.63-2.36,36.33-2.36,12.7-6.03,23.9-11,33.58Z" fill="#fff"/><path d="M3264.85,396.32c-.53-3.67-.79-8.05-.79-13.16s.26-9.1.79-11.98h82.48c.52,2.88.79,6.87.79,11.98s-.26,9.49-.79,13.16h-82.48Z" fill="#fff"/><path d="M3309.23,258.45c9.68-8.9,17.48-18.91,23.37-30.05,5.89-11.13,8.84-21.41,8.84-30.83,0-7.86-2.3-14.14-6.87-18.85-4.58-4.71-11.72-7.07-21.41-7.07h-72.67c-.79-11.78-.2-23.89,1.77-36.33,1.96-12.43,4.77-22.98,8.44-31.62h97.41c8.38,14.93,12.57,32.21,12.57,51.85s-4.46,39.87-13.35,59.11c-8.91,19.25-20.95,34.9-36.14,46.94l-1.96-3.14Z" fill="#fff"/><path d="M1746.35,708.97c-5.24,0-9.69-1.77-13.35-5.3-3.67-3.54-5.5-7.92-5.5-13.16s1.83-9.68,5.5-13.35c3.66-3.66,8.11-5.5,13.35-5.5s9.62,1.83,13.16,5.5c3.54,3.67,5.3,8.12,5.3,13.35s-1.77,9.3-5.3,12.96c-3.54,3.67-7.92,5.5-13.16,5.5Z" fill="#fff"/><path d="M1813.52,889.65c-6.03-12.83-10.41-25.08-13.16-36.73-2.75-11.65-4.12-22.98-4.12-33.98,0-15.71,2.29-30.11,6.87-43.21,4.58-13.09,11.45-28.93,20.62-47.53,3.66-7.86,7.4-15.91,11.19-24.16,3.79-8.25,6.61-15.91,8.44-22.98,3.93-13.88,2.88-23.7-3.14-29.46-6.03-5.76-15.45-8.64-28.28-8.64h-155.15c-.53-11.78.26-23.89,2.36-36.33,2.09-12.43,5.11-22.98,9.03-31.62h166.93c3.93,8.12,7.07,18.4,9.43,30.83,2.36,12.44,3.54,24.81,3.54,37.12s-.13,22.39-.39,29.46c-.26,39.81.2,71.95,1.37,96.43,1.18,24.49,4.65,42.1,10.41,52.83-3.67,11.25-9.03,23.11-16.1,35.55-7.07,12.43-14.53,23.24-22.39,32.4h-7.46Z" fill="#fff"/><path d="M2317.85,867.65c-.53-3.67-.79-8.05-.79-13.16s.26-9.1.79-11.98h82.48c.52,2.88.79,6.87.79,11.98s-.26,9.49-.79,13.16h-82.48Z" fill="#fff"/><path d="M2065.69,815.02c-46.35-9.16-83.14-27.69-110.37-55.58-27.24-27.89-40.85-63.17-40.85-105.85,0-4.71.13-8.25.39-10.61h-55.77c-.79-11.78-.2-23.89,1.77-36.33,1.96-12.43,4.77-22.98,8.44-31.62h779.67c3.93-19.38,11.32-36.66,22.19-51.85,10.86-15.18,24.55-26.71,41.05-34.57,6.02,5.24,12.18,15.39,18.46,30.44,6.28,15.06,9.68,26.78,10.21,35.15-16.24-2.36-31.56-1.63-45.96,2.16-14.4,3.8-25.53,10.28-33.39,19.44,15.18.26,28.48,1.57,39.87,3.93s21.41,5.63,30.05,9.82c13.61,6.55,23.7,14.99,30.24,25.33,6.54,10.35,9.82,22.06,9.82,35.15l-3.93,5.11c-6.29-3.66-18.53-6.61-36.73-8.84-18.2-2.22-39.22-3.34-63.04-3.34h-709.76c-12.31,0-21.74,2.62-28.28,7.86-6.55,5.24-9.82,12.05-9.82,20.42,0,13.36,8.57,25.21,25.73,35.55,17.15,10.35,37.96,18.72,62.45,25.14,24.48,6.42,48.12,10.8,70.9,13.16.79,11.53,0,23.63-2.36,36.33-2.36,12.7-6.03,23.9-11,33.58Z" fill="#fff"/><path d="M2775.44,642.98c7.86-16.5,13.68-32.86,17.48-49.1,3.79-16.23,5.7-35.09,5.7-56.56h60.1c2.62,5.24,4.06,9.43,4.32,12.57-6.29,14.4-16.37,30.12-30.24,47.13-13.88,17.02-28.67,32.34-44.38,45.96h-12.96Z" fill="#fff"/><path d="M2940.8,867.65c-.53-3.67-.79-8.05-.79-13.16s.26-9.1.79-11.98h82.48c.52,2.88.79,6.87.79,11.98s-.26,9.49-.79,13.16h-82.48Z" fill="#fff"/><path d="M2878.35,815.81c-4.71-8.64-8.38-20.23-11-34.76-2.62-14.53-3.14-26.51-1.57-35.94,44.51,0,86.67-2.95,126.48-8.84,39.8-5.89,71.62-13.81,95.45-23.76-7.6-17.8-21.47-31.75-41.63-41.83-20.17-10.08-46.22-17.21-78.16-21.41-31.95-4.19-70.96-6.29-117.05-6.29-1.05-12.04-.46-24.28,1.77-36.72,2.22-12.43,5.56-22.84,10.02-31.23h70.7c20.16,10.74,40.06,23.05,59.7,36.92,3.14-13.35,7.86-25.66,14.14-36.92h100.95c4.71,8.91,8.51,19.64,11.39,32.21,2.88,12.57,4.32,24.49,4.32,35.74h-64.02c-10.74,0-18.85.79-24.35,2.36,29.07,25.4,48.96,49.23,59.7,71.49.52,5.24.45,11.07-.2,17.48-.66,6.42-1.9,12.37-3.73,17.87-19.64,20.42-49.36,36.33-89.16,47.72-39.81,11.39-81.05,16.69-123.73,15.91Z" fill="#fff"/><path d="M3295.88,867.65c-.53-3.67-.79-8.05-.79-13.16s.26-9.1.79-11.98h82.48c.52,2.88.79,6.87.79,11.98s-.26,9.49-.79,13.16h-82.48Z" fill="#fff"/><path d="M3335.94,818.95c-7.6-9.95-14.73-21.6-21.41-34.96-6.68-13.36-11.72-26.32-15.12-38.89,16.75-10.21,30.64-22.32,41.64-36.33,11-14,16.5-27.16,16.5-39.47,0-8.11-2.69-14.53-8.05-19.25-5.37-4.71-13.55-7.07-24.55-7.07h-191.68c-.79-11.78-.2-23.89,1.77-36.33,1.96-12.43,4.77-22.98,8.44-31.62h204.64c10.21,36.14,15.32,74.76,15.32,115.87,0,22.78-1.77,45.63-5.3,68.54-3.54,22.92-8.58,42.75-15.12,59.51h-7.07Z" fill="#fff"/></svg>