<?xml version="1.0" encoding="UTF-8"?><svg id="Layer_1" xmlns="http://www.w3.org/2000/svg" viewBox="0 0 1146.51 598.32"><path d="M179.56,153.39c-3.35-4.39-6.5-9.53-9.45-15.43-2.95-5.89-5.17-11.55-6.67-16.99,7.97-5.2,14.39-10.92,19.24-17.16,4.85-6.24,7.28-11.84,7.28-16.81,0-3.47-1.19-6.21-3.55-8.23-2.37-2.02-5.98-3.03-10.83-3.03H62.92c-.35-5.2-.09-10.54.78-16.03.87-5.49,2.11-10.14,3.73-13.95h117.51c4.51,15.95,6.76,32.99,6.76,51.13,0,10.05-.78,20.13-2.34,30.24-1.56,10.11-3.79,18.86-6.67,26.26h-3.12ZM100.35,153.39c-4.97-5.43-8.38-11.93-10.23-19.5-1.85-7.57-2.14-15.43-.87-23.57,1.27-8.15,3.87-15.8,7.8-22.96h1.91c0,8.21,1.73,15.22,5.2,21.06,3.47,5.84,8.49,9.97,15.08,12.39-1.5,6.13-3.81,12.16-6.93,18.11-3.12,5.95-6.53,10.78-10.23,14.47h-1.73Z" fill="#fff"/><path d="M242.47,174.88c-.23-1.62-.35-3.55-.35-5.81s.11-4.02.35-5.29h36.4c.23,1.27.35,3.03.35,5.29s-.12,4.19-.35,5.81h-36.4Z" fill="#fff"/><path d="M248.54,102.95c-2.31,0-4.28-.78-5.89-2.34-1.62-1.56-2.43-3.49-2.43-5.81s.81-4.27,2.43-5.89c1.62-1.62,3.58-2.43,5.89-2.43s4.25.81,5.81,2.43c1.56,1.62,2.34,3.58,2.34,5.89s-.78,4.1-2.34,5.72c-1.56,1.62-3.5,2.43-5.81,2.43Z" fill="#fff"/><path d="M207.46,151.65c-1.85-3.58-3.24-8.26-4.16-14.04-.93-5.78-1.16-11.38-.69-16.81h.87c11.67,0,25.04-1.56,40.12-4.68,15.08-3.12,27.99-7.37,38.74-12.74,10.75-5.37,16.12-11.18,16.12-17.42,0-3.47-1.56-6.04-4.68-7.71-3.12-1.67-7.57-2.51-13.35-2.51h-85.79c-.46-5.08-.26-10.37.61-15.86.87-5.49,2.05-10.2,3.55-14.13h103.99c4.04,6.7,5.95,14.27,5.72,22.7-.23,8.44-3.24,16.35-9.01,23.74l13.35,2.95c.58,2.2.98,4.94,1.21,8.23.23,3.29.23,6.27,0,8.93-6.24,8.44-15.11,15.6-26.6,21.49-11.5,5.89-24.15,10.34-37.96,13.35-13.81,3.01-27.47,4.51-40.99,4.51h-1.04Z" fill="#fff"/><path d="M397.77,151.65c-20.45-4.04-36.69-12.22-48.7-24.52-12.02-12.31-18.03-27.87-18.03-46.71,0-2.08.06-3.64.17-4.68h-18.02c-.35-5.2-.09-10.54.78-16.03.87-5.49,2.11-10.14,3.73-13.95h162.57c1.73-9.82,5.05-18.37,9.97-25.65,4.91-7.28,11.58-13,20.02-17.16,2.66,2.31,5.37,6.79,8.15,13.43,2.77,6.65,4.27,11.82,4.51,15.51-5.55.58-10.72,2.17-15.51,4.77-4.8,2.6-8.7,5.69-11.7,9.27,7.63.23,14.7.87,21.23,1.91,6.53,1.04,11.06,2.43,13.61,4.16,1.5,3.93,2.77,8.73,3.81,14.39,1.04,5.66,1.67,10.98,1.91,15.95l-2.77,1.39c-3.7-2.43-9.25-4.36-16.64-5.81-7.4-1.44-15.25-2.17-23.57-2.17h-130.68c-5.55,0-9.79,1.16-12.74,3.47-2.95,2.31-4.42,5.32-4.42,9.01,0,6.01,2.89,11.3,8.67,15.86,5.78,4.57,13.11,8.23,22.01,11.01,8.9,2.77,18.08,4.68,27.56,5.72.35,5.09,0,10.43-1.04,16.03-1.04,5.61-2.66,10.55-4.85,14.82Z" fill="#fff"/><path d="M549.94,174.88c-.23-1.62-.35-3.55-.35-5.81s.11-4.02.35-5.29h36.4c.23,1.27.35,3.03.35,5.29s-.12,4.19-.35,5.81h-36.4Z" fill="#fff"/><path d="M569.53,114.04c4.27-3.93,7.71-8.35,10.31-13.26,2.6-4.91,3.9-9.45,3.9-13.61,0-3.47-1.01-6.24-3.03-8.32-2.02-2.08-5.17-3.12-9.45-3.12h-32.06c-.35-5.2-.09-10.54.78-16.03.87-5.49,2.11-10.14,3.73-13.95h42.98c3.7,6.59,5.55,14.21,5.55,22.88s-1.97,17.59-5.89,26.08c-3.93,8.49-9.25,15.4-15.95,20.71l-.87-1.39Z" fill="#fff"/><path d="M630.19,177.65c-2.31,0-4.28-.78-5.89-2.34-1.62-1.56-2.43-3.5-2.43-5.81s.81-4.28,2.43-5.89c1.62-1.62,3.58-2.43,5.89-2.43s4.25.81,5.8,2.43c1.56,1.62,2.34,3.58,2.34,5.89s-.78,4.25-2.34,5.81c-1.56,1.56-3.5,2.34-5.8,2.34ZM630.19,201.4c-2.31,0-4.28-.78-5.89-2.34-1.62-1.56-2.43-3.5-2.43-5.81s.81-4.28,2.43-5.89c1.62-1.62,3.58-2.43,5.89-2.43s4.25.81,5.8,2.43c1.56,1.62,2.34,3.58,2.34,5.89s-.78,4.25-2.34,5.81c-1.56,1.56-3.5,2.34-5.8,2.34Z" fill="#fff"/><path d="M630.19,153.39c-3.35-4.39-6.5-9.53-9.45-15.43-2.95-5.89-5.17-11.61-6.67-17.16,7.63-4.04,13.89-9.13,18.81-15.25,4.91-6.12,7.37-12.02,7.37-17.68,0-3.7-1.19-6.64-3.55-8.84-2.37-2.19-5.98-3.29-10.83-3.29h-29.46c-.35-5.2-.09-10.54.78-16.03.87-5.49,2.11-10.14,3.73-13.95h34.66c4.51,15.95,6.76,32.99,6.76,51.13,0,10.05-.78,20.13-2.34,30.24-1.56,10.11-3.79,18.86-6.67,26.26h-3.12Z" fill="#fff"/><path d="M890.17,153.39c-3.24-4.27-6.33-9.42-9.27-15.43-2.95-6.01-5.23-11.73-6.85-17.16,4.39-4.27,7.83-9.07,10.31-14.39,2.48-5.31,3.73-10.34,3.73-15.08s-1.21-8.38-3.64-11.27c-2.43-2.89-6.01-4.33-10.75-4.33h-193.77c-.35-5.2-.09-10.54.78-16.03.87-5.49,2.11-10.14,3.73-13.95h211.1c4.51,15.95,6.76,32.99,6.76,51.13,0,10.05-.78,20.13-2.34,30.24-1.56,10.11-3.79,18.86-6.67,26.26h-3.12ZM717.37,153.39c-4.97-5.43-8.38-11.93-10.23-19.5-1.85-7.57-2.14-15.43-.87-23.57,1.27-8.15,3.87-15.8,7.8-22.96l4.68,1.73c0,7.05,1.56,13.41,4.68,19.07,3.12,5.66,7.39,9.88,12.83,12.65-1.5,6.13-3.84,12.19-7.02,18.2-3.18,6.01-6.56,10.81-10.14,14.39h-1.73Z" fill="#fff"/><path d="M965.73,174.88c-.23-1.62-.35-3.55-.35-5.81s.11-4.02.35-5.29h36.4c.23,1.27.35,3.03.35,5.29s-.12,4.19-.35,5.81h-36.4Z" fill="#fff"/><path d="M986.01,104.86c-2.31,0-4.28-.78-5.89-2.34-1.62-1.56-2.43-3.49-2.43-5.81s.81-4.27,2.43-5.89c1.62-1.62,3.58-2.43,5.89-2.43s4.25.81,5.81,2.43c1.56,1.62,2.34,3.58,2.34,5.89s-.78,4.1-2.34,5.72c-1.56,1.62-3.5,2.43-5.81,2.43Z" fill="#fff"/><path d="M920.67,151.65c-2.77-4.04-5.03-8.9-6.76-14.56-1.73-5.66-2.6-11.09-2.6-16.29,7.51,0,13.11-.06,16.81-.17-.69-16.98,2.71-31.95,10.23-44.89h-33.1c-.35-5.2-.09-10.54.78-16.03.87-5.49,2.11-10.14,3.73-13.95h36.57c1.73,2.31,3.41,6.93,5.03,13.87,5.66-5.08,11.9-8.98,18.72-11.7,6.82-2.71,13.75-4.07,20.8-4.07,9.36,0,18.31,2.43,26.86,7.28,8.55,4.85,15.48,12.16,20.8,21.92,5.31,9.77,7.97,21.75,7.97,35.96-2.43,6.7-10.05,13.38-22.88,20.02-12.83,6.65-28.54,12.08-47.14,16.29-18.6,4.22-37.21,6.33-55.81,6.33ZM929.68,120.28c27.61-.92,51.91-3.03,72.88-6.33,20.97-3.29,34.81-6.96,41.51-11.01,0-6.24-2.25-11.53-6.76-15.86s-10.37-7.57-17.59-9.71c-7.22-2.14-14.88-3.21-22.96-3.21-9.82,0-19.5,1.71-29.03,5.11-9.53,3.41-17.74,8.58-24.61,15.51-6.88,6.93-11.35,15.43-13.43,25.48Z" fill="#fff"/><path d="M1062.27,104.86c-2.31,0-4.28-.78-5.89-2.34-1.62-1.56-2.43-3.49-2.43-5.81s.81-4.27,2.43-5.89c1.62-1.62,3.58-2.43,5.89-2.43s4.25.81,5.81,2.43c1.56,1.62,2.34,3.58,2.34,5.89s-.78,4.1-2.34,5.72c-1.56,1.62-3.5,2.43-5.81,2.43Z" fill="#fff"/><path d="M1075.79,153.39c-3.35-4.39-6.5-9.53-9.45-15.43-2.95-5.89-5.17-11.61-6.67-17.16,7.63-4.04,13.89-9.13,18.81-15.25,4.91-6.12,7.37-12.02,7.37-17.68,0-3.7-1.19-6.64-3.55-8.84-2.37-2.19-5.98-3.29-10.83-3.29h-29.46c-.35-5.2-.09-10.54.78-16.03.87-5.49,2.11-10.14,3.73-13.95h34.66c4.51,15.95,6.76,32.99,6.76,51.13,0,10.05-.78,20.13-2.34,30.24-1.56,10.11-3.79,18.86-6.67,26.26h-3.12Z" fill="#fff"/><path d="M1121.2,114.04c4.27-3.93,7.71-8.35,10.31-13.26,2.6-4.91,3.9-9.45,3.9-13.61,0-3.47-1.01-6.24-3.03-8.32-2.02-2.08-5.17-3.12-9.45-3.12h-32.06c-.35-5.2-.09-10.54.78-16.03.87-5.49,2.11-10.14,3.73-13.95h42.98c3.7,6.59,5.55,14.21,5.55,22.88s-1.97,17.59-5.89,26.08c-3.93,8.49-9.25,15.4-15.95,20.71l-.87-1.39Z" fill="#fff"/><path d="M82.8,354.58c-3.24-11.9-4.85-25.88-4.85-41.94,0-11.67.98-22.88,2.95-33.62-.12,0-.26-.03-.43-.09-.17-.06-.32-.09-.43-.09-2.89-.58-5.95-1.36-9.19-2.34-3.24-.98-6.36-2.11-9.36-3.38.81-5.31,2.17-10.57,4.07-15.77,1.91-5.2,4.07-9.42,6.5-12.65,3,1.5,6.67,2.69,11.01,3.55s8.58,1.3,12.74,1.3h105.55c4.51,15.95,6.76,32.99,6.76,51.13,0,9.48-.69,19.01-2.08,28.6-1.39,9.59-3.35,18.03-5.89,25.3h-117.34ZM199.79,324.59c3.81-9.59,5.72-18.25,5.72-26,0-5.78-1.16-10.4-3.47-13.87-2.31-3.47-5.95-5.2-10.92-5.2h-103.3c-2.31,3.47-4.1,8.12-5.37,13.95-1.27,5.84-1.91,12.11-1.91,18.81,0,4.51.23,8.61.69,12.31h118.55Z" fill="#fff"/><path d="M270.16,381.44c-2.31,0-4.28-.78-5.89-2.34-1.62-1.56-2.43-3.5-2.43-5.81s.81-4.28,2.43-5.89c1.62-1.62,3.58-2.43,5.89-2.43s4.25.81,5.81,2.43c1.56,1.62,2.34,3.58,2.34,5.89s-.78,4.25-2.34,5.81c-1.56,1.56-3.5,2.34-5.81,2.34ZM283.85,398.43c-2.31,0-4.28-.78-5.89-2.34-1.62-1.56-2.43-3.5-2.43-5.81s.81-4.28,2.43-5.89c1.62-1.62,3.58-2.43,5.89-2.43s4.25.81,5.81,2.43c1.56,1.62,2.34,3.58,2.34,5.89s-.78,4.25-2.34,5.81c-1.56,1.56-3.5,2.34-5.81,2.34ZM297.54,415.41c-2.31,0-4.28-.78-5.89-2.34-1.62-1.56-2.43-3.5-2.43-5.81s.81-4.28,2.43-5.89c1.62-1.62,3.58-2.43,5.89-2.43s4.25.81,5.81,2.43c1.56,1.62,2.34,3.58,2.34,5.89s-.78,4.25-2.34,5.81c-1.56,1.56-3.5,2.34-5.81,2.34Z" fill="#fff"/><path d="M265.3,308.48c-2.31,0-4.28-.78-5.89-2.34-1.62-1.56-2.43-3.49-2.43-5.81s.81-4.27,2.43-5.89c1.62-1.62,3.58-2.43,5.89-2.43s4.25.81,5.81,2.43c1.56,1.62,2.34,3.58,2.34,5.89s-.78,4.1-2.34,5.72c-1.56,1.62-3.5,2.43-5.81,2.43Z" fill="#fff"/><path d="M223.54,355.45c-1.73-3.47-3.09-8.32-4.07-14.56-.98-6.24-1.24-11.67-.78-16.29,17.1,0,33.56-1.1,49.4-3.29,15.83-2.19,27.5-5.08,35.01-8.67,5.55-2.54,9.79-5.69,12.74-9.45,2.95-3.75,4.42-7.48,4.42-11.18s-1.47-6.7-4.42-9.01c-2.95-2.31-7.19-3.47-12.74-3.47h-92.03c-.23-5.2.03-10.54.78-16.03.75-5.49,1.88-10.14,3.38-13.95h101.56c2.19,6.24,3.81,12.28,4.85,18.11,1.04,5.84,1.56,11.35,1.56,16.55,0,15.6-4.31,28.74-12.91,39.43-8.61,10.69-20.4,18.66-35.36,23.92-14.96,5.26-32.09,7.89-51.39,7.89Z" fill="#fff"/><path d="M414.53,355.45c-20.45-4.04-36.69-12.22-48.7-24.52-12.02-12.31-18.03-27.87-18.03-46.71,0-2.08.06-3.64.17-4.68h-21.49c-.35-5.2-.09-10.54.78-16.03.87-5.49,2.11-10.14,3.73-13.95h313.01c1.62-9.82,4.88-18.43,9.79-25.82,4.91-7.39,11.64-13.17,20.19-17.33,2.66,2.31,5.37,6.79,8.15,13.43,2.77,6.65,4.27,11.82,4.51,15.51-5.55.58-10.81,2.2-15.77,4.85-4.97,2.66-8.9,5.84-11.79,9.53,9.94.12,18.46.67,25.56,1.65,7.11.98,12.04,2.46,14.82,4.42,1.5,3.93,2.77,8.73,3.81,14.39,1.04,5.66,1.67,10.98,1.91,15.95l-2.77,1.39c-3.7-2.43-9.25-4.36-16.64-5.81-7.4-1.44-15.25-2.17-23.57-2.17h-282.86c-5.55,0-9.79,1.16-12.74,3.47-2.95,2.31-4.42,5.32-4.42,9.01,0,6.01,2.89,11.3,8.67,15.86,5.78,4.57,13.11,8.23,22.01,11,8.9,2.77,18.08,4.68,27.56,5.72.35,5.09,0,10.43-1.04,16.03-1.04,5.61-2.66,10.54-4.85,14.82Z" fill="#fff"/><path d="M748.69,378.67c-.23-1.62-.35-3.55-.35-5.81s.11-4.02.35-5.29h36.4c.23,1.27.35,3.03.35,5.29s-.12,4.19-.35,5.81h-36.4Z" fill="#fff"/><path d="M762.38,308.48c-2.31,0-4.28-.78-5.89-2.34-1.62-1.56-2.43-3.49-2.43-5.81s.81-4.27,2.43-5.89c1.62-1.62,3.58-2.43,5.89-2.43s4.25.81,5.81,2.43c1.56,1.62,2.34,3.58,2.34,5.89s-.78,4.1-2.34,5.72c-1.56,1.62-3.5,2.43-5.81,2.43Z" fill="#fff"/><path d="M720.61,355.45c-1.73-3.47-3.09-8.32-4.07-14.56-.98-6.24-1.24-11.67-.78-16.29,17.1,0,33.56-1.1,49.4-3.29,15.83-2.19,27.5-5.08,35.01-8.67,5.55-2.54,9.79-5.69,12.74-9.45,2.95-3.75,4.42-7.48,4.42-11.18s-1.47-6.7-4.42-9.01c-2.95-2.31-7.19-3.47-12.74-3.47h-92.03c-.23-5.2.03-10.54.78-16.03.75-5.49,1.88-10.14,3.38-13.95h101.56c2.19,6.24,3.81,12.28,4.85,18.11,1.04,5.84,1.56,11.35,1.56,16.55,0,15.6-4.31,28.74-12.91,39.43-8.61,10.69-20.39,18.66-35.36,23.92-14.96,5.26-32.09,7.89-51.39,7.89Z" fill="#fff"/><path d="M870.36,356.31c-9.82-13.06-17.22-26.05-22.19-39-4.97-12.94-7.34-25.53-7.11-37.78h-17.51c-.35-5.31-.12-10.72.69-16.21.81-5.49,2.02-10.08,3.64-13.78h123.92c1.73,3.93,3.35,9.45,4.85,16.55,1.5,7.11,2.25,14.01,2.25,20.71,0,13.75-3.67,25.88-11.01,36.4-7.34,10.52-17.71,18.66-31.11,24.44-13.41,5.78-28.89,8.67-46.45,8.67ZM862.73,325.98c16.64,0,32.15-1.53,46.54-4.59,14.39-3.06,25.91-7.37,34.58-12.91,8.67-5.55,13-11.9,13-19.07,0-3-.84-5.4-2.51-7.19-1.68-1.79-3.96-2.69-6.85-2.69h-104.16c0,4.85.98,10.37,2.95,16.55,1.96,6.18,4.45,12.02,7.45,17.51,3,5.49,6.01,9.62,9.01,12.39Z" fill="#fff"/><path d="M1022.36,378.67c-.23-1.62-.35-3.55-.35-5.81s.11-4.02.35-5.29h36.4c.23,1.27.35,3.03.35,5.29s-.12,4.19-.35,5.81h-36.4Z" fill="#fff"/><path d="M977.3,355.45c-2.77-4.04-5.03-8.9-6.76-14.56-1.73-5.66-2.6-11.09-2.6-16.29,7.51,0,13.11-.06,16.81-.17-.69-16.99,2.71-31.95,10.23-44.89h-33.1c-.35-5.2-.09-10.54.78-16.03.87-5.49,2.11-10.14,3.73-13.95h36.57c1.73,2.31,3.41,6.93,5.03,13.87,5.66-5.08,11.9-8.98,18.72-11.7,6.82-2.71,13.75-4.07,20.8-4.07,9.36,0,18.31,2.43,26.86,7.28,8.55,4.85,15.48,12.16,20.8,21.92,5.31,9.77,7.97,21.75,7.97,35.96-2.43,6.7-10.05,13.38-22.88,20.02-12.83,6.65-28.54,12.08-47.14,16.29-18.6,4.22-37.21,6.33-55.81,6.33ZM986.31,324.08c27.61-.92,51.91-3.03,72.88-6.33,20.97-3.29,34.81-6.96,41.51-11.01,0-6.24-2.25-11.53-6.76-15.86s-10.37-7.57-17.59-9.71c-7.22-2.14-14.88-3.21-22.96-3.21-9.82,0-19.5,1.71-29.03,5.11-9.53,3.41-17.74,8.58-24.61,15.51-6.88,6.93-11.35,15.43-13.43,25.48Z" fill="#fff"/><path d="M1118.9,308.65c-2.31,0-4.28-.78-5.89-2.34-1.62-1.56-2.43-3.49-2.43-5.81s.81-4.27,2.43-5.89c1.62-1.62,3.58-2.43,5.89-2.43s4.25.81,5.81,2.43c1.56,1.62,2.34,3.58,2.34,5.89s-.78,4.1-2.34,5.72c-1.56,1.62-3.5,2.43-5.81,2.43Z" fill="#fff"/><path d="M1132.42,357.18c-3.35-4.39-6.5-9.53-9.45-15.42-2.95-5.89-5.17-11.61-6.67-17.16,7.63-4.04,13.89-9.13,18.81-15.25,4.91-6.12,7.37-12.02,7.37-17.68,0-3.7-1.19-6.64-3.55-8.84-2.37-2.19-5.98-3.29-10.83-3.29h-29.46c-.35-5.2-.09-10.54.78-16.03.87-5.49,2.11-10.14,3.73-13.95h34.66c4.51,15.95,6.76,32.99,6.76,51.13,0,10.05-.78,20.13-2.34,30.24-1.56,10.11-3.79,18.87-6.67,26.26h-3.12Z" fill="#fff"/><path d="M116.82,498.66c-1.27-3.81-2.31-8.61-3.12-14.39-.81-5.78-1.21-10.86-1.21-15.25,5.78.46,10.4.69,13.87.69,14.56,0,26.23-.46,35.01-1.39,8.78-.92,13.17-2.66,13.17-5.2s-4.39-4.22-13.17-5.03c-8.78-.81-20.68-1.21-35.7-1.21h-2.08c-8.55,0-15.31.23-20.28.69-4.97.46-9.36,1.5-13.17,3.12-5.55,2.54-9.59,6.7-12.13,12.48-2.31.58-4.62.58-6.93,0-.23-6.93.26-14.3,1.47-22.1,1.21-7.8,2.86-14.07,4.94-18.8,17.22-2.19,31.95-3.29,44.2-3.29,19.18,0,33.3,2.37,42.38,7.11,9.07,4.74,13.61,12.19,13.61,22.36,0,6.01-2.92,11.29-8.75,15.86-5.84,4.57-12.57,7.89-20.19,9.97l-2.08.69c-9.94,2.89-16.58,5.26-19.93,7.11-3.81,1.97-6.13,4.16-6.93,6.59-.93.23-1.91.23-2.95,0ZM117.16,541.99c-3.58-2.66-7.08-5.69-10.49-9.1-3.41-3.41-6.1-6.61-8.06-9.62,2.19-3.81,5.08-7.51,8.67-11.09s7.22-6.47,10.92-8.67c3.47,2.54,6.9,5.55,10.31,9.01,3.41,3.47,6.15,6.76,8.23,9.88-2.2,3.7-5.09,7.34-8.67,10.92-3.58,3.58-7.22,6.47-10.92,8.67Z" fill="#fff"/><path d="M211.28,500.74c4.27-3.93,7.71-8.35,10.31-13.26,2.6-4.91,3.9-9.45,3.9-13.61,0-3.47-1.01-6.24-3.03-8.32-2.02-2.08-5.17-3.12-9.45-3.12h-32.06c-.35-5.2-.09-10.54.78-16.03.87-5.49,2.11-10.14,3.73-13.95h42.98c3.7,6.59,5.55,14.21,5.55,22.88s-1.97,17.59-5.89,26.08c-3.93,8.49-9.25,15.4-15.95,20.71l-.87-1.39Z" fill="#fff"/><path d="M263.96,564.35c-2.31,0-4.28-.78-5.89-2.34-1.62-1.56-2.43-3.5-2.43-5.81s.81-4.28,2.43-5.89c1.62-1.62,3.58-2.43,5.89-2.43s4.25.81,5.81,2.43c1.56,1.62,2.34,3.58,2.34,5.89s-.78,4.25-2.34,5.81c-1.56,1.56-3.5,2.34-5.81,2.34Z" fill="#fff"/><path d="M251.66,538.7c-1.97-3.93-3.5-8.58-4.59-13.95-1.1-5.37-1.65-11.12-1.65-17.25,8.09,0,15.28-1.5,21.58-4.51,6.3-3,11.18-6.96,14.65-11.87,3.47-4.91,5.2-10.14,5.2-15.68,0-4.74-1.56-9.07-4.68-13h-44.02c-.35-5.2-.09-10.54.78-16.03.87-5.49,2.11-10.14,3.73-13.95h39.34c4.74,13.52,7.11,26.92,7.11,40.21,0,18.49-2.86,33.51-8.58,45.06-5.72,11.56-15.34,18.55-28.86,20.97Z" fill="#fff"/><path d="M312.32,491.56c-2.31,0-4.28-.78-5.89-2.34-1.62-1.56-2.43-3.49-2.43-5.81s.81-4.27,2.43-5.89c1.62-1.62,3.58-2.43,5.89-2.43s4.25.81,5.81,2.43c1.56,1.62,2.34,3.58,2.34,5.89s-.78,4.1-2.34,5.72c-1.56,1.62-3.5,2.43-5.81,2.43Z" fill="#fff"/><path d="M325.84,540.09c-3.35-4.39-6.5-9.53-9.45-15.42-2.95-5.89-5.17-11.61-6.67-17.16,7.63-4.04,13.89-9.13,18.81-15.25,4.91-6.12,7.37-12.02,7.37-17.68,0-3.7-1.19-6.64-3.55-8.84-2.37-2.19-5.98-3.29-10.83-3.29h-29.46c-.35-5.2-.09-10.54.78-16.03.87-5.49,2.11-10.14,3.73-13.95h34.66c4.51,15.95,6.76,32.99,6.76,51.13,0,10.05-.78,20.13-2.34,30.24-1.56,10.11-3.79,18.87-6.67,26.26h-3.12Z" fill="#fff"/><path d="M352.53,539.74c-1.97-3.47-3.53-8.55-4.68-15.25-1.16-6.7-1.45-12.36-.87-16.99,12.71,0,25.48-.4,38.3-1.21,4.62-2.89,8.15-6.64,10.57-11.27,2.43-4.62,3.64-9.24,3.64-13.87,0-5.31-1.62-9.76-4.85-13.34-3.24-3.58-7.8-5.37-13.69-5.37h-40.04c-.35-5.2-.09-10.54.78-16.03.87-5.49,2.11-10.14,3.73-13.95h44.54c4.27,11.09,7.57,22.88,9.88,35.36,2.31,12.48,3.41,24.84,3.29,37.09,20.91-2.19,36.05-5.31,45.41-9.36,6.7-2.77,11.79-6.07,15.25-9.88,3.47-3.81,5.2-7.51,5.2-11.09s-1.65-6.35-4.94-8.67c-3.29-2.31-7.77-3.47-13.43-3.47h-48.01c-.35-5.2-.09-10.54.78-16.03.87-5.49,2.11-10.14,3.73-13.95h58.06c4.85,12.25,7.28,23.8,7.28,34.66,0,15.48-5.43,28.68-16.29,39.6-10.86,10.92-25.42,19.15-43.68,24.7-18.26,5.55-38.25,8.32-59.97,8.32Z" fill="#fff"/><path d="M506.09,500.74c4.27-3.93,7.71-8.35,10.31-13.26,2.6-4.91,3.9-9.45,3.9-13.61,0-3.47-1.01-6.24-3.03-8.32-2.02-2.08-5.17-3.12-9.45-3.12h-32.06c-.35-5.2-.09-10.54.78-16.03.87-5.49,2.11-10.14,3.73-13.95h42.98c3.7,6.59,5.55,14.21,5.55,22.88s-1.97,17.59-5.89,26.08c-3.93,8.49-9.25,15.4-15.95,20.71l-.87-1.39Z" fill="#fff"/><path d="M598.99,564.35c-2.31,0-4.28-.78-5.89-2.34-1.62-1.56-2.43-3.5-2.43-5.81s.81-4.28,2.43-5.89c1.62-1.62,3.58-2.43,5.89-2.43s4.25.81,5.81,2.43c1.56,1.62,2.34,3.58,2.34,5.89s-.78,4.25-2.34,5.81c-1.56,1.56-3.5,2.34-5.81,2.34Z" fill="#fff"/><path d="M586.86,489.65c-2.31,0-4.28-.78-5.89-2.34-1.62-1.56-2.43-3.49-2.43-5.81s.81-4.27,2.43-5.89c1.62-1.62,3.58-2.43,5.89-2.43s4.25.81,5.81,2.43c1.56,1.62,2.34,3.58,2.34,5.89s-.78,4.1-2.34,5.72c-1.56,1.62-3.5,2.43-5.81,2.43Z" fill="#fff"/><path d="M545.78,538.35c-1.85-3.58-3.24-8.26-4.16-14.04-.93-5.78-1.16-11.38-.69-16.81h.87c11.67,0,25.04-1.56,40.12-4.68,15.08-3.12,27.99-7.37,38.74-12.74,10.75-5.37,16.12-11.18,16.12-17.42,0-3.47-1.56-6.04-4.68-7.71-3.12-1.67-7.57-2.51-13.35-2.51h-85.79c-.46-5.08-.26-10.37.61-15.86.87-5.49,2.05-10.2,3.55-14.12h103.99c4.04,6.7,5.95,14.27,5.72,22.71-.23,8.44-3.24,16.35-9.01,23.74l13.35,2.95c.58,2.2.98,4.94,1.21,8.23.23,3.29.23,6.27,0,8.93-6.24,8.44-15.11,15.6-26.6,21.49-11.5,5.89-24.15,10.34-37.96,13.35-13.81,3.01-27.47,4.51-40.99,4.51h-1.04Z" fill="#fff"/><path d="M906.63,564.35c-2.31,0-4.28-.78-5.89-2.34-1.62-1.56-2.43-3.5-2.43-5.81s.81-4.28,2.43-5.89c1.62-1.62,3.58-2.43,5.89-2.43s4.25.81,5.81,2.43c1.56,1.62,2.34,3.58,2.34,5.89s-.78,4.25-2.34,5.81c-1.56,1.56-3.5,2.34-5.81,2.34ZM906.63,588.1c-2.31,0-4.28-.78-5.89-2.34-1.62-1.56-2.43-3.5-2.43-5.81s.81-4.28,2.43-5.89c1.62-1.62,3.58-2.43,5.89-2.43s4.25.81,5.81,2.43c1.56,1.62,2.34,3.58,2.34,5.89s-.78,4.25-2.34,5.81-3.5,2.34-5.81,2.34Z" fill="#fff"/><path d="M910.79,492.42c-2.31,0-4.28-.78-5.89-2.34-1.62-1.56-2.43-3.49-2.43-5.81s.81-4.27,2.43-5.89c1.62-1.62,3.58-2.43,5.89-2.43s4.25.81,5.81,2.43c1.56,1.62,2.34,3.58,2.34,5.89s-.78,4.1-2.34,5.72c-1.56,1.62-3.5,2.43-5.81,2.43Z" fill="#fff"/><path d="M1128.31,540.09c-3.35-4.39-6.5-9.53-9.45-15.42-2.95-5.89-5.17-11.61-6.67-17.16,6.93-4.16,13-9.33,18.2-15.51,5.2-6.18,7.8-12.22,7.8-18.11,0-3.47-1.3-6.24-3.9-8.32-2.6-2.08-6.04-3.12-10.31-3.12h-430.35c2.89,9.48,4.33,18.66,4.33,27.56,0,13.75-3.35,25.1-10.05,34.06-6.7,8.96-15.83,14.01-27.38,15.17-1.97-4.04-3.32-8.9-4.07-14.56-.75-5.66-.84-11.38-.26-17.16,7.28,0,13.61-1.79,18.98-5.37,5.37-3.58,9.47-8,12.31-13.26,2.83-5.26,4.25-10.37,4.25-15.34s-.52-8.43-1.56-11.09h-38.65c-.35-5.2-.09-10.54.78-16.03.87-5.49,2.11-10.14,3.73-13.95h477.67c4.51,15.95,6.76,32.99,6.76,51.13,0,10.05-.78,20.13-2.34,30.24-1.56,10.11-3.79,18.87-6.67,26.26h-3.12Z" fill="#fff"/></svg>