<?xml version="1.0" encoding="UTF-8"?><svg id="Layer_1" xmlns="http://www.w3.org/2000/svg" viewBox="0 0 1506.91 560.02"><path d="M373.79,137.77c-3.01-3.94-5.84-8.56-8.48-13.86-2.65-5.29-4.65-10.38-5.99-15.26,7.16-4.67,12.92-9.81,17.28-15.41,4.36-5.6,6.54-10.64,6.54-15.1,0-3.11-1.07-5.58-3.19-7.39-2.13-1.81-5.37-2.72-9.73-2.72h-101.19c-.31-4.67-.08-9.47.7-14.4.78-4.93,1.89-9.11,3.35-12.53h105.55c4.05,14.32,6.07,29.63,6.07,45.92,0,9.03-.7,18.08-2.1,27.16-1.4,9.08-3.4,16.94-5.99,23.58h-2.8ZM302.65,137.77c-4.46-4.88-7.53-10.71-9.18-17.51-1.66-6.8-1.92-13.85-.78-21.17,1.14-7.32,3.48-14.19,7-20.63h1.71c0,7.37,1.56,13.67,4.67,18.91,3.11,5.24,7.63,8.95,13.54,11.13-1.35,5.5-3.42,10.92-6.23,16.27-2.8,5.35-5.86,9.68-9.18,13h-1.56Z" fill="#fff"/><path d="M430.3,157.07c-.21-1.46-.31-3.19-.31-5.22s.1-3.61.31-4.75h32.69c.21,1.14.31,2.72.31,4.75s-.1,3.76-.31,5.22h-32.69Z" fill="#fff"/><path d="M435.75,92.47c-2.08,0-3.84-.7-5.29-2.1-1.45-1.4-2.18-3.14-2.18-5.21s.72-3.84,2.18-5.29c1.45-1.45,3.22-2.18,5.29-2.18s3.81.73,5.22,2.18c1.4,1.45,2.1,3.22,2.1,5.29s-.7,3.68-2.1,5.14c-1.4,1.46-3.14,2.18-5.22,2.18Z" fill="#fff"/><path d="M398.85,136.21c-1.66-3.22-2.91-7.42-3.74-12.61-.83-5.19-1.04-10.22-.62-15.1h.78c10.48,0,22.49-1.4,36.04-4.2,13.54-2.8,25.14-6.62,34.79-11.44,9.65-4.83,14.48-10.04,14.48-15.64,0-3.11-1.4-5.42-4.2-6.93-2.8-1.5-6.8-2.26-11.99-2.26h-77.06c-.42-4.57-.23-9.31.54-14.24.78-4.93,1.84-9.16,3.19-12.69h93.4c3.63,6.02,5.34,12.82,5.14,20.39-.21,7.58-2.91,14.69-8.1,21.33l11.99,2.65c.52,1.97.88,4.44,1.09,7.39.21,2.96.21,5.63,0,8.02-5.6,7.58-13.57,14.01-23.9,19.3-10.33,5.29-21.69,9.29-34.09,11.99-12.4,2.7-24.67,4.05-36.82,4.05h-.93Z" fill="#fff"/><path d="M569.78,136.21c-18.37-3.63-32.95-10.98-43.74-22.03-10.79-11.05-16.19-25.04-16.19-41.95,0-1.87.05-3.27.16-4.2h-16.19c-.31-4.67-.08-9.47.7-14.4.78-4.93,1.89-9.11,3.35-12.53h146.02c1.56-8.82,4.54-16.5,8.95-23.04,4.41-6.54,10.4-11.67,17.98-15.41,2.39,2.08,4.83,6.1,7.32,12.06,2.49,5.97,3.84,10.61,4.05,13.93-4.98.52-9.63,1.95-13.93,4.28-4.31,2.33-7.81,5.11-10.51,8.33,6.85.21,13.21.78,19.07,1.71,5.86.93,9.94,2.18,12.22,3.74,1.35,3.53,2.49,7.84,3.42,12.92.93,5.09,1.5,9.86,1.71,14.32l-2.49,1.25c-3.32-2.18-8.3-3.92-14.94-5.22-6.64-1.3-13.7-1.95-21.17-1.95h-117.38c-4.98,0-8.8,1.04-11.44,3.11-2.65,2.08-3.97,4.77-3.97,8.09,0,5.4,2.59,10.15,7.78,14.24,5.19,4.1,11.78,7.39,19.77,9.89,7.99,2.49,16.24,4.2,24.75,5.14.31,4.57,0,9.37-.93,14.4-.93,5.04-2.39,9.47-4.36,13.31Z" fill="#fff"/><path d="M706.46,157.07c-.21-1.46-.31-3.19-.31-5.22s.1-3.61.31-4.75h32.69c.21,1.14.31,2.72.31,4.75s-.1,3.76-.31,5.22h-32.69Z" fill="#fff"/><path d="M724.05,102.43c3.84-3.53,6.93-7.5,9.26-11.91,2.33-4.41,3.5-8.48,3.5-12.22,0-3.11-.91-5.6-2.72-7.47-1.82-1.87-4.65-2.8-8.48-2.8h-28.8c-.31-4.67-.08-9.47.7-14.4.78-4.93,1.89-9.11,3.35-12.53h38.61c3.32,5.92,4.98,12.77,4.98,20.55s-1.77,15.8-5.29,23.43c-3.53,7.63-8.3,13.83-14.32,18.6l-.78-1.25Z" fill="#fff"/><path d="M778.54,159.56c-2.08,0-3.84-.7-5.29-2.1s-2.18-3.14-2.18-5.21.73-3.84,2.18-5.29c1.45-1.45,3.22-2.18,5.29-2.18s3.81.73,5.21,2.18c1.4,1.45,2.1,3.22,2.1,5.29s-.7,3.81-2.1,5.21c-1.4,1.4-3.14,2.1-5.21,2.1ZM778.54,180.89c-2.08,0-3.84-.7-5.29-2.1s-2.18-3.14-2.18-5.21.73-3.84,2.18-5.29c1.45-1.45,3.22-2.18,5.29-2.18s3.81.73,5.21,2.18c1.4,1.45,2.1,3.22,2.1,5.29s-.7,3.81-2.1,5.21c-1.4,1.4-3.14,2.1-5.21,2.1Z" fill="#fff"/><path d="M778.54,137.77c-3.01-3.94-5.84-8.56-8.48-13.86-2.65-5.29-4.65-10.43-5.99-15.41,6.85-3.63,12.48-8.2,16.89-13.7,4.41-5.5,6.62-10.79,6.62-15.88,0-3.32-1.07-5.97-3.19-7.94-2.13-1.97-5.37-2.96-9.73-2.96h-26.46c-.31-4.67-.08-9.47.7-14.4.78-4.93,1.89-9.11,3.35-12.53h31.13c4.05,14.32,6.07,29.63,6.07,45.92,0,9.03-.7,18.08-2.1,27.16-1.4,9.08-3.4,16.94-5.99,23.58h-2.8Z" fill="#fff"/><path d="M1012.05,137.77c-2.91-3.84-5.68-8.46-8.33-13.86-2.65-5.39-4.7-10.53-6.15-15.41,3.94-3.84,7.03-8.15,9.26-12.92,2.23-4.77,3.35-9.29,3.35-13.54s-1.09-7.52-3.27-10.12c-2.18-2.59-5.4-3.89-9.65-3.89h-174.04c-.31-4.67-.08-9.47.7-14.4.78-4.93,1.89-9.11,3.35-12.53h189.61c4.05,14.32,6.07,29.63,6.07,45.92,0,9.03-.7,18.08-2.1,27.16-1.4,9.08-3.4,16.94-5.99,23.58h-2.8ZM856.84,137.77c-4.46-4.88-7.53-10.71-9.18-17.51-1.66-6.8-1.92-13.85-.78-21.17,1.14-7.32,3.48-14.19,7-20.63l4.2,1.56c0,6.33,1.4,12.04,4.2,17.12,2.8,5.09,6.64,8.87,11.52,11.36-1.35,5.5-3.45,10.95-6.31,16.35-2.86,5.4-5.89,9.71-9.11,12.92h-1.56Z" fill="#fff"/><path d="M1079.92,157.07c-.21-1.46-.31-3.19-.31-5.22s.1-3.61.31-4.75h32.69c.21,1.14.31,2.72.31,4.75s-.1,3.76-.31,5.22h-32.69Z" fill="#fff"/><path d="M1098.13,94.18c-2.08,0-3.84-.7-5.29-2.1-1.45-1.4-2.18-3.14-2.18-5.21s.73-3.84,2.18-5.29c1.45-1.45,3.22-2.18,5.29-2.18s3.81.73,5.21,2.18c1.4,1.46,2.1,3.22,2.1,5.29s-.7,3.69-2.1,5.14c-1.4,1.45-3.14,2.18-5.21,2.18Z" fill="#fff"/><path d="M1039.44,136.21c-2.49-3.63-4.51-7.99-6.07-13.08-1.56-5.08-2.33-9.96-2.33-14.63,6.75,0,11.78-.05,15.1-.16-.62-15.26,2.44-28.7,9.18-40.32h-29.73c-.31-4.67-.08-9.47.7-14.4.78-4.93,1.89-9.11,3.35-12.53h32.85c1.56,2.08,3.06,6.23,4.51,12.45,5.08-4.57,10.69-8.07,16.81-10.51,6.12-2.44,12.35-3.66,18.68-3.66,8.41,0,16.45,2.18,24.13,6.54,7.68,4.36,13.91,10.92,18.68,19.69,4.77,8.77,7.16,19.54,7.16,32.3-2.18,6.02-9.03,12.01-20.55,17.98-11.52,5.97-25.63,10.85-42.34,14.63-16.71,3.79-33.42,5.68-50.13,5.68ZM1047.54,108.04c24.8-.83,46.62-2.72,65.46-5.68,18.84-2.96,31.26-6.25,37.28-9.88,0-5.6-2.02-10.35-6.07-14.24-4.05-3.89-9.32-6.8-15.8-8.72-6.49-1.92-13.36-2.88-20.63-2.88-8.82,0-17.51,1.53-26.08,4.59-8.56,3.06-15.93,7.71-22.11,13.93-6.18,6.23-10.2,13.85-12.07,22.88Z" fill="#fff"/><path d="M1166.63,94.18c-2.08,0-3.84-.7-5.29-2.1-1.45-1.4-2.18-3.14-2.18-5.21s.73-3.84,2.18-5.29c1.45-1.45,3.22-2.18,5.29-2.18s3.81.73,5.21,2.18c1.4,1.46,2.1,3.22,2.1,5.29s-.7,3.69-2.1,5.14c-1.4,1.45-3.14,2.18-5.21,2.18Z" fill="#fff"/><path d="M1178.77,137.77c-3.01-3.94-5.84-8.56-8.48-13.86-2.65-5.29-4.65-10.43-5.99-15.41,6.85-3.63,12.48-8.2,16.89-13.7,4.41-5.5,6.62-10.79,6.62-15.88,0-3.32-1.07-5.97-3.19-7.94-2.13-1.97-5.37-2.96-9.73-2.96h-26.46c-.31-4.67-.08-9.47.7-14.4.78-4.93,1.89-9.11,3.35-12.53h31.13c4.05,14.32,6.07,29.63,6.07,45.92,0,9.03-.7,18.08-2.1,27.16-1.4,9.08-3.4,16.94-5.99,23.58h-2.8Z" fill="#fff"/><path d="M1219.56,102.43c3.84-3.53,6.93-7.5,9.26-11.91,2.33-4.41,3.5-8.48,3.5-12.22,0-3.11-.91-5.6-2.72-7.47-1.82-1.87-4.65-2.8-8.48-2.8h-28.8c-.31-4.67-.08-9.47.7-14.4.78-4.93,1.89-9.11,3.35-12.53h38.61c3.32,5.92,4.98,12.77,4.98,20.55s-1.77,15.8-5.29,23.43c-3.53,7.63-8.3,13.83-14.32,18.6l-.78-1.25Z" fill="#fff"/><path d="M19.15,334.22c-2.91-10.69-4.36-23.25-4.36-37.67,0-10.48.88-20.55,2.65-30.2-.1,0-.23-.02-.39-.08-.16-.05-.29-.08-.39-.08-2.6-.52-5.35-1.22-8.25-2.1-2.91-.88-5.71-1.89-8.41-3.04.72-4.77,1.95-9.5,3.66-14.17,1.71-4.67,3.66-8.46,5.84-11.36,2.7,1.35,5.99,2.41,9.89,3.19,3.89.78,7.71,1.17,11.44,1.17h94.8c4.05,14.32,6.07,29.63,6.07,45.92,0,8.51-.62,17.07-1.87,25.69-1.25,8.62-3.01,16.19-5.29,22.73H19.15ZM124.23,307.29c3.42-8.61,5.14-16.4,5.14-23.35,0-5.19-1.04-9.34-3.11-12.45-2.08-3.11-5.35-4.67-9.81-4.67H23.66c-2.08,3.11-3.69,7.29-4.83,12.53-1.14,5.24-1.71,10.87-1.71,16.89,0,4.05.21,7.73.62,11.05h106.48Z" fill="#fff"/><path d="M187.43,358.35c-2.08,0-3.84-.7-5.29-2.1-1.45-1.4-2.18-3.14-2.18-5.21s.72-3.84,2.18-5.29c1.45-1.45,3.22-2.18,5.29-2.18s3.81.73,5.22,2.18c1.4,1.45,2.1,3.22,2.1,5.29s-.7,3.81-2.1,5.21c-1.4,1.4-3.14,2.1-5.22,2.1ZM199.73,373.6c-2.08,0-3.84-.7-5.29-2.1-1.45-1.4-2.18-3.14-2.18-5.21s.72-3.84,2.18-5.29c1.45-1.45,3.22-2.18,5.29-2.18s3.81.73,5.21,2.18c1.4,1.45,2.1,3.22,2.1,5.29s-.7,3.81-2.1,5.21c-1.4,1.4-3.14,2.1-5.21,2.1ZM212.03,388.86c-2.08,0-3.84-.7-5.29-2.1-1.45-1.4-2.18-3.14-2.18-5.21s.73-3.84,2.18-5.29c1.45-1.45,3.22-2.18,5.29-2.18s3.81.73,5.22,2.18c1.4,1.45,2.1,3.21,2.1,5.29s-.7,3.81-2.1,5.21c-1.4,1.4-3.14,2.1-5.22,2.1Z" fill="#fff"/><path d="M183.07,292.81c-2.08,0-3.84-.7-5.29-2.1-1.45-1.4-2.18-3.14-2.18-5.21s.72-3.84,2.18-5.29c1.45-1.45,3.22-2.18,5.29-2.18s3.81.73,5.22,2.18c1.4,1.45,2.1,3.22,2.1,5.29s-.7,3.68-2.1,5.14c-1.4,1.46-3.14,2.18-5.22,2.18Z" fill="#fff"/><path d="M145.55,335c-1.56-3.11-2.78-7.47-3.66-13.08-.88-5.6-1.12-10.48-.7-14.63,15.36,0,30.15-.99,44.37-2.96,14.22-1.97,24.7-4.57,31.45-7.78,4.98-2.28,8.8-5.11,11.44-8.48,2.65-3.37,3.97-6.72,3.97-10.04s-1.32-6.02-3.97-8.09c-2.65-2.08-6.46-3.11-11.44-3.11h-82.66c-.21-4.67.02-9.47.7-14.4.67-4.93,1.69-9.11,3.04-12.53h91.22c1.97,5.6,3.42,11.03,4.36,16.27.93,5.24,1.4,10.2,1.4,14.87,0,14.01-3.87,25.82-11.6,35.42-7.73,9.6-18.32,16.76-31.76,21.48-13.44,4.72-28.83,7.08-46.16,7.08Z" fill="#fff"/><path d="M317.1,335c-18.37-3.63-32.95-10.98-43.74-22.03-10.79-11.05-16.19-25.04-16.19-41.95,0-1.87.05-3.27.16-4.2h-19.3c-.31-4.67-.08-9.47.7-14.4.78-4.93,1.89-9.11,3.35-12.53h281.14c1.45-8.82,4.38-16.55,8.8-23.2,4.41-6.64,10.45-11.83,18.14-15.57,2.39,2.08,4.83,6.1,7.32,12.06,2.49,5.97,3.84,10.61,4.05,13.93-4.98.52-9.71,1.97-14.17,4.36-4.46,2.39-7.99,5.24-10.59,8.56,8.92.1,16.58.6,22.96,1.48,6.38.88,10.82,2.21,13.31,3.97,1.35,3.53,2.49,7.84,3.42,12.92.93,5.09,1.5,9.86,1.71,14.32l-2.49,1.25c-3.32-2.18-8.3-3.92-14.94-5.22-6.64-1.3-13.7-1.95-21.17-1.95h-254.06c-4.98,0-8.8,1.04-11.44,3.11-2.65,2.08-3.97,4.77-3.97,8.09,0,5.4,2.59,10.15,7.78,14.24,5.19,4.1,11.78,7.39,19.77,9.89,7.99,2.49,16.24,4.2,24.75,5.14.31,4.57,0,9.37-.93,14.4-.93,5.04-2.39,9.47-4.36,13.31Z" fill="#fff"/><path d="M617.24,355.86c-.21-1.46-.31-3.19-.31-5.22s.1-3.61.31-4.75h32.69c.21,1.14.31,2.72.31,4.75s-.1,3.76-.31,5.22h-32.69Z" fill="#fff"/><path d="M629.54,292.81c-2.08,0-3.84-.7-5.29-2.1-1.45-1.4-2.18-3.14-2.18-5.21s.72-3.84,2.18-5.29c1.45-1.45,3.22-2.18,5.29-2.18s3.81.73,5.22,2.18c1.4,1.45,2.1,3.22,2.1,5.29s-.7,3.68-2.1,5.14c-1.4,1.46-3.14,2.18-5.22,2.18Z" fill="#fff"/><path d="M592.02,335c-1.56-3.11-2.78-7.47-3.66-13.08-.88-5.6-1.12-10.48-.7-14.63,15.36,0,30.15-.99,44.37-2.96,14.22-1.97,24.7-4.57,31.45-7.78,4.98-2.28,8.8-5.11,11.44-8.48,2.65-3.37,3.97-6.72,3.97-10.04s-1.32-6.02-3.97-8.09c-2.65-2.08-6.46-3.11-11.44-3.11h-82.66c-.21-4.67.02-9.47.7-14.4.67-4.93,1.69-9.11,3.04-12.53h91.22c1.97,5.6,3.42,11.03,4.36,16.27.93,5.24,1.4,10.2,1.4,14.87,0,14.01-3.87,25.82-11.6,35.42-7.73,9.6-18.32,16.76-31.76,21.48-13.44,4.72-28.83,7.08-46.16,7.08Z" fill="#fff"/><path d="M726.52,335.78c-8.82-11.73-15.46-23.4-19.93-35.03-4.46-11.62-6.59-22.94-6.38-33.94h-15.72c-.31-4.77-.1-9.62.62-14.56.72-4.93,1.81-9.05,3.27-12.38h111.3c1.56,3.53,3.01,8.48,4.36,14.87,1.35,6.38,2.02,12.58,2.02,18.6,0,12.35-3.29,23.25-9.88,32.69-6.59,9.44-15.91,16.76-27.94,21.95-12.04,5.19-25.95,7.78-41.72,7.78ZM719.67,308.53c14.94,0,28.88-1.37,41.8-4.12,12.92-2.75,23.27-6.62,31.06-11.6s11.68-10.69,11.68-17.12c0-2.7-.75-4.85-2.26-6.46-1.51-1.61-3.56-2.41-6.15-2.41h-93.56c0,4.36.88,9.32,2.65,14.87,1.76,5.55,3.99,10.79,6.69,15.72,2.7,4.93,5.4,8.64,8.09,11.13Z" fill="#fff"/><path d="M863.05,355.86c-.21-1.46-.31-3.19-.31-5.22s.1-3.61.31-4.75h32.69c.21,1.14.31,2.72.31,4.75s-.1,3.76-.31,5.22h-32.69Z" fill="#fff"/><path d="M822.57,335c-2.49-3.63-4.51-7.99-6.07-13.08-1.56-5.08-2.33-9.96-2.33-14.63,6.75,0,11.78-.05,15.1-.16-.62-15.26,2.44-28.7,9.18-40.32h-29.73c-.31-4.67-.08-9.47.7-14.4.78-4.93,1.89-9.11,3.35-12.53h32.85c1.56,2.08,3.06,6.23,4.51,12.45,5.08-4.57,10.69-8.07,16.81-10.51,6.12-2.44,12.35-3.66,18.68-3.66,8.41,0,16.45,2.18,24.13,6.54,7.68,4.36,13.91,10.92,18.68,19.69,4.77,8.77,7.16,19.54,7.16,32.3-2.18,6.02-9.03,12.01-20.55,17.98-11.52,5.97-25.63,10.85-42.34,14.63-16.71,3.79-33.42,5.68-50.13,5.68ZM830.67,306.82c24.8-.83,46.62-2.72,65.46-5.68,18.84-2.96,31.26-6.25,37.28-9.88,0-5.6-2.02-10.35-6.07-14.24-4.05-3.89-9.32-6.8-15.8-8.72-6.49-1.92-13.36-2.88-20.63-2.88-8.82,0-17.51,1.53-26.08,4.59-8.56,3.06-15.93,7.71-22.11,13.93-6.18,6.23-10.2,13.85-12.07,22.88Z" fill="#fff"/><path d="M949.76,292.97c-2.08,0-3.84-.7-5.29-2.1-1.45-1.4-2.18-3.14-2.18-5.21s.73-3.84,2.18-5.29c1.45-1.45,3.22-2.18,5.29-2.18s3.81.73,5.21,2.18c1.4,1.46,2.1,3.22,2.1,5.29s-.7,3.69-2.1,5.14c-1.4,1.45-3.14,2.18-5.21,2.18Z" fill="#fff"/><path d="M961.9,336.55c-3.01-3.94-5.84-8.56-8.48-13.86-2.65-5.29-4.65-10.43-5.99-15.41,6.85-3.63,12.48-8.2,16.89-13.7,4.41-5.5,6.62-10.79,6.62-15.88,0-3.32-1.07-5.97-3.19-7.94-2.13-1.97-5.37-2.96-9.73-2.96h-26.46c-.31-4.67-.08-9.47.7-14.4.78-4.93,1.89-9.11,3.35-12.53h31.13c4.05,14.32,6.07,29.63,6.07,45.92,0,9.03-.7,18.08-2.1,27.16-1.4,9.08-3.4,16.94-5.99,23.58h-2.8Z" fill="#fff"/><path d="M585.95,470.51c-1.14-3.42-2.08-7.73-2.8-12.92-.73-5.19-1.09-9.75-1.09-13.7,5.19.42,9.34.62,12.45.62,13.08,0,23.56-.41,31.45-1.25,7.89-.83,11.83-2.39,11.83-4.67s-3.95-3.79-11.83-4.51c-7.89-.73-18.58-1.09-32.07-1.09h-1.87c-7.68,0-13.75.21-18.21.62-4.46.42-8.41,1.35-11.83,2.8-4.98,2.28-8.62,6.02-10.9,11.21-2.08.52-4.15.52-6.23,0-.21-6.23.23-12.84,1.32-19.85,1.09-7.01,2.57-12.63,4.44-16.89,15.46-1.97,28.7-2.96,39.7-2.96,17.23,0,29.91,2.13,38.06,6.38,8.15,4.26,12.22,10.95,12.22,20.08,0,5.4-2.62,10.15-7.86,14.24-5.24,4.1-11.29,7.08-18.14,8.95l-1.87.62c-8.93,2.6-14.89,4.72-17.9,6.38-3.42,1.77-5.5,3.74-6.23,5.92-.83.21-1.71.21-2.65,0ZM586.26,509.43c-3.22-2.39-6.36-5.11-9.42-8.17-3.06-3.06-5.48-5.94-7.24-8.64,1.97-3.42,4.57-6.74,7.78-9.96,3.22-3.21,6.48-5.81,9.81-7.78,3.11,2.28,6.2,4.98,9.26,8.09,3.06,3.11,5.53,6.07,7.39,8.87-1.97,3.32-4.57,6.59-7.78,9.81s-6.49,5.81-9.81,7.78Z" fill="#fff"/><path d="M670.79,472.38c3.84-3.53,6.93-7.5,9.26-11.91,2.33-4.41,3.5-8.48,3.5-12.22,0-3.11-.91-5.6-2.72-7.47-1.82-1.87-4.65-2.8-8.48-2.8h-28.8c-.31-4.67-.08-9.47.7-14.4.78-4.93,1.89-9.11,3.35-12.53h38.61c3.32,5.92,4.98,12.77,4.98,20.55s-1.77,15.8-5.29,23.43c-3.53,7.63-8.3,13.83-14.32,18.6l-.78-1.25Z" fill="#fff"/><path d="M718.12,529.51c-2.08,0-3.84-.7-5.29-2.1-1.45-1.4-2.18-3.14-2.18-5.21s.72-3.84,2.18-5.29c1.45-1.45,3.22-2.18,5.29-2.18s3.81.72,5.22,2.18c1.4,1.45,2.1,3.22,2.1,5.29s-.7,3.81-2.1,5.21c-1.4,1.4-3.14,2.1-5.22,2.1Z" fill="#fff"/><path d="M707.06,506.47c-1.77-3.53-3.14-7.71-4.13-12.53-.99-4.83-1.48-9.99-1.48-15.49,7.26,0,13.72-1.35,19.38-4.05,5.66-2.7,10.04-6.25,13.15-10.66,3.11-4.41,4.67-9.11,4.67-14.09,0-4.25-1.4-8.15-4.2-11.68h-39.54c-.31-4.67-.08-9.47.7-14.4.78-4.93,1.89-9.11,3.35-12.53h35.34c4.25,12.14,6.38,24.18,6.38,36.12,0,16.61-2.57,30.1-7.71,40.47-5.14,10.38-13.78,16.66-25.92,18.84Z" fill="#fff"/><path d="M761.55,464.13c-2.08,0-3.84-.7-5.29-2.1-1.45-1.4-2.18-3.14-2.18-5.21s.73-3.84,2.18-5.29,3.22-2.18,5.29-2.18,3.81.73,5.21,2.18c1.4,1.45,2.1,3.22,2.1,5.29s-.7,3.68-2.1,5.14c-1.4,1.45-3.14,2.18-5.21,2.18Z" fill="#fff"/><path d="M773.69,507.72c-3.01-3.94-5.84-8.56-8.48-13.85s-4.65-10.43-5.99-15.41c6.85-3.63,12.48-8.2,16.89-13.7,4.41-5.5,6.62-10.79,6.62-15.88,0-3.32-1.07-5.97-3.19-7.94-2.13-1.97-5.37-2.96-9.73-2.96h-26.46c-.31-4.67-.08-9.47.7-14.4.78-4.93,1.89-9.11,3.35-12.53h31.13c4.05,14.32,6.07,29.63,6.07,45.92,0,9.03-.7,18.08-2.1,27.17-1.4,9.08-3.4,16.94-5.99,23.58h-2.8Z" fill="#fff"/><path d="M797.66,507.41c-1.77-3.11-3.17-7.68-4.2-13.7-1.04-6.02-1.3-11.1-.78-15.26,11.42,0,22.88-.36,34.4-1.09,4.15-2.59,7.32-5.97,9.5-10.12,2.18-4.15,3.27-8.3,3.27-12.45,0-4.77-1.46-8.77-4.36-11.99-2.91-3.22-7-4.83-12.3-4.83h-35.96c-.31-4.67-.08-9.47.7-14.4.78-4.93,1.89-9.11,3.35-12.53h40.01c3.84,9.96,6.8,20.55,8.87,31.76,2.07,11.21,3.06,22.31,2.96,33.31,18.78-1.97,32.38-4.77,40.79-8.41,6.02-2.49,10.58-5.45,13.7-8.87,3.11-3.42,4.67-6.75,4.67-9.96s-1.48-5.71-4.44-7.78c-2.96-2.07-6.98-3.11-12.07-3.11h-43.12c-.31-4.67-.08-9.47.7-14.4.78-4.93,1.89-9.11,3.35-12.53h52.15c4.36,11,6.54,21.38,6.54,31.13,0,13.91-4.88,25.76-14.63,35.57-9.76,9.81-22.83,17.2-39.23,22.18-16.4,4.98-34.35,7.47-53.86,7.47Z" fill="#fff"/><path d="M935.59,472.38c3.84-3.53,6.93-7.5,9.26-11.91,2.33-4.41,3.5-8.48,3.5-12.22,0-3.11-.91-5.6-2.72-7.47-1.82-1.87-4.65-2.8-8.48-2.8h-28.8c-.31-4.67-.08-9.47.7-14.4.78-4.93,1.89-9.11,3.35-12.53h38.61c3.32,5.92,4.98,12.77,4.98,20.55s-1.77,15.8-5.29,23.43c-3.53,7.63-8.3,13.83-14.32,18.6l-.78-1.25Z" fill="#fff"/><path d="M1019.03,529.51c-2.08,0-3.84-.7-5.29-2.1-1.45-1.4-2.18-3.14-2.18-5.21s.73-3.84,2.18-5.29c1.45-1.45,3.22-2.18,5.29-2.18s3.81.72,5.21,2.18c1.4,1.45,2.1,3.22,2.1,5.29s-.7,3.81-2.1,5.21c-1.4,1.4-3.14,2.1-5.21,2.1Z" fill="#fff"/><path d="M1008.13,462.42c-2.08,0-3.84-.7-5.29-2.1-1.45-1.4-2.18-3.14-2.18-5.21s.73-3.84,2.18-5.29,3.22-2.18,5.29-2.18,3.81.73,5.21,2.18c1.4,1.45,2.1,3.22,2.1,5.29s-.7,3.68-2.1,5.14c-1.4,1.45-3.14,2.18-5.21,2.18Z" fill="#fff"/><path d="M971.24,506.16c-1.66-3.22-2.91-7.42-3.74-12.61-.83-5.19-1.04-10.22-.62-15.1h.78c10.48,0,22.49-1.4,36.04-4.2,13.54-2.8,25.14-6.62,34.79-11.44,9.65-4.83,14.48-10.04,14.48-15.65,0-3.11-1.4-5.42-4.2-6.93-2.8-1.5-6.8-2.26-11.99-2.26h-77.06c-.42-4.57-.23-9.31.54-14.24.78-4.93,1.84-9.16,3.19-12.69h93.4c3.63,6.02,5.34,12.82,5.14,20.39-.21,7.58-2.91,14.69-8.09,21.33l11.99,2.65c.52,1.97.88,4.44,1.09,7.39.21,2.96.21,5.63,0,8.02-5.6,7.58-13.57,14.01-23.9,19.3-10.33,5.29-21.69,9.29-34.09,11.99-12.4,2.7-24.67,4.05-36.82,4.05h-.93Z" fill="#fff"/><path d="M1295.35,529.51c-2.08,0-3.84-.7-5.29-2.1-1.45-1.4-2.18-3.14-2.18-5.21s.73-3.84,2.18-5.29c1.45-1.45,3.22-2.18,5.29-2.18s3.81.72,5.21,2.18c1.4,1.45,2.1,3.22,2.1,5.29s-.7,3.81-2.1,5.21c-1.4,1.4-3.14,2.1-5.21,2.1ZM1295.35,550.84c-2.08,0-3.84-.7-5.29-2.1-1.45-1.4-2.18-3.14-2.18-5.21s.73-3.84,2.18-5.29c1.45-1.45,3.22-2.18,5.29-2.18s3.81.72,5.21,2.18c1.4,1.45,2.1,3.22,2.1,5.29s-.7,3.81-2.1,5.21c-1.4,1.4-3.14,2.1-5.21,2.1Z" fill="#fff"/><path d="M1299.09,464.91c-2.08,0-3.84-.7-5.29-2.1-1.45-1.4-2.18-3.14-2.18-5.21s.73-3.84,2.18-5.29,3.22-2.18,5.29-2.18,3.81.73,5.21,2.18c1.4,1.45,2.1,3.22,2.1,5.29s-.7,3.68-2.1,5.14c-1.4,1.45-3.14,2.18-5.21,2.18Z" fill="#fff"/><path d="M1494.45,507.72c-3.01-3.94-5.84-8.56-8.48-13.85s-4.65-10.43-5.99-15.41c6.23-3.74,11.68-8.38,16.35-13.93,4.67-5.55,7.01-10.97,7.01-16.27,0-3.11-1.17-5.6-3.5-7.47s-5.42-2.8-9.26-2.8h-386.54c2.59,8.51,3.89,16.76,3.89,24.75,0,12.35-3.01,22.55-9.03,30.59-6.02,8.04-14.22,12.58-24.6,13.62-1.77-3.63-2.98-7.99-3.66-13.08-.68-5.08-.75-10.22-.23-15.41,6.54,0,12.22-1.61,17.05-4.83,4.83-3.22,8.51-7.19,11.05-11.91,2.54-4.72,3.81-9.31,3.81-13.78s-.47-7.57-1.4-9.96h-34.71c-.31-4.67-.08-9.47.7-14.4.78-4.93,1.89-9.11,3.35-12.53h429.03c4.05,14.32,6.07,29.63,6.07,45.92,0,9.03-.7,18.08-2.1,27.17-1.4,9.08-3.4,16.94-5.99,23.58h-2.8Z" fill="#fff"/></svg>