<?xml version="1.0" encoding="UTF-8"?><svg id="Layer_1" xmlns="http://www.w3.org/2000/svg" viewBox="0 0 1462.28 821.81"><path d="M322.28,200.85c-4.39-5.75-8.51-12.48-12.37-20.2-3.86-7.72-6.77-15.13-8.74-22.24,10.44-6.81,18.84-14.3,25.19-22.47,6.35-8.17,9.53-15.51,9.53-22.02,0-4.54-1.55-8.13-4.65-10.78-3.1-2.65-7.83-3.97-14.19-3.97H46.98c-.45-6.81-.11-13.81,1.02-20.99,1.13-7.19,2.76-13.28,4.88-18.27h276.43c5.9,20.88,8.85,43.2,8.85,66.95,0,13.16-1.02,26.37-3.06,39.6-2.04,13.24-4.96,24.7-8.74,34.38h-4.08ZM96,200.85c-6.51-7.11-10.97-15.62-13.39-25.53-2.42-9.91-2.8-20.2-1.13-30.87,1.66-10.67,5.07-20.69,10.21-30.07h2.5c0,10.75,2.27,19.94,6.81,27.58,4.54,7.64,11.12,13.05,19.75,16.23-1.97,8.02-4.99,15.93-9.08,23.72-4.09,7.79-8.55,14.11-13.39,18.95h-2.27Z"/><path d="M404.66,229c-.31-2.12-.45-4.65-.45-7.6s.15-5.26.45-6.92h47.66c.3,1.66.45,3.97.45,6.92s-.15,5.48-.45,7.6h-47.66Z"/><path d="M412.61,134.81c-3.03,0-5.6-1.02-7.72-3.06-2.12-2.04-3.18-4.57-3.18-7.6s1.06-5.6,3.18-7.72c2.12-2.12,4.69-3.18,7.72-3.18s5.56,1.06,7.6,3.18c2.04,2.12,3.06,4.69,3.06,7.72s-1.02,5.37-3.06,7.49c-2.04,2.12-4.58,3.18-7.6,3.18Z"/><path d="M358.82,198.59c-2.42-4.69-4.24-10.82-5.45-18.38-1.21-7.56-1.51-14.9-.91-22.01h1.13c15.28,0,32.8-2.04,52.54-6.13,19.75-4.09,36.65-9.65,50.72-16.68s21.11-14.64,21.11-22.81c0-4.54-2.04-7.9-6.13-10.1-4.08-2.19-9.91-3.29-17.48-3.29h-112.34c-.61-6.66-.34-13.58.79-20.77,1.13-7.18,2.68-13.35,4.65-18.5h136.17c5.29,8.78,7.79,18.69,7.49,29.73-.31,11.05-4.24,21.41-11.8,31.09l17.48,3.86c.76,2.88,1.28,6.47,1.59,10.78.3,4.31.3,8.21,0,11.69-8.17,11.05-19.78,20.43-34.84,28.14-15.06,7.72-31.62,13.54-49.7,17.48-18.08,3.94-35.97,5.9-53.67,5.9h-1.36Z"/><path d="M605.29,198.59c-26.78-5.29-48.04-16-63.77-32.11-15.74-16.11-23.6-36.5-23.6-61.16,0-2.72.07-4.77.23-6.13h-20.88c-.45-6.81-.11-13.81,1.02-20.99,1.13-7.19,2.76-13.28,4.88-18.27h95.55c2.57-10.59,6.96-19.93,13.16-28.03,6.2-8.09,13.84-14.33,22.92-18.72,3.48,3.03,7.04,8.89,10.67,17.59,3.63,8.7,5.6,15.47,5.9,20.31-8.48-1.21-16.57-.98-24.28.68-7.72,1.67-14,4.54-18.84,8.62,7.87.61,14.98,1.78,21.33,3.52,6.35,1.74,11.8,4.05,16.34,6.92,6.05,3.94,10.55,8.66,13.5,14.19,2.95,5.52,4.43,11.61,4.43,18.27l-2.27,2.95c-3.63-2.12-10.71-3.82-21.22-5.11-10.52-1.28-22.66-1.93-36.43-1.93h-60.82c-7.11,0-12.56,1.51-16.34,4.54-3.78,3.03-5.67,6.96-5.67,11.8,0,7.72,4.95,14.56,14.87,20.54,9.91,5.98,21.94,10.82,36.09,14.53,14.15,3.71,27.8,6.24,40.97,7.6.45,6.66,0,13.66-1.36,20.99-1.36,7.34-3.48,13.81-6.35,19.4Z"/><path d="M681.1,229c-.31-2.12-.45-4.65-.45-7.6s.15-5.26.45-6.92h47.66c.3,1.66.45,3.97.45,6.92s-.15,5.48-.45,7.6h-47.66Z"/><path d="M706.74,149.34c5.6-5.14,10.1-10.93,13.5-17.36,3.4-6.43,5.11-12.37,5.11-17.82,0-4.54-1.33-8.17-3.97-10.89-2.65-2.72-6.77-4.09-12.37-4.09h-41.99c-.45-6.81-.11-13.81,1.02-20.99,1.13-7.19,2.76-13.28,4.88-18.27h56.29c4.84,8.62,7.26,18.61,7.26,29.96s-2.58,23.04-7.72,34.16c-5.15,11.12-12.11,20.16-20.88,27.12l-1.13-1.82Z"/><path d="M786.18,232.63c-3.03,0-5.6-1.02-7.72-3.06-2.12-2.04-3.18-4.58-3.18-7.6s1.06-5.6,3.18-7.72c2.12-2.12,4.69-3.18,7.72-3.18s5.56,1.06,7.6,3.18c2.04,2.12,3.06,4.69,3.06,7.72s-1.02,5.56-3.06,7.6c-2.04,2.04-4.58,3.06-7.6,3.06ZM786.18,263.72c-3.03,0-5.6-1.02-7.72-3.06-2.12-2.04-3.18-4.58-3.18-7.6s1.06-5.6,3.18-7.72c2.12-2.12,4.69-3.18,7.72-3.18s5.56,1.06,7.6,3.18c2.04,2.12,3.06,4.69,3.06,7.72s-1.02,5.56-3.06,7.6c-2.04,2.04-4.58,3.06-7.6,3.06Z"/><path d="M786.18,200.85c-4.39-5.75-8.51-12.48-12.37-20.2-3.86-7.72-6.77-15.21-8.74-22.47,9.99-5.29,18.19-11.95,24.62-19.97,6.43-8.02,9.65-15.73,9.65-23.15,0-4.84-1.55-8.7-4.65-11.57-3.1-2.87-7.83-4.31-14.18-4.31h-38.58c-.45-6.81-.11-13.81,1.02-20.99,1.13-7.19,2.76-13.28,4.88-18.27h45.39c5.9,20.88,8.85,43.2,8.85,66.95,0,13.16-1.02,26.37-3.06,39.6-2.04,13.24-4.96,24.7-8.74,34.38h-4.08Z"/><path d="M1126.61,200.85c-4.39-5.75-8.51-12.48-12.37-20.2-3.86-7.72-6.77-15.13-8.74-22.24,10.44-6.81,18.84-14.3,25.19-22.47,6.35-8.17,9.53-15.51,9.53-22.02,0-4.54-1.55-8.13-4.65-10.78-3.1-2.65-7.83-3.97-14.18-3.97h-270.08c-.45-6.81-.11-13.81,1.02-20.99,1.13-7.19,2.76-13.28,4.88-18.27h276.43c5.9,20.88,8.85,43.2,8.85,66.95,0,13.16-1.02,26.37-3.06,39.6-2.04,13.24-4.96,24.7-8.74,34.38h-4.09ZM900.33,200.85c-6.51-7.11-10.97-15.62-13.39-25.53-2.42-9.91-2.8-20.2-1.13-30.87,1.66-10.67,5.07-20.69,10.21-30.07h2.5c0,10.75,2.27,19.94,6.81,27.58,4.54,7.64,11.12,13.05,19.75,16.23-1.97,8.02-4.99,15.93-9.08,23.72-4.08,7.79-8.55,14.11-13.39,18.95h-2.27Z"/><path d="M1225.56,229c-.3-2.12-.45-4.65-.45-7.6s.15-5.26.45-6.92h47.66c.3,1.66.45,3.97.45,6.92s-.15,5.48-.45,7.6h-47.66Z"/><path d="M1252.12,137.31c-3.03,0-5.6-1.02-7.72-3.06-2.12-2.04-3.18-4.57-3.18-7.6s1.06-5.6,3.18-7.72c2.12-2.12,4.69-3.18,7.72-3.18s5.56,1.06,7.6,3.18c2.04,2.12,3.06,4.69,3.06,7.72s-1.02,5.37-3.06,7.49c-2.04,2.12-4.58,3.18-7.6,3.18Z"/><path d="M1166.55,198.59c-3.63-5.29-6.58-11.61-8.85-18.95-2.27-7.34-3.4-14.49-3.4-21.45,9.83,0,17.17-.07,22.01-.23-.91-22.24,3.55-41.83,13.39-58.78h-43.35c-.45-6.81-.11-13.81,1.02-20.99,1.13-7.19,2.76-13.28,4.88-18.27h47.89c2.27,3.03,4.46,9.08,6.58,18.16,7.41-6.66,15.58-11.76,24.51-15.32,8.93-3.55,18-5.33,27.24-5.33,12.25,0,23.98,3.18,35.18,9.53,11.2,6.35,20.27,15.93,27.23,28.71,6.96,12.79,10.44,28.48,10.44,47.09-3.18,8.78-13.16,17.51-29.96,26.21-16.79,8.7-37.37,15.81-61.73,21.33-24.36,5.52-48.72,8.28-73.08,8.28ZM1178.35,157.51c36.16-1.21,67.97-3.97,95.44-8.28,27.46-4.31,45.58-9.11,54.36-14.41,0-8.17-2.95-15.09-8.85-20.77-5.9-5.67-13.58-9.91-23.04-12.71-9.46-2.8-19.48-4.2-30.07-4.2-12.86,0-25.53,2.23-38.01,6.7-12.48,4.46-23.23,11.23-32.23,20.31-9,9.08-14.87,20.2-17.59,33.36Z"/><path d="M1351.98,137.31c-3.03,0-5.6-1.02-7.72-3.06-2.12-2.04-3.18-4.57-3.18-7.6s1.06-5.6,3.18-7.72c2.12-2.12,4.69-3.18,7.72-3.18s5.56,1.06,7.6,3.18c2.04,2.12,3.06,4.69,3.06,7.72s-1.02,5.37-3.06,7.49c-2.04,2.12-4.58,3.18-7.6,3.18Z"/><path d="M1369.68,200.85c-4.39-5.75-8.51-12.48-12.37-20.2-3.86-7.72-6.77-15.21-8.74-22.47,9.99-5.29,18.19-11.95,24.62-19.97,6.43-8.02,9.65-15.73,9.65-23.15,0-4.84-1.55-8.7-4.65-11.57-3.1-2.87-7.83-4.31-14.18-4.31h-38.58c-.45-6.81-.11-13.81,1.02-20.99,1.13-7.19,2.76-13.28,4.88-18.27h45.39c5.9,20.88,8.85,43.2,8.85,66.95,0,13.16-1.02,26.37-3.06,39.6-2.04,13.24-4.96,24.7-8.74,34.38h-4.08Z"/><path d="M1429.14,149.34c5.6-5.14,10.1-10.93,13.5-17.36,3.4-6.43,5.11-12.37,5.11-17.82,0-4.54-1.33-8.17-3.97-10.89-2.65-2.72-6.77-4.09-12.37-4.09h-41.99c-.45-6.81-.11-13.81,1.02-20.99,1.13-7.19,2.76-13.28,4.88-18.27h56.29c4.84,8.62,7.26,18.61,7.26,29.96s-2.57,23.04-7.72,34.16c-5.15,11.12-12.11,20.16-20.88,27.12l-1.13-1.82Z"/><path d="M72.17,469.8c-4.24-15.58-6.35-33.89-6.35-54.92,0-15.28,1.28-29.96,3.86-44.03-.15,0-.34-.04-.57-.11-.23-.07-.42-.11-.57-.11-3.78-.76-7.79-1.78-12.03-3.06-4.24-1.28-8.32-2.76-12.26-4.43,1.06-6.96,2.84-13.84,5.33-20.65s5.33-12.33,8.51-16.57c3.93,1.97,8.74,3.52,14.41,4.65s11.23,1.7,16.68,1.7h138.22c5.9,20.88,8.85,43.2,8.85,66.95,0,12.41-.91,24.89-2.72,37.45-1.82,12.56-4.39,23.6-7.72,33.14H72.17ZM225.37,430.53c4.99-12.56,7.49-23.9,7.49-34.04,0-7.56-1.51-13.62-4.54-18.16-3.03-4.54-7.79-6.81-14.3-6.81H78.75c-3.03,4.54-5.37,10.63-7.04,18.27-1.67,7.64-2.5,15.85-2.5,24.62,0,5.9.3,11.27.91,16.11h155.24Z"/><path d="M317.51,504.98c-3.03,0-5.6-1.02-7.72-3.06-2.12-2.04-3.18-4.58-3.18-7.6s1.06-5.6,3.18-7.72c2.12-2.12,4.69-3.18,7.72-3.18s5.56,1.06,7.6,3.18c2.04,2.12,3.06,4.69,3.06,7.72s-1.02,5.56-3.06,7.6c-2.04,2.04-4.58,3.06-7.6,3.06ZM335.44,527.22c-3.03,0-5.6-1.02-7.72-3.06-2.12-2.04-3.18-4.58-3.18-7.6s1.06-5.6,3.18-7.72c2.12-2.12,4.69-3.18,7.72-3.18s5.56,1.06,7.6,3.18c2.04,2.12,3.06,4.69,3.06,7.72s-1.02,5.56-3.06,7.6c-2.04,2.04-4.58,3.06-7.6,3.06ZM353.37,549.46c-3.03,0-5.6-1.02-7.72-3.06-2.12-2.04-3.18-4.58-3.18-7.6s1.06-5.6,3.18-7.72c2.12-2.12,4.69-3.18,7.72-3.18s5.56,1.06,7.6,3.18c2.04,2.12,3.06,4.69,3.06,7.72s-1.02,5.56-3.06,7.6c-2.04,2.04-4.58,3.06-7.6,3.06Z"/><path d="M311.16,409.43c-3.03,0-5.6-1.02-7.72-3.06-2.12-2.04-3.18-4.57-3.18-7.6s1.06-5.6,3.18-7.72c2.12-2.12,4.69-3.18,7.72-3.18s5.56,1.06,7.6,3.18c2.04,2.12,3.06,4.69,3.06,7.72s-1.02,5.37-3.06,7.49c-2.04,2.12-4.58,3.18-7.6,3.18Z"/><path d="M256.46,470.93c-2.27-4.54-4.05-10.89-5.33-19.06-1.29-8.17-1.63-15.28-1.02-21.33,22.39,0,43.95-1.44,64.68-4.31,20.73-2.87,36.01-6.66,45.85-11.35,7.26-3.33,12.82-7.45,16.68-12.37,3.86-4.92,5.79-9.79,5.79-14.64s-1.93-8.77-5.79-11.8c-3.86-3.02-9.42-4.54-16.68-4.54h-120.51c-.3-6.81.04-13.81,1.02-20.99.98-7.19,2.46-13.28,4.43-18.27h133c2.87,8.17,4.99,16.08,6.35,23.72,1.36,7.64,2.04,14.87,2.04,21.67,0,20.43-5.64,37.64-16.91,51.63-11.27,14-26.71,24.44-46.3,31.32-19.6,6.89-42.03,10.33-67.29,10.33Z"/><path d="M509.74,470.93c-26.78-5.29-48.04-16-63.77-32.11-15.74-16.11-23.6-36.5-23.6-61.16,0-2.72.07-4.77.23-6.13h-31.32c-.45-6.81-.11-13.81,1.02-20.99,1.13-7.19,2.76-13.28,4.88-18.27h418.28c2.27-11.2,6.54-21.14,12.82-29.84,6.28-8.7,14.18-15.24,23.72-19.63,3.48,3.03,7.04,8.89,10.67,17.59,3.63,8.7,5.6,15.47,5.9,20.31-9.23-1.51-18.04-1.21-26.44.91-8.4,2.12-14.79,5.83-19.18,11.12,8.62.15,16.26.91,22.92,2.27,6.66,1.36,12.33,3.33,17.02,5.9,7.72,3.78,13.46,8.66,17.25,14.64,3.78,5.98,5.67,12.67,5.67,20.09l-2.27,2.95c-3.63-2.12-10.71-3.82-21.22-5.11-10.52-1.28-22.66-1.93-36.43-1.93h-378.34c-7.11,0-12.56,1.51-16.34,4.54-3.78,3.03-5.67,6.96-5.67,11.8,0,7.72,4.95,14.56,14.87,20.54,9.91,5.98,21.94,10.82,36.09,14.53,14.15,3.71,27.8,6.24,40.97,7.6.45,6.66,0,13.66-1.36,20.99-1.36,7.34-3.48,13.81-6.35,19.4Z"/><path d="M942.1,501.35c-.3-2.12-.45-4.65-.45-7.6s.15-5.26.45-6.92h47.66c.3,1.66.45,3.97.45,6.92s-.15,5.48-.45,7.6h-47.66Z"/><path d="M960.02,409.43c-3.03,0-5.6-1.02-7.72-3.06-2.12-2.04-3.18-4.57-3.18-7.6s1.06-5.6,3.18-7.72c2.12-2.12,4.69-3.18,7.72-3.18s5.56,1.06,7.6,3.18c2.04,2.12,3.06,4.69,3.06,7.72s-1.02,5.37-3.06,7.49c-2.04,2.12-4.58,3.18-7.6,3.18Z"/><path d="M905.33,470.93c-2.27-4.54-4.05-10.89-5.33-19.06-1.29-8.17-1.63-15.28-1.02-21.33,22.39,0,43.95-1.44,64.68-4.31,20.73-2.87,36.01-6.66,45.85-11.35,7.26-3.33,12.82-7.45,16.68-12.37,3.86-4.92,5.79-9.79,5.79-14.64s-1.93-8.77-5.79-11.8c-3.86-3.02-9.42-4.54-16.68-4.54h-120.51c-.31-6.81.04-13.81,1.02-20.99.98-7.19,2.46-13.28,4.43-18.27h133c2.87,8.17,4.99,16.08,6.36,23.72,1.36,7.64,2.04,14.87,2.04,21.67,0,20.43-5.64,37.64-16.91,51.63-11.27,14-26.71,24.44-46.3,31.32-19.6,6.89-42.03,10.33-67.29,10.33Z"/><path d="M1101.42,472.07c-12.86-17.1-22.55-34.12-29.05-51.06-6.51-16.94-9.61-33.44-9.31-49.48h-22.92c-.45-6.96-.15-14.03.91-21.22,1.06-7.18,2.65-13.2,4.77-18.04h162.27c2.27,5.15,4.39,12.37,6.35,21.67,1.96,9.31,2.95,18.35,2.95,27.12,0,18.01-4.8,33.89-14.41,47.66-9.61,13.77-23.19,24.44-40.74,32-17.55,7.57-37.83,11.35-60.82,11.35ZM1091.43,432.35c21.79,0,42.1-2,60.94-6.01,18.84-4.01,33.93-9.65,45.28-16.91,11.35-7.26,17.02-15.58,17.02-24.97,0-3.93-1.1-7.07-3.29-9.42-2.2-2.34-5.18-3.52-8.96-3.52h-136.4c0,6.35,1.28,13.58,3.86,21.67,2.57,8.1,5.82,15.74,9.76,22.92,3.93,7.19,7.87,12.6,11.8,16.23Z"/><path d="M1300.46,501.35c-.3-2.12-.45-4.65-.45-7.6s.15-5.26.45-6.92h47.66c.3,1.66.45,3.97.45,6.92s-.15,5.48-.45,7.6h-47.66Z"/><path d="M1241.45,470.93c-3.63-5.29-6.58-11.61-8.85-18.95-2.27-7.34-3.4-14.49-3.4-21.45,9.83,0,17.17-.07,22.01-.23-.91-22.24,3.55-41.83,13.39-58.78h-43.35c-.45-6.81-.11-13.81,1.02-20.99,1.13-7.19,2.76-13.28,4.88-18.27h47.89c2.27,3.03,4.46,9.08,6.58,18.16,7.41-6.66,15.58-11.76,24.51-15.32,8.93-3.55,18-5.33,27.24-5.33,12.25,0,23.98,3.18,35.18,9.53,11.2,6.35,20.27,15.93,27.23,28.71,6.96,12.79,10.44,28.48,10.44,47.09-3.18,8.78-13.16,17.51-29.96,26.21-16.79,8.7-37.37,15.81-61.73,21.33-24.36,5.53-48.72,8.28-73.08,8.28ZM1253.25,429.85c36.16-1.21,67.97-3.97,95.44-8.28,27.46-4.31,45.58-9.11,54.36-14.41,0-8.17-2.95-15.09-8.85-20.77-5.9-5.67-13.58-9.91-23.04-12.71-9.46-2.8-19.48-4.2-30.07-4.2-12.86,0-25.53,2.23-38.01,6.7-12.48,4.46-23.23,11.23-32.23,20.31-9,9.08-14.87,20.2-17.59,33.36Z"/><path d="M1426.87,409.65c-3.03,0-5.6-1.02-7.72-3.06-2.12-2.04-3.18-4.57-3.18-7.6s1.06-5.6,3.18-7.72c2.12-2.12,4.69-3.18,7.72-3.18s5.56,1.06,7.6,3.18c2.04,2.12,3.06,4.69,3.06,7.72s-1.02,5.37-3.06,7.49c-2.04,2.12-4.58,3.18-7.6,3.18Z"/><path d="M1444.58,473.2c-4.39-5.75-8.51-12.48-12.37-20.2s-6.77-15.21-8.74-22.47c9.99-5.29,18.19-11.95,24.62-19.97,6.43-8.02,9.65-15.73,9.65-23.15,0-4.84-1.55-8.7-4.65-11.57-3.1-2.87-7.83-4.31-14.18-4.31h-38.58c-.45-6.81-.11-13.81,1.02-20.99,1.13-7.19,2.76-13.28,4.88-18.27h45.39c5.9,20.88,8.85,43.2,8.85,66.95,0,13.16-1.02,26.37-3.06,39.6-2.04,13.24-4.96,24.7-8.74,34.38h-4.08Z"/><path d="M62.19,691.31c-1.67-4.99-3.03-11.27-4.09-18.84-1.06-7.56-1.59-14.22-1.59-19.97,7.56.61,13.62.91,18.16.91,19.06,0,34.34-.6,45.85-1.82,11.5-1.21,17.25-3.48,17.25-6.81s-5.75-5.52-17.25-6.58c-11.5-1.06-27.09-1.59-46.75-1.59h-2.72c-11.2,0-20.05.3-26.55.91-6.51.61-12.26,1.97-17.25,4.09-7.26,3.33-12.56,8.78-15.89,16.34-3.03.76-6.05.76-9.08,0-.31-9.08.34-18.72,1.93-28.94s3.74-18.42,6.47-24.62c22.54-2.87,41.83-4.31,57.87-4.31,25.11,0,43.61,3.1,55.49,9.3,11.88,6.21,17.82,15.96,17.82,29.28,0,7.87-3.82,14.79-11.46,20.77-7.64,5.98-16.45,10.33-26.44,13.05l-2.72.91c-13.01,3.78-21.71,6.89-26.1,9.3-4.99,2.58-8.02,5.45-9.08,8.62-1.21.3-2.5.3-3.86,0ZM62.64,748.05c-4.69-3.48-9.27-7.45-13.73-11.92-4.46-4.46-7.98-8.66-10.55-12.6,2.87-4.99,6.66-9.83,11.35-14.53,4.69-4.69,9.45-8.47,14.3-11.35,4.54,3.33,9.04,7.26,13.5,11.8,4.46,4.54,8.06,8.85,10.78,12.94-2.88,4.84-6.66,9.61-11.35,14.3-4.69,4.69-9.46,8.47-14.3,11.35Z"/><path d="M185.88,694.03c5.6-5.14,10.1-10.93,13.5-17.36,3.4-6.43,5.11-12.37,5.11-17.82,0-4.54-1.33-8.17-3.97-10.89-2.65-2.72-6.77-4.08-12.37-4.08h-41.99c-.45-6.81-.11-13.81,1.02-20.99,1.13-7.18,2.76-13.28,4.88-18.27h56.29c4.84,8.62,7.26,18.61,7.26,29.96s-2.57,23.04-7.72,34.16c-5.15,11.12-12.11,20.16-20.88,27.12l-1.13-1.82Z"/><path d="M254.87,777.32c-3.03,0-5.6-1.02-7.72-3.06-2.12-2.04-3.18-4.58-3.18-7.6s1.06-5.6,3.18-7.72c2.12-2.12,4.69-3.18,7.72-3.18s5.56,1.06,7.6,3.18c2.04,2.12,3.06,4.69,3.06,7.72s-1.02,5.56-3.06,7.6c-2.04,2.04-4.58,3.06-7.6,3.06Z"/><path d="M238.76,743.73c-2.57-5.14-4.58-11.23-6.01-18.27-1.44-7.04-2.16-14.56-2.16-22.58,10.59,0,20.01-1.96,28.26-5.9,8.25-3.93,14.64-9.11,19.18-15.55,4.54-6.43,6.81-13.28,6.81-20.54,0-6.2-2.04-11.88-6.13-17.02h-57.65c-.45-6.81-.11-13.81,1.02-20.99,1.13-7.18,2.76-13.28,4.88-18.27h51.52c6.2,17.7,9.31,35.26,9.31,52.65,0,24.21-3.74,43.88-11.23,59.01-7.49,15.13-20.09,24.28-37.79,27.46Z"/><path d="M318.19,682c-3.03,0-5.6-1.02-7.72-3.06-2.12-2.04-3.18-4.58-3.18-7.6s1.06-5.6,3.18-7.72c2.12-2.12,4.69-3.18,7.72-3.18s5.56,1.06,7.6,3.18c2.04,2.12,3.06,4.69,3.06,7.72s-1.02,5.37-3.06,7.49c-2.04,2.12-4.58,3.18-7.6,3.18Z"/><path d="M335.89,745.55c-4.39-5.75-8.51-12.48-12.37-20.2-3.86-7.72-6.77-15.21-8.74-22.47,9.99-5.29,18.19-11.95,24.62-19.97,6.43-8.02,9.65-15.73,9.65-23.15,0-4.84-1.55-8.7-4.65-11.58-3.1-2.87-7.83-4.31-14.19-4.31h-38.58c-.45-6.81-.11-13.81,1.02-20.99,1.13-7.18,2.76-13.28,4.88-18.27h45.39c5.9,20.88,8.85,43.2,8.85,66.95,0,13.16-1.02,26.37-3.06,39.6-2.04,13.24-4.96,24.7-8.74,34.38h-4.09Z"/><path d="M370.85,745.1c-2.57-4.54-4.62-11.2-6.13-19.97-1.51-8.77-1.89-16.19-1.13-22.24,16.64,0,33.36-.53,50.16-1.59,6.05-3.78,10.67-8.7,13.84-14.75,3.18-6.05,4.77-12.1,4.77-18.16,0-6.96-2.12-12.78-6.35-17.48-4.24-4.69-10.21-7.04-17.93-7.04h-52.43c-.45-6.81-.11-13.81,1.02-20.99,1.13-7.18,2.76-13.28,4.88-18.27h58.33c5.6,14.53,9.91,29.96,12.94,46.3,3.02,16.34,4.46,32.53,4.31,48.57,27.38-2.87,47.21-6.96,59.46-12.26,8.77-3.63,15.43-7.94,19.97-12.94,4.54-4.99,6.81-9.83,6.81-14.53s-2.16-8.32-6.47-11.35c-4.31-3.03-10.18-4.54-17.59-4.54h-62.87c-.45-6.81-.11-13.81,1.02-20.99,1.13-7.18,2.76-13.28,4.88-18.27h76.03c6.35,16.04,9.53,31.17,9.53,45.39,0,20.28-7.11,37.56-21.33,51.86-14.22,14.3-33.29,25.08-57.19,32.34-23.91,7.26-50.08,10.89-78.53,10.89Z"/><path d="M571.93,694.03c5.6-5.14,10.1-10.93,13.5-17.36,3.4-6.43,5.11-12.37,5.11-17.82,0-4.54-1.33-8.17-3.97-10.89-2.65-2.72-6.77-4.08-12.37-4.08h-41.99c-.45-6.81-.11-13.81,1.02-20.99,1.13-7.18,2.76-13.28,4.88-18.27h56.29c4.84,8.62,7.26,18.61,7.26,29.96s-2.57,23.04-7.72,34.16c-5.15,11.12-12.11,20.16-20.88,27.12l-1.13-1.82Z"/><path d="M693.58,777.32c-3.03,0-5.6-1.02-7.72-3.06-2.12-2.04-3.18-4.58-3.18-7.6s1.06-5.6,3.18-7.72c2.12-2.12,4.69-3.18,7.72-3.18s5.56,1.06,7.6,3.18c2.04,2.12,3.06,4.69,3.06,7.72s-1.02,5.56-3.06,7.6c-2.04,2.04-4.58,3.06-7.6,3.06Z"/><path d="M677.69,679.51c-3.03,0-5.6-1.02-7.72-3.06-2.12-2.04-3.18-4.58-3.18-7.6s1.06-5.6,3.18-7.72c2.12-2.12,4.69-3.18,7.72-3.18s5.56,1.06,7.6,3.18c2.04,2.12,3.06,4.69,3.06,7.72s-1.02,5.37-3.06,7.49c-2.04,2.12-4.58,3.18-7.6,3.18Z"/><path d="M623.9,743.28c-2.42-4.69-4.24-10.82-5.45-18.38-1.21-7.56-1.51-14.9-.91-22.01h1.13c15.28,0,32.8-2.04,52.54-6.13,19.75-4.08,36.65-9.65,50.72-16.68,14.07-7.04,21.11-14.64,21.11-22.81,0-4.54-2.04-7.9-6.13-10.1-4.09-2.19-9.91-3.29-17.48-3.29h-112.34c-.61-6.66-.34-13.58.79-20.77,1.13-7.18,2.68-13.35,4.65-18.5h136.17c5.29,8.78,7.79,18.69,7.49,29.73-.3,11.05-4.24,21.41-11.8,31.09l17.48,3.86c.76,2.88,1.28,6.47,1.59,10.78.3,4.31.3,8.21,0,11.69-8.17,11.05-19.78,20.43-34.84,28.14-15.06,7.72-31.62,13.54-49.7,17.48-18.08,3.94-35.97,5.9-53.67,5.9h-1.36Z"/><path d="M1126.16,777.32c-3.03,0-5.6-1.02-7.72-3.06-2.12-2.04-3.18-4.58-3.18-7.6s1.06-5.6,3.18-7.72c2.12-2.12,4.69-3.18,7.72-3.18s5.56,1.06,7.6,3.18c2.04,2.12,3.06,4.69,3.06,7.72s-1.02,5.56-3.06,7.6c-2.04,2.04-4.58,3.06-7.6,3.06ZM1126.16,808.42c-3.03,0-5.6-1.02-7.72-3.06-2.12-2.04-3.18-4.58-3.18-7.6s1.06-5.6,3.18-7.72c2.12-2.12,4.69-3.18,7.72-3.18s5.56,1.06,7.6,3.18c2.04,2.12,3.06,4.69,3.06,7.72s-1.02,5.56-3.06,7.6-4.58,3.06-7.6,3.06Z"/><path d="M1130.47,683.14c-3.03,0-5.6-1.02-7.72-3.06-2.12-2.04-3.18-4.58-3.18-7.6s1.06-5.6,3.18-7.72,4.69-3.18,7.72-3.18,5.56,1.06,7.6,3.18c2.04,2.12,3.06,4.69,3.06,7.72s-1.02,5.37-3.06,7.49c-2.04,2.12-4.58,3.18-7.6,3.18Z"/><path d="M1444.12,745.55c-4.24-5.6-8.29-12.33-12.14-20.2-3.86-7.87-6.85-15.35-8.96-22.47,5.75-5.6,10.25-11.88,13.5-18.84,3.25-6.96,4.88-13.54,4.88-19.75s-1.59-10.97-4.77-14.75c-3.18-3.78-7.87-5.67-14.07-5.67h-595.53c.6,4.99.91,10.82.91,17.48,0,22.39-4.39,41.38-13.16,56.97-8.78,15.58-22.32,24.36-40.62,26.33-2.57-5.29-4.35-11.72-5.33-19.29-.99-7.56-1.1-15.05-.34-22.47,7.87,0,14.94-1.96,21.22-5.9,6.28-3.93,11.16-9.15,14.64-15.66,3.48-6.5,5.22-13.54,5.22-21.11,0-5.6-.98-11.04-2.95-16.34h-44.26c-.45-6.81-.11-13.81,1.02-20.99,1.13-7.18,2.76-13.28,4.88-18.27h682.91c5.9,20.88,8.85,43.2,8.85,66.95,0,13.16-1.02,26.37-3.06,39.6-2.04,13.24-4.96,24.7-8.74,34.38h-4.08Z"/></svg>