<svg width="424" height="327" viewBox="0 0 424 327" fill="none" xmlns="http://www.w3.org/2000/svg">
<path d="M191.783 14.864L191.767 14.144L197.479 3.056H198.919L198.935 3.776L193.223 14.864H191.783ZM200.424 14.864L200.408 14.144L206.12 3.056H207.56L207.576 3.776L201.864 14.864H200.424ZM218.009 14V5.648H222.297C223.593 5.648 224.537 6.608 224.537 7.904V14H218.009ZM219.865 12.192H222.681V8.352C222.681 7.84 222.297 7.472 221.801 7.472H219.865V12.192ZM229.37 10.928V9.984C230.058 9.024 230.282 8.464 230.282 7.728V7.456H227.386V5.648H232.042C232.106 6 232.138 6.336 232.138 6.896C232.138 8.688 231.674 9.936 230.65 10.928H229.37ZM238.01 10.928V9.984C238.698 9.024 238.922 8.464 238.922 7.728V7.456H236.026V5.648H240.682C240.746 6 240.778 6.336 240.778 6.896C240.778 8.688 240.314 9.936 239.29 10.928H238.01ZM247.691 14V7.472H243.883V5.648H250.507V7.472H249.547V14H247.691ZM255.292 10.928V9.984C255.98 9.024 256.204 8.464 256.204 7.728V7.456H253.308V5.648H257.964C258.028 6 258.06 6.336 258.06 6.896C258.06 8.688 257.596 9.936 256.572 10.928H255.292ZM275.773 5.648C276.221 5.648 276.573 6 276.573 6.448V14H274.701V7.472H272.493C272.285 8.256 272.141 9.104 272.141 10.112C272.141 10.896 272.237 11.776 272.461 12.672V14H269.453V12.192H270.429C270.333 11.584 270.269 10.944 270.269 10.304C270.269 9.312 270.397 8.32 270.605 7.472H269.629V5.648H275.773ZM280.83 14V7.472H278.958V5.648H284.558V7.472H282.686V14H280.83ZM289.854 10.928V9.984C290.542 9.024 290.766 8.464 290.766 7.728V7.456H287.87V5.648H292.526C292.59 6 292.622 6.336 292.622 6.896C292.622 8.688 292.158 9.936 291.134 10.928H289.854ZM295.823 14V5.648H301.279C301.839 5.648 302.271 6.08 302.271 6.64V14H300.415V7.472H297.679V14H295.823ZM311.071 6.672C311.071 8.592 310.655 9.36 309.039 10.224L310.847 13.056L310.831 14H309.199L306.655 10.016C306.255 10.64 306.143 11.344 306.143 12.192V14H304.287V12.512C304.287 10.896 304.575 9.664 305.823 8.704L304.479 6.608L304.495 5.648H306.111L308.303 9.088C309.023 8.656 309.215 8.16 309.215 7.2V5.648H311.071V6.672ZM38.46 53.968V53.328C39.244 53.008 39.5 52.448 39.5 52.08C39.084 51.888 38.812 51.488 38.812 50.976C38.812 50.32 39.308 49.792 39.996 49.792C40.524 49.792 41.18 50.096 41.18 51.136C41.18 52.48 39.98 53.824 38.46 53.968ZM45.4366 52V43.648H49.7246C50.7486 43.648 51.4846 44.4 51.4846 45.424V52H45.4366ZM46.8126 50.672H50.1086V45.872C50.1086 45.36 49.7246 44.992 49.2286 44.992H46.8126V50.672ZM56.8773 48.864V47.92C57.2773 47.36 57.7893 46.704 57.7893 45.504V44.976H54.8453V43.648H59.0693C59.1493 44.016 59.1653 44.352 59.1653 44.832C59.1653 46.864 58.5733 48 57.6773 48.864H56.8773ZM65.5179 48.864V47.92C65.9179 47.36 66.4299 46.704 66.4299 45.504V44.976H63.4859V43.648H67.7099C67.7899 44.016 67.8059 44.352 67.8059 44.832C67.8059 46.864 67.2139 48 66.3179 48.864H65.5179ZM75.2305 52V44.992H71.1985V43.648H77.5825V44.992H76.6065V52H75.2305ZM82.7991 48.864V47.92C83.1991 47.36 83.7111 46.704 83.7111 45.504V44.976H80.7671V43.648H84.9911C85.0711 44.016 85.0871 44.352 85.0871 44.832C85.0871 46.864 84.4951 48 83.5991 48.864H82.7991ZM93.2158 52V44.992H88.7038V43.648H93.8078C94.2558 43.648 94.6078 44 94.6078 44.448V52H93.2158ZM88.7998 52V47.264H90.1758V52H88.7998ZM105.425 52V50.672H106.513C106.337 49.92 106.241 49.12 106.241 48.304C106.241 47.12 106.417 45.936 106.705 44.992H105.601V43.648H111.329C111.777 43.648 112.129 44 112.129 44.448V52H110.737V44.992H108.129C107.841 45.904 107.633 46.896 107.633 48.112C107.633 48.896 107.729 49.776 107.953 50.672V52H105.425ZM116.898 52V44.992H115.106V43.648H120.066V44.992H118.274V52H116.898ZM126.002 48.864V47.92C126.402 47.36 126.914 46.704 126.914 45.504V44.976H123.97V43.648H128.194C128.274 44.016 128.29 44.352 128.29 44.832C128.29 46.864 127.698 48 126.802 48.864H126.002ZM131.923 52V43.648H137.123C137.571 43.648 137.923 44 137.923 44.448V52H136.547V44.992H133.299V52H131.923ZM146.612 44.672C146.612 46.64 146.164 47.44 144.564 48.192L146.388 51.056L146.372 52H145.332L142.58 47.696C142.036 48.272 141.796 49.04 141.796 50.192V52H140.42V50.512C140.42 48.656 140.9 47.488 141.956 46.72L140.612 44.608L140.628 43.648H141.652L143.972 47.28C144.964 46.784 145.236 46.32 145.236 45.2V43.648H146.612V44.672ZM157.269 52V50.672H158.357C158.181 49.92 158.085 49.12 158.085 48.304C158.085 47.12 158.261 45.936 158.549 44.992H157.445V43.648H163.173C163.621 43.648 163.973 44 163.973 44.448V52H162.581V44.992H159.973C159.685 45.904 159.477 46.896 159.477 48.112C159.477 48.896 159.573 49.776 159.797 50.672V52H157.269ZM167.269 52C166.821 52 166.469 51.648 166.469 51.2V43.648H167.829V50.64H168.309C170.341 50.64 171.397 49.392 171.397 47.008V45.984C171.397 45.376 170.965 44.928 170.405 44.928C170.213 44.928 169.989 44.96 169.333 45.104L169.125 43.824C169.845 43.68 170.373 43.6 170.677 43.6C171.973 43.6 172.821 44.448 172.805 45.728L172.789 46.64C172.725 50.304 171.157 52 167.637 52H167.269ZM176.95 52V50.848C179.062 48.912 179.686 47.872 179.686 46.24V44.992H175.078V41.648H176.47V43.648H180.278C180.726 43.648 181.078 44 181.078 44.448V46.112C181.078 48.4 179.99 50.16 177.766 52H176.95ZM186.759 52V44.992H184.391V43.648H188.135V52H186.759ZM192.151 52V50.656H196.487V44.992H192.487V43.648H197.063C197.527 43.648 197.863 44 197.863 44.448V50.656H198.791V52H192.151ZM212.409 48.864V47.92C212.809 47.36 213.321 46.704 213.321 45.504V44.976H210.377V43.648H214.601C214.681 44.016 214.697 44.352 214.697 44.832C214.697 46.864 214.105 48 213.209 48.864H212.409ZM218.777 52V50.672H221.945V44.992H219.945V43.648H223.321V51.2C223.321 51.648 223.001 52 222.537 52H218.777ZM231.066 43.584C232.266 43.584 233.098 44.416 233.098 45.648V52H229.866V50.672H231.722V45.984C231.722 45.376 231.29 44.928 230.73 44.928C230.634 44.928 230.554 44.928 230.298 44.976L228.698 45.264L227.898 52H226.586V51.344L227.322 45.168L226.554 44.88V43.6H227.178L228.394 44L230.554 43.632C230.73 43.6 230.906 43.584 231.066 43.584ZM238.33 48.864V47.92C238.73 47.36 239.242 46.704 239.242 45.504V44.976H236.298V43.648H240.522C240.602 44.016 240.618 44.352 240.618 44.832C240.618 46.864 240.026 48 239.13 48.864H238.33ZM243.675 52V50.672H244.763C244.587 49.92 244.491 49.12 244.491 48.304C244.491 47.12 244.667 45.936 244.955 44.992H243.851V43.648H249.579C250.027 43.648 250.379 44 250.379 44.448V52H248.987V44.992H246.379C246.091 45.904 245.883 46.896 245.883 48.112C245.883 48.896 245.979 49.776 246.203 50.672V52H243.675ZM257.388 52V44.992H252.876V43.648H257.98C258.428 43.648 258.78 44 258.78 44.448V52H257.388ZM252.972 52V47.264H254.348V52H252.972ZM271.997 52V50.848C274.109 48.912 274.733 47.872 274.733 46.24V44.992H270.125V41.648H271.517V43.648H275.325C275.773 43.648 276.125 44 276.125 44.448V46.112C276.125 48.4 275.037 50.16 272.813 52H271.997ZM281.806 52V44.992H279.438V43.648H283.182V52H281.806ZM287.454 52V43.648H292.654C293.102 43.648 293.454 44 293.454 44.448V52H292.078V44.992H288.83V52H287.454ZM300.191 43.584C301.391 43.584 302.223 44.416 302.223 45.648V52H298.991V50.672H300.847V45.984C300.847 45.376 300.415 44.928 299.855 44.928C299.759 44.928 299.679 44.928 299.423 44.976L297.823 45.264L297.023 52H295.711V51.344L296.447 45.168L295.679 44.88V43.6H296.303L297.519 44L299.679 43.632C299.855 43.6 300.031 43.584 300.191 43.584ZM304.479 52V50.656H308.815V44.992H304.815V43.648H309.391C309.855 43.648 310.191 44 310.191 44.448V50.656H311.119V52H304.479ZM74.8465 72.664V63.976H72.5585V62.648H76.2225V72.664H74.8465ZM82.7991 67.864V66.92C83.1991 66.36 83.7111 65.704 83.7111 64.504V63.976H80.7671V62.648H84.9911C85.0711 63.016 85.0871 63.352 85.0871 63.832C85.0871 65.864 84.4951 67 83.5991 67.864H82.7991ZM88.4638 71V69.656H92.7998V63.992H88.7998V62.648H93.3758C93.8398 62.648 94.1758 63 94.1758 63.448V69.656H95.1038V71H88.4638ZM110.289 71V64.872C110.289 64.36 109.921 63.992 109.409 63.992H105.985V62.648H109.921C110.929 62.648 111.681 63.4 111.681 64.424V71H110.289ZM119.794 62.648H121.09V65.128C121.09 69.064 119.394 71 114.962 71C114.674 71 114.466 70.744 114.466 70.408V62.648H115.746V66.232C116.754 66.04 117.122 65.544 117.122 64.184V62.648H118.418V63.896C118.418 65.928 117.714 67.016 115.746 67.288V69.688C118.466 69.656 119.794 68.232 119.794 65.48V62.648ZM126.306 70.872V69.784C127.618 68.2 128.13 67 128.13 65.32V63.992H123.106V62.648H128.722C129.17 62.648 129.522 62.984 129.522 63.432V65C129.522 67.128 128.962 68.952 127.266 70.872H126.306ZM123.25 72.664V66.072H124.626V72.664H123.25ZM136.419 71V63.992H131.907V62.648H137.011C137.459 62.648 137.811 63 137.811 63.448V71H136.419ZM132.003 71V66.264H133.379V71H132.003ZM144.66 62.584C145.86 62.584 146.692 63.416 146.692 64.648V71H143.46V69.672H145.316V64.984C145.316 64.376 144.884 63.928 144.324 63.928C144.228 63.928 144.148 63.928 143.891 63.976L142.292 64.264L141.492 71H140.18V70.344L140.916 64.168L140.148 63.88V62.6H140.772L141.988 63L144.148 62.632C144.324 62.6 144.5 62.584 144.66 62.584ZM161.637 71V63.992H157.605V62.648H163.989V63.992H163.013V71H161.637ZM170.773 71V64.872C170.773 64.36 170.405 63.992 169.893 63.992H166.469V62.648H170.405C171.413 62.648 172.165 63.4 172.165 64.424V71H170.773ZM174.71 71V69.672H179.766L179.59 64.872C179.574 64.36 179.206 63.992 178.71 63.992H176.918L176.646 65.864C176.63 65.944 176.678 66.024 176.758 66.072L177.606 66.504V67.592H176.726L175.622 67.032C175.302 66.872 175.19 66.552 175.238 66.2L175.766 62.648H179.174C180.198 62.648 180.902 63.4 180.934 64.424L181.19 71H174.71ZM184.215 71V69.672H187.383V63.992H185.383V62.648H188.759V70.2C188.759 70.648 188.439 71 187.975 71H184.215ZM203.768 67.864V66.92C204.168 66.36 204.68 65.704 204.68 64.504V63.976H201.736V62.648H205.96C206.04 63.016 206.056 63.352 206.056 63.832C206.056 65.864 205.464 67 204.568 67.864H203.768ZM209.113 71V69.672H210.201C210.025 68.92 209.929 68.12 209.929 67.304C209.929 66.12 210.105 64.936 210.393 63.992H209.289V62.648H215.017C215.465 62.648 215.817 63 215.817 63.448V71H214.425V63.992H211.817C211.529 64.904 211.321 65.896 211.321 67.112C211.321 67.896 211.417 68.776 211.641 69.672V71H209.113ZM220.153 71V69.848C222.265 67.912 222.889 66.872 222.889 65.24V63.992H218.281V60.648H219.673V62.648H223.481C223.929 62.648 224.281 63 224.281 63.448V65.112C224.281 67.4 223.193 69.16 220.969 71H220.153ZM226.714 71V69.656H231.05V63.992H227.05V62.648H231.626C232.09 62.648 232.426 63 232.426 63.448V69.656H233.354V71H226.714ZM247.275 70.872V69.784C248.587 68.2 249.099 67 249.099 65.32V63.992H244.075V62.648H249.691C250.139 62.648 250.491 62.984 250.491 63.432V65C250.491 67.128 249.931 68.952 248.235 70.872H247.275ZM244.219 72.664V66.072H245.595V72.664H244.219ZM254.716 71V69.848C256.828 67.912 257.452 66.872 257.452 65.24V63.992H252.844V60.648H254.236V62.648H258.044C258.492 62.648 258.844 63 258.844 63.448V65.112C258.844 67.4 257.756 69.16 255.532 71H254.716ZM261.532 71V62.648H266.732C267.18 62.648 267.532 63 267.532 63.448V71H266.156V63.992H262.908V71H261.532ZM284.862 63.672C284.862 65.64 284.414 66.44 282.814 67.192L284.638 70.056L284.622 71H283.582L280.83 66.696C280.286 67.272 280.046 68.04 280.046 69.192V71H278.67V69.512C278.67 67.656 279.15 66.488 280.206 65.72L278.862 63.608L278.878 62.648H279.902L282.222 66.28C283.214 65.784 283.486 65.32 283.486 64.2V62.648H284.862V63.672ZM290.174 67.864V66.92C290.574 66.36 291.086 65.704 291.086 64.504V63.976H288.142V62.648H292.366C292.446 63.016 292.462 63.352 292.462 63.832C292.462 65.864 291.87 67 290.974 67.864H290.174ZM300.591 71V63.992H296.079V62.648H301.183C301.631 62.648 301.983 63 301.983 63.448V71H300.591ZM296.175 71V66.264H297.551V71H296.175ZM307.727 71V63.992H305.359V62.648H309.103V71H307.727ZM27.6594 90V88.672H28.7474C28.5714 87.92 28.4754 87.12 28.4754 86.304C28.4754 85.12 28.6514 83.936 28.9394 82.992H27.8354V81.648H33.5634C34.0114 81.648 34.3634 82 34.3634 82.448V90H32.9714V82.992H30.3634C30.0754 83.904 29.8674 84.896 29.8674 86.112C29.8674 86.896 29.9634 87.776 30.1874 88.672V90H27.6594ZM42.924 82.672C42.924 84.64 42.476 85.44 40.876 86.192L42.7 89.056L42.684 90H41.644L38.892 85.696C38.348 86.272 38.108 87.04 38.108 88.192V90H36.732V88.512C36.732 86.656 37.212 85.488 38.268 84.72L36.924 82.608L36.94 81.648H37.964L40.284 85.28C41.276 84.784 41.548 84.32 41.548 83.2V81.648H42.924V82.672ZM53.9013 90V88.656H58.2373V82.992H54.2373V81.648H58.8133C59.2773 81.648 59.6133 82 59.6133 82.448V88.656H60.5413V90H53.9013ZM68.6379 82.784C68.6379 84.608 68.2219 85.296 66.7179 85.936L68.5579 88.704V90H62.7179V88.672H66.9899L62.7979 82.608V81.648H63.8699L66.1419 85.056C67.0219 84.688 67.2619 84.304 67.2619 83.296V81.648H68.6379V82.784ZM74.1585 86.864V85.92C74.5585 85.36 75.0705 84.704 75.0705 83.504V82.976H72.1265V81.648H76.3505C76.4305 82.016 76.4465 82.352 76.4465 82.832C76.4465 84.864 75.8545 86 74.9585 86.864H74.1585ZM84.7671 81.648H86.1271V82.288C86.1111 83.008 86.0951 83.824 86.0471 84.544C85.7911 88.384 84.3671 89.776 80.4791 90.272L79.8551 90.352H79.6471V89.024C80.0311 88.992 80.3831 88.96 80.7351 88.896C81.0231 88.848 81.2951 88.8 81.5511 88.736L80.3351 82.304V81.648H81.6471L82.8791 88.304C84.0151 87.76 84.5111 86.832 84.6551 84.912C84.7351 83.856 84.7511 82.528 84.7671 81.648ZM100.08 86.864V85.92C100.48 85.36 100.992 84.704 100.992 83.504V82.976H98.0484V81.648H102.272C102.352 82.016 102.368 82.352 102.368 82.832C102.368 84.864 101.776 86 100.88 86.864H100.08ZM105.425 90V88.672H106.513C106.337 87.92 106.241 87.12 106.241 86.304C106.241 85.12 106.417 83.936 106.705 82.992H105.601V81.648H111.329C111.777 81.648 112.129 82 112.129 82.448V90H110.737V82.992H108.129C107.841 83.904 107.633 84.896 107.633 86.112C107.633 86.896 107.729 87.776 107.953 88.672V90H105.425ZM118.93 90V83.872C118.93 83.36 118.562 82.992 118.05 82.992H114.626V81.648H118.562C119.57 81.648 120.322 82.4 120.322 83.424V90H118.93ZM126.274 90V82.992H123.906V81.648H127.65V90H126.274ZM137.235 81.648C137.651 81.648 137.971 81.968 137.971 82.384V86.88C137.971 89.104 136.483 90.208 134.995 90.208C133.523 90.208 132.067 89.136 132.067 86.992V82.992H131.427V81.648H137.235ZM136.595 87.12V82.976H133.443V86.96C133.443 88.224 134.259 88.848 135.059 88.848C135.827 88.848 136.595 88.272 136.595 87.12ZM144.66 81.584C145.86 81.584 146.692 82.416 146.692 83.648V90H143.46V88.672H145.316V83.984C145.316 83.376 144.884 82.928 144.324 82.928C144.228 82.928 144.148 82.928 143.891 82.976L142.292 83.264L141.492 90H140.18V89.344L140.916 83.168L140.148 82.88V81.6H140.772L141.988 82L144.148 81.632C144.324 81.6 144.5 81.584 144.66 81.584ZM153.7 90V82.992H149.188V81.648H154.292C154.74 81.648 155.092 82 155.092 82.448V90H153.7ZM149.284 90V85.264H150.66V90H149.284ZM171.637 81.648H172.933V84.128C172.933 88.064 171.237 90 166.805 90C166.517 90 166.309 89.744 166.309 89.408V81.648H167.589V85.232C168.597 85.04 168.965 84.544 168.965 83.184V81.648H170.261V82.896C170.261 84.928 169.557 86.016 167.589 86.288V88.688C170.309 88.656 171.637 87.232 171.637 84.48V81.648ZM178.118 90V82.992H175.75V81.648H179.494V90H178.118ZM183.511 90V88.656H187.847V82.992H183.847V81.648H188.423C188.887 81.648 189.223 82 189.223 82.448V88.656H190.151V90H183.511ZM194.231 90V88.848C196.343 86.912 196.967 85.872 196.967 84.24V82.992H192.359V79.648H193.751V81.648H197.559C198.007 81.648 198.359 82 198.359 82.448V84.112C198.359 86.4 197.271 88.16 195.047 90H194.231ZM205.544 90V82.992H201.032V81.648H206.136C206.584 81.648 206.936 82 206.936 82.448V90H205.544ZM201.128 90V85.264H202.504V90H201.128ZM218.249 90V81.648H222.537C223.561 81.648 224.297 82.4 224.297 83.424V90H218.249ZM219.625 88.672H222.921V83.872C222.921 83.36 222.537 82.992 222.041 82.992H219.625V88.672ZM230.666 81.648L232.906 89.472V90H231.626L230.922 87.552L228.01 90H227.034V89.104L230.522 86.144L229.626 82.992H228.17V81.648H230.666ZM247.195 90.144C246.523 90.144 246.027 89.632 246.027 88.96C246.027 88.32 246.523 87.792 247.195 87.792C247.851 87.792 248.363 88.32 248.363 88.96C248.363 89.632 247.851 90.144 247.195 90.144ZM252.316 90V88.672H253.404C253.228 87.92 253.132 87.12 253.132 86.304C253.132 85.12 253.308 83.936 253.596 82.992H252.492V81.648H258.22C258.668 81.648 259.02 82 259.02 82.448V90H257.628V82.992H255.02C254.732 83.904 254.524 84.896 254.524 86.112C254.524 86.896 254.62 87.776 254.844 88.672V90H252.316ZM264.524 90V82.992H262.156V81.648H265.9V90H264.524ZM273.965 90V82.992H269.933V81.648H276.317V82.992H275.341V90H273.965ZM281.838 89.872V88.784C283.15 87.2 283.662 86 283.662 84.32V82.992H278.638V81.648H284.254C284.702 81.648 285.054 81.984 285.054 82.432V84C285.054 86.128 284.494 87.952 282.798 89.872H281.838ZM278.782 91.664V85.072H280.158V91.664H278.782ZM290.446 90V82.992H288.078V81.648H291.822V90H290.446ZM300.383 90V83.872C300.383 83.36 300.015 82.992 299.503 82.992H296.079V81.648H300.015C301.023 81.648 301.775 82.4 301.775 83.424V90H300.383ZM309.231 90V82.992H304.719V81.648H309.823C310.271 81.648 310.623 82 310.623 82.448V90H309.231ZM304.815 90V85.264H306.191V90H304.815ZM27.6594 109V107.672H28.7474C28.5714 106.92 28.4754 106.12 28.4754 105.304C28.4754 104.12 28.6514 102.936 28.9394 101.992H27.8354V100.648H33.5634C34.0114 100.648 34.3634 101 34.3634 101.448V109H32.9714V101.992H30.3634C30.0754 102.904 29.8674 103.896 29.8674 105.112C29.8674 105.896 29.9634 106.776 30.1874 107.672V109H27.6594ZM39.868 109V101.992H37.5V100.648H41.244V109H39.868ZM45.1006 109V107.672H50.1566L49.9806 102.872C49.9646 102.36 49.5966 101.992 49.1006 101.992H47.3086L47.0366 103.864C47.0206 103.944 47.0686 104.024 47.1486 104.072L47.9966 104.504V105.592H47.1166L46.0126 105.032C45.6926 104.872 45.5806 104.552 45.6286 104.2L46.1566 100.648H49.5646C50.5886 100.648 51.2926 101.4 51.3246 102.424L51.5806 109H45.1006ZM53.9813 109V107.672H57.1813C58.0453 107.672 58.7013 107.016 58.7013 106.152V101.992H54.2213V100.648H59.4373C59.8053 100.648 60.0773 100.936 60.0773 101.288V106.2C60.0773 107.672 58.7493 109 57.2773 109H53.9813ZM73.0225 110.968V110.328C73.8065 110.008 74.0625 109.448 74.0625 109.08C73.6465 108.888 73.3745 108.488 73.3745 107.976C73.3745 107.32 73.8705 106.792 74.5585 106.792C75.0865 106.792 75.7425 107.096 75.7425 108.136C75.7425 109.48 74.5425 110.824 73.0225 110.968ZM79.9991 109V100.648H84.2871C85.3111 100.648 86.0471 101.4 86.0471 102.424V109H79.9991ZM81.3751 107.672H84.6711V102.872C84.6711 102.36 84.2871 101.992 83.7911 101.992H81.3751V107.672ZM91.4398 105.864V104.92C91.8398 104.36 92.3518 103.704 92.3518 102.504V101.976H89.4078V100.648H93.6318C93.7118 101.016 93.7278 101.352 93.7278 101.832C93.7278 103.864 93.1358 105 92.2398 105.864H91.4398ZM97.8084 109V107.672H100.976V101.992H98.9764V100.648H102.352V108.2C102.352 108.648 102.032 109 101.568 109H97.8084ZM105.585 109V107.672H110.641L110.465 102.872C110.449 102.36 110.081 101.992 109.585 101.992H107.793L107.521 103.864C107.505 103.944 107.553 104.024 107.633 104.072L108.481 104.504V105.592H107.601L106.497 105.032C106.177 104.872 106.065 104.552 106.113 104.2L106.641 100.648H110.049C111.073 100.648 111.777 101.4 111.809 102.424L112.065 109H105.585ZM119.138 109V101.992H114.626V100.648H119.73C120.178 100.648 120.53 101 120.53 101.448V109H119.138ZM114.722 109V104.264H116.098V109H114.722ZM134.947 108.872V107.784C136.259 106.2 136.771 105 136.771 103.32V101.992H131.747V100.648H137.363C137.811 100.648 138.163 100.984 138.163 101.432V103C138.163 105.128 137.603 106.952 135.907 108.872H134.947ZM131.891 110.664V104.072H133.267V110.664H131.891ZM144.852 109V102.872C144.852 102.36 144.484 101.992 143.972 101.992H140.548V100.648H144.484C145.492 100.648 146.244 101.4 146.244 102.424V109H144.852ZM154.356 100.648H155.652V103.128C155.652 107.064 153.956 109 149.524 109C149.236 109 149.028 108.744 149.028 108.408V100.648H150.308V104.232C151.316 104.04 151.684 103.544 151.684 102.184V100.648H152.98V101.896C152.98 103.928 152.276 105.016 150.308 105.288V107.688C153.028 107.656 154.356 106.232 154.356 103.48V100.648ZM170.773 109V102.872C170.773 102.36 170.405 101.992 169.893 101.992H166.469V100.648H170.405C171.413 100.648 172.165 101.4 172.165 102.424V109H170.773ZM175.126 109V100.648H180.326C180.774 100.648 181.126 101 181.126 101.448V109H179.75V101.992H176.502V109H175.126ZM189.815 101.672C189.815 103.64 189.367 104.44 187.767 105.192L189.591 108.056L189.575 109H188.535L185.783 104.696C185.239 105.272 184.999 106.04 184.999 107.192V109H183.623V107.512C183.623 105.656 184.103 104.488 185.159 103.72L183.815 101.608L183.831 100.648H184.855L187.175 104.28C188.167 103.784 188.439 103.32 188.439 102.2V100.648H189.815V101.672ZM196.503 100.584C197.703 100.584 198.535 101.416 198.535 102.648V109H195.303V107.672H197.159V102.984C197.159 102.376 196.727 101.928 196.167 101.928C196.071 101.928 195.991 101.928 195.735 101.976L194.135 102.264L193.335 109H192.023V108.344L192.759 102.168L191.991 101.88V100.6H192.615L193.831 101L195.991 100.632C196.167 100.6 196.343 100.584 196.503 100.584ZM211.273 110.968V110.328C212.057 110.008 212.312 109.448 212.312 109.08C211.897 108.888 211.625 108.488 211.625 107.976C211.625 107.32 212.121 106.792 212.809 106.792C213.337 106.792 213.993 107.096 213.993 108.136C213.993 109.48 212.793 110.824 211.273 110.968ZM222.825 109V101.992H218.313V100.648H223.417C223.865 100.648 224.217 101 224.217 101.448V109H222.825ZM218.409 109V104.264H219.785V109H218.409ZM231.658 100.648H233.018V101.288C233.002 102.008 232.986 102.824 232.938 103.544C232.682 107.384 231.258 108.776 227.37 109.272L226.746 109.352H226.538V108.024C226.922 107.992 227.274 107.96 227.626 107.896C227.914 107.848 228.186 107.8 228.442 107.736L227.226 101.304V100.648H228.538L229.77 107.304C230.906 106.76 231.402 105.832 231.546 103.912C231.626 102.856 231.642 101.528 231.658 100.648ZM238.602 109V101.992H236.234V100.648H239.978V109H238.602ZM244.699 109V107.672H247.867V101.992H245.867V100.648H249.243V108.2C249.243 108.648 248.923 109 248.459 109H244.699ZM252.316 109V107.672H253.404C253.228 106.92 253.132 106.12 253.132 105.304C253.132 104.12 253.308 102.936 253.596 101.992H252.492V100.648H258.22C258.668 100.648 259.02 101 259.02 101.448V109H257.628V101.992H255.02C254.732 102.904 254.524 103.896 254.524 105.112C254.524 105.896 254.62 106.776 254.844 107.672V109H252.316ZM266.028 109V101.992H261.516V100.648H266.62C267.068 100.648 267.42 101 267.42 101.448V109H266.028ZM261.612 109V104.264H262.988V109H261.612ZM281.534 105.864V104.92C281.934 104.36 282.446 103.704 282.446 102.504V101.976H279.502V100.648H283.726C283.806 101.016 283.822 101.352 283.822 101.832C283.822 103.864 283.23 105 282.334 105.864H281.534ZM287.038 109V107.672H292.094L291.918 102.872C291.902 102.36 291.534 101.992 291.038 101.992H289.246L288.974 103.864C288.958 103.944 289.006 104.024 289.086 104.072L289.934 104.504V105.592H289.054L287.95 105.032C287.63 104.872 287.518 104.552 287.566 104.2L288.094 100.648H291.502C292.526 100.648 293.23 101.4 293.262 102.424L293.518 109H287.038ZM299.087 109V101.992H296.719V100.648H300.463V109H299.087ZM310.783 101.672C310.783 103.64 310.335 104.44 308.735 105.192L310.559 108.056L310.543 109H309.503L306.751 104.696C306.207 105.272 305.967 106.04 305.967 107.192V109H304.591V107.512C304.591 105.656 305.071 104.488 306.127 103.72L304.783 101.608L304.799 100.648H305.823L308.143 104.28C309.135 103.784 309.407 103.32 309.407 102.2V100.648H310.783V101.672ZM27.6594 128V126.672H28.7474C28.5714 125.92 28.4754 125.12 28.4754 124.304C28.4754 123.12 28.6514 121.936 28.9394 120.992H27.8354V119.648H33.5634C34.0114 119.648 34.3634 120 34.3634 120.448V128H32.9714V120.992H30.3634C30.0754 121.904 29.8674 122.896 29.8674 124.112C29.8674 124.896 29.9634 125.776 30.1874 126.672V128H27.6594ZM41.564 119.648H42.924V120.288C42.908 121.008 42.892 121.824 42.844 122.544C42.588 126.384 41.164 127.776 37.276 128.272L36.652 128.352H36.444V127.024C36.828 126.992 37.18 126.96 37.532 126.896C37.82 126.848 38.092 126.8 38.348 126.736L37.132 120.304V119.648H38.444L39.676 126.304C40.812 125.76 41.308 124.832 41.452 122.912C41.532 121.856 41.548 120.528 41.564 119.648ZM48.5086 128V120.992H46.1406V119.648H49.8846V128H48.5086ZM54.6053 128V126.672H57.7733V120.992H55.7733V119.648H59.1493V127.2C59.1493 127.648 58.8293 128 58.3653 128H54.6053ZM62.2219 128V126.672H63.3099C63.1339 125.92 63.0379 125.12 63.0379 124.304C63.0379 123.12 63.2139 121.936 63.5019 120.992H62.3979V119.648H68.1259C68.5739 119.648 68.9259 120 68.9259 120.448V128H67.5339V120.992H64.9259C64.6379 121.904 64.4299 122.896 64.4299 124.112C64.4299 124.896 64.5259 125.776 64.7499 126.672V128H62.2219ZM81.6631 129.968V129.328C82.4471 129.008 82.7031 128.448 82.7031 128.08C82.2871 127.888 82.0151 127.488 82.0151 126.976C82.0151 126.32 82.5111 125.792 83.1991 125.792C83.7271 125.792 84.3831 126.096 84.3831 127.136C84.3831 128.48 83.1831 129.824 81.6631 129.968ZM88.1438 128V126.672H89.2318C89.0558 125.92 88.9598 125.12 88.9598 124.304C88.9598 123.12 89.1358 121.936 89.4238 120.992H88.3198V119.648H94.0478C94.4958 119.648 94.8478 120 94.8478 120.448V128H93.4558V120.992H90.8478C90.5598 121.904 90.3518 122.896 90.3518 124.112C90.3518 124.896 90.4478 125.776 90.6718 126.672V128H88.1438ZM100.352 128V120.992H97.9844V119.648H101.728V128H100.352ZM108.721 124.864V123.92C109.121 123.36 109.633 122.704 109.633 121.504V120.976H106.689V119.648H110.913C110.993 120.016 111.009 120.352 111.009 120.832C111.009 122.864 110.417 124 109.521 124.864H108.721ZM117.634 128V120.992H115.266V119.648H119.01V128H117.634ZM125.106 128V126.848C127.218 124.912 127.842 123.872 127.842 122.24V120.992H123.234V117.648H124.626V119.648H128.434C128.882 119.648 129.234 120 129.234 120.448V122.112C129.234 124.4 128.146 126.16 125.922 128H125.106ZM135.619 119.648L137.859 127.472V128H136.579L135.875 125.552L132.963 128H131.987V127.104L135.475 124.144L134.579 120.992H133.123V119.648H135.619ZM152.196 128V120.992H149.828V119.648H153.572V128H152.196ZM160.565 124.864V123.92C160.965 123.36 161.477 122.704 161.477 121.504V120.976H158.533V119.648H162.757C162.837 120.016 162.853 120.352 162.853 120.832C162.853 122.864 162.261 124 161.365 124.864H160.565ZM170.981 128V120.992H166.469V119.648H171.573C172.021 119.648 172.373 120 172.373 120.448V128H170.981ZM166.565 128V123.264H167.941V128H166.565ZM183.687 128V119.648H187.975C188.999 119.648 189.735 120.4 189.735 121.424V128H183.687ZM185.063 126.672H188.359V121.872C188.359 121.36 187.975 120.992 187.479 120.992H185.063V126.672ZM195.127 124.864V123.92C195.527 123.36 196.039 122.704 196.039 121.504V120.976H193.095V119.648H197.319C197.399 120.016 197.415 120.352 197.415 120.832C197.415 122.864 196.823 124 195.927 124.864H195.127ZM203.768 124.864V123.92C204.168 123.36 204.68 122.704 204.68 121.504V120.976H201.736V119.648H205.96C206.04 120.016 206.056 120.352 206.056 120.832C206.056 122.864 205.464 124 204.568 124.864H203.768ZM211.513 128V126.848C213.625 124.912 214.249 123.872 214.249 122.24V120.992H209.641V117.648H211.033V119.648H214.841C215.289 119.648 215.641 120 215.641 120.448V122.112C215.641 124.4 214.553 126.16 212.329 128H211.513ZM222.025 119.648L224.265 127.472V128H222.985L222.281 125.552L219.369 128H218.393V127.104L221.881 124.144L220.985 120.992H219.529V119.648H222.025ZM231.258 128V121.872C231.258 121.36 230.89 120.992 230.378 120.992H226.954V119.648H230.89C231.898 119.648 232.65 120.4 232.65 121.424V128H231.258ZM240.106 128V120.992H235.594V119.648H240.698C241.146 119.648 241.498 120 241.498 120.448V128H240.106ZM235.69 128V123.264H237.066V128H235.69ZM247.243 128V120.992H244.875V119.648H248.619V128H247.243ZM261.452 128V119.648H265.74C266.764 119.648 267.5 120.4 267.5 121.424V128H261.452ZM262.828 126.672H266.124V121.872C266.124 121.36 265.74 120.992 265.244 120.992H262.828V126.672ZM272.893 124.864V123.92C273.293 123.36 273.805 122.704 273.805 121.504V120.976H270.861V119.648H275.085C275.165 120.016 275.181 120.352 275.181 120.832C275.181 122.864 274.589 124 273.693 124.864H272.893ZM281.534 124.864V123.92C281.934 123.36 282.446 122.704 282.446 121.504V120.976H279.502V119.648H283.726C283.806 120.016 283.822 120.352 283.822 120.832C283.822 122.864 283.23 124 282.334 124.864H281.534ZM291.246 128V120.992H287.214V119.648H293.598V120.992H292.622V128H291.246ZM298.815 124.864V123.92C299.215 123.36 299.727 122.704 299.727 121.504V120.976H296.783V119.648H301.007C301.087 120.016 301.103 120.352 301.103 120.832C301.103 122.864 300.511 124 299.615 124.864H298.815ZM309.231 128V120.992H304.719V119.648H309.823C310.271 119.648 310.623 120 310.623 120.448V128H309.231ZM304.815 128V123.264H306.191V128H304.815ZM57.1013 147.144C56.4293 147.144 55.9333 146.632 55.9333 145.96C55.9333 145.32 56.4293 144.792 57.1013 144.792C57.7573 144.792 58.2693 145.32 58.2693 145.96C58.2693 146.632 57.7573 147.144 57.1013 147.144ZM66.5899 147V139.992H62.5579V138.648H68.9419V139.992H67.9659V147H66.5899ZM75.1345 138.648L77.3745 146.472V147H76.0945L75.3905 144.552L72.4785 147H71.5025V146.104L74.9905 143.144L74.0945 139.992H72.6385V138.648H75.1345ZM79.8231 147V145.656H84.1591V139.992H80.1591V138.648H84.7351C85.1991 138.648 85.5351 139 85.5351 139.448V145.656H86.4631V147H79.8231ZM93.2158 147V139.992H88.7038V138.648H93.8078C94.2558 138.648 94.6078 139 94.6078 139.448V147H93.2158ZM88.7998 147V142.264H90.1758V147H88.7998ZM108.721 143.864V142.92C109.121 142.36 109.633 141.704 109.633 140.504V139.976H106.689V138.648H110.913C110.993 139.016 111.009 139.352 111.009 139.832C111.009 141.864 110.417 143 109.521 143.864H108.721ZM117.634 147V139.992H115.266V138.648H119.01V147H117.634ZM126.274 147V139.992H123.906V138.648H127.65V147H126.274ZM134.947 146.872V145.784C136.259 144.2 136.771 143 136.771 141.32V139.992H131.747V138.648H137.363C137.811 138.648 138.163 138.984 138.163 139.432V141C138.163 143.128 137.603 144.952 135.907 146.872H134.947ZM131.891 148.664V142.072H133.267V148.664H131.891ZM152.884 148.664V139.976H149.092V138.648H155.204V139.976H154.26V148.664H152.884ZM162.133 147V140.872C162.133 140.36 161.765 139.992 161.253 139.992H157.829V138.648H161.765C162.773 138.648 163.525 139.4 163.525 140.424V147H162.133ZM170.277 147V139.992H166.245V138.648H172.629V139.992H171.653V147H170.277ZM188.263 147V139.992H183.751V138.648H188.855C189.303 138.648 189.655 139 189.655 139.448V147H188.263ZM183.847 147V142.264H185.223V147H183.847ZM194.663 147V139.992H192.871V138.648H197.831V139.992H196.039V147H194.663ZM205.144 138.584C206.344 138.584 207.176 139.416 207.176 140.648V147H203.944V145.672H205.8V140.984C205.8 140.376 205.368 139.928 204.808 139.928C204.712 139.928 204.632 139.928 204.376 139.976L202.776 140.264L201.976 147H200.664V146.344L201.4 140.168L200.632 139.88V138.6H201.256L202.472 139L204.632 138.632C204.808 138.6 204.984 138.584 205.144 138.584ZM213.977 147V140.872C213.977 140.36 213.609 139.992 213.097 139.992H209.673V138.648H213.609C214.617 138.648 215.369 139.4 215.369 140.424V147H213.977ZM218.777 147V145.672H221.945V139.992H219.945V138.648H223.321V146.2C223.321 146.648 223.001 147 222.537 147H218.777ZM240.106 147V139.992H235.594V138.648H240.698C241.146 138.648 241.498 139 241.498 139.448V147H240.106ZM235.69 147V142.264H237.066V147H235.69ZM246.075 147V145.848C248.187 143.912 248.811 142.872 248.811 141.24V139.992H244.203V136.648H245.595V138.648H249.403C249.851 138.648 250.203 139 250.203 139.448V141.112C250.203 143.4 249.115 145.16 246.891 147H246.075ZM255.884 147V139.992H253.516V138.648H257.26V147H255.884ZM261.356 147V145.672H264.556C265.42 145.672 266.076 145.016 266.076 144.152V139.992H261.596V138.648H266.812C267.18 138.648 267.452 138.936 267.452 139.288V144.2C267.452 145.672 266.124 147 264.652 147H261.356ZM283.294 148.664V139.976H280.526L280.222 142.376C280.206 142.456 280.238 142.536 280.334 142.584L281.166 143V144.104H280.254L279.15 143.544C278.846 143.384 278.734 143.064 278.782 142.696L279.262 139.24C279.31 138.856 279.662 138.648 280.062 138.648H283.886C284.334 138.648 284.67 138.984 284.67 139.432V148.664H283.294ZM290.446 147V139.992H288.078V138.648H291.822V147H290.446ZM299.791 138.648L302.031 146.472V147H300.751L300.047 144.552L297.135 147H296.159V146.104L299.647 143.144L298.751 139.992H297.295V138.648H299.791ZM309.231 147V139.992H304.719V138.648H309.823C310.271 138.648 310.623 139 310.623 139.448V147H309.231ZM304.815 147V142.264H306.191V147H304.815Z" fill="white"/>
<line x1="209.5" y1="327" x2="209.5" y2="142" stroke="white"/>
<line x1="210" y1="326.5" x2="424" y2="326.5" stroke="white"/>
</svg>
