<svg width="301" height="50" viewBox="0 0 301 50" fill="none" xmlns="http://www.w3.org/2000/svg">
<path d="M21.9234 13.904C19.9554 12.288 18.7394 9.76 18.7394 7.232C18.7394 4.704 19.9554 2.176 21.9234 0.559999H22.6914V1.392C21.0594 3.072 20.2274 5.12 20.2274 7.232C20.2274 9.344 21.0594 11.376 22.6914 13.072V13.904H21.9234ZM25.62 5.264V4.624C26.404 4.304 26.66 3.744 26.66 3.376C26.244 3.184 25.972 2.784 25.972 2.272C25.972 1.616 26.468 1.088 27.156 1.088C27.684 1.088 28.34 1.392 28.34 2.432C28.34 3.776 27.14 5.12 25.62 5.264ZM29.3 5.264V4.624C30.084 4.304 30.34 3.744 30.34 3.376C29.924 3.184 29.652 2.784 29.652 2.272C29.652 1.616 30.148 1.088 30.836 1.088C31.364 1.088 32.02 1.392 32.02 2.432C32.02 3.776 30.82 5.12 29.3 5.264ZM37.9246 13.664V4.976H35.6366V3.648H39.3006V13.664H37.9246ZM47.2533 3.584C48.4533 3.584 49.2853 4.416 49.2853 5.648V12H46.0533V10.672H47.9093V5.984C47.9093 5.376 47.4773 4.928 46.9173 4.928C46.8213 4.928 46.7413 4.928 46.4852 4.976L44.8853 5.264L44.0853 12H42.7733V11.344L43.5093 5.168L42.7413 4.88V3.6H43.3653L44.5813 4L46.7413 3.632C46.9173 3.6 47.0933 3.584 47.2533 3.584ZM54.5179 8.864V7.92C54.9179 7.36 55.4299 6.704 55.4299 5.504V4.976H52.4859V3.648H56.7099C56.7899 4.016 56.8059 4.352 56.8059 4.832C56.8059 6.864 56.2139 8 55.3179 8.864H54.5179ZM59.8625 12V10.672H60.9505C60.7745 9.92 60.6785 9.12 60.6785 8.304C60.6785 7.12 60.8545 5.936 61.1425 4.992H60.0385V3.648H65.7665C66.2145 3.648 66.5665 4 66.5665 4.448V12H65.1745V4.992H62.5665C62.2785 5.904 62.0705 6.896 62.0705 8.112C62.0705 8.896 62.1665 9.776 62.3905 10.672V12H59.8625ZM77.1438 12V10.672H78.2318C78.0558 9.92 77.9598 9.12 77.9598 8.304C77.9598 7.12 78.1358 5.936 78.4238 4.992H77.3198V3.648H83.0478C83.4958 3.648 83.8478 4 83.8478 4.448V12H82.4558V4.992H79.8478C79.5598 5.904 79.3518 6.896 79.3518 8.112C79.3518 8.896 79.4478 9.776 79.6718 10.672V12H77.1438ZM86.1044 12V10.656H90.4404V4.992H86.4404V3.648H91.0164C91.4804 3.648 91.8164 4 91.8164 4.448V10.656H92.7444V12H86.1044ZM95.929 5.264C95.401 5.264 94.745 4.96 94.745 3.92C94.745 2.576 95.945 1.232 97.465 1.088V1.728C96.681 2.048 96.425 2.608 96.425 2.976C96.841 3.168 97.113 3.568 97.113 4.08C97.113 4.736 96.617 5.264 95.929 5.264ZM99.609 5.264C99.081 5.264 98.425 4.96 98.425 3.92C98.425 2.576 99.625 1.232 101.145 1.088V1.728C100.361 2.048 100.105 2.608 100.105 2.976C100.521 3.168 100.793 3.568 100.793 4.08C100.793 4.736 100.297 5.264 99.609 5.264ZM115.962 13.664V4.976H112.17V3.648H118.282V4.976H117.338V13.664H115.962ZM123.915 12V4.992H121.547V3.648H125.291V12H123.915ZM128.988 12V10.672H130.076C129.9 9.92 129.804 9.12 129.804 8.304C129.804 7.12 129.98 5.936 130.268 4.992H129.164V3.648H134.892C135.34 3.648 135.692 4 135.692 4.448V12H134.3V4.992H131.692C131.404 5.904 131.196 6.896 131.196 8.112C131.196 8.896 131.292 9.776 131.516 10.672V12H128.988ZM142.3 3.584C143.5 3.584 144.332 4.416 144.332 5.648V12H141.1V10.672H142.956V5.984C142.956 5.376 142.524 4.928 141.964 4.928C141.868 4.928 141.788 4.928 141.532 4.976L139.932 5.264L139.132 12H137.82V11.344L138.556 5.168L137.788 4.88V3.6H138.412L139.628 4L141.788 3.632C141.964 3.6 142.14 3.584 142.3 3.584ZM147.277 13.904V13.072C148.909 11.392 149.741 9.344 149.741 7.232C149.741 5.12 148.909 3.088 147.277 1.392V0.559999H148.045C150.013 2.176 151.229 4.704 151.229 7.232C151.229 9.76 150.013 12.288 148.045 13.904H147.277ZM166.494 14.56V0.783999H167.646V14.56H166.494ZM185.903 12V4.992H181.391V3.648H186.495C186.943 3.648 187.295 4 187.295 4.448V12H185.903ZM181.487 12V7.264H182.863V12H181.487ZM190.496 12V10.672H193.664V4.992H191.664V3.648H195.04V11.2C195.04 11.648 194.72 12 194.256 12H190.496ZM198.433 12V10.656H202.769V4.992H198.769V3.648H203.345C203.809 3.648 204.145 4 204.145 4.448V10.656H205.073V12H198.433ZM210.321 12V4.992H207.953V3.648H211.697V12H210.321ZM229.106 12V4.992H224.594V3.648H229.698C230.146 3.648 230.498 4 230.498 4.448V12H229.106ZM224.69 12V7.264H226.066V12H224.69ZM237.043 12V4.992H233.011V3.648H239.395V4.992H238.419V12H237.043ZM243.716 12V10.848C245.828 8.912 246.452 7.872 246.452 6.24V4.992H241.844V1.648H243.236V3.648H247.044C247.492 3.648 247.844 4 247.844 4.448V6.112C247.844 8.4 246.756 10.16 244.532 12H243.716ZM253.252 8.864V7.92C253.652 7.36 254.164 6.704 254.164 5.504V4.976H251.22V3.648H255.444C255.524 4.016 255.54 4.352 255.54 4.832C255.54 6.864 254.948 8 254.052 8.864H253.252ZM268.31 8.288V7.024H273.206V8.288H268.31ZM285.015 12V3.648H289.303C290.327 3.648 291.063 4.4 291.063 5.424V12H285.015ZM286.391 10.672H289.687V5.872C289.687 5.36 289.303 4.992 288.807 4.992H286.391V10.672ZM299.783 4.672C299.783 6.64 299.335 7.44 297.735 8.192L299.559 11.056L299.543 12H298.503L295.751 7.696C295.207 8.272 294.967 9.04 294.967 10.192V12H293.591V10.512C293.591 8.656 294.071 7.488 295.127 6.72L293.783 4.608L293.799 3.648H294.823L297.143 7.28C298.135 6.784 298.407 6.32 298.407 5.2V3.648H299.783V4.672Z" fill="#181818"/>
</svg>
