<svg width="695" height="353" viewBox="0 0 695 353" fill="none" xmlns="http://www.w3.org/2000/svg">
<path d="M574.783 14.864L574.767 14.144L580.479 3.056H581.919L581.935 3.776L576.223 14.864H574.783ZM583.424 14.864L583.408 14.144L589.12 3.056H590.56L590.576 3.776L584.864 14.864H583.424ZM605.601 14V7.472H601.089V5.648H606.481C607.041 5.648 607.473 6.08 607.473 6.64V14H605.601ZM601.185 14V9.584H603.041V14H601.185ZM609.394 14V13.408L610.13 7.696L609.298 7.408V5.584H609.922L611.33 5.984L613.506 5.632C613.698 5.6 613.906 5.584 614.098 5.584C615.41 5.584 616.402 6.576 616.402 7.872V14H612.69V12.192H614.546V8.272C614.546 7.792 614.194 7.44 613.682 7.44C613.57 7.44 613.474 7.44 613.298 7.472L611.954 7.648L611.202 14H609.394ZM621.474 13.872V12.784C622.69 11.2 623.17 10 623.17 8.32V7.472H618.274V5.648H624.242C624.69 5.648 625.042 5.984 625.042 6.432V8C625.042 10.128 624.514 11.952 622.914 13.872H621.474ZM618.418 15.68V9.392H620.274V15.68H618.418ZM631.315 14V8.352C631.315 7.84 630.947 7.472 630.435 7.472H627.059V5.648H631.155C632.323 5.648 633.187 6.512 633.187 7.696V14H631.315ZM640.164 14V7.472H635.652V5.648H641.044C641.604 5.648 642.036 6.08 642.036 6.64V14H640.164ZM635.748 14V9.584H637.604V14H635.748ZM658.773 5.648C659.221 5.648 659.573 6 659.573 6.448V14H657.701V7.472H655.493C655.285 8.256 655.141 9.104 655.141 10.112C655.141 10.896 655.237 11.776 655.461 12.672V14H652.453V12.192H653.429C653.333 11.584 653.269 10.944 653.269 10.304C653.269 9.312 653.397 8.32 653.605 7.472H652.629V5.648H658.773ZM664.614 14V7.472H662.246V5.648H666.47V14H664.614ZM670.966 14V12.192H673.83V7.472H671.974V5.648H675.686V13.2C675.686 13.648 675.35 14 674.902 14H670.966ZM678.519 14V13.408L679.255 7.696L678.423 7.408V5.584H679.047L680.455 5.984L682.631 5.632C682.823 5.6 683.031 5.584 683.223 5.584C684.535 5.584 685.527 6.576 685.527 7.872V14H681.815V12.192H683.671V8.272C683.671 7.792 683.319 7.44 682.807 7.44C682.695 7.44 682.599 7.44 682.423 7.472L681.079 7.648L680.327 14H678.519ZM694.071 6.672C694.071 8.592 693.655 9.36 692.039 10.224L693.847 13.056L693.831 14H692.199L689.655 10.016C689.255 10.64 689.143 11.344 689.143 12.192V14H687.287V12.512C687.287 10.896 687.575 9.664 688.823 8.704L687.479 6.608L687.495 5.648H689.111L691.303 9.088C692.023 8.656 692.215 8.16 692.215 7.2V5.648H694.071V6.672ZM454.359 52V43.648H458.647C459.671 43.648 460.407 44.4 460.407 45.424V52H454.359ZM455.735 50.672H459.031V45.872C459.031 45.36 458.647 44.992 458.151 44.992H455.735V50.672ZM465.799 48.864V47.92C466.199 47.36 466.711 46.704 466.711 45.504V44.976H463.767V43.648H467.991C468.071 44.016 468.087 44.352 468.087 44.832C468.087 46.864 467.495 48 466.599 48.864H465.799ZM476.872 43.648H478.168V46.128C478.168 50.064 476.472 52 472.04 52C471.752 52 471.544 51.744 471.544 51.408V43.648H472.824V47.232C473.832 47.04 474.2 46.544 474.2 45.184V43.648H475.496V44.896C475.496 46.928 474.792 48.016 472.824 48.288V50.688C475.544 50.656 476.872 49.232 476.872 46.48V43.648ZM480.808 52V50.672H483.976V44.992H481.976V43.648H485.352V51.2C485.352 51.648 485.032 52 484.568 52H480.808ZM497.066 52V50.672H498.154C497.978 49.92 497.882 49.12 497.882 48.304C497.882 47.12 498.058 45.936 498.346 44.992H497.242V43.648H502.97C503.418 43.648 503.77 44 503.77 44.448V52H502.378V44.992H499.77C499.482 45.904 499.274 46.896 499.274 48.112C499.274 48.896 499.37 49.776 499.594 50.672V52H497.066ZM506.106 52V50.672H509.306C510.17 50.672 510.826 50.016 510.826 49.152V44.992H506.346V43.648H511.562C511.93 43.648 512.202 43.936 512.202 44.288V49.2C512.202 50.672 510.874 52 509.402 52H506.106ZM520.971 44.672C520.971 46.64 520.523 47.44 518.923 48.192L520.747 51.056L520.731 52H519.691L516.939 47.696C516.395 48.272 516.155 49.04 516.155 50.192V52H514.779V50.512C514.779 48.656 515.259 47.488 516.315 46.72L514.971 44.608L514.987 43.648H516.011L518.331 47.28C519.323 46.784 519.595 46.32 519.595 45.2V43.648H520.971V44.672ZM525.388 52V50.848C527.5 48.912 528.124 47.872 528.124 46.24V44.992H523.516V41.648H524.908V43.648H528.716C529.164 43.648 529.516 44 529.516 44.448V46.112C529.516 48.4 528.428 50.16 526.204 52H525.388ZM536.3 43.584C537.5 43.584 538.332 44.416 538.332 45.648V52H535.1V50.672H536.956V45.984C536.956 45.376 536.524 44.928 535.964 44.928C535.868 44.928 535.788 44.928 535.532 44.976L533.932 45.264L533.132 52H531.82V51.344L532.556 45.168L531.788 44.88V43.6H532.412L533.628 44L535.788 43.632C535.964 43.6 536.14 43.584 536.3 43.584ZM553.981 52V44.992H549.469V43.648H554.573C555.021 43.648 555.373 44 555.373 44.448V52H553.981ZM549.565 52V47.264H550.941V52H549.565ZM557.55 52V50.672H558.638C558.462 49.92 558.366 49.12 558.366 48.304C558.366 47.12 558.542 45.936 558.83 44.992H557.726V43.648H563.454C563.902 43.648 564.254 44 564.254 44.448V52H562.862V44.992H560.254C559.966 45.904 559.758 46.896 559.758 48.112C559.758 48.896 559.854 49.776 560.078 50.672V52H557.55ZM569.487 48.864V47.92C569.887 47.36 570.399 46.704 570.399 45.504V44.976H567.455V43.648H571.679C571.759 44.016 571.775 44.352 571.775 44.832C571.775 46.864 571.183 48 570.287 48.864H569.487ZM578.127 48.864V47.92C578.527 47.36 579.039 46.704 579.039 45.504V44.976H576.095V43.648H580.319C580.399 44.016 580.415 44.352 580.415 44.832C580.415 46.864 579.823 48 578.927 48.864H578.127ZM588.544 52V44.992H584.032V43.648H589.136C589.584 43.648 589.936 44 589.936 44.448V52H588.544ZM584.128 52V47.264H585.504V52H584.128ZM605.825 52V44.992H601.313V43.648H606.417C606.865 43.648 607.217 44 607.217 44.448V52H605.825ZM601.409 52V47.264H602.785V52H601.409ZM614.066 43.584C615.266 43.584 616.098 44.416 616.098 45.648V52H612.866V50.672H614.722V45.984C614.722 45.376 614.29 44.928 613.73 44.928C613.634 44.928 613.554 44.928 613.298 44.976L611.698 45.264L610.898 52H609.586V51.344L610.322 45.168L609.554 44.88V43.6H610.178L611.394 44L613.554 43.632C613.73 43.6 613.906 43.584 614.066 43.584ZM621.634 51.872V50.784C622.946 49.2 623.458 48 623.458 46.32V44.992H618.434V43.648H624.05C624.498 43.648 624.85 43.984 624.85 44.432V46C624.85 48.128 624.29 49.952 622.594 51.872H621.634ZM618.578 53.664V47.072H619.954V53.664H618.578ZM631.539 52V45.872C631.539 45.36 631.171 44.992 630.659 44.992H627.235V43.648H631.171C632.179 43.648 632.931 44.4 632.931 45.424V52H631.539ZM640.388 52V44.992H635.876V43.648H640.98C641.428 43.648 641.78 44 641.78 44.448V52H640.388ZM635.972 52V47.264H637.348V52H635.972ZM652.597 52V50.672H653.685C653.509 49.92 653.413 49.12 653.413 48.304C653.413 47.12 653.589 45.936 653.877 44.992H652.773V43.648H658.501C658.949 43.648 659.301 44 659.301 44.448V52H657.909V44.992H655.301C655.013 45.904 654.805 46.896 654.805 48.112C654.805 48.896 654.901 49.776 655.125 50.672V52H652.597ZM664.806 52V44.992H662.438V43.648H666.182V52H664.806ZM670.902 52V50.672H674.07V44.992H672.07V43.648H675.446V51.2C675.446 51.648 675.126 52 674.662 52H670.902ZM683.191 43.584C684.391 43.584 685.223 44.416 685.223 45.648V52H681.991V50.672H683.847V45.984C683.847 45.376 683.415 44.928 682.855 44.928C682.759 44.928 682.679 44.928 682.423 44.976L680.823 45.264L680.023 52H678.711V51.344L679.447 45.168L678.679 44.88V43.6H679.303L680.519 44L682.679 43.632C682.855 43.6 683.031 43.584 683.191 43.584ZM693.783 44.672C693.783 46.64 693.335 47.44 691.735 48.192L693.559 51.056L693.543 52H692.503L689.751 47.696C689.207 48.272 688.967 49.04 688.967 50.192V52H687.591V50.512C687.591 48.656 688.071 47.488 689.127 46.72L687.783 44.608L687.799 43.648H688.823L691.143 47.28C692.135 46.784 692.407 46.32 692.407 45.2V43.648H693.783V44.672ZM422.596 67.864V66.92C422.996 66.36 423.508 65.704 423.508 64.504V63.976H420.564V62.648H424.788C424.868 63.016 424.884 63.352 424.884 63.832C424.884 65.864 424.292 67 423.396 67.864H422.596ZM427.941 71V69.672H429.029C428.853 68.92 428.757 68.12 428.757 67.304C428.757 66.12 428.933 64.936 429.221 63.992H428.117V62.648H433.845C434.293 62.648 434.645 63 434.645 63.448V71H433.253V63.992H430.645C430.357 64.904 430.149 65.896 430.149 67.112C430.149 67.896 430.245 68.776 430.469 69.672V71H427.941ZM441.445 71V64.872C441.445 64.36 441.077 63.992 440.565 63.992H437.141V62.648H441.077C442.085 62.648 442.837 63.4 442.837 64.424V71H441.445ZM448.79 71V63.992H446.422V62.648H450.166V71H448.79ZM459.751 62.648C460.167 62.648 460.487 62.968 460.487 63.384V67.88C460.487 70.104 458.999 71.208 457.511 71.208C456.039 71.208 454.583 70.136 454.583 67.992V63.992H453.943V62.648H459.751ZM459.111 68.12V63.976H455.959V67.96C455.959 69.224 456.775 69.848 457.575 69.848C458.343 69.848 459.111 69.272 459.111 68.12ZM467.175 62.584C468.375 62.584 469.207 63.416 469.207 64.648V71H465.975V69.672H467.831V64.984C467.831 64.376 467.399 63.928 466.839 63.928C466.743 63.928 466.663 63.928 466.407 63.976L464.807 64.264L464.007 71H462.695V70.344L463.431 64.168L462.663 63.88V62.6H463.287L464.503 63L466.663 62.632C466.839 62.6 467.015 62.584 467.175 62.584ZM480.28 71V62.648H484.568C485.592 62.648 486.328 63.4 486.328 64.424V71H480.28ZM481.656 69.672H484.952V64.872C484.952 64.36 484.568 63.992 484.072 63.992H481.656V69.672ZM492.697 62.648L494.937 70.472V71H493.657L492.953 68.552L490.041 71H489.065V70.104L492.553 67.144L491.657 63.992H490.201V62.648H492.697ZM501.434 71V63.992H497.402V62.648H503.786V63.992H502.81V71H501.434ZM517.867 65.624C517.195 65.624 516.699 65.112 516.699 64.44C516.699 63.8 517.195 63.272 517.867 63.272C518.523 63.272 519.035 63.8 519.035 64.44C519.035 65.112 518.523 65.624 517.867 65.624ZM517.867 71.144C517.195 71.144 516.699 70.632 516.699 69.96C516.699 69.32 517.195 68.792 517.867 68.792C518.523 68.792 519.035 69.32 519.035 69.96C519.035 70.632 518.523 71.144 517.867 71.144ZM528.06 71V63.992H523.548V62.648H528.652C529.1 62.648 529.452 63 529.452 63.448V71H528.06ZM523.644 71V66.264H525.02V71H523.644ZM532.652 71V69.672H535.82V63.992H533.82V62.648H537.196V70.2C537.196 70.648 536.876 71 536.412 71H532.652ZM543.837 71V63.992H541.469V62.648H545.213V71H543.837ZM553.581 62.584C554.781 62.584 555.613 63.416 555.613 64.648V71H552.381V69.672H554.237V64.984C554.237 64.376 553.805 63.928 553.245 63.928C553.149 63.928 553.069 63.928 552.813 63.976L551.213 64.264L550.413 71H549.101V70.344L549.837 64.168L549.069 63.88V62.6H549.693L550.909 63L553.069 62.632C553.245 62.6 553.421 62.584 553.581 62.584ZM557.55 71V69.672H558.638C558.462 68.92 558.366 68.12 558.366 67.304C558.366 66.12 558.542 64.936 558.83 63.992H557.726V62.648H563.454C563.902 62.648 564.254 63 564.254 63.448V71H562.862V63.992H560.254C559.966 64.904 559.758 65.896 559.758 67.112C559.758 67.896 559.854 68.776 560.078 69.672V71H557.55ZM566.511 71V69.656H570.847V63.992H566.847V62.648H571.423C571.887 62.648 572.223 63 572.223 63.448V69.656H573.151V71H566.511ZM586.992 71.144C586.32 71.144 585.824 70.632 585.824 69.96C585.824 69.32 586.32 68.792 586.992 68.792C587.648 68.792 588.16 69.32 588.16 69.96C588.16 70.632 587.648 71.144 586.992 71.144ZM596.097 72.664V63.976H593.809V62.648H597.473V72.664H596.097ZM605.425 62.584C606.625 62.584 607.457 63.416 607.457 64.648V71H604.225V69.672H606.081V64.984C606.081 64.376 605.649 63.928 605.089 63.928C604.993 63.928 604.913 63.928 604.657 63.976L603.057 64.264L602.257 71H600.945V70.344L601.681 64.168L600.913 63.88V62.6H601.537L602.753 63L604.913 62.632C605.089 62.6 605.265 62.584 605.425 62.584ZM612.69 67.864V66.92C613.09 66.36 613.602 65.704 613.602 64.504V63.976H610.658V62.648H614.882C614.962 63.016 614.978 63.352 614.978 63.832C614.978 65.864 614.386 67 613.49 67.864H612.69ZM618.034 71V69.672H619.122C618.946 68.92 618.85 68.12 618.85 67.304C618.85 66.12 619.026 64.936 619.314 63.992H618.21V62.648H623.938C624.386 62.648 624.738 63 624.738 63.448V71H623.346V63.992H620.738C620.45 64.904 620.242 65.896 620.242 67.112C620.242 67.896 620.338 68.776 620.562 69.672V71H618.034ZM626.995 71V69.656H631.331V63.992H627.331V62.648H631.907C632.371 62.648 632.707 63 632.707 63.448V69.656H633.635V71H626.995ZM643.956 71V69.672H645.044C644.868 68.92 644.772 68.12 644.772 67.304C644.772 66.12 644.948 64.936 645.236 63.992H644.132V62.648H649.86C650.308 62.648 650.66 63 650.66 63.448V71H649.268V63.992H646.66C646.372 64.904 646.164 65.896 646.164 67.112C646.164 67.896 646.26 68.776 646.484 69.672V71H643.956ZM655.893 67.864V66.92C656.293 66.36 656.805 65.704 656.805 64.504V63.976H653.861V62.648H658.085C658.165 63.016 658.181 63.352 658.181 63.832C658.181 65.864 657.589 67 656.693 67.864H655.893ZM664.07 71V63.992H662.278V62.648H667.238V63.992H665.446V71H664.07ZM670.278 71V69.672H673.478C674.342 69.672 674.998 69.016 674.998 68.152V63.992H670.518V62.648H675.734C676.102 62.648 676.374 62.936 676.374 63.288V68.2C676.374 69.672 675.046 71 673.574 71H670.278ZM683.383 71V64.872C683.383 64.36 683.015 63.992 682.503 63.992H679.079V62.648H683.015C684.023 62.648 684.775 63.4 684.775 64.424V71H683.383ZM691.831 62.584C693.031 62.584 693.863 63.416 693.863 64.648V71H690.631V69.672H692.487V64.984C692.487 64.376 692.055 63.928 691.495 63.928C691.399 63.928 691.319 63.928 691.063 63.976L689.463 64.264L688.663 71H687.351V70.344L688.087 64.168L687.319 63.88V62.6H687.943L689.159 63L691.319 62.632C691.495 62.6 691.671 62.584 691.831 62.584ZM458.935 90V82.992H454.423V81.648H459.527C459.975 81.648 460.327 82 460.327 82.448V90H458.935ZM454.519 90V85.264H455.895V90H454.519ZM464.903 90V88.848C467.015 86.912 467.639 85.872 467.639 84.24V82.992H463.031V79.648H464.423V81.648H468.231C468.679 81.648 469.031 82 469.031 82.448V84.112C469.031 86.4 467.943 88.16 465.719 90H464.903ZM475.816 81.584C477.016 81.584 477.848 82.416 477.848 83.648V90H474.616V88.672H476.472V83.984C476.472 83.376 476.04 82.928 475.48 82.928C475.384 82.928 475.304 82.928 475.048 82.976L473.448 83.264L472.648 90H471.336V89.344L472.072 83.168L471.304 82.88V81.6H471.928L473.144 82L475.304 81.632C475.48 81.6 475.656 81.584 475.816 81.584ZM485.512 81.648H486.808V84.128C486.808 88.064 485.112 90 480.68 90C480.392 90 480.184 89.744 480.184 89.408V81.648H481.464V85.232C482.472 85.04 482.84 84.544 482.84 83.184V81.648H484.136V82.896C484.136 84.928 483.432 86.016 481.464 86.288V88.688C484.184 88.656 485.512 87.232 485.512 84.48V81.648ZM490.585 91.968V91.328C491.369 91.008 491.625 90.448 491.625 90.08C491.209 89.888 490.937 89.488 490.937 88.976C490.937 88.32 491.433 87.792 492.121 87.792C492.649 87.792 493.305 88.096 493.305 89.136C493.305 90.48 492.105 91.824 490.585 91.968ZM510.778 90V82.992H506.266V81.648H511.37C511.818 81.648 512.17 82 512.17 82.448V90H510.778ZM506.362 90V85.264H507.738V90H506.362ZM515.371 90V88.672H518.539V82.992H516.539V81.648H519.915V89.2C519.915 89.648 519.595 90 519.131 90H515.371ZM526.556 90V82.992H524.188V81.648H527.932V90H526.556ZM531.628 90V88.672H532.716C532.54 87.92 532.444 87.12 532.444 86.304C532.444 85.12 532.62 83.936 532.908 82.992H531.804V81.648H537.532C537.98 81.648 538.332 82 538.332 82.448V90H536.94V82.992H534.332C534.044 83.904 533.836 84.896 533.836 86.112C533.836 86.896 533.932 87.776 534.156 88.672V90H531.628ZM540.845 90V81.648H546.045C546.493 81.648 546.845 82 546.845 82.448V90H545.469V82.992H542.221V90H540.845ZM548.909 90V88.672H549.997C549.821 87.92 549.725 87.12 549.725 86.304C549.725 85.12 549.901 83.936 550.189 82.992H549.085V81.648H554.813C555.261 81.648 555.613 82 555.613 82.448V90H554.221V82.992H551.613C551.325 83.904 551.117 84.896 551.117 86.112C551.117 86.896 551.213 87.776 551.437 88.672V90H548.909ZM562.622 90V82.992H558.11V81.648H563.214C563.662 81.648 564.014 82 564.014 82.448V90H562.622ZM558.206 90V85.264H559.582V90H558.206ZM578.815 91.664V82.976H576.527V81.648H580.191V91.664H578.815ZM588.144 81.584C589.344 81.584 590.176 82.416 590.176 83.648V90H586.944V88.672H588.8V83.984C588.8 83.376 588.368 82.928 587.808 82.928C587.712 82.928 587.632 82.928 587.376 82.976L585.776 83.264L584.976 90H583.664V89.344L584.4 83.168L583.632 82.88V81.6H584.256L585.472 82L587.632 81.632C587.808 81.6 587.984 81.584 588.144 81.584ZM595.409 86.864V85.92C595.809 85.36 596.321 84.704 596.321 83.504V82.976H593.377V81.648H597.601C597.681 82.016 597.697 82.352 597.697 82.832C597.697 84.864 597.105 86 596.209 86.864H595.409ZM600.753 90V88.672H601.841C601.665 87.92 601.569 87.12 601.569 86.304C601.569 85.12 601.745 83.936 602.033 82.992H600.929V81.648H606.657C607.105 81.648 607.457 82 607.457 82.448V90H606.065V82.992H603.457C603.169 83.904 602.961 84.896 602.961 86.112C602.961 86.896 603.057 87.776 603.281 88.672V90H600.753ZM620.434 90V88.848C622.546 86.912 623.17 85.872 623.17 84.24V82.992H618.562V79.648H619.954V81.648H623.762C624.21 81.648 624.562 82 624.562 82.448V84.112C624.562 86.4 623.474 88.16 621.25 90H620.434ZM632.403 81.648H633.699V84.128C633.699 88.064 632.003 90 627.571 90C627.283 90 627.075 89.744 627.075 89.408V81.648H628.355V85.232C629.363 85.04 629.731 84.544 629.731 83.184V81.648H631.027V82.896C631.027 84.928 630.323 86.016 628.355 86.288V88.688C631.075 88.656 632.403 87.232 632.403 84.48V81.648ZM649.684 81.648H650.98V84.128C650.98 88.064 649.284 90 644.852 90C644.564 90 644.356 89.744 644.356 89.408V81.648H645.636V85.232C646.644 85.04 647.012 84.544 647.012 83.184V81.648H648.308V82.896C648.308 84.928 647.604 86.016 645.636 86.288V88.688C648.356 88.656 649.684 87.232 649.684 84.48V81.648ZM656.165 90V82.992H653.797V81.648H657.541V90H656.165ZM661.558 90V88.656H665.894V82.992H661.894V81.648H666.47C666.934 81.648 667.27 82 667.27 82.448V88.656H668.198V90H661.558ZM672.278 90V88.848C674.39 86.912 675.014 85.872 675.014 84.24V82.992H670.406V79.648H671.798V81.648H675.606C676.054 81.648 676.406 82 676.406 82.448V84.112C676.406 86.4 675.318 88.16 673.094 90H672.278ZM683.591 90V82.992H679.079V81.648H684.183C684.631 81.648 684.983 82 684.983 82.448V90H683.591ZM679.175 90V85.264H680.551V90H679.175ZM691.831 81.584C693.031 81.584 693.863 82.416 693.863 83.648V90H690.631V88.672H692.487V83.984C692.487 83.376 692.055 82.928 691.495 82.928C691.399 82.928 691.319 82.928 691.063 82.976L689.463 83.264L688.663 90H687.351V89.344L688.087 83.168L687.319 82.88V81.6H687.943L689.159 82L691.319 81.632C691.495 81.6 691.671 81.584 691.831 81.584ZM411.155 109V100.648H415.443C416.467 100.648 417.203 101.4 417.203 102.424V109H411.155ZM412.531 107.672H415.827V102.872C415.827 102.36 415.443 101.992 414.947 101.992H412.531V107.672ZM422.596 105.864V104.92C422.996 104.36 423.508 103.704 423.508 102.504V101.976H420.564V100.648H424.788C424.868 101.016 424.884 101.352 424.884 101.832C424.884 103.864 424.292 105 423.396 105.864H422.596ZM429.301 109C428.853 109 428.501 108.648 428.501 108.2V100.648H429.861V107.64H430.341C432.373 107.64 433.429 106.392 433.429 104.008V102.984C433.429 102.376 432.997 101.928 432.437 101.928C432.245 101.928 432.021 101.96 431.365 102.104L431.157 100.824C431.877 100.68 432.405 100.6 432.709 100.6C434.005 100.6 434.853 101.448 434.837 102.728L434.821 103.64C434.757 107.304 433.189 109 429.669 109H429.301ZM438.981 109V107.848C441.093 105.912 441.717 104.872 441.717 103.24V101.992H437.109V98.648H438.501V100.648H442.309C442.757 100.648 443.109 101 443.109 101.448V103.112C443.109 105.4 442.021 107.16 439.797 109H438.981ZM448.79 109V101.992H446.422V100.648H450.166V109H448.79ZM454.183 109V107.656H458.519V101.992H454.519V100.648H459.095C459.559 100.648 459.895 101 459.895 101.448V107.656H460.823V109H454.183ZM476.216 109V101.992H471.704V100.648H476.808C477.256 100.648 477.608 101 477.608 101.448V109H476.216ZM471.8 109V104.264H473.176V109H471.8ZM480.104 109V107.656H484.44V101.992H480.44V100.648H485.016C485.48 100.648 485.816 101 485.816 101.448V107.656H486.744V109H480.104ZM494.153 100.648H495.449V103.128C495.449 107.064 493.753 109 489.321 109C489.033 109 488.825 108.744 488.825 108.408V100.648H490.105V104.232C491.113 104.04 491.481 103.544 491.481 102.184V100.648H492.777V101.896C492.777 103.928 492.073 105.016 490.105 105.288V107.688C492.825 107.656 494.153 106.232 494.153 103.48V100.648ZM507.866 110.968V110.328C508.65 110.008 508.906 109.448 508.906 109.08C508.49 108.888 508.218 108.488 508.218 107.976C508.218 107.32 508.714 106.792 509.402 106.792C509.93 106.792 510.586 107.096 510.586 108.136C510.586 109.48 509.386 110.824 507.866 110.968ZM517.643 105.864V104.92C518.043 104.36 518.555 103.704 518.555 102.504V101.976H515.611V100.648H519.835C519.915 101.016 519.931 101.352 519.931 101.832C519.931 103.864 519.339 105 518.443 105.864H517.643ZM528.716 100.648H530.012V103.128C530.012 107.064 528.316 109 523.884 109C523.596 109 523.388 108.744 523.388 108.408V100.648H524.668V104.232C525.676 104.04 526.044 103.544 526.044 102.184V100.648H527.34V101.896C527.34 103.928 526.636 105.016 524.668 105.288V107.688C527.388 107.656 528.716 106.232 528.716 103.48V100.648ZM536.3 100.584C537.5 100.584 538.332 101.416 538.332 102.648V109H535.1V107.672H536.956V102.984C536.956 102.376 536.524 101.928 535.964 101.928C535.868 101.928 535.788 101.928 535.532 101.976L533.932 102.264L533.132 109H531.82V108.344L532.556 102.168L531.788 101.88V100.6H532.412L533.628 101L535.788 100.632C535.964 100.6 536.14 100.584 536.3 100.584ZM552.205 105.864V104.92C552.605 104.36 553.117 103.704 553.117 102.504V101.976H550.173V100.648H554.397C554.477 101.016 554.493 101.352 554.493 101.832C554.493 103.864 553.901 105 553.005 105.864H552.205ZM558.91 109C558.462 109 558.11 108.648 558.11 108.2V100.648H559.47V107.64H559.95C561.982 107.64 563.038 106.392 563.038 104.008V102.984C563.038 102.376 562.606 101.928 562.046 101.928C561.854 101.928 561.63 101.96 560.974 102.104L560.766 100.824C561.486 100.68 562.014 100.6 562.318 100.6C563.614 100.6 564.462 101.448 564.446 102.728L564.43 103.64C564.366 107.304 562.798 109 559.278 109H558.91ZM569.759 109V101.992H567.391V100.648H571.135V109H569.759ZM575.407 109V100.648H580.607C581.055 100.648 581.407 101 581.407 101.448V109H580.031V101.992H576.783V109H575.407ZM583.792 109V107.656H588.128V101.992H584.128V100.648H588.704C589.168 100.648 589.504 101 589.504 101.448V107.656H590.432V109H583.792ZM605.825 109V101.992H601.313V100.648H606.417C606.865 100.648 607.217 101 607.217 101.448V109H605.825ZM601.409 109V104.264H602.785V109H601.409ZM614.066 100.584C615.266 100.584 616.098 101.416 616.098 102.648V109H612.866V107.672H614.722V102.984C614.722 102.376 614.29 101.928 613.73 101.928C613.634 101.928 613.554 101.928 613.298 101.976L611.698 102.264L610.898 109H609.586V108.344L610.322 102.168L609.554 101.88V100.6H610.178L611.394 101L613.554 100.632C613.73 100.6 613.906 100.584 614.066 100.584ZM621.602 109V101.992H619.234V100.648H622.978V109H621.602ZM630.275 108.872V107.784C631.587 106.2 632.099 105 632.099 103.32V101.992H627.075V100.648H632.691C633.139 100.648 633.491 100.984 633.491 101.432V103C633.491 105.128 632.931 106.952 631.235 108.872H630.275ZM627.219 110.664V104.072H628.595V110.664H627.219ZM640.18 109V102.872C640.18 102.36 639.812 101.992 639.3 101.992H635.876V100.648H639.812C640.82 100.648 641.572 101.4 641.572 102.424V109H640.18ZM657.669 109V101.992H653.157V100.648H658.261C658.709 100.648 659.061 101 659.061 101.448V109H657.669ZM653.253 109V104.264H654.629V109H653.253ZM666.102 109V102.872C666.102 102.36 665.734 101.992 665.222 101.992H661.798V100.648H665.734C666.742 100.648 667.494 101.4 667.494 102.424V109H666.102ZM673.446 109V101.992H671.078V100.648H674.822V109H673.446ZM679.095 109V100.648H684.295C684.743 100.648 685.095 101 685.095 101.448V109H683.719V101.992H680.471V109H679.095ZM692.887 100.648H694.183V103.128C694.183 107.064 692.487 109 688.055 109C687.767 109 687.559 108.744 687.559 108.408V100.648H688.839V104.232C689.847 104.04 690.215 103.544 690.215 102.184V100.648H691.511V101.896C691.511 103.928 690.807 105.016 688.839 105.288V107.688C691.559 107.656 692.887 106.232 692.887 103.48V100.648ZM466.023 128.144C465.351 128.144 464.855 127.632 464.855 126.96C464.855 126.32 465.351 125.792 466.023 125.792C466.679 125.792 467.191 126.32 467.191 126.96C467.191 127.632 466.679 128.144 466.023 128.144ZM471.64 128V119.648H475.928C476.952 119.648 477.688 120.4 477.688 121.424V128H471.64ZM473.016 126.672H476.312V121.872C476.312 121.36 475.928 120.992 475.432 120.992H473.016V126.672ZM483.08 124.864V123.92C483.48 123.36 483.992 122.704 483.992 121.504V120.976H481.048V119.648H485.272C485.352 120.016 485.368 120.352 485.368 120.832C485.368 122.864 484.776 124 483.88 124.864H483.08ZM493.289 128V121.872C493.289 121.36 492.921 120.992 492.409 120.992H488.985V119.648H492.921C493.929 119.648 494.681 120.4 494.681 121.424V128H493.289ZM499.898 128V120.992H498.106V119.648H503.066V120.992H501.274V128H499.898ZM509.274 128V120.992H506.906V119.648H510.65V128H509.274ZM514.923 128V119.648H520.123C520.571 119.648 520.923 120 520.923 120.448V128H519.547V120.992H516.299V128H514.923ZM528.06 128V120.992H523.548V119.648H528.652C529.1 119.648 529.452 120 529.452 120.448V128H528.06ZM523.644 128V123.264H525.02V128H523.644ZM540.765 128V119.648H545.053C546.077 119.648 546.813 120.4 546.813 121.424V128H540.765ZM542.141 126.672H545.437V121.872C545.437 121.36 545.053 120.992 544.557 120.992H542.141V126.672ZM552.205 124.864V123.92C552.605 123.36 553.117 122.704 553.117 121.504V120.976H550.173V119.648H554.397C554.477 120.016 554.493 120.352 554.493 120.832C554.493 122.864 553.901 124 553.005 124.864H552.205ZM557.87 128V126.656H562.206V120.992H558.206V119.648H562.782C563.246 119.648 563.582 120 563.582 120.448V126.656H564.51V128H557.87ZM569.487 124.864V123.92C569.887 123.36 570.399 122.704 570.399 121.504V120.976H567.455V119.648H571.679C571.759 120.016 571.775 120.352 571.775 120.832C571.775 122.864 571.183 124 570.287 124.864H569.487ZM576.191 128C575.743 128 575.391 127.648 575.391 127.2V119.648H576.751V126.64H577.231C579.263 126.64 580.319 125.392 580.319 123.008V121.984C580.319 121.376 579.887 120.928 579.327 120.928C579.135 120.928 578.911 120.96 578.255 121.104L578.047 119.824C578.767 119.68 579.295 119.6 579.599 119.6C580.895 119.6 581.743 120.448 581.727 121.728L581.711 122.64C581.647 126.304 580.079 128 576.559 128H576.191ZM587.04 128V120.992H584.672V119.648H588.416V128H587.04ZM596.785 119.584C597.985 119.584 598.817 120.416 598.817 121.648V128H595.585V126.672H597.441V121.984C597.441 121.376 597.009 120.928 596.449 120.928C596.353 120.928 596.273 120.928 596.016 120.976L594.417 121.264L593.617 128H592.305V127.344L593.041 121.168L592.273 120.88V119.6H592.897L594.113 120L596.273 119.632C596.449 119.6 596.625 119.584 596.785 119.584ZM605.825 128V120.992H601.313V119.648H606.417C606.865 119.648 607.217 120 607.217 120.448V128H605.825ZM601.409 128V123.264H602.785V128H601.409ZM612.962 128V120.992H610.594V119.648H614.338V128H612.962ZM631.747 128V120.992H627.235V119.648H632.339C632.787 119.648 633.139 120 633.139 120.448V128H631.747ZM627.331 128V123.264H628.707V128H627.331ZM638.612 124.864V123.92C639.012 123.36 639.524 122.704 639.524 121.504V120.976H636.58V119.648H640.804C640.884 120.016 640.9 120.352 640.9 120.832C640.9 122.864 640.308 124 639.412 124.864H638.612ZM648.82 128V121.872C648.82 121.36 648.452 120.992 647.94 120.992H644.516V119.648H648.452C649.46 119.648 650.212 120.4 650.212 121.424V128H648.82ZM653.957 128C653.509 128 653.157 127.648 653.157 127.2V119.648H654.517V126.64H654.997C657.029 126.64 658.085 125.392 658.085 123.008V121.984C658.085 121.376 657.653 120.928 657.093 120.928C656.901 120.928 656.677 120.96 656.021 121.104L655.813 119.824C656.533 119.68 657.061 119.6 657.365 119.6C658.661 119.6 659.509 120.448 659.493 121.728L659.477 122.64C659.413 126.304 657.845 128 654.325 128H653.957ZM665.91 119.584C667.11 119.584 667.942 120.416 667.942 121.648V128H664.71V126.672H666.566V121.984C666.566 121.376 666.134 120.928 665.574 120.928C665.478 120.928 665.398 120.928 665.141 120.976L663.542 121.264L662.742 128H661.43V127.344L662.166 121.168L661.398 120.88V119.6H662.022L663.238 120L665.398 119.632C665.574 119.6 665.75 119.584 665.91 119.584ZM673.174 124.864V123.92C673.574 123.36 674.086 122.704 674.086 121.504V120.976H671.142V119.648H675.366C675.446 120.016 675.462 120.352 675.462 120.832C675.462 122.864 674.87 124 673.974 124.864H673.174ZM684.407 119.648C684.823 119.648 685.143 119.968 685.143 120.384V124.88C685.143 127.104 683.655 128.208 682.167 128.208C680.695 128.208 679.239 127.136 679.239 124.992V120.992H678.599V119.648H684.407ZM683.767 125.12V120.976H680.615V124.96C680.615 126.224 681.431 126.848 682.231 126.848C682.999 126.848 683.767 126.272 683.767 125.12ZM692.231 128V120.992H687.719V119.648H692.823C693.271 119.648 693.623 120 693.623 120.448V128H692.231ZM687.815 128V123.264H689.191V128H687.815Z" fill="white"/>
<line x1="151" y1="352.5" y2="352.5" stroke="white"/>
<line x1="150.5" y1="86" x2="150.5" y2="352" stroke="white"/>
<line y1="-0.5" x2="225.006" y2="-0.5" transform="matrix(-0.999973 -0.00729747 0.00270676 -0.999996 375 87.6426)" stroke="white"/>
</svg>
