<svg width="309" height="395" viewBox="0 0 309 395" fill="none" xmlns="http://www.w3.org/2000/svg">
<line x1="229.5" y1="1" x2="229.5" y2="204" stroke="white"/>
<line x1="230" y1="0.5" x2="79" y2="0.5" stroke="white"/>
<path d="M76.0958 270.864L76.0798 270.144L81.7918 259.056H83.2318L83.2478 259.776L77.5358 270.864H76.0958ZM84.7364 270.864L84.7204 270.144L90.4324 259.056H91.8724L91.8884 259.776L86.1764 270.864H84.7364ZM103.058 263.504V258.752H104.834V263.504H103.058ZM106.338 263.504V258.752H108.114V263.504H106.338ZM115.554 270V263.472H111.042V261.648H116.434C116.994 261.648 117.426 262.08 117.426 262.64V270H115.554ZM111.138 270V265.584H112.994V270H111.138ZM125.427 261.648C125.939 261.648 126.339 262.048 126.339 262.56V266.64C126.339 269.024 124.739 270.208 123.123 270.208C121.523 270.208 119.955 269.072 119.955 266.768V263.472H119.315V261.648H125.427ZM124.483 266.928V263.456H121.811V266.928C121.811 267.872 122.499 268.448 123.187 268.448C123.843 268.448 124.483 267.92 124.483 266.928ZM132.884 261.648H134.724V262.288C134.708 263.008 134.692 263.824 134.644 264.544C134.388 268.352 133.012 269.76 129.076 270.272L128.452 270.352H127.764V268.56C128.132 268.544 128.5 268.512 128.996 268.432L129.588 268.336L128.452 262.304V261.648H130.244L131.38 267.776C132.34 267.264 132.676 266.432 132.772 264.864C132.836 263.872 132.868 262.624 132.884 261.648ZM140.644 270V263.472H136.836V261.648H143.46V263.472H142.5V270H140.644ZM146.261 263.504V258.752H148.037V263.504H146.261ZM149.541 263.504V258.752H151.317V263.504H149.541ZM166.214 271.664V263.456H164.086V261.648H168.07V271.664H166.214ZM174.567 270V263.472H172.199V261.648H176.423V270H174.567ZM180.919 270V268.192H183.783V263.472H181.927V261.648H185.639V269.2C185.639 269.648 185.303 270 184.855 270H180.919ZM192.856 261.648L195.096 269.472V270H193.336L192.664 267.664L189.88 270H188.904V268.544L192.136 265.792L191.464 263.472H189.88V261.648H192.856ZM203.193 261.648C203.705 261.648 204.105 262.048 204.105 262.56V266.64C204.105 269.024 202.505 270.208 200.889 270.208C199.289 270.208 197.721 269.072 197.721 266.768V263.472H197.081V261.648H203.193ZM202.249 266.928V263.456H199.577V266.928C199.577 267.872 200.265 268.448 200.953 268.448C201.609 268.448 202.249 267.92 202.249 266.928ZM211.993 268.176H213.001V270H205.961V268.176H210.137V263.472H206.297V261.648H211.001C211.577 261.648 211.993 262.08 211.993 262.64V268.176ZM226.01 266.928V265.984C226.698 265.024 226.922 264.464 226.922 263.728V263.456H224.026V261.648H228.682C228.746 262 228.778 262.336 228.778 262.896C228.778 264.688 228.314 265.936 227.29 266.928H226.01ZM232.763 270V268.192H235.627V263.472H233.771V261.648H237.483V269.2C237.483 269.648 237.147 270 236.699 270H232.763ZM240.316 270V269.408L241.052 263.696L240.22 263.408V261.584H240.844L242.252 261.984L244.428 261.632C244.62 261.6 244.828 261.584 245.02 261.584C246.332 261.584 247.324 262.576 247.324 263.872V270H243.612V268.192H245.468V264.272C245.468 263.792 245.116 263.44 244.604 263.44C244.492 263.44 244.396 263.44 244.22 263.472L242.876 263.648L242.124 270H240.316ZM251.932 266.928V265.984C252.62 265.024 252.844 264.464 252.844 263.728V263.456H249.948V261.648H254.604C254.668 262 254.7 262.336 254.7 262.896C254.7 264.688 254.236 265.936 253.212 266.928H251.932ZM263.773 261.648C264.221 261.648 264.573 262 264.573 262.448V270H262.701V263.472H260.493C260.285 264.256 260.141 265.104 260.141 266.112C260.141 266.896 260.237 267.776 260.461 268.672V270H257.453V268.192H258.429C258.333 267.584 258.269 266.944 258.269 266.304C258.269 265.312 258.397 264.32 258.605 263.472H257.629V261.648H263.773ZM278.894 270V263.472H275.086V261.648H281.71V263.472H280.75V270H278.894ZM288.415 261.648H290.255V262.288C290.239 263.008 290.223 263.824 290.175 264.544C289.919 268.352 288.543 269.76 284.607 270.272L283.983 270.352H283.295V268.56C283.663 268.544 284.031 268.512 284.527 268.432L285.119 268.336L283.983 262.304V261.648H285.775L286.911 267.776C287.871 267.264 288.207 266.432 288.303 264.864C288.367 263.872 288.399 262.624 288.415 261.648ZM298.863 262.528C298.863 264.336 298.447 265.248 296.879 266.032L298.495 268.704V270H292.495V268.192H296.175L292.527 262.512V261.648H294.239L296.175 264.864C296.815 264.4 297.007 263.92 297.007 263.04V261.648H298.863V262.528ZM15.6594 308V306.672H16.7474C16.5714 305.92 16.4754 305.12 16.4754 304.304C16.4754 303.12 16.6514 301.936 16.9394 300.992H15.8354V299.648H21.5634C22.0114 299.648 22.3634 300 22.3634 300.448V308H20.9714V300.992H18.3634C18.0754 301.904 17.8674 302.896 17.8674 304.112C17.8674 304.896 17.9634 305.776 18.1874 306.672V308H15.6594ZM29.164 308V301.872C29.164 301.36 28.796 300.992 28.284 300.992H24.86V299.648H28.796C29.804 299.648 30.556 300.4 30.556 301.424V308H29.164ZM36.2366 304.864V303.92C36.6366 303.36 37.1486 302.704 37.1486 301.504V300.976H34.2046V299.648H38.4286C38.5086 300.016 38.5246 300.352 38.5246 300.832C38.5246 302.864 37.9326 304 37.0366 304.864H36.2366ZM47.3093 299.648H48.6053V302.128C48.6053 306.064 46.9093 308 42.4773 308C42.1893 308 41.9813 307.744 41.9813 307.408V299.648H43.2613V303.232C44.2693 303.04 44.6373 302.544 44.6373 301.184V299.648H45.9333V300.896C45.9333 302.928 45.2293 304.016 43.2613 304.288V306.688C45.9813 306.656 47.3093 305.232 47.3093 302.48V299.648ZM54.8939 299.584C56.0939 299.584 56.9259 300.416 56.9259 301.648V308H53.6939V306.672H55.5499V301.984C55.5499 301.376 55.1179 300.928 54.5579 300.928C54.4619 300.928 54.3819 300.928 54.1259 300.976L52.5259 301.264L51.7259 308H50.4139V307.344L51.1499 301.168L50.3819 300.88V299.6H51.0059L52.2219 300L54.3819 299.632C54.5579 299.6 54.7339 299.584 54.8939 299.584ZM71.8711 308V300.992H67.8391V299.648H74.2231V300.992H73.2471V308H71.8711ZM81.0078 308V301.872C81.0078 301.36 80.6398 300.992 80.1278 300.992H76.7038V299.648H80.6398C81.6478 299.648 82.3998 300.4 82.3998 301.424V308H81.0078ZM84.9444 308V306.672H90.0004L89.8244 301.872C89.8084 301.36 89.4404 300.992 88.9444 300.992H87.1524L86.8804 302.864C86.8644 302.944 86.9124 303.024 86.9924 303.072L87.8404 303.504V304.592H86.9604L85.8564 304.032C85.5364 303.872 85.4244 303.552 85.4724 303.2L86.0004 299.648H89.4084C90.4324 299.648 91.1364 300.4 91.1684 301.424L91.4244 308H84.9444ZM94.449 308V306.672H97.617V300.992H95.617V299.648H98.993V307.2C98.993 307.648 98.673 308 98.209 308H94.449ZM114.002 304.864V303.92C114.402 303.36 114.914 302.704 114.914 301.504V300.976H111.97V299.648H116.194C116.274 300.016 116.29 300.352 116.29 300.832C116.29 302.864 115.698 304 114.802 304.864H114.002ZM119.347 308V306.672H120.435C120.259 305.92 120.163 305.12 120.163 304.304C120.163 303.12 120.339 301.936 120.627 300.992H119.523V299.648H125.251C125.699 299.648 126.051 300 126.051 300.448V308H124.659V300.992H122.051C121.763 301.904 121.555 302.896 121.555 304.112C121.555 304.896 121.651 305.776 121.875 306.672V308H119.347ZM130.388 308V306.848C132.5 304.912 133.124 303.872 133.124 302.24V300.992H128.516V297.648H129.908V299.648H133.716C134.164 299.648 134.516 300 134.516 300.448V302.112C134.516 304.4 133.428 306.16 131.204 308H130.388ZM136.948 308V306.656H141.284V300.992H137.284V299.648H141.86C142.324 299.648 142.66 300 142.66 300.448V306.656H143.588V308H136.948ZM157.509 307.872V306.784C158.821 305.2 159.333 304 159.333 302.32V300.992H154.309V299.648H159.925C160.373 299.648 160.725 299.984 160.725 300.432V302C160.725 304.128 160.165 305.952 158.469 307.872H157.509ZM154.453 309.664V303.072H155.829V309.664H154.453ZM164.95 308V306.848C167.062 304.912 167.686 303.872 167.686 302.24V300.992H163.078V297.648H164.47V299.648H168.278C168.726 299.648 169.078 300 169.078 300.448V302.112C169.078 304.4 167.99 306.16 165.766 308H164.95ZM171.767 308V299.648H176.967C177.415 299.648 177.767 300 177.767 300.448V308H176.391V300.992H173.143V308H171.767ZM180.231 308V306.672H183.431C184.295 306.672 184.951 306.016 184.951 305.152V300.992H180.471V299.648H185.687C186.055 299.648 186.327 299.936 186.327 300.288V305.2C186.327 306.672 184.999 308 183.527 308H180.231ZM197.433 308V306.656H201.769V300.992H197.769V299.648H202.345C202.809 299.648 203.145 300 203.145 300.448V306.656H204.073V308H197.433ZM208.153 308V306.848C210.265 304.912 210.889 303.872 210.889 302.24V300.992H206.281V297.648H207.673V299.648H211.481C211.929 299.648 212.281 300 212.281 300.448V302.112C212.281 304.4 211.193 306.16 208.969 308H208.153ZM214.394 308V306.672H215.482C215.306 305.92 215.21 305.12 215.21 304.304C215.21 303.12 215.386 301.936 215.674 300.992H214.57V299.648H220.298C220.746 299.648 221.098 300 221.098 300.448V308H219.706V300.992H217.098C216.81 301.904 216.602 302.896 216.602 304.112C216.602 304.896 216.698 305.776 216.922 306.672V308H214.394ZM228.762 299.648H230.058V302.128C230.058 306.064 228.362 308 223.93 308C223.642 308 223.434 307.744 223.434 307.408V299.648H224.714V303.232C225.722 303.04 226.09 302.544 226.09 301.184V299.648H227.386V300.896C227.386 302.928 226.682 304.016 224.714 304.288V306.688C227.434 306.656 228.762 305.232 228.762 302.48V299.648ZM236.347 299.584C237.547 299.584 238.379 300.416 238.379 301.648V308H235.147V306.672H237.003V301.984C237.003 301.376 236.571 300.928 236.011 300.928C235.915 300.928 235.835 300.928 235.579 300.976L233.979 301.264L233.179 308H231.867V307.344L232.603 301.168L231.835 300.88V299.6H232.459L233.675 300L235.835 299.632C236.011 299.6 236.187 299.584 236.347 299.584ZM253.324 308V300.992H249.292V299.648H255.676V300.992H254.7V308H253.324ZM261.165 308V300.992H258.797V299.648H262.541V308H261.165ZM269.838 307.872V306.784C271.15 305.2 271.662 304 271.662 302.32V300.992H266.638V299.648H272.254C272.702 299.648 273.054 299.984 273.054 300.432V302C273.054 304.128 272.494 305.952 270.798 307.872H269.838ZM266.782 309.664V303.072H268.158V309.664H266.782ZM278.174 304.864V303.92C278.574 303.36 279.086 302.704 279.086 301.504V300.976H276.142V299.648H280.366C280.446 300.016 280.462 300.352 280.462 300.832C280.462 302.864 279.87 304 278.974 304.864H278.174ZM288.383 308V301.872C288.383 301.36 288.015 300.992 287.503 300.992H284.079V299.648H288.015C289.023 299.648 289.775 300.4 289.775 301.424V308H288.383ZM297.231 308V300.992H292.719V299.648H297.823C298.271 299.648 298.623 300 298.623 300.448V308H297.231ZM292.815 308V303.264H294.191V308H292.815ZM45.1013 327.144C44.4293 327.144 43.9333 326.632 43.9333 325.96C43.9333 325.32 44.4293 324.792 45.1013 324.792C45.7573 324.792 46.2693 325.32 46.2693 325.96C46.2693 326.632 45.7573 327.144 45.1013 327.144ZM53.5179 323.864V322.92C53.9179 322.36 54.4299 321.704 54.4299 320.504V319.976H51.4859V318.648H55.7099C55.7899 319.016 55.8059 319.352 55.8059 319.832C55.8059 321.864 55.2139 323 54.3179 323.864H53.5179ZM64.5905 318.648H65.8865V321.128C65.8865 325.064 64.1905 327 59.7585 327C59.4705 327 59.2625 326.744 59.2625 326.408V318.648H60.5425V322.232C61.5505 322.04 61.9185 321.544 61.9185 320.184V318.648H63.2145V319.896C63.2145 321.928 62.5105 323.016 60.5425 323.288V325.688C63.2625 325.656 64.5905 324.232 64.5905 321.48V318.648ZM68.5271 327V325.672H71.6951V319.992H69.6951V318.648H73.0711V326.2C73.0711 326.648 72.7511 327 72.2871 327H68.5271ZM88.0804 323.864V322.92C88.4804 322.36 88.9924 321.704 88.9924 320.504V319.976H86.0484V318.648H90.2724C90.3524 319.016 90.3684 319.352 90.3684 319.832C90.3684 321.864 89.7764 323 88.8804 323.864H88.0804ZM96.993 327V319.992H94.625V318.648H98.369V327H96.993ZM103.426 327C102.978 327 102.626 326.648 102.626 326.2V318.648H103.986V325.64H104.466C106.498 325.64 107.554 324.392 107.554 322.008V320.984C107.554 320.376 107.122 319.928 106.562 319.928C106.37 319.928 106.146 319.96 105.49 320.104L105.282 318.824C106.002 318.68 106.53 318.6 106.834 318.6C108.13 318.6 108.978 319.448 108.962 320.728L108.946 321.64C108.882 325.304 107.314 327 103.794 327H103.426ZM114.002 323.864V322.92C114.402 322.36 114.914 321.704 114.914 320.504V319.976H111.97V318.648H116.194C116.274 319.016 116.29 319.352 116.29 319.832C116.29 321.864 115.698 323 114.802 323.864H114.002ZM119.667 327V325.656H124.003V319.992H120.003V318.648H124.579C125.043 318.648 125.379 319 125.379 319.448V325.656H126.307V327H119.667ZM130.388 327V325.848C132.5 323.912 133.124 322.872 133.124 321.24V319.992H128.516V316.648H129.908V318.648H133.716C134.164 318.648 134.516 319 134.516 319.448V321.112C134.516 323.4 133.428 325.16 131.204 327H130.388ZM148.565 323.864V322.92C148.965 322.36 149.477 321.704 149.477 320.504V319.976H146.533V318.648H150.757C150.837 319.016 150.853 319.352 150.853 319.832C150.853 321.864 150.261 323 149.365 323.864H148.565ZM159.173 318.648H160.533V319.288C160.517 320.008 160.501 320.824 160.453 321.544C160.197 325.384 158.773 326.776 154.885 327.272L154.261 327.352H154.053V326.024C154.437 325.992 154.789 325.96 155.141 325.896C155.429 325.848 155.701 325.8 155.957 325.736L154.741 319.304V318.648H156.053L157.285 325.304C158.421 324.76 158.917 323.832 159.061 321.912C159.141 320.856 159.157 319.528 159.173 318.648ZM168.966 319.784C168.966 321.608 168.55 322.296 167.046 322.936L168.886 325.704V327H163.046V325.672H167.318L163.126 319.608V318.648H164.198L166.47 322.056C167.35 321.688 167.59 321.304 167.59 320.296V318.648H168.966V319.784ZM175.863 318.584C177.063 318.584 177.895 319.416 177.895 320.648V327H174.663V325.672H176.519V320.984C176.519 320.376 176.087 319.928 175.527 319.928C175.431 319.928 175.351 319.928 175.095 319.976L173.495 320.264L172.695 327H171.383V326.344L172.119 320.168L171.351 319.88V318.6H171.975L173.191 319L175.351 318.632C175.527 318.6 175.703 318.584 175.863 318.584ZM186.455 319.672C186.455 321.64 186.007 322.44 184.407 323.192L186.231 326.056L186.215 327H185.175L182.423 322.696C181.879 323.272 181.639 324.04 181.639 325.192V327H180.263V325.512C180.263 323.656 180.743 322.488 181.799 321.72L180.455 319.608L180.471 318.648H181.495L183.815 322.28C184.807 321.784 185.079 321.32 185.079 320.2V318.648H186.455V319.672ZM202.185 327V319.992H197.673V318.648H202.777C203.225 318.648 203.577 319 203.577 319.448V327H202.185ZM197.769 327V322.264H199.145V327H197.769ZM209.321 327V319.992H206.953V318.648H210.697V327H209.321ZM217.962 327V319.992H215.594V318.648H219.338V327H217.962ZM228.106 327V319.992H223.594V318.648H228.698C229.146 318.648 229.498 319 229.498 319.448V327H228.106ZM223.69 327V322.264H225.066V327H223.69ZM236.347 318.584C237.547 318.584 238.379 319.416 238.379 320.648V327H235.147V325.672H237.003V320.984C237.003 320.376 236.571 319.928 236.011 319.928C235.915 319.928 235.835 319.928 235.579 319.976L233.979 320.264L233.179 327H231.867V326.344L232.603 320.168L231.835 319.88V318.6H232.459L233.675 319L235.835 318.632C236.011 318.6 236.187 318.584 236.347 318.584ZM243.884 327V319.992H241.516V318.648H245.26V327H243.884ZM258.093 327V318.648H262.381C263.405 318.648 264.141 319.4 264.141 320.424V327H258.093ZM259.469 325.672H262.765V320.872C262.765 320.36 262.381 319.992 261.885 319.992H259.469V325.672ZM269.534 323.864V322.92C269.934 322.36 270.446 321.704 270.446 320.504V319.976H267.502V318.648H271.726C271.806 319.016 271.822 319.352 271.822 319.832C271.822 321.864 271.23 323 270.334 323.864H269.534ZM280.606 318.648H281.902V321.128C281.902 325.064 280.206 327 275.774 327C275.486 327 275.278 326.744 275.278 326.408V318.648H276.558V322.232C277.566 322.04 277.934 321.544 277.934 320.184V318.648H279.23V319.896C279.23 321.928 278.526 323.016 276.558 323.288V325.688C279.278 325.656 280.606 324.232 280.606 321.48V318.648ZM284.543 327V325.672H287.711V319.992H285.711V318.648H289.087V326.2C289.087 326.648 288.767 327 288.303 327H284.543ZM297.231 327V319.992H292.719V318.648H297.823C298.271 318.648 298.623 319 298.623 319.448V327H297.231ZM292.815 327V322.264H294.191V327H292.815ZM50.7179 346V337.648H55.0059C56.0299 337.648 56.7659 338.4 56.7659 339.424V346H50.7179ZM52.0939 344.672H55.3899V339.872C55.3899 339.36 55.0059 338.992 54.5099 338.992H52.0939V344.672ZM62.1585 342.864V341.92C62.5585 341.36 63.0705 340.704 63.0705 339.504V338.976H60.1265V337.648H64.3505C64.4305 338.016 64.4465 338.352 64.4465 338.832C64.4465 340.864 63.8545 342 62.9585 342.864H62.1585ZM70.7991 342.864V341.92C71.1991 341.36 71.7111 340.704 71.7111 339.504V338.976H68.7671V337.648H72.9911C73.0711 338.016 73.0871 338.352 73.0871 338.832C73.0871 340.864 72.4951 342 71.5991 342.864H70.7991ZM78.5438 346V344.848C80.6558 342.912 81.2798 341.872 81.2798 340.24V338.992H76.6718V335.648H78.0638V337.648H81.8718C82.3198 337.648 82.6718 338 82.6718 338.448V340.112C82.6718 342.4 81.5838 344.16 79.3598 346H78.5438ZM89.0564 337.648L91.2964 345.472V346H90.0164L89.3124 343.552L86.4004 346H85.4244V345.104L88.9124 342.144L88.0164 338.992H86.5604V337.648H89.0564ZM98.289 346V339.872C98.289 339.36 97.921 338.992 97.409 338.992H93.985V337.648H97.921C98.929 337.648 99.681 338.4 99.681 339.424V346H98.289ZM110.706 346V344.672H111.794C111.618 343.92 111.522 343.12 111.522 342.304C111.522 341.12 111.698 339.936 111.986 338.992H110.882V337.648H116.61C117.058 337.648 117.41 338 117.41 338.448V346H116.018V338.992H113.41C113.122 339.904 112.914 340.896 112.914 342.112C112.914 342.896 113.01 343.776 113.234 344.672V346H110.706ZM122.915 346V338.992H120.547V337.648H124.291V346H122.915ZM133.252 337.648H134.612V338.288C134.596 339.008 134.58 339.824 134.532 340.544C134.276 344.384 132.852 345.776 128.964 346.272L128.34 346.352H128.132V345.024C128.516 344.992 128.868 344.96 129.22 344.896C129.508 344.848 129.78 344.8 130.036 344.736L128.82 338.304V337.648H130.132L131.364 344.304C132.5 343.76 132.996 342.832 133.14 340.912C133.22 339.856 133.236 338.528 133.252 337.648ZM140.196 346V338.992H137.828V337.648H141.572V346H140.196ZM146.293 346V344.672H149.461V338.992H147.461V337.648H150.837V345.2C150.837 345.648 150.517 346 150.053 346H146.293ZM153.909 346V344.672H154.997C154.821 343.92 154.725 343.12 154.725 342.304C154.725 341.12 154.901 339.936 155.189 338.992H154.085V337.648H159.813C160.261 337.648 160.613 338 160.613 338.448V346H159.221V338.992H156.613C156.325 339.904 156.117 340.896 156.117 342.112C156.117 342.896 156.213 343.776 156.437 344.672V346H153.909ZM162.87 346V344.656H167.206V338.992H163.206V337.648H167.782C168.246 337.648 168.582 338 168.582 338.448V344.656H169.51V346H162.87ZM183.815 347.664V338.976H181.527V337.648H185.191V347.664H183.815ZM191.768 342.864V341.92C192.168 341.36 192.68 340.704 192.68 339.504V338.976H189.736V337.648H193.96C194.04 338.016 194.056 338.352 194.056 338.832C194.056 340.864 193.464 342 192.568 342.864H191.768ZM200.409 342.864V341.92C200.809 341.36 201.321 340.704 201.321 339.504V338.976H198.377V337.648H202.601C202.681 338.016 202.697 338.352 202.697 338.832C202.697 340.864 202.105 342 201.209 342.864H200.409ZM205.913 346V344.672H210.969L210.793 339.872C210.777 339.36 210.409 338.992 209.913 338.992H208.121L207.849 340.864C207.833 340.944 207.881 341.024 207.961 341.072L208.809 341.504V342.592H207.929L206.825 342.032C206.505 341.872 206.393 341.552 206.441 341.2L206.969 337.648H210.377C211.401 337.648 212.105 338.4 212.137 339.424L212.393 346H205.913ZM217.962 346V338.992H215.594V337.648H219.338V346H217.962ZM229.658 338.672C229.658 340.64 229.21 341.44 227.61 342.192L229.434 345.056L229.418 346H228.378L225.626 341.696C225.082 342.272 224.842 343.04 224.842 344.192V346H223.466V344.512C223.466 342.656 223.946 341.488 225.002 340.72L223.658 338.608L223.674 337.648H224.698L227.018 341.28C228.01 340.784 228.282 340.32 228.282 339.2V337.648H229.658V338.672ZM236.347 337.584C237.547 337.584 238.379 338.416 238.379 339.648V346H235.147V344.672H237.003V339.984C237.003 339.376 236.571 338.928 236.011 338.928C235.915 338.928 235.835 338.928 235.579 338.976L233.979 339.264L233.179 346H231.867V345.344L232.603 339.168L231.835 338.88V337.6H232.459L233.675 338L235.835 337.632C236.011 337.6 236.187 337.584 236.347 337.584ZM245.388 346V338.992H240.876V337.648H245.98C246.428 337.648 246.78 338 246.78 338.448V346H245.388ZM240.972 346V341.264H242.348V346H240.972ZM261.965 346V338.992H257.933V337.648H264.317V338.992H263.341V346H261.965ZM269.806 346V338.992H267.438V337.648H271.182V346H269.806ZM278.478 345.872V344.784C279.79 343.2 280.302 342 280.302 340.32V338.992H275.278V337.648H280.894C281.342 337.648 281.694 337.984 281.694 338.432V340C281.694 342.128 281.134 343.952 279.438 345.872H278.478ZM275.422 347.664V341.072H276.798V347.664H275.422ZM286.815 342.864V341.92C287.215 341.36 287.727 340.704 287.727 339.504V338.976H284.783V337.648H289.007C289.087 338.016 289.103 338.352 289.103 338.832C289.103 340.864 288.511 342 287.615 342.864H286.815ZM297.023 346V339.872C297.023 339.36 296.655 338.992 296.143 338.992H292.719V337.648H296.655C297.663 337.648 298.415 338.4 298.415 339.424V346H297.023ZM24.796 365V356.648H29.084C30.108 356.648 30.844 357.4 30.844 358.424V365H24.796ZM26.172 363.672H29.468V358.872C29.468 358.36 29.084 357.992 28.588 357.992H26.172V363.672ZM36.2366 361.864V360.92C36.6366 360.36 37.1486 359.704 37.1486 358.504V357.976H34.2046V356.648H38.4286C38.5086 357.016 38.5246 357.352 38.5246 357.832C38.5246 359.864 37.9326 361 37.0366 361.864H36.2366ZM47.3093 356.648H48.6053V359.128C48.6053 363.064 46.9093 365 42.4773 365C42.1893 365 41.9813 364.744 41.9813 364.408V356.648H43.2613V360.232C44.2693 360.04 44.6373 359.544 44.6373 358.184V356.648H45.9333V357.896C45.9333 359.928 45.2293 361.016 43.2613 361.288V363.688C45.9813 363.656 47.3093 362.232 47.3093 359.48V356.648ZM53.5179 361.864V360.92C53.9179 360.36 54.4299 359.704 54.4299 358.504V357.976H51.4859V356.648H55.7099C55.7899 357.016 55.8059 357.352 55.8059 357.832C55.8059 359.864 55.2139 361 54.3179 361.864H53.5179ZM63.1345 356.648L65.3745 364.472V365H64.0945L63.3905 362.552L60.4785 365H59.5025V364.104L62.9905 361.144L62.0945 357.992H60.6385V356.648H63.1345ZM71.8711 365V357.992H67.8391V356.648H74.2231V357.992H73.2471V365H71.8711ZM80.8158 356.584C82.0158 356.584 82.8478 357.416 82.8478 358.648V365H79.6158V363.672H81.4718V358.984C81.4718 358.376 81.0398 357.928 80.4798 357.928C80.3838 357.928 80.3038 357.928 80.0477 357.976L78.4478 358.264L77.6478 365H76.3358V364.344L77.0718 358.168L76.3038 357.88V356.6H76.9278L78.1438 357L80.3038 356.632C80.4798 356.6 80.6558 356.584 80.8158 356.584ZM89.8564 365V357.992H85.3444V356.648H90.4484C90.8964 356.648 91.2484 357 91.2484 357.448V365H89.8564ZM85.4404 365V360.264H86.8164V365H85.4404ZM104.226 366.968V366.328C105.01 366.008 105.266 365.448 105.266 365.08C104.85 364.888 104.578 364.488 104.578 363.976C104.578 363.32 105.074 362.792 105.762 362.792C106.29 362.792 106.946 363.096 106.946 364.136C106.946 365.48 105.746 366.824 104.226 366.968ZM110.706 365V363.672H111.794C111.618 362.92 111.522 362.12 111.522 361.304C111.522 360.12 111.698 358.936 111.986 357.992H110.882V356.648H116.61C117.058 356.648 117.41 357 117.41 357.448V365H116.018V357.992H113.41C113.122 358.904 112.914 359.896 112.914 361.112C112.914 361.896 113.01 362.776 113.234 363.672V365H110.706ZM122.915 365V357.992H120.547V356.648H124.291V365H122.915ZM129.012 365V363.672H132.18V357.992H130.18V356.648H133.556V364.2C133.556 364.648 133.236 365 132.772 365H129.012ZM139.924 361.864V360.92C140.324 360.36 140.836 359.704 140.836 358.504V357.976H137.892V356.648H142.116C142.196 357.016 142.212 357.352 142.212 357.832C142.212 359.864 141.62 361 140.724 361.864H139.924ZM149.637 365V357.992H145.605V356.648H151.989V357.992H151.013V365H149.637ZM159.173 356.648H160.533V357.288C160.517 358.008 160.501 358.824 160.453 359.544C160.197 363.384 158.773 364.776 154.885 365.272L154.261 365.352H154.053V364.024C154.437 363.992 154.789 363.96 155.141 363.896C155.429 363.848 155.701 363.8 155.957 363.736L154.741 357.304V356.648H156.053L157.285 363.304C158.421 362.76 158.917 361.832 159.061 359.912C159.141 358.856 159.157 357.528 159.173 356.648ZM176.247 366.664V357.976H173.479L173.175 360.376C173.159 360.456 173.191 360.536 173.287 360.584L174.119 361V362.104H173.207L172.103 361.544C171.799 361.384 171.687 361.064 171.735 360.696L172.215 357.24C172.263 356.856 172.615 356.648 173.015 356.648H176.839C177.287 356.648 177.623 356.984 177.623 357.432V366.664H176.247ZM183.399 365V357.992H181.031V356.648H184.775V365H183.399ZM192.744 356.648L194.984 364.472V365H193.704L193 362.552L190.088 365H189.112V364.104L192.6 361.144L191.704 357.992H190.248V356.648H192.744ZM205.753 365V363.672H206.841C206.665 362.92 206.569 362.12 206.569 361.304C206.569 360.12 206.745 358.936 207.033 357.992H205.929V356.648H211.657C212.105 356.648 212.457 357 212.457 357.448V365H211.065V357.992H208.457C208.169 358.904 207.961 359.896 207.961 361.112C207.961 361.896 208.057 362.776 208.281 363.672V365H205.753ZM217.962 365V357.992H215.594V356.648H219.338V365H217.962ZM228.298 356.648H229.658V357.288C229.642 358.008 229.626 358.824 229.578 359.544C229.322 363.384 227.898 364.776 224.01 365.272L223.386 365.352H223.178V364.024C223.562 363.992 223.914 363.96 224.266 363.896C224.554 363.848 224.826 363.8 225.082 363.736L223.866 357.304V356.648H225.178L226.41 363.304C227.546 362.76 228.042 361.832 228.186 359.912C228.266 358.856 228.282 357.528 228.298 356.648ZM234.971 361.864V360.92C235.371 360.36 235.883 359.704 235.883 358.504V357.976H232.939V356.648H237.163C237.243 357.016 237.259 357.352 237.259 357.832C237.259 359.864 236.667 361 235.771 361.864H234.971ZM241.34 365V363.672H244.508V357.992H242.508V356.648H245.884V364.2C245.884 364.648 245.564 365 245.1 365H241.34ZM252.524 365V357.992H250.156V356.648H253.9V365H252.524ZM270.606 365V357.992H266.574V356.648H272.958V357.992H271.982V365H270.606ZM275.198 365V363.656H279.534V357.992H275.534V356.648H280.11C280.574 356.648 280.91 357 280.91 357.448V363.656H281.838V365H275.198ZM285.919 365V363.848C288.031 361.912 288.655 360.872 288.655 359.24V357.992H284.047V354.648H285.439V356.648H289.247C289.695 356.648 290.047 357 290.047 357.448V359.112C290.047 361.4 288.959 363.16 286.735 365H285.919ZM292.479 365V363.656H296.815V357.992H292.815V356.648H297.391C297.855 356.648 298.191 357 298.191 357.448V363.656H299.119V365H292.479ZM183.351 384.144C182.679 384.144 182.183 383.632 182.183 382.96C182.183 382.32 182.679 381.792 183.351 381.792C184.007 381.792 184.519 382.32 184.519 382.96C184.519 383.632 184.007 384.144 183.351 384.144ZM188.472 384V382.672H189.56C189.384 381.92 189.288 381.12 189.288 380.304C189.288 379.12 189.464 377.936 189.752 376.992H188.648V375.648H194.376C194.824 375.648 195.176 376 195.176 376.448V384H193.784V376.992H191.176C190.888 377.904 190.68 378.896 190.68 380.112C190.68 380.896 190.776 381.776 191 382.672V384H188.472ZM200.681 384V376.992H198.312V375.648H202.057V384H200.681ZM211.017 375.648H212.377V376.288C212.361 377.008 212.345 377.824 212.297 378.544C212.041 382.384 210.617 383.776 206.729 384.272L206.105 384.352H205.897V383.024C206.281 382.992 206.633 382.96 206.985 382.896C207.273 382.848 207.545 382.8 207.801 382.736L206.585 376.304V375.648H207.897L209.129 382.304C210.265 381.76 210.761 380.832 210.905 378.912C210.985 377.856 211.001 376.528 211.017 375.648ZM217.69 380.864V379.92C218.09 379.36 218.602 378.704 218.602 377.504V376.976H215.658V375.648H219.882C219.962 376.016 219.978 376.352 219.978 376.832C219.978 378.864 219.386 380 218.49 380.864H217.69ZM224.058 384V382.672H227.226V376.992H225.226V375.648H228.602V383.2C228.602 383.648 228.282 384 227.818 384H224.058ZM238.091 376.784C238.091 378.608 237.675 379.296 236.171 379.936L238.011 382.704V384H232.171V382.672H236.443L232.251 376.608V375.648H233.323L235.595 379.056C236.475 378.688 236.715 378.304 236.715 377.296V375.648H238.091V376.784ZM243.884 384V376.992H241.516V375.648H245.26V384H243.884ZM261.197 383.872V382.784C262.509 381.2 263.021 380 263.021 378.32V376.992H257.997V375.648H263.613C264.061 375.648 264.413 375.984 264.413 376.432V378C264.413 380.128 263.853 381.952 262.157 383.872H261.197ZM258.141 385.664V379.072H259.517V385.664H258.141ZM269.806 384V376.992H267.438V375.648H271.182V384H269.806ZM275.038 384V382.672H280.094L279.918 377.872C279.902 377.36 279.534 376.992 279.038 376.992H277.246L276.974 378.864C276.958 378.944 277.006 379.024 277.086 379.072L277.934 379.504V380.592H277.054L275.95 380.032C275.63 379.872 275.518 379.552 275.566 379.2L276.094 375.648H279.502C280.526 375.648 281.23 376.4 281.262 377.424L281.518 384H275.038ZM286.815 380.864V379.92C287.215 379.36 287.727 378.704 287.727 377.504V376.976H284.783V375.648H289.007C289.087 376.016 289.103 376.352 289.103 376.832C289.103 378.864 288.511 380 287.615 380.864H286.815ZM298.783 376.672C298.783 378.64 298.335 379.44 296.735 380.192L298.559 383.056L298.543 384H297.503L294.751 379.696C294.207 380.272 293.967 381.04 293.967 382.192V384H292.591V382.512C292.591 380.656 293.071 379.488 294.127 378.72L292.783 376.608L292.799 375.648H293.823L296.143 379.28C297.135 378.784 297.407 378.32 297.407 377.2V375.648H298.783V376.672Z" fill="white"/>
</svg>
