<svg width="217" height="82" viewBox="0 0 217 82" fill="none" xmlns="http://www.w3.org/2000/svg">
<path d="M1.54819 40V31.648H5.83619C7.13219 31.648 8.07619 32.608 8.07619 33.904V40H1.54819ZM3.40419 38.192H6.22019V34.352C6.22019 33.84 5.83619 33.472 5.34019 33.472H3.40419V38.192ZM13.3088 40V33.472H10.9408V31.648H15.1648V40H13.3088ZM21.1654 40V33.472H19.2934V31.648H24.8934V33.472H23.0214V40H21.1654ZM29.2461 40V38.848C31.3581 36.912 31.9821 35.872 31.9821 34.24V33.472H27.6141V29.648H29.4861V31.648H33.0541C33.5021 31.648 33.8541 32 33.8541 32.448V34.112C33.8541 36.4 32.7661 38.16 30.5421 40H29.2461ZM49.3433 40V33.472H44.8313V31.648H50.2233C50.7833 31.648 51.2153 32.08 51.2153 32.64V40H49.3433ZM44.9273 40V35.584H46.7833V40H44.9273ZM55.1679 40V38.848C57.2799 36.912 57.9039 35.872 57.9039 34.24V33.472H53.5359V29.648H55.4079V31.648H58.9759C59.4239 31.648 59.7759 32 59.7759 32.448V34.112C59.7759 36.4 58.6879 38.16 56.4639 40H55.1679ZM64.7526 36.928V35.984C65.4406 35.024 65.6646 34.464 65.6646 33.728V33.456H62.7686V31.648H67.4246C67.4886 32 67.5206 32.336 67.5206 32.896C67.5206 34.688 67.0566 35.936 66.0326 36.928H64.7526ZM72.4492 40V38.848C74.5612 36.912 75.1852 35.872 75.1852 34.24V33.472H70.8172V29.648H72.6892V31.648H76.2572C76.7052 31.648 77.0572 32 77.0572 32.448V34.112C77.0572 36.4 75.9692 38.16 73.7452 40H72.4492ZM83.4418 31.648L85.6818 39.472V40H83.9218L83.2498 37.664L80.4658 40H79.4898V38.544L82.7218 35.792L82.0498 33.472H80.4658V31.648H83.4418ZM99.2831 42.56V28.784H100.435V42.56H99.2831ZM114.692 40C114.244 40 113.892 39.648 113.892 39.2V31.648H115.732V38.16H116.148C117.908 38.16 118.82 37.12 118.82 35.136V34.288C118.82 33.792 118.436 33.408 117.94 33.408C117.78 33.408 117.62 33.44 116.98 33.552L116.724 31.824C117.46 31.664 117.892 31.6 118.244 31.6C119.716 31.6 120.692 32.48 120.692 33.792V34.64C120.692 38.304 118.932 40 115.124 40H114.692ZM125.637 40V33.472H123.269V31.648H127.493V40H125.637ZM131.974 40C131.526 40 131.174 39.648 131.174 39.2V31.648H133.014V38.16H133.43C135.19 38.16 136.102 37.12 136.102 35.136V34.288C136.102 33.792 135.718 33.408 135.222 33.408C135.062 33.408 134.902 33.44 134.262 33.552L134.006 31.824C134.742 31.664 135.174 31.6 135.526 31.6C136.998 31.6 137.974 32.48 137.974 33.792V34.64C137.974 38.304 136.214 40 132.406 40H131.974ZM142.518 36.928V35.984C143.206 35.024 143.43 34.464 143.43 33.728V33.456H140.534V31.648H145.19C145.254 32 145.286 32.336 145.286 32.896C145.286 34.688 144.822 35.936 143.798 36.928H142.518ZM153.431 31.648H155.207V34.128C155.207 38.176 153.255 40 148.935 40C148.631 40 148.423 39.744 148.423 39.408V31.648H150.183V34.752C150.823 34.56 151.031 34.144 151.031 33.248V31.648H152.583V33.2C152.583 34.944 151.895 35.744 150.183 36.128V38.208C152.423 38.176 153.431 36.96 153.431 34.288V31.648ZM158.855 40V38.848C160.967 36.912 161.591 35.872 161.591 34.24V33.472H157.223V29.648H159.095V31.648H162.663C163.111 31.648 163.463 32 163.463 32.448V34.112C163.463 36.4 162.375 38.16 160.151 40H158.855ZM178.953 40V33.472H174.441V31.648H179.833C180.393 31.648 180.825 32.08 180.825 32.64V40H178.953ZM174.537 40V35.584H176.393V40H174.537ZM187.385 40V34.352C187.385 33.84 187.017 33.472 186.505 33.472H183.129V31.648H187.225C188.393 31.648 189.257 32.512 189.257 33.696V40H187.385ZM194.362 36.928V35.984C195.05 35.024 195.274 34.464 195.274 33.728V33.456H192.378V31.648H197.034C197.098 32 197.13 32.336 197.13 32.896C197.13 34.688 196.666 35.936 195.642 36.928H194.362ZM204.667 40V34.352C204.667 33.84 204.299 33.472 203.787 33.472H200.411V31.648H204.507C205.675 31.648 206.539 32.512 206.539 33.696V40H204.667ZM213.051 31.648L215.291 39.472V40H213.531L212.859 37.664L210.075 40H209.099V38.544L212.331 35.792L211.659 33.472H210.075V31.648H213.051Z" fill="white"/>
<path d="M42.8969 12V7.021C42.8969 6.605 42.5979 6.306 42.1819 6.306H39.3999V5.214H42.5979C43.4169 5.214 44.0279 5.825 44.0279 6.657V12H42.8969ZM45.9654 12V10.921H46.8494C46.7064 10.31 46.6284 9.66 46.6284 8.997C46.6284 8.035 46.7714 7.073 47.0054 6.306H46.1084V5.214H50.7624C51.1264 5.214 51.4124 5.5 51.4124 5.864V12H50.2814V6.306H48.1624C47.9284 7.047 47.7594 7.853 47.7594 8.841C47.7594 9.478 47.8374 10.193 48.0194 10.921V12H45.9654ZM57.7699 5.214C58.1079 5.214 58.3679 5.474 58.3679 5.812V9.465C58.3679 11.272 57.1589 12.169 55.9499 12.169C54.7539 12.169 53.5709 11.298 53.5709 9.556V6.306H53.0509V5.214H57.7699ZM57.2499 9.66V6.293H54.6889V9.53C54.6889 10.557 55.3519 11.064 56.0019 11.064C56.6259 11.064 57.2499 10.596 57.2499 9.66ZM60.8384 12V10.921H63.4124V6.306H61.7874V5.214H64.5304V11.35C64.5304 11.714 64.2704 12 63.8934 12H60.8384ZM71.148 12V6.306H67.482V5.214H71.629C71.993 5.214 72.279 5.5 72.279 5.864V12H71.148ZM67.56 12V8.152H68.678V12H67.56ZM84.305 13.352V6.293H82.446V5.214H85.423V13.352H84.305ZM88.4135 12V10.921H91.0135C91.7155 10.921 92.2485 10.388 92.2485 9.686V6.306H88.6085V5.214H92.8465C93.1455 5.214 93.3665 5.448 93.3665 5.734V9.725C93.3665 10.921 92.2875 12 91.0915 12H88.4135ZM98.008 12V6.306H96.084V5.214H99.126V12H98.008ZM102.129 12V10.921H103.013C102.87 10.31 102.792 9.66 102.792 8.997C102.792 8.035 102.935 7.073 103.169 6.306H102.272V5.214H106.926C107.29 5.214 107.576 5.5 107.576 5.864V12H106.445V6.306H104.326C104.092 7.047 103.923 7.853 103.923 8.841C103.923 9.478 104.001 10.193 104.183 10.921V12H102.129ZM113.271 12V6.306H109.605V5.214H113.752C114.116 5.214 114.402 5.5 114.402 5.864V12H113.271ZM109.683 12V8.152H110.801V12H109.683ZM123.191 12V10.921H124.075C123.932 10.31 123.854 9.66 123.854 8.997C123.854 8.035 123.997 7.073 124.231 6.306H123.334V5.214H127.988C128.352 5.214 128.638 5.5 128.638 5.864V12H127.507V6.306H125.388C125.154 7.047 124.985 7.853 124.985 8.841C124.985 9.478 125.063 10.193 125.245 10.921V12H123.191ZM135.594 6.046C135.594 7.645 135.23 8.295 133.93 8.906L135.412 11.233L135.399 12H134.554L132.318 8.503C131.876 8.971 131.681 9.595 131.681 10.531V12H130.563V10.791C130.563 9.283 130.953 8.334 131.811 7.71L130.719 5.994L130.732 5.214H131.564L133.449 8.165C134.255 7.762 134.476 7.385 134.476 6.475V5.214H135.594V6.046ZM146.931 9.452V8.685C147.256 8.23 147.672 7.697 147.672 6.722V6.293H145.28V5.214H148.712C148.777 5.513 148.79 5.786 148.79 6.176C148.79 7.827 148.309 8.75 147.581 9.452H146.931ZM154.133 12.117C153.587 12.117 153.184 11.701 153.184 11.155C153.184 10.635 153.587 10.206 154.133 10.206C154.666 10.206 155.082 10.635 155.082 11.155C155.082 11.701 154.666 12.117 154.133 12.117ZM162.415 12V6.306H158.749V5.214H162.896C163.26 5.214 163.546 5.5 163.546 5.864V12H162.415ZM158.827 12V8.152H159.945V12H158.827ZM167.264 12V11.064C168.98 9.491 169.487 8.646 169.487 7.32V6.306H165.743V3.589H166.874V5.214H169.968C170.332 5.214 170.618 5.5 170.618 5.864V7.216C170.618 9.075 169.734 10.505 167.927 12H167.264ZM175.806 5.214L177.626 11.571V12H176.586L176.014 10.011L173.648 12H172.855V11.272L175.689 8.867L174.961 6.306H173.778V5.214H175.806Z" fill="white"/>
<rect x="99.5" y="54.5" width="18" height="27" rx="9" stroke="white"/>
<line x1="108.5" y1="55" x2="108.5" y2="62" stroke="white"/>
</svg>
