<svg width="217" height="82" viewBox="0 0 217 82" fill="none" xmlns="http://www.w3.org/2000/svg">
<path d="M2.36419 40C1.91619 40 1.56419 39.648 1.56419 39.2V31.648H3.40419V38.16H3.82019C5.58019 38.16 6.49219 37.12 6.49219 35.136V34.288C6.49219 33.792 6.10819 33.408 5.61219 33.408C5.45219 33.408 5.29219 33.44 4.65219 33.552L4.39619 31.824C5.13219 31.664 5.56419 31.6 5.91619 31.6C7.38819 31.6 8.36419 32.48 8.36419 33.792V34.64C8.36419 38.304 6.60419 40 2.79619 40H2.36419ZM13.3088 40V33.472H10.9408V31.648H15.1648V40H13.3088ZM19.6454 40C19.1974 40 18.8454 39.648 18.8454 39.2V31.648H20.6854V38.16H21.1014C22.8614 38.16 23.7734 37.12 23.7734 35.136V34.288C23.7734 33.792 23.3894 33.408 22.8934 33.408C22.7334 33.408 22.5734 33.44 21.9334 33.552L21.6774 31.824C22.4134 31.664 22.8454 31.6 23.1974 31.6C24.6694 31.6 25.6454 32.48 25.6454 33.792V34.64C25.6454 38.304 23.8854 40 20.0774 40H19.6454ZM30.1901 36.928V35.984C30.8781 35.024 31.1021 34.464 31.1021 33.728V33.456H28.2061V31.648H32.8621C32.9261 32 32.9581 32.336 32.9581 32.896C32.9581 34.688 32.4941 35.936 31.4701 36.928H30.1901ZM41.1027 31.648H42.8787V34.128C42.8787 38.176 40.9267 40 36.6067 40C36.3027 40 36.0947 39.744 36.0947 39.408V31.648H37.8547V34.752C38.4947 34.56 38.7027 34.144 38.7027 33.248V31.648H40.2547V33.2C40.2547 34.944 39.5667 35.744 37.8547 36.128V38.208C40.0947 38.176 41.1027 36.96 41.1027 34.288V31.648ZM46.5273 40V38.848C48.6393 36.912 49.2633 35.872 49.2633 34.24V33.472H44.8953V29.648H46.7673V31.648H50.3353C50.7833 31.648 51.1353 32 51.1353 32.448V34.112C51.1353 36.4 50.0473 38.16 47.8233 40H46.5273ZM66.6246 40V33.472H62.1126V31.648H67.5046C68.0646 31.648 68.4966 32.08 68.4966 32.64V40H66.6246ZM62.2086 40V35.584H64.0646V40H62.2086ZM75.0572 40V34.352C75.0572 33.84 74.6892 33.472 74.1772 33.472H70.8012V31.648H74.8972C76.0652 31.648 76.9292 32.512 76.9292 33.696V40H75.0572ZM82.0338 36.928V35.984C82.7218 35.024 82.9458 34.464 82.9458 33.728V33.456H80.0498V31.648H84.7058C84.7698 32 84.8018 32.336 84.8018 32.896C84.8018 34.688 84.3378 35.936 83.3138 36.928H82.0338ZM92.3384 40V34.352C92.3384 33.84 91.9704 33.472 91.4584 33.472H88.0824V31.648H92.1784C93.3464 31.648 94.2104 32.512 94.2104 33.696V40H92.3384ZM100.723 31.648L102.963 39.472V40H101.203L100.531 37.664L97.7471 40H96.7711V38.544L100.003 35.792L99.3311 33.472H97.7471V31.648H100.723ZM116.564 42.56V28.784H117.716V42.56H116.564ZM131.158 40V31.648H135.446C136.742 31.648 137.686 32.608 137.686 33.904V40H131.158ZM133.014 38.192H135.83V34.352C135.83 33.84 135.446 33.472 134.95 33.472H133.014V38.192ZM142.918 40V33.472H140.55V31.648H144.774V40H142.918ZM150.775 40V33.472H148.903V31.648H154.503V33.472H152.631V40H150.775ZM158.855 40V38.848C160.967 36.912 161.591 35.872 161.591 34.24V33.472H157.223V29.648H159.095V31.648H162.663C163.111 31.648 163.463 32 163.463 32.448V34.112C163.463 36.4 162.375 38.16 160.151 40H158.855ZM178.953 40V33.472H174.441V31.648H179.833C180.393 31.648 180.825 32.08 180.825 32.64V40H178.953ZM174.537 40V35.584H176.393V40H174.537ZM184.777 40V38.848C186.889 36.912 187.513 35.872 187.513 34.24V33.472H183.145V29.648H185.017V31.648H188.585C189.033 31.648 189.385 32 189.385 32.448V34.112C189.385 36.4 188.297 38.16 186.073 40H184.777ZM194.362 36.928V35.984C195.05 35.024 195.274 34.464 195.274 33.728V33.456H192.378V31.648H197.034C197.098 32 197.13 32.336 197.13 32.896C197.13 34.688 196.666 35.936 195.642 36.928H194.362ZM202.059 40V38.848C204.171 36.912 204.795 35.872 204.795 34.24V33.472H200.427V29.648H202.299V31.648H205.867C206.315 31.648 206.667 32 206.667 32.448V34.112C206.667 36.4 205.579 38.16 203.355 40H202.059ZM213.051 31.648L215.291 39.472V40H213.531L212.859 37.664L210.075 40H209.099V38.544L212.331 35.792L211.659 33.472H210.075V31.648H213.051Z" fill="white"/>
<path d="M42.8969 12V7.021C42.8969 6.605 42.5979 6.306 42.1819 6.306H39.3999V5.214H42.5979C43.4169 5.214 44.0279 5.825 44.0279 6.657V12H42.8969ZM45.9654 12V10.921H46.8494C46.7064 10.31 46.6284 9.66 46.6284 8.997C46.6284 8.035 46.7714 7.073 47.0054 6.306H46.1084V5.214H50.7624C51.1264 5.214 51.4124 5.5 51.4124 5.864V12H50.2814V6.306H48.1624C47.9284 7.047 47.7594 7.853 47.7594 8.841C47.7594 9.478 47.8374 10.193 48.0194 10.921V12H45.9654ZM57.7699 5.214C58.1079 5.214 58.3679 5.474 58.3679 5.812V9.465C58.3679 11.272 57.1589 12.169 55.9499 12.169C54.7539 12.169 53.5709 11.298 53.5709 9.556V6.306H53.0509V5.214H57.7699ZM57.2499 9.66V6.293H54.6889V9.53C54.6889 10.557 55.3519 11.064 56.0019 11.064C56.6259 11.064 57.2499 10.596 57.2499 9.66ZM60.8384 12V10.921H63.4124V6.306H61.7874V5.214H64.5304V11.35C64.5304 11.714 64.2704 12 63.8934 12H60.8384ZM71.148 12V6.306H67.482V5.214H71.629C71.993 5.214 72.279 5.5 72.279 5.864V12H71.148ZM67.56 12V8.152H68.678V12H67.56ZM84.305 13.352V6.293H82.446V5.214H85.423V13.352H84.305ZM88.4135 12V10.921H91.0135C91.7155 10.921 92.2485 10.388 92.2485 9.686V6.306H88.6085V5.214H92.8465C93.1455 5.214 93.3665 5.448 93.3665 5.734V9.725C93.3665 10.921 92.2875 12 91.0915 12H88.4135ZM98.008 12V6.306H96.084V5.214H99.126V12H98.008ZM102.129 12V10.921H103.013C102.87 10.31 102.792 9.66 102.792 8.997C102.792 8.035 102.935 7.073 103.169 6.306H102.272V5.214H106.926C107.29 5.214 107.576 5.5 107.576 5.864V12H106.445V6.306H104.326C104.092 7.047 103.923 7.853 103.923 8.841C103.923 9.478 104.001 10.193 104.183 10.921V12H102.129ZM113.271 12V6.306H109.605V5.214H113.752C114.116 5.214 114.402 5.5 114.402 5.864V12H113.271ZM109.683 12V8.152H110.801V12H109.683ZM123.191 12V10.921H124.075C123.932 10.31 123.854 9.66 123.854 8.997C123.854 8.035 123.997 7.073 124.231 6.306H123.334V5.214H127.988C128.352 5.214 128.638 5.5 128.638 5.864V12H127.507V6.306H125.388C125.154 7.047 124.985 7.853 124.985 8.841C124.985 9.478 125.063 10.193 125.245 10.921V12H123.191ZM135.594 6.046C135.594 7.645 135.23 8.295 133.93 8.906L135.412 11.233L135.399 12H134.554L132.318 8.503C131.876 8.971 131.681 9.595 131.681 10.531V12H130.563V10.791C130.563 9.283 130.953 8.334 131.811 7.71L130.719 5.994L130.732 5.214H131.564L133.449 8.165C134.255 7.762 134.476 7.385 134.476 6.475V5.214H135.594V6.046ZM146.931 9.452V8.685C147.256 8.23 147.672 7.697 147.672 6.722V6.293H145.28V5.214H148.712C148.777 5.513 148.79 5.786 148.79 6.176C148.79 7.827 148.309 8.75 147.581 9.452H146.931ZM154.133 12.117C153.587 12.117 153.184 11.701 153.184 11.155C153.184 10.635 153.587 10.206 154.133 10.206C154.666 10.206 155.082 10.635 155.082 11.155C155.082 11.701 154.666 12.117 154.133 12.117ZM162.415 12V6.306H158.749V5.214H162.896C163.26 5.214 163.546 5.5 163.546 5.864V12H162.415ZM158.827 12V8.152H159.945V12H158.827ZM167.264 12V11.064C168.98 9.491 169.487 8.646 169.487 7.32V6.306H165.743V3.589H166.874V5.214H169.968C170.332 5.214 170.618 5.5 170.618 5.864V7.216C170.618 9.075 169.734 10.505 167.927 12H167.264ZM175.806 5.214L177.626 11.571V12H176.586L176.014 10.011L173.648 12H172.855V11.272L175.689 8.867L174.961 6.306H173.778V5.214H175.806Z" fill="white"/>
<rect x="99.5" y="54.5" width="18" height="27" rx="9" stroke="white"/>
<line x1="108.5" y1="55" x2="108.5" y2="62" stroke="white"/>
</svg>
