<svg width="203" height="18" viewBox="0 0 203 18" fill="none" xmlns="http://www.w3.org/2000/svg">
<line x1="103.582" y1="8.5" x2="3.58203" y2="8.49998" stroke="#A2A2A2"/>
<path d="M8.12903 15C7.29032 10.8065 6.03226 9.12903 1 8.70968C5.66642 8.053 7.70968 7.03226 8.12903 2" stroke="#A2A2A2"/>
<path d="M117.394 12V10.672H118.482C118.306 9.92 118.21 9.12 118.21 8.304C118.21 7.12 118.386 5.936 118.674 4.992H117.57V3.648H123.298C123.746 3.648 124.098 4 124.098 4.448V12H122.706V4.992H120.098C119.81 5.904 119.602 6.896 119.602 8.112C119.602 8.896 119.698 9.776 119.922 10.672V12H117.394ZM129.602 12V4.992H127.234V3.648H130.978V12H129.602ZM137.075 12V10.848C139.187 8.912 139.811 7.872 139.811 6.24V4.992H135.203V1.648H136.595V3.648H140.403C140.851 3.648 141.203 4 141.203 4.448V6.112C141.203 8.4 140.115 10.16 137.891 12H137.075ZM147.588 3.648L149.828 11.472V12H148.548L147.844 9.552L144.932 12H143.956V11.104L147.444 8.144L146.548 4.992H145.092V3.648H147.588ZM154.356 12V10.848C156.468 8.912 157.092 7.872 157.092 6.24V4.992H152.484V1.648H153.876V3.648H157.684C158.132 3.648 158.484 4 158.484 4.448V6.112C158.484 8.4 157.396 10.16 155.172 12H154.356ZM171.638 12V10.848C173.75 8.912 174.374 7.872 174.374 6.24V4.992H169.766V1.648H171.158V3.648H174.966C175.414 3.648 175.766 4 175.766 4.448V6.112C175.766 8.4 174.678 10.16 172.454 12H171.638ZM178.454 12V3.648H183.654C184.102 3.648 184.454 4 184.454 4.448V12H183.078V4.992H179.83V12H178.454ZM186.519 12V10.672H187.607C187.431 9.92 187.335 9.12 187.335 8.304C187.335 7.12 187.511 5.936 187.799 4.992H186.695V3.648H192.423C192.871 3.648 193.223 4 193.223 4.448V12H191.831V4.992H189.223C188.935 5.904 188.727 6.896 188.727 8.112C188.727 8.896 188.823 9.776 189.047 10.672V12H186.519ZM200.231 12V4.992H195.719V3.648H200.823C201.271 3.648 201.623 4 201.623 4.448V12H200.231ZM195.815 12V7.264H197.191V12H195.815Z" fill="#A2A2A2"/>
</svg>
