<svg width="203" height="18" viewBox="0 0 203 18" fill="none" xmlns="http://www.w3.org/2000/svg">
<line x1="88" y1="8.5" x2="3.18983" y2="8.49998" stroke="#A2A2A2"/>
<path d="M7.04614 15C6.33483 10.8065 5.26787 9.12903 1 8.70968C4.9576 8.053 6.69049 7.03226 7.04615 2" stroke="#A2A2A2"/>
<path d="M100.113 12V10.672H101.201C101.025 9.92 100.929 9.12 100.929 8.304C100.929 7.12 101.105 5.936 101.393 4.992H100.289V3.648H106.017C106.465 3.648 106.817 4 106.817 4.448V12H105.425V4.992H102.817C102.529 5.904 102.321 6.896 102.321 8.112C102.321 8.896 102.417 9.776 102.641 10.672V12H100.113ZM112.321 12V4.992H109.953V3.648H113.697V12H112.321ZM119.794 12V10.848C121.906 8.912 122.53 7.872 122.53 6.24V4.992H117.922V1.648H119.314V3.648H123.122C123.57 3.648 123.922 4 123.922 4.448V6.112C123.922 8.4 122.834 10.16 120.61 12H119.794ZM130.306 3.648L132.546 11.472V12H131.266L130.562 9.552L127.65 12H126.674V11.104L130.162 8.144L129.266 4.992H127.81V3.648H130.306ZM137.075 12V10.848C139.187 8.912 139.811 7.872 139.811 6.24V4.992H135.203V1.648H136.595V3.648H140.403C140.851 3.648 141.203 4 141.203 4.448V6.112C141.203 8.4 140.115 10.16 137.891 12H137.075ZM155.252 8.864V7.92C155.652 7.36 156.164 6.704 156.164 5.504V4.976H153.22V3.648H157.444C157.524 4.016 157.54 4.352 157.54 4.832C157.54 6.864 156.948 8 156.052 8.864H155.252ZM164.117 12.144C163.445 12.144 162.949 11.632 162.949 10.96C162.949 10.32 163.445 9.792 164.117 9.792C164.773 9.792 165.285 10.32 165.285 10.96C165.285 11.632 164.773 12.144 164.117 12.144ZM171.638 12V10.848C173.75 8.912 174.374 7.872 174.374 6.24V4.992H169.766V1.648H171.158V3.648H174.966C175.414 3.648 175.766 4 175.766 4.448V6.112C175.766 8.4 174.678 10.16 172.454 12H171.638ZM178.454 12V3.648H183.654C184.102 3.648 184.454 4 184.454 4.448V12H183.078V4.992H179.83V12H178.454ZM186.519 12V10.672H187.607C187.431 9.92 187.335 9.12 187.335 8.304C187.335 7.12 187.511 5.936 187.799 4.992H186.695V3.648H192.423C192.871 3.648 193.223 4 193.223 4.448V12H191.831V4.992H189.223C188.935 5.904 188.727 6.896 188.727 8.112C188.727 8.896 188.823 9.776 189.047 10.672V12H186.519ZM200.231 12V4.992H195.719V3.648H200.823C201.271 3.648 201.623 4 201.623 4.448V12H200.231ZM195.815 12V7.264H197.191V12H195.815Z" fill="#A2A2A2"/>
</svg>
