<svg width="609" height="161" viewBox="0 0 609 161" fill="none" xmlns="http://www.w3.org/2000/svg">
<line x1="151" y1="160.5" y2="160.5" stroke="white"/>
<line x1="150.5" y1="19" x2="150.5" y2="160" stroke="white"/>
<line y1="-0.5" x2="225.002" y2="-0.5" transform="matrix(-0.999992 -0.00386828 0.00510632 -0.999987 375 19.8706)" stroke="white"/>
<path d="M488.783 14.864L488.767 14.144L494.479 3.056H495.919L495.935 3.776L490.223 14.864H488.783ZM497.424 14.864L497.408 14.144L503.12 3.056H504.56L504.576 3.776L498.864 14.864H497.424ZM519.601 14V7.472H515.089V5.648H520.481C521.041 5.648 521.473 6.08 521.473 6.64V14H519.601ZM515.185 14V9.584H517.041V14H515.185ZM523.698 14V5.648H529.154C529.714 5.648 530.146 6.08 530.146 6.64V14H528.29V7.472H525.554V14H523.698ZM538.674 7.744L538.93 14H532.13V12.192H537.01L536.85 8.352C536.834 7.84 536.466 7.472 535.97 7.472H534.562L534.354 8.816C534.338 8.896 534.386 8.976 534.466 9.024L535.314 9.456V10.768H533.954L532.85 10.208C532.53 10.048 532.418 9.728 532.466 9.376L533.026 5.648H536.594C537.81 5.648 538.626 6.528 538.674 7.744ZM545.923 5.648H547.699V8.128C547.699 12.176 545.747 14 541.427 14C541.123 14 540.915 13.744 540.915 13.408V5.648H542.675V8.752C543.315 8.56 543.523 8.144 543.523 7.248V5.648H545.075V7.2C545.075 8.944 544.387 9.744 542.675 10.128V12.208C544.915 12.176 545.923 10.96 545.923 8.288V5.648ZM549.316 14V13.408L550.052 7.696L549.22 7.408V5.584H549.844L551.252 5.984L553.428 5.632C553.62 5.6 553.828 5.584 554.02 5.584C555.332 5.584 556.324 6.576 556.324 7.872V14H552.612V12.192H554.468V8.272C554.468 7.792 554.116 7.44 553.604 7.44C553.492 7.44 553.396 7.44 553.22 7.472L551.876 7.648L551.124 14H549.316ZM572.773 5.648C573.221 5.648 573.573 6 573.573 6.448V14H571.701V7.472H569.493C569.285 8.256 569.141 9.104 569.141 10.112C569.141 10.896 569.237 11.776 569.461 12.672V14H566.453V12.192H567.429C567.333 11.584 567.269 10.944 567.269 10.304C567.269 9.312 567.397 8.32 567.605 7.472H566.629V5.648H572.773ZM579.622 5.648L581.862 13.472V14H580.102L579.43 11.664L576.646 14H575.67V12.544L578.902 9.792L578.23 7.472H576.646V5.648H579.622ZM586.854 10.928V9.984C587.542 9.024 587.766 8.464 587.766 7.728V7.456H584.87V5.648H589.526C589.59 6 589.622 6.336 589.622 6.896C589.622 8.688 589.158 9.936 588.134 10.928H586.854ZM596.903 5.648L599.143 13.472V14H597.383L596.711 11.664L593.927 14H592.951V12.544L596.183 9.792L595.511 7.472H593.927V5.648H596.903ZM601.463 14V5.648H606.919C607.479 5.648 607.911 6.08 607.911 6.64V14H606.055V7.472H603.319V14H601.463ZM415.338 43.648L417.578 51.472V52H416.298L415.594 49.552L412.682 52H411.706V51.104L415.194 48.144L414.298 44.992H412.842V43.648H415.338ZM423.274 52V44.992H420.906V43.648H424.65V52H423.274ZM433.419 52V44.992H428.907V43.648H434.011C434.459 43.648 434.811 44 434.811 44.448V52H433.419ZM429.003 52V47.264H430.379V52H429.003ZM438.012 52V50.672H441.18V44.992H439.18V43.648H442.556V51.2C442.556 51.648 442.236 52 441.772 52H438.012ZM456.429 53.968V53.328C457.213 53.008 457.469 52.448 457.469 52.08C457.053 51.888 456.781 51.488 456.781 50.976C456.781 50.32 457.277 49.792 457.965 49.792C458.493 49.792 459.149 50.096 459.149 51.136C459.149 52.48 457.949 53.824 456.429 53.968ZM466.893 53.664V44.976H464.605V43.648H468.269V53.664H466.893ZM476.222 43.584C477.422 43.584 478.254 44.416 478.254 45.648V52H475.022V50.672H476.878V45.984C476.878 45.376 476.446 44.928 475.886 44.928C475.79 44.928 475.71 44.928 475.454 44.976L473.854 45.264L473.054 52H471.742V51.344L472.478 45.168L471.71 44.88V43.6H472.334L473.55 44L475.71 43.632C475.886 43.6 476.062 43.584 476.222 43.584ZM483.487 48.864V47.92C483.887 47.36 484.399 46.704 484.399 45.504V44.976H481.455V43.648H485.679C485.759 44.016 485.775 44.352 485.775 44.832C485.775 46.864 485.183 48 484.287 48.864H483.487ZM488.831 52V50.672H489.919C489.743 49.92 489.647 49.12 489.647 48.304C489.647 47.12 489.823 45.936 490.111 44.992H489.007V43.648H494.735C495.183 43.648 495.535 44 495.535 44.448V52H494.143V44.992H491.535C491.247 45.904 491.039 46.896 491.039 48.112C491.039 48.896 491.135 49.776 491.359 50.672V52H488.831ZM509.409 48.864V47.92C509.809 47.36 510.321 46.704 510.321 45.504V44.976H507.377V43.648H511.601C511.681 44.016 511.697 44.352 511.697 44.832C511.697 46.864 511.105 48 510.209 48.864H509.409ZM519.121 52V44.992H515.089V43.648H521.473V44.992H520.497V52H519.121ZM526.962 52V44.992H524.594V43.648H528.338V52H526.962ZM537.106 52V44.992H532.594V43.648H537.698C538.146 43.648 538.498 44 538.498 44.448V52H537.106ZM532.69 52V47.264H534.066V52H532.69ZM543.971 48.864V47.92C544.371 47.36 544.883 46.704 544.883 45.504V44.976H541.939V43.648H546.163C546.243 44.016 546.259 44.352 546.259 44.832C546.259 46.864 545.667 48 544.771 48.864H543.971ZM557.956 52V50.672H559.044C558.868 49.92 558.772 49.12 558.772 48.304C558.772 47.12 558.948 45.936 559.236 44.992H558.132V43.648H563.86C564.308 43.648 564.66 44 564.66 44.448V52H563.268V44.992H560.66C560.372 45.904 560.164 46.896 560.164 48.112C560.164 48.896 560.26 49.776 560.484 50.672V52H557.956ZM570.165 52V44.992H567.797V43.648H571.541V52H570.165ZM575.558 52V50.656H579.894V44.992H575.894V43.648H580.47C580.934 43.648 581.27 44 581.27 44.448V50.656H582.198V52H575.558ZM588.742 52V45.872C588.742 45.36 588.374 44.992 587.862 44.992H584.438V43.648H588.374C589.382 43.648 590.134 44.4 590.134 45.424V52H588.742ZM592.519 52V50.672H593.607C593.431 49.92 593.335 49.12 593.335 48.304C593.335 47.12 593.511 45.936 593.799 44.992H592.695V43.648H598.423C598.871 43.648 599.223 44 599.223 44.448V52H597.831V44.992H595.223C594.935 45.904 594.727 46.896 594.727 48.112C594.727 48.896 594.823 49.776 595.047 50.672V52H592.519ZM601.479 52V50.656H605.815V44.992H601.815V43.648H606.391C606.855 43.648 607.191 44 607.191 44.448V50.656H608.119V52H601.479ZM442.044 72.664V63.976H439.276L438.972 66.376C438.956 66.456 438.988 66.536 439.084 66.584L439.916 67V68.104H439.004L437.9 67.544C437.596 67.384 437.484 67.064 437.532 66.696L438.012 63.24C438.06 62.856 438.412 62.648 438.812 62.648H442.636C443.084 62.648 443.42 62.984 443.42 63.432V72.664H442.044ZM449.196 71V63.992H446.828V62.648H450.572V71H449.196ZM454.429 71V69.672H459.485L459.309 64.872C459.293 64.36 458.925 63.992 458.429 63.992H456.637L456.365 65.864C456.349 65.944 456.397 66.024 456.477 66.072L457.325 66.504V67.592H456.445L455.341 67.032C455.021 66.872 454.909 66.552 454.957 66.2L455.485 62.648H458.893C459.917 62.648 460.621 63.4 460.653 64.424L460.909 71H454.429ZM466.205 67.864V66.92C466.605 66.36 467.117 65.704 467.117 64.504V63.976H464.173V62.648H468.397C468.477 63.016 468.493 63.352 468.493 63.832C468.493 65.864 467.901 67 467.005 67.864H466.205ZM471.55 71V69.672H472.638C472.462 68.92 472.366 68.12 472.366 67.304C472.366 66.12 472.542 64.936 472.83 63.992H471.726V62.648H477.454C477.902 62.648 478.254 63 478.254 63.448V71H476.862V63.992H474.254C473.966 64.904 473.758 65.896 473.758 67.112C473.758 67.896 473.854 68.776 474.078 69.672V71H471.55ZM480.511 71V69.656H484.847V63.992H480.847V62.648H485.423C485.887 62.648 486.223 63 486.223 63.448V69.656H487.151V71H480.511ZM499.632 72.968V72.328C500.416 72.008 500.672 71.448 500.672 71.08C500.256 70.888 499.984 70.488 499.984 69.976C499.984 69.32 500.48 68.792 501.168 68.792C501.696 68.792 502.352 69.096 502.352 70.136C502.352 71.48 501.152 72.824 499.632 72.968ZM511.185 71V63.992H506.673V62.648H511.777C512.225 62.648 512.577 63 512.577 63.448V71H511.185ZM506.769 71V66.264H508.145V71H506.769ZM519.617 71V64.872C519.617 64.36 519.249 63.992 518.737 63.992H515.313V62.648H519.249C520.257 62.648 521.009 63.4 521.009 64.424V71H519.617ZM526.69 67.864V66.92C527.09 66.36 527.602 65.704 527.602 64.504V63.976H524.658V62.648H528.882C528.962 63.016 528.978 63.352 528.978 63.832C528.978 65.864 528.386 67 527.49 67.864H526.69ZM537.762 62.648H539.058V65.128C539.058 69.064 537.362 71 532.93 71C532.642 71 532.434 70.744 532.434 70.408V62.648H533.714V66.232C534.722 66.04 535.09 65.544 535.09 64.184V62.648H536.386V63.896C536.386 65.928 535.682 67.016 533.714 67.288V69.688C536.434 69.656 537.762 68.232 537.762 65.48V62.648ZM540.995 71V69.656H545.331V63.992H541.331V62.648H545.907C546.371 62.648 546.707 63 546.707 63.448V69.656H547.635V71H540.995ZM560.356 71V69.848C562.468 67.912 563.092 66.872 563.092 65.24V63.992H558.484V60.648H559.876V62.648H563.684C564.132 62.648 564.484 63 564.484 63.448V65.112C564.484 67.4 563.396 69.16 561.172 71H560.356ZM571.669 71V63.992H567.157V62.648H572.261C572.709 62.648 573.061 63 573.061 63.448V71H571.669ZM567.253 71V66.264H568.629V71H567.253ZM578.838 70.872V69.784C580.15 68.2 580.662 67 580.662 65.32V63.992H575.638V62.648H581.254C581.702 62.648 582.054 62.984 582.054 63.432V65C582.054 67.128 581.494 68.952 579.798 70.872H578.838ZM575.782 72.664V66.072H577.158V72.664H575.782ZM583.878 71V69.672H584.966C584.79 68.92 584.694 68.12 584.694 67.304C584.694 66.12 584.87 64.936 585.158 63.992H584.054V62.648H589.782C590.23 62.648 590.582 63 590.582 63.448V71H589.19V63.992H586.582C586.294 64.904 586.086 65.896 586.086 67.112C586.086 67.896 586.182 68.776 586.406 69.672V71H583.878ZM597.591 71V63.992H593.079V62.648H598.183C598.631 62.648 598.983 63 598.983 63.448V71H597.591ZM593.175 71V66.264H594.551V71H593.175ZM603.559 71V69.848C605.671 67.912 606.295 66.872 606.295 65.24V63.992H601.687V60.648H603.079V62.648H606.887C607.335 62.648 607.687 63 607.687 63.448V65.112C607.687 67.4 606.599 69.16 604.375 71H603.559ZM397.304 90.144C396.632 90.144 396.136 89.632 396.136 88.96C396.136 88.32 396.632 87.792 397.304 87.792C397.96 87.792 398.472 88.32 398.472 88.96C398.472 89.632 397.96 90.144 397.304 90.144ZM407.497 90V82.992H402.985V81.648H408.089C408.537 81.648 408.889 82 408.889 82.448V90H407.497ZM403.081 90V85.264H404.457V90H403.081ZM413.466 90V88.848C415.578 86.912 416.202 85.872 416.202 84.24V82.992H411.594V79.648H412.986V81.648H416.794C417.242 81.648 417.594 82 417.594 82.448V84.112C417.594 86.4 416.506 88.16 414.282 90H413.466ZM420.106 90V88.672H423.306C424.17 88.672 424.826 88.016 424.826 87.152V82.992H420.346V81.648H425.562C425.93 81.648 426.202 81.936 426.202 82.288V87.2C426.202 88.672 424.874 90 423.402 90H420.106ZM431.915 90V82.992H429.547V81.648H433.291V90H431.915ZM449.612 91.664V82.976H447.324V81.648H450.988V91.664H449.612ZM454.269 90V88.672H455.357C455.181 87.92 455.085 87.12 455.085 86.304C455.085 85.12 455.261 83.936 455.549 82.992H454.445V81.648H460.173C460.621 81.648 460.973 82 460.973 82.448V90H459.581V82.992H456.973C456.685 83.904 456.477 84.896 456.477 86.112C456.477 86.896 456.573 87.776 456.797 88.672V90H454.269ZM463.485 90V81.648H468.685C469.133 81.648 469.485 82 469.485 82.448V90H468.109V82.992H464.861V90H463.485ZM480.767 90V81.648H485.967C486.415 81.648 486.767 82 486.767 82.448V90H485.391V82.992H482.143V90H480.767ZM493.503 81.584C494.703 81.584 495.535 82.416 495.535 83.648V90H492.303V88.672H494.159V83.984C494.159 83.376 493.727 82.928 493.167 82.928C493.071 82.928 492.991 82.928 492.735 82.976L491.135 83.264L490.335 90H489.023V89.344L489.759 83.168L488.991 82.88V81.6H489.615L490.831 82L492.991 81.632C493.167 81.6 493.343 81.584 493.503 81.584ZM503.2 81.648H504.496V84.128C504.496 88.064 502.8 90 498.368 90C498.08 90 497.872 89.744 497.872 89.408V81.648H499.152V85.232C500.16 85.04 500.528 84.544 500.528 83.184V81.648H501.824V82.896C501.824 84.928 501.12 86.016 499.152 86.288V88.688C501.872 88.656 503.2 87.232 503.2 84.48V81.648ZM508.513 90V88.848C510.625 86.912 511.249 85.872 511.249 84.24V82.992H506.641V79.648H508.033V81.648H511.841C512.289 81.648 512.641 82 512.641 82.448V84.112C512.641 86.4 511.553 88.16 509.329 90H508.513ZM526.69 86.864V85.92C527.09 85.36 527.602 84.704 527.602 83.504V82.976H524.658V81.648H528.882C528.962 82.016 528.978 82.352 528.978 82.832C528.978 84.864 528.386 86 527.49 86.864H526.69ZM536.402 90V82.992H532.37V81.648H538.754V82.992H537.778V90H536.402ZM541.075 90V88.672H544.275C545.139 88.672 545.795 88.016 545.795 87.152V82.992H541.315V81.648H546.531C546.899 81.648 547.171 81.936 547.171 82.288V87.2C547.171 88.672 545.843 90 544.371 90H541.075ZM560.356 90V88.848C562.468 86.912 563.092 85.872 563.092 84.24V82.992H558.484V79.648H559.876V81.648H563.684C564.132 81.648 564.484 82 564.484 82.448V84.112C564.484 86.4 563.396 88.16 561.172 90H560.356ZM570.165 90V82.992H567.797V81.648H571.541V90H570.165ZM575.814 90V81.648H581.014C581.462 81.648 581.814 82 581.814 82.448V90H580.438V82.992H577.19V90H575.814ZM588.55 81.584C589.75 81.584 590.582 82.416 590.582 83.648V90H587.35V88.672H589.206V83.984C589.206 83.376 588.774 82.928 588.214 82.928C588.118 82.928 588.038 82.928 587.782 82.976L586.182 83.264L585.382 90H584.07V89.344L584.806 83.168L584.038 82.88V81.6H584.662L585.878 82L588.038 81.632C588.214 81.6 588.39 81.584 588.55 81.584ZM592.839 90V88.656H597.175V82.992H593.175V81.648H597.751C598.215 81.648 598.551 82 598.551 82.448V88.656H599.479V90H592.839ZM604.727 90V82.992H602.359V81.648H606.103V90H604.727Z" fill="white"/>
</svg>
