<svg width="67" height="17" viewBox="0 0 67 17" fill="none" xmlns="http://www.w3.org/2000/svg">
<line y1="-0.5" x2="23.4839" y2="-0.5" transform="matrix(1 -1.87335e-08 -1.87335e-08 -1 41 7.87097)" stroke="white"/>
<path d="M59.451 2C60.2898 6.19355 61.5478 7.87097 66.5801 8.29032C61.9137 8.947 59.8704 9.96774 59.451 15" stroke="white"/>
<path d="M6.19842 13V6.6805C6.19842 6.1525 5.81892 5.773 5.29092 5.773H1.75992V4.387H5.81892C6.85842 4.387 7.63392 5.1625 7.63392 6.2185V13H6.19842ZM13.7726 13V5.773H11.3306V4.387H15.1916V13H13.7726ZM21.9242 13V5.773H20.0762V4.387H25.1912V5.773H23.3432V13H21.9242ZM28.5084 13V4.387H33.8709C34.3329 4.387 34.6959 4.75 34.6959 5.212V13H33.2769V5.773H29.9274V13H28.5084Z" fill="white"/>
</svg>
