<svg width="524" height="120" viewBox="0 0 524 120" fill="none" xmlns="http://www.w3.org/2000/svg">
<path d="M64.377 14.864L64.361 14.144L70.073 3.056H71.513L71.529 3.776L65.817 14.864H64.377ZM73.0176 14.864L73.0016 14.144L78.7136 3.056H80.1536L80.1696 3.776L74.4576 14.864H73.0176ZM90.6029 14V5.648H94.8909C96.1869 5.648 97.1309 6.608 97.1309 7.904V14H90.6029ZM92.4589 12.192H95.2749V8.352C95.2749 7.84 94.8909 7.472 94.3949 7.472H92.4589V12.192ZM101.964 10.928V9.984C102.652 9.024 102.876 8.464 102.876 7.728V7.456H99.9795V5.648H104.636C104.7 6 104.732 6.336 104.732 6.896C104.732 8.688 104.268 9.936 103.244 10.928H101.964ZM109.66 14V12.848C111.772 10.912 112.396 9.872 112.396 8.24V7.472H108.028V3.648H109.9V5.648H113.468C113.916 5.648 114.268 6 114.268 6.448V8.112C114.268 10.4 113.18 12.16 110.956 14H109.66ZM122.349 5.648C122.861 5.648 123.261 6.048 123.261 6.56V10.64C123.261 13.024 121.661 14.208 120.045 14.208C118.445 14.208 116.877 13.072 116.877 10.768V7.472H116.237V5.648H122.349ZM121.405 10.928V7.456H118.733V10.928C118.733 11.872 119.421 12.448 120.109 12.448C120.765 12.448 121.405 11.92 121.405 10.928ZM139.726 5.648C140.174 5.648 140.526 6 140.526 6.448V14H138.654V7.472H136.446C136.238 8.256 136.094 9.104 136.094 10.112C136.094 10.896 136.19 11.776 136.414 12.672V14H133.406V12.192H134.382C134.286 11.584 134.222 10.944 134.222 10.304C134.222 9.312 134.35 8.32 134.558 7.472H133.582V5.648H139.726ZM147.087 5.648H148.927V6.288C148.911 7.008 148.895 7.824 148.847 8.544C148.591 12.352 147.215 13.76 143.279 14.272L142.655 14.352H141.967V12.56C142.335 12.544 142.703 12.512 143.199 12.432L143.791 12.336L142.655 6.304V5.648H144.447L145.583 11.776C146.543 11.264 146.879 10.432 146.975 8.864C147.039 7.872 147.071 6.624 147.087 5.648ZM153.807 10.928V9.984C154.495 9.024 154.719 8.464 154.719 7.728V7.456H151.823V5.648H156.479C156.543 6 156.575 6.336 156.575 6.896C156.575 8.688 156.111 9.936 155.087 10.928H153.807ZM161.504 14V12.848C163.616 10.912 164.24 9.872 164.24 8.24V7.472H159.872V3.648H161.744V5.648H165.312C165.76 5.648 166.112 6 166.112 6.448V8.112C166.112 10.4 165.024 12.16 162.8 14H161.504ZM171.553 13.872V12.784C172.769 11.2 173.249 10 173.249 8.32V7.472H168.353V5.648H174.321C174.769 5.648 175.121 5.984 175.121 6.432V8C175.121 10.128 174.593 11.952 172.993 13.872H171.553ZM168.497 15.68V9.392H170.353V15.68H168.497ZM187.426 14V12.848C189.538 10.912 190.162 9.872 190.162 8.24V7.472H185.794V3.648H187.666V5.648H191.234C191.682 5.648 192.034 6 192.034 6.448V8.112C192.034 10.4 190.946 12.16 188.722 14H187.426ZM200.114 5.648C200.626 5.648 201.026 6.048 201.026 6.56V10.64C201.026 13.024 199.426 14.208 197.81 14.208C196.21 14.208 194.642 13.072 194.642 10.768V7.472H194.002V5.648H200.114ZM199.17 10.928V7.456H196.498V10.928C196.498 11.872 197.186 12.448 197.874 12.448C198.53 12.448 199.17 11.92 199.17 10.928ZM217.492 5.648C217.94 5.648 218.292 6 218.292 6.448V14H216.42V7.472H214.212C214.004 8.256 213.86 9.104 213.86 10.112C213.86 10.896 213.956 11.776 214.18 12.672V14H211.172V12.192H212.148C212.052 11.584 211.988 10.944 211.988 10.304C211.988 9.312 212.116 8.32 212.324 7.472H211.348V5.648H217.492ZM224.596 14V8.352C224.596 7.84 224.228 7.472 223.716 7.472H220.34V5.648H224.436C225.604 5.648 226.468 6.512 226.468 7.696V14H224.596ZM231.973 14V7.472H229.605V5.648H233.829V14H231.973ZM238.31 14C237.862 14 237.51 13.648 237.51 13.2V5.648H239.35V12.16H239.766C241.526 12.16 242.438 11.12 242.438 9.136V8.288C242.438 7.792 242.054 7.408 241.558 7.408C241.398 7.408 241.238 7.44 240.598 7.552L240.342 5.824C241.078 5.664 241.51 5.6 241.862 5.6C243.334 5.6 244.31 6.48 244.31 7.792V8.64C244.31 12.304 242.55 14 238.742 14H238.31ZM251.958 5.648C252.47 5.648 252.87 6.048 252.87 6.56V10.64C252.87 13.024 251.27 14.208 249.654 14.208C248.054 14.208 246.486 13.072 246.486 10.768V7.472H245.846V5.648H251.958ZM251.014 10.928V7.456H248.342V10.928C248.342 11.872 249.03 12.448 249.718 12.448C250.374 12.448 251.014 11.92 251.014 10.928ZM257.959 13.872V12.784C259.175 11.2 259.655 10 259.655 8.32V7.472H254.759V5.648H260.727C261.175 5.648 261.527 5.984 261.527 6.432V8C261.527 10.128 260.999 11.952 259.399 13.872H257.959ZM254.903 15.68V9.392H256.759V15.68H254.903ZM264.231 14C263.783 14 263.431 13.648 263.431 13.2V5.648H265.271V12.16H265.687C267.447 12.16 268.359 11.12 268.359 9.136V8.288C268.359 7.792 267.975 7.408 267.479 7.408C267.319 7.408 267.159 7.44 266.519 7.552L266.263 5.824C266.999 5.664 267.431 5.6 267.783 5.6C269.255 5.6 270.231 6.48 270.231 7.792V8.64C270.231 12.304 268.471 14 264.663 14H264.231ZM60.8404 53.664V44.976H58.0724L57.7684 47.376C57.7524 47.456 57.7844 47.536 57.8804 47.584L58.7124 48V49.104H57.8004L56.6964 48.544C56.3924 48.384 56.2804 48.064 56.3284 47.696L56.8084 44.24C56.8564 43.856 57.2084 43.648 57.6084 43.648H61.4324C61.8804 43.648 62.2164 43.984 62.2164 44.432V53.664H60.8404ZM67.993 52V44.992H65.625V43.648H69.369V52H67.993ZM73.2256 52V50.672H78.2816L78.1056 45.872C78.0896 45.36 77.7216 44.992 77.2256 44.992H75.4336L75.1616 46.864C75.1456 46.944 75.1936 47.024 75.2736 47.072L76.1216 47.504V48.592H75.2416L74.1376 48.032C73.8176 47.872 73.7056 47.552 73.7536 47.2L74.2816 43.648H77.6896C78.7136 43.648 79.4176 44.4 79.4496 45.424L79.7056 52H73.2256ZM85.0023 48.864V47.92C85.4023 47.36 85.9143 46.704 85.9143 45.504V44.976H82.9703V43.648H87.1943C87.2743 44.016 87.2903 44.352 87.2903 44.832C87.2903 46.864 86.6983 48 85.8023 48.864H85.0023ZM92.7469 52V50.848C94.8589 48.912 95.4829 47.872 95.4829 46.24V44.992H90.8749V41.648H92.2669V43.648H96.0749C96.5229 43.648 96.8749 44 96.8749 44.448V46.112C96.8749 48.4 95.7869 50.16 93.5629 52H92.7469ZM110.924 48.864V47.92C111.324 47.36 111.836 46.704 111.836 45.504V44.976H108.892V43.648H113.116C113.196 44.016 113.212 44.352 113.212 44.832C113.212 46.864 112.62 48 111.724 48.864H110.924ZM116.589 45.264V44.624C117.373 44.304 117.629 43.744 117.629 43.376C117.213 43.184 116.941 42.784 116.941 42.272C116.941 41.616 117.437 41.088 118.125 41.088C118.653 41.088 119.309 41.392 119.309 42.432C119.309 43.776 118.109 45.12 116.589 45.264ZM120.269 45.264V44.624C121.053 44.304 121.309 43.744 121.309 43.376C120.893 43.184 120.621 42.784 120.621 42.272C120.621 41.616 121.117 41.088 121.805 41.088C122.333 41.088 122.989 41.392 122.989 42.432C122.989 43.776 121.789 45.12 120.269 45.264ZM130.173 43.648H131.533V44.288C131.517 45.008 131.501 45.824 131.453 46.544C131.197 50.384 129.773 51.776 125.885 52.272L125.261 52.352H125.053V51.024C125.437 50.992 125.789 50.96 126.141 50.896C126.429 50.848 126.701 50.8 126.957 50.736L125.741 44.304V43.648H127.053L128.285 50.304C129.421 49.76 129.917 48.832 130.061 46.912C130.141 45.856 130.157 44.528 130.173 43.648ZM145.759 52V44.992H143.391V43.648H147.135V52H145.759ZM155.695 52V45.872C155.695 45.36 155.327 44.992 154.815 44.992H151.391V43.648H155.327C156.335 43.648 157.087 44.4 157.087 45.424V52H155.695ZM165.888 44.784C165.888 46.608 165.472 47.296 163.968 47.936L165.808 50.704V52H159.968V50.672H164.24L160.048 44.608V43.648H161.12L163.392 47.056C164.272 46.688 164.512 46.304 164.512 45.296V43.648H165.888V44.784ZM171.681 52V44.992H169.312V43.648H173.057V52H171.681ZM177.777 52V50.672H180.945V44.992H178.945V43.648H182.321V51.2C182.321 51.648 182.001 52 181.537 52H177.777ZM194.53 52V43.648H198.818C199.842 43.648 200.578 44.4 200.578 45.424V52H194.53ZM195.906 50.672H199.202V45.872C199.202 45.36 198.818 44.992 198.322 44.992H195.906V50.672ZM205.971 48.864V47.92C206.371 47.36 206.883 46.704 206.883 45.504V44.976H203.939V43.648H208.163C208.243 44.016 208.259 44.352 208.259 44.832C208.259 46.864 207.667 48 206.771 48.864H205.971ZM216.18 52V45.872C216.18 45.36 215.812 44.992 215.3 44.992H211.876V43.648H215.812C216.82 43.648 217.572 44.4 217.572 45.424V52H216.18ZM226.372 44.784C226.372 46.608 225.956 47.296 224.452 47.936L226.292 50.704V52H220.452V50.672H224.724L220.532 44.608V43.648H221.604L223.876 47.056C224.756 46.688 224.996 46.304 224.996 45.296V43.648H226.372V44.784ZM229.621 52V50.672H232.789V44.992H230.789V43.648H234.165V51.2C234.165 51.648 233.845 52 233.381 52H229.621ZM249.174 48.864V47.92C249.574 47.36 250.086 46.704 250.086 45.504V44.976H247.142V43.648H251.366C251.446 44.016 251.462 44.352 251.462 44.832C251.462 46.864 250.87 48 249.974 48.864H249.174ZM256.919 52V50.848C259.031 48.912 259.655 47.872 259.655 46.24V44.992H255.047V41.648H256.439V43.648H260.247C260.695 43.648 261.047 44 261.047 44.448V46.112C261.047 48.4 259.959 50.16 257.735 52H256.919ZM263.559 52V50.672H266.759C267.623 50.672 268.279 50.016 268.279 49.152V44.992H263.799V43.648H269.015C269.383 43.648 269.655 43.936 269.655 44.288V49.2C269.655 50.672 268.327 52 266.855 52H263.559ZM43.5751 71V63.992H39.0631V62.648H44.1671C44.6151 62.648 44.9671 63 44.9671 63.448V71H43.5751ZM39.1591 71V66.264H40.5351V71H39.1591ZM49.9758 71V63.992H48.1838V62.648H53.1438V63.992H51.3518V71H49.9758ZM58.1844 71V69.848C60.2964 67.912 60.9204 66.872 60.9204 65.24V63.992H56.3124V60.648H57.7044V62.648H61.5124C61.9604 62.648 62.3124 63 62.3124 63.448V65.112C62.3124 67.4 61.2244 69.16 59.0004 71H58.1844ZM78.1376 71V63.992H73.6256V62.648H78.7296C79.1776 62.648 79.5296 63 79.5296 63.448V71H78.1376ZM73.7216 71V66.264H75.0976V71H73.7216ZM84.5383 71V63.992H82.7463V62.648H87.7063V63.992H85.9143V71H84.5383ZM99.4835 71V62.648H103.772C104.796 62.648 105.532 63.4 105.532 64.424V71H99.4835ZM100.86 69.672H104.156V64.872C104.156 64.36 103.772 63.992 103.276 63.992H100.86V69.672ZM112.492 71V64.872C112.492 64.36 112.124 63.992 111.612 63.992H108.188V62.648H112.124C113.132 62.648 113.884 63.4 113.884 64.424V71H112.492ZM119.837 71V63.992H117.469V62.648H121.213V71H119.837ZM125.229 71V69.656H129.565V63.992H125.565V62.648H130.141C130.605 62.648 130.941 63 130.941 63.448V69.656H131.869V71H125.229ZM136.846 67.864V66.92C137.246 66.36 137.758 65.704 137.758 64.504V63.976H134.814V62.648H139.038C139.118 63.016 139.134 63.352 139.134 63.832C139.134 65.864 138.542 67 137.646 67.864H136.846ZM142.767 71V62.648H147.967C148.415 62.648 148.767 63 148.767 63.448V71H147.391V63.992H144.143V71H142.767ZM154.399 71V63.992H152.031V62.648H155.775V71H154.399ZM168.609 71V62.648H172.897C173.921 62.648 174.657 63.4 174.657 64.424V71H168.609ZM169.985 69.672H173.281V64.872C173.281 64.36 172.897 63.992 172.401 63.992H169.985V69.672ZM180.049 67.864V66.92C180.449 66.36 180.961 65.704 180.961 64.504V63.976H178.017V62.648H182.241C182.321 63.016 182.337 63.352 182.337 63.832C182.337 65.864 181.745 67 180.849 67.864H180.049ZM190.258 71V64.872C190.258 64.36 189.89 63.992 189.378 63.992H185.954V62.648H189.89C190.898 62.648 191.65 63.4 191.65 64.424V71H190.258ZM200.45 63.784C200.45 65.608 200.034 66.296 198.53 66.936L200.37 69.704V71H194.53V69.672H198.802L194.61 63.608V62.648H195.682L197.954 66.056C198.834 65.688 199.074 65.304 199.074 64.296V62.648H200.45V63.784ZM203.699 71V69.672H206.867V63.992H204.867V62.648H208.243V70.2C208.243 70.648 207.923 71 207.459 71H203.699ZM219.956 71V69.672H221.044C220.868 68.92 220.772 68.12 220.772 67.304C220.772 66.12 220.948 64.936 221.236 63.992H220.132V62.648H225.86C226.308 62.648 226.66 63 226.66 63.448V71H225.268V63.992H222.66C222.372 64.904 222.164 65.896 222.164 67.112C222.164 67.896 222.26 68.776 222.484 69.672V71H219.956ZM232.165 71V63.992H229.797V62.648H233.541V71H232.165ZM242.102 71V64.872C242.102 64.36 241.734 63.992 241.222 63.992H237.798V62.648H241.734C242.742 62.648 243.494 63.4 243.494 64.424V71H242.102ZM249.446 71V63.992H247.078V62.648H250.822V71H249.446ZM259.383 71V64.872C259.383 64.36 259.015 63.992 258.503 63.992H255.079V62.648H259.015C260.023 62.648 260.775 63.4 260.775 64.424V71H259.383ZM269.575 63.784C269.575 65.608 269.159 66.296 267.655 66.936L269.495 69.704V71H263.655V69.672H267.927L263.735 63.608V62.648H264.807L267.079 66.056C267.959 65.688 268.199 65.304 268.199 64.296V62.648H269.575V63.784ZM55.7844 90V88.672H56.8724C56.6964 87.92 56.6004 87.12 56.6004 86.304C56.6004 85.12 56.7764 83.936 57.0644 82.992H55.9604V81.648H61.6884C62.1364 81.648 62.4884 82 62.4884 82.448V90H61.0964V82.992H58.4884C58.2004 83.904 57.9924 84.896 57.9924 86.112C57.9924 86.896 58.0884 87.776 58.3124 88.672V90H55.7844ZM69.289 90V83.872C69.289 83.36 68.921 82.992 68.409 82.992H64.985V81.648H68.921C69.929 81.648 70.681 82.4 70.681 83.424V90H69.289ZM79.4816 82.784C79.4816 84.608 79.0656 85.296 77.5616 85.936L79.4016 88.704V90H73.5616V88.672H77.8336L73.6416 82.608V81.648H74.7136L76.9856 85.056C77.8656 84.688 78.1056 84.304 78.1056 83.296V81.648H79.4816V82.784ZM85.2743 90V82.992H82.9062V81.648H86.6503V90H85.2743ZM91.3709 90V88.672H94.5389V82.992H92.5389V81.648H95.9149V89.2C95.9149 89.648 95.5949 90 95.1309 90H91.3709ZM111.884 91.664V82.976H108.092V81.648H114.204V82.976H113.26V91.664H111.884ZM116.669 90V88.672H119.869C120.733 88.672 121.389 88.016 121.389 87.152V82.992H116.909V81.648H122.125C122.493 81.648 122.765 81.936 122.765 82.288V87.2C122.765 88.672 121.437 90 119.965 90H116.669ZM128.477 90V82.992H126.109V81.648H129.853V90H128.477ZM144.351 91.968V91.328C145.135 91.008 145.391 90.448 145.391 90.08C144.975 89.888 144.703 89.488 144.703 88.976C144.703 88.32 145.199 87.792 145.887 87.792C146.415 87.792 147.071 88.096 147.071 89.136C147.071 90.48 145.871 91.824 144.351 91.968ZM150.831 90V88.672H151.919C151.743 87.92 151.647 87.12 151.647 86.304C151.647 85.12 151.823 83.936 152.111 82.992H151.007V81.648H156.735C157.183 81.648 157.535 82 157.535 82.448V90H156.143V82.992H153.535C153.247 83.904 153.039 84.896 153.039 86.112C153.039 86.896 153.135 87.776 153.359 88.672V90H150.831ZM163.04 90V82.992H160.672V81.648H164.416V90H163.04ZM171.409 86.864V85.92C171.809 85.36 172.321 84.704 172.321 83.504V82.976H169.377V81.648H173.601C173.681 82.016 173.697 82.352 173.697 82.832C173.697 84.864 173.105 86 172.209 86.864H171.409ZM180.353 89.872V88.784C181.665 87.2 182.177 86 182.177 84.32V82.992H177.153V81.648H182.769C183.217 81.648 183.569 81.984 183.569 82.432V84C183.569 86.128 183.009 87.952 181.313 89.872H180.353ZM177.297 91.664V85.072H178.673V91.664H177.297ZM185.554 90V88.672H190.61L190.434 83.872C190.418 83.36 190.05 82.992 189.554 82.992H187.762L187.49 84.864C187.474 84.944 187.522 85.024 187.602 85.072L188.45 85.504V86.592H187.57L186.466 86.032C186.146 85.872 186.034 85.552 186.082 85.2L186.61 81.648H190.018C191.042 81.648 191.746 82.4 191.778 83.424L192.034 90H185.554ZM197.602 90V82.992H195.234V81.648H198.978V90H197.602ZM209.299 82.672C209.299 84.64 208.851 85.44 207.251 86.192L209.075 89.056L209.059 90H208.019L205.267 85.696C204.723 86.272 204.483 87.04 204.483 88.192V90H203.107V88.512C203.107 86.656 203.587 85.488 204.643 84.72L203.299 82.608L203.315 81.648H204.339L206.659 85.28C207.651 84.784 207.923 84.32 207.923 83.2V81.648H209.299V82.672ZM219.956 90V88.672H221.044C220.868 87.92 220.772 87.12 220.772 86.304C220.772 85.12 220.948 83.936 221.236 82.992H220.132V81.648H225.86C226.308 81.648 226.66 82 226.66 82.448V90H225.268V82.992H222.66C222.372 83.904 222.164 84.896 222.164 86.112C222.164 86.896 222.26 87.776 222.484 88.672V90H219.956ZM232.165 90V82.992H229.797V81.648H233.541V90H232.165ZM242.102 90V83.872C242.102 83.36 241.734 82.992 241.222 82.992H237.798V81.648H241.734C242.742 81.648 243.494 82.4 243.494 83.424V90H242.102ZM249.446 90V82.992H247.078V81.648H250.822V90H249.446ZM260.247 81.648H261.543V84.128C261.543 88.064 259.847 90 255.415 90C255.127 90 254.919 89.744 254.919 89.408V81.648H256.199V85.232C257.207 85.04 257.575 84.544 257.575 83.184V81.648H258.871V82.896C258.871 84.928 258.167 86.016 256.199 86.288V88.688C258.919 88.656 260.247 87.232 260.247 84.48V81.648ZM263.479 90V88.656H267.815V82.992H263.815V81.648H268.391C268.855 81.648 269.191 82 269.191 82.448V88.656H270.119V90H263.479ZM76.5856 109.144C75.9136 109.144 75.4176 108.632 75.4176 107.96C75.4176 107.32 75.9136 106.792 76.5856 106.792C77.2416 106.792 77.7536 107.32 77.7536 107.96C77.7536 108.632 77.2416 109.144 76.5856 109.144ZM85.0023 105.864V104.92C85.4023 104.36 85.9143 103.704 85.9143 102.504V101.976H82.9703V100.648H87.1943C87.2743 101.016 87.2903 101.352 87.2903 101.832C87.2903 103.864 86.6983 105 85.8023 105.864H85.0023ZM92.7469 109V107.848C94.8589 105.912 95.4829 104.872 95.4829 103.24V101.992H90.8749V98.648H92.2669V100.648H96.0749C96.5229 100.648 96.8749 101 96.8749 101.448V103.112C96.8749 105.4 95.7869 107.16 93.5629 109H92.7469ZM99.3875 109V107.672H102.588C103.452 107.672 104.108 107.016 104.108 106.152V101.992H99.6275V100.648H104.844C105.212 100.648 105.484 100.936 105.484 101.288V106.2C105.484 107.672 104.156 109 102.684 109H99.3875ZM112.7 109V101.992H108.188V100.648H113.292C113.74 100.648 114.092 101 114.092 101.448V109H112.7ZM108.284 109V104.264H109.66V109H108.284ZM127.309 109V107.848C129.421 105.912 130.045 104.872 130.045 103.24V101.992H125.437V98.648H126.829V100.648H130.637C131.085 100.648 131.437 101 131.437 101.448V103.112C131.437 105.4 130.349 107.16 128.125 109H127.309ZM139.278 100.648H140.574V103.128C140.574 107.064 138.878 109 134.446 109C134.158 109 133.95 108.744 133.95 108.408V100.648H135.23V104.232C136.238 104.04 136.606 103.544 136.606 102.184V100.648H137.902V101.896C137.902 103.928 137.198 105.016 135.23 105.288V107.688C137.95 107.656 139.278 106.232 139.278 103.48V100.648ZM155.903 109V101.992H151.391V100.648H156.495C156.943 100.648 157.295 101 157.295 101.448V109H155.903ZM151.487 109V104.264H152.863V109H151.487ZM164.144 100.584C165.344 100.584 166.176 101.416 166.176 102.648V109H162.944V107.672H164.8V102.984C164.8 102.376 164.368 101.928 163.808 101.928C163.712 101.928 163.632 101.928 163.376 101.976L161.776 102.264L160.976 109H159.664V108.344L160.4 102.168L159.632 101.88V100.6H160.256L161.472 101L163.632 100.632C163.808 100.6 163.984 100.584 164.144 100.584ZM171.409 105.864V104.92C171.809 104.36 172.321 103.704 172.321 102.504V101.976H169.377V100.648H173.601C173.681 101.016 173.697 101.352 173.697 101.832C173.697 103.864 173.105 105 172.209 105.864H171.409ZM182.481 100.648H183.777V103.128C183.777 107.064 182.081 109 177.649 109C177.361 109 177.153 108.744 177.153 108.408V100.648H178.433V104.232C179.441 104.04 179.809 103.544 179.809 102.184V100.648H181.105V101.896C181.105 103.928 180.401 105.016 178.433 105.288V107.688C181.153 107.656 182.481 106.232 182.481 103.48V100.648ZM190.258 109V102.872C190.258 102.36 189.89 101.992 189.378 101.992H185.954V100.648H189.89C190.898 100.648 191.65 101.4 191.65 102.424V109H190.258ZM198.706 100.584C199.906 100.584 200.738 101.416 200.738 102.648V109H197.506V107.672H199.362V102.984C199.362 102.376 198.93 101.928 198.37 101.928C198.274 101.928 198.194 101.928 197.938 101.976L196.338 102.264L195.538 109H194.226V108.344L194.962 102.168L194.194 101.88V100.6H194.818L196.034 101L198.194 100.632C198.37 100.6 198.546 100.584 198.706 100.584ZM207.747 109V101.992H203.235V100.648H208.339C208.787 100.648 209.139 101 209.139 101.448V109H207.747ZM203.331 109V104.264H204.707V109H203.331ZM225.028 109V101.992H220.516V100.648H225.62C226.068 100.648 226.42 101 226.42 101.448V109H225.028ZM220.612 109V104.264H221.988V109H220.612ZM233.269 100.584C234.469 100.584 235.301 101.416 235.301 102.648V109H232.069V107.672H233.925V102.984C233.925 102.376 233.493 101.928 232.933 101.928C232.837 101.928 232.757 101.928 232.501 101.976L230.901 102.264L230.101 109H228.789V108.344L229.525 102.168L228.757 101.88V100.6H229.381L230.597 101L232.757 100.632C232.933 100.6 233.109 100.584 233.269 100.584ZM241.51 100.648L243.75 108.472V109H242.47L241.766 106.552L238.854 109H237.878V108.104L241.366 105.144L240.47 101.992H239.014V100.648H241.51ZM249.446 109V101.992H247.078V100.648H250.822V109H249.446ZM258.887 109V101.992H254.855V100.648H261.239V101.992H260.263V109H258.887ZM268.231 109V101.992H263.719V100.648H268.823C269.271 100.648 269.623 101 269.623 101.448V109H268.231ZM263.815 109V104.264H265.191V109H263.815Z" fill="white"/>
<line x1="524" y1="36.5" x2="323" y2="36.5" stroke="white"/>
</svg>
