<svg width="351" height="410" viewBox="0 0 351 410" fill="none" xmlns="http://www.w3.org/2000/svg">
<path d="M54.4501 99V91.992H49.9381V90.648H55.0421C55.4901 90.648 55.8421 91 55.8421 91.448V99H54.4501ZM50.0341 99V94.264H51.4101V99H50.0341ZM62.3868 99V91.992H58.3548V90.648H64.7388V91.992H63.7628V99H62.3868ZM69.0594 99V97.848C71.1714 95.912 71.7954 94.872 71.7954 93.24V91.992H67.1874V88.648H68.5794V90.648H72.3874C72.8354 90.648 73.1874 91 73.1874 91.448V93.112C73.1874 95.4 72.0994 97.16 69.8754 99H69.0594ZM78.596 95.864V94.92C78.996 94.36 79.508 93.704 79.508 92.504V91.976H76.564V90.648H80.788C80.868 91.016 80.884 91.352 80.884 91.832C80.884 93.864 80.292 95 79.396 95.864H78.596ZM94.9813 99V97.848C97.0933 95.912 97.7173 94.872 97.7173 93.24V91.992H93.1093V88.648H94.5013V90.648H98.3093C98.7573 90.648 99.1093 91 99.1093 91.448V93.112C99.1093 95.4 98.0213 97.16 95.7973 99H94.9813ZM106.95 90.648H108.246V93.128C108.246 97.064 106.55 99 102.118 99C101.83 99 101.622 98.744 101.622 98.408V90.648H102.902V94.232C103.91 94.04 104.278 93.544 104.278 92.184V90.648H105.574V91.896C105.574 93.928 104.87 95.016 102.902 95.288V97.688C105.622 97.656 106.95 96.232 106.95 93.48V90.648ZM120.903 99V97.848C123.015 95.912 123.639 94.872 123.639 93.24V91.992H119.031V88.648H120.423V90.648H124.231C124.679 90.648 125.031 91 125.031 91.448V93.112C125.031 95.4 123.943 97.16 121.719 99H120.903ZM130.712 99V91.992H128.344V90.648H132.088V99H130.712ZM139.384 98.872V97.784C140.696 96.2 141.208 95 141.208 93.32V91.992H136.184V90.648H141.8C142.248 90.648 142.6 90.984 142.6 91.432V93C142.6 95.128 142.04 96.952 140.344 98.872H139.384ZM136.328 100.664V94.072H137.704V100.664H136.328ZM144.745 99V97.656H149.081V91.992H145.081V90.648H149.657C150.121 90.648 150.457 91 150.457 91.448V97.656H151.385V99H144.745ZM166.57 99V92.872C166.57 92.36 166.202 91.992 165.69 91.992H162.266V90.648H166.202C167.21 90.648 167.962 91.4 167.962 92.424V99H166.57ZM176.075 90.648H177.371V93.128C177.371 97.064 175.675 99 171.243 99C170.955 99 170.747 98.744 170.747 98.408V90.648H172.027V94.232C173.035 94.04 173.403 93.544 173.403 92.184V90.648H174.699V91.896C174.699 93.928 173.995 95.016 172.027 95.288V97.688C174.747 97.656 176.075 96.232 176.075 93.48V90.648ZM182.556 99V91.992H180.188V90.648H183.932V99H182.556ZM192.3 90.584C193.5 90.584 194.332 91.416 194.332 92.648V99H191.1V97.672H192.956V92.984C192.956 92.376 192.524 91.928 191.964 91.928C191.868 91.928 191.788 91.928 191.532 91.976L189.932 92.264L189.132 99H187.82V98.344L188.556 92.168L187.788 91.88V90.6H188.412L189.628 91L191.788 90.632C191.964 90.6 192.14 90.584 192.3 90.584ZM206.141 92.504V87.752H207.597V92.504H206.141ZM209.261 92.504V87.752H210.717V92.504H209.261ZM220.174 91.672C220.174 93.64 219.726 94.44 218.126 95.192L219.95 98.056L219.934 99H218.894L216.142 94.696C215.598 95.272 215.358 96.04 215.358 97.192V99H213.982V97.512C213.982 95.656 214.462 94.488 215.518 93.72L214.174 91.608L214.19 90.648H215.214L217.534 94.28C218.526 93.784 218.798 93.32 218.798 92.2V90.648H220.174V91.672ZM222.511 99V97.656H226.847V91.992H222.847V90.648H227.423C227.887 90.648 228.223 91 228.223 91.448V97.656H229.151V99H222.511ZM237.455 91.672C237.455 93.64 237.007 94.44 235.407 95.192L237.231 98.056L237.215 99H236.175L233.423 94.696C232.879 95.272 232.639 96.04 232.639 97.192V99H231.263V97.512C231.263 95.656 231.743 94.488 232.799 93.72L231.455 91.608L231.471 90.648H232.495L234.815 94.28C235.807 93.784 236.079 93.32 236.079 92.2V90.648H237.455V91.672ZM242.768 95.864V94.92C243.168 94.36 243.68 93.704 243.68 92.504V91.976H240.736V90.648H244.96C245.04 91.016 245.056 91.352 245.056 91.832C245.056 93.864 244.464 95 243.568 95.864H242.768ZM251.681 99V91.992H249.312V90.648H253.057V99H251.681ZM270.466 99V91.992H265.954V90.648H271.058C271.506 90.648 271.858 91 271.858 91.448V99H270.466ZM266.05 99V94.264H267.426V99H266.05ZM278.706 90.584C279.906 90.584 280.738 91.416 280.738 92.648V99H277.506V97.672H279.362V92.984C279.362 92.376 278.93 91.928 278.37 91.928C278.274 91.928 278.194 91.928 277.938 91.976L276.338 92.264L275.538 99H274.226V98.344L274.962 92.168L274.194 91.88V90.6H274.818L276.034 91L278.194 90.632C278.37 90.6 278.546 90.584 278.706 90.584ZM286.243 99V91.992H283.875V90.648H287.619V99H286.243ZM294.612 95.864V94.92C295.012 94.36 295.524 93.704 295.524 92.504V91.976H292.58V90.648H296.804C296.884 91.016 296.9 91.352 296.9 91.832C296.9 93.864 296.308 95 295.412 95.864H294.612ZM301.188 92.504V87.752H302.644V92.504H301.188ZM304.308 92.504V87.752H305.764V92.504H304.308ZM322.102 99V92.872C322.102 92.36 321.734 91.992 321.222 91.992H317.798V90.648H321.734C322.742 90.648 323.494 91.4 323.494 92.424V99H322.102ZM329.174 95.864V94.92C329.574 94.36 330.086 93.704 330.086 92.504V91.976H327.142V90.648H331.366C331.446 91.016 331.462 91.352 331.462 91.832C331.462 93.864 330.87 95 329.974 95.864H329.174ZM340.247 90.648H341.543V93.128C341.543 97.064 339.847 99 335.415 99C335.127 99 334.919 98.744 334.919 98.408V90.648H336.199V94.232C337.207 94.04 337.575 93.544 337.575 92.184V90.648H338.871V91.896C338.871 93.928 338.167 95.016 336.199 95.288V97.688C338.919 97.656 340.247 96.232 340.247 93.48V90.648ZM348.231 99V91.992H343.719V90.648H348.823C349.271 90.648 349.623 91 349.623 91.448V99H348.231ZM343.815 99V94.264H345.191V99H343.815ZM58.3388 118V116.656H62.6748V110.992H58.6748V109.648H63.2508C63.7148 109.648 64.0508 110 64.0508 110.448V116.656H64.9788V118H58.3388ZM73.2834 110.672C73.2834 112.64 72.8354 113.44 71.2354 114.192L73.0594 117.056L73.0434 118H72.0034L69.2514 113.696C68.7074 114.272 68.4674 115.04 68.4674 116.192V118H67.0914V116.512C67.0914 114.656 67.5714 113.488 68.6274 112.72L67.2834 110.608L67.2994 109.648H68.3234L70.6434 113.28C71.6354 112.784 71.9074 112.32 71.9074 111.2V109.648H73.2834V110.672ZM75.7 118V116.672H78.9C79.764 116.672 80.42 116.016 80.42 115.152V110.992H75.94V109.648H81.156C81.524 109.648 81.796 109.936 81.796 110.288V115.2C81.796 116.672 80.468 118 78.996 118H75.7ZM84.2606 118V116.656H88.5966V110.992H84.5966V109.648H89.1726C89.6366 109.648 89.9726 110 89.9726 110.448V116.656H90.9006V118H84.2606ZM106.294 118V110.992H101.782V109.648H106.886C107.334 109.648 107.686 110 107.686 110.448V118H106.294ZM101.878 118V113.264H103.254V118H101.878ZM113.159 114.864V113.92C113.559 113.36 114.071 112.704 114.071 111.504V110.976H111.127V109.648H115.351C115.431 110.016 115.447 110.352 115.447 110.832C115.447 112.864 114.855 114 113.959 114.864H113.159ZM123.367 118V111.872C123.367 111.36 122.999 110.992 122.487 110.992H119.063V109.648H122.999C124.007 109.648 124.759 110.4 124.759 111.424V118H123.367ZM130.712 118V110.992H128.344V109.648H132.088V118H130.712ZM140.856 118V110.992H136.344V109.648H141.448C141.896 109.648 142.248 110 142.248 110.448V118H140.856ZM136.44 118V113.264H137.816V118H136.44ZM155.466 118V116.848C157.578 114.912 158.202 113.872 158.202 112.24V110.992H153.594V107.648H154.986V109.648H158.794C159.242 109.648 159.594 110 159.594 110.448V112.112C159.594 114.4 158.506 116.16 156.282 118H155.466ZM168.33 110.672C168.33 112.64 167.882 113.44 166.282 114.192L168.106 117.056L168.09 118H167.05L164.298 113.696C163.754 114.272 163.514 115.04 163.514 116.192V118H162.138V116.512C162.138 114.656 162.618 113.488 163.674 112.72L162.33 110.608L162.346 109.648H163.37L165.69 113.28C166.682 112.784 166.954 112.32 166.954 111.2V109.648H168.33V110.672ZM184.06 118V110.992H179.548V109.648H184.652C185.1 109.648 185.452 110 185.452 110.448V118H184.06ZM179.644 118V113.264H181.02V118H179.644ZM188.652 118V116.672H191.82V110.992H189.82V109.648H193.196V117.2C193.196 117.648 192.876 118 192.412 118H188.652ZM199.837 118V110.992H197.469V109.648H201.213V118H199.837ZM205.069 118V116.672H210.125L209.949 111.872C209.933 111.36 209.565 110.992 209.069 110.992H207.277L207.005 112.864C206.989 112.944 207.037 113.024 207.117 113.072L207.965 113.504V114.592H207.085L205.981 114.032C205.661 113.872 205.549 113.552 205.597 113.2L206.125 109.648H209.533C210.557 109.648 211.261 110.4 211.293 111.424L211.549 118H205.069ZM219.278 109.648H220.574V112.128C220.574 116.064 218.878 118 214.446 118C214.158 118 213.95 117.744 213.95 117.408V109.648H215.23V113.232C216.238 113.04 216.606 112.544 216.606 111.184V109.648H217.902V110.896C217.902 112.928 217.198 114.016 215.23 114.288V116.688C217.95 116.656 219.278 115.232 219.278 112.48V109.648ZM232.991 119.968V119.328C233.775 119.008 234.031 118.448 234.031 118.08C233.615 117.888 233.343 117.488 233.343 116.976C233.343 116.32 233.839 115.792 234.527 115.792C235.055 115.792 235.711 116.096 235.711 117.136C235.711 118.48 234.511 119.824 232.991 119.968ZM244.544 118V110.992H240.032V109.648H245.136C245.584 109.648 245.936 110 245.936 110.448V118H244.544ZM240.128 118V113.264H241.504V118H240.128ZM252.977 118V111.872C252.977 111.36 252.609 110.992 252.097 110.992H248.673V109.648H252.609C253.617 109.648 254.369 110.4 254.369 111.424V118H252.977ZM260.049 114.864V113.92C260.449 113.36 260.961 112.704 260.961 111.504V110.976H258.017V109.648H262.241C262.321 110.016 262.337 110.352 262.337 110.832C262.337 112.864 261.745 114 260.849 114.864H260.049ZM270.658 109.648H272.018V110.288C272.002 111.008 271.986 111.824 271.938 112.544C271.682 116.384 270.258 117.776 266.37 118.272L265.746 118.352H265.538V117.024C265.922 116.992 266.274 116.96 266.626 116.896C266.914 116.848 267.186 116.8 267.442 116.736L266.226 110.304V109.648H267.538L268.77 116.304C269.906 115.76 270.402 114.832 270.546 112.912C270.626 111.856 270.642 110.528 270.658 109.648ZM280.45 110.784C280.45 112.608 280.034 113.296 278.53 113.936L280.37 116.704V118H274.53V116.672H278.802L274.61 110.608V109.648H275.682L277.954 113.056C278.834 112.688 279.074 112.304 279.074 111.296V109.648H280.45V110.784ZM296.388 118V110.992H291.876V109.648H296.98C297.428 109.648 297.78 110 297.78 110.448V118H296.388ZM291.972 118V113.264H293.348V118H291.972ZM304.82 118V111.872C304.82 111.36 304.452 110.992 303.94 110.992H300.516V109.648H304.452C305.46 109.648 306.212 110.4 306.212 111.424V118H304.82ZM313.861 109.648H315.221V110.288C315.205 111.008 315.189 111.824 315.141 112.544C314.885 116.384 313.461 117.776 309.573 118.272L308.949 118.352H308.741V117.024C309.125 116.992 309.477 116.96 309.829 116.896C310.117 116.848 310.389 116.8 310.645 116.736L309.429 110.304V109.648H310.741L311.973 116.304C313.109 115.76 313.605 114.832 313.749 112.912C313.829 111.856 313.845 110.528 313.861 109.648ZM318.262 118V116.672H321.43V110.992H319.43V109.648H322.806V117.2C322.806 117.648 322.486 118 322.022 118H318.262ZM338.087 118V110.992H335.719V109.648H339.463V118H338.087ZM349.783 110.672C349.783 112.64 349.335 113.44 347.735 114.192L349.559 117.056L349.543 118H348.503L345.751 113.696C345.207 114.272 344.967 115.04 344.967 116.192V118H343.591V116.512C343.591 114.656 344.071 113.488 345.127 112.72L343.783 110.608L343.799 109.648H344.823L347.143 113.28C348.135 112.784 348.407 112.32 348.407 111.2V109.648H349.783V110.672ZM54.4501 137V129.992H49.9381V128.648H55.0421C55.4901 128.648 55.8421 129 55.8421 129.448V137H54.4501ZM50.0341 137V132.264H51.4101V137H50.0341ZM58.3388 137V135.656H62.6748V129.992H58.6748V128.648H63.2508C63.7148 128.648 64.0508 129 64.0508 129.448V135.656H64.9788V137H58.3388ZM72.3874 128.648H73.6834V131.128C73.6834 135.064 71.9874 137 67.5554 137C67.2674 137 67.0594 136.744 67.0594 136.408V128.648H68.3394V132.232C69.3474 132.04 69.7154 131.544 69.7154 130.184V128.648H71.0114V129.896C71.0114 131.928 70.3074 133.016 68.3394 133.288V135.688C71.0594 135.656 72.3874 134.232 72.3874 131.48V128.648ZM83.9406 137V135.672H85.0286C84.8526 134.92 84.7566 134.12 84.7566 133.304C84.7566 132.12 84.9326 130.936 85.2206 129.992H84.1166V128.648H89.8446C90.2926 128.648 90.6446 129 90.6446 129.448V137H89.2526V129.992H86.6446C86.3566 130.904 86.1486 131.896 86.1486 133.112C86.1486 133.896 86.2446 134.776 86.4686 135.672V137H83.9406ZM96.1493 137V129.992H93.7812V128.648H97.5253V137H96.1493ZM107.846 129.672C107.846 131.64 107.398 132.44 105.798 133.192L107.622 136.056L107.606 137H106.566L103.814 132.696C103.27 133.272 103.03 134.04 103.03 135.192V137H101.654V135.512C101.654 133.656 102.134 132.488 103.19 131.72L101.846 129.608L101.862 128.648H102.886L105.206 132.28C106.198 131.784 106.47 131.32 106.47 130.2V128.648H107.846V129.672ZM113.159 133.864V132.92C113.559 132.36 114.071 131.704 114.071 130.504V129.976H111.127V128.648H115.351C115.431 129.016 115.447 129.352 115.447 129.832C115.447 131.864 114.855 133 113.959 133.864H113.159ZM124.919 129.784C124.919 131.608 124.503 132.296 122.999 132.936L124.839 135.704V137H118.999V135.672H123.271L119.079 129.608V128.648H120.151L122.423 132.056C123.303 131.688 123.543 131.304 123.543 130.296V128.648H124.919V129.784ZM131.816 128.584C133.016 128.584 133.848 129.416 133.848 130.648V137H130.616V135.672H132.472V130.984C132.472 130.376 132.04 129.928 131.48 129.928C131.384 129.928 131.304 129.928 131.048 129.976L129.448 130.264L128.648 137H127.336V136.344L128.072 130.168L127.304 129.88V128.6H127.928L129.144 129L131.304 128.632C131.48 128.6 131.656 128.584 131.816 128.584ZM149.289 137V130.872C149.289 130.36 148.921 129.992 148.409 129.992H144.985V128.648H148.921C149.929 128.648 150.681 129.4 150.681 130.424V137H149.289ZM159.69 129.672C159.69 131.64 159.242 132.44 157.642 133.192L159.466 136.056L159.45 137H158.41L155.658 132.696C155.114 133.272 154.874 134.04 154.874 135.192V137H153.498V135.512C153.498 133.656 153.978 132.488 155.034 131.72L153.69 129.608L153.706 128.648H154.73L157.05 132.28C158.042 131.784 158.314 131.32 158.314 130.2V128.648H159.69V129.672ZM161.706 137V135.672H162.794C162.618 134.92 162.522 134.12 162.522 133.304C162.522 132.12 162.698 130.936 162.986 129.992H161.882V128.648H167.61C168.058 128.648 168.41 129 168.41 129.448V137H167.018V129.992H164.41C164.122 130.904 163.914 131.896 163.914 133.112C163.914 133.896 164.01 134.776 164.234 135.672V137H161.706ZM175.019 128.584C176.219 128.584 177.051 129.416 177.051 130.648V137H173.819V135.672H175.675V130.984C175.675 130.376 175.243 129.928 174.683 129.928C174.587 129.928 174.507 129.928 174.251 129.976L172.651 130.264L171.851 137H170.539V136.344L171.275 130.168L170.507 129.88V128.6H171.131L172.347 129L174.507 128.632C174.683 128.6 174.859 128.584 175.019 128.584ZM194.252 129.672C194.252 131.64 193.804 132.44 192.204 133.192L194.028 136.056L194.012 137H192.972L190.22 132.696C189.676 133.272 189.436 134.04 189.436 135.192V137H188.06V135.512C188.06 133.656 188.54 132.488 189.596 131.72L188.252 129.608L188.268 128.648H189.292L191.612 132.28C192.604 131.784 192.876 131.32 192.876 130.2V128.648H194.252V129.672ZM199.837 137V129.992H197.469V128.648H201.213V137H199.837ZM209.981 137V129.992H205.469V128.648H210.573C211.021 128.648 211.373 129 211.373 129.448V137H209.981ZM205.565 137V132.264H206.941V137H205.565ZM225.711 137.144C225.039 137.144 224.543 136.632 224.543 135.96C224.543 135.32 225.039 134.792 225.711 134.792C226.367 134.792 226.879 135.32 226.879 135.96C226.879 136.632 226.367 137.144 225.711 137.144ZM235.903 137V129.992H231.391V128.648H236.495C236.943 128.648 237.295 129 237.295 129.448V137H235.903ZM231.487 137V132.264H232.863V137H231.487ZM240.496 137V135.672H243.664V129.992H241.664V128.648H245.04V136.2C245.04 136.648 244.72 137 244.256 137H240.496ZM251.681 137V129.992H249.312V128.648H253.057V137H251.681ZM259.153 137V135.848C261.265 133.912 261.889 132.872 261.889 131.24V129.992H257.281V126.648H258.673V128.648H262.481C262.929 128.648 263.281 129 263.281 129.448V131.112C263.281 133.4 262.193 135.16 259.969 137H259.153ZM265.394 137V135.672H266.482C266.306 134.92 266.21 134.12 266.21 133.304C266.21 132.12 266.386 130.936 266.674 129.992H265.57V128.648H271.298C271.746 128.648 272.098 129 272.098 129.448V137H270.706V129.992H268.098C267.81 130.904 267.602 131.896 267.602 133.112C267.602 133.896 267.698 134.776 267.922 135.672V137H265.394ZM285.075 137V135.848C287.187 133.912 287.811 132.872 287.811 131.24V129.992H283.203V126.648H284.595V128.648H288.403C288.851 128.648 289.203 129 289.203 129.448V131.112C289.203 133.4 288.115 135.16 285.891 137H285.075ZM297.044 128.648H298.34V131.128C298.34 135.064 296.644 137 292.212 137C291.924 137 291.716 136.744 291.716 136.408V128.648H292.996V132.232C294.004 132.04 294.372 131.544 294.372 130.184V128.648H295.668V129.896C295.668 131.928 294.964 133.016 292.996 133.288V135.688C295.716 135.656 297.044 134.232 297.044 131.48V128.648ZM312.581 138.664V129.976H310.293V128.648H313.957V138.664H312.581ZM320.806 137V129.992H318.438V128.648H322.182V137H320.806ZM327.238 137C326.79 137 326.438 136.648 326.438 136.2V128.648H327.798V135.64H328.278C330.31 135.64 331.366 134.392 331.366 132.008V130.984C331.366 130.376 330.934 129.928 330.374 129.928C330.182 129.928 329.958 129.96 329.302 130.104L329.094 128.824C329.814 128.68 330.342 128.6 330.646 128.6C331.942 128.6 332.79 129.448 332.774 130.728L332.758 131.64C332.694 135.304 331.126 137 327.606 137H327.238ZM334.839 137V135.656H339.175V129.992H335.175V128.648H339.751C340.215 128.648 340.551 129 340.551 129.448V135.656H341.479V137H334.839ZM346.727 137V129.992H344.359V128.648H348.103V137H346.727ZM51.5381 157.968V157.328C52.3221 157.008 52.5781 156.448 52.5781 156.08C52.1621 155.888 51.8901 155.488 51.8901 154.976C51.8901 154.32 52.3861 153.792 53.0741 153.792C53.6021 153.792 54.2581 154.096 54.2581 155.136C54.2581 156.48 53.0581 157.824 51.5381 157.968ZM63.0908 156V148.992H58.5788V147.648H63.6828C64.1308 147.648 64.4828 148 64.4828 148.448V156H63.0908ZM58.6748 156V151.264H60.0508V156H58.6748ZM71.5234 156V149.872C71.5234 149.36 71.1554 148.992 70.6434 148.992H67.2194V147.648H71.1554C72.1634 147.648 72.9154 148.4 72.9154 149.424V156H71.5234ZM78.596 152.864V151.92C78.996 151.36 79.508 150.704 79.508 149.504V148.976H76.564V147.648H80.788C80.868 148.016 80.884 148.352 80.884 148.832C80.884 150.864 80.292 152 79.396 152.864H78.596ZM84.5166 156V147.648H89.7166C90.1646 147.648 90.5166 148 90.5166 148.448V156H89.1406V148.992H85.8926V156H84.5166ZM92.9013 156V154.656H97.2373V148.992H93.2373V147.648H97.8133C98.2773 147.648 98.6133 148 98.6133 148.448V154.656H99.5413V156H92.9013ZM109.863 156V154.672H110.951C110.775 153.92 110.679 153.12 110.679 152.304C110.679 151.12 110.855 149.936 111.143 148.992H110.039V147.648H115.767C116.215 147.648 116.567 148 116.567 148.448V156H115.175V148.992H112.567C112.279 149.904 112.071 150.896 112.071 152.112C112.071 152.896 112.167 153.776 112.391 154.672V156H109.863ZM120.903 156V154.848C123.015 152.912 123.639 151.872 123.639 150.24V148.992H119.031V145.648H120.423V147.648H124.231C124.679 147.648 125.031 148 125.031 148.448V150.112C125.031 152.4 123.943 154.16 121.719 156H120.903ZM130.712 156V148.992H128.344V147.648H132.088V156H130.712ZM136.184 156V154.672H139.384C140.248 154.672 140.904 154.016 140.904 153.152V148.992H136.424V147.648H141.64C142.008 147.648 142.28 147.936 142.28 148.288V153.2C142.28 154.672 140.952 156 139.48 156H136.184ZM147.721 152.864V151.92C148.121 151.36 148.633 150.704 148.633 149.504V148.976H145.689V147.648H149.913C149.993 148.016 150.009 148.352 150.009 148.832C150.009 150.864 149.417 152 148.521 152.864H147.721ZM168.33 148.672C168.33 150.64 167.882 151.44 166.282 152.192L168.106 155.056L168.09 156H167.05L164.298 151.696C163.754 152.272 163.514 153.04 163.514 154.192V156H162.138V154.512C162.138 152.656 162.618 151.488 163.674 150.72L162.33 148.608L162.346 147.648H163.37L165.69 151.28C166.682 150.784 166.954 150.32 166.954 149.2V147.648H168.33V148.672ZM172.747 156V154.848C174.859 152.912 175.483 151.872 175.483 150.24V148.992H170.875V145.648H172.267V147.648H176.075C176.523 147.648 176.875 148 176.875 148.448V150.112C176.875 152.4 175.787 154.16 173.563 156H172.747ZM181.388 156V154.848C183.5 152.912 184.124 151.872 184.124 150.24V148.992H179.516V145.648H180.908V147.648H184.716C185.164 147.648 185.516 148 185.516 148.448V150.112C185.516 152.4 184.428 154.16 182.204 156H181.388ZM196.269 156V154.672H197.357C197.181 153.92 197.085 153.12 197.085 152.304C197.085 151.12 197.261 149.936 197.549 148.992H196.445V147.648H202.173C202.621 147.648 202.973 148 202.973 148.448V156H201.581V148.992H198.973C198.685 149.904 198.477 150.896 198.477 152.112C198.477 152.896 198.573 153.776 198.797 154.672V156H196.269ZM208.477 156V148.992H206.109V147.648H209.853V156H208.477ZM220.174 148.672C220.174 150.64 219.726 151.44 218.126 152.192L219.95 155.056L219.934 156H218.894L216.142 151.696C215.598 152.272 215.358 153.04 215.358 154.192V156H213.982V154.512C213.982 152.656 214.462 151.488 215.518 150.72L214.174 148.608L214.19 147.648H215.214L217.534 151.28C218.526 150.784 218.798 150.32 218.798 149.2V147.648H220.174V148.672ZM227.919 147.648H229.215V150.128C229.215 154.064 227.519 156 223.087 156C222.799 156 222.591 155.744 222.591 155.408V147.648H223.871V151.232C224.879 151.04 225.247 150.544 225.247 149.184V147.648H226.543V148.896C226.543 150.928 225.839 152.016 223.871 152.288V154.688C226.591 154.656 227.919 153.232 227.919 150.48V147.648ZM234.127 152.864V151.92C234.527 151.36 235.039 150.704 235.039 149.504V148.976H232.095V147.648H236.319C236.399 148.016 236.415 148.352 236.415 148.832C236.415 150.864 235.823 152 234.927 152.864H234.127ZM240.496 156V154.672H243.664V148.992H241.664V147.648H245.04V155.2C245.04 155.648 244.72 156 244.256 156H240.496ZM256.753 156V154.672H257.841C257.665 153.92 257.569 153.12 257.569 152.304C257.569 151.12 257.745 149.936 258.033 148.992H256.929V147.648H262.657C263.105 147.648 263.457 148 263.457 148.448V156H262.065V148.992H259.457C259.169 149.904 258.961 150.896 258.961 152.112C258.961 152.896 259.057 153.776 259.281 154.672V156H256.753ZM268.962 156V148.992H266.594V147.648H270.338V156H268.962ZM278.898 156V149.872C278.898 149.36 278.53 148.992 278.018 148.992H274.594V147.648H278.53C279.538 147.648 280.29 148.4 280.29 149.424V156H278.898ZM285.971 152.864V151.92C286.371 151.36 286.883 150.704 286.883 149.504V148.976H283.939V147.648H288.163C288.243 148.016 288.259 148.352 288.259 148.832C288.259 150.864 287.667 152 286.771 152.864H285.971ZM296.58 147.648H297.94V148.288C297.924 149.008 297.908 149.824 297.86 150.544C297.604 154.384 296.18 155.776 292.292 156.272L291.668 156.352H291.46V155.024C291.844 154.992 292.196 154.96 292.548 154.896C292.836 154.848 293.108 154.8 293.364 154.736L292.148 148.304V147.648H293.46L294.692 154.304C295.828 153.76 296.324 152.832 296.468 150.912C296.548 149.856 296.564 148.528 296.58 147.648ZM306.372 148.784C306.372 150.608 305.956 151.296 304.452 151.936L306.292 154.704V156H300.452V154.672H304.724L300.532 148.608V147.648H301.604L303.876 151.056C304.756 150.688 304.996 150.304 304.996 149.296V147.648H306.372V148.784ZM317.238 156V154.672H318.326C318.15 153.92 318.054 153.12 318.054 152.304C318.054 151.12 318.23 149.936 318.518 148.992H317.414V147.648H323.142C323.59 147.648 323.942 148 323.942 148.448V156H322.55V148.992H319.942C319.654 149.904 319.446 150.896 319.446 152.112C319.446 152.896 319.542 153.776 319.766 154.672V156H317.238ZM329.446 156V148.992H327.078V147.648H330.822V156H329.446ZM335.543 156V154.672H338.711V148.992H336.711V147.648H340.087V155.2C340.087 155.648 339.767 156 339.303 156H335.543ZM343.479 156V154.656H347.815V148.992H343.815V147.648H348.391C348.855 147.648 349.191 148 349.191 148.448V154.656H350.119V156H343.479ZM66.6594 175V173.672H67.7474C67.5714 172.92 67.4754 172.12 67.4754 171.304C67.4754 170.12 67.6514 168.936 67.9394 167.992H66.8354V166.648H72.5634C73.0114 166.648 73.3634 167 73.3634 167.448V175H71.9714V167.992H69.3634C69.0754 168.904 68.8674 169.896 68.8674 171.112C68.8674 171.896 68.9634 172.776 69.1874 173.672V175H66.6594ZM81.924 167.672C81.924 169.64 81.476 170.44 79.876 171.192L81.7 174.056L81.684 175H80.644L77.892 170.696C77.348 171.272 77.108 172.04 77.108 173.192V175H75.732V173.512C75.732 171.656 76.212 170.488 77.268 169.72L75.924 167.608L75.94 166.648H76.964L79.284 170.28C80.276 169.784 80.548 169.32 80.548 168.2V166.648H81.924V167.672ZM96.1493 175V167.992H93.7812V166.648H97.5253V175H96.1493ZM102.246 175V173.672H105.414V167.992H103.414V166.648H106.79V174.2C106.79 174.648 106.47 175 106.006 175H102.246ZM113.159 171.864V170.92C113.559 170.36 114.071 169.704 114.071 168.504V167.976H111.127V166.648H115.351C115.431 167.016 115.447 167.352 115.447 167.832C115.447 169.864 114.855 171 113.959 171.864H113.159ZM118.823 175V173.656H123.159V167.992H119.159V166.648H123.735C124.199 166.648 124.535 167 124.535 167.448V173.656H125.463V175H118.823ZM132.216 175V167.992H127.704V166.648H132.808C133.256 166.648 133.608 167 133.608 167.448V175H132.216ZM127.8 175V170.264H129.176V175H127.8ZM151.049 167.672C151.049 169.64 150.601 170.44 149.001 171.192L150.825 174.056L150.809 175H149.769L147.017 170.696C146.473 171.272 146.233 172.04 146.233 173.192V175H144.857V173.512C144.857 171.656 145.337 170.488 146.393 169.72L145.049 167.608L145.065 166.648H146.089L148.409 170.28C149.401 169.784 149.673 169.32 149.673 168.2V166.648H151.049V167.672ZM155.466 175V173.848C157.578 171.912 158.202 170.872 158.202 169.24V167.992H153.594V164.648H154.986V166.648H158.794C159.242 166.648 159.594 167 159.594 167.448V169.112C159.594 171.4 158.506 173.16 156.282 175H155.466ZM174.331 176.664V167.976H172.043V166.648H175.707V176.664H174.331ZM182.284 171.864V170.92C182.684 170.36 183.196 169.704 183.196 168.504V167.976H180.252V166.648H184.476C184.556 167.016 184.572 167.352 184.572 167.832C184.572 169.864 183.98 171 183.084 171.864H182.284ZM190.924 171.864V170.92C191.324 170.36 191.836 169.704 191.836 168.504V167.976H188.892V166.648H193.116C193.196 167.016 193.212 167.352 193.212 167.832C193.212 169.864 192.62 171 191.724 171.864H190.924ZM200.637 175V167.992H196.605V166.648H202.989V167.992H202.013V175H200.637ZM210.173 166.648H211.533V167.288C211.517 168.008 211.501 168.824 211.453 169.544C211.197 173.384 209.773 174.776 205.885 175.272L205.261 175.352H205.053V174.024C205.437 173.992 205.789 173.96 206.141 173.896C206.429 173.848 206.701 173.8 206.957 173.736L205.741 167.304V166.648H207.053L208.285 173.304C209.421 172.76 209.917 171.832 210.061 169.912C210.141 168.856 210.157 167.528 210.173 166.648ZM225.759 175V167.992H223.391V166.648H227.135V175H225.759ZM231.151 175V173.656H235.487V167.992H231.487V166.648H236.063C236.527 166.648 236.863 167 236.863 167.448V173.656H237.791V175H231.151ZM245.2 166.648H246.496V169.128C246.496 173.064 244.8 175 240.368 175C240.08 175 239.872 174.744 239.872 174.408V166.648H241.152V170.232C242.16 170.04 242.528 169.544 242.528 168.184V166.648H243.824V167.896C243.824 169.928 243.12 171.016 241.152 171.288V173.688C243.872 173.656 245.2 172.232 245.2 169.48V166.648ZM259.153 175V173.848C261.265 171.912 261.889 170.872 261.889 169.24V167.992H257.281V164.648H258.673V166.648H262.481C262.929 166.648 263.281 167 263.281 167.448V169.112C263.281 171.4 262.193 173.16 259.969 175H259.153ZM268.69 171.864V170.92C269.09 170.36 269.602 169.704 269.602 168.504V167.976H266.658V166.648H270.882C270.962 167.016 270.978 167.352 270.978 167.832C270.978 169.864 270.386 171 269.49 171.864H268.69ZM278.306 166.648L280.546 174.472V175H279.266L278.562 172.552L275.65 175H274.674V174.104L278.162 171.144L277.266 167.992H275.81V166.648H278.306ZM282.995 175V173.656H287.331V167.992H283.331V166.648H287.907C288.371 166.648 288.707 167 288.707 167.448V173.656H289.635V175H282.995ZM300.452 175V166.648H304.74C305.764 166.648 306.5 167.4 306.5 168.424V175H300.452ZM301.828 173.672H305.124V168.872C305.124 168.36 304.74 167.992 304.244 167.992H301.828V173.672ZM311.893 171.864V170.92C312.293 170.36 312.805 169.704 312.805 168.504V167.976H309.861V166.648H314.085C314.165 167.016 314.181 167.352 314.181 167.832C314.181 169.864 313.589 171 312.693 171.864H311.893ZM317.238 175V173.672H318.326C318.15 172.92 318.054 172.12 318.054 171.304C318.054 170.12 318.23 168.936 318.518 167.992H317.414V166.648H323.142C323.59 166.648 323.942 167 323.942 167.448V175H322.55V167.992H319.942C319.654 168.904 319.446 169.896 319.446 171.112C319.446 171.896 319.542 172.776 319.766 173.672V175H317.238ZM329.174 171.864V170.92C329.574 170.36 330.086 169.704 330.086 168.504V167.976H327.142V166.648H331.366C331.446 167.016 331.462 167.352 331.462 167.832C331.462 169.864 330.87 171 329.974 171.864H329.174ZM339.783 166.648H341.143V167.288C341.127 168.008 341.111 168.824 341.063 169.544C340.807 173.384 339.383 174.776 335.495 175.272L334.871 175.352H334.663V174.024C335.047 173.992 335.399 173.96 335.751 173.896C336.039 173.848 336.311 173.8 336.567 173.736L335.351 167.304V166.648H336.663L337.895 173.304C339.031 172.76 339.527 171.832 339.671 169.912C339.751 168.856 339.767 167.528 339.783 166.648ZM345.559 175V173.848C347.671 171.912 348.295 170.872 348.295 169.24V167.992H343.687V164.648H345.079V166.648H348.887C349.335 166.648 349.687 167 349.687 167.448V169.112C349.687 171.4 348.599 173.16 346.375 175H345.559ZM60.8508 194V186.992H59.0588V185.648H64.0188V186.992H62.2268V194H60.8508ZM73.2834 186.672C73.2834 188.64 72.8354 189.44 71.2354 190.192L73.0594 193.056L73.0434 194H72.0034L69.2514 189.696C68.7074 190.272 68.4674 191.04 68.4674 192.192V194H67.0914V192.512C67.0914 190.656 67.5714 189.488 68.6274 188.72L67.2834 186.608L67.2994 185.648H68.3234L70.6434 189.28C71.6354 188.784 71.9074 188.32 71.9074 187.2V185.648H73.2834V186.672ZM86.3406 194V192.848C88.4526 190.912 89.0766 189.872 89.0766 188.24V186.992H84.4686V183.648H85.8606V185.648H89.6686C90.1166 185.648 90.4686 186 90.4686 186.448V188.112C90.4686 190.4 89.3806 192.16 87.1566 194H86.3406ZM92.9013 194V192.656H97.2373V186.992H93.2373V185.648H97.8133C98.2773 185.648 98.6133 186 98.6133 186.448V192.656H99.5413V194H92.9013ZM104.79 194V186.992H102.422V185.648H106.166V194H104.79ZM113.463 193.872V192.784C114.775 191.2 115.287 190 115.287 188.32V186.992H110.263V185.648H115.879C116.327 185.648 116.679 185.984 116.679 186.432V188C116.679 190.128 116.119 191.952 114.423 193.872H113.463ZM110.407 195.664V189.072H111.783V195.664H110.407ZM123.175 185.584C124.375 185.584 125.207 186.416 125.207 187.648V194H121.975V192.672H123.831V187.984C123.831 187.376 123.399 186.928 122.839 186.928C122.743 186.928 122.663 186.928 122.407 186.976L120.807 187.264L120.007 194H118.695V193.344L119.431 187.168L118.663 186.88V185.6H119.287L120.503 186L122.663 185.632C122.839 185.6 123.015 185.584 123.175 185.584ZM140.856 194V186.992H136.344V185.648H141.448C141.896 185.648 142.248 186 142.248 186.448V194H140.856ZM136.44 194V189.264H137.816V194H136.44ZM147.721 190.864V189.92C148.121 189.36 148.633 188.704 148.633 187.504V186.976H145.689V185.648H149.913C149.993 186.016 150.009 186.352 150.009 186.832C150.009 188.864 149.417 190 148.521 190.864H147.721ZM158.138 194V186.992H153.626V185.648H158.73C159.178 185.648 159.53 186 159.53 186.448V194H158.138ZM153.722 194V189.264H155.098V194H153.722ZM175.419 194V186.992H170.907V185.648H176.011C176.459 185.648 176.811 186 176.811 186.448V194H175.419ZM171.003 194V189.264H172.379V194H171.003ZM181.82 194V186.992H180.028V185.648H184.988V186.992H183.196V194H181.82ZM201.133 194V187.872C201.133 187.36 200.765 186.992 200.253 186.992H196.829V185.648H200.765C201.773 185.648 202.525 186.4 202.525 187.424V194H201.133ZM205.229 194V192.656H209.565V186.992H205.565V185.648H210.141C210.605 185.648 210.941 186 210.941 186.448V192.656H211.869V194H205.229ZM217.918 194V186.992H213.886V185.648H220.27V186.992H219.294V194H217.918ZM232.991 195.968V195.328C233.775 195.008 234.031 194.448 234.031 194.08C233.615 193.888 233.343 193.488 233.343 192.976C233.343 192.32 233.839 191.792 234.527 191.792C235.055 191.792 235.711 192.096 235.711 193.136C235.711 194.48 234.511 195.824 232.991 195.968ZM239.968 194V185.648H244.256C245.28 185.648 246.016 186.4 246.016 187.424V194H239.968ZM241.344 192.672H244.64V187.872C244.64 187.36 244.256 186.992 243.76 186.992H241.344V192.672ZM251.409 190.864V189.92C251.809 189.36 252.321 188.704 252.321 187.504V186.976H249.377V185.648H253.601C253.681 186.016 253.697 186.352 253.697 186.832C253.697 188.864 253.105 190 252.209 190.864H251.409ZM261.617 194V187.872C261.617 187.36 261.249 186.992 260.737 186.992H257.313V185.648H261.249C262.257 185.648 263.009 186.4 263.009 187.424V194H261.617ZM265.714 194V192.656H270.05V186.992H266.05V185.648H270.626C271.09 185.648 271.426 186 271.426 186.448V192.656H272.354V194H265.714ZM278.402 194V186.992H274.37V185.648H280.754V186.992H279.778V194H278.402ZM287.747 194V186.992H283.235V185.648H288.339C288.787 185.648 289.139 186 289.139 186.448V194H287.747ZM283.331 194V189.264H284.707V194H283.331ZM299.956 194V192.672H301.044C300.868 191.92 300.772 191.12 300.772 190.304C300.772 189.12 300.948 187.936 301.236 186.992H300.132V185.648H305.86C306.308 185.648 306.66 186 306.66 186.448V194H305.268V186.992H302.66C302.372 187.904 302.164 188.896 302.164 190.112C302.164 190.896 302.26 191.776 302.484 192.672V194H299.956ZM312.165 194V186.992H309.797V185.648H313.541V194H312.165ZM322.502 185.648H323.862V186.288C323.846 187.008 323.83 187.824 323.782 188.544C323.526 192.384 322.102 193.776 318.214 194.272L317.59 194.352H317.382V193.024C317.766 192.992 318.118 192.96 318.47 192.896C318.758 192.848 319.03 192.8 319.286 192.736L318.07 186.304V185.648H319.382L320.614 192.304C321.75 191.76 322.246 190.832 322.39 188.912C322.47 187.856 322.486 186.528 322.502 185.648ZM330.55 185.584C331.75 185.584 332.582 186.416 332.582 187.648V194H329.35V192.672H331.206V187.984C331.206 187.376 330.774 186.928 330.214 186.928C330.118 186.928 330.038 186.928 329.782 186.976L328.182 187.264L327.382 194H326.07V193.344L326.806 187.168L326.038 186.88V185.6H326.662L327.878 186L330.038 185.632C330.214 185.6 330.39 185.584 330.55 185.584ZM340.247 185.648H341.543V188.128C341.543 192.064 339.847 194 335.415 194C335.127 194 334.919 193.744 334.919 193.408V185.648H336.199V189.232C337.207 189.04 337.575 188.544 337.575 187.184V185.648H338.871V186.896C338.871 188.928 338.167 190.016 336.199 190.288V192.688C338.919 192.656 340.247 191.232 340.247 188.48V185.648ZM347.831 185.584C349.031 185.584 349.863 186.416 349.863 187.648V194H346.631V192.672H348.487V187.984C348.487 187.376 348.055 186.928 347.495 186.928C347.399 186.928 347.319 186.928 347.063 186.976L345.463 187.264L344.663 194H343.351V193.344L344.087 187.168L343.319 186.88V185.6H343.943L345.159 186L347.319 185.632C347.495 185.6 347.671 185.584 347.831 185.584ZM52.9461 213V205.992H50.5781V204.648H54.3221V213H52.9461ZM58.1788 213V211.672H63.2348L63.0588 206.872C63.0428 206.36 62.6748 205.992 62.1788 205.992H60.3868L60.1148 207.864C60.0988 207.944 60.1468 208.024 60.2268 208.072L61.0748 208.504V209.592H60.1948L59.0908 209.032C58.7708 208.872 58.6588 208.552 58.7068 208.2L59.2348 204.648H62.6428C63.6668 204.648 64.3708 205.4 64.4028 206.424L64.6588 213H58.1788ZM68.0194 213C67.5714 213 67.2194 212.648 67.2194 212.2V204.648H68.5794V211.64H69.0594C71.0914 211.64 72.1474 210.392 72.1474 208.008V206.984C72.1474 206.376 71.7154 205.928 71.1554 205.928C70.9634 205.928 70.7394 205.96 70.0834 206.104L69.8754 204.824C70.5954 204.68 71.1234 204.6 71.4274 204.6C72.7234 204.6 73.5714 205.448 73.5554 206.728L73.5394 207.64C73.4754 211.304 71.9074 213 68.3874 213H68.0194ZM75.876 213V204.648H81.076C81.524 204.648 81.876 205 81.876 205.448V213H80.5V205.992H77.252V213H75.876ZM87.2366 209.864V208.92C87.6366 208.36 88.1486 207.704 88.1486 206.504V205.976H85.2046V204.648H89.4286C89.5086 205.016 89.5246 205.352 89.5246 205.832C89.5246 207.864 88.9326 209 88.0366 209.864H87.2366ZM101.718 213V204.648H106.006C107.03 204.648 107.766 205.4 107.766 206.424V213H101.718ZM103.094 211.672H106.39V206.872C106.39 206.36 106.006 205.992 105.51 205.992H103.094V211.672ZM113.159 209.864V208.92C113.559 208.36 114.071 207.704 114.071 206.504V205.976H111.127V204.648H115.351C115.431 205.016 115.447 205.352 115.447 205.832C115.447 207.864 114.855 209 113.959 209.864H113.159ZM118.823 213V211.656H123.159V205.992H119.159V204.648H123.735C124.199 204.648 124.535 205 124.535 205.448V211.656H125.463V213H118.823ZM132.008 213V206.872C132.008 206.36 131.64 205.992 131.128 205.992H127.704V204.648H131.64C132.648 204.648 133.4 205.4 133.4 206.424V213H132.008ZM141.048 204.648H142.408V205.288C142.392 206.008 142.376 206.824 142.328 207.544C142.072 211.384 140.648 212.776 136.76 213.272L136.136 213.352H135.928V212.024C136.312 211.992 136.664 211.96 137.016 211.896C137.304 211.848 137.576 211.8 137.832 211.736L136.616 205.304V204.648H137.928L139.16 211.304C140.296 210.76 140.792 209.832 140.936 207.912C141.016 206.856 141.032 205.528 141.048 204.648ZM149.497 213V205.992H144.985V204.648H150.089C150.537 204.648 150.889 205 150.889 205.448V213H149.497ZM145.081 213V208.264H146.457V213H145.081ZM158.794 204.648H160.09V207.128C160.09 211.064 158.394 213 153.962 213C153.674 213 153.466 212.744 153.466 212.408V204.648H154.746V208.232C155.754 208.04 156.122 207.544 156.122 206.184V204.648H157.418V205.896C157.418 207.928 156.714 209.016 154.746 209.288V211.688C157.466 211.656 158.794 210.232 158.794 207.48V204.648ZM173.915 213V205.992H171.547V204.648H175.291V213H173.915ZM184.716 204.648H186.012V207.128C186.012 211.064 184.316 213 179.884 213C179.596 213 179.388 212.744 179.388 212.408V204.648H180.668V208.232C181.676 208.04 182.044 207.544 182.044 206.184V204.648H183.34V205.896C183.34 207.928 182.636 209.016 180.668 209.288V211.688C183.388 211.656 184.716 210.232 184.716 207.48V204.648ZM193.356 204.648H194.652V207.128C194.652 211.064 192.956 213 188.524 213C188.236 213 188.028 212.744 188.028 212.408V204.648H189.308V208.232C190.316 208.04 190.684 207.544 190.684 206.184V204.648H191.98V205.896C191.98 207.928 191.276 209.016 189.308 209.288V211.688C192.028 211.656 193.356 210.232 193.356 207.48V204.648ZM196.845 213V204.648H202.045C202.493 204.648 202.845 205 202.845 205.448V213H201.469V205.992H198.221V213H196.845ZM214.046 213V204.648H218.334C219.358 204.648 220.094 205.4 220.094 206.424V213H214.046ZM215.422 211.672H218.718V206.872C218.718 206.36 218.334 205.992 217.838 205.992H215.422V211.672ZM225.487 209.864V208.92C225.887 208.36 226.399 207.704 226.399 206.504V205.976H223.455V204.648H227.679C227.759 205.016 227.775 205.352 227.775 205.832C227.775 207.864 227.183 209 226.287 209.864H225.487ZM235.199 213V205.992H231.167V204.648H237.551V205.992H236.575V213H235.199ZM243.04 213V205.992H240.672V204.648H244.416V213H243.04ZM253.185 213V205.992H248.673V204.648H253.777C254.225 204.648 254.577 205 254.577 205.448V213H253.185ZM248.769 213V208.264H250.145V213H248.769ZM260.049 209.864V208.92C260.449 208.36 260.961 207.704 260.961 206.504V205.976H258.017V204.648H262.241C262.321 205.016 262.337 205.352 262.337 205.832C262.337 207.864 261.745 209 260.849 209.864H260.049ZM270.466 213V205.992H265.954V204.648H271.058C271.506 204.648 271.858 205 271.858 205.448V213H270.466ZM266.05 213V208.264H267.426V213H266.05ZM285.971 209.864V208.92C286.371 208.36 286.883 207.704 286.883 206.504V205.976H283.939V204.648H288.163C288.243 205.016 288.259 205.352 288.259 205.832C288.259 207.864 287.667 209 286.771 209.864H285.971ZM291.716 213V211.672H294.916C295.78 211.672 296.436 211.016 296.436 210.152V205.992H291.956V204.648H297.172C297.54 204.648 297.812 204.936 297.812 205.288V210.2C297.812 211.672 296.484 213 295.012 213H291.716ZM312.581 214.664V205.976H310.293V204.648H313.957V214.664H312.581ZM321.91 204.584C323.11 204.584 323.942 205.416 323.942 206.648V213H320.71V211.672H322.566V206.984C322.566 206.376 322.134 205.928 321.574 205.928C321.478 205.928 321.398 205.928 321.141 205.976L319.542 206.264L318.742 213H317.43V212.344L318.166 206.168L317.398 205.88V204.6H318.022L319.238 205L321.398 204.632C321.574 204.6 321.75 204.584 321.91 204.584ZM329.174 209.864V208.92C329.574 208.36 330.086 207.704 330.086 206.504V205.976H327.142V204.648H331.366C331.446 205.016 331.462 205.352 331.462 205.832C331.462 207.864 330.87 209 329.974 209.864H329.174ZM334.519 213V211.672H335.607C335.431 210.92 335.335 210.12 335.335 209.304C335.335 208.12 335.511 206.936 335.799 205.992H334.695V204.648H340.423C340.871 204.648 341.223 205 341.223 205.448V213H339.831V205.992H337.223C336.935 206.904 336.727 207.896 336.727 209.112C336.727 209.896 336.823 210.776 337.047 211.672V213H334.519ZM343.479 213V211.656H347.815V205.992H343.815V204.648H348.391C348.855 204.648 349.191 205 349.191 205.448V211.656H350.119V213H343.479ZM234.351 232.144C233.679 232.144 233.183 231.632 233.183 230.96C233.183 230.32 233.679 229.792 234.351 229.792C235.007 229.792 235.519 230.32 235.519 230.96C235.519 231.632 235.007 232.144 234.351 232.144ZM239.968 232V223.648H244.256C245.28 223.648 246.016 224.4 246.016 225.424V232H239.968ZM241.344 230.672H244.64V225.872C244.64 225.36 244.256 224.992 243.76 224.992H241.344V230.672ZM253.185 232V224.992H248.673V223.648H253.777C254.225 223.648 254.577 224 254.577 224.448V232H253.185ZM248.769 232V227.264H250.145V232H248.769ZM259.153 232V230.848C261.265 228.912 261.889 227.872 261.889 226.24V224.992H257.281V221.648H258.673V223.648H262.481C262.929 223.648 263.281 224 263.281 224.448V226.112C263.281 228.4 262.193 230.16 259.969 232H259.153ZM271.122 223.648H272.418V226.128C272.418 230.064 270.722 232 266.29 232C266.002 232 265.794 231.744 265.794 231.408V223.648H267.074V227.232C268.082 227.04 268.45 226.544 268.45 225.184V223.648H269.746V224.896C269.746 226.928 269.042 228.016 267.074 228.288V230.688C269.794 230.656 271.122 229.232 271.122 226.48V223.648ZM282.675 232V230.672H283.763C283.587 229.92 283.491 229.12 283.491 228.304C283.491 227.12 283.667 225.936 283.955 224.992H282.851V223.648H288.579C289.027 223.648 289.379 224 289.379 224.448V232H287.987V224.992H285.379C285.091 225.904 284.883 226.896 284.883 228.112C284.883 228.896 284.979 229.776 285.203 230.672V232H282.675ZM294.884 232V224.992H292.516V223.648H296.26V232H294.884ZM300.98 232V230.672H304.148V224.992H302.148V223.648H305.524V231.2C305.524 231.648 305.204 232 304.74 232H300.98ZM308.917 232V230.656H313.253V224.992H309.253V223.648H313.829C314.293 223.648 314.629 224 314.629 224.448V230.656H315.557V232H308.917ZM322.31 232V224.992H317.798V223.648H322.902C323.35 223.648 323.702 224 323.702 224.448V232H322.31ZM317.894 232V227.264H319.27V232H317.894ZM334.519 232V230.672H335.607C335.431 229.92 335.335 229.12 335.335 228.304C335.335 227.12 335.511 225.936 335.799 224.992H334.695V223.648H340.423C340.871 223.648 341.223 224 341.223 224.448V232H339.831V224.992H337.223C336.935 225.904 336.727 226.896 336.727 228.112C336.727 228.896 336.823 229.776 337.047 230.672V232H334.519ZM349.783 224.672C349.783 226.64 349.335 227.44 347.735 228.192L349.559 231.056L349.543 232H348.503L345.751 227.696C345.207 228.272 344.967 229.04 344.967 230.192V232H343.591V230.512C343.591 228.656 344.071 227.488 345.127 226.72L343.783 224.608L343.799 223.648H344.823L347.143 227.28C348.135 226.784 348.407 226.32 348.407 225.2V223.648H349.783V224.672ZM88.8046 289V282.872C88.8046 282.36 88.4366 281.992 87.9246 281.992H84.5006V280.648H88.4366C89.4446 280.648 90.1966 281.4 90.1966 282.424V289H88.8046ZM95.8773 285.864V284.92C96.2773 284.36 96.7893 283.704 96.7893 282.504V281.976H93.8453V280.648H98.0693C98.1493 281.016 98.1653 281.352 98.1653 281.832C98.1653 283.864 97.5733 285 96.6773 285.864H95.8773ZM106.95 280.648H108.246V283.128C108.246 287.064 106.55 289 102.118 289C101.83 289 101.622 288.744 101.622 288.408V280.648H102.902V284.232C103.91 284.04 104.278 283.544 104.278 282.184V280.648H105.574V281.896C105.574 283.928 104.87 285.016 102.902 285.288V287.688C105.622 287.656 106.95 286.232 106.95 283.48V280.648ZM114.935 289V281.992H110.423V280.648H115.527C115.975 280.648 116.327 281 116.327 281.448V289H114.935ZM110.519 289V284.264H111.895V289H110.519ZM129.304 290.968V290.328C130.088 290.008 130.344 289.448 130.344 289.08C129.928 288.888 129.656 288.488 129.656 287.976C129.656 287.32 130.152 286.792 130.84 286.792C131.368 286.792 132.024 287.096 132.024 288.136C132.024 289.48 130.824 290.824 129.304 290.968ZM135.784 289V287.672H136.872C136.696 286.92 136.6 286.12 136.6 285.304C136.6 284.12 136.776 282.936 137.064 281.992H135.96V280.648H141.688C142.136 280.648 142.488 281 142.488 281.448V289H141.096V281.992H138.488C138.2 282.904 137.992 283.896 137.992 285.112C137.992 285.896 138.088 286.776 138.312 287.672V289H135.784ZM147.993 289V281.992H145.625V280.648H149.369V289H147.993ZM156.666 288.872V287.784C157.978 286.2 158.49 285 158.49 283.32V281.992H153.466V280.648H159.082C159.53 280.648 159.882 280.984 159.882 281.432V283C159.882 285.128 159.322 286.952 157.626 288.872H156.666ZM153.61 290.664V284.072H154.986V290.664H153.61ZM164.538 289V281.992H162.746V280.648H167.706V281.992H165.914V289H164.538ZM170.923 289V280.648H176.123C176.571 280.648 176.923 281 176.923 281.448V289H175.547V281.992H172.299V289H170.923ZM191.884 290.664V281.976H188.092V280.648H194.204V281.976H193.26V290.664H191.884ZM202.893 281.672C202.893 283.64 202.445 284.44 200.845 285.192L202.669 288.056L202.653 289H201.613L198.861 284.696C198.317 285.272 198.077 286.04 198.077 287.192V289H196.701V287.512C196.701 285.656 197.181 284.488 198.237 283.72L196.893 281.608L196.909 280.648H197.933L200.253 284.28C201.245 283.784 201.517 283.32 201.517 282.2V280.648H202.893V281.672ZM213.55 289V287.672H214.638C214.462 286.92 214.366 286.12 214.366 285.304C214.366 284.12 214.542 282.936 214.83 281.992H213.726V280.648H219.454C219.902 280.648 220.254 281 220.254 281.448V289H218.862V281.992H216.254C215.966 282.904 215.758 283.896 215.758 285.112C215.758 285.896 215.854 286.776 216.078 287.672V289H213.55ZM225.759 289V281.992H223.391V280.648H227.135V289H225.759ZM232.191 289C231.743 289 231.391 288.648 231.391 288.2V280.648H232.751V287.64H233.231C235.263 287.64 236.319 286.392 236.319 284.008V282.984C236.319 282.376 235.887 281.928 235.327 281.928C235.135 281.928 234.911 281.96 234.255 282.104L234.047 280.824C234.767 280.68 235.295 280.6 235.599 280.6C236.895 280.6 237.743 281.448 237.727 282.728L237.711 283.64C237.647 287.304 236.079 289 232.559 289H232.191ZM243.04 289V281.992H240.672V280.648H244.416V289H243.04ZM253.841 280.648H255.137V283.128C255.137 287.064 253.441 289 249.009 289C248.721 289 248.513 288.744 248.513 288.408V280.648H249.793V284.232C250.801 284.04 251.169 283.544 251.169 282.184V280.648H252.465V281.896C252.465 283.928 251.761 285.016 249.793 285.288V287.688C252.513 287.656 253.841 286.232 253.841 283.48V280.648ZM256.913 289V287.672H261.969L261.793 282.872C261.777 282.36 261.409 281.992 260.913 281.992H259.121L258.849 283.864C258.833 283.944 258.881 284.024 258.961 284.072L259.809 284.504V285.592H258.929L257.825 285.032C257.505 284.872 257.393 284.552 257.441 284.2L257.969 280.648H261.377C262.401 280.648 263.105 281.4 263.137 282.424L263.393 289H256.913ZM274.53 289V280.648H278.818C279.842 280.648 280.578 281.4 280.578 282.424V289H274.53ZM275.906 287.672H279.202V282.872C279.202 282.36 278.818 281.992 278.322 281.992H275.906V287.672ZM285.971 285.864V284.92C286.371 284.36 286.883 283.704 286.883 282.504V281.976H283.939V280.648H288.163C288.243 281.016 288.259 281.352 288.259 281.832C288.259 283.864 287.667 285 286.771 285.864H285.971ZM293.716 289V287.848C295.828 285.912 296.452 284.872 296.452 283.24V281.992H291.844V278.648H293.236V280.648H297.044C297.492 280.648 297.844 281 297.844 281.448V283.112C297.844 285.4 296.756 287.16 294.532 289H293.716ZM303.252 285.864V284.92C303.652 284.36 304.164 283.704 304.164 282.504V281.976H301.22V280.648H305.444C305.524 281.016 305.54 281.352 305.54 281.832C305.54 283.864 304.948 285 304.052 285.864H303.252ZM313.269 280.584C314.469 280.584 315.301 281.416 315.301 282.648V289H312.069V287.672H313.925V282.984C313.925 282.376 313.493 281.928 312.933 281.928C312.837 281.928 312.757 281.928 312.501 281.976L310.901 282.264L310.101 289H308.789V288.344L309.525 282.168L308.757 281.88V280.6H309.381L310.597 281L312.757 280.632C312.933 280.6 313.109 280.584 313.269 280.584ZM330.134 290.664V281.976H326.342V280.648H332.454V281.976H331.51V290.664H330.134ZM339.383 289V282.872C339.383 282.36 339.015 281.992 338.503 281.992H335.079V280.648H339.015C340.023 280.648 340.775 281.4 340.775 282.424V289H339.383ZM347.527 289V281.992H343.495V280.648H349.879V281.992H348.903V289H347.527ZM51.7781 308V306.848C53.8901 304.912 54.5141 303.872 54.5141 302.24V300.992H49.9061V297.648H51.2981V299.648H55.1061C55.5541 299.648 55.9061 300 55.9061 300.448V302.112C55.9061 304.4 54.8181 306.16 52.5941 308H51.7781ZM63.7468 299.648H65.0428V302.128C65.0428 306.064 63.3468 308 58.9148 308C58.6268 308 58.4188 307.744 58.4188 307.408V299.648H59.6988V303.232C60.7068 303.04 61.0748 302.544 61.0748 301.184V299.648H62.3708V300.896C62.3708 302.928 61.6668 304.016 59.6988 304.288V306.688C62.4188 306.656 63.7468 305.232 63.7468 302.48V299.648ZM79.284 309.664V300.976H76.996V299.648H80.66V309.664H79.284ZM88.3086 308V300.992H84.2766V299.648H90.6606V300.992H89.6846V308H88.3086ZM92.9013 308V306.656H97.2373V300.992H93.2373V299.648H97.8133C98.2773 299.648 98.6133 300 98.6133 300.448V306.656H99.5413V308H92.9013ZM104.79 308V300.992H102.422V299.648H106.166V308H104.79ZM116.487 300.672C116.487 302.64 116.039 303.44 114.439 304.192L116.263 307.056L116.247 308H115.207L112.455 303.696C111.911 304.272 111.671 305.04 111.671 306.192V308H110.295V306.512C110.295 304.656 110.775 303.488 111.831 302.72L110.487 300.608L110.503 299.648H111.527L113.847 303.28C114.839 302.784 115.111 302.32 115.111 301.2V299.648H116.487V300.672ZM122.071 308V300.992H119.703V299.648H123.447V308H122.071ZM136.104 308V306.656H140.44V300.992H136.44V299.648H141.016C141.48 299.648 141.816 300 141.816 300.448V306.656H142.744V308H136.104ZM151.049 300.672C151.049 302.64 150.601 303.44 149.001 304.192L150.825 307.056L150.809 308H149.769L147.017 303.696C146.473 304.272 146.233 305.04 146.233 306.192V308H144.857V306.512C144.857 304.656 145.337 303.488 146.393 302.72L145.049 300.608L145.065 299.648H146.089L148.409 303.28C149.401 302.784 149.673 302.32 149.673 301.2V299.648H151.049V300.672ZM153.466 308V306.672H156.666C157.53 306.672 158.186 306.016 158.186 305.152V300.992H153.706V299.648H158.922C159.29 299.648 159.562 299.936 159.562 300.288V305.2C159.562 306.672 158.234 308 156.762 308H153.466ZM172.507 309.968V309.328C173.291 309.008 173.547 308.448 173.547 308.08C173.131 307.888 172.859 307.488 172.859 306.976C172.859 306.32 173.355 305.792 174.043 305.792C174.571 305.792 175.227 306.096 175.227 307.136C175.227 308.48 174.027 309.824 172.507 309.968ZM181.388 308V306.848C183.5 304.912 184.124 303.872 184.124 302.24V300.992H179.516V297.648H180.908V299.648H184.716C185.164 299.648 185.516 300 185.516 300.448V302.112C185.516 304.4 184.428 306.16 182.204 308H181.388ZM191.196 308V300.992H188.828V299.648H192.572V308H191.196ZM196.589 308V306.656H200.925V300.992H196.925V299.648H201.501C201.965 299.648 202.301 300 202.301 300.448V306.656H203.229V308H196.589ZM207.309 308V306.848C209.421 304.912 210.045 303.872 210.045 302.24V300.992H205.437V297.648H206.829V299.648H210.637C211.085 299.648 211.437 300 211.437 300.448V302.112C211.437 304.4 210.349 306.16 208.125 308H207.309ZM213.87 308V306.656H218.206V300.992H214.206V299.648H218.782C219.246 299.648 219.582 300 219.582 300.448V306.656H220.51V308H213.87ZM233.231 308V306.848C235.343 304.912 235.967 303.872 235.967 302.24V300.992H231.359V297.648H232.751V299.648H236.559C237.007 299.648 237.359 300 237.359 300.448V302.112C237.359 304.4 236.271 306.16 234.047 308H233.231ZM245.2 299.648H246.496V302.128C246.496 306.064 244.8 308 240.368 308C240.08 308 239.872 307.744 239.872 307.408V299.648H241.152V303.232C242.16 303.04 242.528 302.544 242.528 301.184V299.648H243.824V300.896C243.824 302.928 243.12 304.016 241.152 304.288V306.688C243.872 306.656 245.2 305.232 245.2 302.48V299.648ZM256.753 308V306.672H257.841C257.665 305.92 257.569 305.12 257.569 304.304C257.569 303.12 257.745 301.936 258.033 300.992H256.929V299.648H262.657C263.105 299.648 263.457 300 263.457 300.448V308H262.065V300.992H259.457C259.169 301.904 258.961 302.896 258.961 304.112C258.961 304.896 259.057 305.776 259.281 306.672V308H256.753ZM268.962 308V300.992H266.594V299.648H270.338V308H268.962ZM279.762 299.648H281.058V302.128C281.058 306.064 279.362 308 274.93 308C274.642 308 274.434 307.744 274.434 307.408V299.648H275.714V303.232C276.722 303.04 277.09 302.544 277.09 301.184V299.648H278.386V300.896C278.386 302.928 277.682 304.016 275.714 304.288V306.688C278.434 306.656 279.762 305.232 279.762 302.48V299.648ZM286.243 308V300.992H283.875V299.648H287.619V308H286.243ZM291.892 308V299.648H297.092C297.54 299.648 297.892 300 297.892 300.448V308H296.516V300.992H293.268V308H291.892ZM299.956 308V306.672H301.044C300.868 305.92 300.772 305.12 300.772 304.304C300.772 303.12 300.948 301.936 301.236 300.992H300.132V299.648H305.86C306.308 299.648 306.66 300 306.66 300.448V308H305.268V300.992H302.66C302.372 301.904 302.164 302.896 302.164 304.112C302.164 304.896 302.26 305.776 302.484 306.672V308H299.956ZM323.862 300.672C323.862 302.64 323.414 303.44 321.814 304.192L323.638 307.056L323.622 308H322.582L319.83 303.696C319.286 304.272 319.046 305.04 319.046 306.192V308H317.67V306.512C317.67 304.656 318.15 303.488 319.206 302.72L317.862 300.608L317.878 299.648H318.902L321.222 303.28C322.214 302.784 322.486 302.32 322.486 301.2V299.648H323.862V300.672ZM327.238 308C326.79 308 326.438 307.648 326.438 307.2V299.648H327.798V306.64H328.278C330.31 306.64 331.366 305.392 331.366 303.008V301.984C331.366 301.376 330.934 300.928 330.374 300.928C330.182 300.928 329.958 300.96 329.302 301.104L329.094 299.824C329.814 299.68 330.342 299.6 330.646 299.6C331.942 299.6 332.79 300.448 332.774 301.728L332.758 302.64C332.694 306.304 331.126 308 327.606 308H327.238ZM334.839 308V306.656H339.175V300.992H335.175V299.648H339.751C340.215 299.648 340.551 300 340.551 300.448V306.656H341.479V308H334.839ZM347.831 299.584C349.031 299.584 349.863 300.416 349.863 301.648V308H346.631V306.672H348.487V301.984C348.487 301.376 348.055 300.928 347.495 300.928C347.399 300.928 347.319 300.928 347.063 300.976L345.463 301.264L344.663 308H343.351V307.344L344.087 301.168L343.319 300.88V299.6H343.943L345.159 300L347.319 299.632C347.495 299.6 347.671 299.584 347.831 299.584ZM73.2834 319.672C73.2834 321.64 72.8354 322.44 71.2354 323.192L73.0594 326.056L73.0434 327H72.0034L69.2514 322.696C68.7074 323.272 68.4674 324.04 68.4674 325.192V327H67.0914V325.512C67.0914 323.656 67.5714 322.488 68.6274 321.72L67.2834 319.608L67.2994 318.648H68.3234L70.6434 322.28C71.6354 321.784 71.9074 321.32 71.9074 320.2V318.648H73.2834V319.672ZM77.7 327V325.848C79.812 323.912 80.436 322.872 80.436 321.24V319.992H75.828V316.648H77.22V318.648H81.028C81.476 318.648 81.828 319 81.828 319.448V321.112C81.828 323.4 80.74 325.16 78.516 327H77.7ZM92.5813 327V325.672H93.6693C93.4933 324.92 93.3973 324.12 93.3973 323.304C93.3973 322.12 93.5733 320.936 93.8613 319.992H92.7573V318.648H98.4853C98.9333 318.648 99.2853 319 99.2853 319.448V327H97.8933V319.992H95.2853C94.9973 320.904 94.7893 321.896 94.7893 323.112C94.7893 323.896 94.8853 324.776 95.1093 325.672V327H92.5813ZM104.79 327V319.992H102.422V318.648H106.166V327H104.79ZM114.727 327V320.872C114.727 320.36 114.359 319.992 113.847 319.992H110.423V318.648H114.359C115.367 318.648 116.119 319.4 116.119 320.424V327H114.727ZM121.799 323.864V322.92C122.199 322.36 122.711 321.704 122.711 320.504V319.976H119.767V318.648H123.991C124.071 319.016 124.087 319.352 124.087 319.832C124.087 321.864 123.495 323 122.599 323.864H121.799ZM127.72 327V318.648H132.92C133.368 318.648 133.72 319 133.72 319.448V327H132.344V319.992H129.096V327H127.72ZM136.104 327V325.656H140.44V319.992H136.44V318.648H141.016C141.48 318.648 141.816 319 141.816 319.448V325.656H142.744V327H136.104ZM149.497 327V319.992H144.985V318.648H150.089C150.537 318.648 150.889 319 150.889 319.448V327H149.497ZM145.081 327V322.264H146.457V327H145.081ZM166.778 327V319.992H162.266V318.648H167.37C167.818 318.648 168.17 319 168.17 319.448V327H166.778ZM162.362 327V322.264H163.738V327H162.362ZM170.667 327V325.656H175.003V319.992H171.003V318.648H175.579C176.043 318.648 176.379 319 176.379 319.448V325.656H177.307V327H170.667ZM184.716 318.648H186.012V321.128C186.012 325.064 184.316 327 179.884 327C179.596 327 179.388 326.744 179.388 326.408V318.648H180.668V322.232C181.676 322.04 182.044 321.544 182.044 320.184V318.648H183.34V319.896C183.34 321.928 182.636 323.016 180.668 323.288V325.688C183.388 325.656 184.716 324.232 184.716 321.48V318.648ZM196.269 327V325.672H197.357C197.181 324.92 197.085 324.12 197.085 323.304C197.085 322.12 197.261 320.936 197.549 319.992H196.445V318.648H202.173C202.621 318.648 202.973 319 202.973 319.448V327H201.581V319.992H198.973C198.685 320.904 198.477 321.896 198.477 323.112C198.477 323.896 198.573 324.776 198.797 325.672V327H196.269ZM208.477 327V319.992H206.109V318.648H209.853V327H208.477ZM220.174 319.672C220.174 321.64 219.726 322.44 218.126 323.192L219.95 326.056L219.934 327H218.894L216.142 322.696C215.598 323.272 215.358 324.04 215.358 325.192V327H213.982V325.512C213.982 323.656 214.462 322.488 215.518 321.72L214.174 319.608L214.19 318.648H215.214L217.534 322.28C218.526 321.784 218.798 321.32 218.798 320.2V318.648H220.174V319.672ZM225.487 323.864V322.92C225.887 322.36 226.399 321.704 226.399 320.504V319.976H223.455V318.648H227.679C227.759 319.016 227.775 319.352 227.775 319.832C227.775 321.864 227.183 323 226.287 323.864H225.487ZM237.247 319.784C237.247 321.608 236.831 322.296 235.327 322.936L237.167 325.704V327H231.327V325.672H235.599L231.407 319.608V318.648H232.479L234.751 322.056C235.631 321.688 235.871 321.304 235.871 320.296V318.648H237.247V319.784ZM244.144 318.584C245.344 318.584 246.176 319.416 246.176 320.648V327H242.944V325.672H244.8V320.984C244.8 320.376 244.368 319.928 243.808 319.928C243.712 319.928 243.632 319.928 243.376 319.976L241.776 320.264L240.976 327H239.664V326.344L240.4 320.168L239.632 319.88V318.6H240.256L241.472 319L243.632 318.632C243.808 318.6 243.984 318.584 244.144 318.584ZM261.009 328.664V319.976H257.217V318.648H263.329V319.976H262.385V328.664H261.009ZM268.962 327V319.992H266.594V318.648H270.338V327H268.962ZM274.034 327V325.672H275.122C274.946 324.92 274.85 324.12 274.85 323.304C274.85 322.12 275.026 320.936 275.314 319.992H274.21V318.648H279.938C280.386 318.648 280.738 319 280.738 319.448V327H279.346V319.992H276.738C276.45 320.904 276.242 321.896 276.242 323.112C276.242 323.896 276.338 324.776 276.562 325.672V327H274.034ZM282.995 327V325.656H287.331V319.992H283.331V318.648H287.907C288.371 318.648 288.707 319 288.707 319.448V325.656H289.635V327H282.995ZM302.116 328.968V328.328C302.9 328.008 303.156 327.448 303.156 327.08C302.74 326.888 302.468 326.488 302.468 325.976C302.468 325.32 302.964 324.792 303.652 324.792C304.18 324.792 304.836 325.096 304.836 326.136C304.836 327.48 303.636 328.824 302.116 328.968ZM313.669 327V319.992H309.157V318.648H314.261C314.709 318.648 315.061 319 315.061 319.448V327H313.669ZM309.253 327V322.264H310.629V327H309.253ZM318.598 327C318.15 327 317.798 326.648 317.798 326.2V318.648H319.158V325.64H319.638C321.67 325.64 322.726 324.392 322.726 322.008V320.984C322.726 320.376 322.294 319.928 321.734 319.928C321.542 319.928 321.318 319.96 320.661 320.104L320.454 318.824C321.174 318.68 321.702 318.6 322.006 318.6C323.302 318.6 324.15 319.448 324.134 320.728L324.118 321.64C324.054 325.304 322.486 327 318.966 327H318.598ZM329.174 323.864V322.92C329.574 322.36 330.086 321.704 330.086 320.504V319.976H327.142V318.648H331.366C331.446 319.016 331.462 319.352 331.462 319.832C331.462 321.864 330.87 323 329.974 323.864H329.174ZM336.919 327V325.848C339.031 323.912 339.655 322.872 339.655 321.24V319.992H335.047V316.648H336.439V318.648H340.247C340.695 318.648 341.047 319 341.047 319.448V321.112C341.047 323.4 339.959 325.16 337.735 327H336.919ZM348.887 318.648H350.183V321.128C350.183 325.064 348.487 327 344.055 327C343.767 327 343.559 326.744 343.559 326.408V318.648H344.839V322.232C345.847 322.04 346.215 321.544 346.215 320.184V318.648H347.511V319.896C347.511 321.928 346.807 323.016 344.839 323.288V325.688C347.559 325.656 348.887 324.232 348.887 321.48V318.648ZM234.351 346.144C233.679 346.144 233.183 345.632 233.183 344.96C233.183 344.32 233.679 343.792 234.351 343.792C235.007 343.792 235.519 344.32 235.519 344.96C235.519 345.632 235.007 346.144 234.351 346.144ZM243.456 347.664V338.976H241.168V337.648H244.832V347.664H243.456ZM252.481 346V338.992H248.449V337.648H254.833V338.992H253.857V346H252.481ZM260.049 342.864V341.92C260.449 341.36 260.961 340.704 260.961 339.504V338.976H258.017V337.648H262.241C262.321 338.016 262.337 338.352 262.337 338.832C262.337 340.864 261.745 342 260.849 342.864H260.049ZM265.714 346V344.656H270.05V338.992H266.05V337.648H270.626C271.09 337.648 271.426 338 271.426 338.448V344.656H272.354V346H265.714ZM286.243 346V338.992H283.875V337.648H287.619V346H286.243ZM294.612 342.864V341.92C295.012 341.36 295.524 340.704 295.524 339.504V338.976H292.58V337.648H296.804C296.884 338.016 296.9 338.352 296.9 338.832C296.9 340.864 296.308 342 295.412 342.864H294.612ZM305.028 346V338.992H300.516V337.648H305.62C306.068 337.648 306.42 338 306.42 338.448V346H305.028ZM300.612 346V341.264H301.988V346H300.612ZM321.606 346V338.992H317.574V337.648H323.958V338.992H322.982V346H321.606ZM329.174 342.864V341.92C329.574 341.36 330.086 340.704 330.086 339.504V338.976H327.142V337.648H331.366C331.446 338.016 331.462 338.352 331.462 338.832C331.462 340.864 330.87 342 329.974 342.864H329.174ZM339.191 337.584C340.391 337.584 341.223 338.416 341.223 339.648V346H337.991V344.672H339.847V339.984C339.847 339.376 339.415 338.928 338.855 338.928C338.759 338.928 338.679 338.928 338.423 338.976L336.823 339.264L336.023 346H334.711V345.344L335.447 339.168L334.679 338.88V337.6H335.303L336.519 338L338.679 337.632C338.855 337.6 339.031 337.584 339.191 337.584ZM343.159 346V344.672H344.247C344.071 343.92 343.975 343.12 343.975 342.304C343.975 341.12 344.151 339.936 344.439 338.992H343.335V337.648H349.063C349.511 337.648 349.863 338 349.863 338.448V346H348.471V338.992H345.863C345.575 339.904 345.367 340.896 345.367 342.112C345.367 342.896 345.463 343.776 345.687 344.672V346H343.159Z" fill="#181818"/>
<path d="M183.996 19.296L183.972 17.976L192.54 1.584H193.98L194.004 2.904L185.436 19.296H183.996ZM196.957 19.296L196.933 17.976L205.501 1.584H206.941L206.965 2.904L198.397 19.296H196.957ZM232.527 7.008C232.527 9.96 231.855 11.16 229.455 12.288L232.191 16.584L232.167 18H230.607L226.479 11.544C225.663 12.408 225.303 13.56 225.303 15.288V18H223.239V15.768C223.239 12.984 223.959 11.232 225.543 10.08L223.527 6.912L223.551 5.472H225.087L228.567 10.92C230.055 10.176 230.463 9.48 230.463 7.8V5.472H232.527V7.008ZM236.032 18V15.984H242.536V7.488H236.536V5.472H243.4C244.096 5.472 244.6 6 244.6 6.672V15.984H245.992V18H236.032ZM258.449 7.008C258.449 9.96 257.777 11.16 255.377 12.288L258.113 16.584L258.089 18H256.529L252.401 11.544C251.585 12.408 251.225 13.56 251.225 15.288V18H249.161V15.768C249.161 12.984 249.881 11.232 251.465 10.08L249.449 6.912L249.473 5.472H251.009L254.489 10.92C255.977 10.176 256.385 9.48 256.385 7.8V5.472H258.449V7.008ZM266.417 13.296V11.88C267.017 11.04 267.785 10.056 267.785 8.256V7.464H263.369V5.472H269.705C269.825 6.024 269.849 6.528 269.849 7.248C269.849 10.296 268.961 12 267.617 13.296H266.417ZM279.786 18V7.488H276.234V5.472H281.85V18H279.786ZM310.292 7.008C310.292 9.96 309.62 11.16 307.22 12.288L309.956 16.584L309.932 18H308.372L304.244 11.544C303.428 12.408 303.068 13.56 303.068 15.288V18H301.004V15.768C301.004 12.984 301.724 11.232 303.308 10.08L301.292 6.912L301.316 5.472H302.852L306.332 10.92C307.82 10.176 308.228 9.48 308.228 7.8V5.472H310.292V7.008ZM320.325 5.376C322.125 5.376 323.373 6.624 323.373 8.472V18H318.525V16.008H321.309V8.976C321.309 8.064 320.661 7.392 319.821 7.392C319.677 7.392 319.557 7.392 319.173 7.464L316.773 7.896L315.573 18H313.605V17.016L314.709 7.752L313.557 7.32V5.4H314.493L316.317 6L319.557 5.448C319.821 5.4 320.085 5.376 320.325 5.376ZM331.63 18V7.488H328.078V5.472H333.694V18H331.63ZM344.183 13.296V11.88C344.783 11.04 345.551 10.056 345.551 8.256V7.464H341.135V5.472H347.471C347.591 6.024 347.615 6.528 347.615 7.248C347.615 10.296 346.727 12 345.383 13.296H344.183Z" fill="#181818"/>
<path d="M170.747 42V40.848C172.859 38.912 173.483 37.872 173.483 36.24V34.992H168.875V31.648H170.267V33.648H174.075C174.523 33.648 174.875 34 174.875 34.448V36.112C174.875 38.4 173.787 40.16 171.563 42H170.747ZM183.612 34.672C183.612 36.64 183.164 37.44 181.564 38.192L183.388 41.056L183.372 42H182.332L179.58 37.696C179.036 38.272 178.796 39.04 178.796 40.192V42H177.42V40.512C177.42 38.656 177.9 37.488 178.956 36.72L177.612 34.608L177.628 33.648H178.652L180.972 37.28C181.964 36.784 182.236 36.32 182.236 35.2V33.648H183.612V34.672ZM190.492 42V35.872C190.492 35.36 190.124 34.992 189.612 34.992H186.188V33.648H190.124C191.132 33.648 191.884 34.4 191.884 35.424V42H190.492ZM199.341 42V34.992H194.829V33.648H199.933C200.381 33.648 200.733 34 200.733 34.448V42H199.341ZM194.925 42V37.264H196.301V42H194.925ZM216.622 42V34.992H212.11V33.648H217.214C217.662 33.648 218.014 34 218.014 34.448V42H216.622ZM212.206 42V37.264H213.582V42H212.206ZM220.511 42V40.656H224.847V34.992H220.847V33.648H225.423C225.887 33.648 226.223 34 226.223 34.448V40.656H227.151V42H220.511ZM232.127 38.864V37.92C232.527 37.36 233.039 36.704 233.039 35.504V34.976H230.095V33.648H234.319C234.399 34.016 234.415 34.352 234.415 34.832C234.415 36.864 233.823 38 232.927 38.864H232.127ZM238.496 42V40.672H241.664V34.992H239.664V33.648H243.04V41.2C243.04 41.648 242.72 42 242.256 42H238.496ZM258.273 36.624C257.601 36.624 257.105 36.112 257.105 35.44C257.105 34.8 257.601 34.272 258.273 34.272C258.929 34.272 259.441 34.8 259.441 35.44C259.441 36.112 258.929 36.624 258.273 36.624ZM258.273 42.144C257.601 42.144 257.105 41.632 257.105 40.96C257.105 40.32 257.601 39.792 258.273 39.792C258.929 39.792 259.441 40.32 259.441 40.96C259.441 41.632 258.929 42.144 258.273 42.144ZM266.69 38.864V37.92C267.09 37.36 267.602 36.704 267.602 35.504V34.976H264.658V33.648H268.882C268.962 34.016 268.978 34.352 268.978 34.832C268.978 36.864 268.386 38 267.49 38.864H266.69ZM274.434 42V40.848C276.546 38.912 277.17 37.872 277.17 36.24V34.992H272.562V31.648H273.954V33.648H277.762C278.21 33.648 278.562 34 278.562 34.448V36.112C278.562 38.4 277.474 40.16 275.25 42H274.434ZM284.243 42V34.992H281.875V33.648H285.619V42H284.243ZM292.916 41.872V40.784C294.228 39.2 294.74 38 294.74 36.32V34.992H289.716V33.648H295.332C295.78 33.648 296.132 33.984 296.132 34.432V36C296.132 38.128 295.572 39.952 293.876 41.872H292.916ZM289.86 43.664V37.072H291.236V43.664H289.86ZM311.861 33.648H313.221V34.288C313.205 35.008 313.189 35.824 313.141 36.544C312.885 40.384 311.461 41.776 307.573 42.272L306.949 42.352H306.741V41.024C307.125 40.992 307.477 40.96 307.829 40.896C308.117 40.848 308.389 40.8 308.645 40.736L307.429 34.304V33.648H308.741L309.973 40.304C311.109 39.76 311.605 38.832 311.749 36.912C311.829 35.856 311.845 34.528 311.861 33.648ZM318.806 42V34.992H316.438V33.648H320.182V42H318.806ZM330.294 34.784C330.294 36.608 329.878 37.296 328.374 37.936L330.214 40.704V42H324.374V40.672H328.646L324.454 34.608V33.648H325.526L327.798 37.056C328.678 36.688 328.918 36.304 328.918 35.296V33.648H330.294V34.784ZM335.815 38.864V37.92C336.215 37.36 336.727 36.704 336.727 35.504V34.976H333.783V33.648H338.007C338.087 34.016 338.103 34.352 338.103 34.832C338.103 36.864 337.511 38 336.615 38.864H335.815ZM341.479 42V40.656H345.815V34.992H341.815V33.648H346.391C346.855 33.648 347.191 34 347.191 34.448V40.656H348.119V42H341.479Z" fill="#181818"/>
</svg>
