<svg width="486" height="165" viewBox="0 0 486 165" fill="none" xmlns="http://www.w3.org/2000/svg">
<path d="M279.377 26.864L279.361 26.144L285.073 15.056H286.513L286.529 15.776L280.817 26.864H279.377ZM288.018 26.864L288.002 26.144L293.714 15.056H295.154L295.17 15.776L289.458 26.864H288.018ZM305.603 26V17.648H309.891C311.187 17.648 312.131 18.608 312.131 19.904V26H305.603ZM307.459 24.192H310.275V20.352C310.275 19.84 309.891 19.472 309.395 19.472H307.459V24.192ZM316.964 22.928V21.984C317.652 21.024 317.876 20.464 317.876 19.728V19.456H314.98V17.648H319.636C319.7 18 319.732 18.336 319.732 18.896C319.732 20.688 319.268 21.936 318.244 22.928H316.964ZM324.66 26V24.848C326.772 22.912 327.396 21.872 327.396 20.24V19.472H323.028V15.648H324.9V17.648H328.468C328.916 17.648 329.268 18 329.268 18.448V20.112C329.268 22.4 328.18 24.16 325.956 26H324.66ZM337.349 17.648C337.861 17.648 338.261 18.048 338.261 18.56V22.64C338.261 25.024 336.661 26.208 335.045 26.208C333.445 26.208 331.877 25.072 331.877 22.768V19.472H331.237V17.648H337.349ZM336.405 22.928V19.456H333.733V22.928C333.733 23.872 334.421 24.448 335.109 24.448C335.765 24.448 336.405 23.92 336.405 22.928ZM354.726 17.648C355.174 17.648 355.526 18 355.526 18.448V26H353.654V19.472H351.446C351.238 20.256 351.094 21.104 351.094 22.112C351.094 22.896 351.19 23.776 351.414 24.672V26H348.406V24.192H349.382C349.286 23.584 349.222 22.944 349.222 22.304C349.222 21.312 349.35 20.32 349.558 19.472H348.582V17.648H354.726ZM362.087 17.648H363.927V18.288C363.911 19.008 363.895 19.824 363.847 20.544C363.591 24.352 362.215 25.76 358.279 26.272L357.655 26.352H356.967V24.56C357.335 24.544 357.703 24.512 358.199 24.432L358.791 24.336L357.655 18.304V17.648H359.447L360.583 23.776C361.543 23.264 361.879 22.432 361.975 20.864C362.039 19.872 362.071 18.624 362.087 17.648ZM368.807 22.928V21.984C369.495 21.024 369.719 20.464 369.719 19.728V19.456H366.823V17.648H371.479C371.543 18 371.575 18.336 371.575 18.896C371.575 20.688 371.111 21.936 370.087 22.928H368.807ZM376.504 26V24.848C378.616 22.912 379.24 21.872 379.24 20.24V19.472H374.872V15.648H376.744V17.648H380.312C380.76 17.648 381.112 18 381.112 18.448V20.112C381.112 22.4 380.024 24.16 377.8 26H376.504ZM386.553 25.872V24.784C387.769 23.2 388.249 22 388.249 20.32V19.472H383.353V17.648H389.321C389.769 17.648 390.121 17.984 390.121 18.432V20C390.121 22.128 389.593 23.952 387.993 25.872H386.553ZM383.497 27.68V21.392H385.353V27.68H383.497ZM402.426 26V24.848C404.538 22.912 405.162 21.872 405.162 20.24V19.472H400.794V15.648H402.666V17.648H406.234C406.682 17.648 407.034 18 407.034 18.448V20.112C407.034 22.4 405.946 24.16 403.722 26H402.426ZM415.114 17.648C415.626 17.648 416.026 18.048 416.026 18.56V22.64C416.026 25.024 414.426 26.208 412.81 26.208C411.21 26.208 409.642 25.072 409.642 22.768V19.472H409.002V17.648H415.114ZM414.17 22.928V19.456H411.498V22.928C411.498 23.872 412.186 24.448 412.874 24.448C413.53 24.448 414.17 23.92 414.17 22.928ZM432.492 17.648C432.94 17.648 433.292 18 433.292 18.448V26H431.42V19.472H429.212C429.004 20.256 428.86 21.104 428.86 22.112C428.86 22.896 428.956 23.776 429.18 24.672V26H426.172V24.192H427.148C427.052 23.584 426.988 22.944 426.988 22.304C426.988 21.312 427.116 20.32 427.324 19.472H426.348V17.648H432.492ZM439.596 26V20.352C439.596 19.84 439.228 19.472 438.716 19.472H435.34V17.648H439.436C440.604 17.648 441.468 18.512 441.468 19.696V26H439.596ZM446.973 26V19.472H444.605V17.648H448.829V26H446.973ZM453.31 26C452.862 26 452.51 25.648 452.51 25.2V17.648H454.35V24.16H454.766C456.526 24.16 457.438 23.12 457.438 21.136V20.288C457.438 19.792 457.054 19.408 456.558 19.408C456.398 19.408 456.238 19.44 455.598 19.552L455.342 17.824C456.078 17.664 456.51 17.6 456.862 17.6C458.334 17.6 459.31 18.48 459.31 19.792V20.64C459.31 24.304 457.55 26 453.742 26H453.31ZM466.958 17.648C467.47 17.648 467.87 18.048 467.87 18.56V22.64C467.87 25.024 466.27 26.208 464.654 26.208C463.054 26.208 461.486 25.072 461.486 22.768V19.472H460.846V17.648H466.958ZM466.014 22.928V19.456H463.342V22.928C463.342 23.872 464.03 24.448 464.718 24.448C465.374 24.448 466.014 23.92 466.014 22.928ZM472.959 25.872V24.784C474.175 23.2 474.655 22 474.655 20.32V19.472H469.759V17.648H475.727C476.175 17.648 476.527 17.984 476.527 18.432V20C476.527 22.128 475.999 23.952 474.399 25.872H472.959ZM469.903 27.68V21.392H471.759V27.68H469.903ZM479.231 26C478.783 26 478.431 25.648 478.431 25.2V17.648H480.271V24.16H480.687C482.447 24.16 483.359 23.12 483.359 21.136V20.288C483.359 19.792 482.975 19.408 482.479 19.408C482.319 19.408 482.159 19.44 481.519 19.552L481.263 17.824C481.999 17.664 482.431 17.6 482.783 17.6C484.255 17.6 485.231 18.48 485.231 19.792V20.64C485.231 24.304 483.471 26 479.663 26H479.231ZM275.84 65.664V56.976H273.072L272.768 59.376C272.752 59.456 272.784 59.536 272.88 59.584L273.712 60V61.104H272.8L271.696 60.544C271.392 60.384 271.28 60.064 271.328 59.696L271.808 56.24C271.856 55.856 272.208 55.648 272.608 55.648H276.432C276.88 55.648 277.216 55.984 277.216 56.432V65.664H275.84ZM282.993 64V56.992H280.625V55.648H284.369V64H282.993ZM288.226 64V62.672H293.282L293.106 57.872C293.09 57.36 292.722 56.992 292.226 56.992H290.434L290.162 58.864C290.146 58.944 290.194 59.024 290.274 59.072L291.122 59.504V60.592H290.242L289.138 60.032C288.818 59.872 288.706 59.552 288.754 59.2L289.282 55.648H292.69C293.714 55.648 294.418 56.4 294.45 57.424L294.706 64H288.226ZM300.002 60.864V59.92C300.402 59.36 300.914 58.704 300.914 57.504V56.976H297.97V55.648H302.194C302.274 56.016 302.29 56.352 302.29 56.832C302.29 58.864 301.698 60 300.802 60.864H300.002ZM307.747 64V62.848C309.859 60.912 310.483 59.872 310.483 58.24V56.992H305.875V53.648H307.267V55.648H311.075C311.523 55.648 311.875 56 311.875 56.448V58.112C311.875 60.4 310.787 62.16 308.563 64H307.747ZM325.924 60.864V59.92C326.324 59.36 326.836 58.704 326.836 57.504V56.976H323.892V55.648H328.116C328.196 56.016 328.212 56.352 328.212 56.832C328.212 58.864 327.62 60 326.724 60.864H325.924ZM331.589 57.264V56.624C332.373 56.304 332.629 55.744 332.629 55.376C332.213 55.184 331.941 54.784 331.941 54.272C331.941 53.616 332.437 53.088 333.125 53.088C333.653 53.088 334.309 53.392 334.309 54.432C334.309 55.776 333.109 57.12 331.589 57.264ZM335.269 57.264V56.624C336.053 56.304 336.309 55.744 336.309 55.376C335.893 55.184 335.621 54.784 335.621 54.272C335.621 53.616 336.117 53.088 336.805 53.088C337.333 53.088 337.989 53.392 337.989 54.432C337.989 55.776 336.789 57.12 335.269 57.264ZM345.173 55.648H346.533V56.288C346.517 57.008 346.501 57.824 346.453 58.544C346.197 62.384 344.773 63.776 340.885 64.272L340.261 64.352H340.053V63.024C340.437 62.992 340.789 62.96 341.141 62.896C341.429 62.848 341.701 62.8 341.957 62.736L340.741 56.304V55.648H342.053L343.285 62.304C344.421 61.76 344.917 60.832 345.061 58.912C345.141 57.856 345.157 56.528 345.173 55.648ZM360.759 64V56.992H358.391V55.648H362.135V64H360.759ZM370.695 64V57.872C370.695 57.36 370.327 56.992 369.815 56.992H366.391V55.648H370.327C371.335 55.648 372.087 56.4 372.087 57.424V64H370.695ZM380.888 56.784C380.888 58.608 380.472 59.296 378.968 59.936L380.808 62.704V64H374.968V62.672H379.24L375.048 56.608V55.648H376.12L378.392 59.056C379.272 58.688 379.512 58.304 379.512 57.296V55.648H380.888V56.784ZM386.681 64V56.992H384.312V55.648H388.057V64H386.681ZM392.777 64V62.672H395.945V56.992H393.945V55.648H397.321V63.2C397.321 63.648 397.001 64 396.537 64H392.777ZM409.53 64V55.648H413.818C414.842 55.648 415.578 56.4 415.578 57.424V64H409.53ZM410.906 62.672H414.202V57.872C414.202 57.36 413.818 56.992 413.322 56.992H410.906V62.672ZM420.971 60.864V59.92C421.371 59.36 421.883 58.704 421.883 57.504V56.976H418.939V55.648H423.163C423.243 56.016 423.259 56.352 423.259 56.832C423.259 58.864 422.667 60 421.771 60.864H420.971ZM431.18 64V57.872C431.18 57.36 430.812 56.992 430.3 56.992H426.876V55.648H430.812C431.82 55.648 432.572 56.4 432.572 57.424V64H431.18ZM441.372 56.784C441.372 58.608 440.956 59.296 439.452 59.936L441.292 62.704V64H435.452V62.672H439.724L435.532 56.608V55.648H436.604L438.876 59.056C439.756 58.688 439.996 58.304 439.996 57.296V55.648H441.372V56.784ZM444.621 64V62.672H447.789V56.992H445.789V55.648H449.165V63.2C449.165 63.648 448.845 64 448.381 64H444.621ZM464.174 60.864V59.92C464.574 59.36 465.086 58.704 465.086 57.504V56.976H462.142V55.648H466.366C466.446 56.016 466.462 56.352 466.462 56.832C466.462 58.864 465.87 60 464.974 60.864H464.174ZM471.919 64V62.848C474.031 60.912 474.655 59.872 474.655 58.24V56.992H470.047V53.648H471.439V55.648H475.247C475.695 55.648 476.047 56 476.047 56.448V58.112C476.047 60.4 474.959 62.16 472.735 64H471.919ZM478.559 64V62.672H481.759C482.623 62.672 483.279 62.016 483.279 61.152V56.992H478.799V55.648H484.015C484.383 55.648 484.655 55.936 484.655 56.288V61.2C484.655 62.672 483.327 64 481.855 64H478.559ZM258.575 83V75.992H254.063V74.648H259.167C259.615 74.648 259.967 75 259.967 75.448V83H258.575ZM254.159 83V78.264H255.535V83H254.159ZM264.976 83V75.992H263.184V74.648H268.144V75.992H266.352V83H264.976ZM273.184 83V81.848C275.296 79.912 275.92 78.872 275.92 77.24V75.992H271.312V72.648H272.704V74.648H276.512C276.96 74.648 277.312 75 277.312 75.448V77.112C277.312 79.4 276.224 81.16 274 83H273.184ZM293.138 83V75.992H288.626V74.648H293.73C294.178 74.648 294.53 75 294.53 75.448V83H293.138ZM288.722 83V78.264H290.098V83H288.722ZM299.538 83V75.992H297.746V74.648H302.706V75.992H300.914V83H299.538ZM314.484 83V74.648H318.772C319.796 74.648 320.532 75.4 320.532 76.424V83H314.484ZM315.86 81.672H319.156V76.872C319.156 76.36 318.772 75.992 318.276 75.992H315.86V81.672ZM327.492 83V76.872C327.492 76.36 327.124 75.992 326.612 75.992H323.188V74.648H327.124C328.132 74.648 328.884 75.4 328.884 76.424V83H327.492ZM334.837 83V75.992H332.469V74.648H336.213V83H334.837ZM340.229 83V81.656H344.565V75.992H340.565V74.648H345.141C345.605 74.648 345.941 75 345.941 75.448V81.656H346.869V83H340.229ZM351.846 79.864V78.92C352.246 78.36 352.758 77.704 352.758 76.504V75.976H349.814V74.648H354.038C354.118 75.016 354.134 75.352 354.134 75.832C354.134 77.864 353.542 79 352.646 79.864H351.846ZM357.767 83V74.648H362.967C363.415 74.648 363.767 75 363.767 75.448V83H362.391V75.992H359.143V83H357.767ZM369.399 83V75.992H367.031V74.648H370.775V83H369.399ZM383.609 83V74.648H387.897C388.921 74.648 389.657 75.4 389.657 76.424V83H383.609ZM384.985 81.672H388.281V76.872C388.281 76.36 387.897 75.992 387.401 75.992H384.985V81.672ZM395.049 79.864V78.92C395.449 78.36 395.961 77.704 395.961 76.504V75.976H393.017V74.648H397.241C397.321 75.016 397.337 75.352 397.337 75.832C397.337 77.864 396.745 79 395.849 79.864H395.049ZM405.258 83V76.872C405.258 76.36 404.89 75.992 404.378 75.992H400.954V74.648H404.89C405.898 74.648 406.65 75.4 406.65 76.424V83H405.258ZM415.45 75.784C415.45 77.608 415.034 78.296 413.53 78.936L415.37 81.704V83H409.53V81.672H413.802L409.61 75.608V74.648H410.682L412.954 78.056C413.834 77.688 414.074 77.304 414.074 76.296V74.648H415.45V75.784ZM418.699 83V81.672H421.867V75.992H419.867V74.648H423.243V82.2C423.243 82.648 422.923 83 422.459 83H418.699ZM434.956 83V81.672H436.044C435.868 80.92 435.772 80.12 435.772 79.304C435.772 78.12 435.948 76.936 436.236 75.992H435.132V74.648H440.86C441.308 74.648 441.66 75 441.66 75.448V83H440.268V75.992H437.66C437.372 76.904 437.164 77.896 437.164 79.112C437.164 79.896 437.26 80.776 437.484 81.672V83H434.956ZM447.165 83V75.992H444.797V74.648H448.541V83H447.165ZM457.102 83V76.872C457.102 76.36 456.734 75.992 456.222 75.992H452.798V74.648H456.734C457.742 74.648 458.494 75.4 458.494 76.424V83H457.102ZM464.446 83V75.992H462.078V74.648H465.822V83H464.446ZM474.383 83V76.872C474.383 76.36 474.015 75.992 473.503 75.992H470.079V74.648H474.015C475.023 74.648 475.775 75.4 475.775 76.424V83H474.383ZM484.575 75.784C484.575 77.608 484.159 78.296 482.655 78.936L484.495 81.704V83H478.655V81.672H482.927L478.735 75.608V74.648H479.807L482.079 78.056C482.959 77.688 483.199 77.304 483.199 76.296V74.648H484.575V75.784ZM270.784 102V100.672H271.872C271.696 99.92 271.6 99.12 271.6 98.304C271.6 97.12 271.776 95.936 272.064 94.992H270.96V93.648H276.688C277.136 93.648 277.488 94 277.488 94.448V102H276.096V94.992H273.488C273.2 95.904 272.992 96.896 272.992 98.112C272.992 98.896 273.088 99.776 273.312 100.672V102H270.784ZM284.289 102V95.872C284.289 95.36 283.921 94.992 283.409 94.992H279.985V93.648H283.921C284.929 93.648 285.681 94.4 285.681 95.424V102H284.289ZM294.482 94.784C294.482 96.608 294.066 97.296 292.562 97.936L294.402 100.704V102H288.562V100.672H292.834L288.642 94.608V93.648H289.714L291.986 97.056C292.866 96.688 293.106 96.304 293.106 95.296V93.648H294.482V94.784ZM300.274 102V94.992H297.906V93.648H301.65V102H300.274ZM306.371 102V100.672H309.539V94.992H307.539V93.648H310.915V101.2C310.915 101.648 310.595 102 310.131 102H306.371ZM326.884 103.664V94.976H323.092V93.648H329.204V94.976H328.26V103.664H326.884ZM331.669 102V100.672H334.869C335.733 100.672 336.389 100.016 336.389 99.152V94.992H331.909V93.648H337.125C337.493 93.648 337.765 93.936 337.765 94.288V99.2C337.765 100.672 336.437 102 334.965 102H331.669ZM343.477 102V94.992H341.109V93.648H344.853V102H343.477ZM359.351 103.968V103.328C360.135 103.008 360.391 102.448 360.391 102.08C359.975 101.888 359.703 101.488 359.703 100.976C359.703 100.32 360.199 99.792 360.887 99.792C361.415 99.792 362.071 100.096 362.071 101.136C362.071 102.48 360.871 103.824 359.351 103.968ZM365.831 102V100.672H366.919C366.743 99.92 366.647 99.12 366.647 98.304C366.647 97.12 366.823 95.936 367.111 94.992H366.007V93.648H371.735C372.183 93.648 372.535 94 372.535 94.448V102H371.143V94.992H368.535C368.247 95.904 368.039 96.896 368.039 98.112C368.039 98.896 368.135 99.776 368.359 100.672V102H365.831ZM378.04 102V94.992H375.672V93.648H379.416V102H378.04ZM386.409 98.864V97.92C386.809 97.36 387.321 96.704 387.321 95.504V94.976H384.377V93.648H388.601C388.681 94.016 388.697 94.352 388.697 94.832C388.697 96.864 388.105 98 387.209 98.864H386.409ZM395.353 101.872V100.784C396.665 99.2 397.177 98 397.177 96.32V94.992H392.153V93.648H397.769C398.217 93.648 398.569 93.984 398.569 94.432V96C398.569 98.128 398.009 99.952 396.313 101.872H395.353ZM392.297 103.664V97.072H393.673V103.664H392.297ZM400.554 102V100.672H405.61L405.434 95.872C405.418 95.36 405.05 94.992 404.554 94.992H402.762L402.49 96.864C402.474 96.944 402.522 97.024 402.602 97.072L403.45 97.504V98.592H402.57L401.466 98.032C401.146 97.872 401.034 97.552 401.082 97.2L401.61 93.648H405.018C406.042 93.648 406.746 94.4 406.778 95.424L407.034 102H400.554ZM412.602 102V94.992H410.234V93.648H413.978V102H412.602ZM424.299 94.672C424.299 96.64 423.851 97.44 422.251 98.192L424.075 101.056L424.059 102H423.019L420.267 97.696C419.723 98.272 419.483 99.04 419.483 100.192V102H418.107V100.512C418.107 98.656 418.587 97.488 419.643 96.72L418.299 94.608L418.315 93.648H419.339L421.659 97.28C422.651 96.784 422.923 96.32 422.923 95.2V93.648H424.299V94.672ZM434.956 102V100.672H436.044C435.868 99.92 435.772 99.12 435.772 98.304C435.772 97.12 435.948 95.936 436.236 94.992H435.132V93.648H440.86C441.308 93.648 441.66 94 441.66 94.448V102H440.268V94.992H437.66C437.372 95.904 437.164 96.896 437.164 98.112C437.164 98.896 437.26 99.776 437.484 100.672V102H434.956ZM447.165 102V94.992H444.797V93.648H448.541V102H447.165ZM457.102 102V95.872C457.102 95.36 456.734 94.992 456.222 94.992H452.798V93.648H456.734C457.742 93.648 458.494 94.4 458.494 95.424V102H457.102ZM464.446 102V94.992H462.078V93.648H465.822V102H464.446ZM475.247 93.648H476.543V96.128C476.543 100.064 474.847 102 470.415 102C470.127 102 469.919 101.744 469.919 101.408V93.648H471.199V97.232C472.207 97.04 472.575 96.544 472.575 95.184V93.648H473.871V94.896C473.871 96.928 473.167 98.016 471.199 98.288V100.688C473.919 100.656 475.247 99.232 475.247 96.48V93.648ZM478.479 102V100.656H482.815V94.992H478.815V93.648H483.391C483.855 93.648 484.191 94 484.191 94.448V100.656H485.119V102H478.479ZM291.586 121.144C290.914 121.144 290.418 120.632 290.418 119.96C290.418 119.32 290.914 118.792 291.586 118.792C292.242 118.792 292.754 119.32 292.754 119.96C292.754 120.632 292.242 121.144 291.586 121.144ZM300.002 117.864V116.92C300.402 116.36 300.914 115.704 300.914 114.504V113.976H297.97V112.648H302.194C302.274 113.016 302.29 113.352 302.29 113.832C302.29 115.864 301.698 117 300.802 117.864H300.002ZM307.747 121V119.848C309.859 117.912 310.483 116.872 310.483 115.24V113.992H305.875V110.648H307.267V112.648H311.075C311.523 112.648 311.875 113 311.875 113.448V115.112C311.875 117.4 310.787 119.16 308.563 121H307.747ZM314.388 121V119.672H317.588C318.452 119.672 319.108 119.016 319.108 118.152V113.992H314.628V112.648H319.844C320.212 112.648 320.484 112.936 320.484 113.288V118.2C320.484 119.672 319.156 121 317.684 121H314.388ZM327.7 121V113.992H323.188V112.648H328.292C328.74 112.648 329.092 113 329.092 113.448V121H327.7ZM323.284 121V116.264H324.66V121H323.284ZM342.309 121V119.848C344.421 117.912 345.045 116.872 345.045 115.24V113.992H340.437V110.648H341.829V112.648H345.637C346.085 112.648 346.437 113 346.437 113.448V115.112C346.437 117.4 345.349 119.16 343.125 121H342.309ZM354.278 112.648H355.574V115.128C355.574 119.064 353.878 121 349.446 121C349.158 121 348.95 120.744 348.95 120.408V112.648H350.23V116.232C351.238 116.04 351.606 115.544 351.606 114.184V112.648H352.902V113.896C352.902 115.928 352.198 117.016 350.23 117.288V119.688C352.95 119.656 354.278 118.232 354.278 115.48V112.648ZM370.903 121V113.992H366.391V112.648H371.495C371.943 112.648 372.295 113 372.295 113.448V121H370.903ZM366.487 121V116.264H367.863V121H366.487ZM379.144 112.584C380.344 112.584 381.176 113.416 381.176 114.648V121H377.944V119.672H379.8V114.984C379.8 114.376 379.368 113.928 378.808 113.928C378.712 113.928 378.632 113.928 378.376 113.976L376.776 114.264L375.976 121H374.664V120.344L375.4 114.168L374.632 113.88V112.6H375.256L376.472 113L378.632 112.632C378.808 112.6 378.984 112.584 379.144 112.584ZM386.409 117.864V116.92C386.809 116.36 387.321 115.704 387.321 114.504V113.976H384.377V112.648H388.601C388.681 113.016 388.697 113.352 388.697 113.832C388.697 115.864 388.105 117 387.209 117.864H386.409ZM397.481 112.648H398.777V115.128C398.777 119.064 397.081 121 392.649 121C392.361 121 392.153 120.744 392.153 120.408V112.648H393.433V116.232C394.441 116.04 394.809 115.544 394.809 114.184V112.648H396.105V113.896C396.105 115.928 395.401 117.016 393.433 117.288V119.688C396.153 119.656 397.481 118.232 397.481 115.48V112.648ZM405.258 121V114.872C405.258 114.36 404.89 113.992 404.378 113.992H400.954V112.648H404.89C405.898 112.648 406.65 113.4 406.65 114.424V121H405.258ZM413.706 112.584C414.906 112.584 415.738 113.416 415.738 114.648V121H412.506V119.672H414.362V114.984C414.362 114.376 413.93 113.928 413.37 113.928C413.274 113.928 413.194 113.928 412.938 113.976L411.338 114.264L410.538 121H409.226V120.344L409.962 114.168L409.194 113.88V112.6H409.818L411.034 113L413.194 112.632C413.37 112.6 413.546 112.584 413.706 112.584ZM422.747 121V113.992H418.235V112.648H423.339C423.787 112.648 424.139 113 424.139 113.448V121H422.747ZM418.331 121V116.264H419.707V121H418.331ZM440.028 121V113.992H435.516V112.648H440.62C441.068 112.648 441.42 113 441.42 113.448V121H440.028ZM435.612 121V116.264H436.988V121H435.612ZM448.269 112.584C449.469 112.584 450.301 113.416 450.301 114.648V121H447.069V119.672H448.925V114.984C448.925 114.376 448.493 113.928 447.933 113.928C447.837 113.928 447.757 113.928 447.501 113.976L445.901 114.264L445.101 121H443.789V120.344L444.525 114.168L443.757 113.88V112.6H444.381L445.597 113L447.757 112.632C447.933 112.6 448.109 112.584 448.269 112.584ZM456.51 112.648L458.75 120.472V121H457.47L456.766 118.552L453.854 121H452.878V120.104L456.366 117.144L455.47 113.992H454.014V112.648H456.51ZM464.446 121V113.992H462.078V112.648H465.822V121H464.446ZM473.887 121V113.992H469.855V112.648H476.239V113.992H475.263V121H473.887ZM483.231 121V113.992H478.719V112.648H483.823C484.271 112.648 484.623 113 484.623 113.448V121H483.231ZM478.815 121V116.264H480.191V121H478.815Z" fill="white"/>
<line x1="0.5" y1="83" x2="0.499996" y2="2.18557e-08" stroke="white"/>
<line x1="1" y1="82.5" x2="220" y2="82.5" stroke="white"/>
</svg>
