<svg width="524" height="132" viewBox="0 0 524 132" fill="none" xmlns="http://www.w3.org/2000/svg">
<path d="M150.783 14.864L150.767 14.144L156.479 3.056H157.919L157.935 3.776L152.223 14.864H150.783ZM159.424 14.864L159.408 14.144L165.12 3.056H166.56L166.576 3.776L160.864 14.864H159.424ZM177.057 14V5.648H182.513C183.073 5.648 183.505 6.08 183.505 6.64V14H181.649V7.472H178.913V14H177.057ZM192.034 7.744L192.29 14H185.49V12.192H190.37L190.21 8.352C190.194 7.84 189.826 7.472 189.33 7.472H187.922L187.714 8.816C187.698 8.896 187.746 8.976 187.826 9.024L188.674 9.456V10.768H187.314L186.21 10.208C185.89 10.048 185.778 9.728 185.826 9.376L186.386 5.648H189.954C191.17 5.648 191.986 6.528 192.034 7.744ZM204.707 14V12.848C206.819 10.912 207.443 9.872 207.443 8.24V7.472H203.075V3.648H204.947V5.648H208.515C208.963 5.648 209.315 6 209.315 6.448V8.112C209.315 10.4 208.227 12.16 206.003 14H204.707ZM216.212 5.648H218.052V6.288C218.036 7.008 218.02 7.824 217.972 8.544C217.716 12.352 216.34 13.76 212.404 14.272L211.78 14.352H211.092V12.56C211.46 12.544 211.828 12.512 212.324 12.432L212.916 12.336L211.78 6.304V5.648H213.572L214.708 11.776C215.668 11.264 216.004 10.432 216.1 8.864C216.164 7.872 216.196 6.624 216.212 5.648ZM234.277 5.648C234.869 5.648 235.301 6.08 235.301 6.672V15.664H233.445V7.472H231.077L230.837 9.056C230.821 9.136 230.869 9.232 230.949 9.264L231.797 9.648V11.072H230.597L229.333 10.512C229.013 10.368 228.885 10.08 228.949 9.68L229.557 5.648H234.277ZM240.614 14V7.472H238.246V5.648H242.47V14H240.614ZM252.518 7.744L252.774 14H245.974V12.192H250.854L250.694 8.352C250.678 7.84 250.31 7.472 249.814 7.472H248.406L248.198 8.816C248.182 8.896 248.23 8.976 248.31 9.024L249.158 9.456V10.768H247.798L246.694 10.208C246.374 10.048 246.262 9.728 246.31 9.376L246.87 5.648H250.438C251.654 5.648 252.47 6.528 252.518 7.744ZM257.495 10.928V9.984C258.183 9.024 258.407 8.464 258.407 7.728V7.456H255.511V5.648H260.167C260.231 6 260.263 6.336 260.263 6.896C260.263 8.688 259.799 9.936 258.775 10.928H257.495ZM269.335 5.648C269.783 5.648 270.135 6 270.135 6.448V14H268.263V7.472H266.055C265.847 8.256 265.703 9.104 265.703 10.112C265.703 10.896 265.799 11.776 266.023 12.672V14H263.015V12.192H263.991C263.895 11.584 263.831 10.944 263.831 10.304C263.831 9.312 263.959 8.32 264.167 7.472H263.191V5.648H269.335ZM51.3998 53.664V44.976H47.6078V43.648H53.7198V44.976H52.7758V53.664H51.3998ZM59.3524 52V44.992H56.9844V43.648H60.7284V52H59.3524ZM64.425 52V50.672H65.513C65.337 49.92 65.241 49.12 65.241 48.304C65.241 47.12 65.417 45.936 65.705 44.992H64.601V43.648H70.329C70.777 43.648 71.129 44 71.129 44.448V52H69.737V44.992H67.129C66.841 45.904 66.633 46.896 66.633 48.112C66.633 48.896 66.729 49.776 66.953 50.672V52H64.425ZM77.7376 43.584C78.9376 43.584 79.7696 44.416 79.7696 45.648V52H76.5376V50.672H78.3936V45.984C78.3936 45.376 77.9616 44.928 77.4016 44.928C77.3056 44.928 77.2256 44.928 76.9696 44.976L75.3696 45.264L74.5696 52H73.2576V51.344L73.9936 45.168L73.2256 44.88V43.6H73.8496L75.0656 44L77.2256 43.632C77.4016 43.6 77.5776 43.584 77.7376 43.584ZM95.4189 52V44.992H90.9069V43.648H96.0109C96.4589 43.648 96.8109 44 96.8109 44.448V52H95.4189ZM91.0029 52V47.264H92.3789V52H91.0029ZM103.356 52V44.992H99.3235V43.648H105.708V44.992H104.732V52H103.356ZM110.028 52V50.848C112.14 48.912 112.764 47.872 112.764 46.24V44.992H108.156V41.648H109.548V43.648H113.356C113.804 43.648 114.156 44 114.156 44.448V46.112C114.156 48.4 113.068 50.16 110.844 52H110.028ZM119.837 52V44.992H117.469V43.648H121.213V52H119.837ZM125.933 52V50.672H129.101V44.992H127.101V43.648H130.477V51.2C130.477 51.648 130.157 52 129.693 52H125.933ZM146.175 53.664V44.976H143.887V43.648H147.551V53.664H146.175ZM155.503 43.584C156.703 43.584 157.535 44.416 157.535 45.648V52H154.303V50.672H156.159V45.984C156.159 45.376 155.727 44.928 155.167 44.928C155.071 44.928 154.991 44.928 154.735 44.976L153.135 45.264L152.335 52H151.023V51.344L151.759 45.168L150.991 44.88V43.6H151.615L152.831 44L154.991 43.632C155.167 43.6 155.343 43.584 155.503 43.584ZM162.768 48.864V47.92C163.168 47.36 163.68 46.704 163.68 45.504V44.976H160.736V43.648H164.96C165.04 44.016 165.056 44.352 165.056 44.832C165.056 46.864 164.464 48 163.568 48.864H162.768ZM168.113 52V50.672H169.201C169.025 49.92 168.929 49.12 168.929 48.304C168.929 47.12 169.105 45.936 169.393 44.992H168.289V43.648H174.017C174.465 43.648 174.817 44 174.817 44.448V52H173.425V44.992H170.817C170.529 45.904 170.321 46.896 170.321 48.112C170.321 48.896 170.417 49.776 170.641 50.672V52H168.113ZM177.073 52V50.656H181.409V44.992H177.409V43.648H181.985C182.449 43.648 182.785 44 182.785 44.448V50.656H183.713V52H177.073ZM194.61 52V43.648H199.81C200.258 43.648 200.61 44 200.61 44.448V52H199.234V44.992H195.986V52H194.61ZM202.835 52V50.672H207.891L207.715 45.872C207.699 45.36 207.331 44.992 206.835 44.992H205.043L204.771 46.864C204.755 46.944 204.803 47.024 204.883 47.072L205.731 47.504V48.592H204.851L203.747 48.032C203.427 47.872 203.315 47.552 203.363 47.2L203.891 43.648H207.299C208.323 43.648 209.027 44.4 209.059 45.424L209.315 52H202.835ZM216.388 52V44.992H211.876V43.648H216.98C217.428 43.648 217.78 44 217.78 44.448V52H216.388ZM211.972 52V47.264H213.348V52H211.972ZM228.597 52V50.672H229.685C229.509 49.92 229.413 49.12 229.413 48.304C229.413 47.12 229.589 45.936 229.877 44.992H228.773V43.648H234.501C234.949 43.648 235.301 44 235.301 44.448V52H233.909V44.992H231.301C231.013 45.904 230.805 46.896 230.805 48.112C230.805 48.896 230.901 49.776 231.125 50.672V52H228.597ZM238.262 52V50.672H241.43V44.992H239.43V43.648H242.806V51.2C242.806 51.648 242.486 52 242.022 52H238.262ZM249.174 48.864V47.92C249.574 47.36 250.086 46.704 250.086 45.504V44.976H247.142V43.648H251.366C251.446 44.016 251.462 44.352 251.462 44.832C251.462 46.864 250.87 48 249.974 48.864H249.174ZM258.791 43.648L261.031 51.472V52H259.751L259.047 49.552L256.135 52H255.159V51.104L258.647 48.144L257.751 44.992H256.295V43.648H258.791ZM264.183 52V50.672H267.351V44.992H265.351V43.648H268.727V51.2C268.727 51.648 268.407 52 267.943 52H264.183ZM7.92463 72.664V63.976H5.63663V62.648H9.30063V72.664H7.92463ZM12.9013 71V69.656H17.2373V63.992H13.2373V62.648H17.8133C18.2773 62.648 18.6133 63 18.6133 63.448V69.656H19.5413V71H12.9013ZM26.0859 71V64.872C26.0859 64.36 25.7179 63.992 25.2059 63.992H21.7819V62.648H25.7179C26.7259 62.648 27.4779 63.4 27.4779 64.424V71H26.0859ZM33.4305 71V63.992H31.0625V62.648H34.8065V71H33.4305ZM39.0791 71V62.648H44.2791C44.7271 62.648 45.0791 63 45.0791 63.448V71H43.7031V63.992H40.4551V71H39.0791ZM59.0804 67.864V66.92C59.4804 66.36 59.9924 65.704 59.9924 64.504V63.976H57.0484V62.648H61.2724C61.3524 63.016 61.3684 63.352 61.3684 63.832C61.3684 65.864 60.7764 67 59.8804 67.864H59.0804ZM69.289 71V64.872C69.289 64.36 68.921 63.992 68.409 63.992H64.985V62.648H68.921C69.929 62.648 70.681 63.4 70.681 64.424V71H69.289ZM73.6416 71V62.648H78.8416C79.2896 62.648 79.6416 63 79.6416 63.448V71H78.2656V63.992H75.0176V71H73.6416ZM88.3303 63.672C88.3303 65.64 87.8823 66.44 86.2823 67.192L88.1063 70.056L88.0903 71H87.0503L84.2983 66.696C83.7543 67.272 83.5143 68.04 83.5143 69.192V71H82.1383V69.512C82.1383 67.656 82.6183 66.488 83.6743 65.72L82.3303 63.608L82.3463 62.648H83.3703L85.6903 66.28C86.6823 65.784 86.9543 65.32 86.9543 64.2V62.648H88.3303V63.672ZM104.06 71V63.992H99.5475V62.648H104.652C105.1 62.648 105.452 63 105.452 63.448V71H104.06ZM99.6435 71V66.264H101.02V71H99.6435ZM108.652 71V69.672H111.82V63.992H109.82V62.648H113.196V70.2C113.196 70.648 112.876 71 112.412 71H108.652ZM119.565 67.864V66.92C119.965 66.36 120.477 65.704 120.477 64.504V63.976H117.533V62.648H121.757C121.837 63.016 121.853 63.352 121.853 63.832C121.853 65.864 121.261 67 120.365 67.864H119.565ZM129.181 62.648L131.421 70.472V71H130.141L129.437 68.552L126.525 71H125.549V70.104L129.037 67.144L128.141 63.992H126.685V62.648H129.181ZM134.574 71V69.672H137.742V63.992H135.742V62.648H139.118V70.2C139.118 70.648 138.798 71 138.334 71H134.574ZM155.695 71V64.872C155.695 64.36 155.327 63.992 154.815 63.992H151.391V62.648H155.327C156.335 62.648 157.087 63.4 157.087 64.424V71H155.695ZM163.04 71V63.992H160.672V62.648H164.416V71H163.04ZM174.001 62.648C174.417 62.648 174.737 62.968 174.737 63.384V67.88C174.737 70.104 173.249 71.208 171.761 71.208C170.289 71.208 168.833 70.136 168.833 67.992V63.992H168.193V62.648H174.001ZM173.361 68.12V63.976H170.209V67.96C170.209 69.224 171.025 69.848 171.825 69.848C172.593 69.848 173.361 69.272 173.361 68.12ZM180.049 67.864V66.92C180.449 66.36 180.961 65.704 180.961 64.504V63.976H178.017V62.648H182.241C182.321 63.016 182.337 63.352 182.337 63.832C182.337 65.864 181.745 67 180.849 67.864H180.049ZM192.018 63.672C192.018 65.64 191.57 66.44 189.97 67.192L191.794 70.056L191.778 71H190.738L187.986 66.696C187.442 67.272 187.202 68.04 187.202 69.192V71H185.826V69.512C185.826 67.656 186.306 66.488 187.362 65.72L186.018 63.608L186.034 62.648H187.058L189.378 66.28C190.37 65.784 190.642 65.32 190.642 64.2V62.648H192.018V63.672ZM205.075 71V69.848C207.187 67.912 207.811 66.872 207.811 65.24V63.992H203.203V60.648H204.595V62.648H208.403C208.851 62.648 209.203 63 209.203 63.448V65.112C209.203 67.4 208.115 69.16 205.891 71H205.075ZM216.58 62.648H217.94V63.288C217.924 64.008 217.908 64.824 217.86 65.544C217.604 69.384 216.18 70.776 212.292 71.272L211.668 71.352H211.46V70.024C211.844 69.992 212.196 69.96 212.548 69.896C212.836 69.848 213.108 69.8 213.364 69.736L212.148 63.304V62.648H213.46L214.692 69.304C215.828 68.76 216.324 67.832 216.468 65.912C216.548 64.856 216.564 63.528 216.58 62.648ZM233.669 71V63.992H229.157V62.648H234.261C234.709 62.648 235.061 63 235.061 63.448V71H233.669ZM229.253 71V66.264H230.629V71H229.253ZM242.102 71V64.872C242.102 64.36 241.734 63.992 241.222 63.992H237.798V62.648H241.734C242.742 62.648 243.494 63.4 243.494 64.424V71H242.102ZM249.174 67.864V66.92C249.574 66.36 250.086 65.704 250.086 64.504V63.976H247.142V62.648H251.366C251.446 63.016 251.462 63.352 251.462 63.832C251.462 65.864 250.87 67 249.974 67.864H249.174ZM259.191 62.584C260.391 62.584 261.223 63.416 261.223 64.648V71H257.991V69.672H259.847V64.984C259.847 64.376 259.415 63.928 258.855 63.928C258.759 63.928 258.679 63.928 258.423 63.976L256.823 64.264L256.023 71H254.711V70.344L255.447 64.168L254.679 63.88V62.6H255.303L256.519 63L258.679 62.632C258.855 62.6 259.031 62.584 259.191 62.584ZM268.887 62.648H270.183V65.128C270.183 69.064 268.487 71 264.055 71C263.767 71 263.559 70.744 263.559 70.408V62.648H264.839V66.232C265.847 66.04 266.215 65.544 266.215 64.184V62.648H267.511V63.896C267.511 65.928 266.807 67.016 264.839 67.288V69.688C267.559 69.656 268.887 68.232 268.887 65.48V62.648ZM16.1493 90V82.992H13.7812V81.648H17.5253V90H16.1493ZM26.9499 81.648H28.2459V84.128C28.2459 88.064 26.5499 90 22.1179 90C21.8299 90 21.6219 89.744 21.6219 89.408V81.648H22.9019V85.232C23.9099 85.04 24.2779 84.544 24.2779 83.184V81.648H25.5739V82.896C25.5739 84.928 24.8699 86.016 22.9019 86.288V88.688C25.6219 88.656 26.9499 87.232 26.9499 84.48V81.648ZM34.5345 81.584C35.7345 81.584 36.5665 82.416 36.5665 83.648V90H33.3345V88.672H35.1905V83.984C35.1905 83.376 34.7585 82.928 34.1985 82.928C34.1025 82.928 34.0225 82.928 33.7665 82.976L32.1665 83.264L31.3665 90H30.0545V89.344L30.7905 83.168L30.0225 82.88V81.6H30.6465L31.8625 82L34.0225 81.632C34.1985 81.6 34.3745 81.584 34.5345 81.584ZM38.5031 90V88.672H39.5911C39.4151 87.92 39.3191 87.12 39.3191 86.304C39.3191 85.12 39.4951 83.936 39.7831 82.992H38.6791V81.648H44.4071C44.8551 81.648 45.2071 82 45.2071 82.448V90H43.8151V82.992H41.2071C40.9191 83.904 40.7111 84.896 40.7111 86.112C40.7111 86.896 40.8071 87.776 41.0311 88.672V90H38.5031ZM52.8718 81.648H54.1678V84.128C54.1678 88.064 52.4718 90 48.0398 90C47.7518 90 47.5438 89.744 47.5438 89.408V81.648H48.8238V85.232C49.8318 85.04 50.1998 84.544 50.1998 83.184V81.648H51.4958V82.896C51.4958 84.928 50.7918 86.016 48.8238 86.288V88.688C51.5438 88.656 52.8718 87.232 52.8718 84.48V81.648ZM60.8564 90V82.992H56.3444V81.648H61.4484C61.8964 81.648 62.2484 82 62.2484 82.448V90H60.8564ZM56.4404 90V85.264H57.8164V90H56.4404ZM73.5616 90V81.648H77.8496C78.8736 81.648 79.6096 82.4 79.6096 83.424V90H73.5616ZM74.9376 88.672H78.2336V83.872C78.2336 83.36 77.8496 82.992 77.3536 82.992H74.9376V88.672ZM85.0023 86.864V85.92C85.4023 85.36 85.9143 84.704 85.9143 83.504V82.976H82.9703V81.648H87.1943C87.2743 82.016 87.2903 82.352 87.2903 82.832C87.2903 84.864 86.6983 86 85.8023 86.864H85.0023ZM90.5069 90V88.672H95.5629L95.3869 83.872C95.3709 83.36 95.0029 82.992 94.5069 82.992H92.7149L92.4429 84.864C92.4269 84.944 92.4749 85.024 92.5549 85.072L93.4029 85.504V86.592H92.5229L91.4189 86.032C91.0989 85.872 90.9869 85.552 91.0349 85.2L91.5629 81.648H94.9709C95.9949 81.648 96.6989 82.4 96.7309 83.424L96.9869 90H90.5069ZM102.556 90V82.992H100.188V81.648H103.932V90H102.556ZM107.628 90V88.672H108.716C108.54 87.92 108.444 87.12 108.444 86.304C108.444 85.12 108.62 83.936 108.908 82.992H107.804V81.648H113.532C113.98 81.648 114.332 82 114.332 82.448V90H112.94V82.992H110.332C110.044 83.904 109.836 84.896 109.836 86.112C109.836 86.896 109.932 87.776 110.156 88.672V90H107.628ZM125.405 90V81.648H129.693C130.717 81.648 131.453 82.4 131.453 83.424V90H125.405ZM126.781 88.672H130.077V83.872C130.077 83.36 129.693 82.992 129.197 82.992H126.781V88.672ZM137.118 90V82.992H134.75V81.648H138.494V90H137.118ZM145.791 89.872V88.784C147.103 87.2 147.615 86 147.615 84.32V82.992H142.591V81.648H148.207C148.655 81.648 149.007 81.984 149.007 82.432V84C149.007 86.128 148.447 87.952 146.751 89.872H145.791ZM142.735 91.664V85.072H144.111V91.664H142.735ZM155.503 81.584C156.703 81.584 157.535 82.416 157.535 83.648V90H154.303V88.672H156.159V83.984C156.159 83.376 155.727 82.928 155.167 82.928C155.071 82.928 154.991 82.928 154.735 82.976L153.135 83.264L152.335 90H151.023V89.344L151.759 83.168L150.991 82.88V81.6H151.615L152.831 82L154.991 81.632C155.167 81.6 155.343 81.584 155.503 81.584ZM159.792 90V88.656H164.128V82.992H160.128V81.648H164.704C165.168 81.648 165.504 82 165.504 82.448V88.656H166.432V90H159.792ZM177.265 86.288V85.024H183.281V86.288H177.265ZM199.762 81.648H201.058V84.128C201.058 88.064 199.362 90 194.93 90C194.642 90 194.434 89.744 194.434 89.408V81.648H195.714V85.232C196.722 85.04 197.09 84.544 197.09 83.184V81.648H198.386V82.896C198.386 84.928 197.682 86.016 195.714 86.288V88.688C198.434 88.656 199.762 87.232 199.762 84.48V81.648ZM207.043 90V82.992H203.011V81.648H209.395V82.992H208.419V90H207.043ZM214.916 89.872V88.784C216.228 87.2 216.74 86 216.74 84.32V82.992H211.716V81.648H217.332C217.78 81.648 218.132 81.984 218.132 82.432V84C218.132 86.128 217.572 87.952 215.876 89.872H214.916ZM211.86 91.664V85.072H213.236V91.664H211.86ZM224.628 81.584C225.828 81.584 226.66 82.416 226.66 83.648V90H223.428V88.672H225.284V83.984C225.284 83.376 224.852 82.928 224.292 82.928C224.196 82.928 224.116 82.928 223.86 82.976L222.26 83.264L221.46 90H220.148V89.344L220.884 83.168L220.116 82.88V81.6H220.74L221.956 82L224.116 81.632C224.292 81.6 224.468 81.584 224.628 81.584ZM233.669 90V82.992H229.157V81.648H234.261C234.709 81.648 235.061 82 235.061 82.448V90H233.669ZM229.253 90V85.264H230.629V90H229.253ZM245.878 90V88.672H246.966C246.79 87.92 246.694 87.12 246.694 86.304C246.694 85.12 246.87 83.936 247.158 82.992H246.054V81.648H251.782C252.23 81.648 252.582 82 252.582 82.448V90H251.19V82.992H248.582C248.294 83.904 248.086 84.896 248.086 86.112C248.086 86.896 248.182 87.776 248.406 88.672V90H245.878ZM257.815 86.864V85.92C258.215 85.36 258.727 84.704 258.727 83.504V82.976H255.783V81.648H260.007C260.087 82.016 260.103 82.352 260.103 82.832C260.103 84.864 259.511 86 258.615 86.864H257.815ZM263.479 90V88.656H267.815V82.992H263.815V81.648H268.391C268.855 81.648 269.191 82 269.191 82.448V88.656H270.119V90H263.479ZM33.8465 110.664V101.976H31.5585V100.648H35.2225V110.664H33.8465ZM42.0711 109V101.992H39.7031V100.648H43.4471V109H42.0711ZM48.1678 109V107.672H51.3358V101.992H49.3358V100.648H52.7118V108.2C52.7118 108.648 52.3918 109 51.9278 109H48.1678ZM60.0564 100.648L62.2964 108.472V109H61.0164L60.3124 106.552L57.4004 109H56.4244V108.104L59.9124 105.144L59.0164 101.992H57.5604V100.648H60.0564ZM70.313 100.648C70.729 100.648 71.049 100.968 71.049 101.384V105.88C71.049 108.104 69.561 109.208 68.073 109.208C66.601 109.208 65.145 108.136 65.145 105.992V101.992H64.505V100.648H70.313ZM69.673 106.12V101.976H66.521V105.96C66.521 107.224 67.337 107.848 68.137 107.848C68.905 107.848 69.673 107.272 69.673 106.12ZM86.5703 109V102.872C86.5703 102.36 86.2023 101.992 85.6903 101.992H82.2663V100.648H86.2023C87.2103 100.648 87.9623 101.4 87.9623 102.424V109H86.5703ZM95.0189 100.584C96.2189 100.584 97.0509 101.416 97.0509 102.648V109H93.8189V107.672H95.6749V102.984C95.6749 102.376 95.2429 101.928 94.6829 101.928C94.5869 101.928 94.5069 101.928 94.2509 101.976L92.6509 102.264L91.8509 109H90.5389V108.344L91.2749 102.168L90.5069 101.88V100.6H91.1309L92.3469 101L94.5069 100.632C94.6829 100.6 94.8589 100.584 95.0189 100.584ZM104.716 100.648H106.012V103.128C106.012 107.064 104.316 109 99.8835 109C99.5955 109 99.3875 108.744 99.3875 108.408V100.648H100.668V104.232C101.676 104.04 102.044 103.544 102.044 102.184V100.648H103.34V101.896C103.34 103.928 102.636 105.016 100.668 105.288V107.688C103.388 107.656 104.716 106.232 104.716 103.48V100.648ZM108.652 109V107.672H111.82V101.992H109.82V100.648H113.196V108.2C113.196 108.648 112.876 109 112.412 109H108.652ZM129.165 110.664V101.976H125.373V100.648H131.485V101.976H130.541V110.664H129.165ZM133.95 109V107.672H137.15C138.014 107.672 138.67 107.016 138.67 106.152V101.992H134.19V100.648H139.406C139.774 100.648 140.046 100.936 140.046 101.288V106.2C140.046 107.672 138.718 109 137.246 109H133.95ZM145.759 109V101.992H143.391V100.648H147.135V109H145.759ZM161.632 110.968V110.328C162.416 110.008 162.672 109.448 162.672 109.08C162.256 108.888 161.984 108.488 161.984 107.976C161.984 107.32 162.48 106.792 163.168 106.792C163.696 106.792 164.352 107.096 164.352 108.136C164.352 109.48 163.152 110.824 161.632 110.968ZM168.609 109V100.648H172.897C173.921 100.648 174.657 101.4 174.657 102.424V109H168.609ZM169.985 107.672H173.281V102.872C173.281 102.36 172.897 101.992 172.401 101.992H169.985V107.672ZM180.049 105.864V104.92C180.449 104.36 180.961 103.704 180.961 102.504V101.976H178.017V100.648H182.241C182.321 101.016 182.337 101.352 182.337 101.832C182.337 103.864 181.745 105 180.849 105.864H180.049ZM186.754 109C186.306 109 185.954 108.648 185.954 108.2V100.648H187.314V107.64H187.794C189.826 107.64 190.882 106.392 190.882 104.008V102.984C190.882 102.376 190.45 101.928 189.89 101.928C189.698 101.928 189.474 101.96 188.818 102.104L188.61 100.824C189.33 100.68 189.858 100.6 190.162 100.6C191.458 100.6 192.306 101.448 192.29 102.728L192.274 103.64C192.21 107.304 190.642 109 187.122 109H186.754ZM197.602 109V101.992H195.234V100.648H198.978V109H197.602ZM208.403 100.648H209.699V103.128C209.699 107.064 208.003 109 203.571 109C203.283 109 203.075 108.744 203.075 108.408V100.648H204.355V104.232C205.363 104.04 205.731 103.544 205.731 102.184V100.648H207.027V101.896C207.027 103.928 206.323 105.016 204.355 105.288V107.688C207.075 107.656 208.403 106.232 208.403 103.48V100.648ZM211.476 109V107.672H216.532L216.356 102.872C216.34 102.36 215.972 101.992 215.476 101.992H213.684L213.412 103.864C213.396 103.944 213.444 104.024 213.524 104.072L214.372 104.504V105.592H213.492L212.388 105.032C212.068 104.872 211.956 104.552 212.004 104.2L212.532 100.648H215.94C216.964 100.648 217.668 101.4 217.7 102.424L217.956 109H211.476ZM229.093 109V100.648H233.381C234.405 100.648 235.141 101.4 235.141 102.424V109H229.093ZM230.469 107.672H233.765V102.872C233.765 102.36 233.381 101.992 232.885 101.992H230.469V107.672ZM240.534 105.864V104.92C240.934 104.36 241.446 103.704 241.446 102.504V101.976H238.502V100.648H242.726C242.806 101.016 242.822 101.352 242.822 101.832C242.822 103.864 242.23 105 241.334 105.864H240.534ZM248.278 109V107.848C250.39 105.912 251.014 104.872 251.014 103.24V101.992H246.406V98.648H247.798V100.648H251.606C252.054 100.648 252.406 101 252.406 101.448V103.112C252.406 105.4 251.318 107.16 249.094 109H248.278ZM254.919 109V107.672H258.119C258.983 107.672 259.639 107.016 259.639 106.152V101.992H255.159V100.648H260.375C260.743 100.648 261.015 100.936 261.015 101.288V106.2C261.015 107.672 259.687 109 258.215 109H254.919ZM263.479 109V107.656H267.815V101.992H263.815V100.648H268.391C268.855 100.648 269.191 101 269.191 101.448V107.656H270.119V109H263.479ZM102.508 128.144C101.836 128.144 101.34 127.632 101.34 126.96C101.34 126.32 101.836 125.792 102.508 125.792C103.164 125.792 103.676 126.32 103.676 126.96C103.676 127.632 103.164 128.144 102.508 128.144ZM110.924 124.864V123.92C111.324 123.36 111.836 122.704 111.836 121.504V120.976H108.892V119.648H113.116C113.196 120.016 113.212 120.352 113.212 120.832C113.212 122.864 112.62 124 111.724 124.864H110.924ZM120.637 128V120.992H116.605V119.648H122.989V120.992H122.013V128H120.637ZM128.477 128V120.992H126.109V119.648H129.853V128H128.477ZM134.126 128V119.648H139.326C139.774 119.648 140.126 120 140.126 120.448V128H138.75V120.992H135.502V128H134.126ZM145.487 124.864V123.92C145.887 123.36 146.399 122.704 146.399 121.504V120.976H143.455V119.648H147.679C147.759 120.016 147.775 120.352 147.775 120.832C147.775 122.864 147.183 124 146.287 124.864H145.487ZM154.127 124.864V123.92C154.527 123.36 155.039 122.704 155.039 121.504V120.976H152.095V119.648H156.319C156.399 120.016 156.415 120.352 156.415 120.832C156.415 122.864 155.823 124 154.927 124.864H154.127ZM171.409 124.864V123.92C171.809 123.36 172.321 122.704 172.321 121.504V120.976H169.377V119.648H173.601C173.681 120.016 173.697 120.352 173.697 120.832C173.697 122.864 173.105 124 172.209 124.864H171.409ZM176.753 128V126.672H177.841C177.665 125.92 177.569 125.12 177.569 124.304C177.569 123.12 177.745 121.936 178.033 120.992H176.929V119.648H182.657C183.105 119.648 183.457 120 183.457 120.448V128H182.065V120.992H179.457C179.169 121.904 178.961 122.896 178.961 124.112C178.961 124.896 179.057 125.776 179.281 126.672V128H176.753ZM190.258 128V121.872C190.258 121.36 189.89 120.992 189.378 120.992H185.954V119.648H189.89C190.898 119.648 191.65 120.4 191.65 121.424V128H190.258ZM197.602 128V120.992H195.234V119.648H198.978V128H197.602ZM208.563 119.648C208.979 119.648 209.299 119.968 209.299 120.384V124.88C209.299 127.104 207.811 128.208 206.323 128.208C204.851 128.208 203.395 127.136 203.395 124.992V120.992H202.755V119.648H208.563ZM207.923 125.12V120.976H204.771V124.96C204.771 126.224 205.587 126.848 206.387 126.848C207.155 126.848 207.923 126.272 207.923 125.12ZM215.988 119.584C217.188 119.584 218.02 120.416 218.02 121.648V128H214.788V126.672H216.644V121.984C216.644 121.376 216.212 120.928 215.652 120.928C215.556 120.928 215.476 120.928 215.22 120.976L213.62 121.264L212.82 128H211.508V127.344L212.244 121.168L211.476 120.88V119.6H212.1L213.316 120L215.476 119.632C215.652 119.6 215.828 119.584 215.988 119.584ZM221.204 120.992V119.648H225.748V120.992H221.204ZM231.893 124.864V123.92C232.293 123.36 232.805 122.704 232.805 121.504V120.976H229.861V119.648H234.085C234.165 120.016 234.181 120.352 234.181 120.832C234.181 122.864 233.589 124 232.693 124.864H231.893ZM241.91 119.584C243.11 119.584 243.942 120.416 243.942 121.648V128H240.71V126.672H242.566V121.984C242.566 121.376 242.134 120.928 241.574 120.928C241.478 120.928 241.398 120.928 241.141 120.976L239.542 121.264L238.742 128H237.43V127.344L238.166 121.168L237.398 120.88V119.6H238.022L239.238 120L241.398 119.632C241.574 119.6 241.75 119.584 241.91 119.584ZM245.878 128V126.672H246.966C246.79 125.92 246.694 125.12 246.694 124.304C246.694 123.12 246.87 121.936 247.158 120.992H246.054V119.648H251.782C252.23 119.648 252.582 120 252.582 120.448V128H251.19V120.992H248.582C248.294 121.904 248.086 122.896 248.086 124.112C248.086 124.896 248.182 125.776 248.406 126.672V128H245.878ZM257.815 124.864V123.92C258.215 123.36 258.727 122.704 258.727 121.504V120.976H255.783V119.648H260.007C260.087 120.016 260.103 120.352 260.103 120.832C260.103 122.864 259.511 124 258.615 124.864H257.815ZM268.023 128V121.872C268.023 121.36 267.655 120.992 267.143 120.992H263.719V119.648H267.655C268.663 119.648 269.415 120.4 269.415 121.424V128H268.023Z" fill="white"/>
<line x1="524" y1="36.5" x2="323" y2="36.5" stroke="white"/>
</svg>
