<svg width="524" height="95" viewBox="0 0 524 95" fill="none" xmlns="http://www.w3.org/2000/svg">
<path d="M64.377 14.864L64.361 14.144L70.073 3.056H71.513L71.529 3.776L65.817 14.864H64.377ZM73.0176 14.864L73.0016 14.144L78.7136 3.056H80.1536L80.1696 3.776L74.4576 14.864H73.0176ZM90.6029 14V5.648H94.8909C96.1869 5.648 97.1309 6.608 97.1309 7.904V14H90.6029ZM92.4589 12.192H95.2749V8.352C95.2749 7.84 94.8909 7.472 94.3949 7.472H92.4589V12.192ZM101.964 10.928V9.984C102.652 9.024 102.876 8.464 102.876 7.728V7.456H99.9795V5.648H104.636C104.7 6 104.732 6.336 104.732 6.896C104.732 8.688 104.268 9.936 103.244 10.928H101.964ZM109.66 14V12.848C111.772 10.912 112.396 9.872 112.396 8.24V7.472H108.028V3.648H109.9V5.648H113.468C113.916 5.648 114.268 6 114.268 6.448V8.112C114.268 10.4 113.18 12.16 110.956 14H109.66ZM122.349 5.648C122.861 5.648 123.261 6.048 123.261 6.56V10.64C123.261 13.024 121.661 14.208 120.045 14.208C118.445 14.208 116.877 13.072 116.877 10.768V7.472H116.237V5.648H122.349ZM121.405 10.928V7.456H118.733V10.928C118.733 11.872 119.421 12.448 120.109 12.448C120.765 12.448 121.405 11.92 121.405 10.928ZM139.726 5.648C140.174 5.648 140.526 6 140.526 6.448V14H138.654V7.472H136.446C136.238 8.256 136.094 9.104 136.094 10.112C136.094 10.896 136.19 11.776 136.414 12.672V14H133.406V12.192H134.382C134.286 11.584 134.222 10.944 134.222 10.304C134.222 9.312 134.35 8.32 134.558 7.472H133.582V5.648H139.726ZM147.087 5.648H148.927V6.288C148.911 7.008 148.895 7.824 148.847 8.544C148.591 12.352 147.215 13.76 143.279 14.272L142.655 14.352H141.967V12.56C142.335 12.544 142.703 12.512 143.199 12.432L143.791 12.336L142.655 6.304V5.648H144.447L145.583 11.776C146.543 11.264 146.879 10.432 146.975 8.864C147.039 7.872 147.071 6.624 147.087 5.648ZM153.807 10.928V9.984C154.495 9.024 154.719 8.464 154.719 7.728V7.456H151.823V5.648H156.479C156.543 6 156.575 6.336 156.575 6.896C156.575 8.688 156.111 9.936 155.087 10.928H153.807ZM161.504 14V12.848C163.616 10.912 164.24 9.872 164.24 8.24V7.472H159.872V3.648H161.744V5.648H165.312C165.76 5.648 166.112 6 166.112 6.448V8.112C166.112 10.4 165.024 12.16 162.8 14H161.504ZM171.553 13.872V12.784C172.769 11.2 173.249 10 173.249 8.32V7.472H168.353V5.648H174.321C174.769 5.648 175.121 5.984 175.121 6.432V8C175.121 10.128 174.593 11.952 172.993 13.872H171.553ZM168.497 15.68V9.392H170.353V15.68H168.497ZM187.426 14V12.848C189.538 10.912 190.162 9.872 190.162 8.24V7.472H185.794V3.648H187.666V5.648H191.234C191.682 5.648 192.034 6 192.034 6.448V8.112C192.034 10.4 190.946 12.16 188.722 14H187.426ZM200.114 5.648C200.626 5.648 201.026 6.048 201.026 6.56V10.64C201.026 13.024 199.426 14.208 197.81 14.208C196.21 14.208 194.642 13.072 194.642 10.768V7.472H194.002V5.648H200.114ZM199.17 10.928V7.456H196.498V10.928C196.498 11.872 197.186 12.448 197.874 12.448C198.53 12.448 199.17 11.92 199.17 10.928ZM217.492 5.648C217.94 5.648 218.292 6 218.292 6.448V14H216.42V7.472H214.212C214.004 8.256 213.86 9.104 213.86 10.112C213.86 10.896 213.956 11.776 214.18 12.672V14H211.172V12.192H212.148C212.052 11.584 211.988 10.944 211.988 10.304C211.988 9.312 212.116 8.32 212.324 7.472H211.348V5.648H217.492ZM224.596 14V8.352C224.596 7.84 224.228 7.472 223.716 7.472H220.34V5.648H224.436C225.604 5.648 226.468 6.512 226.468 7.696V14H224.596ZM231.973 14V7.472H229.605V5.648H233.829V14H231.973ZM238.31 14C237.862 14 237.51 13.648 237.51 13.2V5.648H239.35V12.16H239.766C241.526 12.16 242.438 11.12 242.438 9.136V8.288C242.438 7.792 242.054 7.408 241.558 7.408C241.398 7.408 241.238 7.44 240.598 7.552L240.342 5.824C241.078 5.664 241.51 5.6 241.862 5.6C243.334 5.6 244.31 6.48 244.31 7.792V8.64C244.31 12.304 242.55 14 238.742 14H238.31ZM251.958 5.648C252.47 5.648 252.87 6.048 252.87 6.56V10.64C252.87 13.024 251.27 14.208 249.654 14.208C248.054 14.208 246.486 13.072 246.486 10.768V7.472H245.846V5.648H251.958ZM251.014 10.928V7.456H248.342V10.928C248.342 11.872 249.03 12.448 249.718 12.448C250.374 12.448 251.014 11.92 251.014 10.928ZM257.959 13.872V12.784C259.175 11.2 259.655 10 259.655 8.32V7.472H254.759V5.648H260.727C261.175 5.648 261.527 5.984 261.527 6.432V8C261.527 10.128 260.999 11.952 259.399 13.872H257.959ZM254.903 15.68V9.392H256.759V15.68H254.903ZM264.231 14C263.783 14 263.431 13.648 263.431 13.2V5.648H265.271V12.16H265.687C267.447 12.16 268.359 11.12 268.359 9.136V8.288C268.359 7.792 267.975 7.408 267.479 7.408C267.319 7.408 267.159 7.44 266.519 7.552L266.263 5.824C266.999 5.664 267.431 5.6 267.783 5.6C269.255 5.6 270.231 6.48 270.231 7.792V8.64C270.231 12.304 268.471 14 264.663 14H264.231ZM38.5031 52V50.672H39.5911C39.4151 49.92 39.3191 49.12 39.3191 48.304C39.3191 47.12 39.4951 45.936 39.7831 44.992H38.6791V43.648H44.4071C44.8551 43.648 45.2071 44 45.2071 44.448V52H43.8151V44.992H41.2071C40.9191 45.904 40.7111 46.896 40.7111 48.112C40.7111 48.896 40.8071 49.776 41.0311 50.672V52H38.5031ZM50.7118 52V44.992H48.3438V43.648H52.0878V52H50.7118ZM56.8084 52V50.672H59.9764V44.992H57.9764V43.648H61.3524V51.2C61.3524 51.648 61.0324 52 60.5684 52H56.8084ZM69.097 43.584C70.297 43.584 71.129 44.416 71.129 45.648V52H67.897V50.672H69.753V45.984C69.753 45.376 69.321 44.928 68.761 44.928C68.665 44.928 68.585 44.928 68.329 44.976L66.729 45.264L65.929 52H64.617V51.344L65.353 45.168L64.585 44.88V43.6H65.209L66.425 44L68.585 43.632C68.761 43.6 68.937 43.584 69.097 43.584ZM79.6896 44.672C79.6896 46.64 79.2416 47.44 77.6416 48.192L79.4656 51.056L79.4496 52H78.4096L75.6576 47.696C75.1136 48.272 74.8736 49.04 74.8736 50.192V52H73.4976V50.512C73.4976 48.656 73.9776 47.488 75.0336 46.72L73.6896 44.608L73.7056 43.648H74.7296L77.0496 47.28C78.0416 46.784 78.3136 46.32 78.3136 45.2V43.648H79.6896V44.672ZM95.4189 52V44.992H90.9069V43.648H96.0109C96.4589 43.648 96.8109 44 96.8109 44.448V52H95.4189ZM91.0029 52V47.264H92.3789V52H91.0029ZM98.9875 52V50.672H100.076C99.8995 49.92 99.8035 49.12 99.8035 48.304C99.8035 47.12 99.9795 45.936 100.268 44.992H99.1635V43.648H104.892C105.34 43.648 105.692 44 105.692 44.448V52H104.3V44.992H101.692C101.404 45.904 101.196 46.896 101.196 48.112C101.196 48.896 101.292 49.776 101.516 50.672V52H98.9875ZM110.924 48.864V47.92C111.324 47.36 111.836 46.704 111.836 45.504V44.976H108.892V43.648H113.116C113.196 44.016 113.212 44.352 113.212 44.832C113.212 46.864 112.62 48 111.724 48.864H110.924ZM119.565 48.864V47.92C119.965 47.36 120.477 46.704 120.477 45.504V44.976H117.533V43.648H121.757C121.837 44.016 121.853 44.352 121.853 44.832C121.853 46.864 121.261 48 120.365 48.864H119.565ZM129.981 52V44.992H125.469V43.648H130.573C131.021 43.648 131.373 44 131.373 44.448V52H129.981ZM125.565 52V47.264H126.941V52H125.565ZM144.591 52V50.848C146.703 48.912 147.327 47.872 147.327 46.24V44.992H142.719V41.648H144.111V43.648H147.919C148.367 43.648 148.719 44 148.719 44.448V46.112C148.719 48.4 147.631 50.16 145.407 52H144.591ZM154.431 51.872V50.784C155.743 49.2 156.255 48 156.255 46.32V44.992H151.231V43.648H156.847C157.295 43.648 157.647 43.984 157.647 44.432V46C157.647 48.128 157.087 49.952 155.391 51.872H154.431ZM151.375 53.664V47.072H152.751V53.664H151.375ZM163.84 52V44.992H159.808V43.648H166.192V44.992H165.216V52H163.84ZM172.785 43.584C173.985 43.584 174.817 44.416 174.817 45.648V52H171.585V50.672H173.441V45.984C173.441 45.376 173.009 44.928 172.449 44.928C172.353 44.928 172.273 44.928 172.016 44.976L170.417 45.264L169.617 52H168.305V51.344L169.041 45.168L168.273 44.88V43.6H168.897L170.113 44L172.273 43.632C172.449 43.6 172.625 43.584 172.785 43.584ZM185.89 52V43.648H190.178C191.202 43.648 191.938 44.4 191.938 45.424V52H185.89ZM187.266 50.672H190.562V45.872C190.562 45.36 190.178 44.992 189.682 44.992H187.266V50.672ZM197.33 48.864V47.92C197.73 47.36 198.242 46.704 198.242 45.504V44.976H195.298V43.648H199.522C199.602 44.016 199.618 44.352 199.618 44.832C199.618 46.864 199.026 48 198.13 48.864H197.33ZM205.075 52V50.848C207.187 48.912 207.811 47.872 207.811 46.24V44.992H203.203V41.648H204.595V43.648H208.403C208.851 43.648 209.203 44 209.203 44.448V46.112C209.203 48.4 208.115 50.16 205.891 52H205.075ZM217.204 43.648C217.62 43.648 217.94 43.968 217.94 44.384V48.88C217.94 51.104 216.452 52.208 214.964 52.208C213.492 52.208 212.036 51.136 212.036 48.992V44.992H211.396V43.648H217.204ZM216.564 49.12V44.976H213.412V48.96C213.412 50.224 214.228 50.848 215.028 50.848C215.796 50.848 216.564 50.272 216.564 49.12ZM228.597 52V50.672H229.685C229.509 49.92 229.413 49.12 229.413 48.304C229.413 47.12 229.589 45.936 229.877 44.992H228.773V43.648H234.501C234.949 43.648 235.301 44 235.301 44.448V52H233.909V44.992H231.301C231.013 45.904 230.805 46.896 230.805 48.112C230.805 48.896 230.901 49.776 231.125 50.672V52H228.597ZM242.502 43.648H243.862V44.288C243.846 45.008 243.83 45.824 243.782 46.544C243.526 50.384 242.102 51.776 238.214 52.272L237.59 52.352H237.382V51.024C237.766 50.992 238.118 50.96 238.47 50.896C238.758 50.848 239.03 50.8 239.286 50.736L238.07 44.304V43.648H239.382L240.614 50.304C241.75 49.76 242.246 48.832 242.39 46.912C242.47 45.856 242.486 44.528 242.502 43.648ZM249.174 48.864V47.92C249.574 47.36 250.086 46.704 250.086 45.504V44.976H247.142V43.648H251.366C251.446 44.016 251.462 44.352 251.462 44.832C251.462 46.864 250.87 48 249.974 48.864H249.174ZM256.919 52V50.848C259.031 48.912 259.655 47.872 259.655 46.24V44.992H255.047V41.648H256.439V43.648H260.247C260.695 43.648 261.047 44 261.047 44.448V46.112C261.047 48.4 259.959 50.16 257.735 52H256.919ZM266.759 51.872V50.784C268.071 49.2 268.583 48 268.583 46.32V44.992H263.559V43.648H269.175C269.623 43.648 269.975 43.984 269.975 44.432V46C269.975 48.128 269.415 49.952 267.719 51.872H266.759ZM263.703 53.664V47.072H265.079V53.664H263.703ZM4.43663 71V62.648H8.72463C9.74863 62.648 10.4846 63.4 10.4846 64.424V71H4.43663ZM5.81263 69.672H9.10863V64.872C9.10863 64.36 8.72463 63.992 8.22863 63.992H5.81263V69.672ZM15.8773 67.864V66.92C16.2773 66.36 16.7893 65.704 16.7893 64.504V63.976H13.8453V62.648H18.0693C18.1493 63.016 18.1653 63.352 18.1653 63.832C18.1653 65.864 17.5733 67 16.6773 67.864H15.8773ZM26.9499 62.648H28.2459V65.128C28.2459 69.064 26.5499 71 22.1179 71C21.8299 71 21.6219 70.744 21.6219 70.408V62.648H22.9019V66.232C23.9099 66.04 24.2779 65.544 24.2779 64.184V62.648H25.5739V63.896C25.5739 65.928 24.8699 67.016 22.9019 67.288V69.688C25.6219 69.656 26.9499 68.232 26.9499 65.48V62.648ZM30.8865 71V69.672H34.0545V63.992H32.0545V62.648H35.4305V70.2C35.4305 70.648 35.1105 71 34.6465 71H30.8865ZM43.5751 71V63.992H39.0631V62.648H44.1671C44.6151 62.648 44.9671 63 44.9671 63.448V71H43.5751ZM39.1591 71V66.264H40.5351V71H39.1591ZM59.3524 71V63.992H56.9844V62.648H60.7284V71H59.3524ZM70.153 62.648H71.449V65.128C71.449 69.064 69.753 71 65.321 71C65.033 71 64.825 70.744 64.825 70.408V62.648H66.105V66.232C67.113 66.04 67.481 65.544 67.481 64.184V62.648H68.777V63.896C68.777 65.928 68.073 67.016 66.105 67.288V69.688C68.825 69.656 70.153 68.232 70.153 65.48V62.648ZM77.7376 62.584C78.9376 62.584 79.7696 63.416 79.7696 64.648V71H76.5376V69.672H78.3936V64.984C78.3936 64.376 77.9616 63.928 77.4016 63.928C77.3056 63.928 77.2256 63.928 76.9696 63.976L75.3696 64.264L74.5696 71H73.2576V70.344L73.9936 64.168L73.2256 63.88V62.6H73.8496L75.0656 63L77.2256 62.632C77.4016 62.6 77.5776 62.584 77.7376 62.584ZM81.7063 71V69.672H82.7943C82.6183 68.92 82.5223 68.12 82.5223 67.304C82.5223 66.12 82.6983 64.936 82.9863 63.992H81.8823V62.648H87.6103C88.0583 62.648 88.4103 63 88.4103 63.448V71H87.0183V63.992H84.4103C84.1223 64.904 83.9143 65.896 83.9143 67.112C83.9143 67.896 84.0103 68.776 84.2343 69.672V71H81.7063ZM96.0749 62.648H97.3709V65.128C97.3709 69.064 95.6749 71 91.2429 71C90.9549 71 90.7469 70.744 90.7469 70.408V62.648H92.0269V66.232C93.0349 66.04 93.4029 65.544 93.4029 64.184V62.648H94.6989V63.896C94.6989 65.928 93.9949 67.016 92.0269 67.288V69.688C94.7469 69.656 96.0749 68.232 96.0749 65.48V62.648ZM104.06 71V63.992H99.5475V62.648H104.652C105.1 62.648 105.452 63 105.452 63.448V71H104.06ZM99.6435 71V66.264H101.02V71H99.6435ZM116.765 71V62.648H121.053C122.077 62.648 122.813 63.4 122.813 64.424V71H116.765ZM118.141 69.672H121.437V64.872C121.437 64.36 121.053 63.992 120.557 63.992H118.141V69.672ZM128.205 67.864V66.92C128.605 66.36 129.117 65.704 129.117 64.504V63.976H126.173V62.648H130.397C130.477 63.016 130.493 63.352 130.493 63.832C130.493 65.864 129.901 67 129.005 67.864H128.205ZM135.95 71V69.848C138.062 67.912 138.686 66.872 138.686 65.24V63.992H134.078V60.648H135.47V62.648H139.278C139.726 62.648 140.078 63 140.078 63.448V65.112C140.078 67.4 138.99 69.16 136.766 71H135.95ZM148.079 62.648C148.495 62.648 148.815 62.968 148.815 63.384V67.88C148.815 70.104 147.327 71.208 145.839 71.208C144.367 71.208 142.911 70.136 142.911 67.992V63.992H142.271V62.648H148.079ZM147.439 68.12V63.976H144.287V67.96C144.287 69.224 145.103 69.848 145.903 69.848C146.671 69.848 147.439 69.272 147.439 68.12ZM151.151 71V69.656H155.487V63.992H151.487V62.648H156.063C156.527 62.648 156.863 63 156.863 63.448V69.656H157.791V71H151.151ZM171.633 71.144C170.961 71.144 170.465 70.632 170.465 69.96C170.465 69.32 170.961 68.792 171.633 68.792C172.289 68.792 172.801 69.32 172.801 69.96C172.801 70.632 172.289 71.144 171.633 71.144ZM176.753 71V69.672H177.841C177.665 68.92 177.569 68.12 177.569 67.304C177.569 66.12 177.745 64.936 178.033 63.992H176.929V62.648H182.657C183.105 62.648 183.457 63 183.457 63.448V71H182.065V63.992H179.457C179.169 64.904 178.961 65.896 178.961 67.112C178.961 67.896 179.057 68.776 179.281 69.672V71H176.753ZM188.69 67.864V66.92C189.09 66.36 189.602 65.704 189.602 64.504V63.976H186.658V62.648H190.882C190.962 63.016 190.978 63.352 190.978 63.832C190.978 65.864 190.386 67 189.49 67.864H188.69ZM195.058 71V69.672H198.226V63.992H196.226V62.648H199.602V70.2C199.602 70.648 199.282 71 198.818 71H195.058ZM207.347 62.584C208.547 62.584 209.379 63.416 209.379 64.648V71H206.147V69.672H208.003V64.984C208.003 64.376 207.571 63.928 207.011 63.928C206.915 63.928 206.835 63.928 206.579 63.976L204.979 64.264L204.179 71H202.867V70.344L203.603 64.168L202.835 63.88V62.6H203.459L204.675 63L206.835 62.632C207.011 62.6 207.187 62.584 207.347 62.584ZM214.612 67.864V66.92C215.012 66.36 215.524 65.704 215.524 64.504V63.976H212.58V62.648H216.804C216.884 63.016 216.9 63.352 216.9 63.832C216.9 65.864 216.308 67 215.412 67.864H214.612ZM219.956 71V69.672H221.044C220.868 68.92 220.772 68.12 220.772 67.304C220.772 66.12 220.948 64.936 221.236 63.992H220.132V62.648H225.86C226.308 62.648 226.66 63 226.66 63.448V71H225.268V63.992H222.66C222.372 64.904 222.164 65.896 222.164 67.112C222.164 67.896 222.26 68.776 222.484 69.672V71H219.956ZM237.238 71V69.672H238.326C238.15 68.92 238.054 68.12 238.054 67.304C238.054 66.12 238.23 64.936 238.518 63.992H237.414V62.648H243.142C243.59 62.648 243.942 63 243.942 63.448V71H242.55V63.992H239.942C239.654 64.904 239.446 65.896 239.446 67.112C239.446 67.896 239.542 68.776 239.766 69.672V71H237.238ZM249.174 67.864V66.92C249.574 66.36 250.086 65.704 250.086 64.504V63.976H247.142V62.648H251.366C251.446 63.016 251.462 63.352 251.462 63.832C251.462 65.864 250.87 67 249.974 67.864H249.174ZM260.247 62.648H261.543V65.128C261.543 69.064 259.847 71 255.415 71C255.127 71 254.919 70.744 254.919 70.408V62.648H256.199V66.232C257.207 66.04 257.575 65.544 257.575 64.184V62.648H258.871V63.896C258.871 65.928 258.167 67.016 256.199 67.288V69.688C258.919 69.656 260.247 68.232 260.247 65.48V62.648ZM264.183 71V69.672H267.351V63.992H265.351V62.648H268.727V70.2C268.727 70.648 268.407 71 267.943 71H264.183ZM50.6638 90.144C49.9918 90.144 49.4958 89.632 49.4958 88.96C49.4958 88.32 49.9918 87.792 50.6638 87.792C51.3198 87.792 51.8318 88.32 51.8318 88.96C51.8318 89.632 51.3198 90.144 50.6638 90.144ZM56.2804 90V81.648H60.5684C61.5924 81.648 62.3284 82.4 62.3284 83.424V90H56.2804ZM57.6564 88.672H60.9524V83.872C60.9524 83.36 60.5684 82.992 60.0724 82.992H57.6564V88.672ZM67.721 86.864V85.92C68.121 85.36 68.633 84.704 68.633 83.504V82.976H65.689V81.648H69.913C69.993 82.016 70.009 82.352 70.009 82.832C70.009 84.864 69.417 86 68.521 86.864H67.721ZM77.4336 90V82.992H73.4016V81.648H79.7856V82.992H78.8096V90H77.4336ZM86.9703 81.648H88.3303V82.288C88.3143 83.008 88.2983 83.824 88.2503 84.544C87.9943 88.384 86.5703 89.776 82.6823 90.272L82.0583 90.352H81.8503V89.024C82.2343 88.992 82.5863 88.96 82.9383 88.896C83.2263 88.848 83.4983 88.8 83.7543 88.736L82.5383 82.304V81.648H83.8503L85.0823 88.304C86.2183 87.76 86.7143 86.832 86.8583 84.912C86.9383 83.856 86.9543 82.528 86.9703 81.648ZM93.9149 90V82.992H91.5469V81.648H95.2909V90H93.9149ZM103.66 81.584C104.86 81.584 105.692 82.416 105.692 83.648V90H102.46V88.672H104.316V83.984C104.316 83.376 103.884 82.928 103.324 82.928C103.228 82.928 103.148 82.928 102.891 82.976L101.292 83.264L100.492 90H99.1795V89.344L99.9155 83.168L99.1475 82.88V81.6H99.7715L100.988 82L103.148 81.632C103.324 81.6 103.5 81.584 103.66 81.584ZM111.196 90V82.992H108.828V81.648H112.572V90H111.196ZM127.069 91.968V91.328C127.853 91.008 128.109 90.448 128.109 90.08C127.693 89.888 127.421 89.488 127.421 88.976C127.421 88.32 127.917 87.792 128.605 87.792C129.133 87.792 129.789 88.096 129.789 89.136C129.789 90.48 128.589 91.824 127.069 91.968ZM134.046 90V81.648H138.334C139.358 81.648 140.094 82.4 140.094 83.424V90H134.046ZM135.422 88.672H138.718V83.872C138.718 83.36 138.334 82.992 137.838 82.992H135.422V88.672ZM145.487 86.864V85.92C145.887 85.36 146.399 84.704 146.399 83.504V82.976H143.455V81.648H147.679C147.759 82.016 147.775 82.352 147.775 82.832C147.775 84.864 147.183 86 146.287 86.864H145.487ZM156.095 81.648H157.455V82.288C157.439 83.008 157.423 83.824 157.375 84.544C157.119 88.384 155.695 89.776 151.807 90.272L151.183 90.352H150.975V89.024C151.359 88.992 151.711 88.96 152.063 88.896C152.351 88.848 152.623 88.8 152.879 88.736L151.663 82.304V81.648H152.975L154.207 88.304C155.343 87.76 155.839 86.832 155.983 84.912C156.063 83.856 156.079 82.528 156.095 81.648ZM163.04 90V82.992H160.672V81.648H164.416V90H163.04ZM172.977 90V83.872C172.977 83.36 172.609 82.992 172.097 82.992H168.673V81.648H172.609C173.617 81.648 174.369 82.4 174.369 83.424V90H172.977ZM180.049 86.864V85.92C180.449 85.36 180.961 84.704 180.961 83.504V82.976H178.017V81.648H182.241C182.321 82.016 182.337 82.352 182.337 82.832C182.337 84.864 181.745 86 180.849 86.864H180.049ZM192.018 82.672C192.018 84.64 191.57 85.44 189.97 86.192L191.794 89.056L191.778 90H190.738L187.986 85.696C187.442 86.272 187.202 87.04 187.202 88.192V90H185.826V88.512C185.826 86.656 186.306 85.488 187.362 84.72L186.018 82.608L186.034 81.648H187.058L189.378 85.28C190.37 84.784 190.642 84.32 190.642 83.2V81.648H192.018V82.672ZM204.835 91.968V91.328C205.619 91.008 205.875 90.448 205.875 90.08C205.459 89.888 205.187 89.488 205.187 88.976C205.187 88.32 205.683 87.792 206.371 87.792C206.899 87.792 207.555 88.096 207.555 89.136C207.555 90.48 206.355 91.824 204.835 91.968ZM211.812 90V81.648H216.1C217.124 81.648 217.86 82.4 217.86 83.424V90H211.812ZM213.188 88.672H216.484V83.872C216.484 83.36 216.1 82.992 215.604 82.992H213.188V88.672ZM223.524 90V82.992H221.156V81.648H224.9V90H223.524ZM231.893 86.864V85.92C232.293 85.36 232.805 84.704 232.805 83.504V82.976H229.861V81.648H234.085C234.165 82.016 234.181 82.352 234.181 82.832C234.181 84.864 233.589 86 232.693 86.864H231.893ZM241.91 81.584C243.11 81.584 243.942 82.416 243.942 83.648V90H240.71V88.672H242.566V83.984C242.566 83.376 242.134 82.928 241.574 82.928C241.478 82.928 241.398 82.928 241.141 82.976L239.542 83.264L238.742 90H237.43V89.344L238.166 83.168L237.398 82.88V81.6H238.022L239.238 82L241.398 81.632C241.574 81.6 241.75 81.584 241.91 81.584ZM249.446 90V82.992H247.078V81.648H250.822V90H249.446ZM257.815 86.864V85.92C258.215 85.36 258.727 84.704 258.727 83.504V82.976H255.783V81.648H260.007C260.087 82.016 260.103 82.352 260.103 82.832C260.103 84.864 259.511 86 258.615 86.864H257.815ZM263.479 90V88.656H267.815V82.992H263.815V81.648H268.391C268.855 81.648 269.191 82 269.191 82.448V88.656H270.119V90H263.479Z" fill="white"/>
<line x1="524" y1="36.5" x2="323" y2="36.5" stroke="white"/>
</svg>
