<svg width="414" height="411" viewBox="0 0 414 411" fill="none" xmlns="http://www.w3.org/2000/svg">
<line x1="0.5" y1="151" x2="0.500007" y2="-2.18557e-08" stroke="white"/>
<line x1="346" y1="150.5" x2="1" y2="150.5" stroke="white"/>
<line x1="345.5" y1="234" x2="345.5" y2="150" stroke="white"/>
<path d="M207.377 274.864L207.361 274.144L213.073 263.056H214.513L214.529 263.776L208.817 274.864H207.377ZM216.018 274.864L216.002 274.144L221.714 263.056H223.154L223.17 263.776L217.458 274.864H216.018ZM233.603 274V265.648H237.891C239.187 265.648 240.131 266.608 240.131 267.904V274H233.603ZM235.459 272.192H238.275V268.352C238.275 267.84 237.891 267.472 237.395 267.472H235.459V272.192ZM244.964 270.928V269.984C245.652 269.024 245.876 268.464 245.876 267.728V267.456H242.98V265.648H247.636C247.7 266 247.732 266.336 247.732 266.896C247.732 268.688 247.268 269.936 246.244 270.928H244.964ZM251.7 274C251.252 274 250.9 273.648 250.9 273.2V265.648H252.74V272.16H253.156C254.916 272.16 255.828 271.12 255.828 269.136V268.288C255.828 267.792 255.444 267.408 254.948 267.408C254.788 267.408 254.628 267.44 253.988 267.552L253.732 265.824C254.468 265.664 254.9 265.6 255.252 265.6C256.724 265.6 257.7 266.48 257.7 267.792V268.64C257.7 272.304 255.94 274 252.132 274H251.7ZM262.245 270.928V269.984C262.933 269.024 263.157 268.464 263.157 267.728V267.456H260.261V265.648H264.917C264.981 266 265.013 266.336 265.013 266.896C265.013 268.688 264.549 269.936 263.525 270.928H262.245ZM273.157 265.648H274.933V268.128C274.933 272.176 272.981 274 268.661 274C268.357 274 268.149 273.744 268.149 273.408V265.648H269.909V268.752C270.549 268.56 270.757 268.144 270.757 267.248V265.648H272.309V267.2C272.309 268.944 271.621 269.744 269.909 270.128V272.208C272.149 272.176 273.157 270.96 273.157 268.288V265.648ZM276.79 274V272.192H279.83C280.694 272.192 281.35 271.536 281.35 270.672V267.472H277.03V265.648H282.406C282.87 265.648 283.206 266 283.206 266.448V270.704C283.206 272.432 281.638 274 279.91 274H276.79ZM291.367 265.648C291.815 265.648 292.167 266 292.167 266.448V274H290.295V267.472H288.087C287.879 268.256 287.735 269.104 287.735 270.112C287.735 270.896 287.831 271.776 288.055 272.672V274H285.047V272.192H286.023C285.927 271.584 285.863 270.944 285.863 270.304C285.863 269.312 285.991 268.32 286.199 267.472H285.223V265.648H291.367ZM303.512 270.56V268.896H308.472V270.56H303.512ZM325.001 265.648H326.777V268.128C326.777 272.176 324.825 274 320.505 274C320.201 274 319.993 273.744 319.993 273.408V265.648H321.753V268.752C322.393 268.56 322.601 268.144 322.601 267.248V265.648H324.153V267.2C324.153 268.944 323.465 269.744 321.753 270.128V272.208C323.993 272.176 325.001 270.96 325.001 268.288V265.648ZM331.77 274V267.472H329.402V265.648H333.626V274H331.77ZM343.274 272.176H344.282V274H337.242V272.176H341.418V267.472H337.578V265.648H342.282C342.858 265.648 343.274 266.08 343.274 266.64V272.176ZM347.707 274V272.848C349.819 270.912 350.443 269.872 350.443 268.24V267.472H346.075V263.648H347.947V265.648H351.515C351.963 265.648 352.315 266 352.315 266.448V268.112C352.315 270.4 351.227 272.16 349.003 274H347.707ZM359.164 274V267.472H354.652V265.648H360.044C360.604 265.648 361.036 266.08 361.036 266.64V274H359.164ZM354.748 274V269.584H356.604V274H354.748ZM377.773 265.648C378.221 265.648 378.573 266 378.573 266.448V274H376.701V267.472H374.493C374.285 268.256 374.141 269.104 374.141 270.112C374.141 270.896 374.237 271.776 374.461 272.672V274H371.453V272.192H372.429C372.333 271.584 372.269 270.944 372.269 270.304C372.269 269.312 372.397 268.32 372.605 267.472H371.629V265.648H377.773ZM383.614 274V267.472H381.246V265.648H385.47V274H383.614ZM389.966 274V272.192H392.83V267.472H390.974V265.648H394.686V273.2C394.686 273.648 394.35 274 393.902 274H389.966ZM397.519 274V273.408L398.255 267.696L397.423 267.408V265.584H398.047L399.455 265.984L401.631 265.632C401.823 265.6 402.031 265.584 402.223 265.584C403.535 265.584 404.527 266.576 404.527 267.872V274H400.815V272.192H402.671V268.272C402.671 267.792 402.319 267.44 401.807 267.44C401.695 267.44 401.599 267.44 401.423 267.472L400.079 267.648L399.327 274H397.519ZM413.071 266.672C413.071 268.592 412.655 269.36 411.039 270.224L412.847 273.056L412.831 274H411.199L408.655 270.016C408.255 270.64 408.143 271.344 408.143 272.192V274H406.287V272.512C406.287 270.896 406.575 269.664 407.823 268.704L406.479 266.608L406.495 265.648H408.111L410.303 269.088C411.023 268.656 411.215 268.16 411.215 267.2V265.648H413.071V266.672ZM178.591 303.648H179.887V306.128C179.887 310.064 178.191 312 173.759 312C173.471 312 173.263 311.744 173.263 311.408V303.648H174.543V307.232C175.551 307.04 175.919 306.544 175.919 305.184V303.648H177.215V304.896C177.215 306.928 176.511 308.016 174.543 308.288V310.688C177.263 310.656 178.591 309.232 178.591 306.48V303.648ZM185.871 312V304.992H181.839V303.648H188.223V304.992H187.247V312H185.871ZM193.744 311.872V310.784C195.056 309.2 195.568 308 195.568 306.32V304.992H190.544V303.648H196.16C196.608 303.648 196.96 303.984 196.96 304.432V306C196.96 308.128 196.4 309.952 194.704 311.872H193.744ZM190.688 313.664V307.072H192.064V313.664H190.688ZM202.352 312V304.992H199.984V303.648H203.728V312H202.352ZM212.097 303.584C213.297 303.584 214.129 304.416 214.129 305.648V312H210.897V310.672H212.753V305.984C212.753 305.376 212.321 304.928 211.761 304.928C211.665 304.928 211.585 304.928 211.329 304.976L209.729 305.264L208.929 312H207.617V311.344L208.353 305.168L207.585 304.88V303.6H208.209L209.425 304L211.585 303.632C211.761 303.6 211.937 303.584 212.097 303.584ZM229.778 312V304.992H225.266V303.648H230.37C230.818 303.648 231.17 304 231.17 304.448V312H229.778ZM225.362 312V307.264H226.738V312H225.362ZM234.371 312V310.672H237.539V304.992H235.539V303.648H238.915V311.2C238.915 311.648 238.595 312 238.131 312H234.371ZM245.556 312V304.992H243.188V303.648H246.932V312H245.556ZM250.628 312V310.672H251.716C251.54 309.92 251.444 309.12 251.444 308.304C251.444 307.12 251.62 305.936 251.908 304.992H250.804V303.648H256.532C256.98 303.648 257.332 304 257.332 304.448V312H255.94V304.992H253.332C253.044 305.904 252.836 306.896 252.836 308.112C252.836 308.896 252.932 309.776 253.156 310.672V312H250.628ZM259.845 312V303.648H265.045C265.493 303.648 265.845 304 265.845 304.448V312H264.469V304.992H261.221V312H259.845ZM272.981 312V304.992H268.469V303.648H273.573C274.021 303.648 274.373 304 274.373 304.448V312H272.981ZM268.565 312V307.264H269.941V312H268.565ZM288.487 308.864V307.92C288.887 307.36 289.399 306.704 289.399 305.504V304.976H286.455V303.648H290.679C290.759 304.016 290.775 304.352 290.775 304.832C290.775 306.864 290.183 308 289.287 308.864H288.487ZM298.103 303.648L300.343 311.472V312H299.063L298.359 309.552L295.447 312H294.471V311.104L297.959 308.144L297.063 304.992H295.607V303.648H298.103ZM307.544 312V304.992H303.032V303.648H308.136C308.584 303.648 308.936 304 308.936 304.448V312H307.544ZM303.128 312V307.264H304.504V312H303.128ZM312.137 312V310.672H315.305V304.992H313.305V303.648H316.681V311.2C316.681 311.648 316.361 312 315.897 312H312.137ZM324.425 303.584C325.625 303.584 326.457 304.416 326.457 305.648V312H323.225V310.672H325.081V305.984C325.081 305.376 324.649 304.928 324.089 304.928C323.993 304.928 323.913 304.928 323.657 304.976L322.057 305.264L321.257 312H319.945V311.344L320.681 305.168L319.913 304.88V303.6H320.537L321.753 304L323.913 303.632C324.089 303.6 324.265 303.584 324.425 303.584ZM333.066 303.584C334.266 303.584 335.098 304.416 335.098 305.648V312H331.866V310.672H333.722V305.984C333.722 305.376 333.29 304.928 332.73 304.928C332.634 304.928 332.554 304.928 332.298 304.976L330.698 305.264L329.898 312H328.586V311.344L329.322 305.168L328.554 304.88V303.6H329.178L330.394 304L332.554 303.632C332.73 303.6 332.906 303.584 333.066 303.584ZM345.995 312V310.656H350.331V304.992H346.331V303.648H350.907C351.371 303.648 351.707 304 351.707 304.448V310.656H352.635V312H345.995ZM357.884 312V304.992H355.516V303.648H359.26V312H357.884ZM368.684 303.648H369.98V306.128C369.98 310.064 368.284 312 363.852 312C363.564 312 363.356 311.744 363.356 311.408V303.648H364.636V307.232C365.644 307.04 366.012 306.544 366.012 305.184V303.648H367.308V304.896C367.308 306.928 366.604 308.016 364.636 308.288V310.688C367.356 310.656 368.684 309.232 368.684 306.48V303.648ZM372.173 312V303.648H377.373C377.821 303.648 378.173 304 378.173 304.448V312H376.797V304.992H373.549V312H372.173ZM392.478 311.872V310.784C393.79 309.2 394.302 308 394.302 306.32V304.992H389.278V303.648H394.894C395.342 303.648 395.694 303.984 395.694 304.432V306C395.694 308.128 395.134 309.952 393.438 311.872H392.478ZM389.422 313.664V307.072H390.798V313.664H389.422ZM399.919 312V310.848C402.031 308.912 402.655 307.872 402.655 306.24V304.992H398.047V301.648H399.439V303.648H403.247C403.695 303.648 404.047 304 404.047 304.448V306.112C404.047 308.4 402.959 310.16 400.735 312H399.919ZM406.735 312V303.648H411.935C412.383 303.648 412.735 304 412.735 304.448V312H411.359V304.992H408.111V312H406.735ZM143.164 331V324.872C143.164 324.36 142.796 323.992 142.284 323.992H138.86V322.648H142.796C143.804 322.648 144.556 323.4 144.556 324.424V331H143.164ZM150.509 331V323.992H148.141V322.648H151.885V331H150.509ZM156.941 331C156.493 331 156.141 330.648 156.141 330.2V322.648H157.501V329.64H157.981C160.013 329.64 161.069 328.392 161.069 326.008V324.984C161.069 324.376 160.637 323.928 160.077 323.928C159.885 323.928 159.661 323.96 159.005 324.104L158.797 322.824C159.517 322.68 160.045 322.6 160.349 322.6C161.645 322.6 162.493 323.448 162.477 324.728L162.461 325.64C162.397 329.304 160.829 331 157.309 331H156.941ZM167.518 327.864V326.92C167.918 326.36 168.43 325.704 168.43 324.504V323.976H165.486V322.648H169.71C169.79 323.016 169.806 323.352 169.806 323.832C169.806 325.864 169.214 327 168.318 327.864H167.518ZM178.127 322.648H179.487V323.288C179.471 324.008 179.455 324.824 179.407 325.544C179.151 329.384 177.727 330.776 173.839 331.272L173.215 331.352H173.007V330.024C173.391 329.992 173.743 329.96 174.095 329.896C174.383 329.848 174.655 329.8 174.911 329.736L173.695 323.304V322.648H175.007L176.239 329.304C177.375 328.76 177.871 327.832 178.015 325.912C178.095 324.856 178.111 323.528 178.127 322.648ZM181.823 331V329.656H186.159V323.992H182.159V322.648H186.735C187.199 322.648 187.535 323 187.535 323.448V329.656H188.463V331H181.823ZM203.84 332.664V323.976H201.072L200.768 326.376C200.752 326.456 200.784 326.536 200.88 326.584L201.712 327V328.104H200.8L199.696 327.544C199.392 327.384 199.28 327.064 199.328 326.696L199.808 323.24C199.856 322.856 200.208 322.648 200.608 322.648H204.432C204.88 322.648 205.216 322.984 205.216 323.432V332.664H203.84ZM213.313 322.648C213.729 322.648 214.049 322.968 214.049 323.384V327.88C214.049 330.104 212.561 331.208 211.073 331.208C209.601 331.208 208.145 330.136 208.145 327.992V323.992H207.505V322.648H213.313ZM212.673 328.12V323.976H209.521V327.96C209.521 329.224 210.337 329.848 211.137 329.848C211.905 329.848 212.673 329.272 212.673 328.12ZM216.466 331V329.672H219.666C220.53 329.672 221.186 329.016 221.186 328.152V323.992H216.706V322.648H221.922C222.29 322.648 222.562 322.936 222.562 323.288V328.2C222.562 329.672 221.234 331 219.762 331H216.466ZM233.347 331V329.672H234.435C234.259 328.92 234.163 328.12 234.163 327.304C234.163 326.12 234.339 324.936 234.627 323.992H233.523V322.648H239.251C239.699 322.648 240.051 323 240.051 323.448V331H238.659V323.992H236.051C235.763 324.904 235.555 325.896 235.555 327.112C235.555 327.896 235.651 328.776 235.875 329.672V331H233.347ZM245.556 331V323.992H243.188V322.648H246.932V331H245.556ZM254.996 331V323.992H250.964V322.648H257.348V323.992H256.372V331H254.996ZM262.837 331V323.992H260.469V322.648H264.213V331H262.837ZM268.229 331V329.656H272.565V323.992H268.565V322.648H273.141C273.605 322.648 273.941 323 273.941 323.448V329.656H274.869V331H268.229ZM281.814 322.648H283.174V323.288C283.158 324.008 283.142 324.824 283.094 325.544C282.838 329.384 281.414 330.776 277.526 331.272L276.902 331.352H276.694V330.024C277.078 329.992 277.43 329.96 277.782 329.896C278.07 329.848 278.342 329.8 278.598 329.736L277.382 323.304V322.648H278.694L279.926 329.304C281.062 328.76 281.558 327.832 281.702 325.912C281.782 324.856 281.798 323.528 281.814 322.648ZM294.343 327.288V326.024H300.359V327.288H294.343ZM316.185 331V323.992H311.673V322.648H316.777C317.225 322.648 317.577 323 317.577 323.448V331H316.185ZM311.769 331V326.264H313.145V331H311.769ZM322.153 331V329.848C324.265 327.912 324.889 326.872 324.889 325.24V323.992H320.281V320.648H321.673V322.648H325.481C325.929 322.648 326.281 323 326.281 323.448V325.112C326.281 327.4 325.193 329.16 322.969 331H322.153ZM328.794 331V329.672H331.994C332.858 329.672 333.514 329.016 333.514 328.152V323.992H329.034V322.648H334.25C334.618 322.648 334.89 322.936 334.89 323.288V328.2C334.89 329.672 333.562 331 332.09 331H328.794ZM342.106 331V323.992H337.594V322.648H342.698C343.146 322.648 343.498 323 343.498 323.448V331H342.106ZM337.69 331V326.264H339.066V331H337.69ZM357.612 327.864V326.92C358.012 326.36 358.524 325.704 358.524 324.504V323.976H355.58V322.648H359.804C359.884 323.016 359.9 323.352 359.9 323.832C359.9 325.864 359.308 327 358.412 327.864H357.612ZM364.316 331C363.868 331 363.516 330.648 363.516 330.2V322.648H364.876V329.64H365.356C367.388 329.64 368.444 328.392 368.444 326.008V324.984C368.444 324.376 368.012 323.928 367.452 323.928C367.26 323.928 367.036 323.96 366.38 324.104L366.172 322.824C366.892 322.68 367.42 322.6 367.724 322.6C369.02 322.6 369.868 323.448 369.852 324.728L369.836 325.64C369.772 329.304 368.204 331 364.684 331H364.316ZM374.893 327.864V326.92C375.293 326.36 375.805 325.704 375.805 324.504V323.976H372.861V322.648H377.085C377.165 323.016 377.181 323.352 377.181 323.832C377.181 325.864 376.589 327 375.693 327.864H374.893ZM385.966 322.648H387.262V325.128C387.262 329.064 385.566 331 381.134 331C380.846 331 380.638 330.744 380.638 330.408V322.648H381.918V326.232C382.926 326.04 383.294 325.544 383.294 324.184V322.648H384.59V323.896C384.59 325.928 383.886 327.016 381.918 327.288V329.688C384.638 329.656 385.966 328.232 385.966 325.48V322.648ZM389.278 331V329.672H392.478C393.342 329.672 393.998 329.016 393.998 328.152V323.992H389.518V322.648H394.734C395.102 322.648 395.374 322.936 395.374 323.288V328.2C395.374 329.672 394.046 331 392.574 331H389.278ZM397.519 331V329.672H398.607C398.431 328.92 398.335 328.12 398.335 327.304C398.335 326.12 398.511 324.936 398.799 323.992H397.695V322.648H403.423C403.871 322.648 404.223 323 404.223 323.448V331H402.831V323.992H400.223C399.935 324.904 399.727 325.896 399.727 327.112C399.727 327.896 399.823 328.776 400.047 329.672V331H397.519ZM408.559 331V329.848C410.671 327.912 411.295 326.872 411.295 325.24V323.992H406.687V320.648H408.079V322.648H411.887C412.335 322.648 412.687 323 412.687 323.448V325.112C412.687 327.4 411.599 329.16 409.375 331H408.559ZM121.515 350V341.648H125.803C126.827 341.648 127.563 342.4 127.563 343.424V350H121.515ZM122.891 348.672H126.187V343.872C126.187 343.36 125.803 342.992 125.307 342.992H122.891V348.672ZM132.955 346.864V345.92C133.355 345.36 133.867 344.704 133.867 343.504V342.976H130.923V341.648H135.147C135.227 342.016 135.243 342.352 135.243 342.832C135.243 344.864 134.651 346 133.755 346.864H132.955ZM143.164 350V343.872C143.164 343.36 142.796 342.992 142.284 342.992H138.86V341.648H142.796C143.804 341.648 144.556 342.4 144.556 343.424V350H143.164ZM147.261 350V348.656H151.597V342.992H147.597V341.648H152.173C152.637 341.648 152.973 342 152.973 342.448V348.656H153.901V350H147.261ZM159.853 341.648L162.093 349.472V350H160.813L160.109 347.552L157.197 350H156.221V349.104L159.709 346.144L158.813 342.992H157.357V341.648H159.853ZM176.159 346.864V345.92C176.559 345.36 177.071 344.704 177.071 343.504V342.976H174.127V341.648H178.351C178.431 342.016 178.447 342.352 178.447 342.832C178.447 344.864 177.855 346 176.959 346.864H176.159ZM185.871 350V342.992H181.839V341.648H188.223V342.992H187.247V350H185.871ZM193.44 346.864V345.92C193.84 345.36 194.352 344.704 194.352 343.504V342.976H191.408V341.648H195.632C195.712 342.016 195.728 342.352 195.728 342.832C195.728 344.864 195.136 346 194.24 346.864H193.44ZM209.825 350V348.848C211.937 346.912 212.561 345.872 212.561 344.24V342.992H207.953V339.648H209.345V341.648H213.153C213.601 341.648 213.953 342 213.953 342.448V344.112C213.953 346.4 212.865 348.16 210.641 350H209.825ZM221.33 341.648H222.69V342.288C222.674 343.008 222.658 343.824 222.61 344.544C222.354 348.384 220.93 349.776 217.042 350.272L216.418 350.352H216.21V349.024C216.594 348.992 216.946 348.96 217.298 348.896C217.586 348.848 217.858 348.8 218.114 348.736L216.898 342.304V341.648H218.21L219.442 348.304C220.578 347.76 221.074 346.832 221.218 344.912C221.298 343.856 221.314 342.528 221.33 341.648ZM236.915 350V342.992H234.547V341.648H238.291V350H236.915ZM247.716 341.648H249.012V344.128C249.012 348.064 247.316 350 242.884 350C242.596 350 242.388 349.744 242.388 349.408V341.648H243.668V345.232C244.676 345.04 245.044 344.544 245.044 343.184V341.648H246.34V342.896C246.34 344.928 245.636 346.016 243.668 346.288V348.688C246.388 348.656 247.716 347.232 247.716 344.48V341.648ZM255.892 341.648H257.252V342.288C257.236 343.008 257.22 343.824 257.172 344.544C256.916 348.384 255.492 349.776 251.604 350.272L250.98 350.352H250.772V349.024C251.156 348.992 251.508 348.96 251.86 348.896C252.148 348.848 252.42 348.8 252.676 348.736L251.46 342.304V341.648H252.772L254.004 348.304C255.14 347.76 255.636 346.832 255.78 344.912C255.86 343.856 255.876 342.528 255.892 341.648ZM260.293 350V348.672H263.461V342.992H261.461V341.648H264.837V349.2C264.837 349.648 264.517 350 264.053 350H260.293ZM273.637 341.648H274.933V344.128C274.933 348.064 273.237 350 268.805 350C268.517 350 268.309 349.744 268.309 349.408V341.648H269.589V345.232C270.597 345.04 270.965 344.544 270.965 343.184V341.648H272.261V342.896C272.261 344.928 271.557 346.016 269.589 346.288V348.688C272.309 348.656 273.637 347.232 273.637 344.48V341.648ZM287.351 351.968V351.328C288.135 351.008 288.391 350.448 288.391 350.08C287.975 349.888 287.703 349.488 287.703 348.976C287.703 348.32 288.199 347.792 288.887 347.792C289.415 347.792 290.071 348.096 290.071 349.136C290.071 350.48 288.871 351.824 287.351 351.968ZM293.831 350V348.672H294.919C294.743 347.92 294.647 347.12 294.647 346.304C294.647 345.12 294.823 343.936 295.111 342.992H294.007V341.648H299.735C300.183 341.648 300.535 342 300.535 342.448V350H299.143V342.992H296.535C296.247 343.904 296.039 344.896 296.039 346.112C296.039 346.896 296.135 347.776 296.359 348.672V350H293.831ZM306.04 350V342.992H303.672V341.648H307.416V350H306.04ZM314.409 346.864V345.92C314.809 345.36 315.321 344.704 315.321 343.504V342.976H312.377V341.648H316.601C316.681 342.016 316.697 342.352 316.697 342.832C316.697 344.864 316.105 346 315.209 346.864H314.409ZM320.777 350V348.672H323.945V342.992H321.945V341.648H325.321V349.2C325.321 349.648 325.001 350 324.537 350H320.777ZM331.962 350V342.992H329.594V341.648H333.338V350H331.962ZM342.298 341.648H343.658V342.288C343.642 343.008 343.626 343.824 343.578 344.544C343.322 348.384 341.898 349.776 338.01 350.272L337.386 350.352H337.178V349.024C337.562 348.992 337.914 348.96 338.266 348.896C338.554 348.848 338.826 348.8 339.082 348.736L337.866 342.304V341.648H339.178L340.41 348.304C341.546 347.76 342.042 346.832 342.186 344.912C342.266 343.856 342.282 342.528 342.298 341.648ZM345.995 350V348.656H350.331V342.992H346.331V341.648H350.907C351.371 341.648 351.707 342 351.707 342.448V348.656H352.635V350H345.995ZM360.732 342.784C360.732 344.608 360.316 345.296 358.812 345.936L360.652 348.704V350H354.812V348.672H359.084L354.892 342.608V341.648H355.964L358.236 345.056C359.116 344.688 359.356 344.304 359.356 343.296V341.648H360.732V342.784ZM372.093 350V341.648H376.381C377.405 341.648 378.141 342.4 378.141 343.424V350H372.093ZM373.469 348.672H376.765V343.872C376.765 343.36 376.381 342.992 375.885 342.992H373.469V348.672ZM383.534 346.864V345.92C383.934 345.36 384.446 344.704 384.446 343.504V342.976H381.502V341.648H385.726C385.806 342.016 385.822 342.352 385.822 342.832C385.822 344.864 385.23 346 384.334 346.864H383.534ZM389.902 350V348.672H393.07V342.992H391.07V341.648H394.446V349.2C394.446 349.648 394.126 350 393.662 350H389.902ZM397.839 350V348.656H402.175V342.992H398.175V341.648H402.751C403.215 341.648 403.551 342 403.551 342.448V348.656H404.479V350H397.839ZM412.783 342.672C412.783 344.64 412.335 345.44 410.735 346.192L412.559 349.056L412.543 350H411.503L408.751 345.696C408.207 346.272 407.967 347.04 407.967 348.192V350H406.591V348.512C406.591 346.656 407.071 345.488 408.127 344.72L406.783 342.608L406.799 341.648H407.823L410.143 345.28C411.135 344.784 411.407 344.32 411.407 343.2V341.648H412.783V342.672ZM112.874 369V360.648H117.162C118.186 360.648 118.922 361.4 118.922 362.424V369H112.874ZM114.25 367.672H117.546V362.872C117.546 362.36 117.162 361.992 116.666 361.992H114.25V367.672ZM124.315 365.864V364.92C124.715 364.36 125.227 363.704 125.227 362.504V361.976H122.283V360.648H126.507C126.587 361.016 126.603 361.352 126.603 361.832C126.603 363.864 126.011 365 125.115 365.864H124.315ZM130.683 369V367.672H133.851V361.992H131.851V360.648H135.227V368.2C135.227 368.648 134.907 369 134.443 369H130.683ZM139.66 369C139.212 369 138.86 368.648 138.86 368.2V360.648H140.22V367.64H140.7C142.732 367.64 143.788 366.392 143.788 364.008V362.984C143.788 362.376 143.356 361.928 142.796 361.928C142.604 361.928 142.38 361.96 141.724 362.104L141.516 360.824C142.236 360.68 142.764 360.6 143.068 360.6C144.364 360.6 145.212 361.448 145.196 362.728L145.18 363.64C145.116 367.304 143.548 369 140.028 369H139.66ZM150.541 368.872V367.784C151.853 366.2 152.365 365 152.365 363.32V361.992H147.341V360.648H152.957C153.405 360.648 153.757 360.984 153.757 361.432V363C153.757 365.128 153.197 366.952 151.501 368.872H150.541ZM147.485 370.664V364.072H148.861V370.664H147.485ZM164.718 369V360.648H169.006C170.03 360.648 170.766 361.4 170.766 362.424V369H164.718ZM166.094 367.672H169.39V362.872C169.39 362.36 169.006 361.992 168.51 361.992H166.094V367.672ZM176.159 365.864V364.92C176.559 364.36 177.071 363.704 177.071 362.504V361.976H174.127V360.648H178.351C178.431 361.016 178.447 361.352 178.447 361.832C178.447 363.864 177.855 365 176.959 365.864H176.159ZM185.103 368.872V367.784C186.415 366.2 186.927 365 186.927 363.32V361.992H181.903V360.648H187.519C187.967 360.648 188.319 360.984 188.319 361.432V363C188.319 365.128 187.759 366.952 186.063 368.872H185.103ZM182.047 370.664V364.072H183.423V370.664H182.047ZM192.544 369V367.848C194.656 365.912 195.28 364.872 195.28 363.24V361.992H190.672V358.648H192.064V360.648H195.872C196.32 360.648 196.672 361 196.672 361.448V363.112C196.672 365.4 195.584 367.16 193.36 369H192.544ZM199.36 369V360.648H204.56C205.008 360.648 205.36 361 205.36 361.448V369H203.984V361.992H200.736V369H199.36ZM212.097 360.584C213.297 360.584 214.129 361.416 214.129 362.648V369H210.897V367.672H212.753V362.984C212.753 362.376 212.321 361.928 211.761 361.928C211.665 361.928 211.585 361.928 211.329 361.976L209.729 362.264L208.929 369H207.617V368.344L208.353 362.168L207.585 361.88V360.6H208.209L209.425 361L211.585 360.632C211.761 360.6 211.937 360.584 212.097 360.584ZM225.026 369V367.656H229.362V361.992H225.362V360.648H229.938C230.402 360.648 230.738 361 230.738 361.448V367.656H231.666V369H225.026ZM233.747 369V367.672H236.947C237.811 367.672 238.467 367.016 238.467 366.152V361.992H233.987V360.648H239.203C239.571 360.648 239.843 360.936 239.843 361.288V366.2C239.843 367.672 238.515 369 237.043 369H233.747ZM246.852 369V362.872C246.852 362.36 246.484 361.992 245.972 361.992H242.548V360.648H246.484C247.492 360.648 248.244 361.4 248.244 362.424V369H246.852ZM254.196 369V361.992H251.828V360.648H255.572V369H254.196ZM263.941 360.584C265.141 360.584 265.973 361.416 265.973 362.648V369H262.741V367.672H264.597V362.984C264.597 362.376 264.165 361.928 263.605 361.928C263.509 361.928 263.429 361.928 263.173 361.976L261.573 362.264L260.773 369H259.461V368.344L260.197 362.168L259.429 361.88V360.6H260.053L261.269 361L263.429 360.632C263.605 360.6 263.781 360.584 263.941 360.584ZM277.91 369C277.462 369 277.11 368.648 277.11 368.2V360.648H278.47V367.64H278.95C280.982 367.64 282.038 366.392 282.038 364.008V362.984C282.038 362.376 281.606 361.928 281.046 361.928C280.854 361.928 280.63 361.96 279.974 362.104L279.766 360.824C280.486 360.68 281.014 360.6 281.318 360.6C282.614 360.6 283.462 361.448 283.446 362.728L283.43 363.64C283.366 367.304 281.798 369 278.278 369H277.91ZM288.487 365.864V364.92C288.887 364.36 289.399 363.704 289.399 362.504V361.976H286.455V360.648H290.679C290.759 361.016 290.775 361.352 290.775 361.832C290.775 363.864 290.183 365 289.287 365.864H288.487ZM299.559 360.648H300.855V363.128C300.855 367.064 299.159 369 294.727 369C294.439 369 294.231 368.744 294.231 368.408V360.648H295.511V364.232C296.519 364.04 296.887 363.544 296.887 362.184V360.648H298.183V361.896C298.183 363.928 297.479 365.016 295.511 365.288V367.688C298.231 367.656 299.559 366.232 299.559 363.48V360.648ZM302.872 369V367.672H306.072C306.936 367.672 307.592 367.016 307.592 366.152V361.992H303.112V360.648H308.328C308.696 360.648 308.968 360.936 308.968 361.288V366.2C308.968 367.672 307.64 369 306.168 369H302.872ZM311.113 369V367.672H312.201C312.025 366.92 311.929 366.12 311.929 365.304C311.929 364.12 312.105 362.936 312.393 361.992H311.289V360.648H317.017C317.465 360.648 317.817 361 317.817 361.448V369H316.425V361.992H313.817C313.529 362.904 313.321 363.896 313.321 365.112C313.321 365.896 313.417 366.776 313.641 367.672V369H311.113ZM330.794 369V367.848C332.906 365.912 333.53 364.872 333.53 363.24V361.992H328.922V358.648H330.314V360.648H334.122C334.57 360.648 334.922 361 334.922 361.448V363.112C334.922 365.4 333.834 367.16 331.61 369H330.794ZM337.434 369V367.672H340.634C341.498 367.672 342.154 367.016 342.154 366.152V361.992H337.674V360.648H342.89C343.258 360.648 343.53 360.936 343.53 361.288V366.2C343.53 367.672 342.202 369 340.73 369H337.434ZM357.836 369.144C357.164 369.144 356.668 368.632 356.668 367.96C356.668 367.32 357.164 366.792 357.836 366.792C358.492 366.792 359.004 367.32 359.004 367.96C359.004 368.632 358.492 369.144 357.836 369.144ZM363.452 369V360.648H367.74C368.764 360.648 369.5 361.4 369.5 362.424V369H363.452ZM364.828 367.672H368.124V362.872C368.124 362.36 367.74 361.992 367.244 361.992H364.828V367.672ZM374.893 365.864V364.92C375.293 364.36 375.805 363.704 375.805 362.504V361.976H372.861V360.648H377.085C377.165 361.016 377.181 361.352 377.181 361.832C377.181 363.864 376.589 365 375.693 365.864H374.893ZM380.398 369V367.672H385.454L385.278 362.872C385.262 362.36 384.894 361.992 384.398 361.992H382.606L382.334 363.864C382.318 363.944 382.366 364.024 382.446 364.072L383.294 364.504V365.592H382.414L381.31 365.032C380.99 364.872 380.878 364.552 380.926 364.2L381.454 360.648H384.862C385.886 360.648 386.59 361.4 386.622 362.424L386.878 369H380.398ZM393.742 369V362.872C393.742 362.36 393.374 361.992 392.862 361.992H389.438V360.648H393.374C394.382 360.648 395.134 361.4 395.134 362.424V369H393.742ZM401.087 369V361.992H398.719V360.648H402.463V369H401.087ZM412.575 361.784C412.575 363.608 412.159 364.296 410.655 364.936L412.495 367.704V369H406.655V367.672H410.927L406.735 361.608V360.648H407.807L410.079 364.056C410.959 363.688 411.199 363.304 411.199 362.296V360.648H412.575V361.784ZM157.741 389.968V389.328C158.525 389.008 158.781 388.448 158.781 388.08C158.365 387.888 158.093 387.488 158.093 386.976C158.093 386.32 158.589 385.792 159.277 385.792C159.805 385.792 160.461 386.096 160.461 387.136C160.461 388.48 159.261 389.824 157.741 389.968ZM167.518 384.864V383.92C167.918 383.36 168.43 382.704 168.43 381.504V380.976H165.486V379.648H169.71C169.79 380.016 169.806 380.352 169.806 380.832C169.806 382.864 169.214 384 168.318 384.864H167.518ZM177.727 388V381.872C177.727 381.36 177.359 380.992 176.847 380.992H173.423V379.648H177.359C178.367 379.648 179.119 380.4 179.119 381.424V388H177.727ZM182.863 388C182.415 388 182.063 387.648 182.063 387.2V379.648H183.423V386.64H183.903C185.935 386.64 186.991 385.392 186.991 383.008V381.984C186.991 381.376 186.559 380.928 185.999 380.928C185.807 380.928 185.583 380.96 184.927 381.104L184.719 379.824C185.439 379.68 185.967 379.6 186.271 379.6C187.567 379.6 188.415 380.448 188.399 381.728L188.383 382.64C188.319 386.304 186.751 388 183.231 388H182.863ZM194.816 379.584C196.016 379.584 196.848 380.416 196.848 381.648V388H193.616V386.672H195.472V381.984C195.472 381.376 195.04 380.928 194.48 380.928C194.384 380.928 194.304 380.928 194.048 380.976L192.448 381.264L191.648 388H190.336V387.344L191.072 381.168L190.304 380.88V379.6H190.928L192.144 380L194.304 379.632C194.48 379.6 194.656 379.584 194.816 379.584ZM202.08 384.864V383.92C202.48 383.36 202.992 382.704 202.992 381.504V380.976H200.048V379.648H204.272C204.352 380.016 204.368 380.352 204.368 380.832C204.368 382.864 203.776 384 202.88 384.864H202.08ZM213.313 379.648C213.729 379.648 214.049 379.968 214.049 380.384V384.88C214.049 387.104 212.561 388.208 211.073 388.208C209.601 388.208 208.145 387.136 208.145 384.992V380.992H207.505V379.648H213.313ZM212.673 385.12V380.976H209.521V384.96C209.521 386.224 210.337 386.848 211.137 386.848C211.905 386.848 212.673 386.272 212.673 385.12ZM225.202 388V379.648H229.49C230.514 379.648 231.25 380.4 231.25 381.424V388H225.202ZM226.578 386.672H229.874V381.872C229.874 381.36 229.49 380.992 228.994 380.992H226.578V386.672ZM237.619 379.648L239.859 387.472V388H238.579L237.875 385.552L234.963 388H233.987V387.104L237.475 384.144L236.579 380.992H235.123V379.648H237.619ZM246.356 388V380.992H242.324V379.648H248.708V380.992H247.732V388H246.356ZM253.028 388V386.848C255.14 384.912 255.764 383.872 255.764 382.24V380.992H251.156V377.648H252.548V379.648H256.356C256.804 379.648 257.156 380 257.156 380.448V382.112C257.156 384.4 256.068 386.16 253.844 388H253.028ZM267.909 388V386.672H268.997C268.821 385.92 268.725 385.12 268.725 384.304C268.725 383.12 268.901 381.936 269.189 380.992H268.085V379.648H273.813C274.261 379.648 274.613 380 274.613 380.448V388H273.221V380.992H270.613C270.325 381.904 270.117 382.896 270.117 384.112C270.117 384.896 270.213 385.776 270.437 386.672V388H267.909ZM280.118 388V380.992H277.75V379.648H281.494V388H280.118ZM286.215 388V386.672H289.383V380.992H287.383V379.648H290.759V387.2C290.759 387.648 290.439 388 289.975 388H286.215ZM297.431 387.872V386.784C298.743 385.2 299.255 384 299.255 382.32V380.992H294.231V379.648H299.847C300.295 379.648 300.647 379.984 300.647 380.432V382C300.647 384.128 300.087 385.952 298.391 387.872H297.431ZM294.375 389.664V383.072H295.751V389.664H294.375ZM305.768 384.864V383.92C306.168 383.36 306.68 382.704 306.68 381.504V380.976H303.736V379.648H307.96C308.04 380.016 308.056 380.352 308.056 380.832C308.056 382.864 307.464 384 306.568 384.864H305.768ZM314.409 384.864V383.92C314.809 383.36 315.321 382.704 315.321 381.504V380.976H312.377V379.648H316.601C316.681 380.016 316.697 380.352 316.697 380.832C316.697 382.864 316.105 384 315.209 384.864H314.409ZM324.121 388V380.992H320.089V379.648H326.473V380.992H325.497V388H324.121ZM328.714 388V386.656H333.05V380.992H329.05V379.648H333.626C334.09 379.648 334.426 380 334.426 380.448V386.656H335.354V388H328.714ZM346.171 388V379.648H350.459C351.483 379.648 352.219 380.4 352.219 381.424V388H346.171ZM347.547 386.672H350.843V381.872C350.843 381.36 350.459 380.992 349.963 380.992H347.547V386.672ZM357.612 384.864V383.92C358.012 383.36 358.524 382.704 358.524 381.504V380.976H355.58V379.648H359.804C359.884 380.016 359.9 380.352 359.9 380.832C359.9 382.864 359.308 384 358.412 384.864H357.612ZM367.82 388V381.872C367.82 381.36 367.452 380.992 366.94 380.992H363.516V379.648H367.452C368.46 379.648 369.212 380.4 369.212 381.424V388H367.82ZM371.917 388V386.656H376.253V380.992H372.253V379.648H376.829C377.293 379.648 377.629 380 377.629 380.448V386.656H378.557V388H371.917ZM383.806 388V380.992H381.438V379.648H385.182V388H383.806ZM389.454 388V379.648H394.654C395.102 379.648 395.454 380 395.454 380.448V388H394.078V380.992H390.83V388H389.454ZM402.191 379.584C403.391 379.584 404.223 380.416 404.223 381.648V388H400.991V386.672H402.847V381.984C402.847 381.376 402.415 380.928 401.855 380.928C401.759 380.928 401.679 380.928 401.423 380.976L399.823 381.264L399.023 388H397.711V387.344L398.447 381.168L397.679 380.88V379.6H398.303L399.519 380L401.679 379.632C401.855 379.6 402.031 379.584 402.191 379.584ZM411.887 379.648H413.183V382.128C413.183 386.064 411.487 388 407.055 388C406.767 388 406.559 387.744 406.559 387.408V379.648H407.839V383.232C408.847 383.04 409.215 382.544 409.215 381.184V379.648H410.511V380.896C410.511 382.928 409.807 384.016 407.839 384.288V386.688C410.559 386.656 411.887 385.232 411.887 382.48V379.648ZM167.742 407.144C167.07 407.144 166.574 406.632 166.574 405.96C166.574 405.32 167.07 404.792 167.742 404.792C168.398 404.792 168.91 405.32 168.91 405.96C168.91 406.632 168.398 407.144 167.742 407.144ZM173.359 407V398.648H177.647C178.671 398.648 179.407 399.4 179.407 400.424V407H173.359ZM174.735 405.672H178.031V400.872C178.031 400.36 177.647 399.992 177.151 399.992H174.735V405.672ZM184.799 403.864V402.92C185.199 402.36 185.711 401.704 185.711 400.504V399.976H182.767V398.648H186.991C187.071 399.016 187.087 399.352 187.087 399.832C187.087 401.864 186.495 403 185.599 403.864H184.799ZM190.464 407V405.656H194.8V399.992H190.8V398.648H195.376C195.84 398.648 196.176 399 196.176 399.448V405.656H197.104V407H190.464ZM202.08 403.864V402.92C202.48 402.36 202.992 401.704 202.992 400.504V399.976H200.048V398.648H204.272C204.352 399.016 204.368 399.352 204.368 399.832C204.368 401.864 203.776 403 202.88 403.864H202.08ZM212.497 407V399.992H207.985V398.648H213.089C213.537 398.648 213.889 399 213.889 399.448V407H212.497ZM208.081 407V402.264H209.457V407H208.081ZM220.93 407V400.872C220.93 400.36 220.562 399.992 220.05 399.992H216.626V398.648H220.562C221.57 398.648 222.322 399.4 222.322 400.424V407H220.93ZM229.378 398.584C230.578 398.584 231.41 399.416 231.41 400.648V407H228.178V405.672H230.034V400.984C230.034 400.376 229.602 399.928 229.042 399.928C228.946 399.928 228.866 399.928 228.61 399.976L227.01 400.264L226.21 407H224.898V406.344L225.634 400.168L224.866 399.88V398.6H225.49L226.706 399L228.866 398.632C229.042 398.6 229.218 398.584 229.378 398.584ZM247.06 407V399.992H242.548V398.648H247.652C248.1 398.648 248.452 399 248.452 399.448V407H247.06ZM242.644 407V402.264H244.02V407H242.644ZM253.028 407V405.848C255.14 403.912 255.764 402.872 255.764 401.24V399.992H251.156V396.648H252.548V398.648H256.356C256.804 398.648 257.156 399 257.156 399.448V401.112C257.156 403.4 256.068 405.16 253.844 407H253.028ZM259.669 407V405.672H262.869C263.733 405.672 264.389 405.016 264.389 404.152V399.992H259.909V398.648H265.125C265.493 398.648 265.765 398.936 265.765 399.288V404.2C265.765 405.672 264.437 407 262.965 407H259.669ZM279.846 403.864V402.92C280.246 402.36 280.758 401.704 280.758 400.504V399.976H277.814V398.648H282.038C282.118 399.016 282.134 399.352 282.134 399.832C282.134 401.864 281.542 403 280.646 403.864H279.846ZM289.559 407V399.992H285.527V398.648H291.911V399.992H290.935V407H289.559ZM299.095 398.648H300.455V399.288C300.439 400.008 300.423 400.824 300.375 401.544C300.119 405.384 298.695 406.776 294.807 407.272L294.183 407.352H293.975V406.024C294.359 405.992 294.711 405.96 295.063 405.896C295.351 405.848 295.623 405.8 295.879 405.736L294.663 399.304V398.648H295.975L297.207 405.304C298.343 404.76 298.839 403.832 298.983 401.912C299.063 400.856 299.079 399.528 299.095 398.648ZM304.872 407V405.848C306.984 403.912 307.608 402.872 307.608 401.24V399.992H303V396.648H304.392V398.648H308.2C308.648 398.648 309 399 309 399.448V401.112C309 403.4 307.912 405.16 305.688 407H304.872ZM324.121 407V399.992H320.089V398.648H326.473V399.992H325.497V407H324.121ZM328.97 407V398.648H334.17C334.618 398.648 334.97 399 334.97 399.448V407H333.594V399.992H330.346V407H328.97ZM340.33 403.864V402.92C340.73 402.36 341.242 401.704 341.242 400.504V399.976H338.298V398.648H342.522C342.602 399.016 342.618 399.352 342.618 399.832C342.618 401.864 342.026 403 341.13 403.864H340.33ZM354.812 407V398.648H359.1C360.124 398.648 360.86 399.4 360.86 400.424V407H354.812ZM356.188 405.672H359.484V400.872C359.484 400.36 359.1 399.992 358.604 399.992H356.188V405.672ZM366.252 403.864V402.92C366.652 402.36 367.164 401.704 367.164 400.504V399.976H364.22V398.648H368.444C368.524 399.016 368.54 399.352 368.54 399.832C368.54 401.864 367.948 403 367.052 403.864H366.252ZM371.997 407V405.672H375.197C376.061 405.672 376.717 405.016 376.717 404.152V399.992H372.237V398.648H377.453C377.821 398.648 378.093 398.936 378.093 399.288V404.2C378.093 405.672 376.765 407 375.293 407H371.997ZM380.398 407V405.672H385.454L385.278 400.872C385.262 400.36 384.894 399.992 384.398 399.992H382.606L382.334 401.864C382.318 401.944 382.366 402.024 382.446 402.072L383.294 402.504V403.592H382.414L381.31 403.032C380.99 402.872 380.878 402.552 380.926 402.2L381.454 398.648H384.862C385.886 398.648 386.59 399.4 386.622 400.424L386.878 407H380.398ZM392.446 407V399.992H390.078V398.648H393.822V407H392.446ZM402.591 407V399.992H398.079V398.648H403.183C403.631 398.648 403.983 399 403.983 399.448V407H402.591ZM398.175 407V402.264H399.551V407H398.175ZM409.727 407V399.992H407.359V398.648H411.103V407H409.727Z" fill="white"/>
</svg>
