<svg width="527" height="237" viewBox="0 0 527 237" fill="none" xmlns="http://www.w3.org/2000/svg">
<path d="M159.424 128.864L159.408 128.144L165.12 117.056H166.56L166.576 117.776L160.864 128.864H159.424ZM168.065 128.864L168.049 128.144L173.761 117.056H175.201L175.217 117.776L169.505 128.864H168.065ZM194.29 128V119.648H198.578C199.874 119.648 200.818 120.608 200.818 121.904V128H194.29ZM196.146 126.192H198.962V122.352C198.962 121.84 198.578 121.472 198.082 121.472H196.146V126.192ZM205.651 124.928V123.984C206.339 123.024 206.563 122.464 206.563 121.728V121.456H203.667V119.648H208.323C208.387 120 208.419 120.336 208.419 120.896C208.419 122.688 207.955 123.936 206.931 124.928H205.651ZM215.956 128V122.352C215.956 121.84 215.588 121.472 215.076 121.472H211.7V119.648H215.796C216.964 119.648 217.828 120.512 217.828 121.696V128H215.956ZM226.66 120.528C226.66 122.336 226.244 123.248 224.676 124.032L226.292 126.704V128H220.292V126.192H223.972L220.324 120.512V119.648H222.036L223.972 122.864C224.612 122.4 224.804 121.92 224.804 121.04V119.648H226.66V120.528ZM229.685 128V126.192H232.549V121.472H230.693V119.648H234.405V127.2C234.405 127.648 234.069 128 233.621 128H229.685ZM248.854 124.928V123.984C249.542 123.024 249.766 122.464 249.766 121.728V121.456H246.87V119.648H251.526C251.59 120 251.622 120.336 251.622 120.896C251.622 122.688 251.158 123.936 250.134 124.928H248.854ZM256.551 128V126.848C258.663 124.912 259.287 123.872 259.287 122.24V121.472H254.919V117.648H256.791V119.648H260.359C260.807 119.648 261.159 120 261.159 120.448V122.112C261.159 124.4 260.071 126.16 257.847 128H256.551ZM263.399 128V126.192H266.439C267.303 126.192 267.959 125.536 267.959 124.672V121.472H263.639V119.648H269.015C269.479 119.648 269.815 120 269.815 120.448V124.704C269.815 126.432 268.247 128 266.519 128H263.399ZM51.5118 166V158.992H47.4798V157.648H53.8638V158.992H52.8878V166H51.5118ZM59.0804 162.864V161.92C59.4804 161.36 59.9924 160.704 59.9924 159.504V158.976H57.0484V157.648H61.2724C61.3524 158.016 61.3684 158.352 61.3684 158.832C61.3684 160.864 60.7764 162 59.8804 162.864H59.0804ZM73.0656 166V164.672H74.1536C73.9776 163.92 73.8816 163.12 73.8816 162.304C73.8816 161.12 74.0576 159.936 74.3456 158.992H73.2416V157.648H78.9696C79.4176 157.648 79.7696 158 79.7696 158.448V166H78.3776V158.992H75.7696C75.4816 159.904 75.2736 160.896 75.2736 162.112C75.2736 162.896 75.3696 163.776 75.5936 164.672V166H73.0656ZM82.1063 166V164.672H85.3063C86.1703 164.672 86.8263 164.016 86.8263 163.152V158.992H82.3463V157.648H87.5623C87.9303 157.648 88.2023 157.936 88.2023 158.288V163.2C88.2023 164.672 86.8743 166 85.4023 166H82.1063ZM96.9709 158.672C96.9709 160.64 96.5229 161.44 94.9229 162.192L96.7469 165.056L96.7309 166H95.6909L92.9389 161.696C92.3949 162.272 92.1549 163.04 92.1549 164.192V166H90.7789V164.512C90.7789 162.656 91.2589 161.488 92.3149 160.72L90.9709 158.608L90.9869 157.648H92.0109L94.3309 161.28C95.3229 160.784 95.5949 160.32 95.5949 159.2V157.648H96.9709V158.672ZM101.388 166V164.848C103.5 162.912 104.124 161.872 104.124 160.24V158.992H99.5155V155.648H100.908V157.648H104.716C105.164 157.648 105.516 158 105.516 158.448V160.112C105.516 162.4 104.428 164.16 102.204 166H101.388ZM112.3 157.584C113.5 157.584 114.332 158.416 114.332 159.648V166H111.1V164.672H112.956V159.984C112.956 159.376 112.524 158.928 111.964 158.928C111.868 158.928 111.788 158.928 111.532 158.976L109.932 159.264L109.132 166H107.82V165.344L108.556 159.168L107.788 158.88V157.6H108.412L109.628 158L111.788 157.632C111.964 157.6 112.14 157.584 112.3 157.584ZM129.981 166V158.992H125.469V157.648H130.573C131.021 157.648 131.373 158 131.373 158.448V166H129.981ZM125.565 166V161.264H126.941V166H125.565ZM133.55 166V164.672H134.638C134.462 163.92 134.366 163.12 134.366 162.304C134.366 161.12 134.542 159.936 134.83 158.992H133.726V157.648H139.454C139.902 157.648 140.254 158 140.254 158.448V166H138.862V158.992H136.254C135.966 159.904 135.758 160.896 135.758 162.112C135.758 162.896 135.854 163.776 136.078 164.672V166H133.55ZM145.487 162.864V161.92C145.887 161.36 146.399 160.704 146.399 159.504V158.976H143.455V157.648H147.679C147.759 158.016 147.775 158.352 147.775 158.832C147.775 160.864 147.183 162 146.287 162.864H145.487ZM154.127 162.864V161.92C154.527 161.36 155.039 160.704 155.039 159.504V158.976H152.095V157.648H156.319C156.399 158.016 156.415 158.352 156.415 158.832C156.415 160.864 155.823 162 154.927 162.864H154.127ZM164.544 166V158.992H160.032V157.648H165.136C165.584 157.648 165.936 158 165.936 158.448V166H164.544ZM160.128 166V161.264H161.504V166H160.128ZM177.249 166V157.648H181.537C182.561 157.648 183.297 158.4 183.297 159.424V166H177.249ZM178.625 164.672H181.921V159.872C181.921 159.36 181.537 158.992 181.041 158.992H178.625V164.672ZM188.69 162.864V161.92C189.09 161.36 189.602 160.704 189.602 159.504V158.976H186.658V157.648H190.882C190.962 158.016 190.978 158.352 190.978 158.832C190.978 160.864 190.386 162 189.49 162.864H188.69ZM198.898 166V159.872C198.898 159.36 198.53 158.992 198.018 158.992H194.594V157.648H198.53C199.538 157.648 200.29 158.4 200.29 159.424V166H198.898ZM209.091 158.784C209.091 160.608 208.675 161.296 207.171 161.936L209.011 164.704V166H203.171V164.672H207.443L203.251 158.608V157.648H204.323L206.595 161.056C207.475 160.688 207.715 160.304 207.715 159.296V157.648H209.091V158.784ZM212.34 166V164.672H215.508V158.992H213.508V157.648H216.884V165.2C216.884 165.648 216.564 166 216.1 166H212.34ZM228.597 166V164.672H229.685C229.509 163.92 229.413 163.12 229.413 162.304C229.413 161.12 229.589 159.936 229.877 158.992H228.773V157.648H234.501C234.949 157.648 235.301 158 235.301 158.448V166H233.909V158.992H231.301C231.013 159.904 230.805 160.896 230.805 162.112C230.805 162.896 230.901 163.776 231.125 164.672V166H228.597ZM242.502 157.648H243.862V158.288C243.846 159.008 243.83 159.824 243.782 160.544C243.526 164.384 242.102 165.776 238.214 166.272L237.59 166.352H237.382V165.024C237.766 164.992 238.118 164.96 238.47 164.896C238.758 164.848 239.03 164.8 239.286 164.736L238.07 158.304V157.648H239.382L240.614 164.304C241.75 163.76 242.246 162.832 242.39 160.912C242.47 159.856 242.486 158.528 242.502 157.648ZM249.174 162.864V161.92C249.574 161.36 250.086 160.704 250.086 159.504V158.976H247.142V157.648H251.366C251.446 158.016 251.462 158.352 251.462 158.832C251.462 160.864 250.87 162 249.974 162.864H249.174ZM256.919 166V164.848C259.031 162.912 259.655 161.872 259.655 160.24V158.992H255.047V155.648H256.439V157.648H260.247C260.695 157.648 261.047 158 261.047 158.448V160.112C261.047 162.4 259.959 164.16 257.735 166H256.919ZM266.759 165.872V164.784C268.071 163.2 268.583 162 268.583 160.32V158.992H263.559V157.648H269.175C269.623 157.648 269.975 157.984 269.975 158.432V160C269.975 162.128 269.415 163.952 267.719 165.872H266.759ZM263.703 167.664V161.072H265.079V167.664H263.703ZM33.4305 185V177.992H31.0625V176.648H34.8065V185H33.4305ZM44.2311 176.648H45.5271V179.128C45.5271 183.064 43.8311 185 39.3991 185C39.1111 185 38.9031 184.744 38.9031 184.408V176.648H40.1831V180.232C41.1911 180.04 41.5591 179.544 41.5591 178.184V176.648H42.8551V177.896C42.8551 179.928 42.1511 181.016 40.1831 181.288V183.688C42.9031 183.656 44.2311 182.232 44.2311 179.48V176.648ZM51.8158 176.584C53.0158 176.584 53.8478 177.416 53.8478 178.648V185H50.6158V183.672H52.4718V178.984C52.4718 178.376 52.0398 177.928 51.4798 177.928C51.3838 177.928 51.3038 177.928 51.0477 177.976L49.4478 178.264L48.6478 185H47.3358V184.344L48.0718 178.168L47.3038 177.88V176.6H47.9278L49.1438 177L51.3038 176.632C51.4798 176.6 51.6558 176.584 51.8158 176.584ZM59.0804 181.864V180.92C59.4804 180.36 59.9924 179.704 59.9924 178.504V177.976H57.0484V176.648H61.2724C61.3524 177.016 61.3684 177.352 61.3684 177.832C61.3684 179.864 60.7764 181 59.8804 181.864H59.0804ZM70.153 176.648H71.449V179.128C71.449 183.064 69.753 185 65.321 185C65.033 185 64.825 184.744 64.825 184.408V176.648H66.105V180.232C67.113 180.04 67.481 179.544 67.481 178.184V176.648H68.777V177.896C68.777 179.928 68.073 181.016 66.105 181.288V183.688C68.825 183.656 70.153 182.232 70.153 179.48V176.648ZM76.6336 185V177.992H74.2656V176.648H78.0096V185H76.6336ZM92.5069 186.968V186.328C93.2909 186.008 93.5469 185.448 93.5469 185.08C93.1309 184.888 92.8589 184.488 92.8589 183.976C92.8589 183.32 93.3549 182.792 94.0429 182.792C94.5709 182.792 95.2269 183.096 95.2269 184.136C95.2269 185.48 94.0269 186.824 92.5069 186.968ZM102.972 186.664V177.976H100.684V176.648H104.348V186.664H102.972ZM112.3 176.584C113.5 176.584 114.332 177.416 114.332 178.648V185H111.1V183.672H112.956V178.984C112.956 178.376 112.524 177.928 111.964 177.928C111.868 177.928 111.788 177.928 111.532 177.976L109.932 178.264L109.132 185H107.82V184.344L108.556 178.168L107.788 177.88V176.6H108.412L109.628 177L111.788 176.632C111.964 176.6 112.14 176.584 112.3 176.584ZM119.565 181.864V180.92C119.965 180.36 120.477 179.704 120.477 178.504V177.976H117.533V176.648H121.757C121.837 177.016 121.853 177.352 121.853 177.832C121.853 179.864 121.261 181 120.365 181.864H119.565ZM124.909 185V183.672H125.997C125.821 182.92 125.725 182.12 125.725 181.304C125.725 180.12 125.901 178.936 126.189 177.992H125.085V176.648H130.813C131.261 176.648 131.613 177 131.613 177.448V185H130.221V177.992H127.613C127.325 178.904 127.117 179.896 127.117 181.112C127.117 181.896 127.213 182.776 127.437 183.672V185H124.909ZM142.191 185V183.672H143.279C143.103 182.92 143.007 182.12 143.007 181.304C143.007 180.12 143.183 178.936 143.471 177.992H142.367V176.648H148.095C148.543 176.648 148.895 177 148.895 177.448V185H147.503V177.992H144.895C144.607 178.904 144.399 179.896 144.399 181.112C144.399 181.896 144.495 182.776 144.719 183.672V185H142.191ZM154.399 185V177.992H152.031V176.648H155.775V185H154.399ZM165.2 176.648H166.496V179.128C166.496 183.064 164.8 185 160.368 185C160.08 185 159.872 184.744 159.872 184.408V176.648H161.152V180.232C162.16 180.04 162.528 179.544 162.528 178.184V176.648H163.824V177.896C163.824 179.928 163.12 181.016 161.152 181.288V183.688C163.872 183.656 165.2 182.232 165.2 179.48V176.648ZM169.137 185V183.672H172.305V177.992H170.305V176.648H173.681V184.2C173.681 184.648 173.361 185 172.897 185H169.137ZM185.714 185V183.656H190.05V177.992H186.05V176.648H190.626C191.09 176.648 191.426 177 191.426 177.448V183.656H192.354V185H185.714ZM198.898 185V178.872C198.898 178.36 198.53 177.992 198.018 177.992H194.594V176.648H198.53C199.538 176.648 200.29 177.4 200.29 178.424V185H198.898ZM206.275 184.872V183.784C207.587 182.2 208.099 181 208.099 179.32V177.992H203.075V176.648H208.691C209.139 176.648 209.491 176.984 209.491 177.432V179C209.491 181.128 208.931 182.952 207.235 184.872H206.275ZM203.219 186.664V180.072H204.595V186.664H203.219ZM211.636 185V183.656H215.972V177.992H211.972V176.648H216.548C217.012 176.648 217.348 177 217.348 177.448V183.656H218.276V185H211.636ZM233.669 185V177.992H229.157V176.648H234.261C234.709 176.648 235.061 177 235.061 177.448V185H233.669ZM229.253 185V180.264H230.629V185H229.253ZM243.654 177.784C243.654 179.608 243.238 180.296 241.734 180.936L243.574 183.704V185H237.734V183.672H242.006L237.814 177.608V176.648H238.886L241.158 180.056C242.038 179.688 242.278 179.304 242.278 178.296V176.648H243.654V177.784ZM249.446 185V177.992H247.078V176.648H250.822V185H249.446ZM254.679 185V183.672H259.735L259.559 178.872C259.543 178.36 259.175 177.992 258.679 177.992H256.887L256.615 179.864C256.599 179.944 256.647 180.024 256.727 180.072L257.575 180.504V181.592H256.695L255.591 181.032C255.271 180.872 255.159 180.552 255.207 180.2L255.735 176.648H259.143C260.167 176.648 260.871 177.4 260.903 178.424L261.159 185H254.679ZM264.183 185V183.672H267.351V177.992H265.351V176.648H268.727V184.2C268.727 184.648 268.407 185 267.943 185H264.183ZM6.10063 205.968V205.328C6.88463 205.008 7.14062 204.448 7.14062 204.08C6.72463 203.888 6.45263 203.488 6.45263 202.976C6.45263 202.32 6.94863 201.792 7.63663 201.792C8.16463 201.792 8.82063 202.096 8.82063 203.136C8.82063 204.48 7.62063 205.824 6.10063 205.968ZM12.5813 204V202.672H13.6693C13.4933 201.92 13.3973 201.12 13.3973 200.304C13.3973 199.12 13.5733 197.936 13.8613 196.992H12.7573V195.648H18.4853C18.9333 195.648 19.2853 196 19.2853 196.448V204H17.8933V196.992H15.2853C14.9973 197.904 14.7893 198.896 14.7893 200.112C14.7893 200.896 14.8853 201.776 15.1093 202.672V204H12.5813ZM24.7899 204V196.992H22.4219V195.648H26.1659V204H24.7899ZM33.1585 200.864V199.92C33.5585 199.36 34.0705 198.704 34.0705 197.504V196.976H31.1265V195.648H35.3505C35.4305 196.016 35.4465 196.352 35.4465 196.832C35.4465 198.864 34.8545 200 33.9585 200.864H33.1585ZM39.5271 204V202.672H42.6951V196.992H40.6951V195.648H44.0711V203.2C44.0711 203.648 43.7511 204 43.2871 204H39.5271ZM48.5038 204C48.0558 204 47.7038 203.648 47.7038 203.2V195.648H49.0638V202.64H49.5438C51.5758 202.64 52.6318 201.392 52.6318 199.008V197.984C52.6318 197.376 52.1998 196.928 51.6398 196.928C51.4478 196.928 51.2238 196.96 50.5677 197.104L50.3598 195.824C51.0798 195.68 51.6078 195.6 51.9118 195.6C53.2078 195.6 54.0558 196.448 54.0398 197.728L54.0238 198.64C53.9598 202.304 52.3918 204 48.8718 204H48.5038ZM59.3844 203.872V202.784C60.6964 201.2 61.2084 200 61.2084 198.32V196.992H56.1844V195.648H61.8004C62.2484 195.648 62.6004 195.984 62.6004 196.432V198C62.6004 200.128 62.0404 201.952 60.3444 203.872H59.3844ZM56.3284 205.664V199.072H57.7044V205.664H56.3284ZM75.2256 205.968V205.328C76.0096 205.008 76.2656 204.448 76.2656 204.08C75.8496 203.888 75.5776 203.488 75.5776 202.976C75.5776 202.32 76.0736 201.792 76.7616 201.792C77.2896 201.792 77.9456 202.096 77.9456 203.136C77.9456 204.48 76.7456 205.824 75.2256 205.968ZM82.2023 204V195.648H86.4903C87.5143 195.648 88.2503 196.4 88.2503 197.424V204H82.2023ZM83.5783 202.672H86.8743V197.872C86.8743 197.36 86.4903 196.992 85.9943 196.992H83.5783V202.672ZM93.6429 200.864V199.92C94.0429 199.36 94.5549 198.704 94.5549 197.504V196.976H91.6109V195.648H95.8349C95.9149 196.016 95.9309 196.352 95.9309 196.832C95.9309 198.864 95.3389 200 94.4429 200.864H93.6429ZM104.716 195.648H106.012V198.128C106.012 202.064 104.316 204 99.8835 204C99.5955 204 99.3875 203.744 99.3875 203.408V195.648H100.668V199.232C101.676 199.04 102.044 198.544 102.044 197.184V195.648H103.34V196.896C103.34 198.928 102.636 200.016 100.668 200.288V202.688C103.388 202.656 104.716 201.232 104.716 198.48V195.648ZM111.9 195.648L114.14 203.472V204H112.86L112.156 201.552L109.244 204H108.268V203.104L111.756 200.144L110.86 196.992H109.404V195.648H111.9ZM120.941 195.584C122.141 195.584 122.973 196.416 122.973 197.648V204H119.741V202.672H121.597V197.984C121.597 197.376 121.165 196.928 120.605 196.928C120.509 196.928 120.429 196.928 120.173 196.976L118.573 197.264L117.773 204H116.461V203.344L117.197 197.168L116.429 196.88V195.6H117.053L118.269 196L120.429 195.632C120.605 195.6 120.781 195.584 120.941 195.584ZM135.71 205.968V205.328C136.494 205.008 136.75 204.448 136.75 204.08C136.334 203.888 136.062 203.488 136.062 202.976C136.062 202.32 136.558 201.792 137.246 201.792C137.774 201.792 138.43 202.096 138.43 203.136C138.43 204.48 137.23 205.824 135.71 205.968ZM142.191 204V202.672H143.279C143.103 201.92 143.007 201.12 143.007 200.304C143.007 199.12 143.183 197.936 143.471 196.992H142.367V195.648H148.095C148.543 195.648 148.895 196 148.895 196.448V204H147.503V196.992H144.895C144.607 197.904 144.399 198.896 144.399 200.112C144.399 200.896 144.495 201.776 144.719 202.672V204H142.191ZM154.399 204V196.992H152.031V195.648H155.775V204H154.399ZM161.872 204V202.848C163.984 200.912 164.608 199.872 164.608 198.24V196.992H160V193.648H161.392V195.648H165.2C165.648 195.648 166 196 166 196.448V198.112C166 200.4 164.912 202.16 162.688 204H161.872ZM174.529 196.784C174.529 198.608 174.113 199.296 172.609 199.936L174.449 202.704V204H168.609V202.672H172.881L168.689 196.608V195.648H169.761L172.033 199.056C172.913 198.688 173.153 198.304 173.153 197.296V195.648H174.529V196.784ZM177.329 204V195.648H182.529C182.977 195.648 183.329 196 183.329 196.448V204H181.953V196.992H178.705V204H177.329ZM190.066 195.584C191.266 195.584 192.098 196.416 192.098 197.648V204H188.866V202.672H190.722V197.984C190.722 197.376 190.29 196.928 189.73 196.928C189.634 196.928 189.554 196.928 189.298 196.976L187.698 197.264L186.898 204H185.586V203.344L186.322 197.168L185.554 196.88V195.6H186.178L187.394 196L189.554 195.632C189.73 195.6 189.906 195.584 190.066 195.584ZM204.835 205.968V205.328C205.619 205.008 205.875 204.448 205.875 204.08C205.459 203.888 205.187 203.488 205.187 202.976C205.187 202.32 205.683 201.792 206.371 201.792C206.899 201.792 207.555 202.096 207.555 203.136C207.555 204.48 206.355 205.824 204.835 205.968ZM211.812 204V195.648H216.1C217.124 195.648 217.86 196.4 217.86 197.424V204H211.812ZM213.188 202.672H216.484V197.872C216.484 197.36 216.1 196.992 215.604 196.992H213.188V202.672ZM223.252 200.864V199.92C223.652 199.36 224.164 198.704 224.164 197.504V196.976H221.22V195.648H225.444C225.524 196.016 225.54 196.352 225.54 196.832C225.54 198.864 224.948 200 224.052 200.864H223.252ZM233.861 195.648H235.221V196.288C235.205 197.008 235.189 197.824 235.141 198.544C234.885 202.384 233.461 203.776 229.573 204.272L228.949 204.352H228.741V203.024C229.125 202.992 229.477 202.96 229.829 202.896C230.117 202.848 230.389 202.8 230.645 202.736L229.429 196.304V195.648H230.741L231.973 202.304C233.109 201.76 233.605 200.832 233.749 198.912C233.829 197.856 233.845 196.528 233.861 195.648ZM237.558 204V202.656H241.894V196.992H237.894V195.648H242.47C242.934 195.648 243.27 196 243.27 196.448V202.656H244.198V204H237.558ZM249.446 204V196.992H247.078V195.648H250.822V204H249.446ZM254.919 204V202.672H258.119C258.983 202.672 259.639 202.016 259.639 201.152V196.992H255.159V195.648H260.375C260.743 195.648 261.015 195.936 261.015 196.288V201.2C261.015 202.672 259.687 204 258.215 204H254.919ZM263.559 204V202.672H266.759C267.623 202.672 268.279 202.016 268.279 201.152V196.992H263.799V195.648H269.015C269.383 195.648 269.655 195.936 269.655 196.288V201.2C269.655 202.672 268.327 204 266.855 204H263.559ZM16.1013 223.144C15.4293 223.144 14.9333 222.632 14.9333 221.96C14.9333 221.32 15.4293 220.792 16.1013 220.792C16.7573 220.792 17.2693 221.32 17.2693 221.96C17.2693 222.632 16.7573 223.144 16.1013 223.144ZM26.0859 223V216.872C26.0859 216.36 25.7179 215.992 25.2059 215.992H21.7819V214.648H25.7179C26.7259 214.648 27.4779 215.4 27.4779 216.424V223H26.0859ZM33.4305 223V215.992H31.0625V214.648H34.8065V223H33.4305ZM41.3351 223V215.992H39.5431V214.648H44.5031V215.992H42.7111V223H41.3351ZM50.4398 219.864V218.92C50.8398 218.36 51.3518 217.704 51.3518 216.504V215.976H48.4078V214.648H52.6318C52.7118 215.016 52.7278 215.352 52.7278 215.832C52.7278 217.864 52.1358 219 51.2398 219.864H50.4398ZM62.4084 215.672C62.4084 217.64 61.9604 218.44 60.3604 219.192L62.1844 222.056L62.1684 223H61.1284L58.3764 218.696C57.8324 219.272 57.5924 220.04 57.5924 221.192V223H56.2164V221.512C56.2164 219.656 56.6964 218.488 57.7524 217.72L56.4084 215.608L56.4244 214.648H57.4484L59.7684 218.28C60.7604 217.784 61.0324 217.32 61.0324 216.2V214.648H62.4084V215.672ZM76.3616 219.864V218.92C76.7616 218.36 77.2736 217.704 77.2736 216.504V215.976H74.3296V214.648H78.5536C78.6336 215.016 78.6496 215.352 78.6496 215.832C78.6496 217.864 78.0576 219 77.1616 219.864H76.3616ZM81.8663 223V221.672H86.9223L86.7463 216.872C86.7303 216.36 86.3623 215.992 85.8663 215.992H84.0743L83.8023 217.864C83.7863 217.944 83.8343 218.024 83.9143 218.072L84.7623 218.504V219.592H83.8823L82.7783 219.032C82.4583 218.872 82.3463 218.552 82.3943 218.2L82.9223 214.648H86.3303C87.3543 214.648 88.0583 215.4 88.0903 216.424L88.3463 223H81.8663ZM92.7469 223V221.848C94.8589 219.912 95.4829 218.872 95.4829 217.24V215.992H90.8749V212.648H92.2669V214.648H96.0749C96.5229 214.648 96.8749 215 96.8749 215.448V217.112C96.8749 219.4 95.7869 221.16 93.5629 223H92.7469ZM108.124 223V214.648H112.412C113.436 214.648 114.172 215.4 114.172 216.424V223H108.124ZM109.5 221.672H112.796V216.872C112.796 216.36 112.412 215.992 111.916 215.992H109.5V221.672ZM119.565 219.864V218.92C119.965 218.36 120.477 217.704 120.477 216.504V215.976H117.533V214.648H121.757C121.837 215.016 121.853 215.352 121.853 215.832C121.853 217.864 121.261 219 120.365 219.864H119.565ZM125.933 223V221.672H129.101V215.992H127.101V214.648H130.477V222.2C130.477 222.648 130.157 223 129.693 223H125.933ZM133.55 223V221.672H134.638C134.462 220.92 134.366 220.12 134.366 219.304C134.366 218.12 134.542 216.936 134.83 215.992H133.726V214.648H139.454C139.902 214.648 140.254 215 140.254 215.448V223H138.862V215.992H136.254C135.966 216.904 135.758 217.896 135.758 219.112C135.758 219.896 135.854 220.776 136.078 221.672V223H133.55ZM147.919 214.648H149.215V217.128C149.215 221.064 147.519 223 143.087 223C142.799 223 142.591 222.744 142.591 222.408V214.648H143.871V218.232C144.879 218.04 145.247 217.544 145.247 216.184V214.648H146.543V215.896C146.543 217.928 145.839 219.016 143.871 219.288V221.688C146.591 221.656 147.919 220.232 147.919 217.48V214.648ZM155.503 214.584C156.703 214.584 157.535 215.416 157.535 216.648V223H154.303V221.672H156.159V216.984C156.159 216.376 155.727 215.928 155.167 215.928C155.071 215.928 154.991 215.928 154.735 215.976L153.135 216.264L152.335 223H151.023V222.344L151.759 216.168L150.991 215.88V214.6H151.615L152.831 215L154.991 214.632C155.167 214.6 155.343 214.584 155.503 214.584ZM168.609 223V214.648H172.897C173.921 214.648 174.657 215.4 174.657 216.424V223H168.609ZM169.985 221.672H173.281V216.872C173.281 216.36 172.897 215.992 172.401 215.992H169.985V221.672ZM180.049 219.864V218.92C180.449 218.36 180.961 217.704 180.961 216.504V215.976H178.017V214.648H182.241C182.321 215.016 182.337 215.352 182.337 215.832C182.337 217.864 181.745 219 180.849 219.864H180.049ZM187.794 223V221.848C189.906 219.912 190.53 218.872 190.53 217.24V215.992H185.922V212.648H187.314V214.648H191.122C191.57 214.648 191.922 215 191.922 215.448V217.112C191.922 219.4 190.834 221.16 188.61 223H187.794ZM194.434 223V221.672H197.634C198.498 221.672 199.154 221.016 199.154 220.152V215.992H194.674V214.648H199.89C200.258 214.648 200.53 214.936 200.53 215.288V220.2C200.53 221.672 199.202 223 197.73 223H194.434ZM207.747 223V215.992H203.235V214.648H208.339C208.787 214.648 209.139 215 209.139 215.448V223H207.747ZM203.331 223V218.264H204.707V223H203.331ZM223.94 224.664V215.976H221.652V214.648H225.316V224.664H223.94ZM232.165 223V215.992H229.797V214.648H233.541V223H232.165ZM238.262 223V221.672H241.43V215.992H239.43V214.648H242.806V222.2C242.806 222.648 242.486 223 242.022 223H238.262ZM250.15 214.648L252.39 222.472V223H251.11L250.406 220.552L247.494 223H246.518V222.104L250.006 219.144L249.11 215.992H247.654V214.648H250.15ZM260.407 214.648C260.823 214.648 261.143 214.968 261.143 215.384V219.88C261.143 222.104 259.655 223.208 258.167 223.208C256.695 223.208 255.239 222.136 255.239 219.992V215.992H254.599V214.648H260.407ZM259.767 220.12V215.976H256.615V219.96C256.615 221.224 257.431 221.848 258.231 221.848C258.999 221.848 259.767 221.272 259.767 220.12ZM266.727 223V215.992H264.359V214.648H268.103V223H266.727Z" fill="white"/>
<line x1="526" y1="150.5" x2="323" y2="150.5" stroke="white"/>
<line x1="526.5" y1="151" x2="526.5" y2="-2.18557e-08" stroke="white"/>
</svg>
