<svg width="65" height="17" viewBox="0 0 65 17" fill="none" xmlns="http://www.w3.org/2000/svg">
<line x1="26.5801" y1="8.37097" x2="3.09621" y2="8.37097" stroke="white"/>
<path d="M8.12903 2C7.29032 6.19355 6.03226 7.87097 1 8.29032C5.66642 8.947 7.70968 9.96774 8.12903 15" stroke="white"/>
<path d="M35.1984 13V6.6805C35.1984 6.1525 34.8189 5.773 34.2909 5.773H30.7599V4.387H34.8189C35.8584 4.387 36.6339 5.1625 36.6339 6.2185V13H35.1984ZM42.7726 13V5.773H40.3306V4.387H44.1916V13H42.7726ZM50.9242 13V5.773H49.0762V4.387H54.1912V5.773H52.3432V13H50.9242ZM57.5084 13V4.387H62.8709C63.3329 4.387 63.6959 4.75 63.6959 5.212V13H62.2769V5.773H58.9274V13H57.5084Z" fill="white"/>
</svg>
