<svg width="134" height="54" viewBox="0 0 134 54" fill="none" xmlns="http://www.w3.org/2000/svg">
<g clip-path="url(#clip0_640_421)">
<g clip-path="url(#clip1_640_421)">
<path d="M77.0342 27.281C82.7443 21.5401 84.4243 18.4562 84.4243 13.6168V11.3394H72.6172V0H77.676V5.93065H87.3123C88.5204 5.93065 89.4737 6.97445 89.4737 8.30291V13.2372C89.4737 20.0219 86.5384 25.2409 80.5263 30.6971H77.0248V27.281H77.0342Z" fill="#686868"/>
<path d="M111.201 5.93066V7.82847C111.154 9.96351 111.116 12.3832 110.984 14.5183C110.295 25.8102 106.576 29.9854 95.9394 31.5036L94.2499 31.7409H92.3906V26.427C93.3816 26.3796 94.3821 26.2847 95.7223 26.0474L97.3173 25.7628L94.2499 7.87592V5.93066H99.0917L102.159 24.1022C104.755 22.5839 105.661 20.1168 105.925 15.4672C106.095 12.5255 106.18 8.82482 106.227 5.93066H111.201Z" fill="#686868"/>
<path d="M134.049 25.2883V30.6971H115.021V25.2883H126.309V11.3394H115.937V5.93066H128.65C130.207 5.93066 131.331 7.21169 131.331 8.87227V25.2883H134.058H134.049Z" fill="#686868"/>
<path d="M12.194 11.3109H0V5.90216H14.5724C16.0825 5.90216 17.2529 7.18318 17.2529 8.84376V30.6686H12.194V11.3109ZM0.254829 17.5737H5.26647V30.6686H0.254829V17.5737Z" fill="#686868"/>
<path d="M40.1299 30.6686H21.7539V25.3073H34.9389L34.5048 13.9204C34.4576 12.4022 33.4666 11.3109 32.1264 11.3109H28.3228L27.7565 15.2963C27.7094 15.5335 27.8415 15.7708 28.0586 15.9131L30.352 17.1941V21.0846H26.6806L23.6982 19.424C22.8299 18.9496 22.5278 18.0007 22.66 16.9569L24.1701 5.90216H33.8064C37.0908 5.90216 39.2994 8.51165 39.4315 12.1175L40.1205 30.6686H40.1299Z" fill="#686868"/>
<path d="M31.1371 15.7613C31.7522 15.7613 32.2508 15.26 32.2508 14.6416C32.2508 14.0232 31.7522 13.5219 31.1371 13.5219C30.5221 13.5219 30.0234 14.0232 30.0234 14.6416C30.0234 15.26 30.5221 15.7613 31.1371 15.7613Z" fill="#686868"/>
<path d="M30.0981 37.1307C30.7132 37.1307 31.2118 36.6293 31.2118 36.0109C31.2118 35.3925 30.7132 34.8912 30.0981 34.8912C29.483 34.8912 28.9844 35.3925 28.9844 36.0109C28.9844 36.6293 29.483 37.1307 30.0981 37.1307Z" fill="#686868"/>
<path d="M33.2309 37.1307C33.846 37.1307 34.3446 36.6293 34.3446 36.0109C34.3446 35.3925 33.846 34.8912 33.2309 34.8912C32.6158 34.8912 32.1172 35.3925 32.1172 36.0109C32.1172 36.6293 32.6158 37.1307 33.2309 37.1307Z" fill="#686868"/>
<path d="M31.5903 39.7496C32.2053 39.7496 32.704 39.2483 32.704 38.6299C32.704 38.0115 32.2053 37.5102 31.5903 37.5102C30.9752 37.5102 30.4766 38.0115 30.4766 38.6299C30.4766 39.2483 30.9752 39.7496 31.5903 39.7496Z" fill="#686868"/>
<path d="M121.006 19.5759C121.621 19.5759 122.12 19.0746 122.12 18.4562C122.12 17.8378 121.621 17.3365 121.006 17.3365C120.391 17.3365 119.893 17.8378 119.893 18.4562C119.893 19.0746 120.391 19.5759 121.006 19.5759Z" fill="#686868"/>
<path d="M125.112 36.4569C125.727 36.4569 126.225 35.9556 126.225 35.3372C126.225 34.7188 125.727 34.2175 125.112 34.2175C124.497 34.2175 123.998 34.7188 123.998 35.3372C123.998 35.9556 124.497 36.4569 125.112 36.4569Z" fill="#686868"/>
<path d="M125.112 39.7496C125.727 39.7496 126.225 39.2483 126.225 38.6299C126.225 38.0115 125.727 37.5102 125.112 37.5102C124.497 37.5102 123.998 38.0115 123.998 38.6299C123.998 39.2483 124.497 39.7496 125.112 39.7496Z" fill="#686868"/>
<path d="M68.3888 11.3109V5.90216H44.6519V11.3109H47.5305C46.9171 13.8255 46.5395 16.7671 46.5395 19.7087C46.5395 21.6065 46.7283 23.5043 47.0114 25.3073H44.1328V30.6686H53.0046V26.7306C52.344 24.0737 52.0608 21.4642 52.0608 19.1394C52.0608 16.1503 52.4855 13.6357 53.099 11.3109H68.3888Z" fill="#686868"/>
<path d="M81.0547 1.30951H87.9351" stroke="#686868" stroke-width="2" stroke-miterlimit="10"/>
<path d="M119.629 1.30951H126.509" stroke="#686868" stroke-width="2" stroke-miterlimit="10"/>
<path d="M98.4863 34.208H105.367" stroke="#686868" stroke-width="2" stroke-miterlimit="10"/>
</g>
</g>
<defs>
<clipPath id="clip0_640_421">
<rect width="134" height="54" fill="white"/>
</clipPath>
<clipPath id="clip1_640_421">
<rect width="134.049" height="54.0211" fill="white"/>
</clipPath>
</defs>
</svg>
