<svg width="657" height="212" viewBox="0 0 657 212" fill="none" xmlns="http://www.w3.org/2000/svg">
<line x1="151" y1="211.5" y2="211.5" stroke="white"/>
<line x1="150.5" y1="70" x2="150.5" y2="211" stroke="white"/>
<line y1="-0.5" x2="225.002" y2="-0.5" transform="matrix(-0.999992 -0.00386828 0.00510632 -0.999987 375 70.8706)" stroke="white"/>
<path d="M528.143 14.864L528.127 14.144L533.839 3.056H535.279L535.295 3.776L529.583 14.864H528.143ZM536.783 14.864L536.767 14.144L542.479 3.056H543.919L543.935 3.776L538.223 14.864H536.783ZM554.385 7.632V6.928C555.249 6.576 555.537 5.952 555.537 5.552C555.073 5.344 554.785 4.912 554.785 4.336C554.785 3.616 555.329 3.04 556.081 3.04C556.657 3.04 557.377 3.376 557.377 4.512C557.377 6 556.065 7.472 554.385 7.632ZM557.889 7.632V6.928C558.753 6.576 559.025 5.952 559.025 5.552C558.577 5.344 558.273 4.912 558.273 4.336C558.273 3.616 558.817 3.04 559.569 3.04C560.161 3.04 560.881 3.376 560.881 4.512C560.881 6 559.553 7.472 557.889 7.632ZM565.729 10.928V9.984C566.417 9.024 566.641 8.464 566.641 7.728V7.456H563.745V5.648H568.401C568.465 6 568.497 6.336 568.497 6.896C568.497 8.688 568.033 9.936 567.009 10.928H565.729ZM576.642 5.648H578.418V8.128C578.418 12.176 576.466 14 572.146 14C571.842 14 571.634 13.744 571.634 13.408V5.648H573.394V8.752C574.034 8.56 574.242 8.144 574.242 7.248V5.648H575.794V7.2C575.794 8.944 575.106 9.744 573.394 10.128V12.208C575.634 12.176 576.642 10.96 576.642 8.288V5.648ZM580.034 14V13.408L580.77 7.696L579.938 7.408V5.584H580.562L581.97 5.984L584.146 5.632C584.338 5.6 584.546 5.584 584.738 5.584C586.05 5.584 587.042 6.576 587.042 7.872V14H583.33V12.192H585.186V8.272C585.186 7.792 584.834 7.44 584.322 7.44C584.21 7.44 584.114 7.44 583.938 7.472L582.594 7.648L581.842 14H580.034ZM590.259 7.632C589.667 7.632 588.947 7.296 588.947 6.16C588.947 4.672 590.275 3.2 591.939 3.04V3.744C591.075 4.096 590.803 4.72 590.803 5.12C591.251 5.328 591.555 5.76 591.555 6.336C591.555 7.056 591.011 7.632 590.259 7.632ZM593.747 7.632C593.171 7.632 592.451 7.296 592.451 6.16C592.451 4.672 593.763 3.2 595.443 3.04V3.744C594.579 4.096 594.291 4.72 594.291 5.12C594.755 5.328 595.043 5.76 595.043 6.336C595.043 7.056 594.499 7.632 593.747 7.632ZM612.132 5.648C612.58 5.648 612.932 6 612.932 6.448V14H611.06V7.472H608.852C608.644 8.256 608.5 9.104 608.5 10.112C608.5 10.896 608.596 11.776 608.82 12.672V14H605.812V12.192H606.788C606.692 11.584 606.628 10.944 606.628 10.304C606.628 9.312 606.756 8.32 606.964 7.472H605.988V5.648H612.132ZM617.973 14V7.472H615.605V5.648H619.829V14H617.973ZM626.214 10.928V9.984C626.902 9.024 627.126 8.464 627.126 7.728V7.456H624.23V5.648H628.886C628.95 6 628.982 6.336 628.982 6.896C628.982 8.688 628.518 9.936 627.494 10.928H626.214ZM633.91 14V12.848C636.022 10.912 636.646 9.872 636.646 8.24V7.472H632.278V3.648H634.15V5.648H637.718C638.166 5.648 638.518 6 638.518 6.448V8.112C638.518 10.4 637.43 12.16 635.206 14H633.91ZM644.903 5.648L647.143 13.472V14H645.383L644.711 11.664L641.927 14H640.951V12.544L644.183 9.792L643.511 7.472H641.927V5.648H644.903ZM653.799 14V8.352C653.799 7.84 653.431 7.472 652.919 7.472H649.543V5.648H653.639C654.807 5.648 655.671 6.512 655.671 7.696V14H653.799ZM415.863 52V50.672H416.951C416.775 49.92 416.679 49.12 416.679 48.304C416.679 47.12 416.855 45.936 417.143 44.992H416.039V43.648H421.767C422.215 43.648 422.567 44 422.567 44.448V52H421.175V44.992H418.567C418.279 45.904 418.071 46.896 418.071 48.112C418.071 48.896 418.167 49.776 418.391 50.672V52H415.863ZM424.903 52V50.672H428.103C428.967 50.672 429.623 50.016 429.623 49.152V44.992H425.143V43.648H430.359C430.727 43.648 430.999 43.936 430.999 44.288V49.2C430.999 50.672 429.671 52 428.199 52H424.903ZM435.544 52V50.848C437.656 48.912 438.28 47.872 438.28 46.24V44.992H433.672V41.648H435.064V43.648H438.872C439.32 43.648 439.672 44 439.672 44.448V46.112C439.672 48.4 438.584 50.16 436.36 52H435.544ZM444.184 52V50.848C446.296 48.912 446.92 47.872 446.92 46.24V44.992H442.312V41.648H443.704V43.648H447.512C447.96 43.648 448.312 44 448.312 44.448V46.112C448.312 48.4 447.224 50.16 445 52H444.184ZM462.634 52V44.992H460.266V43.648H464.01V52H462.634ZM471.978 43.648L474.218 51.472V52H472.938L472.234 49.552L469.322 52H468.346V51.104L471.834 48.144L470.938 44.992H469.482V43.648H471.978ZM481.419 52V44.992H476.907V43.648H482.011C482.459 43.648 482.811 44 482.811 44.448V52H481.419ZM477.003 52V47.264H478.379V52H477.003ZM486.012 52V50.672H489.18V44.992H487.18V43.648H490.556V51.2C490.556 51.648 490.236 52 489.772 52H486.012ZM507.533 53.904C505.565 52.288 504.349 49.76 504.349 47.232C504.349 44.704 505.565 42.176 507.533 40.56H508.301V41.392C506.669 43.072 505.837 45.12 505.837 47.232C505.837 49.344 506.669 51.376 508.301 53.072V53.904H507.533ZM515.773 52V45.872C515.773 45.36 515.405 44.992 514.893 44.992H511.469V43.648H515.405C516.413 43.648 517.165 44.4 517.165 45.424V52H515.773ZM523.278 54.656V53.664H526.91V54.656H523.278ZM522.054 48.448C521.686 48.448 521.414 48.176 521.414 47.792C521.414 47.456 521.686 47.168 522.054 47.168C522.406 47.168 522.694 47.456 522.694 47.792C522.694 48.176 522.406 48.448 522.054 48.448ZM524.414 52V45.872C524.414 45.36 524.046 44.992 523.534 44.992H520.11V43.648H524.046C525.054 43.648 525.806 44.4 525.806 45.424V52H524.414ZM529.95 54.656V53.664H533.582V54.656H529.95ZM528.767 52V43.648H533.967C534.415 43.648 534.767 44 534.767 44.448V52H533.391V44.992H530.143V52H528.767ZM538.59 54.656V53.664H542.222V54.656H538.59ZM541.503 43.584C542.703 43.584 543.535 44.416 543.535 45.648V52H540.303V50.672H542.159V45.984C542.159 45.376 541.727 44.928 541.167 44.928C541.071 44.928 540.991 44.928 540.735 44.976L539.135 45.264L538.335 52H537.023V51.344L537.759 45.168L536.991 44.88V43.6H537.615L538.831 44L540.991 43.632C541.167 43.6 541.343 43.584 541.503 43.584ZM546.48 53.904V53.072C548.112 51.392 548.944 49.344 548.944 47.232C548.944 45.12 548.112 43.088 546.48 41.392V40.56H547.248C549.216 42.176 550.432 44.704 550.432 47.232C550.432 49.76 549.216 52.288 547.248 53.904H546.48ZM566.049 48.864V47.92C566.449 47.36 566.961 46.704 566.961 45.504V44.976H564.017V43.648H568.241C568.321 44.016 568.337 44.352 568.337 44.832C568.337 46.864 567.745 48 566.849 48.864H566.049ZM577.122 43.648H578.418V46.128C578.418 50.064 576.722 52 572.29 52C572.002 52 571.794 51.744 571.794 51.408V43.648H573.074V47.232C574.082 47.04 574.45 46.544 574.45 45.184V43.648H575.746V44.896C575.746 46.928 575.042 48.016 573.074 48.288V50.688C575.794 50.656 577.122 49.232 577.122 46.48V43.648ZM584.706 43.584C585.906 43.584 586.738 44.416 586.738 45.648V52H583.506V50.672H585.362V45.984C585.362 45.376 584.93 44.928 584.37 44.928C584.274 44.928 584.194 44.928 583.938 44.976L582.338 45.264L581.538 52H580.226V51.344L580.962 45.168L580.194 44.88V43.6H580.818L582.034 44L584.194 43.632C584.37 43.6 584.546 43.584 584.706 43.584ZM597.316 52V50.672H598.404C598.228 49.92 598.132 49.12 598.132 48.304C598.132 47.12 598.308 45.936 598.596 44.992H597.492V43.648H603.22C603.668 43.648 604.02 44 604.02 44.448V52H602.628V44.992H600.02C599.732 45.904 599.524 46.896 599.524 48.112C599.524 48.896 599.62 49.776 599.844 50.672V52H597.316ZM609.524 52V44.992H607.156V43.648H610.9V52H609.524ZM617.893 48.864V47.92C618.293 47.36 618.805 46.704 618.805 45.504V44.976H615.861V43.648H620.085C620.165 44.016 620.181 44.352 620.181 44.832C620.181 46.864 619.589 48 618.693 48.864H617.893ZM625.638 52V50.848C627.75 48.912 628.374 47.872 628.374 46.24V44.992H623.766V41.648H625.158V43.648H628.966C629.414 43.648 629.766 44 629.766 44.448V46.112C629.766 48.4 628.678 50.16 626.454 52H625.638ZM636.15 43.648L638.39 51.472V52H637.11L636.406 49.552L633.494 52H632.518V51.104L636.006 48.144L635.11 44.992H633.654V43.648H636.15ZM645.383 52V45.872C645.383 45.36 645.015 44.992 644.503 44.992H641.079V43.648H645.015C646.023 43.648 646.775 44.4 646.775 45.424V52H645.383ZM649.479 52V50.656H653.815V44.992H649.815V43.648H654.391C654.855 43.648 655.191 44 655.191 44.448V50.656H656.119V52H649.479ZM433.144 71V69.672H434.232C434.056 68.92 433.96 68.12 433.96 67.304C433.96 66.12 434.136 64.936 434.424 63.992H433.32V62.648H439.048C439.496 62.648 439.848 63 439.848 63.448V71H438.456V63.992H435.848C435.56 64.904 435.352 65.896 435.352 67.112C435.352 67.896 435.448 68.776 435.672 69.672V71H433.144ZM445.352 71V63.992H442.984V62.648H446.728V71H445.352ZM453.721 67.864V66.92C454.121 66.36 454.633 65.704 454.633 64.504V63.976H451.689V62.648H455.913C455.993 63.016 456.009 63.352 456.009 63.832C456.009 65.864 455.417 67 454.521 67.864H453.721ZM463.434 71V63.992H459.402V62.648H465.786V63.992H464.81V71H463.434ZM471.274 71V63.992H468.906V62.648H472.65V71H471.274ZM481.419 71V63.992H476.907V62.648H482.011C482.459 62.648 482.811 63 482.811 63.448V71H481.419ZM477.003 71V66.264H478.379V71H477.003ZM488.284 67.864V66.92C488.684 66.36 489.196 65.704 489.196 64.504V63.976H486.252V62.648H490.476C490.556 63.016 490.572 63.352 490.572 63.832C490.572 65.864 489.98 67 489.084 67.864H488.284ZM498.7 71V63.992H494.188V62.648H499.292C499.74 62.648 500.092 63 500.092 63.448V71H498.7ZM494.284 71V66.264H495.66V71H494.284ZM510.909 71V69.672H511.997C511.821 68.92 511.725 68.12 511.725 67.304C511.725 66.12 511.901 64.936 512.189 63.992H511.085V62.648H516.813C517.261 62.648 517.613 63 517.613 63.448V71H516.221V63.992H513.613C513.325 64.904 513.117 65.896 513.117 67.112C513.117 67.896 513.213 68.776 513.437 69.672V71H510.909ZM523.118 71V63.992H520.75V62.648H524.494V71H523.118ZM533.055 71V64.872C533.055 64.36 532.687 63.992 532.175 63.992H528.751V62.648H532.687C533.695 62.648 534.447 63.4 534.447 64.424V71H533.055ZM542.095 62.648H543.455V63.288C543.439 64.008 543.423 64.824 543.375 65.544C543.119 69.384 541.695 70.776 537.807 71.272L537.183 71.352H536.975V70.024C537.359 69.992 537.711 69.96 538.063 69.896C538.351 69.848 538.623 69.8 538.879 69.736L537.663 63.304V62.648H538.975L540.207 69.304C541.343 68.76 541.839 67.832 541.983 65.912C542.063 64.856 542.079 63.528 542.095 62.648ZM546.496 71V69.672H549.664V63.992H547.664V62.648H551.04V70.2C551.04 70.648 550.72 71 550.256 71H546.496ZM559.185 71V63.992H554.673V62.648H559.777C560.225 62.648 560.577 63 560.577 63.448V71H559.185ZM554.769 71V66.264H556.145V71H554.769ZM566.321 71V63.992H563.953V62.648H567.697V71H566.321ZM580.53 71V62.648H584.818C585.842 62.648 586.578 63.4 586.578 64.424V71H580.53ZM581.906 69.672H585.202V64.872C585.202 64.36 584.818 63.992 584.322 63.992H581.906V69.672ZM591.971 67.864V66.92C592.371 66.36 592.883 65.704 592.883 64.504V63.976H589.939V62.648H594.163C594.243 63.016 594.259 63.352 594.259 63.832C594.259 65.864 593.667 67 592.771 67.864H591.971ZM603.044 62.648H604.34V65.128C604.34 69.064 602.644 71 598.212 71C597.924 71 597.716 70.744 597.716 70.408V62.648H598.996V66.232C600.004 66.04 600.372 65.544 600.372 64.184V62.648H601.668V63.896C601.668 65.928 600.964 67.016 598.996 67.288V69.688C601.716 69.656 603.044 68.232 603.044 65.48V62.648ZM606.98 71V69.672H610.148V63.992H608.148V62.648H611.524V70.2C611.524 70.648 611.204 71 610.74 71H606.98ZM619.669 71V63.992H615.157V62.648H620.261C620.709 62.648 621.061 63 621.061 63.448V71H619.669ZM615.253 71V66.264H616.629V71H615.253ZM632.198 71V69.656H636.534V63.992H632.534V62.648H637.11C637.574 62.648 637.91 63 637.91 63.448V69.656H638.838V71H632.198ZM644.087 71V63.992H641.719V62.648H645.463V71H644.087ZM654.023 71V64.872C654.023 64.36 653.655 63.992 653.143 63.992H649.719V62.648H653.655C654.663 62.648 655.415 63.4 655.415 64.424V71H654.023ZM429.575 90V82.992H425.063V81.648H430.167C430.615 81.648 430.967 82 430.967 82.448V90H429.575ZM425.159 90V85.264H426.535V90H425.159ZM434.168 90V88.672H437.336V82.992H435.336V81.648H438.712V89.2C438.712 89.648 438.392 90 437.928 90H434.168ZM445.08 86.864V85.92C445.48 85.36 445.992 84.704 445.992 83.504V82.976H443.048V81.648H447.272C447.352 82.016 447.368 82.352 447.368 82.832C447.368 84.864 446.776 86 445.88 86.864H445.08ZM454.793 90V82.992H450.761V81.648H457.145V82.992H456.169V90H454.793ZM464.33 81.648H465.69V82.288C465.674 83.008 465.658 83.824 465.61 84.544C465.354 88.384 463.93 89.776 460.042 90.272L459.418 90.352H459.21V89.024C459.594 88.992 459.946 88.96 460.298 88.896C460.586 88.848 460.858 88.8 461.114 88.736L459.898 82.304V81.648H461.21L462.442 88.304C463.578 87.76 464.074 86.832 464.218 84.912C464.298 83.856 464.314 82.528 464.33 81.648ZM472.778 90V82.992H468.266V81.648H473.37C473.818 81.648 474.17 82 474.17 82.448V90H472.778ZM468.362 90V85.264H469.738V90H468.362ZM490.06 90V82.992H485.548V81.648H490.652C491.1 81.648 491.452 82 491.452 82.448V90H490.06ZM485.644 90V85.264H487.02V90H485.644ZM498.3 81.584C499.5 81.584 500.332 82.416 500.332 83.648V90H497.1V88.672H498.956V83.984C498.956 83.376 498.524 82.928 497.964 82.928C497.868 82.928 497.788 82.928 497.532 82.976L495.932 83.264L495.132 90H493.82V89.344L494.556 83.168L493.788 82.88V81.6H494.412L495.628 82L497.788 81.632C497.964 81.6 498.14 81.584 498.3 81.584ZM505.869 89.872V88.784C507.181 87.2 507.693 86 507.693 84.32V82.992H502.669V81.648H508.285C508.733 81.648 509.085 81.984 509.085 82.432V84C509.085 86.128 508.525 87.952 506.829 89.872H505.869ZM502.813 91.664V85.072H504.189V91.664H502.813ZM515.773 90V83.872C515.773 83.36 515.405 82.992 514.893 82.992H511.469V81.648H515.405C516.413 81.648 517.165 82.4 517.165 83.424V90H515.773ZM524.622 90V82.992H520.11V81.648H525.214C525.662 81.648 526.014 82 526.014 82.448V90H524.622ZM520.206 90V85.264H521.582V90H520.206ZM532.863 81.584C534.063 81.584 534.895 82.416 534.895 83.648V90H531.663V88.672H533.519V83.984C533.519 83.376 533.087 82.928 532.527 82.928C532.431 82.928 532.351 82.928 532.095 82.976L530.495 83.264L529.695 90H528.383V89.344L529.119 83.168L528.351 82.88V81.6H528.975L530.191 82L532.351 81.632C532.527 81.6 532.703 81.584 532.863 81.584ZM552.096 82.672C552.096 84.64 551.648 85.44 550.048 86.192L551.872 89.056L551.856 90H550.816L548.064 85.696C547.52 86.272 547.28 87.04 547.28 88.192V90H545.904V88.512C545.904 86.656 546.384 85.488 547.44 84.72L546.096 82.608L546.112 81.648H547.136L549.456 85.28C550.448 84.784 550.72 84.32 550.72 83.2V81.648H552.096V82.672ZM554.433 90V88.656H558.769V82.992H554.769V81.648H559.345C559.809 81.648 560.145 82 560.145 82.448V88.656H561.073V90H554.433ZM575.378 91.664V82.976H573.09V81.648H576.754V91.664H575.378ZM584.706 81.584C585.906 81.584 586.738 82.416 586.738 83.648V90H583.506V88.672H585.362V83.984C585.362 83.376 584.93 82.928 584.37 82.928C584.274 82.928 584.194 82.928 583.938 82.976L582.338 83.264L581.538 90H580.226V89.344L580.962 83.168L580.194 82.88V81.6H580.818L582.034 82L584.194 81.632C584.37 81.6 584.546 81.584 584.706 81.584ZM594.403 81.648H595.699V84.128C595.699 88.064 594.003 90 589.571 90C589.283 90 589.075 89.744 589.075 89.408V81.648H590.355V85.232C591.363 85.04 591.731 84.544 591.731 83.184V81.648H593.027V82.896C593.027 84.928 592.323 86.016 590.355 86.288V88.688C593.075 88.656 594.403 87.232 594.403 84.48V81.648ZM609.476 90.144C608.804 90.144 608.308 89.632 608.308 88.96C608.308 88.32 608.804 87.792 609.476 87.792C610.132 87.792 610.644 88.32 610.644 88.96C610.644 89.632 610.132 90.144 609.476 90.144ZM621.221 82.672C621.221 84.64 620.773 85.44 619.173 86.192L620.997 89.056L620.981 90H619.941L617.189 85.696C616.645 86.272 616.405 87.04 616.405 88.192V90H615.029V88.512C615.029 86.656 615.509 85.488 616.565 84.72L615.221 82.608L615.237 81.648H616.261L618.581 85.28C619.573 84.784 619.845 84.32 619.845 83.2V81.648H621.221V82.672ZM628.502 81.648H629.862V82.288C629.846 83.008 629.83 83.824 629.782 84.544C629.526 88.384 628.102 89.776 624.214 90.272L623.59 90.352H623.382V89.024C623.766 88.992 624.118 88.96 624.47 88.896C624.758 88.848 625.03 88.8 625.286 88.736L624.07 82.304V81.648H625.382L626.614 88.304C627.75 87.76 628.246 86.832 628.39 84.912C628.47 83.856 628.486 82.528 628.502 81.648ZM632.902 90V88.672H636.07V82.992H634.07V81.648H637.446V89.2C637.446 89.648 637.126 90 636.662 90H632.902ZM646.935 82.784C646.935 84.608 646.519 85.296 645.015 85.936L646.855 88.704V90H641.015V88.672H645.287L641.095 82.608V81.648H642.167L644.439 85.056C645.319 84.688 645.559 84.304 645.559 83.296V81.648H646.935V82.784ZM649.479 90V88.656H653.815V82.992H649.815V81.648H654.391C654.855 81.648 655.191 82 655.191 82.448V88.656H656.119V90H649.479ZM421.127 100.648H422.487V101.288C422.471 102.008 422.455 102.824 422.407 103.544C422.151 107.384 420.727 108.776 416.839 109.272L416.215 109.352H416.007V108.024C416.391 107.992 416.743 107.96 417.095 107.896C417.383 107.848 417.655 107.8 417.911 107.736L416.695 101.304V100.648H418.007L419.239 107.304C420.375 106.76 420.871 105.832 421.015 103.912C421.095 102.856 421.111 101.528 421.127 100.648ZM424.823 109V107.656H429.159V101.992H425.159V100.648H429.735C430.199 100.648 430.535 101 430.535 101.448V107.656H431.463V109H424.823ZM439.56 101.784C439.56 103.608 439.144 104.296 437.64 104.936L439.48 107.704V109H433.64V107.672H437.912L433.72 101.608V100.648H434.792L437.064 104.056C437.944 103.688 438.184 103.304 438.184 102.296V100.648H439.56V101.784ZM442.104 109V107.656H446.44V101.992H442.44V100.648H447.016C447.48 100.648 447.816 101 447.816 101.448V107.656H448.744V109H442.104ZM463.93 109V102.872C463.93 102.36 463.562 101.992 463.05 101.992H459.626V100.648H463.562C464.57 100.648 465.322 101.4 465.322 102.424V109H463.93ZM471.306 108.872V107.784C472.618 106.2 473.13 105 473.13 103.32V101.992H468.106V100.648H473.722C474.17 100.648 474.522 100.984 474.522 101.432V103C474.522 105.128 473.962 106.952 472.266 108.872H471.306ZM468.25 110.664V104.072H469.626V110.664H468.25ZM479.643 105.864V104.92C480.043 104.36 480.555 103.704 480.555 102.504V101.976H477.611V100.648H481.835C481.915 101.016 481.931 101.352 481.931 101.832C481.931 103.864 481.339 105 480.443 105.864H479.643ZM490.252 100.648H491.612V101.288C491.596 102.008 491.58 102.824 491.532 103.544C491.276 107.384 489.852 108.776 485.964 109.272L485.34 109.352H485.132V108.024C485.516 107.992 485.868 107.96 486.22 107.896C486.508 107.848 486.78 107.8 487.036 107.736L485.82 101.304V100.648H487.132L488.364 107.304C489.5 106.76 489.996 105.832 490.14 103.912C490.22 102.856 490.236 101.528 490.252 100.648ZM493.948 109V107.656H498.284V101.992H494.284V100.648H498.86C499.324 100.648 499.66 101 499.66 101.448V107.656H500.588V109H493.948ZM513.069 110.968V110.328C513.853 110.008 514.109 109.448 514.109 109.08C513.693 108.888 513.421 108.488 513.421 107.976C513.421 107.32 513.917 106.792 514.605 106.792C515.133 106.792 515.789 107.096 515.789 108.136C515.789 109.48 514.589 110.824 513.069 110.968ZM524.814 110.904C522.846 109.288 521.63 106.76 521.63 104.232C521.63 101.704 522.846 99.176 524.814 97.56H525.582V98.392C523.95 100.072 523.118 102.12 523.118 104.232C523.118 106.344 523.95 108.376 525.582 110.072V110.904H524.814ZM533.055 109V102.872C533.055 102.36 532.687 101.992 532.175 101.992H528.751V100.648H532.687C533.695 100.648 534.447 101.4 534.447 102.424V109H533.055ZM540.127 105.864V104.92C540.527 104.36 541.039 103.704 541.039 102.504V101.976H538.095V100.648H542.319C542.399 101.016 542.415 101.352 542.415 101.832C542.415 103.864 541.823 105 540.927 105.864H540.127ZM550.336 109V102.872C550.336 102.36 549.968 101.992 549.456 101.992H546.032V100.648H549.968C550.976 100.648 551.728 101.4 551.728 102.424V109H550.336ZM554.689 109V100.648H559.889C560.337 100.648 560.689 101 560.689 101.448V109H559.313V101.992H556.065V109H554.689ZM563.761 110.904V110.072C565.393 108.392 566.225 106.344 566.225 104.232C566.225 102.12 565.393 100.088 563.761 98.392V97.56H564.529C566.497 99.176 567.713 101.704 567.713 104.232C567.713 106.76 566.497 109.288 564.529 110.904H563.761ZM583.33 105.864V104.92C583.73 104.36 584.242 103.704 584.242 102.504V101.976H581.298V100.648H585.522C585.602 101.016 585.618 101.352 585.618 101.832C585.618 103.864 585.026 105 584.13 105.864H583.33ZM594.403 100.648H595.699V103.128C595.699 107.064 594.003 109 589.571 109C589.283 109 589.075 108.744 589.075 108.408V100.648H590.355V104.232C591.363 104.04 591.731 103.544 591.731 102.184V100.648H593.027V101.896C593.027 103.928 592.323 105.016 590.355 105.288V107.688C593.075 107.656 594.403 106.232 594.403 103.48V100.648ZM601.988 100.584C603.188 100.584 604.02 101.416 604.02 102.648V109H600.788V107.672H602.644V102.984C602.644 102.376 602.212 101.928 601.652 101.928C601.556 101.928 601.476 101.928 601.22 101.976L599.62 102.264L598.82 109H597.508V108.344L598.244 102.168L597.476 101.88V100.6H598.1L599.316 101L601.476 100.632C601.652 100.6 601.828 100.584 601.988 100.584ZM617.893 105.864V104.92C618.293 104.36 618.805 103.704 618.805 102.504V101.976H615.861V100.648H620.085C620.165 101.016 620.181 101.352 620.181 101.832C620.181 103.864 619.589 105 618.693 105.864H617.893ZM624.598 109C624.15 109 623.798 108.648 623.798 108.2V100.648H625.158V107.64H625.638C627.67 107.64 628.726 106.392 628.726 104.008V102.984C628.726 102.376 628.294 101.928 627.734 101.928C627.542 101.928 627.318 101.96 626.661 102.104L626.454 100.824C627.174 100.68 627.702 100.6 628.006 100.6C629.302 100.6 630.15 101.448 630.134 102.728L630.118 103.64C630.054 107.304 628.486 109 624.966 109H624.598ZM635.446 109V101.992H633.078V100.648H636.822V109H635.446ZM641.095 109V100.648H646.295C646.743 100.648 647.095 101 647.095 101.448V109H645.719V101.992H642.471V109H641.095ZM649.479 109V107.656H653.815V101.992H649.815V100.648H654.391C654.855 100.648 655.191 101 655.191 101.448V107.656H656.119V109H649.479ZM442.28 128V119.648H446.568C447.592 119.648 448.328 120.4 448.328 121.424V128H442.28ZM443.656 126.672H446.952V121.872C446.952 121.36 446.568 120.992 446.072 120.992H443.656V126.672ZM453.721 124.864V123.92C454.121 123.36 454.633 122.704 454.633 121.504V120.976H451.689V119.648H455.913C455.993 120.016 456.009 120.352 456.009 120.832C456.009 122.864 455.417 124 454.521 124.864H453.721ZM459.066 128V126.672H460.154C459.978 125.92 459.882 125.12 459.882 124.304C459.882 123.12 460.058 121.936 460.346 120.992H459.242V119.648H464.97C465.418 119.648 465.77 120 465.77 120.448V128H464.378V120.992H461.77C461.482 121.904 461.274 122.896 461.274 124.112C461.274 124.896 461.37 125.776 461.594 126.672V128H459.066ZM471.002 124.864V123.92C471.402 123.36 471.914 122.704 471.914 121.504V120.976H468.97V119.648H473.194C473.274 120.016 473.29 120.352 473.29 120.832C473.29 122.864 472.698 124 471.802 124.864H471.002ZM481.611 119.648H482.971V120.288C482.955 121.008 482.939 121.824 482.891 122.544C482.635 126.384 481.211 127.776 477.323 128.272L476.699 128.352H476.491V127.024C476.875 126.992 477.227 126.96 477.579 126.896C477.867 126.848 478.139 126.8 478.395 126.736L477.179 120.304V119.648H478.491L479.723 126.304C480.859 125.76 481.355 124.832 481.499 122.912C481.579 121.856 481.595 120.528 481.611 119.648ZM487.388 128V126.848C489.5 124.912 490.124 123.872 490.124 122.24V120.992H485.516V117.648H486.908V119.648H490.716C491.164 119.648 491.516 120 491.516 120.448V122.112C491.516 124.4 490.428 126.16 488.204 128H487.388ZM497.196 128V120.992H494.828V119.648H498.572V128H497.196ZM515.773 128V121.872C515.773 121.36 515.405 120.992 514.893 120.992H511.469V119.648H515.405C516.413 119.648 517.165 120.4 517.165 121.424V128H515.773ZM523.118 128V120.992H520.75V119.648H524.494V128H523.118ZM528.767 128V119.648H533.967C534.415 119.648 534.767 120 534.767 120.448V128H533.391V120.992H530.143V128H528.767ZM542.559 119.648H543.855V122.128C543.855 126.064 542.159 128 537.727 128C537.439 128 537.231 127.744 537.231 127.408V119.648H538.511V123.232C539.519 123.04 539.887 122.544 539.887 121.184V119.648H541.183V120.896C541.183 122.928 540.479 124.016 538.511 124.288V126.688C541.231 126.656 542.559 125.232 542.559 122.48V119.648ZM554.433 128V126.656H558.769V120.992H554.769V119.648H559.345C559.809 119.648 560.145 120 560.145 120.448V126.656H561.073V128H554.433ZM566.321 128V120.992H563.953V119.648H567.697V128H566.321ZM573.794 128V126.848C575.906 124.912 576.53 123.872 576.53 122.24V120.992H571.922V117.648H573.314V119.648H577.122C577.57 119.648 577.922 120 577.922 120.448V122.112C577.922 124.4 576.834 126.16 574.61 128H573.794ZM583.33 124.864V123.92C583.73 123.36 584.242 122.704 584.242 121.504V120.976H581.298V119.648H585.522C585.602 120.016 585.618 120.352 585.618 120.832C585.618 122.864 585.026 124 584.13 124.864H583.33ZM594.403 119.648H595.699V122.128C595.699 126.064 594.003 128 589.571 128C589.283 128 589.075 127.744 589.075 127.408V119.648H590.355V123.232C591.363 123.04 591.731 122.544 591.731 121.184V119.648H593.027V120.896C593.027 122.928 592.323 124.016 590.355 124.288V126.688C593.075 126.656 594.403 125.232 594.403 122.48V119.648ZM597.636 128V126.656H601.972V120.992H597.972V119.648H602.548C603.012 119.648 603.348 120 603.348 120.448V126.656H604.276V128H597.636ZM616.757 129.968V129.328C617.541 129.008 617.797 128.448 617.797 128.08C617.381 127.888 617.109 127.488 617.109 126.976C617.109 126.32 617.605 125.792 618.293 125.792C618.821 125.792 619.477 126.096 619.477 127.136C619.477 128.48 618.277 129.824 616.757 129.968ZM623.734 128V119.648H628.022C629.046 119.648 629.782 120.4 629.782 121.424V128H623.734ZM625.11 126.672H628.406V121.872C628.406 121.36 628.022 120.992 627.526 120.992H625.11V126.672ZM635.446 128V120.992H633.078V119.648H636.822V128H635.446ZM644.887 128V120.992H640.855V119.648H647.239V120.992H646.263V128H644.887ZM655.783 120.672C655.783 122.64 655.335 123.44 653.735 124.192L655.559 127.056L655.543 128H654.503L651.751 123.696C651.207 124.272 650.967 125.04 650.967 126.192V128H649.591V126.512C649.591 124.656 650.071 123.488 651.127 122.72L649.783 120.608L649.799 119.648H650.823L653.143 123.28C654.135 122.784 654.407 122.32 654.407 121.2V119.648H655.783V120.672ZM514.429 147.144C513.757 147.144 513.261 146.632 513.261 145.96C513.261 145.32 513.757 144.792 514.429 144.792C515.085 144.792 515.597 145.32 515.597 145.96C515.597 146.632 515.085 147.144 514.429 147.144ZM523.534 148.664V139.976H521.246V138.648H524.91V148.664H523.534ZM528.511 147V145.656H532.847V139.992H528.847V138.648H533.423C533.887 138.648 534.223 139 534.223 139.448V145.656H535.151V147H528.511ZM539.231 147V145.848C541.343 143.912 541.967 142.872 541.967 141.24V139.992H537.359V136.648H538.751V138.648H542.559C543.007 138.648 543.359 139 543.359 139.448V141.112C543.359 143.4 542.271 145.16 540.047 147H539.231ZM549.04 147V139.992H546.672V138.648H550.416V147H549.04ZM566.353 146.872V145.784C567.665 144.2 568.177 143 568.177 141.32V139.992H563.153V138.648H568.769C569.217 138.648 569.569 138.984 569.569 139.432V141C569.569 143.128 569.009 144.952 567.313 146.872H566.353ZM563.297 148.664V142.072H564.673V148.664H563.297ZM574.962 147V139.992H572.594V138.648H576.338V147H574.962ZM584.898 147V140.872C584.898 140.36 584.53 139.992 584.018 139.992H580.594V138.648H584.53C585.538 138.648 586.29 139.4 586.29 140.424V147H584.898ZM591.971 143.864V142.92C592.371 142.36 592.883 141.704 592.883 140.504V139.976H589.939V138.648H594.163C594.243 139.016 594.259 139.352 594.259 139.832C594.259 141.864 593.667 143 592.771 143.864H591.971ZM605.956 147V145.672H607.044C606.868 144.92 606.772 144.12 606.772 143.304C606.772 142.12 606.948 140.936 607.236 139.992H606.132V138.648H611.86C612.308 138.648 612.66 139 612.66 139.448V147H611.268V139.992H608.66C608.372 140.904 608.164 141.896 608.164 143.112C608.164 143.896 608.26 144.776 608.484 145.672V147H605.956ZM618.165 147V139.992H615.797V138.648H619.541V147H618.165ZM628.502 138.648H629.862V139.288C629.846 140.008 629.83 140.824 629.782 141.544C629.526 145.384 628.102 146.776 624.214 147.272L623.59 147.352H623.382V146.024C623.766 145.992 624.118 145.96 624.47 145.896C624.758 145.848 625.03 145.8 625.286 145.736L624.07 139.304V138.648H625.382L626.614 145.304C627.75 144.76 628.246 143.832 628.39 141.912C628.47 140.856 628.486 139.528 628.502 138.648ZM635.174 143.864V142.92C635.574 142.36 636.086 141.704 636.086 140.504V139.976H633.142V138.648H637.366C637.446 139.016 637.462 139.352 637.462 139.832C637.462 141.864 636.87 143 635.974 143.864H635.174ZM644.791 138.648L647.031 146.472V147H645.751L645.047 144.552L642.135 147H641.159V146.104L644.647 143.144L643.751 139.992H642.295V138.648H644.791ZM650.183 147V145.672H653.351V139.992H651.351V138.648H654.727V146.2C654.727 146.648 654.407 147 653.943 147H650.183Z" fill="white"/>
</svg>
