<svg width="500" height="135" viewBox="0 0 500 135" fill="none" xmlns="http://www.w3.org/2000/svg">
<line x1="201" y1="68" x2="-4.37114e-08" y2="68" stroke="white"/>
<path d="M431.627 14.864L431.611 14.144L437.323 3.056H438.763L438.779 3.776L433.067 14.864H431.627ZM440.268 14.864L440.252 14.144L445.964 3.056H447.404L447.42 3.776L441.708 14.864H440.268ZM461.037 13.872V12.784C462.253 11.2 462.733 10 462.733 8.32V7.472H457.837V5.648H463.805C464.253 5.648 464.605 5.984 464.605 6.432V8C464.605 10.128 464.077 11.952 462.477 13.872H461.037ZM457.981 15.68V9.392H459.837V15.68H457.981ZM469.614 14V7.472H467.246V5.648H471.47V14H469.614ZM481.518 7.744L481.774 14H474.974V12.192H479.854L479.694 8.352C479.678 7.84 479.31 7.472 478.814 7.472H477.406L477.198 8.816C477.182 8.896 477.23 8.976 477.31 9.024L478.158 9.456V10.768H476.798L475.694 10.208C475.374 10.048 475.262 9.728 475.31 9.376L475.87 5.648H479.438C480.654 5.648 481.47 6.528 481.518 7.744ZM486.495 10.928V9.984C487.183 9.024 487.407 8.464 487.407 7.728V7.456H484.511V5.648H489.167C489.231 6 489.263 6.336 489.263 6.896C489.263 8.688 488.799 9.936 487.775 10.928H486.495ZM499.071 6.672C499.071 8.592 498.655 9.36 497.039 10.224L498.847 13.056L498.831 14H497.199L494.655 10.016C494.255 10.64 494.143 11.344 494.143 12.192V14H492.287V12.512C492.287 10.896 492.575 9.664 493.823 8.704L492.479 6.608L492.495 5.648H494.111L496.303 9.088C497.023 8.656 497.215 8.16 497.215 7.2V5.648H499.071V6.672ZM310.706 52V50.672H311.794C311.618 49.92 311.522 49.12 311.522 48.304C311.522 47.12 311.698 45.936 311.986 44.992H310.882V43.648H316.61C317.058 43.648 317.41 44 317.41 44.448V52H316.018V44.992H313.41C313.122 45.904 312.914 46.896 312.914 48.112C312.914 48.896 313.01 49.776 313.234 50.672V52H310.706ZM322.915 52V44.992H320.547V43.648H324.291V52H322.915ZM331.284 48.864V47.92C331.684 47.36 332.196 46.704 332.196 45.504V44.976H329.252V43.648H333.476C333.556 44.016 333.572 44.352 333.572 44.832C333.572 46.864 332.98 48 332.084 48.864H331.284ZM337.652 52V50.672H340.82V44.992H338.82V43.648H342.196V51.2C342.196 51.648 341.876 52 341.412 52H337.652ZM349.637 52V44.992H345.605V43.648H351.989V44.992H351.013V52H349.637ZM357.509 51.872V50.784C358.821 49.2 359.333 48 359.333 46.32V44.992H354.309V43.648H359.925C360.373 43.648 360.725 43.984 360.725 44.432V46C360.725 48.128 360.165 49.952 358.469 51.872H357.509ZM354.453 53.664V47.072H355.829V53.664H354.453ZM367.414 52V45.872C367.414 45.36 367.046 44.992 366.534 44.992H363.11V43.648H367.046C368.054 43.648 368.806 44.4 368.806 45.424V52H367.414ZM376.263 52V44.992H371.751V43.648H376.855C377.303 43.648 377.655 44 377.655 44.448V52H376.263ZM371.847 52V47.264H373.223V52H371.847ZM390.632 53.968V53.328C391.416 53.008 391.672 52.448 391.672 52.08C391.256 51.888 390.984 51.488 390.984 50.976C390.984 50.32 391.48 49.792 392.168 49.792C392.696 49.792 393.352 50.096 393.352 51.136C393.352 52.48 392.152 53.824 390.632 53.968ZM401.481 52V44.992H397.449V43.648H403.833V44.992H402.857V52H401.481ZM409.321 52V44.992H406.953V43.648H410.697V52H409.321ZM417.994 51.872V50.784C419.306 49.2 419.818 48 419.818 46.32V44.992H414.794V43.648H420.41C420.858 43.648 421.21 43.984 421.21 44.432V46C421.21 48.128 420.65 49.952 418.954 51.872H417.994ZM414.938 53.664V47.072H416.314V53.664H414.938ZM426.33 48.864V47.92C426.73 47.36 427.242 46.704 427.242 45.504V44.976H424.298V43.648H428.522C428.602 44.016 428.618 44.352 428.618 44.832C428.618 46.864 428.026 48 427.13 48.864H426.33ZM436.539 52V45.872C436.539 45.36 436.171 44.992 435.659 44.992H432.235V43.648H436.171C437.179 43.648 437.931 44.4 437.931 45.424V52H436.539ZM445.388 52V44.992H440.876V43.648H445.98C446.428 43.648 446.78 44 446.78 44.448V52H445.388ZM440.972 52V47.264H442.348V52H440.972ZM461.853 53.664V44.976H458.061V43.648H464.173V44.976H463.229V53.664H461.853ZM468.638 52V50.848C470.75 48.912 471.374 47.872 471.374 46.24V44.992H466.766V41.648H468.158V43.648H471.966C472.414 43.648 472.766 44 472.766 44.448V46.112C472.766 48.4 471.678 50.16 469.454 52H468.638ZM479.95 52V44.992H475.438V43.648H480.542C480.99 43.648 481.342 44 481.342 44.448V52H479.95ZM475.534 52V47.264H476.91V52H475.534ZM488.191 43.584C489.391 43.584 490.223 44.416 490.223 45.648V52H486.991V50.672H488.847V45.984C488.847 45.376 488.415 44.928 487.855 44.928C487.759 44.928 487.679 44.928 487.423 44.976L485.823 45.264L485.023 52H483.711V51.344L484.447 45.168L483.679 44.88V43.6H484.303L485.519 44L487.679 43.632C487.855 43.6 488.031 43.584 488.191 43.584ZM492.479 52V50.656H496.815V44.992H492.815V43.648H497.391C497.855 43.648 498.191 44 498.191 44.448V50.656H499.119V52H492.479ZM288.352 71V63.992H285.984V62.648H289.728V71H288.352ZM295.825 71V69.848C297.937 67.912 298.561 66.872 298.561 65.24V63.992H293.953V60.648H295.345V62.648H299.153C299.601 62.648 299.953 63 299.953 63.448V65.112C299.953 67.4 298.865 69.16 296.641 71H295.825ZM305.634 71V63.992H303.266V62.648H307.01V71H305.634ZM311.106 71V69.672H314.306C315.17 69.672 315.826 69.016 315.826 68.152V63.992H311.346V62.648H316.562C316.93 62.648 317.202 62.936 317.202 63.288V68.2C317.202 69.672 315.874 71 314.402 71H311.106ZM331.972 72.664V63.976H329.684V62.648H333.348V72.664H331.972ZM336.788 71V69.672H341.844L341.668 64.872C341.652 64.36 341.284 63.992 340.788 63.992H338.996L338.724 65.864C338.708 65.944 338.756 66.024 338.836 66.072L339.684 66.504V67.592H338.804L337.7 67.032C337.38 66.872 337.268 66.552 337.316 66.2L337.844 62.648H341.252C342.276 62.648 342.98 63.4 343.012 64.424L343.268 71H336.788ZM348.837 71V63.992H346.469V62.648H350.213V71H348.837ZM358.181 62.648L360.421 70.472V71H359.141L358.437 68.552L355.525 71H354.549V70.104L358.037 67.144L357.141 63.992H355.685V62.648H358.181ZM366.118 71V63.992H363.75V62.648H367.494V71H366.118ZM381.991 72.968V72.328C382.775 72.008 383.031 71.448 383.031 71.08C382.615 70.888 382.343 70.488 382.343 69.976C382.343 69.32 382.839 68.792 383.527 68.792C384.055 68.792 384.711 69.096 384.711 70.136C384.711 71.48 383.511 72.824 381.991 72.968ZM392.04 71V63.992H389.672V62.648H393.416V71H392.04ZM399.945 71V63.992H398.153V62.648H403.113V63.992H401.321V71H399.945ZM406.073 71V69.656H410.409V63.992H406.409V62.648H410.985C411.449 62.648 411.785 63 411.785 63.448V69.656H412.713V71H406.073ZM426.602 71V63.992H424.234V62.648H427.978V71H426.602ZM434.507 71V63.992H432.715V62.648H437.675V63.992H435.883V71H434.507ZM448.956 71V69.672H450.044C449.868 68.92 449.772 68.12 449.772 67.304C449.772 66.12 449.948 64.936 450.236 63.992H449.132V62.648H454.86C455.308 62.648 455.66 63 455.66 63.448V71H454.268V63.992H451.66C451.372 64.904 451.164 65.896 451.164 67.112C451.164 67.896 451.26 68.776 451.484 69.672V71H448.956ZM461.165 71V63.992H458.797V62.648H462.541V71H461.165ZM469.07 71V63.992H467.278V62.648H472.238V63.992H470.446V71H469.07ZM475.454 71V62.648H480.654C481.102 62.648 481.454 63 481.454 63.448V71H480.078V63.992H476.83V71H475.454ZM487.087 71V63.992H484.719V62.648H488.463V71H487.087ZM498.783 63.672C498.783 65.64 498.335 66.44 496.735 67.192L498.559 70.056L498.543 71H497.503L494.751 66.696C494.207 67.272 493.967 68.04 493.967 69.192V71H492.591V69.512C492.591 67.656 493.071 66.488 494.127 65.72L492.783 63.608L492.799 62.648H493.823L496.143 66.28C497.135 65.784 497.407 65.32 497.407 64.2V62.648H498.783V63.672ZM322.643 86.864V85.92C323.043 85.36 323.555 84.704 323.555 83.504V82.976H320.611V81.648H324.835C324.915 82.016 324.931 82.352 324.931 82.832C324.931 84.864 324.339 86 323.443 86.864H322.643ZM332.356 90V82.992H328.324V81.648H334.708V82.992H333.732V90H332.356ZM341.892 81.648H343.252V82.288C343.236 83.008 343.22 83.824 343.172 84.544C342.916 88.384 341.492 89.776 337.604 90.272L336.98 90.352H336.772V89.024C337.156 88.992 337.508 88.96 337.86 88.896C338.148 88.848 338.42 88.8 338.676 88.736L337.46 82.304V81.648H338.772L340.004 88.304C341.14 87.76 341.636 86.832 341.78 84.912C341.86 83.856 341.876 82.528 341.892 81.648ZM351.685 82.784C351.685 84.608 351.269 85.296 349.765 85.936L351.605 88.704V90H345.765V88.672H350.037L345.845 82.608V81.648H346.917L349.189 85.056C350.069 84.688 350.309 84.304 350.309 83.296V81.648H351.685V82.784ZM362.55 90V88.672H363.638C363.462 87.92 363.366 87.12 363.366 86.304C363.366 85.12 363.542 83.936 363.83 82.992H362.726V81.648H368.454C368.902 81.648 369.254 82 369.254 82.448V90H367.862V82.992H365.254C364.966 83.904 364.758 84.896 364.758 86.112C364.758 86.896 364.854 87.776 365.078 88.672V90H362.55ZM377.815 82.672C377.815 84.64 377.367 85.44 375.767 86.192L377.591 89.056L377.575 90H376.535L373.783 85.696C373.239 86.272 372.999 87.04 372.999 88.192V90H371.623V88.512C371.623 86.656 372.103 85.488 373.159 84.72L371.815 82.608L371.831 81.648H372.855L375.175 85.28C376.167 84.784 376.439 84.32 376.439 83.2V81.648H377.815V82.672ZM388.472 90V88.672H389.56C389.384 87.92 389.288 87.12 389.288 86.304C389.288 85.12 389.464 83.936 389.752 82.992H388.648V81.648H394.376C394.824 81.648 395.176 82 395.176 82.448V90H393.784V82.992H391.176C390.888 83.904 390.68 84.896 390.68 86.112C390.68 86.896 390.776 87.776 391 88.672V90H388.472ZM400.681 90V82.992H398.312V81.648H402.057V90H400.681ZM406.777 90V88.672H409.945V82.992H407.945V81.648H411.321V89.2C411.321 89.648 411.001 90 410.537 90H406.777ZM417.69 86.864V85.92C418.09 85.36 418.602 84.704 418.602 83.504V82.976H415.658V81.648H419.882C419.962 82.016 419.978 82.352 419.978 82.832C419.978 84.864 419.386 86 418.49 86.864H417.69ZM427.402 90V82.992H423.37V81.648H429.754V82.992H428.778V90H427.402ZM436.939 81.648H438.299V82.288C438.283 83.008 438.267 83.824 438.219 84.544C437.963 88.384 436.539 89.776 432.651 90.272L432.027 90.352H431.819V89.024C432.203 88.992 432.555 88.96 432.907 88.896C433.195 88.848 433.467 88.8 433.723 88.736L432.507 82.304V81.648H433.819L435.051 88.304C436.187 87.76 436.683 86.832 436.827 84.912C436.907 83.856 436.923 82.528 436.939 81.648ZM440.636 90V88.656H444.972V82.992H440.972V81.648H445.548C446.012 81.648 446.348 82 446.348 82.448V88.656H447.276V90H440.636ZM461.965 90V82.992H457.933V81.648H464.317V82.992H463.341V90H461.965ZM471.31 90V82.992H466.798V81.648H471.902C472.35 81.648 472.702 82 472.702 82.448V90H471.31ZM466.894 90V85.264H468.27V90H466.894ZM479.246 90V82.992H475.214V81.648H481.598V82.992H480.622V90H479.246ZM488.591 90V82.992H484.079V81.648H489.183C489.631 81.648 489.983 82 489.983 82.448V90H488.591ZM484.175 90V85.264H485.551V90H484.175ZM496.831 81.584C498.031 81.584 498.863 82.416 498.863 83.648V90H495.631V88.672H497.487V83.984C497.487 83.376 497.055 82.928 496.495 82.928C496.399 82.928 496.319 82.928 496.063 82.976L494.463 83.264L493.663 90H492.351V89.344L493.087 83.168L492.319 82.88V81.6H492.943L494.159 82L496.319 81.632C496.495 81.6 496.671 81.584 496.831 81.584ZM271.103 108.872V107.784C272.415 106.2 272.927 105 272.927 103.32V101.992H267.903V100.648H273.519C273.967 100.648 274.319 100.984 274.319 101.432V103C274.319 105.128 273.759 106.952 272.063 108.872H271.103ZM268.047 110.664V104.072H269.423V110.664H268.047ZM279.712 109V101.992H277.344V100.648H281.088V109H279.712ZM284.944 109V107.672H290L289.824 102.872C289.808 102.36 289.44 101.992 288.944 101.992H287.152L286.88 103.864C286.864 103.944 286.912 104.024 286.992 104.072L287.84 104.504V105.592H286.96L285.856 105.032C285.536 104.872 285.424 104.552 285.472 104.2L286 100.648H289.408C290.432 100.648 291.136 101.4 291.168 102.424L291.424 109H284.944ZM296.721 105.864V104.92C297.121 104.36 297.633 103.704 297.633 102.504V101.976H294.689V100.648H298.913C298.993 101.016 299.009 101.352 299.009 101.832C299.009 103.864 298.417 105 297.521 105.864H296.721ZM308.69 101.672C308.69 103.64 308.242 104.44 306.642 105.192L308.466 108.056L308.45 109H307.41L304.658 104.696C304.114 105.272 303.874 106.04 303.874 107.192V109H302.498V107.512C302.498 105.656 302.978 104.488 304.034 103.72L302.69 101.608L302.706 100.648H303.73L306.05 104.28C307.042 103.784 307.314 103.32 307.314 102.2V100.648H308.69V101.672ZM321.747 109V107.848C323.859 105.912 324.483 104.872 324.483 103.24V101.992H319.875V98.648H321.267V100.648H325.075C325.523 100.648 325.875 101 325.875 101.448V103.112C325.875 105.4 324.787 107.16 322.563 109H321.747ZM333.252 100.648H334.612V101.288C334.596 102.008 334.58 102.824 334.532 103.544C334.276 107.384 332.852 108.776 328.964 109.272L328.34 109.352H328.132V108.024C328.516 107.992 328.868 107.96 329.22 107.896C329.508 107.848 329.78 107.8 330.036 107.736L328.82 101.304V100.648H330.132L331.364 107.304C332.5 106.76 332.996 105.832 333.14 103.912C333.22 102.856 333.236 101.528 333.252 100.648ZM350.341 109V101.992H345.829V100.648H350.933C351.381 100.648 351.733 101 351.733 101.448V109H350.341ZM345.925 109V104.264H347.301V109H345.925ZM358.773 109V102.872C358.773 102.36 358.405 101.992 357.893 101.992H354.469V100.648H358.405C359.413 100.648 360.165 101.4 360.165 102.424V109H358.773ZM365.846 105.864V104.92C366.246 104.36 366.758 103.704 366.758 102.504V101.976H363.814V100.648H368.038C368.118 101.016 368.134 101.352 368.134 101.832C368.134 103.864 367.542 105 366.646 105.864H365.846ZM375.863 100.584C377.063 100.584 377.895 101.416 377.895 102.648V109H374.663V107.672H376.519V102.984C376.519 102.376 376.087 101.928 375.527 101.928C375.431 101.928 375.351 101.928 375.095 101.976L373.495 102.264L372.695 109H371.383V108.344L372.119 102.168L371.351 101.88V100.6H371.975L373.191 101L375.351 100.632C375.527 100.6 375.703 100.584 375.863 100.584ZM385.559 100.648H386.855V103.128C386.855 107.064 385.159 109 380.727 109C380.439 109 380.231 108.744 380.231 108.408V100.648H381.511V104.232C382.519 104.04 382.887 103.544 382.887 102.184V100.648H384.183V101.896C384.183 103.928 383.479 105.016 381.511 105.288V107.688C384.231 107.656 385.559 106.232 385.559 103.48V100.648ZM401.369 110.664V101.976H397.577V100.648H403.689V101.976H402.745V110.664H401.369ZM409.321 109V101.992H406.953V100.648H410.697V109H409.321ZM414.394 109V107.672H415.482C415.306 106.92 415.21 106.12 415.21 105.304C415.21 104.12 415.386 102.936 415.674 101.992H414.57V100.648H420.298C420.746 100.648 421.098 101 421.098 101.448V109H419.706V101.992H417.098C416.81 102.904 416.602 103.896 416.602 105.112C416.602 105.896 416.698 106.776 416.922 107.672V109H414.394ZM433.835 110.968V110.328C434.619 110.008 434.875 109.448 434.875 109.08C434.459 108.888 434.187 108.488 434.187 107.976C434.187 107.32 434.683 106.792 435.371 106.792C435.899 106.792 436.555 107.096 436.555 108.136C436.555 109.48 435.355 110.824 433.835 110.968ZM440.812 109V100.648H445.1C446.124 100.648 446.86 101.4 446.86 102.424V109H440.812ZM442.188 107.672H445.484V102.872C445.484 102.36 445.1 101.992 444.604 101.992H442.188V107.672ZM452.252 105.864V104.92C452.652 104.36 453.164 103.704 453.164 102.504V101.976H450.22V100.648H454.444C454.524 101.016 454.54 101.352 454.54 101.832C454.54 103.864 453.948 105 453.052 105.864H452.252ZM460.893 105.864V104.92C461.293 104.36 461.805 103.704 461.805 102.504V101.976H458.861V100.648H463.085C463.165 101.016 463.181 101.352 463.181 101.832C463.181 103.864 462.589 105 461.693 105.864H460.893ZM468.638 109V107.848C470.75 105.912 471.374 104.872 471.374 103.24V101.992H466.766V98.648H468.158V100.648H471.966C472.414 100.648 472.766 101 472.766 101.448V103.112C472.766 105.4 471.678 107.16 469.454 109H468.638ZM479.15 100.648L481.39 108.472V109H480.11L479.406 106.552L476.494 109H475.518V108.104L479.006 105.144L478.11 101.992H476.654V100.648H479.15ZM488.383 109V102.872C488.383 102.36 488.015 101.992 487.503 101.992H484.079V100.648H488.015C489.023 100.648 489.775 101.4 489.775 102.424V109H488.383ZM497.231 109V101.992H492.719V100.648H497.823C498.271 100.648 498.623 101 498.623 101.448V109H497.231ZM492.815 109V104.264H494.191V109H492.815ZM314.226 128.144C313.554 128.144 313.058 127.632 313.058 126.96C313.058 126.32 313.554 125.792 314.226 125.792C314.882 125.792 315.394 126.32 315.394 126.96C315.394 127.632 314.882 128.144 314.226 128.144ZM324.403 129.664V120.976H321.635L321.331 123.376C321.315 123.456 321.347 123.536 321.443 123.584L322.275 124V125.104H321.363L320.259 124.544C319.955 124.384 319.843 124.064 319.891 123.696L320.371 120.24C320.419 119.856 320.771 119.648 321.171 119.648H324.995C325.443 119.648 325.779 119.984 325.779 120.432V129.664H324.403ZM331.556 128V120.992H329.188V119.648H332.932V128H331.556ZM340.9 119.648L343.14 127.472V128H341.86L341.156 125.552L338.244 128H337.268V127.104L340.756 124.144L339.86 120.992H338.404V119.648H340.9ZM350.341 128V120.992H345.829V119.648H350.933C351.381 119.648 351.733 120 351.733 120.448V128H350.341ZM345.925 128V123.264H347.301V128H345.925ZM365.846 124.864V123.92C366.246 123.36 366.758 122.704 366.758 121.504V120.976H363.814V119.648H368.038C368.118 120.016 368.134 120.352 368.134 120.832C368.134 122.864 367.542 124 366.646 124.864H365.846ZM374.791 127.872V126.784C376.103 125.2 376.615 124 376.615 122.32V120.992H371.591V119.648H377.207C377.655 119.648 378.007 119.984 378.007 120.432V122C378.007 124.128 377.447 125.952 375.751 127.872H374.791ZM371.735 129.664V123.072H373.111V129.664H371.735ZM382.231 128V126.848C384.343 124.912 384.967 123.872 384.967 122.24V120.992H380.359V117.648H381.751V119.648H385.559C386.007 119.648 386.359 120 386.359 120.448V122.112C386.359 124.4 385.271 126.16 383.047 128H382.231ZM389.048 128V119.648H394.248C394.696 119.648 395.048 120 395.048 120.448V128H393.672V120.992H390.424V128H389.048ZM410.617 128V121.872C410.617 121.36 410.249 120.992 409.737 120.992H406.313V119.648H410.249C411.257 119.648 412.009 120.4 412.009 121.424V128H410.617ZM421.018 120.672C421.018 122.64 420.57 123.44 418.97 124.192L420.794 127.056L420.778 128H419.738L416.986 123.696C416.442 124.272 416.202 125.04 416.202 126.192V128H414.826V126.512C414.826 124.656 415.306 123.488 416.362 122.72L415.018 120.608L415.034 119.648H416.058L418.378 123.28C419.37 122.784 419.642 122.32 419.642 121.2V119.648H421.018V120.672ZM428.762 119.648H430.058V122.128C430.058 126.064 428.362 128 423.93 128C423.642 128 423.434 127.744 423.434 127.408V119.648H424.714V123.232C425.722 123.04 426.09 122.544 426.09 121.184V119.648H427.386V120.896C427.386 122.928 426.682 124.016 424.714 124.288V126.688C427.434 126.656 428.762 125.232 428.762 122.48V119.648ZM440.316 128V126.672H441.404C441.228 125.92 441.132 125.12 441.132 124.304C441.132 123.12 441.308 121.936 441.596 120.992H440.492V119.648H446.22C446.668 119.648 447.02 120 447.02 120.448V128H445.628V120.992H443.02C442.732 121.904 442.524 122.896 442.524 124.112C442.524 124.896 442.62 125.776 442.844 126.672V128H440.316ZM452.524 128V120.992H450.156V119.648H453.9V128H452.524ZM462.861 119.648H464.221V120.288C464.205 121.008 464.189 121.824 464.141 122.544C463.885 126.384 462.461 127.776 458.573 128.272L457.949 128.352H457.741V127.024C458.125 126.992 458.477 126.96 458.829 126.896C459.117 126.848 459.389 126.8 459.645 126.736L458.429 120.304V119.648H459.741L460.973 126.304C462.109 125.76 462.605 124.832 462.749 122.912C462.829 121.856 462.845 120.528 462.861 119.648ZM469.806 128V120.992H467.438V119.648H471.182V128H469.806ZM475.902 128V126.672H479.07V120.992H477.07V119.648H480.446V127.2C480.446 127.648 480.126 128 479.662 128H475.902ZM483.519 128V126.672H484.607C484.431 125.92 484.335 125.12 484.335 124.304C484.335 123.12 484.511 121.936 484.799 120.992H483.695V119.648H489.423C489.871 119.648 490.223 120 490.223 120.448V128H488.831V120.992H486.223C485.935 121.904 485.727 122.896 485.727 124.112C485.727 124.896 485.823 125.776 486.047 126.672V128H483.519ZM492.479 128V126.656H496.815V120.992H492.815V119.648H497.391C497.855 119.648 498.191 120 498.191 120.448V126.656H499.119V128H492.479Z" fill="white"/>
</svg>
